<svg width="583" height="445" viewBox="0 0 583 445" fill="none" xmlns="http://www.w3.org/2000/svg">
<path d="M105.634 319.493C64.1045 260.611 61.2678 197.147 62.1148 143.681C62.9617 90.2155 93.2115 37.0461 140.939 13.1293C188.666 -10.7875 252.003 -1.69236 288.114 37.6659C311.722 63.3883 324.629 100.55 355.78 116.261C399.783 138.44 453.063 105.361 501.395 114.833C538.475 122.096 567.192 154.717 577.557 191.124C587.923 227.532 582.357 266.85 570.311 302.731C558.211 338.842 538.381 374.078 506.545 394.882C478.096 413.476 443.141 418.677 409.302 421.83C353.319 426.91 296.073 427.328 241.785 412.681C187.497 398.035 136.018 366.855 105.634 319.493Z" fill="#EBEBEB"/>
<path d="M399.874 50.6196C398.032 39.0889 390.119 28.994 379.959 23.2176C369.799 17.4413 360.977 14.8326 349.622 18.8333C339.857 20.5542 331.089 31.6575 328.535 41.2701C325.981 50.8827 328.678 61.5037 334.728 69.3845C340.777 77.2653 349.918 82.5375 359.596 84.7296C368.835 86.867 379.072 86.2532 387.051 81.1345C396.849 74.832 401.726 62.1614 399.874 50.6196Z" fill="#EBEBEB"/>
<path d="M72.2995 112.717C70.4582 101.186 62.5451 91.0911 52.3852 85.3148C42.2253 79.5385 33.4025 76.9298 22.0479 80.9305C12.2826 82.6513 3.51457 93.7546 0.960893 103.367C-1.59279 112.98 1.10337 123.601 7.15328 131.482C13.2032 139.363 22.3438 144.635 32.0215 146.827C41.2608 148.964 51.4974 148.35 59.4763 143.232C69.2745 136.929 74.1517 124.259 72.2995 112.717Z" fill="#EBEBEB"/>
<path d="M505.679 442.446C505.679 442.599 399.97 442.731 269.601 442.731C139.232 442.731 33.5117 442.599 33.5117 442.446C33.5117 442.292 139.188 442.15 269.601 442.15C400.014 442.15 505.679 442.281 505.679 442.446Z" fill="#263238"/>
<path d="M212.28 106.769L212.033 308.853L478.843 309.179L479.09 107.095L212.28 106.769Z" fill="#FAFAFA"/>
<path d="M478.85 309.196C478.85 307.201 478.85 229.292 478.85 107.112L479.091 107.353L212.303 107.068L212.588 106.783C212.489 179.475 212.39 248.298 212.314 308.856L212.051 308.593L478.861 309.196L212.04 309.086H211.766V308.823C211.842 248.265 211.919 179.486 211.996 106.75V106.454H212.314L479.102 106.838H479.343V107.079C479.047 229.292 478.85 307.201 478.85 309.196Z" fill="#263238"/>
<path d="M476.592 125.756C476.592 125.909 417.55 125.975 344.732 125.876C271.914 125.778 212.861 125.58 212.861 125.427C212.861 125.274 271.892 125.208 344.732 125.296C417.572 125.383 476.592 125.591 476.592 125.756Z" fill="#263238"/>
<path d="M226.78 116.637C226.818 117.448 226.611 118.252 226.188 118.944C225.764 119.637 225.143 120.187 224.404 120.524C223.665 120.86 222.842 120.968 222.041 120.833C221.241 120.698 220.499 120.326 219.911 119.765C219.324 119.205 218.918 118.481 218.745 117.687C218.573 116.894 218.642 116.067 218.943 115.313C219.245 114.559 219.765 113.913 220.437 113.457C221.109 113.001 221.902 112.757 222.714 112.757C223.236 112.744 223.756 112.834 224.243 113.022C224.73 113.21 225.175 113.492 225.553 113.853C225.931 114.213 226.233 114.644 226.444 115.122C226.655 115.6 226.769 116.115 226.78 116.637Z" fill="#263238"/>
<path d="M238.694 116.648C238.732 117.46 238.525 118.264 238.101 118.957C237.677 119.65 237.055 120.2 236.315 120.536C235.576 120.872 234.752 120.979 233.951 120.843C233.15 120.707 232.409 120.334 231.822 119.773C231.235 119.211 230.829 118.486 230.658 117.692C230.487 116.898 230.557 116.07 230.86 115.317C231.163 114.563 231.685 113.917 232.359 113.463C233.033 113.009 233.827 112.767 234.639 112.768C235.161 112.755 235.68 112.845 236.166 113.033C236.652 113.221 237.097 113.504 237.474 113.864C237.851 114.225 238.153 114.657 238.362 115.134C238.572 115.612 238.685 116.126 238.694 116.648Z" fill="#263238"/>
<path d="M250.607 116.67C250.642 117.481 250.433 118.284 250.008 118.976C249.582 119.668 248.96 120.216 248.22 120.551C247.48 120.885 246.657 120.99 245.857 120.853C245.056 120.716 244.315 120.342 243.73 119.78C243.144 119.217 242.739 118.493 242.569 117.699C242.399 116.905 242.47 116.078 242.773 115.325C243.077 114.572 243.599 113.927 244.273 113.473C244.946 113.019 245.74 112.777 246.552 112.779C247.074 112.767 247.593 112.859 248.079 113.048C248.566 113.237 249.01 113.521 249.387 113.883C249.764 114.244 250.065 114.676 250.275 115.155C250.484 115.633 250.597 116.148 250.607 116.67Z" fill="#263238"/>
<path d="M409.049 190.925L298.517 190.79C285.848 190.775 275.566 201.033 275.55 213.703L275.545 218.109C275.529 230.779 285.787 241.063 298.456 241.078L408.987 241.213C421.656 241.229 431.939 230.97 431.955 218.3L431.96 213.894C431.976 201.224 421.718 190.941 409.049 190.925Z" fill="#8547C6"/>
<g opacity="0.4">
<path opacity="0.4" d="M409.05 190.925L298.518 190.79C285.849 190.775 275.567 201.033 275.551 213.703L275.546 218.109C275.53 230.779 285.788 241.063 298.457 241.078L408.988 241.213C421.657 241.229 431.94 230.97 431.956 218.3L431.961 213.894C431.977 201.224 421.719 190.941 409.05 190.925Z" fill="black"/>
</g>
<path d="M397.662 190.9L287.131 190.765C274.462 190.75 264.179 201.008 264.163 213.678L264.158 218.085C264.143 230.754 274.4 241.038 287.069 241.053L397.601 241.189C410.27 241.204 420.553 230.946 420.568 218.276L420.573 213.869C420.589 201.199 410.331 190.916 397.662 190.9Z" fill="#8547C6"/>
<path d="M166.13 271.118L216.491 320.233L270.107 263.335L289.035 279.908L250.467 347.449C247.46 352.928 243.161 357.589 237.942 361.028C232.724 364.466 226.744 366.577 220.524 367.178C214.808 367.752 209.035 367.068 203.61 365.174C198.186 363.281 193.242 360.224 189.124 356.217L161.428 329.407L166.13 271.118Z" fill="#FFBE9D"/>
<path d="M288.344 247.136C288.344 247.136 310.538 233.819 312.192 233.819C313.847 233.819 337.554 226.508 337.554 226.508L347.714 226.354C347.714 226.354 350.322 230.158 342.026 231.912L336.798 233.687L329.992 236.745L324.106 239.343L328.194 240.099C329.157 240.278 330.061 240.692 330.826 241.304C331.59 241.915 332.192 242.707 332.578 243.607L336.513 252.77C336.513 252.77 336.184 263.051 334.189 264.049C333.535 264.33 332.83 264.476 332.118 264.476C331.405 264.476 330.701 264.33 330.046 264.049C330.046 264.049 330.211 269.025 329.06 269.683C327.909 270.34 325.41 269.683 325.41 269.683C325.41 269.683 323.087 270.779 322.254 269.979C321.421 269.178 320.928 266.033 320.928 266.033L319.327 264.542L310.921 268.203C307.782 269.552 304.417 270.295 301.002 270.395L294.076 270.636L285.439 286.496L264.867 268.893C272.2 261.127 280.043 253.859 288.344 247.136Z" fill="#FFBE9D"/>
<path d="M313.125 250.994C316.413 252.825 317.893 254.776 321.663 254.611C324.232 254.562 326.795 254.343 329.335 253.954C331.442 253.638 333.574 253.524 335.703 253.614C337.116 253.614 338.826 253.822 339.44 255.093C339.616 255.56 339.654 256.068 339.549 256.556C339.444 257.044 339.201 257.491 338.848 257.845C338.13 258.534 337.275 259.065 336.338 259.401C329.921 261.945 323.304 263.954 316.555 265.408" fill="#FFBE9D"/>
<path d="M328.184 244.933C328.081 245.605 327.814 246.241 327.406 246.785C326.986 247.508 326.416 248.132 325.733 248.615C325.05 249.097 324.271 249.426 323.449 249.58C322.539 249.646 321.624 249.538 320.753 249.262L318.671 248.725C317.498 248.396 316.764 248.298 316.764 248.232C317.425 248.093 318.111 248.124 318.758 248.319L320.874 248.736C321.685 248.967 322.531 249.056 323.373 248.999C324.878 248.697 326.205 247.815 327.066 246.544C327.411 245.988 327.784 245.45 328.184 244.933Z" fill="#7C3B29"/>
<path d="M328.6 253.909C327.771 253.23 327.073 252.406 326.539 251.476C325.851 250.654 325.317 249.715 324.961 248.703C325.79 249.383 326.488 250.207 327.021 251.136C327.707 251.961 328.241 252.899 328.6 253.909Z" fill="#7C3B29"/>
<path d="M324.226 250.698C324.412 250.698 324.325 251.903 323.492 252.999C322.659 254.096 321.76 254.698 321.661 254.567C321.563 254.435 322.286 253.701 323.02 252.66C323.755 251.618 324.073 250.698 324.226 250.698Z" fill="#7C3B29"/>
<path d="M314.319 249.274C313.763 248.386 313.559 247.322 313.749 246.292C313.741 245.245 314.133 244.233 314.845 243.464C314.998 243.541 314.461 244.758 314.341 246.347C314.22 247.936 314.483 249.23 314.319 249.274Z" fill="#7C3B29"/>
<path d="M318.078 264.871C318.236 264.784 318.401 264.71 318.572 264.651L320.007 264.125L325.334 262.295L333.28 259.653L335.571 258.897C336.364 258.679 337.135 258.385 337.872 258.02C338.234 257.872 338.556 257.643 338.815 257.35C339.073 257.057 339.261 256.709 339.363 256.332C339.392 255.932 339.304 255.533 339.109 255.182C338.914 254.832 338.622 254.546 338.267 254.359C337.524 253.953 336.691 253.742 335.845 253.745C334.968 253.745 334.102 253.691 333.258 253.745C331.627 253.767 330.002 253.939 328.403 254.261C326.879 254.589 325.444 255.028 324.019 255.203C322.7 255.404 321.354 255.314 320.073 254.94C318.263 254.356 316.569 253.462 315.064 252.299C314.527 251.915 314.122 251.597 313.848 251.367C313.574 251.137 313.431 251.027 313.453 251.005C313.475 250.983 314.078 251.389 315.196 252.101C316.72 253.17 318.403 253.991 320.183 254.535C321.409 254.859 322.69 254.922 323.942 254.721C325.312 254.524 326.726 254.074 328.326 253.723C329.957 253.389 331.615 253.209 333.28 253.186C334.15 253.186 335.026 253.186 335.91 253.186C336.864 253.177 337.802 253.423 338.629 253.899C339.07 254.149 339.427 254.524 339.657 254.976C339.887 255.428 339.979 255.938 339.922 256.442C339.81 256.908 339.59 257.342 339.279 257.707C338.969 258.073 338.577 258.36 338.135 258.546C337.364 258.92 336.561 259.225 335.735 259.456L333.433 260.19L325.466 262.711L320.128 264.345L318.648 264.761C318.468 264.835 318.274 264.873 318.078 264.871Z" fill="#7C3B29"/>
<path d="M323.613 262.81C324.177 263.835 324.57 264.946 324.775 266.098C325.171 267.199 325.375 268.359 325.378 269.529C324.42 267.399 323.824 265.125 323.613 262.799V262.81Z" fill="#7C3B29"/>
<path d="M329.522 261.287C329.675 261.287 329.949 261.846 330.048 262.624C330.146 263.402 330.048 264.049 329.883 264.06C329.719 264.071 329.565 263.457 329.467 262.701C329.368 261.944 329.368 261.32 329.522 261.287Z" fill="#7C3B29"/>
<path d="M337.884 233.303C337.521 233.529 337.135 233.717 336.733 233.862L333.533 235.276C330.848 236.493 327.121 238.159 323.154 240.252C322.167 240.779 321.203 241.348 320.315 241.864C319.449 242.342 318.685 242.986 318.068 243.76C317.079 245.136 316.477 246.752 316.326 248.44C316.23 250.012 316.446 251.588 316.961 253.077C316.705 252.726 316.512 252.332 316.391 251.915C316.006 250.788 315.846 249.596 315.92 248.407C316.014 246.623 316.611 244.902 317.641 243.442C317.955 243.029 318.324 242.66 318.737 242.346C319.153 242.028 319.581 241.71 320.041 241.425C320.94 240.844 321.915 240.329 322.913 239.77C326.913 237.677 330.672 236.065 333.401 234.947C334.771 234.388 335.889 233.961 336.689 233.698C337.069 233.516 337.471 233.384 337.884 233.303Z" fill="#7C3B29"/>
<path d="M190.613 442.6L165.767 395.139L173.669 344.347L169.68 264.87C165.443 260.533 160.192 257.32 154.401 255.521C148.611 253.722 142.464 253.394 136.515 254.567H96.3794C91.1515 256.387 70.47 260.113 65.2092 263.073C48.5061 272.466 45.2181 294.454 50.8296 312.78L70.2398 388.355L67.6094 443.52L190.613 442.6Z" fill="#8547C6"/>
<path d="M169.68 264.871L212.161 312.736L165.756 341.355L169.68 264.871Z" fill="#8547C6"/>
<g opacity="0.4">
<path opacity="0.4" d="M69.7569 411.022C68.1458 419.133 73.6916 427.32 80.9142 431.332C88.1369 435.343 96.6747 436.045 104.928 436.418C129.127 437.514 153.524 436.418 177.264 431.573C165.482 427.868 152.987 427.189 140.635 426.937C128.283 426.684 115.844 426.783 103.7 424.536C91.5564 422.289 79.5223 417.499 70.8201 408.742" fill="black"/>
</g>
<path d="M190.58 432.615C190.58 432.615 107.81 431.519 98.1218 430.488C85.748 429.14 71.1712 421.084 66.6118 403.59C64.4198 395.26 41.5025 325.013 48.9005 293.413C48.9662 293.095 49.043 292.788 49.1197 292.47C54.1613 272.423 82.8984 273.168 86.844 293.467L105.695 391.292L194.34 411.438L212.172 401.968L241.972 419.045L237.522 432.648L190.58 432.615Z" fill="#FFBE9D"/>
<path d="M67.2807 262.624C66.6341 263.051 45.7991 269.386 44.7799 293.467C43.6839 319.006 47.8377 358.476 47.8377 358.476L101.344 354.793L83.2604 271.02L67.2807 262.624Z" fill="#8547C6"/>
<path d="M165.757 401.936C165.715 401.642 165.697 401.345 165.702 401.048C165.702 400.467 165.702 399.612 165.702 398.505C165.773 395.386 166.007 392.272 166.403 389.177C166.875 385.253 167.675 380.617 168.672 375.498C169.67 370.379 170.864 364.778 171.818 358.849C172.768 353.271 173.277 347.627 173.341 341.969C173.386 337.367 172.934 332.773 171.993 328.268C171.343 325.23 170.396 322.264 169.165 319.412C168.771 318.392 168.332 317.647 168.069 317.11C167.934 316.848 167.817 316.577 167.719 316.299C167.896 316.536 168.05 316.789 168.179 317.055C168.442 317.581 168.902 318.305 169.341 319.324C170.664 322.159 171.678 325.128 172.366 328.18C173.388 332.705 173.896 337.33 173.878 341.969C173.845 347.641 173.35 353.301 172.399 358.893C171.423 364.844 170.207 370.456 169.198 375.564C168.19 380.672 167.335 385.286 166.82 389.188C166.305 393.09 166.031 396.269 165.932 398.472C165.855 399.568 165.855 400.423 165.823 401.004C165.832 401.316 165.81 401.628 165.757 401.936Z" fill="#263238"/>
<path d="M47.8379 358.475H48.1009L48.901 358.388L51.9808 358.125L63.2915 357.248L100.632 354.595L101.323 354.541L101.06 354.88L95.5797 318.293C94.9221 313.657 94.385 309.886 94.0014 307.223C93.8261 305.951 93.6945 304.954 93.5959 304.219C93.5959 303.902 93.5301 303.639 93.5082 303.43C93.4915 303.34 93.4915 303.247 93.5082 303.156C93.5435 303.24 93.5657 303.329 93.574 303.419C93.574 303.628 93.6617 303.88 93.7274 304.198C93.848 304.932 94.0233 305.929 94.2316 307.19C94.659 309.853 95.2618 313.613 95.9961 318.238C97.4429 327.621 99.4376 340.511 101.63 354.793V355.1H101.312H100.621L63.2696 357.588L51.9369 358.278L48.8572 358.432H48.0571C47.9256 358.497 47.8379 358.486 47.8379 358.475Z" fill="#263238"/>
<path d="M144.198 341.3C144.198 341.3 144.275 341.476 144.341 341.826C144.461 342.336 144.552 342.852 144.615 343.372C144.853 345.294 144.853 347.237 144.615 349.159C144.288 352.02 143.485 354.807 142.236 357.402C140.742 360.613 138.568 363.46 135.863 365.747C133.159 368.033 129.989 369.704 126.574 370.642C123.805 371.434 120.924 371.76 118.047 371.607C116.114 371.51 114.2 371.175 112.348 370.609C111.846 370.461 111.352 370.285 110.869 370.083C110.54 369.952 110.365 369.875 110.375 369.853C112.87 370.603 115.446 371.052 118.047 371.19C120.872 371.274 123.692 370.904 126.399 370.094C129.716 369.118 132.8 367.477 135.463 365.272C138.088 363.019 140.222 360.251 141.732 357.139C142.972 354.596 143.8 351.873 144.187 349.071C144.498 346.491 144.502 343.882 144.198 341.3Z" fill="#263238"/>
<path d="M51.6086 360.306C51.5737 360.2 51.5552 360.089 51.5538 359.977C51.5538 359.736 51.5538 359.418 51.4662 359.024C51.4662 358.147 51.3127 356.919 51.2031 355.352C50.9949 352.162 50.7428 347.548 50.5236 341.826C50.0852 330.405 49.8441 314.599 50.5236 297.161C50.699 292.776 50.7757 288.524 51.3456 284.424C51.7801 280.451 52.9863 276.601 54.8966 273.091C56.7719 269.972 59.3599 267.343 62.4481 265.418C65.1083 263.749 67.9947 262.472 71.0188 261.626C75.3966 260.462 79.8867 259.771 84.4119 259.565C86.0121 259.467 87.2506 259.412 88.0945 259.379H89.048H89.3768C89.2706 259.414 89.1597 259.432 89.048 259.434L88.0945 259.51L84.4886 259.763C79.9951 260.048 75.5414 260.782 71.1942 261.955C68.2187 262.822 65.3811 264.106 62.7659 265.769C59.7603 267.662 57.2443 270.239 55.4227 273.288C53.547 276.738 52.3631 280.521 51.9374 284.424C51.3785 288.48 51.3018 292.744 51.1264 297.095C50.5017 314.523 50.677 330.317 51.0058 341.738C51.1812 347.449 51.3675 352.074 51.51 355.264C51.5758 356.831 51.6306 358.059 51.6634 358.947V359.9C51.6639 360.037 51.6455 360.174 51.6086 360.306Z" fill="#FAFAFA"/>
<path d="M95.2404 263.939C95.1454 263.973 95.0454 263.992 94.9445 263.994L94.0786 264.092L90.7906 264.465C86.7048 264.898 82.6684 265.712 78.7346 266.898C76.0454 267.739 73.4938 268.968 71.1612 270.548C68.5128 272.385 66.3592 274.847 64.8921 277.717C63.3803 280.948 62.52 284.445 62.3604 288.009C62.1636 291.854 62.1636 295.706 62.3604 299.551C62.9522 315.4 64.5524 329.693 65.9333 339.985C66.6457 345.137 67.3033 349.291 67.7636 352.151C67.9938 353.554 68.1692 354.661 68.3007 355.44L68.4322 356.295C68.4445 356.397 68.4445 356.5 68.4322 356.602C68.3955 356.506 68.3698 356.407 68.3555 356.306C68.3007 356.086 68.2459 355.801 68.1692 355.462C68.0048 354.661 67.7965 353.565 67.5225 352.173C66.9855 349.313 66.2621 345.169 65.4949 340.018C63.5243 326.606 62.2767 313.097 61.7576 299.551C61.5496 295.684 61.5496 291.809 61.7576 287.943C61.9255 284.307 62.8159 280.741 64.377 277.454C65.9008 274.514 68.1255 271.996 70.8544 270.121C73.2222 268.543 75.8065 267.317 78.5264 266.482C82.4813 265.326 86.5422 264.569 90.6481 264.224C92.0949 264.081 93.2237 263.994 93.9361 263.961H94.8129L95.2404 263.939Z" fill="#FAFAFA"/>
<path d="M85.7477 357.237C85.6675 356.925 85.6161 356.605 85.5942 356.284C85.5066 355.604 85.3969 354.683 85.2545 353.532C84.9914 351.088 84.6078 347.646 84.1585 343.416C83.2707 334.822 82.0542 323.039 80.7061 310.018C80.0266 303.507 79.4128 297.216 80.0814 291.516C80.3665 288.816 80.9964 286.164 81.9555 283.624C82.8174 281.42 83.9952 279.352 85.4517 277.486C87.5128 274.729 90.2974 272.597 93.4964 271.326C93.9947 271.127 94.5077 270.965 95.0308 270.844C95.4064 270.73 95.7916 270.649 96.1816 270.603C96.4966 270.543 96.8151 270.503 97.1351 270.482C95.9274 270.765 94.7409 271.131 93.5841 271.579C90.4723 272.907 87.7764 275.05 85.7806 277.782C84.3659 279.63 83.2321 281.676 82.4158 283.855C81.4839 286.331 80.8725 288.917 80.5965 291.549C79.9608 297.172 80.5965 303.409 81.265 309.93C82.5473 322.952 83.7091 334.746 84.553 343.339C84.9476 347.581 85.2545 351.011 85.4846 353.478C85.5833 354.639 85.649 355.549 85.7038 356.24C85.7522 356.57 85.7669 356.904 85.7477 357.237Z" fill="#FAFAFA"/>
<path d="M114.792 371.377C114.701 371.057 114.635 370.731 114.595 370.401C114.478 369.67 114.324 368.728 114.134 367.573C113.751 365.063 113.214 361.523 112.556 357.171C111.263 348.337 109.509 336.225 107.558 322.831C105.608 309.437 103.909 297.271 102.758 288.458C102.483 286.452 102.546 284.415 102.944 282.43C103.296 280.931 104.011 279.542 105.027 278.385C105.663 277.656 106.453 277.076 107.339 276.686C107.647 276.549 107.971 276.453 108.304 276.401C107.094 276.823 106.019 277.561 105.191 278.539C104.238 279.685 103.579 281.047 103.273 282.507C102.908 284.453 102.874 286.446 103.174 288.403C104.446 297.238 106.199 309.36 108.139 322.755C110.079 336.149 111.723 348.271 112.962 357.117C113.543 361.501 114.058 365.019 114.354 367.54C114.507 368.735 114.617 369.678 114.704 370.379C114.761 370.709 114.79 371.042 114.792 371.377Z" fill="#FAFAFA"/>
<path d="M124.799 396.137C124.629 394.931 124.537 393.716 124.525 392.498C124.394 390.251 124.164 387.16 123.736 383.73C123.309 380.299 122.783 377.274 122.355 375.059C122.077 373.874 121.868 372.674 121.73 371.464C122.191 372.596 122.536 373.771 122.761 374.972C123.435 377.839 123.954 380.741 124.317 383.664C124.683 386.573 124.888 389.5 124.931 392.432C125.012 393.669 124.968 394.91 124.799 396.137Z" fill="#FAFAFA"/>
<path d="M104.994 445C104.136 440.873 103.663 436.675 103.58 432.461C104.104 434.505 104.438 436.592 104.577 438.698C104.908 440.781 105.048 442.891 104.994 445Z" fill="#FAFAFA"/>
<path d="M80.4 423.923C80.6091 427.28 80.6311 430.647 80.4657 434.007C80.4924 437.372 80.3204 440.735 79.9506 444.08C79.7283 440.723 79.7063 437.355 79.8849 433.996C79.8582 430.631 80.0302 427.267 80.4 423.923Z" fill="#FAFAFA"/>
<path d="M111.35 368.812C111.675 369.934 111.881 371.088 111.964 372.253C112.299 375.05 112.468 377.865 112.468 380.682C112.473 383.499 112.312 386.313 111.986 389.111C111.904 390.275 111.706 391.428 111.394 392.553C111.376 391.388 111.438 390.223 111.581 389.067C111.734 386.875 111.887 383.959 111.887 380.682C111.887 377.405 111.712 374.445 111.559 372.297C111.411 371.141 111.341 369.977 111.35 368.812Z" fill="#FAFAFA"/>
<path d="M122.157 443.63C120.733 440.059 120.559 436.111 121.663 432.428C121.839 432.428 121.4 434.96 121.554 438.051C121.707 441.142 122.332 443.586 122.157 443.63Z" fill="#FAFAFA"/>
<path d="M142.237 403.766C142.113 403.254 142.033 402.734 141.996 402.209C141.875 401.113 141.711 399.666 141.514 397.956C141.097 394.361 140.472 389.418 139.618 383.97C138.763 378.523 137.82 373.623 137.108 370.083C136.768 368.395 136.483 366.992 136.264 365.885C136.135 365.375 136.05 364.854 136.012 364.329C136.222 364.811 136.38 365.314 136.483 365.83C136.757 366.806 137.108 368.231 137.513 369.995C138.335 373.525 139.333 378.424 140.198 383.883C141.064 389.341 141.612 394.306 141.919 397.913C142.073 399.721 142.182 401.201 142.226 402.187C142.282 402.712 142.286 403.24 142.237 403.766Z" fill="#FAFAFA"/>
<path d="M142.641 305.403C142.745 305.722 142.822 306.048 142.872 306.379C143.014 307.069 143.189 308.001 143.431 309.174C143.902 311.607 144.527 315.147 145.294 319.51C146.806 328.279 148.713 340.335 150.478 353.762C152.242 367.189 153.503 379.378 154.303 388.212C154.697 392.596 154.982 396.203 155.158 398.669C155.235 399.874 155.3 400.861 155.344 401.519C155.371 401.851 155.371 402.184 155.344 402.516C155.272 402.191 155.224 401.861 155.202 401.53C155.136 400.828 155.037 399.885 154.906 398.691C154.654 396.17 154.303 392.618 153.81 388.245C152.911 379.476 151.618 367.255 149.82 353.839C148.023 340.423 146.214 328.333 144.812 319.576C144.11 315.246 143.529 311.717 143.124 309.218C142.937 308.034 142.795 307.091 142.685 306.401C142.643 306.07 142.628 305.736 142.641 305.403Z" fill="#FAFAFA"/>
<path d="M166.512 384.048C166.499 383.957 166.499 383.864 166.512 383.773C166.512 383.565 166.512 383.302 166.446 382.984C166.446 382.25 166.358 381.242 166.293 379.959C166.227 378.677 166.15 377.044 165.997 375.18C165.843 373.317 165.756 371.19 165.504 368.845C165.251 366.499 165.043 363.945 164.682 361.172C164.32 358.399 163.936 355.506 163.487 352.404C162.5 346.266 161.229 339.547 159.563 332.565C157.897 325.583 155.968 319.017 154.083 313.098C153.086 310.161 152.165 307.344 151.19 304.768C150.214 302.192 149.316 299.759 148.439 297.578C147.562 295.397 146.74 293.435 146.017 291.714C145.293 289.993 144.647 288.513 144.099 287.329C143.551 286.146 143.178 285.236 142.871 284.556L142.564 283.833C142.527 283.748 142.497 283.66 142.477 283.57C142.537 283.638 142.585 283.716 142.619 283.8L142.981 284.501L144.307 287.231C144.888 288.414 145.578 289.872 146.313 291.615C147.047 293.358 147.957 295.265 148.822 297.457C149.688 299.649 150.697 302.028 151.639 304.626C152.582 307.223 153.579 310.018 154.598 312.967C156.527 318.886 158.467 325.462 160.155 332.455C161.843 339.448 163.081 346.189 164.035 352.349C164.473 355.44 164.912 358.366 165.186 361.117C165.46 363.869 165.745 366.444 165.931 368.79C166.117 371.136 166.238 373.262 166.347 375.136C166.457 377.011 166.512 378.611 166.534 379.926C166.556 381.242 166.534 382.217 166.589 382.962V383.752C166.583 383.854 166.556 383.955 166.512 384.048Z" fill="#FAFAFA"/>
<path d="M140.385 262.667C140.6 262.671 140.814 262.704 141.02 262.766C141.621 262.913 142.207 263.111 142.774 263.358C144.855 264.3 146.692 265.706 148.144 267.468C150.25 270.106 151.916 273.067 153.076 276.237L157.592 287.647C160.727 295.725 163.565 302.992 165.659 308.407C166.634 311.027 167.445 313.164 168.037 314.731C168.289 315.433 168.497 316.003 168.651 316.463C168.735 316.66 168.797 316.866 168.837 317.077C168.714 316.897 168.615 316.701 168.541 316.496C168.355 316.058 168.114 315.499 167.829 314.808L165.264 308.56L157.044 287.855C155.466 283.811 153.953 279.964 152.572 276.445C151.452 273.319 149.851 270.386 147.827 267.753C146.431 266.009 144.674 264.588 142.675 263.588C141.262 262.876 140.385 262.733 140.385 262.667Z" fill="#FAFAFA"/>
<path d="M120.831 287.702C120.891 287.979 120.924 288.262 120.93 288.546C120.974 289.152 121.029 289.952 121.094 290.946C121.237 293.138 121.434 296.098 121.686 299.791C122.223 307.245 123.144 317.537 124.623 328.859C126.103 340.182 127.857 350.365 129.26 357.708C129.961 361.336 130.542 364.285 130.958 366.411C131.141 367.383 131.294 368.172 131.419 368.779C131.487 369.052 131.527 369.331 131.539 369.612C131.437 369.349 131.36 369.078 131.309 368.801C131.156 368.209 130.969 367.431 130.739 366.455C130.246 364.416 129.643 361.457 128.854 357.796C127.342 350.463 125.566 340.259 124.043 328.936C122.519 317.614 121.708 307.289 121.27 299.813C121.05 296.076 120.919 293.051 120.864 290.957C120.864 289.96 120.864 289.159 120.864 288.546C120.83 288.266 120.819 287.983 120.831 287.702Z" fill="#FAFAFA"/>
<path d="M202.352 317.372C202.143 317.132 201.959 316.871 201.804 316.594L200.335 314.314L195.009 305.874L187.194 293.313C184.235 288.6 181.078 283.339 177.604 277.968C175.913 275.353 174.042 272.859 172.003 270.504C170.095 268.325 167.956 266.359 165.625 264.64C158.961 259.736 151.012 256.879 142.751 256.419C141.579 256.343 140.669 256.332 140.044 256.342C139.73 256.368 139.415 256.368 139.102 256.342C139.413 256.292 139.728 256.266 140.044 256.266C140.95 256.217 141.857 256.217 142.762 256.266C146.101 256.363 149.415 256.879 152.626 257.8C157.401 259.124 161.907 261.272 165.943 264.147C168.317 265.874 170.493 267.859 172.431 270.065C174.494 272.437 176.384 274.953 178.086 277.595C181.593 282.999 184.662 288.26 187.643 292.995L195.315 305.611C197.507 309.184 199.217 312.089 200.467 314.15L201.848 316.495C202.035 316.776 202.203 317.069 202.352 317.372Z" fill="#FAFAFA"/>
<path d="M189.046 326.119C188.876 325.88 188.725 325.627 188.597 325.363L187.402 323.171L183.128 314.972L169.176 287.877C166.767 282.841 164.07 277.948 161.098 273.222C158.645 269.389 155.411 266.117 151.607 263.621C149.044 261.928 146.147 260.807 143.113 260.332C140.921 260.047 139.748 260.19 139.748 260.113C140.876 259.966 142.018 259.966 143.146 260.113C146.235 260.496 149.201 261.563 151.826 263.237C155.718 265.721 159.03 269.015 161.537 272.893C164.558 277.614 167.282 282.52 169.691 287.581L183.5 314.753C185.21 318.205 186.613 321.011 187.621 323.017C188.071 323.96 188.443 324.716 188.717 325.275C188.855 325.545 188.965 325.827 189.046 326.119Z" fill="#FAFAFA"/>
<g opacity="0.4">
<path opacity="0.4" d="M110.396 370.094C110.153 370.225 109.939 370.404 109.767 370.621C109.595 370.837 109.469 371.086 109.396 371.352C109.323 371.619 109.306 371.897 109.344 372.171C109.382 372.445 109.475 372.708 109.618 372.944C110.251 373.874 111.165 374.577 112.227 374.95C119.789 378.337 129.105 378.129 136.01 373.547C142.915 368.965 146.762 359.813 144.285 351.899C143.477 355.371 141.944 358.634 139.788 361.472C137.632 364.311 134.9 366.662 131.772 368.371C128.644 370.081 125.191 371.11 121.637 371.392C118.084 371.674 114.511 371.202 111.153 370.007" fill="black"/>
</g>
<g opacity="0.4">
<path opacity="0.4" d="M167.949 317.548L154.797 296.722C165.461 302.729 172.782 313.163 179.742 323.203C180.838 324.826 182.022 326.568 182.098 328.53C182.07 329.652 181.774 330.751 181.235 331.735C180.695 332.719 179.928 333.56 178.997 334.186C177.128 335.428 175.07 336.357 172.903 336.937C172.366 333.868 171.807 330.788 171.314 327.719" fill="black"/>
</g>
<path d="M184.564 211.985C182.778 210.549 180.235 210.352 178.405 208.971C174.634 206.132 175.719 200.356 174.908 195.698C174.021 190.634 170.579 186.469 167.85 182.117C165.121 177.766 161.954 171.452 163.97 166.772L127.09 234.4H184.937C184.937 234.4 186.69 223.757 186.997 220.655C187.304 217.553 186.997 213.925 184.564 211.985Z" fill="#263238"/>
<path d="M107.921 144.827C109.707 139.347 115.593 136.311 121.325 135.631C127.057 134.952 129.797 137.265 135.387 136.004C143.059 134.283 147.53 131.62 152.605 132.508C157.186 133.253 163.006 134.7 167.138 139.479C170.174 142.986 170.283 151.207 169.023 155.679C167.861 159.756 164.694 163.088 163.85 167.242C163.061 171.09 164.376 175.014 165.231 178.85C167.784 190.359 165.801 203.259 158.172 212.247C150.544 221.235 136.801 225.214 126.268 219.92" fill="#263238"/>
<path d="M140.833 305.897L138.915 239.869C138.915 239.869 155.629 237.392 159.476 215.756C161.383 204.97 161.153 187.257 160.495 172.712C159.903 159.647 146.083 146.407 133.095 147.503L90.7895 154.781V161.796L90.373 258.185L140.855 305.93L140.833 305.897Z" fill="#FFBE9D"/>
<path d="M155.388 185.898C155.38 186.624 155.089 187.319 154.577 187.834C154.066 188.35 153.374 188.646 152.648 188.66C152.293 188.682 151.937 188.633 151.601 188.516C151.265 188.398 150.956 188.214 150.693 187.975C150.429 187.736 150.216 187.446 150.066 187.123C149.916 186.801 149.833 186.451 149.82 186.095C149.823 185.369 150.11 184.673 150.621 184.157C151.131 183.641 151.823 183.345 152.549 183.333C152.905 183.311 153.262 183.36 153.598 183.478C153.935 183.595 154.244 183.779 154.509 184.018C154.773 184.257 154.987 184.546 155.138 184.869C155.289 185.192 155.374 185.542 155.388 185.898Z" fill="#263238"/>
<path d="M156.484 181.821C156.133 182.182 154.05 180.582 151.004 180.538C147.957 180.494 145.776 181.952 145.458 181.58C145.304 181.415 145.666 180.769 146.631 180.078C147.946 179.202 149.5 178.754 151.08 178.796C152.644 178.817 154.16 179.335 155.41 180.275C156.363 180.999 156.659 181.667 156.484 181.821Z" fill="#263238"/>
<path d="M126.958 185.394C126.95 186.12 126.659 186.814 126.148 187.33C125.636 187.845 124.944 188.142 124.218 188.156C123.863 188.178 123.507 188.129 123.171 188.011C122.835 187.893 122.527 187.71 122.263 187.47C121.999 187.231 121.786 186.942 121.637 186.619C121.487 186.296 121.403 185.947 121.391 185.591C121.396 184.864 121.686 184.168 122.198 183.652C122.71 183.136 123.404 182.84 124.131 182.829C124.486 182.807 124.842 182.856 125.178 182.974C125.513 183.091 125.822 183.275 126.086 183.514C126.35 183.753 126.563 184.043 126.712 184.366C126.862 184.689 126.946 185.038 126.958 185.394Z" fill="#263238"/>
<path d="M126.98 181.864C126.629 182.215 124.536 180.614 121.5 180.571C118.464 180.527 116.272 181.985 115.954 181.612C115.8 181.448 116.162 180.801 117.138 180.121C118.452 179.242 120.006 178.79 121.587 178.828C123.147 178.854 124.658 179.372 125.906 180.308C126.848 181.042 127.144 181.7 126.98 181.864Z" fill="#263238"/>
<path d="M137.468 204.312C137.468 204.137 139.331 203.852 142.367 203.523C143.134 203.457 143.858 203.315 144 202.788C144.074 201.998 143.91 201.204 143.529 200.509L141.337 194.634C138.345 186.27 136.186 179.398 136.525 179.288C136.865 179.179 139.561 185.865 142.564 194.228L144.636 200.136C145.104 201.068 145.225 202.137 144.976 203.15C144.86 203.418 144.684 203.657 144.461 203.847C144.239 204.037 143.976 204.173 143.693 204.246C143.267 204.356 142.829 204.408 142.389 204.4C139.364 204.498 137.479 204.487 137.468 204.312Z" fill="#263238"/>
<path d="M138.915 239.868C128.672 239.839 118.637 236.971 109.926 231.582C109.926 231.582 116.732 246.642 138.531 244.998L138.915 239.868Z" fill="#7C3B29"/>
<path d="M136.077 211.535C135.52 210.805 134.785 210.23 133.943 209.864C133.101 209.497 132.179 209.352 131.265 209.442C130.603 209.489 129.956 209.669 129.365 209.973C128.773 210.276 128.249 210.696 127.824 211.206C127.414 211.699 127.164 212.306 127.109 212.945C127.054 213.584 127.197 214.224 127.517 214.78C127.987 215.333 128.612 215.733 129.311 215.928C130.01 216.124 130.752 216.105 131.441 215.876C132.861 215.404 134.175 214.659 135.31 213.684C135.652 213.446 135.949 213.149 136.187 212.807C136.295 212.644 136.353 212.454 136.353 212.259C136.353 212.064 136.295 211.873 136.187 211.711" fill="#7C3B29"/>
<path d="M128.601 206.23C129.094 206.23 129.04 209.518 131.791 211.831C134.541 214.144 138.005 213.892 138.027 214.352C138.027 214.56 137.238 214.977 135.835 214.988C133.891 215.001 132.006 214.321 130.519 213.069C129.124 211.883 128.244 210.201 128.064 208.378C127.998 207.008 128.382 206.208 128.601 206.23Z" fill="#263238"/>
<path d="M127.965 170.114C127.648 170.925 124.677 170.486 121.126 170.848C117.575 171.21 114.737 172.12 114.287 171.374C114.079 171.024 114.594 170.278 115.756 169.489C117.306 168.552 119.048 167.979 120.851 167.812C122.655 167.645 124.472 167.888 126.168 168.524C127.45 169.073 128.097 169.73 127.965 170.114Z" fill="#263238"/>
<path d="M155.542 173.172C154.994 173.841 152.944 173.106 150.456 173.019C147.969 172.931 145.853 173.402 145.382 172.679C145.185 172.328 145.524 171.648 146.478 171.024C147.727 170.275 149.171 169.912 150.626 169.983C152.081 170.053 153.483 170.552 154.654 171.418C155.498 172.076 155.728 172.788 155.542 173.172Z" fill="#263238"/>
<path d="M115.877 137.002C118.025 140.46 119.455 144.315 120.081 148.338C120.706 152.361 120.514 156.469 119.517 160.416C118.52 164.363 116.737 168.068 114.275 171.311C111.814 174.554 108.724 177.267 105.191 179.289C102.769 180.681 100.029 181.843 98.549 184.21C96.6748 187.224 97.453 191.072 97.8256 194.601C98.2672 199.376 97.7585 204.191 96.3288 208.768C94.8991 213.345 92.5768 217.594 89.496 221.269C85.3422 213.19 81.1555 204.981 79.3361 196.059C78.4155 191.565 78.0976 186.906 76.4646 182.621C75.5001 180.056 74.0643 177.688 73.1766 175.08C71.8237 170.233 72.0463 165.082 73.8123 160.37C76.7672 151.689 83.0331 144.527 91.2448 140.446C99.4565 136.364 108.948 135.694 117.652 138.58" fill="#263238"/>
<path d="M78.0544 152.095C68.2672 166.42 73.0348 175.748 69.2864 183.081C66.5355 188.408 60.1458 190.534 55.6084 194.436C49.4269 199.752 46.9171 208.367 47.1472 216.522C47.3774 224.677 50.0078 232.525 52.6272 240.252L105.235 240.515C109.312 227.68 99.1305 213.782 102.397 200.717C103.493 196.267 106.167 192.156 106.32 187.564C106.419 184.517 105.4 181.546 104.72 178.565C102.813 170.095 103.67 161.237 107.164 153.289" fill="#263238"/>
<path d="M169.066 145.77C169 145.77 168.704 145.091 167.861 143.995C166.639 142.49 165.076 141.299 163.301 140.52C160.661 139.36 157.786 138.835 154.906 138.986C151.384 139.284 147.923 140.082 144.625 141.353C141.063 142.614 137.688 143.951 134.476 144.729C131.617 145.473 128.654 145.736 125.708 145.507C123.726 145.342 121.795 144.795 120.02 143.896C119.545 143.647 119.091 143.361 118.661 143.041C118.503 142.94 118.356 142.822 118.223 142.69C118.223 142.625 118.88 143.096 120.13 143.688C121.9 144.492 123.801 144.968 125.741 145.091C128.624 145.261 131.515 144.962 134.301 144.203C137.457 143.414 140.811 142.011 144.384 140.805C147.734 139.508 151.258 138.714 154.84 138.449C157.798 138.321 160.743 138.899 163.433 140.137C165.241 140.981 166.811 142.262 168.003 143.863C168.315 144.301 168.587 144.767 168.814 145.255C168.923 145.414 169.008 145.587 169.066 145.77Z" fill="#455A64"/>
<path d="M161.449 182.621C161.449 182.621 161.636 182.719 161.953 182.96C162.151 183.104 162.334 183.265 162.501 183.443C162.748 183.669 162.972 183.918 163.17 184.188C164.459 185.907 165.265 187.939 165.504 190.074C165.724 191.525 165.83 192.991 165.822 194.458C165.822 196.048 165.735 197.747 165.767 199.467C165.761 201.291 165.975 203.109 166.403 204.882C166.834 206.77 167.805 208.492 169.198 209.836C170.739 211.054 172.403 212.109 174.163 212.982C175.843 213.881 177.234 215.237 178.174 216.895C179.607 219.775 179.949 223.077 179.139 226.19C178.621 228.253 177.887 230.255 176.947 232.163C176.64 232.843 176.377 233.358 176.201 233.709C176.119 233.893 176.02 234.069 175.905 234.235C175.938 234.037 176.001 233.844 176.092 233.665L176.738 232.065C177.569 230.142 178.219 228.146 178.678 226.102C178.985 224.699 179.089 223.26 178.985 221.827C178.888 220.188 178.431 218.59 177.648 217.147C176.742 215.585 175.412 214.312 173.812 213.475C172.017 212.584 170.32 211.508 168.749 210.264C167.267 208.847 166.237 207.025 165.789 205.024C165.36 203.208 165.154 201.345 165.176 199.478C165.176 197.703 165.263 196.015 165.285 194.458C165.305 193.015 165.224 191.572 165.044 190.14C164.837 188.058 164.114 186.061 162.94 184.33C162.477 183.732 161.979 183.161 161.449 182.621Z" fill="#455A64"/>
<path d="M71.8726 238.29C71.8133 238.204 71.7619 238.112 71.7192 238.016L71.3356 237.194C70.8613 236.121 70.4443 235.023 70.0862 233.906C69.4994 232.143 69.0738 230.331 68.8148 228.491C68.4707 226.046 68.4929 223.564 68.8806 221.126C69.3615 218.155 70.504 215.331 72.2234 212.861C74.0975 210.176 76.98 208.17 79.7858 205.967C81.2362 204.868 82.5595 203.61 83.7314 202.218C84.8985 200.737 85.722 199.015 86.1426 197.176C87.0084 193.417 86.4275 189.328 85.5836 185.306C84.7397 181.283 83.7423 177.26 83.9177 173.249C83.9742 171.289 84.4057 169.358 85.189 167.56C85.9813 165.849 87.0979 164.308 88.477 163.022C91.0478 160.721 94.0199 158.911 97.245 157.684C100.204 156.457 103.021 155.492 105.487 154.396C107.724 153.442 109.818 152.184 111.712 150.659C113.138 149.504 114.361 148.118 115.329 146.559C115.941 145.574 116.403 144.502 116.699 143.381C116.907 142.613 116.962 142.197 116.995 142.197C116.976 142.607 116.918 143.015 116.82 143.413C116.565 144.571 116.128 145.681 115.526 146.702C114.577 148.312 113.357 149.747 111.92 150.943C110.024 152.52 107.913 153.819 105.651 154.802C103.174 155.953 100.358 156.994 97.4314 158.189C94.2813 159.411 91.3806 161.197 88.8716 163.461C87.5559 164.706 86.495 166.195 85.748 167.845C84.9905 169.576 84.5773 171.437 84.5314 173.325C84.367 177.195 85.3206 181.162 86.1974 185.207C87.0742 189.251 87.655 193.417 86.7454 197.33C86.3062 199.251 85.441 201.049 84.2136 202.591C83.011 204.015 81.6506 205.299 80.1584 206.416C77.3198 208.608 74.4921 210.581 72.6618 213.168C70.9799 215.575 69.8566 218.328 69.3738 221.224C68.7227 225.458 69.068 229.785 70.3821 233.862C70.8205 235.309 71.2479 236.416 71.4781 237.15L71.8069 237.994C71.8424 238.089 71.8645 238.189 71.8726 238.29Z" fill="#455A64"/>
<path d="M116.371 142.23C116.255 142.247 116.137 142.247 116.021 142.23L114.925 142.132C114.004 142.055 112.656 141.923 110.913 141.847C106.007 141.571 101.088 142.112 96.3585 143.447C93.1333 144.419 90.1029 145.947 87.4042 147.963C84.2589 150.252 81.7472 153.303 80.1048 156.83C78.3841 160.546 78.0553 164.941 78.1101 169.391C78.1649 173.841 78.5485 178.565 77.6388 183.311C77.2291 185.669 76.3895 187.932 75.1619 189.986C73.9156 191.958 72.2504 193.631 70.2847 194.886C66.5035 197.396 62.3715 198.909 59.237 201.539C56.293 204.087 54.3155 207.57 53.6364 211.404C52.9947 214.724 53.0694 218.144 53.8556 221.433C54.5239 224.147 55.5252 226.769 56.8367 229.237C57.8294 231.124 58.9271 232.954 60.1247 234.717C61.1111 236.153 61.9112 237.249 62.4483 238.006L63.062 238.85L63.2593 239.146C63.2593 239.146 63.1716 239.058 63.0182 238.883L62.3496 238.071C61.7797 237.348 60.9467 236.285 59.9384 234.849C58.7081 233.118 57.5844 231.313 56.5737 229.445C55.2186 226.965 54.1802 224.325 53.483 221.586C52.6475 218.243 52.5465 214.757 53.1871 211.371C53.8682 207.43 55.8891 203.844 58.9082 201.221C62.1962 198.503 66.2952 196.968 69.9887 194.502C71.881 193.284 73.4854 191.668 74.6906 189.767C75.8738 187.771 76.6834 185.576 77.0799 183.289C77.9786 178.642 77.595 173.973 77.5621 169.479C77.5292 164.985 77.858 160.524 79.6335 156.698C81.3175 153.102 83.8853 149.991 87.0973 147.656C89.8645 145.618 92.9701 144.085 96.2708 143.129C101.051 141.81 106.024 141.328 110.968 141.704C112.711 141.803 114.059 141.978 114.969 142.088L115.999 142.252C116.121 142.228 116.247 142.221 116.371 142.23Z" fill="#455A64"/>
<path d="M88.6309 240.581C89.9033 239.936 91.065 239.092 92.0723 238.082C93.2295 236.88 94.1679 235.486 94.8452 233.961C95.7355 231.938 96.2659 229.776 96.4125 227.571C96.5744 224.893 96.308 222.207 95.6233 219.613C94.8443 216.638 93.8928 213.71 92.7737 210.845C91.5148 207.636 90.4964 204.339 89.7269 200.98C88.8769 197.342 88.8769 193.558 89.7269 189.92C90.2224 188.085 91.0186 186.344 92.0833 184.769C93.1285 183.262 94.3379 181.876 95.6891 180.637C98.3195 178.181 101.169 176.252 103.778 174.257C106.287 172.469 108.562 170.374 110.551 168.021C112.24 165.94 113.61 163.621 114.617 161.137C116.103 157.529 116.823 153.651 116.732 149.749C116.737 149.141 116.704 148.533 116.634 147.93C116.613 147.481 116.565 147.035 116.491 146.592C116.491 146.253 116.414 145.99 116.393 145.77C116.38 145.676 116.38 145.58 116.393 145.485C116.745 146.881 116.944 148.31 116.984 149.749C117.156 153.692 116.487 157.626 115.023 161.291C114.023 163.825 112.652 166.196 110.956 168.328C108.952 170.721 106.658 172.856 104.128 174.685C101.531 176.702 98.6483 178.631 96.1056 181.053C94.7854 182.262 93.6053 183.615 92.5874 185.087C91.5603 186.612 90.7936 188.297 90.3187 190.074C89.4908 193.625 89.4908 197.319 90.3187 200.87C91.0587 204.186 92.0404 207.442 93.256 210.614C94.3717 213.519 95.3123 216.487 96.0727 219.504C96.741 222.148 96.9889 224.882 96.807 227.604C96.6266 229.848 96.0554 232.044 95.1192 234.092C94.4012 235.636 93.4182 237.042 92.2148 238.247C91.4496 239.001 90.5782 239.64 89.6282 240.143L88.872 240.483L88.6309 240.581Z" fill="#455A64"/>
<path d="M118.629 151.602C124.197 155.493 130.356 159.57 137.129 159.088C141.152 158.803 144.867 156.896 148.692 155.657C152.517 154.419 156.967 153.794 160.397 155.92C162.589 155.734 163.685 152.72 162.677 150.725C161.669 148.73 159.499 147.634 157.394 146.922C145.207 142.767 133.063 147.47 119.363 148.357" fill="#263238"/>
<path d="M168.551 155.164C168.839 154.468 168.995 153.725 169.011 152.972C168.998 151.969 168.728 150.986 168.227 150.117C167.727 149.248 167.012 148.521 166.151 148.007C164.959 147.299 163.611 146.896 162.227 146.834C160.628 146.789 159.035 147.053 157.536 147.612C154.248 148.708 151.256 151.01 147.551 152.577C145.756 153.343 143.876 153.895 141.951 154.221C140.144 154.548 138.306 154.68 136.471 154.616C133.394 154.549 130.352 153.944 127.484 152.829C125.536 152.094 123.694 151.107 122.004 149.892C121.55 149.55 121.114 149.184 120.7 148.796C120.404 148.555 120.261 148.412 120.272 148.39C122.516 150.055 124.975 151.408 127.582 152.413C130.421 153.452 133.415 154.004 136.438 154.046C138.219 154.088 140.001 153.949 141.754 153.629C143.638 153.306 145.477 152.762 147.234 152.007C150.85 150.484 153.941 148.16 157.273 147.064C158.838 146.497 160.499 146.243 162.161 146.319C163.623 146.397 165.041 146.846 166.282 147.623C167.309 148.266 168.124 149.196 168.628 150.297C169.008 151.124 169.185 152.03 169.143 152.939C169.127 153.51 169.001 154.072 168.77 154.594C168.735 154.797 168.661 154.99 168.551 155.164Z" fill="#455A64"/>
<path d="M248.011 344.972L197.968 432.363L127.111 434.818V442.611H334.124L390.469 350.31C390.954 349.516 391.218 348.607 391.235 347.677C391.252 346.746 391.021 345.828 390.566 345.017C390.11 344.206 389.447 343.53 388.644 343.06C387.841 342.59 386.928 342.342 385.997 342.342H252.559C251.637 342.343 250.732 342.587 249.933 343.049C249.135 343.51 248.472 344.174 248.011 344.972Z" fill="#263238"/>
<path d="M306.187 395.589C303.666 399.513 299.337 401.212 296.51 399.404C293.682 397.595 293.43 392.937 295.951 389.013C298.471 385.089 302.801 383.39 305.628 385.209C308.456 387.029 308.708 391.676 306.187 395.589Z" fill="#E0E0E0"/>
<path d="M204.587 442.271C204.455 442.183 216.862 419.746 232.316 392.158C247.769 364.57 260.417 342.264 260.56 342.341C260.702 342.418 248.284 364.844 232.831 392.443C217.377 420.042 204.729 442.347 204.587 442.271Z" fill="#455A64"/>
<path d="M421.477 385.9L430.058 442.26H479.882L491.445 386.711L421.477 385.9Z" fill="#8547C6"/>
<path d="M484.529 421.983C484.529 422.137 471.761 422.268 456.033 422.268C440.306 422.268 427.537 422.137 427.537 421.983C427.537 421.83 440.306 421.688 456.033 421.688C471.761 421.688 484.529 421.863 484.529 421.983Z" fill="#FAFAFA"/>
<path d="M484.671 419.253C484.671 419.418 471.826 419.549 455.967 419.549C440.108 419.549 427.252 419.418 427.252 419.253C427.252 419.089 440.108 418.958 455.967 418.958C471.826 418.958 484.671 419.089 484.671 419.253Z" fill="#FAFAFA"/>
<path d="M484.529 416.119C484.529 416.284 471.684 416.415 455.825 416.415C439.965 416.415 427.109 416.284 427.109 416.119C427.109 415.955 439.965 415.834 455.825 415.834C471.684 415.834 484.529 415.955 484.529 416.119Z" fill="#FAFAFA"/>
<path d="M435.778 439.049C434.575 434.373 433.746 429.608 433.301 424.8C433.998 427.123 434.507 429.498 434.824 431.903C435.337 434.255 435.656 436.645 435.778 439.049Z" fill="#FAFAFA"/>
<path d="M439.165 438.424C438.816 436.134 438.611 433.824 438.551 431.508C438.293 429.201 438.183 426.88 438.223 424.559C438.774 426.821 439.079 429.137 439.132 431.464C439.39 433.777 439.401 436.11 439.165 438.424Z" fill="#FAFAFA"/>
<path d="M445.348 438.424C444.188 433.765 443.624 428.977 443.671 424.175C444.127 426.534 444.449 428.916 444.635 431.311C445.01 433.666 445.248 436.041 445.348 438.424Z" fill="#FAFAFA"/>
<path d="M449.687 438.742C449.202 436.37 448.97 433.952 448.997 431.53C448.819 429.114 448.892 426.686 449.216 424.285C449.476 426.684 449.596 429.096 449.578 431.508C449.756 433.915 449.793 436.331 449.687 438.742Z" fill="#FAFAFA"/>
<path d="M457.36 438.424C456.812 433.872 456.658 429.28 456.9 424.701C457.447 429.254 457.601 433.845 457.36 438.424Z" fill="#FAFAFA"/>
<path d="M462.971 438.753C462.699 436.4 462.619 434.028 462.73 431.662C462.658 429.296 462.775 426.928 463.081 424.581C463.359 426.934 463.44 429.306 463.322 431.673C463.401 434.039 463.283 436.407 462.971 438.753Z" fill="#FAFAFA"/>
<path d="M468.23 437.996C468.17 435.523 468.31 433.049 468.647 430.598C468.794 428.124 469.131 425.665 469.655 423.243C469.715 425.721 469.572 428.199 469.228 430.653C469.081 433.122 468.747 435.577 468.23 437.996Z" fill="#FAFAFA"/>
<path d="M475.004 437.262C475.016 435.134 475.3 433.016 475.848 430.96C476.199 428.864 476.821 426.822 477.7 424.887C477.384 426.977 476.956 429.048 476.418 431.091C476.063 433.173 475.591 435.233 475.004 437.262Z" fill="#FAFAFA"/>
<path d="M470.205 274.67C470.199 274.763 470.181 274.856 470.15 274.944C470.085 275.163 470.008 275.426 469.92 275.744L468.967 278.791C468.539 280.106 468.035 281.718 467.509 283.614C466.983 285.51 466.303 287.637 465.711 290.037C465.12 292.437 464.385 295.046 463.761 297.885C463.136 300.724 462.489 303.76 461.843 306.96C460.648 313.394 459.563 320.497 458.796 327.994C458.028 335.491 457.7 342.693 457.623 349.225C457.623 352.514 457.623 355.604 457.722 358.509C457.82 361.414 457.919 364.121 458.072 366.587C458.226 369.053 458.412 371.278 458.566 373.24C458.719 375.202 458.883 376.879 459.037 378.26C459.19 379.642 459.289 380.65 459.366 381.428C459.366 381.757 459.366 382.031 459.442 382.25C459.457 382.345 459.457 382.441 459.442 382.535C459.406 382.448 459.384 382.355 459.377 382.261C459.377 382.042 459.3 381.768 459.256 381.439C459.146 380.672 459.004 379.62 458.818 378.282C458.631 376.945 458.412 375.235 458.237 373.273C458.061 371.311 457.787 369.086 457.656 366.609C457.524 364.132 457.305 361.436 457.228 358.52C457.152 355.604 457.108 352.503 457.086 349.225C457.163 342.649 457.48 335.47 458.182 327.939C458.883 320.409 460.067 313.296 461.295 306.862C461.963 303.65 462.555 300.603 463.267 297.775C463.98 294.947 464.626 292.295 465.284 289.927C465.942 287.56 466.599 285.401 467.169 283.515C467.739 281.63 468.265 280.019 468.725 278.714C469.186 277.41 469.526 276.435 469.821 275.711L470.117 274.933C470.137 274.842 470.166 274.754 470.205 274.67Z" fill="#455A64"/>
<path d="M461.217 309.569C462.584 305.508 465.324 302.05 468.966 299.792C470.193 299.025 471.75 298.4 473.054 299.036C474.797 299.88 474.939 302.324 474.424 304.187C473.521 307.338 471.518 310.06 468.779 311.86C466.349 313.655 463.31 314.422 460.318 313.997" fill="#455A64"/>
<path d="M458.225 333.2C459.507 328.334 463.387 321.417 467.42 318.403C468.041 317.906 468.752 317.533 469.514 317.307C469.892 317.206 470.289 317.198 470.67 317.284C471.052 317.37 471.407 317.547 471.706 317.8C472.049 318.254 472.273 318.787 472.36 319.349C472.446 319.912 472.391 320.487 472.199 321.023C471.377 324.573 469.581 327.824 467.014 330.411C464.447 332.997 461.21 334.817 457.666 335.666" fill="#455A64"/>
<path d="M457.348 353.895C459.351 349.248 462.555 345.219 466.631 342.221C467.064 341.82 467.573 341.51 468.129 341.311C468.684 341.111 469.275 341.026 469.864 341.06C471.629 341.388 472.429 343.537 472.275 345.312C471.957 348.984 469.152 351.889 466.258 354.212C463.6 356.041 460.715 357.514 457.676 358.597" fill="#455A64"/>
<path d="M457.818 368.801C459.758 365.26 462.456 362.19 465.721 359.813C466.413 359.268 467.224 358.893 468.088 358.717C468.519 358.64 468.964 358.682 469.373 358.839C469.782 358.995 470.141 359.26 470.411 359.605C471.201 360.767 470.411 362.334 469.6 363.463C466.811 367.338 462.867 370.231 458.333 371.728" fill="#455A64"/>
<path d="M457.437 362.795C454.042 358.608 450.27 354.741 446.17 351.242C445.894 350.927 445.544 350.684 445.153 350.535C444.761 350.386 444.339 350.336 443.923 350.387C443.624 350.517 443.368 350.729 443.186 350.999C443.003 351.269 442.901 351.585 442.893 351.911C442.888 352.564 443.034 353.209 443.32 353.796C444.66 356.801 446.659 359.466 449.169 361.593C451.68 363.72 454.636 365.255 457.82 366.083" fill="#455A64"/>
<path d="M457.787 343.339L448.921 332.521C448.143 331.439 447.169 330.513 446.049 329.792C445.477 329.445 444.822 329.262 444.153 329.262C443.485 329.262 442.829 329.445 442.257 329.792C441.743 330.216 441.358 330.775 441.145 331.406C440.932 332.038 440.899 332.716 441.051 333.365C441.365 334.658 441.951 335.869 442.772 336.916C444.499 339.572 446.689 341.897 449.239 343.778C451.847 345.575 454.214 346.737 457.338 346.277" fill="#455A64"/>
<path d="M459.024 321.484C457.287 316.309 454.208 311.687 450.103 308.089C449.458 307.439 448.652 306.971 447.769 306.73C445.993 306.391 444.283 307.826 443.702 309.591C443.421 310.571 443.347 311.599 443.487 312.609C443.626 313.619 443.976 314.588 444.513 315.455C445.604 317.173 447.019 318.662 448.678 319.839C451.668 322.119 454.996 323.916 458.542 325.166" fill="#455A64"/>
<path d="M462.609 302.006C461.754 295.736 458.488 290.519 454.706 285.444C453.917 284.348 452.799 283.252 451.484 283.438C451.067 283.528 450.679 283.72 450.356 283.997C450.032 284.275 449.783 284.629 449.632 285.028C449.335 285.829 449.215 286.685 449.281 287.538C449.447 291.335 450.726 295 452.959 298.076C455.193 301.151 458.282 303.502 461.841 304.834" fill="#455A64"/>
<path d="M465.053 292.053C464.637 288.841 464.527 285.597 464.724 282.364C464.929 279.111 466.045 275.981 467.946 273.332C468.758 272.192 469.875 271.303 471.168 270.768C471.815 270.507 472.519 270.418 473.211 270.51C473.902 270.602 474.558 270.872 475.114 271.294C475.586 271.734 475.952 272.275 476.185 272.877C476.419 273.478 476.513 274.125 476.462 274.768C476.354 276.057 476.016 277.315 475.465 278.484C473.108 284.173 469.163 290.464 465.053 292.053Z" fill="#455A64"/>
<path d="M426.44 299.529C426.47 299.791 426.47 300.056 426.44 300.318C426.44 300.899 426.44 301.656 426.44 302.598C426.44 303.541 426.44 304.79 426.44 306.193C426.44 307.596 426.495 309.197 426.615 310.95C426.769 314.48 427.109 318.623 427.646 323.303C428.183 327.984 429.005 333.004 430.101 338.276C431.197 343.548 432.534 348.502 433.871 352.974C435.208 357.446 436.611 361.403 437.882 364.702C438.485 366.357 439.121 367.826 439.636 369.087C440.151 370.347 440.633 371.498 441.039 372.375C441.444 373.252 441.696 373.942 441.927 374.468C442.042 374.707 442.134 374.957 442.201 375.214C442.046 374.999 441.918 374.767 441.817 374.523L440.831 372.473C440.392 371.575 439.888 370.479 439.34 369.185C438.792 367.892 438.123 366.434 437.499 364.801C436.173 361.513 434.759 357.556 433.356 353.084C431.953 348.612 430.649 343.636 429.531 338.352C428.413 333.069 427.657 327.973 427.109 323.325C426.561 318.678 426.298 314.469 426.199 310.929C426.111 309.164 426.133 307.564 426.111 306.15C426.089 304.736 426.111 303.541 426.111 302.554C426.111 301.568 426.177 300.856 426.199 300.275C426.253 300.018 426.334 299.769 426.44 299.529Z" fill="#263238"/>
<path d="M427.801 325.222C427.862 322.162 428.982 319.219 430.968 316.892C431.261 316.464 431.654 316.114 432.112 315.871C432.57 315.629 433.08 315.501 433.599 315.5C434.958 315.697 435.582 317.33 435.626 318.711C435.7 321.054 434.921 323.344 433.434 325.156C432.169 326.909 430.263 328.092 428.13 328.444" fill="#263238"/>
<path d="M430.824 341.97C430.649 338.374 431.8 332.839 433.904 329.913C434.211 329.434 434.614 329.023 435.088 328.707C435.324 328.549 435.596 328.453 435.879 328.426C436.162 328.399 436.448 328.443 436.71 328.554C437.044 328.788 437.314 329.103 437.495 329.468C437.677 329.834 437.765 330.239 437.751 330.647C437.951 333.242 437.425 335.841 436.233 338.154C435.041 340.467 433.229 342.403 431 343.745" fill="#263238"/>
<path d="M434.705 356.218C435.071 352.625 436.388 349.193 438.519 346.277C438.727 345.911 439.008 345.592 439.343 345.337C439.678 345.083 440.062 344.899 440.47 344.797C441.741 344.633 442.75 345.893 443.024 347.165C443.594 349.741 442.322 352.338 440.832 354.519C439.419 356.343 437.771 357.972 435.933 359.364" fill="#263238"/>
<path d="M438.234 366.281C438.794 363.455 439.969 360.786 441.676 358.466C442.041 357.953 442.516 357.53 443.068 357.227C443.343 357.082 443.653 357.015 443.964 357.032C444.274 357.05 444.575 357.151 444.832 357.326C445.621 357.95 445.446 359.189 445.117 360.132C444.054 363.373 441.989 366.194 439.221 368.188" fill="#263238"/>
<path d="M436.666 362.236C433.452 360.13 430.051 358.325 426.506 356.843C426.252 356.686 425.963 356.594 425.664 356.577C425.366 356.56 425.067 356.618 424.797 356.745C424.617 356.895 424.486 357.094 424.417 357.318C424.349 357.542 424.348 357.78 424.413 358.005C424.549 358.45 424.789 358.856 425.115 359.189C426.677 360.942 428.615 362.319 430.784 363.218C432.953 364.118 435.297 364.517 437.642 364.384" fill="#263238"/>
<path d="M432.731 348.952L424.369 343.471C423.603 342.907 422.742 342.488 421.826 342.233C421.364 342.115 420.878 342.127 420.422 342.266C419.966 342.405 419.557 342.666 419.239 343.022C418.979 343.419 418.835 343.881 418.823 344.355C418.811 344.83 418.933 345.298 419.174 345.707C419.67 346.522 420.335 347.221 421.125 347.757C422.868 349.199 424.858 350.313 426.999 351.045C429.191 351.703 431.021 351.988 433.049 351.045" fill="#263238"/>
<path d="M428.874 333.803C426.56 330.654 423.451 328.177 419.865 326.624C419.287 326.325 418.641 326.181 417.991 326.208C417.352 326.344 416.782 326.701 416.381 327.217C415.98 327.732 415.774 328.372 415.799 329.025C415.817 329.753 415.987 330.47 416.299 331.128C416.61 331.787 417.056 332.373 417.607 332.85C418.719 333.797 420.008 334.512 421.399 334.954C423.924 335.863 426.576 336.369 429.258 336.456" fill="#263238"/>
<path d="M427.088 319.784C425.159 315.696 421.816 312.846 418.144 310.205C417.804 309.874 417.383 309.639 416.923 309.521C416.464 309.404 415.982 309.409 415.525 309.536C415.26 309.686 415.037 309.9 414.876 310.158C414.715 310.417 414.621 310.712 414.604 311.016C414.57 311.626 414.671 312.236 414.9 312.802C415.829 315.353 417.488 317.575 419.671 319.189C421.854 320.803 424.464 321.738 427.175 321.878" fill="#263238"/>
<path d="M426.639 312.474C425.67 310.357 424.899 308.156 424.337 305.897C423.774 303.64 423.858 301.27 424.578 299.058C424.887 298.105 425.457 297.259 426.222 296.613C426.61 296.3 427.071 296.09 427.561 296.004C428.052 295.918 428.557 295.958 429.028 296.12C429.444 296.321 429.809 296.612 430.097 296.972C430.385 297.333 430.589 297.753 430.694 298.203C430.893 299.102 430.934 300.029 430.815 300.943C430.431 305.327 429.105 310.457 426.639 312.43" fill="#263238"/>
<path d="M489.406 298.981C489.457 299.241 489.483 299.505 489.483 299.77C489.483 300.351 489.483 301.107 489.571 302.05C489.658 302.993 489.571 304.242 489.571 305.656C489.571 307.07 489.571 308.659 489.494 310.424C489.384 313.964 489.088 318.162 488.584 322.821C488.08 327.479 487.258 332.554 486.162 337.848C485.066 343.142 483.707 348.107 482.337 352.579C480.967 357.051 479.52 361.019 478.194 364.296C477.558 365.951 476.901 367.409 476.353 368.681C475.805 369.952 475.257 371.081 474.862 371.969L473.876 374.019C473.77 374.26 473.641 374.491 473.492 374.709C473.559 374.452 473.65 374.203 473.766 373.964C473.996 373.438 474.292 372.736 474.654 371.87C475.016 371.004 475.531 369.864 476.046 368.582C476.561 367.3 477.208 365.809 477.81 364.198C479.082 360.909 480.452 356.931 481.822 352.47C483.192 348.009 484.474 343.043 485.592 337.771C486.71 332.499 487.477 327.435 488.047 322.799C488.617 318.162 488.924 313.975 489.077 310.446C489.198 308.692 489.198 307.092 489.253 305.689C489.307 304.286 489.307 303.08 489.307 302.094C489.307 301.107 489.307 300.395 489.307 299.814C489.319 299.534 489.352 299.256 489.406 298.981Z" fill="#455A64"/>
<path d="M488.024 324.684C487.962 321.625 486.843 318.681 484.857 316.354C484.565 315.924 484.173 315.572 483.715 315.327C483.257 315.083 482.746 314.954 482.227 314.951C480.857 315.148 480.243 316.792 480.188 318.162C480.117 320.508 480.896 322.8 482.38 324.618C483.645 326.367 485.546 327.548 487.674 327.906" fill="#455A64"/>
<path d="M485.01 341.377C485.186 337.793 484.024 332.247 481.93 329.32C481.62 328.844 481.218 328.434 480.747 328.115C480.51 327.957 480.238 327.861 479.955 327.834C479.672 327.807 479.387 327.851 479.125 327.961C478.791 328.196 478.521 328.511 478.339 328.876C478.157 329.242 478.069 329.647 478.084 330.055C477.881 332.65 478.405 335.25 479.598 337.563C480.79 339.877 482.604 341.813 484.835 343.153" fill="#455A64"/>
<path d="M481.109 355.681C480.752 352.087 479.438 348.655 477.306 345.74C477.097 345.374 476.817 345.054 476.482 344.8C476.147 344.546 475.763 344.362 475.355 344.26C474.083 344.096 473.075 345.356 472.801 346.639C472.231 349.203 473.503 351.812 474.993 353.982C476.405 355.806 478.048 357.439 479.881 358.838" fill="#455A64"/>
<path d="M477.581 365.733C477.029 362.904 475.853 360.234 474.139 357.918C473.781 357.403 473.309 356.979 472.759 356.679C472.481 356.534 472.168 356.467 471.855 356.487C471.543 356.506 471.241 356.61 470.983 356.789C470.194 357.403 470.369 358.641 470.709 359.584C471.773 362.825 473.837 365.646 476.605 367.64" fill="#455A64"/>
<path d="M479.159 361.699C482.37 359.585 485.772 357.776 489.319 356.295C489.573 356.138 489.863 356.046 490.161 356.029C490.46 356.012 490.758 356.069 491.029 356.196C491.208 356.347 491.34 356.546 491.408 356.769C491.476 356.993 491.478 357.232 491.412 357.457C491.272 357.9 491.032 358.305 490.711 358.641C489.151 360.401 487.215 361.787 485.046 362.696C482.878 363.605 480.532 364.013 478.184 363.891" fill="#455A64"/>
<path d="M483.082 348.403L491.456 342.923C492.219 342.356 493.081 341.936 493.998 341.684C494.461 341.568 494.946 341.58 495.401 341.719C495.857 341.858 496.266 342.119 496.585 342.473C496.844 342.871 496.986 343.333 496.996 343.808C497.006 344.283 496.882 344.75 496.64 345.159C496.147 345.973 495.486 346.672 494.7 347.208C492.956 348.65 490.966 349.764 488.825 350.497C486.633 351.154 484.803 351.439 482.775 350.497" fill="#455A64"/>
<path d="M486.95 333.267C489.244 330.112 492.334 327.623 495.904 326.054C496.487 325.757 497.136 325.613 497.79 325.638C498.428 325.774 498.998 326.132 499.399 326.647C499.8 327.162 500.006 327.802 499.982 328.455C499.961 329.183 499.789 329.899 499.478 330.557C499.167 331.215 498.722 331.802 498.173 332.28C497.062 333.227 495.773 333.943 494.381 334.385C491.854 335.299 489.198 335.806 486.512 335.886" fill="#455A64"/>
<path d="M488.726 319.236C490.666 315.148 494.009 312.298 497.67 309.657C498.013 309.327 498.436 309.093 498.897 308.975C499.358 308.858 499.841 308.863 500.3 308.988C500.567 309.139 500.791 309.355 500.952 309.615C501.113 309.876 501.205 310.173 501.221 310.479C501.249 311.085 501.148 311.69 500.925 312.254C499.996 314.807 498.334 317.03 496.149 318.644C493.964 320.258 491.352 321.192 488.639 321.33" fill="#455A64"/>
<path d="M489.177 311.925C490.154 309.811 490.929 307.609 491.489 305.349C492.054 303.091 491.967 300.719 491.237 298.509C490.935 297.56 490.368 296.716 489.604 296.076C489.219 295.758 488.758 295.545 488.266 295.459C487.775 295.372 487.269 295.415 486.798 295.583C486.381 295.778 486.014 296.067 485.726 296.426C485.437 296.785 485.234 297.205 485.132 297.654C484.923 298.552 484.882 299.482 485.012 300.395C485.396 304.779 486.722 309.909 489.177 311.881" fill="#455A64"/>
<path d="M415.754 374.731V385.287C415.754 386.388 416.192 387.445 416.971 388.224C417.75 389.003 418.806 389.441 419.908 389.441H492.068C492.614 389.441 493.154 389.333 493.658 389.125C494.162 388.916 494.62 388.61 495.006 388.224C495.391 387.838 495.697 387.38 495.906 386.876C496.115 386.372 496.222 385.832 496.222 385.287V374.731H415.754Z" fill="#8547C6"/>
<g opacity="0.4">
<path opacity="0.4" d="M422.014 389.44L422.616 392.794L489.199 397.54L490.886 389.44H422.014Z" fill="black"/>
</g>
<path d="M310.203 211.811C310.203 212.509 309.971 213.081 309.507 213.525C309.048 213.969 308.411 214.252 307.596 214.375V214.418C308.533 214.531 309.246 214.809 309.734 215.253C310.228 215.693 310.474 216.269 310.474 216.982C310.474 217.978 310.083 218.757 309.302 219.318C308.526 219.88 307.452 220.161 306.08 220.161C304.654 220.161 303.514 219.968 302.659 219.582V218.051C303.133 218.276 303.663 218.449 304.249 218.571C304.839 218.693 305.379 218.754 305.867 218.754C307.747 218.754 308.687 218.139 308.687 216.909C308.687 216.342 308.404 215.91 307.837 215.612C307.276 215.314 306.441 215.166 305.333 215.166H304.043V213.759H305.252C307.386 213.759 308.453 213.19 308.453 212.053C308.453 211.599 308.27 211.24 307.903 210.976C307.542 210.712 307.034 210.581 306.38 210.581C305.862 210.581 305.369 210.649 304.9 210.786C304.432 210.922 303.946 211.154 303.443 211.481L302.645 210.295C303.743 209.533 305.037 209.152 306.526 209.152C307.659 209.152 308.555 209.394 309.214 209.877C309.874 210.361 310.203 211.005 310.203 211.811ZM317.513 220.014L317.168 218.886H317.11C316.719 219.379 316.326 219.716 315.931 219.897C315.535 220.073 315.027 220.161 314.407 220.161C313.611 220.161 312.989 219.946 312.54 219.516C312.095 219.086 311.873 218.479 311.873 217.692C311.873 216.857 312.183 216.228 312.803 215.803C313.423 215.378 314.368 215.146 315.638 215.107L317.037 215.063V214.631C317.037 214.113 316.915 213.728 316.67 213.474C316.431 213.215 316.058 213.085 315.55 213.085C315.135 213.085 314.737 213.146 314.356 213.269C313.975 213.391 313.609 213.535 313.257 213.701L312.701 212.47C313.14 212.241 313.621 212.067 314.144 211.95C314.666 211.828 315.159 211.767 315.623 211.767C316.653 211.767 317.43 211.992 317.952 212.441C318.479 212.89 318.743 213.596 318.743 214.558V220.014H317.513ZM314.949 218.842C315.574 218.842 316.075 218.669 316.451 218.322C316.832 217.971 317.022 217.48 317.022 216.85V216.147L315.982 216.191C315.171 216.22 314.581 216.357 314.209 216.601C313.843 216.84 313.66 217.209 313.66 217.707C313.66 218.068 313.768 218.349 313.982 218.549C314.197 218.745 314.52 218.842 314.949 218.842ZM328.228 211.914V220.014H326.5V213.276H322.867V220.014H321.146V211.914H328.228ZM332.344 211.914V216.066C332.344 216.55 332.305 217.26 332.227 218.198L336.292 211.914H338.394V220.014H336.739V215.935C336.739 215.71 336.751 215.346 336.775 214.843C336.805 214.34 336.829 213.974 336.849 213.745L332.798 220.014H330.696V211.914H332.344ZM344.114 220.161C342.889 220.161 341.956 219.804 341.316 219.091C340.682 218.374 340.364 217.346 340.364 216.008C340.364 214.646 340.696 213.598 341.36 212.866C342.029 212.133 342.994 211.767 344.253 211.767C345.108 211.767 345.877 211.926 346.561 212.243L346.041 213.627C345.313 213.344 344.712 213.203 344.239 213.203C342.837 213.203 342.137 214.133 342.137 215.993C342.137 216.901 342.31 217.585 342.657 218.044C343.008 218.498 343.521 218.725 344.195 218.725C344.961 218.725 345.687 218.535 346.37 218.154V219.655C346.062 219.836 345.733 219.965 345.381 220.043C345.035 220.122 344.612 220.161 344.114 220.161ZM353.343 220.014L352.999 218.886H352.94C352.549 219.379 352.156 219.716 351.761 219.897C351.365 220.073 350.857 220.161 350.237 220.161C349.441 220.161 348.819 219.946 348.37 219.516C347.925 219.086 347.703 218.479 347.703 217.692C347.703 216.857 348.013 216.228 348.633 215.803C349.253 215.378 350.198 215.146 351.468 215.107L352.867 215.063V214.631C352.867 214.113 352.745 213.728 352.5 213.474C352.261 213.215 351.888 213.085 351.38 213.085C350.965 213.085 350.567 213.146 350.186 213.269C349.805 213.391 349.439 213.535 349.087 213.701L348.531 212.47C348.97 212.241 349.451 212.067 349.974 211.95C350.496 211.828 350.989 211.767 351.453 211.767C352.483 211.767 353.26 211.992 353.782 212.441C354.31 212.89 354.573 213.596 354.573 214.558V220.014H353.343ZM350.779 218.842C351.404 218.842 351.905 218.669 352.281 218.322C352.662 217.971 352.852 217.48 352.852 216.85V216.147L351.812 216.191C351.001 216.22 350.411 216.357 350.04 216.601C349.673 216.84 349.49 217.209 349.49 217.707C349.49 218.068 349.598 218.349 349.812 218.549C350.027 218.745 350.35 218.842 350.779 218.842ZM363.062 211.914V213.261H360.425V220.014H358.697V213.261H356.06V211.914H363.062ZM366.343 215.151H368.372C370.633 215.151 371.763 215.932 371.763 217.495C371.763 218.32 371.475 218.947 370.899 219.377C370.323 219.802 369.48 220.014 368.372 220.014H364.622V211.914H366.343V215.151ZM370.035 217.539C370.035 217.133 369.881 216.85 369.573 216.689C369.266 216.528 368.831 216.447 368.27 216.447H366.343V218.74H368.299C368.865 218.74 369.295 218.637 369.588 218.432C369.886 218.227 370.035 217.929 370.035 217.539ZM376.941 220.161C375.716 220.161 374.783 219.804 374.144 219.091C373.509 218.374 373.191 217.346 373.191 216.008C373.191 214.646 373.523 213.598 374.188 212.866C374.856 212.133 375.821 211.767 377.081 211.767C377.935 211.767 378.704 211.926 379.388 212.243L378.868 213.627C378.14 213.344 377.54 213.203 377.066 213.203C375.665 213.203 374.964 214.133 374.964 215.993C374.964 216.901 375.137 217.585 375.484 218.044C375.835 218.498 376.348 218.725 377.022 218.725C377.789 218.725 378.514 218.535 379.197 218.154V219.655C378.89 219.836 378.56 219.965 378.208 220.043C377.862 220.122 377.439 220.161 376.941 220.161ZM381.929 220.014H380.003L382.259 216.696C381.712 216.54 381.282 216.262 380.97 215.861C380.657 215.456 380.501 214.956 380.501 214.36C380.501 213.593 380.774 212.995 381.321 212.565C381.868 212.131 382.615 211.914 383.562 211.914H387.254V220.014H385.525V216.894H383.892L381.929 220.014ZM382.178 214.375C382.178 214.79 382.334 215.102 382.647 215.312C382.964 215.517 383.389 215.62 383.921 215.62H385.525V213.217H383.65C383.182 213.217 382.818 213.317 382.559 213.518C382.305 213.718 382.178 214.003 382.178 214.375Z" fill="white"/>
</svg>
