<svg width="1600" height="665" viewBox="0 0 1600 665" fill="none" xmlns="http://www.w3.org/2000/svg">
<path d="M1085.34 183.766C1399.41 198.288 1551.86 55.8272 1616 0V511C1616 552.334 1338.29 655 1141 655C882.878 655 681.258 573.5 466.5 573.5C271.093 573.5 70.4014 638.697 -37.6597 665V240.73C-48.4933 163.19 201.478 62.2398 408.061 72.8733C704.887 88.1518 771.278 169.244 1085.34 183.766Z" fill="#FCB697"/>
<circle cx="1023.26" cy="411.263" r="87.7628" stroke="#E9A78A" stroke-width="11"/>
<circle r="105.5" transform="matrix(-1 0 0 1 34 353)" stroke="#E9A78A" stroke-width="33"/>
<circle r="118.5" transform="matrix(-1 0 0 1 1551 276)" stroke="#E9A78A" stroke-width="33"/>
<path d="M1475 276C1475 317.91 1509.19 352 1551.5 352C1593.81 352 1628 317.91 1628 276C1628 234.09 1593.81 200 1551.5 200C1509.19 200 1475 234.09 1475 276Z" stroke="#E9A78A" stroke-width="24"/>
<circle r="63.5" transform="matrix(-1 0 0 1 34 353)" stroke="#E9A78A" stroke-width="33"/>
</svg>
