<svg width="378" height="420" viewBox="0 0 378 420" fill="none" xmlns="http://www.w3.org/2000/svg">
<path d="M78.8457 -126.776L73.2657 -123.4C26.2874 -94.9677 -2.31166 -43.2654 0.647443 11.6333C0.999912 18.6784 1.87006 25.6877 3.25083 32.6046C13.3555 82.5524 50.1477 126.246 97.6025 144.627C125.506 155.435 157.716 158.652 179.774 178.903C208.461 205.348 209.052 249.643 207.476 288.591C205.899 327.539 206.599 371.94 235.419 398.172C253.46 414.599 279.265 419.992 303.642 418.864C368.129 415.927 426.156 370.846 455.303 313.143C484.449 255.439 487.59 187.21 475.516 123.689C458.655 34.717 410.866 -50.1453 336.415 -101.607C261.964 -153.068 160.02 -166.765 78.8457 -126.776Z" fill="#ECDDF6" fill-opacity="0.3"/>
</svg>
