<svg width="209" height="167" viewBox="0 0 209 167" fill="none" xmlns="http://www.w3.org/2000/svg">
<path d="M18.5657 -57.536L16.5451 -54.8223C-0.465845 -31.975 -4.09555 -1.54137 8.06217 24.2564C9.60924 27.5723 11.3981 30.7699 13.4141 33.8231C28.0368 55.8448 54.2586 69.6426 80.6531 69.1936C96.1732 68.9296 112.278 64.176 126.836 69.5925C145.791 76.6878 154.737 97.8543 161.596 116.875C168.455 135.897 177.475 157.092 196.452 164.06C208.332 168.424 221.785 165.969 233.276 160.66C263.685 146.637 282.749 113.63 285.468 80.2064C288.187 46.7826 276.353 13.387 258.13 -14.7708C232.629 -54.2208 193.073 -85.648 147.239 -95.8134C101.405 -105.979 49.7465 -92.6232 18.5657 -57.536Z" fill="#ECDDF6" fill-opacity="0.3"/>
</svg>
