<svg width="295" height="305" viewBox="0 0 295 305" fill="none" xmlns="http://www.w3.org/2000/svg">
<path d="M63.3783 -135.578L58.8831 -132.858C21.0385 -109.953 -2.00017 -68.3033 0.383612 -24.0782C0.667557 -18.403 1.36853 -12.7564 2.48084 -7.18435C10.6209 33.0524 40.2598 68.2509 78.4882 83.058C100.967 91.7648 126.914 94.356 144.683 110.67C167.793 131.973 168.27 167.657 166.999 199.032C165.729 230.408 166.293 266.176 189.51 287.308C204.044 300.541 224.831 304.886 244.469 303.976C296.418 301.611 343.163 265.295 366.643 218.81C390.122 172.326 392.652 117.362 382.926 66.1914C369.343 -5.48261 330.846 -73.8456 270.87 -115.302C210.894 -156.758 128.771 -167.791 63.3783 -135.578Z" fill="#ECDDF6" fill-opacity="0.3"/>
</svg>
