<svg width="17" height="17" viewBox="0 0 17 17" fill="none" xmlns="http://www.w3.org/2000/svg">
<path d="M16.5415 16.2135C15.6368 15.9408 14.8476 15.3769 14.2965 14.6094H14.3438C14.5551 14.6094 14.7578 14.5254 14.9072 14.376C15.0567 14.2265 15.1406 14.0238 15.1406 13.8125V10.625C15.1406 10.4137 15.0567 10.211 14.9072 10.0615C14.7578 9.91208 14.5551 9.82812 14.3438 9.82812H8.5C8.28866 9.82812 8.08597 9.91208 7.93652 10.0615C7.78708 10.211 7.70313 10.4137 7.70312 10.625V13.8125C7.70313 14.0238 7.78708 14.2265 7.93652 14.376C8.08597 14.5254 8.28866 14.6094 8.5 14.6094H12.0594C13.2467 16.7097 16.3359 16.7344 16.4688 16.7344C16.5327 16.7342 16.5945 16.711 16.6427 16.6689C16.6909 16.6269 16.7223 16.5689 16.7311 16.5055C16.74 16.4422 16.7257 16.3777 16.6909 16.3241C16.656 16.2704 16.603 16.2312 16.5415 16.2135ZM13.0156 13.2812H9.82812C9.75768 13.2812 9.69011 13.2533 9.6403 13.2035C9.59049 13.1536 9.5625 13.0861 9.5625 13.0156C9.5625 12.9452 9.59049 12.8776 9.6403 12.8278C9.69011 12.778 9.75768 12.75 9.82812 12.75H13.0156C13.0861 12.75 13.1536 12.778 13.2035 12.8278C13.2533 12.8776 13.2812 12.9452 13.2812 13.0156C13.2812 13.0861 13.2533 13.1536 13.2035 13.2035C13.1536 13.2533 13.0861 13.2812 13.0156 13.2812ZM13.0156 11.6875H9.82812C9.75768 11.6875 9.69011 11.6595 9.6403 11.6097C9.59049 11.5599 9.5625 11.4923 9.5625 11.4219C9.5625 11.3514 9.59049 11.2839 9.6403 11.234C9.69011 11.1842 9.75768 11.1562 9.82812 11.1562H13.0156C13.0861 11.1562 13.1536 11.1842 13.2035 11.234C13.2533 11.2839 13.2812 11.3514 13.2812 11.4219C13.2812 11.4923 13.2533 11.5599 13.2035 11.6097C13.1536 11.6595 13.0861 11.6875 13.0156 11.6875Z" fill="#D6D6D6"/>
<path d="M11.6875 3.45312H5.84371C5.63236 3.45312 5.42967 3.53708 5.28023 3.68652C5.13079 3.83597 5.04683 4.03866 5.04683 4.25V7.4375C5.04683 7.64884 5.13079 7.85153 5.28023 8.00098C5.42967 8.15042 5.63236 8.23438 5.84371 8.23438H5.89258C5.3418 9.00303 4.55154 9.56721 3.64566 9.83848C3.58417 9.85618 3.53113 9.89548 3.4963 9.94915C3.46147 10.0028 3.44718 10.0673 3.45607 10.1306C3.46495 10.194 3.49641 10.252 3.54467 10.2941C3.59292 10.3361 3.65472 10.3593 3.71871 10.3594C3.85152 10.3594 6.941 10.3347 8.12808 8.23438H11.6875C11.8988 8.23438 12.1015 8.15042 12.2509 8.00098C12.4004 7.85153 12.4843 7.64884 12.4843 7.4375V4.25C12.4843 4.03866 12.4004 3.83597 12.2509 3.68652C12.1015 3.53708 11.8988 3.45312 11.6875 3.45312ZM10.3593 6.90625H7.17183C7.10138 6.90625 7.03382 6.87826 6.98401 6.82845C6.93419 6.77864 6.90621 6.71107 6.90621 6.64062C6.90621 6.57018 6.93419 6.50261 6.98401 6.4528C7.03382 6.40299 7.10138 6.375 7.17183 6.375H10.3593C10.4298 6.375 10.4973 6.40299 10.5472 6.4528C10.597 6.50261 10.625 6.57018 10.625 6.64062C10.625 6.71107 10.597 6.77864 10.5472 6.82845C10.4973 6.87826 10.4298 6.90625 10.3593 6.90625ZM10.3593 5.3125H7.17183C7.10138 5.3125 7.03382 5.28451 6.98401 5.2347C6.93419 5.18489 6.90621 5.11732 6.90621 5.04688C6.90621 4.97643 6.93419 4.90886 6.98401 4.85905C7.03382 4.80924 7.10138 4.78125 7.17183 4.78125H10.3593C10.4298 4.78125 10.4973 4.80924 10.5472 4.85905C10.597 4.90886 10.625 4.97643 10.625 5.04688C10.625 5.11732 10.597 5.18489 10.5472 5.2347C10.4973 5.28451 10.4298 5.3125 10.3593 5.3125Z" fill="#D6D6D6"/>
<path d="M12.75 0.265625H1.0625C0.851156 0.265625 0.648467 0.349581 0.499024 0.499024C0.349581 0.648467 0.265625 0.851156 0.265625 1.0625V8.5C0.265625 8.71134 0.349581 8.91403 0.499024 9.06348C0.648467 9.21292 0.851156 9.29688 1.0625 9.29688H2.39062V12.4844C2.39061 12.5312 2.403 12.5773 2.42654 12.6178C2.45007 12.6583 2.4839 12.6919 2.52461 12.7151C2.56532 12.7384 2.61145 12.7504 2.65831 12.7501C2.70518 12.7497 2.75111 12.7369 2.79145 12.7131L8.57252 9.29688H12.75C12.9613 9.29688 13.164 9.21292 13.3135 9.06348C13.4629 8.91403 13.5469 8.71134 13.5469 8.5V1.0625C13.5469 0.851156 13.4629 0.648467 13.3135 0.499024C13.164 0.349581 12.9613 0.265625 12.75 0.265625ZM1.0625 0.796875H12.75C12.8204 0.796875 12.888 0.82486 12.9378 0.874675C12.9876 0.924489 13.0156 0.992052 13.0156 1.0625V2.46473L6.90625 4.50128L0.796875 2.46473V1.0625C0.796875 0.992052 0.82486 0.924489 0.874675 0.874675C0.924489 0.82486 0.992052 0.796875 1.0625 0.796875ZM12.75 8.76562H8.5C8.45244 8.76561 8.40575 8.77836 8.3648 8.80255L2.92188 12.019V9.03125C2.92188 8.9608 2.89389 8.89324 2.84408 8.84342C2.79426 8.79361 2.7267 8.76562 2.65625 8.76562H1.0625C0.992052 8.76562 0.924489 8.73764 0.874675 8.68783C0.82486 8.63801 0.796875 8.57045 0.796875 8.5V3.02494L6.82231 5.03333C6.8768 5.05148 6.9357 5.05148 6.99019 5.03333L13.0156 3.02494V8.5C13.0156 8.57045 12.9876 8.63801 12.9378 8.68783C12.888 8.73764 12.8204 8.76562 12.75 8.76562Z" fill="black"/>
</svg>
