<svg width="667" height="538" viewBox="0 0 667 538" fill="none" xmlns="http://www.w3.org/2000/svg">
<path d="M647.408 0H19.5918C14.3944 0.00377173 9.41115 2.00965 5.7374 5.57679C2.06366 9.14393 -1.45376e-06 13.9804 0 19.0232V449.272C0 454.314 2.06412 459.149 5.73829 462.714C9.41246 466.279 14.3957 468.281 19.5918 468.281H260.544C260.544 468.281 275.868 514.267 228.282 538H453.661C453.661 538 400.018 520.158 413.817 468.281H647.408C652.604 468.281 657.587 466.279 661.262 462.714C664.936 459.149 667 454.314 667 449.272V19.0232C667 13.9804 664.936 9.14393 661.263 5.57679C657.589 2.00965 652.606 0.00377173 647.408 0Z" fill="#455A64"/>
<path d="M27.1279 7H639.872C641.727 7 643.565 7.37874 645.279 8.11458C646.993 8.85042 648.55 9.92895 649.862 11.2886C651.174 12.6483 652.215 14.2624 652.925 16.0389C653.635 17.8153 654 19.7194 654 21.6422V412H13V21.6422C13 17.7588 14.4885 14.0345 17.138 11.2886C19.7875 8.54266 23.381 7 27.1279 7Z" fill="#E0E0E0"/>
</svg>
