<svg width="637" height="637" fill="none" xmlns="http://www.w3.org/2000/svg"><path d="M64.509 128.254l3.195-5.258c26.849-44.268 75.512-70.976 126.766-67.73 6.599.41 13.159 1.308 19.626 2.683 46.61 9.98 87.165 45.193 103.972 90.306 9.894 26.52 12.659 57.065 31.413 78.126 24.419 27.406 65.873 28.264 102.32 27.124 36.448-1.14 77.862-.161 102.213 27.352 15.224 17.224 20.056 41.732 18.795 64.805-3.249 61.09-45.858 115.714-100.025 142.864-54.168 27.151-117.974 29.593-177.202 17.64-83.07-16.727-162.059-62.685-209.54-133.648-47.482-70.962-59.524-167.667-21.533-244.264z" fill="#EBEBEB"/><path d="M591.659 610.73c0 .191-122.367.344-273.273.344-150.905 0-273.298-.153-273.298-.344 0-.191 122.304-.331 273.298-.331 150.995 0 273.273.153 273.273.331z" fill="#263238"/><path d="M176.156 504.784c5.632-2.904 12.269-3.274 18.524-2.242 3.351.548 6.855 1.554 9.148 4.077 2.293 2.522 2.713 6.969.089 9.134a8.796 8.796 0 01-5.771 1.466c-4.892-.064-10.32-.918-14.231 2.025-2.229 1.682-3.72 4.472-6.37 5.3a6.367 6.367 0 01-6.943-3.096 10.775 10.775 0 01-.777-7.95 12.132 12.132 0 016.331-8.714zM163.263 479.878c3.44 4.917 10.129 3.286 13.237.293 3.109-2.994 4.408-7.351 5.606-11.466 2.726-9.479 5.478-19.429 3.452-29.086a16.124 16.124 0 00-3.72-7.899 8.433 8.433 0 00-7.988-2.662c-3.376.892-5.478 4.191-6.994 7.338a69.367 69.367 0 00-6.854 29.748c0 4.79.548 9.822 3.261 13.772M153.797 486.936c3.746-4.434 4.446-10.906 2.79-16.473-1.656-5.568-5.427-10.281-9.759-14.142a52.441 52.441 0 00-17.466-10.306 18.51 18.51 0 00-7.848-1.274 8.248 8.248 0 00-6.599 3.987c-1.835 3.504-.077 7.759 1.834 11.224a133.238 133.238 0 0011.466 17.48c3.44 4.433 7.377 8.803 12.626 10.803 5.248 2 10.676 1.771 13.466-1.86" fill="#8547C6"/><path d="M163.073 554.075c.188-.733.295-1.485.318-2.242.153-1.618.357-3.669.586-6.09a90.41 90.41 0 011.376-8.918 69.537 69.537 0 013.249-10.548 38.572 38.572 0 015.402-9.555 20.046 20.046 0 016.816-5.67 18.826 18.826 0 015.733-1.783 10.91 10.91 0 002.229-.331 11.02 11.02 0 00-2.268 0 17.146 17.146 0 00-5.987 1.554 19.956 19.956 0 00-7.186 5.72 37.78 37.78 0 00-5.593 9.746 64.196 64.196 0 00-3.223 10.727 76.092 76.092 0 00-1.197 9.058 107.995 107.995 0 00-.293 6.141c-.065.73-.052 1.464.038 2.191z" fill="#263238"/><path d="M163.441 549.374c.065-.34.087-.686.064-1.032v-2.968c0-2.548 0-6.294.14-10.893.23-9.198 1.019-19.11 2.548-33.047 1.453-13.135 3.389-28.398 5.44-38.335.446-2.255.892-4.281 1.274-6.064a96.163 96.163 0 011.07-4.561c.332-1.236.51-2.128.688-2.892.1-.332.164-.674.191-1.019a3.606 3.606 0 00-.369.968l-.854 2.841c-.382 1.274-.777 2.765-1.274 4.535-.496 1.771-.955 3.822-1.439 6.065a336.615 336.615 0 00-5.72 35.557c-1.529 14.014-2.23 26.754-2.281 35.94-.064 4.611 0 8.344.153 10.918.076 1.274.14 2.191.178 2.968.024.346.088.688.191 1.019z" fill="#263238"/><path d="M163.506 524.888c.081-1.03.081-2.065 0-3.096-.115-2-.382-4.879-.943-8.395a112.576 112.576 0 00-2.726-12.231 101.181 101.181 0 00-5.096-14.473 77.151 77.151 0 00-15.008-23.377 38.099 38.099 0 00-3.542-3.287c-.535-.459-1.019-.918-1.503-1.274l-1.376-.943a18.104 18.104 0 00-2.548-1.669c-.153.191 3.695 2.459 8.549 7.644a81.42 81.42 0 0114.638 23.301 117.372 117.372 0 015.096 14.333 148.53 148.53 0 012.905 12.116c.675 3.49 1.006 6.37 1.274 8.306.019 1.021.113 2.038.28 3.045zM139.77 568.14l2.458 33.723h43.316l2.459-33.723H139.77zM193.163 554.853h-57.585v13.287h57.585v-13.287z" fill="#263238"/><path d="M135.578 600.564v3.694H192.22v-3.694h-56.642zM140.943 610.73l-2.65-6.472h51.865l-3.096 6.472h-46.119z" fill="#455A64"/><path d="M187.201 579.16s-.064.115-.204.319c-.14.204-.382.509-.65.853a169.2 169.2 0 01-2.548 3.224l-.114.153-.102-.153-6.205-8.574h.357l-6.102 8.637-.191.268-.217-.255-7.236-8.612h.42l-.395.497-6.472 8.115-.216.268-.204-.281-6.103-8.637h.357l-7.529 8.561-.128.153-.102-.166-2.356-3.962-.599-1.057a1.663 1.663 0 01-.191-.37s.102.102.254.331l.676 1.02 2.471 3.885h-.242l7.402-8.676.191-.216.166.242 6.153 8.599h-.407l6.459-8.128.395-.497.204-.267.216.255 7.211 8.637h-.408l6.166-8.599.179-.255.178.255 6.077 8.663h-.229l2.624-3.147.701-.815.293-.268z" fill="#E0E0E0"/><path d="M188.553 567.924c0 .153-10.855.267-24.206.267-13.352 0-24.206-.114-24.206-.267 0-.153 10.854-.268 24.206-.268 13.351 0 24.206.115 24.206.268z" fill="#455A64"/><path d="M190.795 604.615c0 .153-11.797.268-26.346.268s-26.334-.115-26.334-.268c0-.153 11.785-.268 26.334-.268s26.346.115 26.346.268zM260.316 610.73c-.7-2.815 19.849-106.481 19.849-106.481l110.061-15.746s44.667 27.199 46.068 49.686c1.401 22.486 11.784 72.503 11.784 72.503H341.572l-3.363-4.268-2.166 4-75.727.306z" fill="#263238"/><path d="M346.834 590.104v.191a2.723 2.723 0 01-.127.535 4.47 4.47 0 01-1.134 1.797 6.27 6.27 0 01-2.93 1.643 6.546 6.546 0 01-4.408-.459 9.775 9.775 0 01-4.039-3.58 16.641 16.641 0 01-2.268-5.745c-.458-2.128-.713-4.37-1.057-6.689-.344-2.318-.663-4.714-1.007-7.172-1.274-9.797-2.548-18.664-3.388-25.2-.395-3.16-.714-5.746-.956-7.644-.089-.841-.166-1.529-.229-2.077a2.948 2.948 0 010-.739c.075.233.131.472.165.714l.344 2.064c.293 1.898.688 4.471 1.16 7.644.93 6.523 2.191 15.39 3.592 25.174.34 2.463.671 4.854.994 7.173.331 2.318.573 4.573 1.007 6.65a16.423 16.423 0 002.127 5.58 9.677 9.677 0 003.822 3.452 6.114 6.114 0 004.141.51 5.953 5.953 0 002.739-1.516 5.395 5.395 0 001.452-2.306zM337.609 527.767c.371-.185.79-.247 1.198-.178a4.258 4.258 0 012.917 1.567 4.808 4.808 0 01.536 4.841 5.55 5.55 0 01-4.88 3.376 4.875 4.875 0 01-3.096-.879 5.166 5.166 0 01-1.822-2.357 4.63 4.63 0 01-.229-2.701 4.272 4.272 0 011.121-2.064 4.783 4.783 0 012.981-1.452c.406-.057.82-.004 1.198.153 0 .064-.433 0-1.172.115a4.752 4.752 0 00-2.663 1.503 3.98 3.98 0 00-.675 4.217 4.424 4.424 0 004.319 2.803 5.01 5.01 0 004.357-2.956 4.334 4.334 0 00-.357-4.306 4.049 4.049 0 00-2.548-1.605c-.726-.128-1.185-.013-1.185-.077z" fill="#455A64"/><path d="M408.954 236.008H350.86l-6.459 17.098-36.844 50.514-28.946 208.528 36.844 6.816a68.794 68.794 0 0019.403.815l55.368-5.465 1.657-186.004 26.97-74.784-9.899-17.518z" fill="#F5F5F5"/><path d="M364.81 272.636s0 .217-.153.624c-.153.408-.293 1.045-.522 1.835-.484 1.631-1.172 3.987-2.064 7.007-.892 3.019-2.026 6.765-3.249 11.109-1.223 4.344-2.675 9.262-4.128 14.753-1.452 5.491-3.121 11.466-4.739 17.951a3445.358 3445.358 0 00-5.096 20.677 1276.758 1276.758 0 00-10.192 47.749c-3.287 17.008-5.86 33.315-8.039 48.17-1.032 7.428-2.051 14.486-2.828 21.123-.777 6.638-1.554 12.74-2.166 18.435-.611 5.695-1.108 10.752-1.554 15.288a947.8 947.8 0 00-1.058 11.466c-.267 3.108-.484 5.593-.637 7.287-.076.803-.14 1.44-.178 1.886-.038.446-.089.649-.089.649a6.386 6.386 0 010-.649c0-.459.076-1.083.115-1.899.127-1.694.305-4.153.522-7.287.216-3.134.509-7.045.943-11.542.433-4.497.828-9.606 1.452-15.288s1.274-11.836 2.089-18.461c.816-6.624 1.758-13.695 2.778-21.135a1131.288 1131.288 0 017.988-48.196c3.21-17.033 6.765-33.124 10.192-47.775 1.783-7.287 3.439-14.23 5.096-20.677a869.643 869.643 0 014.828-17.938c1.529-5.465 2.968-10.395 4.217-14.727a463.364 463.364 0 013.351-11.084l2.191-6.969.586-1.809.344-.573zM295.364 495.675a50.42 50.42 0 001.21 10.715 49.446 49.446 0 004.166 9.962 10.87 10.87 0 01-1.872-2.611 29.124 29.124 0 01-3.822-14.881 10.917 10.917 0 01.318-3.185zM298.627 517.142a5.969 5.969 0 01-2.128-1.019 19.673 19.673 0 01-7.376-8.459 6.18 6.18 0 01-.727-2.243 28.594 28.594 0 0010.192 11.721h.039zM343.459 497.51c.238 1.069.315 2.169.229 3.261a35.467 35.467 0 01-1.032 7.81 34.454 34.454 0 01-2.726 7.402 11.493 11.493 0 01-1.707 2.777 27.557 27.557 0 011.274-2.981 44.6 44.6 0 003.707-15.033c.016-1.083.101-2.164.255-3.236zM345.917 249.08s-35.481 15.007-40.59 15.988c-5.108.981-22.932 5.453-22.932 5.453s-13.733 24.588-12.459 38.653c1.274 14.065 10.867 114.979 10.867 114.979s-15.657 87.192-15.976 93.588c-.318 6.395-13.848 67.394-11.237 67.025 2.612-.369 14.371-13.415 14.371-13.415l38.972-214.325s10.192-49.189 17.836-65.153c7.644-15.963 21.097-36.729 21.097-36.729l.051-6.064z" fill="#263238"/><path d="M293.886 428.803a3.34 3.34 0 010-.51c0-.356 0-.853-.077-1.478a808.703 808.703 0 01-.254-5.669c-.192-4.968-.446-12.103-.765-20.893-.318-8.791-.624-19.34-.892-31.01-.127-5.834-.254-11.95-.267-18.307a86.215 86.215 0 013.223-19.428c2.79-10.791 6.294-20.907 9.67-30.258 3.376-9.351 6.79-17.912 9.937-25.48 3.584-2.998 6.867-5.746 9.848-8.243l.229.383-7.249 2.841-.662.254.446-.547 8.191-10.345c.943-1.172 1.669-2.09 2.192-2.727l.573-.7c.127-.153.204-.23.204-.217a1.378 1.378 0 01-.166.255l-.535.726-2.115 2.777-8.051 10.46-.217-.293 7.224-2.892 1.274-.523-1.058.892-9.797 8.307.077-.102a588.206 588.206 0 00-9.848 25.48c-3.377 9.389-6.829 19.467-9.606 30.219a85.648 85.648 0 00-3.224 19.263c0 6.37.128 12.472.23 18.295.28 11.669.535 22.167.751 31.009.217 8.841.421 15.925.548 20.893 0 2.434.102 4.345.128 5.682v1.478c.021.135.034.271.038.408z" fill="#455A64"/><path d="M282.331 270.521s-11.695 8.918-13.695 18.983c-2.001 10.064-4.994 52.667-4.994 52.667s-5.02 5.631-5.02 6.65c0 1.019-2.408 27.735-2.408 27.735l-37.532-47.138-34.092 32.194s44.22 77.319 61.725 84.186c26.652 10.46 34.615-4.714 34.615-4.714l4-62.26-2.599-108.303z" fill="#263238"/><path d="M273.668 312.958c.041.111.067.226.076.344 0 .268.102.599.166 1.007l.573 3.898c.484 3.376 1.159 8.268 1.949 14.32 1.555 12.103 3.593 28.856 4.676 47.456.51 9.313.675 18.193.573 26.27-.102 4.039-.165 7.873-.407 11.466-.115 1.796-.179 3.529-.319 5.198-.14 1.669-.28 3.249-.42 4.765-.23 3.057-.625 5.784-.905 8.192-.153 1.21-.293 2.318-.433 3.363s-.319 1.949-.446 2.803c-.28 1.643-.497 2.943-.662 3.822-.077.407-.141.739-.179 1.006-.038.268-.076.344-.089.331a1.797 1.797 0 010-.344c0-.267.076-.598.127-1.019.128-.93.306-2.242.535-3.885.115-.854.243-1.797.395-2.816.153-1.019.242-2.153.37-3.351.255-2.407.611-5.096.815-8.191.115-1.516.242-3.109.37-4.765.127-1.656.178-3.389.267-5.185.23-3.58.268-7.402.357-11.466.076-8.052-.115-16.919-.624-26.219-1.083-18.575-3.045-35.328-4.485-47.444-.726-6.013-1.274-10.905-1.732-14.345-.191-1.656-.332-2.956-.446-3.899 0-.42-.077-.751-.102-1.019a1.792 1.792 0 010-.293zM266.801 413.54a6.499 6.499 0 01-.166-1.516c0-.968-.165-2.382-.344-4.115a81.608 81.608 0 00-2.548-13.338 80.358 80.358 0 00-4.777-12.74 77.1 77.1 0 00-1.835-3.695 6.74 6.74 0 01-.637-1.389c.338.389.629.817.866 1.274a34.5 34.5 0 012.026 3.606 68.192 68.192 0 017.338 26.231c.128 1.746.166 3.16.14 4.141.042.514.02 1.032-.063 1.541zM271.032 404.151c-.115 0-.192-1.822-.714-4.701a41.255 41.255 0 00-9.963-20.269c-1.974-2.179-3.376-3.351-3.299-3.44.387.193.743.442 1.057.739a26.445 26.445 0 012.548 2.382 37.404 37.404 0 0110.09 20.512c.177 1.155.279 2.321.306 3.49a4.44 4.44 0 01-.025 1.287zM293.887 428.803c.017.127.017.255 0 .382 0 .293-.102.663-.166 1.134-.178 1.032-.407 2.548-.726 4.332-.65 3.822-1.592 9.211-2.765 15.886-2.395 13.454-5.707 31.952-9.363 52.4-3.657 20.448-7.109 38.921-9.568 52.361-1.274 6.663-2.255 12.065-2.969 15.862l-.84 4.306-.242 1.108c-.016.132-.051.26-.102.382a1.536 1.536 0 010-.395c0-.293.102-.662.178-1.121.166-1.032.408-2.484.713-4.331.663-3.822 1.606-9.211 2.765-15.887l9.377-52.412c3.72-20.384 7.109-38.921 9.555-52.362 1.274-6.65 2.267-12.065 2.981-15.848l.841-4.307c.089-.458.165-.828.229-1.121.024-.125.058-.249.102-.369z" fill="#455A64"/><path d="M412.151 241.805l-32.105 70.236s-16.638 45.507-17.899 51.164c-1.262 5.656-17.836 77.535-17.836 77.535l10.981 106.418s1.402 37.035 12.001 40.181c10.6 3.147 90.658-10.357 90.658-10.357l-13.186-88.836s-5.032-68.121-5.032-69.064c0-.942 14.447-101.716 14.447-101.716l9.555-38.895-27.136-11.007-24.448-25.659z" fill="#263238"/><path d="M349.727 423.567c.047-.167.111-.33.191-.484l.611-1.465c.599-1.274 1.44-3.122 2.548-5.479l9.466-20.078c8.103-16.944 19.263-40.284 31.608-66.07 9.491-19.683 18.295-37.952 25.48-52.82l.242.383h-11.619l.726-.446c4.001-2.548 7.644-4.74 10.778-6.727l-.089.178c-.267-6.765-.484-12.115-.637-15.81-.064-1.809-.115-3.21-.14-4.191v-1.083a1.635 1.635 0 010-.37c.008.123.008.247 0 .37 0 .263.025.62.076 1.07.064.994.141 2.382.255 4.191.191 3.695.472 9.046.828 15.798v.115l-.102.063a2228.21 2228.21 0 01-10.739 6.803l-.128-.445h11.199l-.191.382c-7.148 14.893-15.913 33.124-25.378 52.883a877394.76 877394.76 0 00-44.985 93.232zM428.638 343.865c-.5.051-1.004.051-1.503 0-.956-.076-2.345-.152-4.052-.229a104.688 104.688 0 00-26.639 2.115c-1.682.344-3.032.65-3.975.866a5.796 5.796 0 01-1.465.268 7.27 7.27 0 011.401-.51c.918-.306 2.268-.675 3.937-1.083a88.706 88.706 0 0113.301-2.115 87.477 87.477 0 0113.466 0c1.72.141 3.108.293 4.051.446.501.019.997.1 1.478.242z" fill="#455A64"/><path d="M426.866 343.521c4.433.166-.752-13.44-2.79-20.014-.37-1.274-1.045-2.676-2.332-2.803a3.375 3.375 0 00-2.191.917c-8.638 6.37-15.849 15.072-22.321 23.671 0-.038 20.41-2.115 29.634-1.771z" fill="#E0E0E0"/><path d="M360.121 445.773a25.813 25.813 0 01-12.574 1.643c0-.191 2.841-.229 6.306-.701 3.465-.471 6.217-1.121 6.268-.942zM443.033 488.503c0 .178-9.975 1.809-22.358 3.643-12.384 1.835-22.423 3.16-22.448 2.981-.026-.178 9.975-1.809 22.358-3.643 12.384-1.835 22.423-3.16 22.448-2.981zM395.207 573.02a1.689 1.689 0 01-.178-.383c-.127-.293-.28-.662-.471-1.133-.421-1.032-1.007-2.548-1.746-4.357-.739-1.81-1.681-4.23-2.65-6.957-.968-2.726-2.178-5.822-3.312-9.3-1.134-3.478-2.459-7.236-3.707-11.351a947.898 947.898 0 01-3.886-13.16c-2.548-9.313-5.096-19.633-7.3-30.576-2.204-10.944-3.822-21.442-5.096-31.022-.561-4.803-1.134-9.352-1.503-13.632-.37-4.281-.727-8.268-.969-11.912s-.395-6.956-.535-9.848c-.14-2.892-.216-5.402-.242-7.44-.025-2.039-.063-3.58-.076-4.701v-1.274a2.69 2.69 0 010-.421c.014.14.014.281 0 .421v1.274l.204 4.688c.063 2.038.165 4.535.356 7.427.191 2.892.319 6.205.637 9.836.319 3.631.586 7.644 1.045 11.886a983.41 983.41 0 001.567 13.619 509.442 509.442 0 005.096 30.971c2.153 10.931 4.727 21.212 7.236 30.576 1.274 4.65 2.548 9.071 3.822 13.161 1.274 4.089 2.472 7.911 3.631 11.376 1.16 3.466 2.255 6.574 3.211 9.313.955 2.739 1.809 5.096 2.548 6.982l1.643 4.421c.166.471.293.853.408 1.146.106.11.197.234.267.37z" fill="#455A64"/><path d="M457.9 576.982c-.189.045-.38.079-.573.102l-1.656.255-6.37.93-23.556 3.248-34.972 4.752-10.103 1.363-5.223.701a19.15 19.15 0 01-5.427.28 11.544 11.544 0 01-8.753-6.471 14.212 14.212 0 01-.891-2.727l-.688-2.739c-.459-1.847-.943-3.695-1.274-5.58a324.102 324.102 0 01-5.797-42.819c-1.045-13.25-1.771-25.187-2.624-35.188-.854-10.001-1.784-18.078-2.548-23.645-.383-2.778-.739-4.931-.943-6.37a49.358 49.358 0 00-.23-1.669 4.996 4.996 0 010-.574s0 .191.115.561l.306 1.656c.242 1.465.637 3.605 1.057 6.37.828 5.567 1.848 13.632 2.739 23.645.892 10.014 1.682 21.939 2.752 35.176a333.69 333.69 0 005.848 42.73c.357 1.885.841 3.72 1.274 5.554.373 1.82.884 3.609 1.529 5.351a10.95 10.95 0 003.365 4.087 10.952 10.952 0 004.89 2.028c1.754.154 3.521.06 5.249-.28l5.224-.701 10.102-1.338 34.984-4.599 23.582-3.057 6.37-.79 1.682-.191c.357-.051.56-.051.56-.051z" fill="#455A64"/><path d="M352.02 267.604l1.375 16.141 14.078 5.759 16.371-15.913-10.842-5.987h-8.077l-7.147-2.536-5.758 2.536z" fill="#8547C6"/><path d="M353.395 283.745s-43.316 112.686-49.368 165.709l17.632 39.049 18.817-27.697 27.455-173.685-14.536-3.376z" fill="#8547C6"/><path d="M367.434 289.988a38.643 38.643 0 00-6.675-3.669 39.402 39.402 0 00-7.441-1.656 17.163 17.163 0 0114.116 5.325zM373.715 267.642a14.382 14.382 0 01-2.382 2.701 53.894 53.894 0 01-6.676 5.554 52.967 52.967 0 01-7.491 4.421 14.945 14.945 0 01-3.338 1.338 27.9 27.9 0 013.134-1.758 77.146 77.146 0 007.313-4.536 80.288 80.288 0 006.727-5.363 28.543 28.543 0 012.713-2.357z" fill="#263238"/><path d="M366.097 288.65a2.729 2.729 0 01-.077.523c-.076.369-.165.866-.293 1.516l-1.185 5.834c-1.019 5.096-2.548 12.409-4.268 21.493-3.503 18.154-7.988 43.316-12.013 71.255a1595.72 1595.72 0 00-5.186 39.494c-.726 6.064-1.452 11.848-2.446 17.199a104.034 104.034 0 01-3.707 14.689 61.891 61.891 0 01-10.281 19.301 36.178 36.178 0 01-5.631 5.733c.107-.142.231-.27.369-.382l1.109-1.07a53.394 53.394 0 003.949-4.447 63.203 63.203 0 0010.039-19.275 104.721 104.721 0 003.606-14.613c.968-5.351 1.681-11.109 2.395-17.186a1538.409 1538.409 0 015.096-39.494c4.026-27.952 8.574-53.113 12.205-71.255a1311.056 1311.056 0 014.471-21.454c.561-2.548 1.007-4.447 1.274-5.81l.357-1.516c.047-.187.12-.367.217-.535z" fill="#263238"/><path d="M353.343 353.166a35.882 35.882 0 01-2.216-3.746c-1.274-2.331-3.173-5.542-5.3-9.033a253.02 253.02 0 00-5.657-8.829 32.15 32.15 0 01-2.318-3.681s.305.28.777.866a62.36 62.36 0 011.923 2.548c1.593 2.166 3.682 5.249 5.835 8.752 2.153 3.504 3.937 6.765 5.096 9.16.612 1.198 1.096 2.179 1.402 2.867.306.688.509 1.07.458 1.096zM345.255 402.342a8.638 8.638 0 01-.803-1.491 483.732 483.732 0 01-2-4.14c-1.695-3.504-4.026-8.332-6.701-13.619-2.676-5.287-5.198-10.039-7.02-13.466l-2.166-4.064a8.29 8.29 0 01-.713-1.542c.355.443.671.916.942 1.414.574.917 1.376 2.281 2.344 3.962 1.937 3.376 4.51 8.09 7.199 13.39a319.057 319.057 0 016.535 13.721c.79 1.784 1.402 3.236 1.809 4.242.249.509.441 1.043.574 1.593zM339.942 445.9c-.153.102-5.988-9.096-13.02-20.537-7.033-11.44-12.613-20.792-12.46-20.881.153-.089 5.988 9.097 13.02 20.537 7.033 11.441 12.677 20.766 12.46 20.881zM329.634 475.903c-.152.102-5.592-7.581-12.153-17.148-6.562-9.568-11.759-17.416-11.607-17.531.153-.114 5.593 7.581 12.154 17.161 6.561 9.581 11.759 17.416 11.606 17.518zM358.873 322.577a16.582 16.582 0 01-2.09-2.332c-1.388-1.656-3.032-3.592-4.828-5.745l-4.943-5.657a16.892 16.892 0 01-1.975-2.408 13.539 13.539 0 012.319 2.09 98.44 98.44 0 015.096 5.554c1.911 2.242 3.567 4.332 4.701 5.886.669.804 1.246 1.68 1.72 2.612zM355.573 292.141c-.179.076-.675-.713-1.516-1.452s-1.682-1.147-1.631-1.274c.051-.128 1.108 0 2.064.828.955.828 1.248 1.847 1.083 1.898zM357.357 296.281c-.14.141-.726-.242-1.274-.84-.548-.599-.981-1.198-.854-1.274.128-.077.727.254 1.274.853.548.599.981 1.134.854 1.261zM363.88 301.403a12.902 12.902 0 01-2.994-2.637 12.152 12.152 0 01-2.548-3.096 24.222 24.222 0 015.516 5.733h.026zM364.428 274.98c-.127.153-2.407-1.809-5.618-3.605-3.21-1.797-6.039-2.765-5.975-2.956 4.45.937 8.5 3.229 11.593 6.561zM376.479 280.28c-.178.102-1.503-1.873-3.503-3.988-2-2.114-3.886-3.567-3.822-3.732a16.874 16.874 0 017.287 7.72h.038z" fill="#FAFAFA"/><path d="M353.42 300.244a47.078 47.078 0 012.433-7.555 47.486 47.486 0 013.071-7.313 49.796 49.796 0 01-2.446 7.555 48.296 48.296 0 01-3.058 7.313zM355.076 310.015c.054-1.161.229-2.314.523-3.44.407-2.114 1.057-5.006 1.885-8.179.828-3.172 1.656-6.026 2.319-8.064.305-1.13.732-2.224 1.274-3.262a20.143 20.143 0 01-.765 3.389c-.611 2.293-1.274 5.096-2.14 8.103-.866 3.007-1.491 5.822-2.077 8.115a18.698 18.698 0 01-1.019 3.338z" fill="#263238"/><path opacity=".3" d="M354.707 284.943v.153c.803.216 1.274.446 1.274 1.274a5.895 5.895 0 01-.509 2.408c-.854 2.356-1.695 4.713-2.548 7.083-.217.599-.344 1.452.242 1.72.586.267 1.083-.28 1.439-.752l2.956-3.962c-.459 2.268-.93 4.548-1.401 6.816-.14.675-.23 1.516.331 1.937a1.273 1.273 0 001.541-.192c.388-.408.676-.901.841-1.439.688-1.733 1.376-3.453 2.051-5.173a14.736 14.736 0 011.759-3.49 5.096 5.096 0 013.172-2.115c-3.223-2.892-6.854-3.695-11.148-4.268z" fill="#000"/><path d="M345.916 253.246c.05.143.08.294.089.446l.153 1.274c.128 1.274.306 2.892.523 5.006.407 4.408.993 10.6 1.694 18.053l-.535-.076 3.886-10.511v-.115l.127-.063 5.759-2.548h.242l7.147 2.548h8.051l15.518 8.548-.383.077 14.104-17.9 4.051-5.096 1.096-1.274c.119-.159.256-.304.407-.433a3.577 3.577 0 01-.331.497c-.255.356-.599.815-1.019 1.376l-3.911 5.159c-3.427 4.459-8.243 10.689-13.912 18.04l-.102.204-.23-.127-15.453-8.434h.153-8.167l-7.147-2.548h.242l-5.771 2.548.166-.179c-1.415 3.746-2.739 7.288-3.95 10.498l-.433 1.159-.102-1.274c-.611-7.465-1.108-13.67-1.478-18.065-.153-2.127-.267-3.822-.356-5.032 0-.548-.064-.981-.077-1.274a2.073 2.073 0 01-.051-.484zM260.316 610.73c-.7-2.815 19.849-106.481 19.849-106.481l110.061-15.746s44.667 27.199 46.068 49.686c1.401 22.486 11.784 72.503 11.784 72.503H341.572l-3.363-4.268-2.166 4-75.727.306z" fill="#263238"/><path d="M346.834 590.104v.191a2.723 2.723 0 01-.127.535 4.47 4.47 0 01-1.134 1.797 6.27 6.27 0 01-2.93 1.643 6.546 6.546 0 01-4.408-.459 9.775 9.775 0 01-4.039-3.58 16.641 16.641 0 01-2.268-5.745c-.458-2.128-.713-4.37-1.057-6.689-.344-2.318-.663-4.714-1.007-7.172-1.274-9.797-2.548-18.664-3.388-25.2-.395-3.16-.714-5.746-.956-7.644-.089-.841-.166-1.529-.229-2.077a2.948 2.948 0 010-.739c.075.233.131.472.165.714l.344 2.064c.293 1.898.688 4.471 1.16 7.644.93 6.523 2.191 15.39 3.592 25.174.34 2.463.671 4.854.994 7.173.331 2.318.573 4.573 1.007 6.65a16.423 16.423 0 002.127 5.58 9.677 9.677 0 003.822 3.452 6.114 6.114 0 004.141.51 5.953 5.953 0 002.739-1.516 5.395 5.395 0 001.452-2.306zM337.609 527.767c.371-.185.79-.247 1.198-.178a4.258 4.258 0 012.917 1.567 4.808 4.808 0 01.536 4.841 5.55 5.55 0 01-4.88 3.376 4.875 4.875 0 01-3.096-.879 5.166 5.166 0 01-1.822-2.357 4.63 4.63 0 01-.229-2.701 4.272 4.272 0 011.121-2.064 4.783 4.783 0 012.981-1.452c.406-.057.82-.004 1.198.153 0 .064-.433 0-1.172.115a4.752 4.752 0 00-2.663 1.503 3.98 3.98 0 00-.675 4.217 4.424 4.424 0 004.319 2.803 5.01 5.01 0 004.357-2.956 4.334 4.334 0 00-.357-4.306 4.049 4.049 0 00-2.548-1.605c-.726-.128-1.185-.013-1.185-.077z" fill="#455A64"/><path d="M408.954 236.008H350.86l-6.459 17.098-36.844 50.514-28.946 208.528 36.844 6.816a68.794 68.794 0 0019.403.815l55.368-5.465 1.657-186.004 26.97-74.784-9.899-17.518z" fill="#F5F5F5"/><path d="M364.81 272.636s0 .217-.153.624c-.153.408-.293 1.045-.522 1.835-.484 1.631-1.172 3.987-2.064 7.007-.892 3.019-2.026 6.765-3.249 11.109-1.223 4.344-2.675 9.262-4.128 14.753-1.452 5.491-3.121 11.466-4.739 17.951a3445.358 3445.358 0 00-5.096 20.677 1276.758 1276.758 0 00-10.192 47.749c-3.287 17.008-5.86 33.315-8.039 48.17-1.032 7.428-2.051 14.486-2.828 21.123-.777 6.638-1.554 12.74-2.166 18.435-.611 5.695-1.108 10.752-1.554 15.288a947.8 947.8 0 00-1.058 11.466c-.267 3.108-.484 5.593-.637 7.287-.076.803-.14 1.44-.178 1.886-.038.446-.089.649-.089.649a6.386 6.386 0 010-.649c0-.459.076-1.083.115-1.899.127-1.694.305-4.153.522-7.287.216-3.134.509-7.045.943-11.542.433-4.497.828-9.606 1.452-15.288s1.274-11.836 2.089-18.461c.816-6.624 1.758-13.695 2.778-21.135a1131.288 1131.288 0 017.988-48.196c3.21-17.033 6.765-33.124 10.192-47.775 1.783-7.287 3.439-14.23 5.096-20.677a869.643 869.643 0 014.828-17.938c1.529-5.465 2.968-10.395 4.217-14.727a463.364 463.364 0 013.351-11.084l2.191-6.969.586-1.809.344-.573zM295.364 495.675a50.42 50.42 0 001.21 10.715 49.446 49.446 0 004.166 9.962 10.87 10.87 0 01-1.872-2.611 29.124 29.124 0 01-3.822-14.881 10.917 10.917 0 01.318-3.185zM298.627 517.142a5.969 5.969 0 01-2.128-1.019 19.673 19.673 0 01-7.376-8.459 6.18 6.18 0 01-.727-2.243 28.594 28.594 0 0010.192 11.721h.039zM343.459 497.51c.238 1.069.315 2.169.229 3.261a35.467 35.467 0 01-1.032 7.81 34.454 34.454 0 01-2.726 7.402 11.493 11.493 0 01-1.707 2.777 27.557 27.557 0 011.274-2.981 44.6 44.6 0 003.707-15.033c.016-1.083.101-2.164.255-3.236zM345.917 249.08s-35.481 15.007-40.59 15.988c-5.108.981-22.932 5.453-22.932 5.453s-13.733 24.588-12.459 38.653c1.274 14.065 10.867 114.979 10.867 114.979s-15.657 87.192-15.976 93.588c-.318 6.395-13.848 67.394-11.237 67.025 2.612-.369 14.371-13.415 14.371-13.415l38.972-214.325s10.192-49.189 17.836-65.153c7.644-15.963 21.097-36.729 21.097-36.729l.051-6.064z" fill="#263238"/><path d="M293.886 428.803a3.34 3.34 0 010-.51c0-.356 0-.853-.077-1.478a808.703 808.703 0 01-.254-5.669c-.192-4.968-.446-12.103-.765-20.893-.318-8.791-.624-19.34-.892-31.01-.127-5.834-.254-11.95-.267-18.307a86.215 86.215 0 013.223-19.428c2.79-10.791 6.294-20.907 9.67-30.258 3.376-9.351 6.79-17.912 9.937-25.48 3.584-2.998 6.867-5.746 9.848-8.243l.229.383-7.249 2.841-.662.254.446-.547 8.191-10.345c.943-1.172 1.669-2.09 2.192-2.727l.573-.7c.127-.153.204-.23.204-.217a1.378 1.378 0 01-.166.255l-.535.726-2.115 2.777-8.051 10.46-.217-.293 7.224-2.892 1.274-.523-1.058.892-9.797 8.307.077-.102a588.206 588.206 0 00-9.848 25.48c-3.377 9.389-6.829 19.467-9.606 30.219a85.648 85.648 0 00-3.224 19.263c0 6.37.128 12.472.23 18.295.28 11.669.535 22.167.751 31.009.217 8.841.421 15.925.548 20.893 0 2.434.102 4.345.128 5.682v1.478c.021.135.034.271.038.408z" fill="#455A64"/><path d="M282.331 270.521s-11.695 8.918-13.695 18.983c-2.001 10.064-4.994 52.667-4.994 52.667s-5.02 5.631-5.02 6.65c0 1.019-2.408 27.735-2.408 27.735l-37.532-47.138-34.092 32.194s44.22 77.319 61.725 84.186c26.652 10.46 34.615-4.714 34.615-4.714l4-62.26-2.599-108.303z" fill="#263238"/><path d="M273.668 312.958c.041.111.067.226.076.344 0 .268.102.599.166 1.007l.573 3.898c.484 3.376 1.159 8.268 1.949 14.32 1.555 12.103 3.593 28.856 4.676 47.456.51 9.313.675 18.193.573 26.27-.102 4.039-.165 7.873-.407 11.466-.115 1.796-.179 3.529-.319 5.198-.14 1.669-.28 3.249-.42 4.765-.23 3.057-.625 5.784-.905 8.192-.153 1.21-.293 2.318-.433 3.363s-.319 1.949-.446 2.803c-.28 1.643-.497 2.943-.662 3.822-.077.407-.141.739-.179 1.006-.038.268-.076.344-.089.331a1.797 1.797 0 010-.344c0-.267.076-.598.127-1.019.128-.93.306-2.242.535-3.885.115-.854.243-1.797.395-2.816.153-1.019.242-2.153.37-3.351.255-2.407.611-5.096.815-8.191.115-1.516.242-3.109.37-4.765.127-1.656.178-3.389.267-5.185.23-3.58.268-7.402.357-11.466.076-8.052-.115-16.919-.624-26.219-1.083-18.575-3.045-35.328-4.485-47.444-.726-6.013-1.274-10.905-1.732-14.345-.191-1.656-.332-2.956-.446-3.899 0-.42-.077-.751-.102-1.019a1.792 1.792 0 010-.293zM266.801 413.54a6.499 6.499 0 01-.166-1.516c0-.968-.165-2.382-.344-4.115a81.608 81.608 0 00-2.548-13.338 80.358 80.358 0 00-4.777-12.74 77.1 77.1 0 00-1.835-3.695 6.74 6.74 0 01-.637-1.389c.338.389.629.817.866 1.274a34.5 34.5 0 012.026 3.606 68.192 68.192 0 017.338 26.231c.128 1.746.166 3.16.14 4.141.042.514.02 1.032-.063 1.541zM271.032 404.151c-.115 0-.192-1.822-.714-4.701a41.255 41.255 0 00-9.963-20.269c-1.974-2.179-3.376-3.351-3.299-3.44.387.193.743.442 1.057.739a26.445 26.445 0 012.548 2.382 37.404 37.404 0 0110.09 20.512c.177 1.155.279 2.321.306 3.49a4.44 4.44 0 01-.025 1.287zM293.887 428.803c.017.127.017.255 0 .382 0 .293-.102.663-.166 1.134-.178 1.032-.407 2.548-.726 4.332-.65 3.822-1.592 9.211-2.765 15.886-2.395 13.454-5.707 31.952-9.363 52.4-3.657 20.448-7.109 38.921-9.568 52.361-1.274 6.663-2.255 12.065-2.969 15.862l-.84 4.306-.242 1.108c-.016.132-.051.26-.102.382a1.536 1.536 0 010-.395c0-.293.102-.662.178-1.121.166-1.032.408-2.484.713-4.331.663-3.822 1.606-9.211 2.765-15.887l9.377-52.412c3.72-20.384 7.109-38.921 9.555-52.362 1.274-6.65 2.267-12.065 2.981-15.848l.841-4.307c.089-.458.165-.828.229-1.121.024-.125.058-.249.102-.369z" fill="#455A64"/><path d="M412.151 241.805l-32.105 70.236s-16.638 45.507-17.899 51.164c-1.262 5.656-17.836 77.535-17.836 77.535l10.981 106.418s1.402 37.035 12.001 40.181c10.6 3.147 90.658-10.357 90.658-10.357l-13.186-88.836s-5.032-68.121-5.032-69.064c0-.942 14.447-101.716 14.447-101.716l9.555-38.895-27.136-11.007-24.448-25.659z" fill="#263238"/><path d="M349.727 423.567c.047-.167.111-.33.191-.484l.611-1.465c.599-1.274 1.44-3.122 2.548-5.479l9.466-20.078c8.103-16.944 19.263-40.284 31.608-66.07 9.491-19.683 18.295-37.952 25.48-52.82l.242.383h-11.619l.726-.446c4.001-2.548 7.644-4.74 10.778-6.727l-.089.178c-.267-6.765-.484-12.115-.637-15.81-.064-1.809-.115-3.21-.14-4.191v-1.083a1.635 1.635 0 010-.37c.008.123.008.247 0 .37 0 .263.025.62.076 1.07.064.994.141 2.382.255 4.191.191 3.695.472 9.046.828 15.798v.115l-.102.063a2228.21 2228.21 0 01-10.739 6.803l-.128-.445h11.199l-.191.382c-7.148 14.893-15.913 33.124-25.378 52.883a877394.76 877394.76 0 00-44.985 93.232zM428.638 343.865c-.5.051-1.004.051-1.503 0-.956-.076-2.345-.152-4.052-.229a104.688 104.688 0 00-26.639 2.115c-1.682.344-3.032.65-3.975.866a5.796 5.796 0 01-1.465.268 7.27 7.27 0 011.401-.51c.918-.306 2.268-.675 3.937-1.083a88.706 88.706 0 0113.301-2.115 87.477 87.477 0 0113.466 0c1.72.141 3.108.293 4.051.446.501.019.997.1 1.478.242z" fill="#455A64"/><path d="M426.866 343.521c4.433.166-.752-13.44-2.79-20.014-.37-1.274-1.045-2.676-2.332-2.803a3.375 3.375 0 00-2.191.917c-8.638 6.37-15.849 15.072-22.321 23.671 0-.038 20.41-2.115 29.634-1.771z" fill="#E0E0E0"/><path d="M360.121 445.773a25.813 25.813 0 01-12.574 1.643c0-.191 2.841-.229 6.306-.701 3.465-.471 6.217-1.121 6.268-.942zM443.033 488.503c0 .178-9.975 1.809-22.358 3.643-12.384 1.835-22.423 3.16-22.448 2.981-.026-.178 9.975-1.809 22.358-3.643 12.384-1.835 22.423-3.16 22.448-2.981zM395.207 573.02a1.689 1.689 0 01-.178-.383c-.127-.293-.28-.662-.471-1.133-.421-1.032-1.007-2.548-1.746-4.357-.739-1.81-1.681-4.23-2.65-6.957-.968-2.726-2.178-5.822-3.312-9.3-1.134-3.478-2.459-7.236-3.707-11.351a947.898 947.898 0 01-3.886-13.16c-2.548-9.313-5.096-19.633-7.3-30.576-2.204-10.944-3.822-21.442-5.096-31.022-.561-4.803-1.134-9.352-1.503-13.632-.37-4.281-.727-8.268-.969-11.912s-.395-6.956-.535-9.848c-.14-2.892-.216-5.402-.242-7.44-.025-2.039-.063-3.58-.076-4.701v-1.274a2.69 2.69 0 010-.421c.014.14.014.281 0 .421v1.274l.204 4.688c.063 2.038.165 4.535.356 7.427.191 2.892.319 6.205.637 9.836.319 3.631.586 7.644 1.045 11.886a983.41 983.41 0 001.567 13.619 509.442 509.442 0 005.096 30.971c2.153 10.931 4.727 21.212 7.236 30.576 1.274 4.65 2.548 9.071 3.822 13.161 1.274 4.089 2.472 7.911 3.631 11.376 1.16 3.466 2.255 6.574 3.211 9.313.955 2.739 1.809 5.096 2.548 6.982l1.643 4.421c.166.471.293.853.408 1.146.106.11.197.234.267.37z" fill="#455A64"/><path d="M457.9 576.982c-.189.045-.38.079-.573.102l-1.656.255-6.37.93-23.556 3.248-34.972 4.752-10.103 1.363-5.223.701a19.15 19.15 0 01-5.427.28 11.544 11.544 0 01-8.753-6.471 14.212 14.212 0 01-.891-2.727l-.688-2.739c-.459-1.847-.943-3.695-1.274-5.58a324.102 324.102 0 01-5.797-42.819c-1.045-13.25-1.771-25.187-2.624-35.188-.854-10.001-1.784-18.078-2.548-23.645-.383-2.778-.739-4.931-.943-6.37a49.358 49.358 0 00-.23-1.669 4.996 4.996 0 010-.574s0 .191.115.561l.306 1.656c.242 1.465.637 3.605 1.057 6.37.828 5.567 1.848 13.632 2.739 23.645.892 10.014 1.682 21.939 2.752 35.176a333.69 333.69 0 005.848 42.73c.357 1.885.841 3.72 1.274 5.554.373 1.82.884 3.609 1.529 5.351a10.95 10.95 0 003.365 4.087 10.952 10.952 0 004.89 2.028c1.754.154 3.521.06 5.249-.28l5.224-.701 10.102-1.338 34.984-4.599 23.582-3.057 6.37-.79 1.682-.191c.357-.051.56-.051.56-.051z" fill="#455A64"/><path d="M352.02 267.604l1.375 16.141 14.078 5.759 16.371-15.913-10.842-5.987h-8.077l-7.147-2.536-5.758 2.536z" fill="#8547C6"/><path d="M353.395 283.745s-43.316 112.686-49.368 165.709l17.632 39.049 18.817-27.697 27.455-173.685-14.536-3.376z" fill="#8547C6"/><path d="M367.434 289.988a38.643 38.643 0 00-6.675-3.669 39.402 39.402 0 00-7.441-1.656 17.163 17.163 0 0114.116 5.325zM373.715 267.642a14.382 14.382 0 01-2.382 2.701 53.894 53.894 0 01-6.676 5.554 52.967 52.967 0 01-7.491 4.421 14.945 14.945 0 01-3.338 1.338 27.9 27.9 0 013.134-1.758 77.146 77.146 0 007.313-4.536 80.288 80.288 0 006.727-5.363 28.543 28.543 0 012.713-2.357z" fill="#263238"/><path d="M366.097 288.65a2.729 2.729 0 01-.077.523c-.076.369-.165.866-.293 1.516l-1.185 5.834c-1.019 5.096-2.548 12.409-4.268 21.493-3.503 18.154-7.988 43.316-12.013 71.255a1595.72 1595.72 0 00-5.186 39.494c-.726 6.064-1.452 11.848-2.446 17.199a104.034 104.034 0 01-3.707 14.689 61.891 61.891 0 01-10.281 19.301 36.178 36.178 0 01-5.631 5.733c.107-.142.231-.27.369-.382l1.109-1.07a53.394 53.394 0 003.949-4.447 63.203 63.203 0 0010.039-19.275 104.721 104.721 0 003.606-14.613c.968-5.351 1.681-11.109 2.395-17.186a1538.409 1538.409 0 015.096-39.494c4.026-27.952 8.574-53.113 12.205-71.255a1311.056 1311.056 0 014.471-21.454c.561-2.548 1.007-4.447 1.274-5.81l.357-1.516c.047-.187.12-.367.217-.535z" fill="#263238"/><path d="M353.343 353.166a35.882 35.882 0 01-2.216-3.746c-1.274-2.331-3.173-5.542-5.3-9.033a253.02 253.02 0 00-5.657-8.829 32.15 32.15 0 01-2.318-3.681s.305.28.777.866a62.36 62.36 0 011.923 2.548c1.593 2.166 3.682 5.249 5.835 8.752 2.153 3.504 3.937 6.765 5.096 9.16.612 1.198 1.096 2.179 1.402 2.867.306.688.509 1.07.458 1.096zM345.255 402.342a8.638 8.638 0 01-.803-1.491 483.732 483.732 0 01-2-4.14c-1.695-3.504-4.026-8.332-6.701-13.619-2.676-5.287-5.198-10.039-7.02-13.466l-2.166-4.064a8.29 8.29 0 01-.713-1.542c.355.443.671.916.942 1.414.574.917 1.376 2.281 2.344 3.962 1.937 3.376 4.51 8.09 7.199 13.39a319.057 319.057 0 016.535 13.721c.79 1.784 1.402 3.236 1.809 4.242.249.509.441 1.043.574 1.593zM339.942 445.9c-.153.102-5.988-9.096-13.02-20.537-7.033-11.44-12.613-20.792-12.46-20.881.153-.089 5.988 9.097 13.02 20.537 7.033 11.441 12.677 20.766 12.46 20.881zM329.634 475.903c-.152.102-5.592-7.581-12.153-17.148-6.562-9.568-11.759-17.416-11.607-17.531.153-.114 5.593 7.581 12.154 17.161 6.561 9.581 11.759 17.416 11.606 17.518zM358.873 322.577a16.582 16.582 0 01-2.09-2.332c-1.388-1.656-3.032-3.592-4.828-5.745l-4.943-5.657a16.892 16.892 0 01-1.975-2.408 13.539 13.539 0 012.319 2.09 98.44 98.44 0 015.096 5.554c1.911 2.242 3.567 4.332 4.701 5.886.669.804 1.246 1.68 1.72 2.612zM355.573 292.141c-.179.076-.675-.713-1.516-1.452s-1.682-1.147-1.631-1.274c.051-.128 1.108 0 2.064.828.955.828 1.248 1.847 1.083 1.898zM357.357 296.281c-.14.141-.726-.242-1.274-.84-.548-.599-.981-1.198-.854-1.274.128-.077.727.254 1.274.853.548.599.981 1.134.854 1.261zM363.88 301.403a12.902 12.902 0 01-2.994-2.637 12.152 12.152 0 01-2.548-3.096 24.222 24.222 0 015.516 5.733h.026zM364.428 274.98c-.127.153-2.407-1.809-5.618-3.605-3.21-1.797-6.039-2.765-5.975-2.956 4.45.937 8.5 3.229 11.593 6.561zM376.479 280.28c-.178.102-1.503-1.873-3.503-3.988-2-2.114-3.886-3.567-3.822-3.732a16.874 16.874 0 017.287 7.72h.038z" fill="#FAFAFA"/><path d="M353.42 300.244a47.078 47.078 0 012.433-7.555 47.486 47.486 0 013.071-7.313 49.796 49.796 0 01-2.446 7.555 48.296 48.296 0 01-3.058 7.313zM355.076 310.015c.054-1.161.229-2.314.523-3.44.407-2.114 1.057-5.006 1.885-8.179.828-3.172 1.656-6.026 2.319-8.064.305-1.13.732-2.224 1.274-3.262a20.143 20.143 0 01-.765 3.389c-.611 2.293-1.274 5.096-2.14 8.103-.866 3.007-1.491 5.822-2.077 8.115a18.698 18.698 0 01-1.019 3.338z" fill="#263238"/><path opacity=".3" d="M354.707 284.943v.153c.803.216 1.274.446 1.274 1.274a5.895 5.895 0 01-.509 2.408c-.854 2.356-1.695 4.713-2.548 7.083-.217.599-.344 1.452.242 1.72.586.267 1.083-.28 1.439-.752l2.956-3.962c-.459 2.268-.93 4.548-1.401 6.816-.14.675-.23 1.516.331 1.937a1.273 1.273 0 001.541-.192c.388-.408.676-.901.841-1.439.688-1.733 1.376-3.453 2.051-5.173a14.736 14.736 0 011.759-3.49 5.096 5.096 0 013.172-2.115c-3.223-2.892-6.854-3.695-11.148-4.268z" fill="#000"/><path d="M345.916 253.246c.05.143.08.294.089.446l.153 1.274c.128 1.274.306 2.892.523 5.006.407 4.408.993 10.6 1.694 18.053l-.535-.076 3.886-10.511v-.115l.127-.063 5.759-2.548h.242l7.147 2.548h8.051l15.518 8.548-.383.077 14.104-17.9 4.051-5.096 1.096-1.274c.119-.159.256-.304.407-.433a3.577 3.577 0 01-.331.497c-.255.356-.599.815-1.019 1.376l-3.911 5.159c-3.427 4.459-8.243 10.689-13.912 18.04l-.102.204-.23-.127-15.453-8.434h.153-8.167l-7.147-2.548h.242l-5.771 2.548.166-.179c-1.415 3.746-2.739 7.288-3.95 10.498l-.433 1.159-.102-1.274c-.611-7.465-1.108-13.67-1.478-18.065-.153-2.127-.267-3.822-.356-5.032 0-.548-.064-.981-.077-1.274a2.073 2.073 0 01-.051-.484z" fill="#263238"/><path d="M325.379 156.371a10.992 10.992 0 01-4.543-2.7 10.978 10.978 0 01-3.077-9.787 10.968 10.968 0 012.181-4.814c1.274-1.542 2.879-2.79 3.669-4.599 1.681-3.822-1.351-8.358-.599-12.536.701-3.822 4.421-6.37 8.102-7.823 3.682-1.452 7.645-2.14 10.855-4.459 2.917-2.127 4.816-5.389 7.568-7.72a15.802 15.802 0 0114.23-3.07c4.981 1.414 9.173 5.299 14.32 5.873 3.822.433 7.465-.969 11.237-1.211a18.82 18.82 0 0118.867 14.014c.854 3.657 1.682 6.842 4.052 9.772 3.07 3.822 8.37 5.096 10.791 9.338 1.426 2.548.968 5.708.127 8.498-.841 2.79-2.064 5.554-2.026 8.459a10.345 10.345 0 008.052 9.695 10.392 10.392 0 01-5.351 6.37 11.986 11.986 0 006.37 1.478 20.876 20.876 0 01-11.176 12.204 20.882 20.882 0 01-16.546.23" fill="#E0E0E0"/><path d="M408.1 174.869c.408-.191 16.639-5.236 16.397 11.466-.242 16.702-16.906 12.982-16.932 12.498-.025-.484.535-23.964.535-23.964z" fill="#E5AB91"/><path d="M412.776 192.552s.281.204.765.434a2.924 2.924 0 002.166.076c1.77-.624 3.299-3.389 3.414-6.37a9.378 9.378 0 00-.752-4.166 3.323 3.323 0 00-2.14-2.255 1.502 1.502 0 00-1.733.764c-.229.472-.127.803-.216.829-.09.025-.344-.281-.204-.969.095-.413.334-.779.675-1.032a2.176 2.176 0 011.605-.407 4.1 4.1 0 012.994 2.624 10.057 10.057 0 01.943 4.663c-.166 3.351-1.924 6.472-4.344 7.134a3.163 3.163 0 01-2.65-.484c-.523-.446-.612-.815-.523-.841z" fill="#BC8579"/><path d="M323.749 208.86c-.344-11.759.905-36.016 2.281-57.955a45.377 45.377 0 0144.488-42.526h2.357c25.352 1.045 38.64 23.149 36.946 48.412l-2.204 83.6-43.406 26.92-15.288-11.963v-18.804s-24.448-3.402-25.174-27.684z" fill="#E5AB91"/><path d="M348.859 236.544s15.416.981 31.583-9.581c0 0-7.02 17.925-31.353 16.154l-.23-6.573z" fill="#BC8579"/><path d="M334.629 167.658a3.476 3.476 0 003.414 3.453 3.332 3.332 0 003.221-1.916c.187-.402.292-.838.308-1.282a3.476 3.476 0 00-3.414-3.452 3.34 3.34 0 00-3.217 1.918 3.332 3.332 0 00-.312 1.279zM372.619 167.225a3.481 3.481 0 003.414 3.44 3.314 3.314 0 002.439-.855 3.323 3.323 0 001.09-2.343 3.474 3.474 0 00-1.005-2.42 3.473 3.473 0 00-2.409-1.032 3.337 3.337 0 00-3.529 3.21zM331.239 163.773c.434.446 3.033-1.555 6.778-1.606 3.746-.05 6.51 1.771 6.918 1.274.191-.203-.268-1.019-1.478-1.86a9.46 9.46 0 00-5.542-1.605 9.14 9.14 0 00-5.402 1.822c-1.095.943-1.465 1.771-1.274 1.975zM368.875 162.257c.459.42 2.93-1.746 6.663-2.039 3.733-.293 6.612 1.363 6.981.867.179-.217-.318-.994-1.579-1.771a9.655 9.655 0 00-5.644-1.274 9.203 9.203 0 00-5.262 2.178c-1.07 1.007-1.388 1.848-1.159 2.039zM355.166 190.743c0-.204-2.319-.573-6.09-.981-.956-.089-1.873-.267-2.038-.904a4.835 4.835 0 01.586-2.854l2.701-7.313c3.732-10.434 6.37-18.995 6.013-19.11-.357-.114-3.822 8.192-7.542 18.613a481.993 481.993 0 00-2.548 7.364 5.54 5.54 0 00-.433 3.758 2.396 2.396 0 001.592 1.376 6.59 6.59 0 001.631.191c3.771.102 6.115.077 6.128-.14zM366.225 193.138c-.612 0-.548 4.039-3.975 6.982-3.427 2.943-7.759 2.548-7.771 3.147 0 .255.968.764 2.802.79a10.192 10.192 0 006.498-2.396 8.84 8.84 0 003.134-5.847c.063-1.707-.408-2.701-.688-2.676z" fill="#263238"/><path d="M367.206 146.408c.471.968 4.14.115 8.561.204 4.421.089 8.077.917 8.561 0 .217-.459-.497-1.351-2.026-2.191a14.81 14.81 0 00-13.033-.115c-1.541.752-2.267 1.631-2.063 2.102zM331.788 153.721c.675.841 3.236-.089 6.37-.179 3.134-.089 5.733.472 6.37-.433.267-.433-.166-1.274-1.274-2.064a8.813 8.813 0 00-5.173-1.274 8.703 8.703 0 00-5.019 1.797c-1.223.866-1.567 1.745-1.274 2.153z" fill="#E0E0E0"/><path d="M352.631 106.43c8.485-3.695 17.262-2.217 26.448-1.274a41.838 41.838 0 0119.747 7.045c9.491 6.498 14.46 17.212 15.364 28.678a107.576 107.576 0 01-2.407 32.92l-.918-.178c.663 2.79 1.274 5.733.433 8.459-.84 2.726-3.924 4.956-6.573 3.911-3.109-1.274-3.364-5.452-3.211-8.79a239.292 239.292 0 00-1.083-33.787c-.777-8.383-5.937-18.498-12.638-22.257-15.059-8.344-26.181 0-31.251 2.052-8.332-6.638-17.225-2.357-21.964 3.822 1.491-9.046 9.568-16.906 18.053-20.601z" fill="#E0E0E0"/><path d="M419.349 133.209c0 .523-.955 1.16-2.955 1.466a19.519 19.519 0 01-8.345-.943 44.23 44.23 0 01-10.816-5.376c-3.695-2.396-7.389-5.186-11.313-7.415a25.128 25.128 0 00-11.263-3.669 23.75 23.75 0 00-9.631 1.643c-5.414 2.102-8.179 5.096-9.147 4.395-.23-.152-.293-.509-.191-1.057a6.516 6.516 0 01.828-2.166 17.969 17.969 0 015.873-6.089 23.9 23.9 0 0112.167-4.001 24.894 24.894 0 017.771.892 32.958 32.958 0 017.517 3.172 94.463 94.463 0 0111.669 8.37 73.105 73.105 0 008.778 6.167 43.235 43.235 0 006.434 3.019c1.58.611 2.599 1.019 2.624 1.592zM419.949 146.778a8.238 8.238 0 01-3.16.675 20.382 20.382 0 01-7.771-.93 20.148 20.148 0 01-6.829-3.822 8.484 8.484 0 01-2.166-2.395c.886.605 1.737 1.26 2.548 1.962a23.06 23.06 0 0014.218 4.611c1.924-.012 3.134-.229 3.16-.101zM427.274 163.454a4.041 4.041 0 01-1.274-.293 32.34 32.34 0 01-3.338-1.21 52.86 52.86 0 01-10.192-5.644 52.118 52.118 0 01-8.715-7.784 32.318 32.318 0 01-2.242-2.739 4.126 4.126 0 01-.701-1.096c.102-.076 1.275 1.338 3.351 3.453a64.266 64.266 0 008.765 7.516 65.204 65.204 0 0010.001 5.784 47.884 47.884 0 014.345 2.013z" fill="#fff"/><path d="M369.244 103.079c0 .115-1.401.612-3.605 1.644a22.15 22.15 0 00-7.644 5.491 13.525 13.525 0 00-3.224 8.587c.084 1.292.298 2.572.637 3.822 0 0-.267-.294-.547-.943a8.912 8.912 0 01-.65-2.892 13.225 13.225 0 013.172-9.109 20.474 20.474 0 017.975-5.491 12.754 12.754 0 013.886-1.109z" fill="#fff"/><path d="M360.236 97.78c.077.127-1.274.904-2.981 2.688a17.32 17.32 0 00-4.485 8.308 17.318 17.318 0 00.536 9.426c.79 2.331 1.682 3.618 1.554 3.694-.127.077-.306-.267-.701-.853a14.48 14.48 0 01-1.375-2.65 16.68 16.68 0 014.089-18.32 13.46 13.46 0 012.395-1.822c.292-.215.62-.374.968-.472zM410.916 177.264c0 .204-2.751 0-5.516-1.821-2.765-1.822-4.077-4.243-3.822-4.319.255-.077 1.694 1.974 4.319 3.656 2.624 1.682 5.07 2.306 5.019 2.484zM411.909 180.449c0 .191-2.994.395-6.192-1.274-3.197-1.669-4.764-4.293-4.586-4.369.178-.077 1.924 2.102 4.956 3.669 3.032 1.567 5.847 1.732 5.822 1.974zM332.68 130.802a4.53 4.53 0 01-2.204-.765 11.085 11.085 0 01-3.975-4 10.93 10.93 0 01-1.49-5.44 4.349 4.349 0 01.42-2.281c.107.751.154 1.51.14 2.268a12.615 12.615 0 001.618 5.096 12.5 12.5 0 003.593 3.911c1.134.752 1.949 1.083 1.898 1.211zM335.164 125.96c-.153.141-2.14-1.86-3.822-4.854-1.681-2.993-2.433-5.707-2.229-5.758.204-.051 1.274 2.459 2.917 5.376 1.644 2.918 3.312 5.084 3.134 5.236z" fill="#fff"/><path d="M391.361 163.072a5.562 5.562 0 01-2.625 1.643 5.403 5.403 0 01-3.045.561c.878-.518 1.82-.916 2.803-1.185a11.597 11.597 0 012.867-1.019zM393.985 166.677a19.9 19.9 0 01-7.223-.458 10.188 10.188 0 013.631-.102 10.347 10.347 0 013.592.56zM330.641 169.225c0 .192-.892.344-2 .357-1.109.013-2-.127-2-.318s.891-.344 2-.344c1.108 0 2 .127 2 .305zM329.712 167.34c-.102.166-.866-.127-1.707-.637-.841-.51-1.465-1.058-1.363-1.21.102-.153.853.127 1.707.637.854.509 1.452 1.057 1.363 1.21zM368.185 134.19c0 .102-1.172.37-2.994 1.083-1.821.714-4.229 1.95-7.019 3.147a19.123 19.123 0 01-7.555 1.784 9.306 9.306 0 01-2.344-.293c-.548-.14-.828-.268-.816-.306.013-.038 1.211.229 3.147.127a21.526 21.526 0 007.313-1.923c2.739-1.185 5.211-2.383 7.122-2.969a8.94 8.94 0 013.146-.65zM363.217 133.63a17.966 17.966 0 01-7.402 2.548c-2.59.501-5.259.41-7.809-.268a73.367 73.367 0 007.644-.382 75.749 75.749 0 007.567-1.898zM370.912 194.081c-.165.077-.739-1.35-2.318-1.975a7.166 7.166 0 00-3.045-.165c0-.077.242-.344.841-.548a3.632 3.632 0 014.28 1.707c.306.548.319.956.242.981zM374.072 193.317c-.178 0-.547-1.529-2.14-2.548a7.65 7.65 0 00-3.172-.918c0-.076.344-.293 1.019-.343a4.33 4.33 0 012.548.7c.75.48 1.33 1.185 1.656 2.013.217.663.166 1.096.089 1.096z" fill="#BC8579"/><path d="M336.017 179.239a16.918 16.918 0 011.708-.229 12.385 12.385 0 004.484-1.593 13.845 13.845 0 002.663-2.051 13.484 13.484 0 002.28-3.185 12.218 12.218 0 001.274-4.23c.153-1.528 0-3.223.077-4.955l.305.305H320.22l.306-.318a39.142 39.142 0 00.165 5.542 12.579 12.579 0 008.052 9.746c1.712.625 3.529.911 5.351.841h1.465c.344 0 .509 0 .509.063H334.094a14.012 14.012 0 01-5.491-.688 12.882 12.882 0 01-8.485-10.026 39.078 39.078 0 01-.217-5.631v-.319H349.076v.306c0 1.733 0 3.389-.128 5.02a12.421 12.421 0 01-1.375 4.395 12.739 12.739 0 01-5.211 5.325 11.661 11.661 0 01-4.637 1.465 8.484 8.484 0 01-1.274.064c-.137.07-.283.122-.434.153zM376.365 179.239a16.937 16.937 0 011.707-.229 12.383 12.383 0 004.485-1.593 13.838 13.838 0 002.662-2.051 13.488 13.488 0 002.281-3.185 12.218 12.218 0 001.274-4.23c.153-1.528.064-3.223.076-4.955l.306.305h-28.614l.306-.318a39.291 39.291 0 00.165 5.542 12.579 12.579 0 008.052 9.746c1.712.625 3.53.911 5.351.841h1.465c.344 0 .51 0 .51.063h-1.975a13.872 13.872 0 01-5.478-.688 12.876 12.876 0 01-8.498-10.026 38.935 38.935 0 01-.216-5.631v-.319h29.212v.306c0 1.733 0 3.389-.127 5.02a12.443 12.443 0 01-1.376 4.395 12.733 12.733 0 01-5.211 5.325 11.651 11.651 0 01-4.637 1.465 8.471 8.471 0 01-1.274.064 1.719 1.719 0 01-.446.153z" fill="#455A64"/><path d="M360.301 166.818c-.089 0-.509-.586-1.427-1.274a6.803 6.803 0 00-8.421-.192c-.955.688-1.401 1.274-1.49 1.274-.089 0 .255-.777 1.197-1.605a6.729 6.729 0 014.549-1.669 6.807 6.807 0 014.471 1.86c.905.816 1.185 1.567 1.121 1.606zM413.795 172.945a24.198 24.198 0 01-3.656-.713 248.688 248.688 0 00-8.752-1.796 276.983 276.983 0 00-8.817-1.478 21.695 21.695 0 01-3.656-.65 19.372 19.372 0 013.72.191c2.281.217 5.427.637 8.918 1.274 3.491.637 6.536 1.376 8.74 2a19.8 19.8 0 013.503 1.172z" fill="#455A64"/><path d="M335.063 177.672a7.914 7.914 0 01-3.122-.255 14.464 14.464 0 01-6.714-3.491 12.547 12.547 0 01-3.822-6.548 6.52 6.52 0 01-.114-3.134c.114 0 .063 1.198.56 3.019a13.465 13.465 0 003.822 6.179 15.914 15.914 0 006.37 3.529c1.746.523 3.02.586 3.02.701zM375.933 176.908a9.907 9.907 0 01-3.007-.332 16.646 16.646 0 01-6.765-2.815 9.776 9.776 0 01-3.822-6.205 6.424 6.424 0 01.077-2.242c.114-.522.242-.79.28-.777-.062.982-.024 1.969.115 2.943a9.883 9.883 0 003.822 5.759 18.622 18.622 0 006.459 2.879c.963.203 1.912.467 2.841.79z" fill="#fff"/><path d="M379.512 255.042s-.294 0-.701-.267a3.342 3.342 0 01-1.198-1.682 13.89 13.89 0 01-.586-2.918 3.812 3.812 0 00-1.503-2.853 30.066 30.066 0 01-3.287-1.504 4.884 4.884 0 01-1.733-2.548 3.432 3.432 0 01.141-2.752 7.646 7.646 0 00.305 2.548 4.751 4.751 0 001.644 2.179c.815.637 2.076.713 3.287 1.44a3.388 3.388 0 011.274 1.554c.227.568.377 1.163.446 1.771.062.966.207 1.925.433 2.866a3.815 3.815 0 001.478 2.166zM385.157 253.246a4.075 4.075 0 01-2.382-1.555 6.454 6.454 0 01-1.415-2.815 6.159 6.159 0 01-.114-1.886c.064-.649.216-1.274.229-1.898a3.559 3.559 0 00-1.58-2.905c-.42-.395-.84-.751-1.197-1.159a3.693 3.693 0 01-.714-1.338 2.357 2.357 0 01.23-2.127c.356-.408.688-.421.688-.395 0 .025-.242.165-.472.535a2.278 2.278 0 000 1.847c.157.41.391.786.688 1.109.331.344.752.688 1.185 1.07.489.389.919.848 1.274 1.363a3.19 3.19 0 01.548 2.026c0 .7-.178 1.274-.242 1.936a5.762 5.762 0 00.063 1.694 6.368 6.368 0 001.173 2.65 11.427 11.427 0 002.038 1.848z" fill="#BC8579"/><path d="M215.93 333.635c-.522-.357-20.129-24.206-20.129-24.206s-.179-5.555-6.778-11.632c-6.599-6.076-23.951-24.651-23.951-24.651l-19.62-2.09s-2.433 3.3 0 6.256l.37.445c-1.542-.191-6.167-.356-6.447 4.421-.357 5.721 1.389 7.466 1.389 7.466a25.152 25.152 0 00-2.268 8.153 23.068 23.068 0 00.701 6.778s-.523 1.554 0 6.599a9.855 9.855 0 003.643 7.109 9.798 9.798 0 00-.866 7.3c1.274 3.822 6.077 6.37 6.077 6.37s9.555 4.345 11.976 4.689c2.42.344 17.543 2.955 17.543 2.955l11.708 17.301 26.652-23.263z" fill="#E5AB91"/><path d="M203.369 329.737a4.585 4.585 0 01-2.446-.612 8.889 8.889 0 01-2.306-1.516 21.33 21.33 0 01-2.179-2.548 6.64 6.64 0 00-2.382-2.026 7.278 7.278 0 01-2.446-1.274 1.926 1.926 0 01-.522-1.847c.165-.459.458-.56.458-.522 0 .038-.153.204-.216.586a1.813 1.813 0 00.598 1.452c.733.462 1.532.81 2.37 1.032a6.817 6.817 0 012.65 2.166c.645.89 1.343 1.741 2.089 2.548a10.451 10.451 0 002.102 1.554c1.313.701 2.255.905 2.23 1.007zM205.968 328.272s-.089-.242-.369-.561a2.855 2.855 0 00-1.58-.752 8.406 8.406 0 01-2.816-.598 2.426 2.426 0 01-1.121-1.465 13.059 13.059 0 01-.331-1.797 3.003 3.003 0 00-.56-1.49 3.834 3.834 0 00-1.198-.956 8.489 8.489 0 01-2.395-1.58 2.535 2.535 0 01-.675-1.847c.076-.497.293-.688.318-.662.026.025-.076.254 0 .662.069.591.36 1.133.815 1.516a8.978 8.978 0 002.357 1.363 4.4 4.4 0 011.402 1.083 3.74 3.74 0 01.713 1.797c.153 1.274.255 2.382 1.096 2.841.84.339 1.723.562 2.624.662a2.842 2.842 0 011.669 1.057c.14.434.089.727.051.727z" fill="#BC8579"/><path d="M158.83 325.061l.815 38.424h-8.829v-34.36l2.115-2.981 5.899-1.083z" fill="#455A64"/><path d="M144.893 276.152a47.052 47.052 0 004.255 3.134 23.322 23.322 0 0012.039 3.364h1.274l-.076.407a15.277 15.277 0 002.471 11.466 21.769 21.769 0 003.351 3.644 3.835 3.835 0 01-1.147-.726 13.264 13.264 0 01-2.548-2.663 15.191 15.191 0 01-2.433-4.968 15.031 15.031 0 01-.306-6.829l.344.395h-.943a22.411 22.411 0 01-12.294-3.631 19.888 19.888 0 01-3.057-2.446 4.759 4.759 0 01-.93-1.147z" fill="#BC8579"/><path d="M140.816 289.516a2.28 2.28 0 01.854-.382 10.067 10.067 0 012.548-.433 20.93 20.93 0 018.205 1.58 58.782 58.782 0 007.822 2.612 3.52 3.52 0 002.331-.255c.497-.281.714-.535.752-.497.038.038-.115.344-.612.713a3.54 3.54 0 01-2.548.497 42.511 42.511 0 01-7.975-2.446 23.656 23.656 0 00-7.975-1.733c-1.14.046-2.276.161-3.402.344zM139.504 304.32c.323-.286.7-.507 1.108-.649a8.308 8.308 0 013.478-.548c1.491 0 3.211.395 5.096.586 1.886.191 4.039.522 6.256.764 1.095.115 2.178.191 3.21.204h1.529c.463-.042.917-.15 1.35-.318a8.769 8.769 0 002.294-1.274c.32-.217.604-.484.84-.79a3.03 3.03 0 00.408-.981 7.24 7.24 0 000-3.338 4.74 4.74 0 00-.446-1.147s.446.255.701 1.07a7.049 7.049 0 01.14 3.529 3.347 3.347 0 01-.433 1.147c-.26.36-.574.678-.93.943a9.166 9.166 0 01-2.421 1.452 5.01 5.01 0 01-1.529.37h-1.567a32.492 32.492 0 01-3.286-.191c-2.23-.255-4.332-.612-6.243-.816-1.911-.204-3.644-.637-5.096-.726a10.37 10.37 0 00-4.459.713zM143.197 318.271a2.93 2.93 0 01.765-1.045 4.169 4.169 0 011.274-.866 7.195 7.195 0 011.974-.484l2.37-.23a26.622 26.622 0 012.765-.178c1.936 0 4.064.089 6.268 0a10.573 10.573 0 003.108-.421 4.131 4.131 0 002.23-1.656 5.608 5.608 0 00.611-4.688 9.395 9.395 0 00-1.49-2.943 7.2 7.2 0 01-.752-1.019c.367.225.691.514.955.853a8.743 8.743 0 011.797 3.007 6.007 6.007 0 01-.548 5.172 4.815 4.815 0 01-2.548 1.924c-1.07.323-2.182.482-3.3.472-2.255.063-4.369-.09-6.293-.077-.951 0-1.856.038-2.714.115l-2.382.153a5.097 5.097 0 00-3.109 1.07c-.649.522-.943.879-.981.841z" fill="#BC8579"/><path d="M148.459 326.144c0-.115 1.274.14 3.364 0a16.563 16.563 0 007.644-2.293 8.44 8.44 0 003.057-3.007 4.4 4.4 0 00.383-3.363 3.721 3.721 0 00-1.274-1.949c-.446-.344-.765-.446-.752-.51.32.003.632.105.892.293a3.825 3.825 0 011.567 2.026 4.782 4.782 0 01-.306 3.822 8.462 8.462 0 01-3.249 3.287 15.552 15.552 0 01-7.95 2.204 12.902 12.902 0 01-2.548-.242c-.535-.179-.84-.268-.828-.268zM166.766 296.918a26.89 26.89 0 00-.981 5.186 19.49 19.49 0 003.376 12.001 21.665 21.665 0 009.899 7.644 44.31 44.31 0 005.096 1.401c-.48.052-.965.031-1.439-.064a18.794 18.794 0 01-3.822-.904 20.966 20.966 0 01-10.269-7.746 19.116 19.116 0 01-3.312-12.409c.118-1.304.401-2.588.841-3.822a5.1 5.1 0 01.611-1.287z" fill="#BC8579"/><path d="M194.145 359.841h-77.727v24.181h77.727v-24.181z" fill="#455A64"/><path d="M129.146 360.083s-.179 0-.51-.063a6.324 6.324 0 00-1.389 0 9.974 9.974 0 00-2 .484c-.739.255-1.516.611-2.344.994-.765.367-1.552.686-2.357.955a9.185 9.185 0 01-2.038.395c-.469.034-.94.009-1.402-.076a3.296 3.296 0 01-.497-.128s.179 0 .497.089c.462.05.927.05 1.389 0a8.936 8.936 0 002.026-.42 18.91 18.91 0 002.344-.956 24.498 24.498 0 012.344-.993 9.487 9.487 0 012.038-.459c.466-.06.936-.06 1.402 0 .172.04.339.1.497.178zM121.03 366.135a5.965 5.965 0 01-.714.14c-1.15.23-2.258.634-3.287 1.198-.395.216-.624.369-.637.356-.012-.012 0 0 .153-.127l.459-.28a8.964 8.964 0 011.592-.765 10.805 10.805 0 011.708-.446l.535-.063.191-.013zM136.153 359.841h-.369a4.762 4.762 0 00-.968.255 6.72 6.72 0 00-1.274.701c-.472.306-.956.688-1.465 1.095-.484.382-.995.727-1.529 1.032a5.105 5.105 0 01-1.414.548c-.33.073-.67.095-1.007.064a1.254 1.254 0 01-.369-.064c.123.011.246.011.369 0 .334.014.668-.016.994-.089a5.455 5.455 0 001.389-.561 12.338 12.338 0 001.503-1.031c.522-.395 1.006-.79 1.478-1.096a7.524 7.524 0 011.35-.688 3.85 3.85 0 01.994-.217c.107.009.214.026.318.051zM145.847 363.778c.01-.17.01-.34 0-.51a2.804 2.804 0 00-.395-1.337 2.66 2.66 0 00-1.593-1.274 4.788 4.788 0 00-2.548.14c-1.505.409-2.959.99-4.331 1.732-.523.281-.943.523-1.274.701l-.332.204-.114.076.102-.089.318-.216c.28-.191.701-.446 1.274-.739a19.48 19.48 0 014.345-1.771 4.92 4.92 0 012.548-.128 2.73 2.73 0 011.63 1.274 2.9 2.9 0 01.37 1.376c.032.186.032.376 0 .561z" fill="#263238"/><path d="M142.777 363.689a3.172 3.172 0 00-.421-.28 2.357 2.357 0 00-1.21-.243 4.687 4.687 0 00-1.274.243l-.497.127a3.14 3.14 0 01.484-.191 4.098 4.098 0 011.274-.28c.443-.04.888.058 1.274.28.119.062.227.144.319.242.025.064.063.102.051.102zM121.273 369.001s-.281 0-.739.115a6.537 6.537 0 00-3.185 1.643c-.332.319-.51.536-.523.536-.012 0 0-.064.115-.179.114-.144.238-.28.369-.407a5.408 5.408 0 011.478-1.083 5.833 5.833 0 011.733-.574l.548-.063.204.012zM123.783 384.022l.191-.064.535-.204a6.107 6.107 0 001.784-1.006c.369-.3.655-.691.828-1.134a3.377 3.377 0 000-1.605 5.584 5.584 0 00-1.809-3.198 7.463 7.463 0 00-3.338-1.618 10.906 10.906 0 00-3.058-.217c-.688.052-1.373.141-2.051.268l-.561.102h-.191.191l.548-.115c.681-.144 1.37-.242 2.064-.293a10.48 10.48 0 013.07.191 7.43 7.43 0 013.389 1.644 5.59 5.59 0 011.835 3.248 3.53 3.53 0 01-.077 1.644 2.893 2.893 0 01-.853 1.159 6.123 6.123 0 01-1.822.994c-.408.14-.675.204-.675.204z" fill="#263238"/><path d="M119.756 381.385a2.062 2.062 0 00-.65-.383 1.632 1.632 0 00-.866 0 1.278 1.278 0 00-.816.752 1.112 1.112 0 00.281 1.274c.222.154.474.26.739.311.266.05.539.044.802-.018a4.677 4.677 0 003.058-2.013 2.55 2.55 0 00.433-1.822 1.772 1.772 0 00-.994-1.376 3.16 3.16 0 00-1.592-.203 7.39 7.39 0 00-1.402.229 8.372 8.372 0 00-1.936.726l-.484.268-.179.102a6 6 0 01.65-.408 8.623 8.623 0 011.937-.752 7.442 7.442 0 011.414-.242 3.196 3.196 0 011.63.204 1.84 1.84 0 011.045 1.44 2.644 2.644 0 01-.446 1.885 4.782 4.782 0 01-3.096 2.013 2.043 2.043 0 01-1.605-.318 1.207 1.207 0 01-.361-.629 1.207 1.207 0 01.068-.722 1.276 1.276 0 01.866-.777c.291-.086.601-.086.892 0 .179.061.347.152.497.268l.115.191zM151.48 379.104a6.825 6.825 0 01-.917.331c-.865.252-1.753.415-2.65.485a26.112 26.112 0 01-3.975 0c-1.491-.09-3.134-.243-4.867-.243a16.697 16.697 0 00-4.79.676 15.71 15.71 0 00-3.644 1.554 17.27 17.27 0 00-2.204 1.503c-.255.191-.433.37-.56.472l-.191.165s.242-.255.726-.662a16.55 16.55 0 015.847-3.121 16.815 16.815 0 014.816-.688c1.733 0 3.376.165 4.867.254a28.05 28.05 0 003.975 0 13.25 13.25 0 002.637-.458c.234-.056.464-.128.688-.217l.242-.051z" fill="#263238"/><path d="M156.435 381.92h-.395l-1.146.063-1.822.09a2.308 2.308 0 01-1.121-.102.407.407 0 01-.204-.561c.06-.097.14-.18.234-.244a.816.816 0 01.314-.125 26.366 26.366 0 016.217-.637c.31-.008.616.076.879.242a.647.647 0 01.14.879c-.176.265-.417.48-.7.624l-.434.217-.433.191c-1.218.48-2.512.739-3.822.764a34.669 34.669 0 01-7.644-1.07 20.576 20.576 0 00-6.191-.548 9.867 9.867 0 00-4.001 1.198c-.33.192-.645.409-.943.649l-.318.243.306-.255a5.97 5.97 0 01.93-.663 9.678 9.678 0 014.013-1.274 20.76 20.76 0 016.217.599c2.472.63 5.005.984 7.555 1.057a10.735 10.735 0 003.822-.738l.433-.192.42-.216c.272-.14.505-.346.676-.599a.572.572 0 00-.115-.764 1.544 1.544 0 00-.828-.217 27.015 27.015 0 00-6.205.612.802.802 0 00-.509.331.372.372 0 00-.01.278.373.373 0 00.188.206c.352.123.729.154 1.096.089l1.822-.064h1.146l.433-.063zM170.474 379.359h-.115l-.344.127c-.293.09-.7.255-1.21.472-1.006.446-2.344 1.172-3.822 1.975-.739.394-1.465.751-2.14 1.031-.594.261-1.207.474-1.835.637a8.649 8.649 0 01-1.758.281h.471c.153 0 .344 0 .548-.102.245-.043.487-.098.726-.166.621-.176 1.23-.393 1.822-.65a35.712 35.712 0 002.128-1.044c1.478-.79 2.828-1.516 3.822-1.937a11.138 11.138 0 011.707-.624zM182.744 380.072h-.179l-.471-.063c-.217 0-.471-.077-.777-.102-.306-.026-.637-.077-1.019-.089a18.602 18.602 0 00-2.65 0c-1.082.096-2.155.27-3.211.522a21.814 21.814 0 00-3.083 1.057c-.816.366-1.604.792-2.357 1.274-.295.171-.58.358-.853.561-.255.153-.459.318-.637.446l-.383.293-.14.089a14.994 14.994 0 011.975-1.452 17.914 17.914 0 012.357-1.274 22.564 22.564 0 013.096-1.071 21.16 21.16 0 013.223-.522 18.954 18.954 0 012.675 0c.819.048 1.632.159 2.434.331zM193.304 368.925l-.23.14-.637.395a11.492 11.492 0 00-2.178 1.694 5.976 5.976 0 00-1.07 1.555 4.036 4.036 0 00-.344 2.115c.102.764.395 1.528.56 2.356.08.421.08.853 0 1.274a2.214 2.214 0 01-.675 1.147c-.7.528-1.49.925-2.331 1.172l-2.268.866a9.612 9.612 0 00-1.019.446 1.44 1.44 0 00-.688.765.866.866 0 00.153.891c.229.19.517.294.815.294.921.003 1.841-.065 2.752-.204l.752-.115h.254s-.356.089-.993.191c-.914.15-1.839.227-2.765.229a1.268 1.268 0 01-.866-.305.904.904 0 01-.166-.969c.122-.347.373-.634.701-.802a6.944 6.944 0 011.045-.459l2.267-.866a7.39 7.39 0 002.293-1.172c.325-.287.549-.672.637-1.096.087-.42.087-.854 0-1.274-.165-.828-.458-1.592-.547-2.369a3.902 3.902 0 01.356-2.154 5.667 5.667 0 011.083-1.579 10.845 10.845 0 012.179-1.631l.649-.369.281-.166zM193.432 384.175l-.063-.102-.179-.306c-.153-.268-.356-.65-.586-1.147a10.362 10.362 0 01-1.044-4.115 6.737 6.737 0 011.197-4.038c.259-.349.558-.665.892-.943l.382-.267a4.16 4.16 0 01-.357.305c-.324.28-.615.596-.866.943a6.839 6.839 0 00-1.159 4 11.163 11.163 0 001.006 4.09c.23.497.421.892.561 1.159l.165.306.051.115zM151.174 366.415c.306-.306.54-.676.688-1.083.144-.443.188-.913.127-1.376a3.58 3.58 0 00-.624-1.554 6.374 6.374 0 00-2.357-1.975c-.357-.191-.65-.318-.854-.42-.203-.102-.318-.14-.305-.153h.076l.242.102c.296.11.585.238.866.382a6.248 6.248 0 012.408 1.975c.334.483.552 1.037.637 1.618.053.473.001.951-.153 1.401a2.44 2.44 0 01-.484.816 1.686 1.686 0 01-.267.267zM194.132 367.396l-.357-.267a6.96 6.96 0 00-1.083-.676 11.096 11.096 0 00-4.497-1.21 24.662 24.662 0 00-6.905.701c-1.274.267-2.624.573-4.026.828a42.993 42.993 0 01-4.395.548 43.72 43.72 0 01-8.536-.179 17.592 17.592 0 01-3.643-.789 8.992 8.992 0 01-2.854-1.542 10.406 10.406 0 01-1.771-2 17.126 17.126 0 00-1.274-1.593 5.11 5.11 0 00-.981-.815 2.281 2.281 0 00-.28-.178h-.102c.138.053.271.121.395.203.362.232.695.506.993.816.454.503.879 1.03 1.274 1.58a9.682 9.682 0 001.771 1.987 8.918 8.918 0 002.829 1.529 18.29 18.29 0 003.63.764c2.829.332 5.683.391 8.523.179a46.59 46.59 0 004.37-.548c1.402-.242 2.752-.561 4.039-.828 2.265-.558 4.6-.786 6.93-.676 1.576.106 3.112.54 4.51 1.274.371.207.729.437 1.071.688l.369.204z" fill="#263238"/><path d="M176.525 362.389s-.955.089-2.637.166a28.34 28.34 0 01-3.057 0 14.624 14.624 0 01-3.899-.79h-.127.127a31.018 31.018 0 0112.09 0c.39.027.756.195 1.032.471a.676.676 0 01.089.561.929.929 0 01-.305.484 1.924 1.924 0 01-1.02.408l-1.07.165a54.836 54.836 0 01-4.064.497 18.618 18.618 0 01-6.892-.586 9.97 9.97 0 01-4.994-3.223l-.28-.357.293.344c.282.316.584.614.904.892a11.21 11.21 0 004.102 2.166c2.23.615 4.555.805 6.855.56 1.274-.102 2.662-.293 4.064-.496l1.057-.166c.356-.036.695-.168.981-.382a.726.726 0 00.204-.93 1.515 1.515 0 00-.981-.433 30.99 30.99 0 00-12.039 0v-.077c1.232.438 2.517.708 3.822.803 1.012.082 2.029.103 3.044.063l1.962-.076.739-.064zM193.967 363.09c-.63.073-1.264.102-1.898.089a19.614 19.614 0 01-4.536-.611 18.866 18.866 0 01-4.255-1.669c-.559-.297-1.1-.629-1.618-.994l.115.064.318.191c.281.178.688.408 1.211.675 1.35.71 2.778 1.261 4.255 1.643 1.474.382 2.987.596 4.51.637h1.898v-.025zM193.955 360.95H193.152c-.661.049-1.326.049-1.987 0a14.085 14.085 0 01-1.949-.306l-.574-.153-.216-.076h.216l.586.127a16.86 16.86 0 001.95.28c.653.035 1.308.035 1.962 0h.598l.217.128z" fill="#263238"/><path d="M187.24 364.364h-64.172v15.454h64.172v-15.454z" fill="#F5F5F5"/><path d="M187.278 366.912c-.026.07-.056.138-.09.204l-.293.56a8.846 8.846 0 01-.471.867c-.204.331-.408.713-.701 1.121-.293.408-.573.841-.93 1.274-.363.493-.754.965-1.172 1.414a25.716 25.716 0 01-3.07 2.841 25.299 25.299 0 01-3.542 2.242c-.586.281-1.134.561-1.669.765l-.764.318-.726.242c-.459.166-.892.268-1.274.382a9.18 9.18 0 01-.969.23l-.611.114h-.217.217l.611-.14c.323-.064.642-.145.956-.242.369-.114.803-.216 1.274-.395l.726-.242.764-.318c.536-.204 1.071-.497 1.657-.765a25.703 25.703 0 003.516-2.255 24.683 24.683 0 003.07-2.828c.433-.484.841-.93 1.185-1.389.344-.458.663-.891.93-1.274.268-.382.497-.777.701-1.108.204-.331.369-.624.497-.866l.293-.548.102-.204zM186.961 376.34h-.37c-.242 0-.586.076-1.019.165a18.152 18.152 0 00-6.255 2.421c-.37.229-.663.433-.854.573l-.229.153h-.089.076l.217-.178.84-.586a17.285 17.285 0 013.02-1.542 16.205 16.205 0 013.274-.892c.42-.076.777-.114 1.019-.14h.37v.026z" fill="#E0E0E0"/><path d="M177.545 371.677a4.284 4.284 0 01-.407.216c-.389.22-.828.338-1.274.344a1.428 1.428 0 01-.867-.331.97.97 0 01-.293-1.045c.157-.403.41-.762.739-1.044.343-.34.709-.655 1.096-.943a9.925 9.925 0 012.93-1.516 9.792 9.792 0 011.796-.408c.322-.038.647-.038.969 0 .337.054.651.205.904.433a1.27 1.27 0 01.37.956 2.192 2.192 0 01-.332.994 13.38 13.38 0 01-1.274 1.707c-.5.544-1.036 1.055-1.605 1.529-.588.469-1.209.895-1.86 1.274a15.586 15.586 0 01-4.128 1.758c-.695.175-1.402.303-2.114.382a3.64 3.64 0 01-2.026-.306 2.017 2.017 0 01-1.16-1.516 3.341 3.341 0 01.37-1.796 15.979 15.979 0 014.981-6.281c.465-.356.95-.683 1.453-.981l-.383.255c-.242.165-.598.407-1.057.751a17.512 17.512 0 00-3.3 3.427 16.463 16.463 0 00-1.63 2.867 3.306 3.306 0 00-.357 1.758c.052.316.182.614.378.867.195.254.451.455.743.585.62.274 1.303.371 1.975.281a13.65 13.65 0 002.102-.382 15.891 15.891 0 004.115-1.746 17.707 17.707 0 001.847-1.274 16.544 16.544 0 001.593-1.529c.476-.524.902-1.091 1.274-1.694.185-.287.294-.615.318-.956a1.121 1.121 0 00-.331-.879 2.327 2.327 0 00-1.809-.446 8.99 8.99 0 00-1.784.383 10.2 10.2 0 00-2.917 1.503 8.92 8.92 0 00-1.096.93c-.321.28-.571.634-.726 1.032a.887.887 0 00.268.981c.233.204.53.321.84.331a2.754 2.754 0 001.274-.318l.395-.153zM170.716 365.065c.023.25.023.501 0 .751a7.3 7.3 0 01-.599 1.975 10.955 10.955 0 01-1.707 2.548 21.795 21.795 0 01-2.79 2.548c-1.045.815-2.064 1.554-2.943 2.293a17.248 17.248 0 00-2.166 2.141c-.436.531-.82 1.102-1.147 1.707-.114.216-.203.382-.254.497l-.077.178c.081-.24.179-.475.293-.701a9.725 9.725 0 011.134-1.72 17.304 17.304 0 012.166-2.165c.879-.739 1.898-1.491 2.943-2.306a21.545 21.545 0 002.777-2.485 10.821 10.821 0 001.707-2.548c.295-.62.509-1.275.637-1.949a3.9 3.9 0 00.064-.561c-.038-.14-.038-.203-.038-.203zM141.988 379.652a26.339 26.339 0 014.37-1.121c1.376-.268 3.019-.497 4.829-.854.904-.191 1.847-.395 2.802-.675a20.885 20.885 0 002.905-1.108 21.283 21.283 0 002.701-1.516 20.575 20.575 0 002.293-1.758 21.342 21.342 0 003.287-3.619c.629-.9 1.2-1.841 1.707-2.815l.382-.816.141-.28s-.166.408-.497 1.109c-.484.99-1.046 1.94-1.682 2.841a20.908 20.908 0 01-3.287 3.643 22.194 22.194 0 01-2.293 1.771 23.104 23.104 0 01-2.714 1.529c-.946.432-1.921.798-2.917 1.096-.956.28-1.911.496-2.816.675-1.809.356-3.452.586-4.828.841a41.322 41.322 0 00-3.223.713l-.867.255-.293.089zM134.917 375.601a1.532 1.532 0 01.089-.612 3.079 3.079 0 01.994-1.427 7.867 7.867 0 012.433-1.274 10.898 10.898 0 013.605-.649 10.39 10.39 0 012.141.178c.377.057.746.164 1.095.318.372.152.694.403.93.727a1.504 1.504 0 01.293 1.184 1.86 1.86 0 01-.7 1.058 5.107 5.107 0 01-1.109.675c-.395.191-.802.37-1.274.548a30.066 30.066 0 01-5.401 1.656c-.969.191-1.962.344-2.969.446l-1.529.102a4.507 4.507 0 01-1.541-.166 2.296 2.296 0 01-1.274-.942 2.999 2.999 0 01-.446-1.466 4.01 4.01 0 011.083-2.751 10.925 10.925 0 012.178-1.899 15.17 15.17 0 012.421-1.35 21.472 21.472 0 014.892-1.503 35.174 35.174 0 014.421-.574c1.363-.114 2.548-.114 3.669-.255a5.927 5.927 0 002.548-.891c.489-.322.892-.76 1.172-1.274.076-.133.136-.274.178-.421a1.302 1.302 0 000-.153c-.046.2-.119.393-.216.574a3.67 3.67 0 01-1.159 1.274 5.847 5.847 0 01-2.548.917c-1.071.14-2.306.14-3.67.267a37.802 37.802 0 00-4.408.574 22.01 22.01 0 00-4.866 1.516c-.847.367-1.653.82-2.408 1.35-.8.529-1.527 1.158-2.166 1.873a3.973 3.973 0 00-1.057 2.701c.014.502.164.99.433 1.414.272.435.693.757 1.185.905.491.144 1.004.2 1.516.165.509 0 1.019 0 1.528-.102a30.533 30.533 0 002.943-.446 29.03 29.03 0 005.402-1.643c.82-.305 1.599-.712 2.319-1.21.328-.252.561-.606.662-1.007a1.393 1.393 0 00-.267-1.121 3.022 3.022 0 00-1.988-1.032 10.187 10.187 0 00-2.127-.178 10.914 10.914 0 00-3.593.624 8.032 8.032 0 00-2.433 1.274 3.197 3.197 0 00-.994 1.414 1.511 1.511 0 00-.089.446c.038.053.072.108.102.166z" fill="#E0E0E0"/><path d="M142.383 364.733s-.28.192-.828.485c-.548.293-1.35.688-2.369 1.121-1.02.433-2.243.93-3.606 1.478a35.84 35.84 0 00-4.281 2.051 15.049 15.049 0 00-3.732 2.917 10.945 10.945 0 00-2.039 3.262 8.65 8.65 0 00-.548 2.548 6.522 6.522 0 000 .713v0a8.177 8.177 0 01.535-3.261 10.484 10.484 0 012.039-3.313 14.88 14.88 0 013.733-2.93 35.139 35.139 0 014.306-2.051c1.35-.548 2.548-1.019 3.605-1.453a25.033 25.033 0 002.37-1.108l.637-.331.178-.128zM123.82 369.001h.421c.267 0 .649-.127 1.108-.242a17.483 17.483 0 006.727-3.274c.369-.306.675-.56.866-.739l.242-.204.077-.063v.076l-.23.217c-.191.191-.484.458-.853.764a17.122 17.122 0 01-3.185 2.026 16.807 16.807 0 01-3.555 1.274c-.374.087-.752.155-1.134.204h-.305l-.179-.039z" fill="#E0E0E0"/><path d="M149.326 254.978l2.23-26.155h5.593l2.267 26.155h-10.09z" fill="#455A64"/><path d="M201.293 261.565a3.158 3.158 0 004.004-2.478 3.16 3.16 0 00-.182-1.739c-.523-1.121-1.708-2.013-4.116-2.179-6.471-.433-80.262-1.274-93.626-1.401a4.377 4.377 0 00-4.255 2.548 2.675 2.675 0 00.522 2.395c1.657 1.274 3.109.726 5.377-.943 2.904-2.114 37.06.905 40.882 2.192h7.874s6.37-2.128 29.212-2.204c13.314 0 10.791 1.86 13.11 3.503l1.198.306z" fill="#455A64"/><path d="M157.747 259.144l.968 6.982-1.21.79 1.21 5.567-10.434-1.108 2.536-4.459-.969-1.325.433-6.345 7.466-.102zM154.371 230.963a8.166 8.166 0 100-16.332 8.166 8.166 0 100 16.332z" fill="#455A64"/><path d="M118.176 257.717c.472 1.669 2.434 8.715 6.154 22.015l15.428 55.598.127.458H99.627l.102-.446c5.274-22.206 9.886-41.66 13.199-55.623 3.172-13.287 4.853-20.32 5.248-22.002-.382 1.708-2.013 8.918-5.096 22.448-3.172 13.887-7.644 33.252-12.65 55.343l-.357-.446h39.316l-.357.459c-5.924-22.066-11.135-41.431-14.868-55.33-3.618-13.581-5.529-20.766-5.988-22.474z" fill="#263238"/><path d="M95.41 333.788h50.565s-2.548 18.728-25.48 18.626c-22.703-.102-25.085-18.626-25.085-18.626z" fill="#455A64"/><path d="M126.126 349.611a3.135 3.135 0 01-1.122.306 18.214 18.214 0 01-3.134.331c-1.565.04-3.13-.067-4.675-.318a28.662 28.662 0 01-5.529-1.555 27.365 27.365 0 01-5.096-2.713 25.467 25.467 0 01-3.58-2.956 18.063 18.063 0 01-2.026-2.408 3.429 3.429 0 01-.599-.994c.102-.089 1.07 1.275 2.994 3.02a27.93 27.93 0 003.657 2.764 29.504 29.504 0 004.955 2.548c1.74.689 3.54 1.214 5.377 1.567 1.5.28 3.022.433 4.548.459 2.561.102 4.23-.178 4.23-.051z" fill="#fff"/><path d="M194.221 257.717c.472 1.669 2.434 8.715 6.154 22.015l15.428 55.598.127.458h-40.258l.115-.446 13.185-55.623c3.173-13.287 4.854-20.32 5.249-22.002-.382 1.708-2.013 8.918-5.096 22.448-3.172 13.887-7.644 33.252-12.65 55.343l-.344-.446h39.302l-.344.459c-5.936-22.066-11.147-41.431-14.88-55.33a9012.56 9012.56 0 00-5.988-22.474z" fill="#263238"/><path d="M171.469 333.788h50.552s-2.548 18.728-25.48 18.626c-22.703-.102-25.072-18.626-25.072-18.626z" fill="#455A64"/><path d="M202.146 349.611a3.13 3.13 0 01-1.121.306 18.224 18.224 0 01-3.134.331 25.336 25.336 0 01-4.676-.318 28.682 28.682 0 01-5.529-1.555 27.428 27.428 0 01-5.096-2.713 26.28 26.28 0 01-3.593-3.007 18.132 18.132 0 01-2.025-2.408 3.827 3.827 0 01-.599-.994c.115-.089 1.083 1.274 2.994 3.02a29 29 0 003.605 2.815 28.106 28.106 0 0010.333 4.166c1.5.279 3.022.432 4.548.459 2.662.051 4.268-.229 4.293-.102z" fill="#fff"/><path d="M442.078 378.811s-2.242 25.837-1.414 32.767c.828 6.931 7.644 45.941 14.944 51.394 7.3 5.452 15.543 13.02 26.257 11.975 10.714-1.044 15.951-2.726 17.632-7.975 1.682-5.249 9.874-25.62 7.988-34.653-1.885-9.032-8.829-23.097-8.829-23.097s-5.452-42.208-8.191-44.527l-2.727-2.306s4.625-16.562 4.204-21.658c-.42-5.096-6.089-48.756-15.211-55.304a57.086 57.086 0 00-14.014-7.351l-9.657 39.978-10.982 60.757z" fill="#263238"/><path d="M497.549 418.789a8.816 8.816 0 01-1.185-1.49 52.71 52.71 0 01-2.752-4.396 54.474 54.474 0 01-3.249-6.981 46.6 46.6 0 00-3.822-8.498 27.494 27.494 0 00-6.484-6.586l-6.141-4.587-4.115-3.134a10.449 10.449 0 01-1.465-1.274 9.51 9.51 0 011.618 1.007l4.242 2.968c1.771 1.274 3.912 2.752 6.23 4.485a27.313 27.313 0 016.676 6.701 45.327 45.327 0 013.822 8.65 59.87 59.87 0 003.096 6.969c.994 1.937 1.911 3.44 2.548 4.485.372.532.7 1.095.981 1.681zM481.573 414.814a5.459 5.459 0 01-.765 1.274 26.845 26.845 0 01-2.548 3.16 23.2 23.2 0 01-11.377 6.931 16.491 16.491 0 01-12.982-2.383 11.597 11.597 0 01-2.904-2.866 4.818 4.818 0 01-.739-1.274 17.154 17.154 0 003.911 3.822 16.566 16.566 0 0012.562 2.114 23.746 23.746 0 0011.185-6.612c2.383-2.471 3.657-4.242 3.657-4.166zM482.846 361.587a40.347 40.347 0 01-4.217-.701 74.751 74.751 0 00-10.192-.994 75.773 75.773 0 00-10.269.497c-2.611.319-4.217.612-4.242.51a3.561 3.561 0 011.108-.344c.714-.191 1.771-.408 3.071-.625a57.642 57.642 0 0110.357-.7c3.461.085 6.906.486 10.294 1.197 1.274.281 2.344.548 3.045.765.364.084.716.217 1.045.395zM477.457 348.732a39.538 39.538 0 01-4.025 1.134 79.725 79.725 0 00-18.575 7.644 37.848 37.848 0 01-3.669 2.026s.293-.293.879-.727a42.726 42.726 0 012.548-1.707 62.09 62.09 0 0118.702-7.644c1.274-.28 2.293-.471 3.019-.573a4.34 4.34 0 011.121-.153z" fill="#455A64"/><path d="M468.12 291.542a2.703 2.703 0 01-.242.663l-.828 1.872c-.752 1.606-1.771 3.963-2.969 6.893a144.485 144.485 0 00-3.822 10.421c-1.274 3.962-2.612 8.396-3.822 13.084-1.21 4.688-1.987 9.224-2.663 13.352a143.928 143.928 0 00-1.35 11.032c-.268 3.147-.446 5.721-.522 7.492l-.115 2.038c-.001.24-.031.48-.089.713a2.836 2.836 0 010-.713v-2.051c0-1.771.089-4.345.318-7.517.23-3.172.612-6.93 1.274-11.084.663-4.153 1.491-8.701 2.625-13.415 1.134-4.714 2.548-9.147 3.822-13.122 1.274-3.975 2.739-7.504 4.013-10.409 1.274-2.904 2.344-5.248 3.172-6.828l.93-1.809c.068-.213.158-.418.268-.612z" fill="#455A64"/><path d="M476.974 400.698c-.115-.522-2.472-11.466-9.708-18.192-7.236-6.727-17.071-24.69-17.071-24.69s-4.472-7.963-4.128-15.212c.344-7.249 6.535-17.135 2.828-18.728-3.707-1.592-12.001.179-14.829 15.9-2.829 15.721-1.95 22.269-1.95 22.269s-18.001 1.032-17.836 7.925c.166 6.892 4.574 9.007 4.574 9.007s-4.574 5.096-2.268 7.95c2.306 2.853 6.702 2.815 6.702 2.815s-2.816.892.178 5.657a11.334 11.334 0 007.644 5.299 8.217 8.217 0 001.057 6.536c2.128 3.529 3.542 3.707 5.096 3.529 1.555-.178 10.192-1.771 10.192-1.771s1.058 3.937 6.536 6.026l-.357 3.516s-.344 10.587 12.371 7.237c12.714-3.351 13.441-14.129 10.969-25.073z" fill="#E5AB91"/><path d="M447.925 356.07s-.56-.165-1.592-.267a10.081 10.081 0 00-4.293.624 26.914 26.914 0 00-5.733 3.147 34.307 34.307 0 01-3.389 2 18.4 18.4 0 01-4.001 1.427c-2.828.637-5.516 1.095-7.937 1.592a12.862 12.862 0 00-3.274 1.083 5.796 5.796 0 00-2.178 1.937 6.518 6.518 0 00-.994 4.127c.076 1.032.293 1.58.229 1.606a2.065 2.065 0 01-.191-.382 6.747 6.747 0 01.561-5.606 6.062 6.062 0 012.318-2.166 13.344 13.344 0 013.389-1.197c2.446-.536 5.096-1.02 7.924-1.644a21.835 21.835 0 007.224-3.3 25.539 25.539 0 015.899-3.07 9.735 9.735 0 014.471-.433c.405.064.803.17 1.185.318.268.115.395.179.382.204zM447.429 366.988a30.629 30.629 0 01-4.141 1.873l-10.192 4.115c-3.975 1.605-7.567 3.058-10.192 4.166a95.885 95.885 0 00-3.019 1.351c-.356.2-.732.362-1.121.484a16.877 16.877 0 013.949-2.255c2.548-1.274 6.103-2.752 10.077-4.357 3.975-1.606 7.644-2.981 10.192-3.95a31.495 31.495 0 014.447-1.427zM463.902 391.908c-.152.442-.39.849-.701 1.197a9.705 9.705 0 01-2.93 2.459 15.363 15.363 0 01-5.364 1.746 51.317 51.317 0 01-6.867.344 45.294 45.294 0 00-12.192 1.72c-3.032.879-4.841 1.681-4.879 1.579.387-.286.817-.51 1.274-.662a32.71 32.71 0 013.529-1.363 40.479 40.479 0 0112.307-1.937c2.267.038 4.534-.06 6.79-.293a15.49 15.49 0 005.236-1.554 11.923 11.923 0 003.797-3.236zM467.151 401.654s.14.306.102.905a4.303 4.303 0 01-.994 2.305 6.62 6.62 0 01-3.083 2.064 25.77 25.77 0 01-4.37.93c-3.108.497-5.924.892-7.975 1.083a10.351 10.351 0 01-3.351 0c0-.089 1.274-.191 3.287-.509l7.937-1.274a30.71 30.71 0 004.281-.854 6.46 6.46 0 002.918-1.796 5.103 5.103 0 001.248-2.854zM470.106 406.521a5.854 5.854 0 01-1.669 2.153 11.618 11.618 0 01-12.473 2.165 5.765 5.765 0 01-2.306-1.465c0-.089.93.497 2.485 1.032a12.32 12.32 0 0011.975-2.089c1.223-1.032 1.835-1.911 1.988-1.796zM469.787 396.431a41.343 41.343 0 00-3.822-8.753 40.068 40.068 0 00-6.268-7.198 8.515 8.515 0 012.344 1.618 22.952 22.952 0 014.485 5.223 23.552 23.552 0 012.803 6.294c.303.908.458 1.859.458 2.816zM473.304 394.367a17.078 17.078 0 01-2.319-3.211 17.492 17.492 0 01-2.153-3.35 9.336 9.336 0 012.663 2.981 9.155 9.155 0 011.809 3.58zM451.939 381.894c0 .115-1.669.128-4.319.548a63.87 63.87 0 00-10.192 2.548l-9.962 3.389a27.976 27.976 0 01-4.179 1.274 28.47 28.47 0 014.026-1.682c2.548-.955 6-2.293 9.912-3.592a50.861 50.861 0 0110.294-2.408c1.06-.13 2.128-.194 3.197-.191a3.53 3.53 0 011.223.114zM446.78 376.556a3.213 3.213 0 01-2.268 1.019c-1.541.293-3.694-.203-5.835.268-1.057.255-1.987.892-2.993 1.21a5.35 5.35 0 01-2.752.064 4.378 4.378 0 00-1.707 0c-.383.089-.574.229-.612.191-.038-.038.115-.242.535-.446a3.991 3.991 0 011.847-.165 5.103 5.103 0 002.548-.179c.981-.484 1.989-.91 3.02-1.274a10.78 10.78 0 013.338-.165c.868.082 1.74.103 2.611.063a9.301 9.301 0 002.268-.586zM464.615 382.595c-.153.115-1.822-2.102-4.523-4.141a4.665 4.665 0 01-1.656-1.911c-.306-.726-.433-1.375-.624-1.885a4.233 4.233 0 00-.917-1.452s.203 0 .484.178c.385.277.685.657.866 1.096.255.522.446 1.172.752 1.809.352.667.87 1.233 1.503 1.643a12.508 12.508 0 014.115 4.663z" fill="#BC8579"/><circle cx="553" cy="128" r="72" fill="#EBEBEB"/><path d="M132.698 375.088c-.735 0-1.295-.214-1.678-.642-.381-.43-.572-1.047-.572-1.85 0-.817.199-1.446.598-1.885.401-.44.98-.659 1.736-.659.512 0 .974.095 1.384.285l-.312.831c-.437-.17-.797-.255-1.081-.255-.841 0-1.261.558-1.261 1.674 0 .545.104.955.312 1.231.211.272.518.409.923.409.46 0 .895-.115 1.305-.343v.901a2.06 2.06 0 01-.594.233 3.57 3.57 0 01-.76.07zm6.807-2.527c0 .794-.203 1.414-.61 1.859-.408.445-.975.668-1.701.668a2.33 2.33 0 01-1.204-.308 2.023 2.023 0 01-.804-.883c-.188-.384-.282-.829-.282-1.336 0-.788.202-1.403.607-1.846.404-.442.974-.663 1.709-.663.703 0 1.26.227 1.67.681.41.451.615 1.06.615 1.828zm-3.537 0c0 1.122.414 1.683 1.243 1.683.821 0 1.231-.561 1.231-1.683 0-1.11-.413-1.665-1.239-1.665-.434 0-.749.143-.945.43-.194.287-.29.699-.29 1.235zm7.194-2.509c.208 0 .379.014.514.044l-.101.962a1.964 1.964 0 00-.457-.053c-.413 0-.749.135-1.007.405-.255.269-.382.619-.382 1.05V375h-1.033v-4.86h.809l.136.857h.053c.161-.29.37-.52.628-.69.261-.17.541-.255.84-.255zm3.884 5.036c-.615 0-1.092-.221-1.432-.664h-.062c.041.41.062.659.062.747v1.991h-1.033v-7.022h.835c.023.09.072.307.145.65h.053c.322-.492.805-.738 1.45-.738.606 0 1.078.219 1.415.659.34.439.51 1.056.51 1.85s-.173 1.414-.519 1.859c-.343.445-.817.668-1.424.668zm-.25-4.192c-.41 0-.711.12-.901.36-.187.24-.281.624-.281 1.151v.154c0 .592.094 1.021.281 1.288.188.263.494.395.918.395a.933.933 0 00.827-.439c.193-.293.29-.711.29-1.253 0-.545-.097-.956-.29-1.235-.191-.281-.472-.421-.844-.421zm7.704 1.665c0 .794-.204 1.414-.611 1.859-.408.445-.974.668-1.701.668-.454 0-.855-.103-1.204-.308a2.023 2.023 0 01-.804-.883c-.188-.384-.282-.829-.282-1.336 0-.788.203-1.403.607-1.846.404-.442.974-.663 1.709-.663.703 0 1.26.227 1.67.681.41.451.616 1.06.616 1.828zm-3.538 0c0 1.122.414 1.683 1.244 1.683.82 0 1.23-.561 1.23-1.683 0-1.11-.413-1.665-1.239-1.665-.434 0-.749.143-.945.43-.193.287-.29.699-.29 1.235zm7.194-2.509c.208 0 .379.014.514.044l-.101.962a1.964 1.964 0 00-.457-.053c-.413 0-.749.135-1.007.405-.254.269-.382.619-.382 1.05V375h-1.033v-4.86h.809l.136.857h.053c.161-.29.371-.52.628-.69.261-.17.541-.255.84-.255zm4.46 4.948l-.206-.677h-.035c-.235.296-.471.498-.708.607-.237.105-.542.158-.914.158-.478 0-.851-.129-1.121-.387-.266-.258-.4-.622-.4-1.094 0-.501.186-.879.559-1.134.372-.255.938-.394 1.7-.417l.84-.027v-.259c0-.311-.074-.542-.22-.694-.144-.156-.368-.233-.673-.233a2.31 2.31 0 00-.716.11 5.337 5.337 0 00-.659.259l-.334-.738c.264-.138.552-.242.866-.312a3.86 3.86 0 01.887-.11c.619 0 1.084.135 1.398.404.316.27.474.693.474 1.27V375h-.738zm-1.538-.703c.375 0 .675-.104.901-.312.229-.211.343-.506.343-.883v-.422l-.624.026c-.487.018-.841.1-1.064.246-.219.144-.329.365-.329.664 0 .217.064.385.193.505.129.117.322.176.58.176zm5.528-.044c.252 0 .504-.04.756-.119v.778a1.98 1.98 0 01-.444.123 2.887 2.887 0 01-.558.053c-.978 0-1.467-.516-1.467-1.547v-2.619h-.664v-.457l.712-.378.351-1.028h.638v1.081h1.384v.782h-1.384v2.601c0 .249.061.434.184.554.126.117.29.176.492.176zm2.765.747h-1.033v-4.86h1.033V375zm-1.095-6.148c0-.185.05-.327.15-.426.102-.1.247-.15.435-.15.181 0 .322.05.422.15.102.099.154.241.154.426a.568.568 0 01-.154.418c-.1.099-.241.149-.422.149-.188 0-.333-.05-.435-.149a.574.574 0 01-.15-.418zm6.887 3.709c0 .794-.204 1.414-.611 1.859-.407.445-.974.668-1.701.668-.454 0-.855-.103-1.204-.308a2.023 2.023 0 01-.804-.883c-.188-.384-.281-.829-.281-1.336 0-.788.202-1.403.606-1.846.404-.442.974-.663 1.709-.663.704 0 1.26.227 1.67.681.411.451.616 1.06.616 1.828zm-3.538 0c0 1.122.415 1.683 1.244 1.683.82 0 1.23-.561 1.23-1.683 0-1.11-.413-1.665-1.239-1.665-.434 0-.749.143-.945.43-.193.287-.29.699-.29 1.235zm9.004 2.439h-1.037v-2.988c0-.375-.076-.655-.228-.84-.15-.184-.388-.276-.717-.276-.436 0-.755.128-.958.386-.202.258-.303.69-.303 1.297V375h-1.032v-4.86h.808l.145.637h.053c.146-.232.354-.41.624-.536.269-.126.568-.189.896-.189 1.166 0 1.749.593 1.749 1.78V375z" fill="#455A64"/></svg>