<svg width="629" height="419" fill="none" xmlns="http://www.w3.org/2000/svg"><path d="M443.529 49.673l-1.111 1.774c-9.329 15.01-10.02 33.923-1.156 49.037a47.062 47.062 0 003.834 5.601 49.78 49.78 0 0019.521 14.322 49.742 49.742 0 0023.965 3.414c9.591-1.073 19.322-4.929 28.615-2.455 12.129 3.221 18.734 15.711 23.987 26.988 5.253 11.276 11.923 23.776 24.034 26.922 7.585 1.979 15.795-.317 22.634-4.238 18.109-10.39 28.204-31.739 28.148-52.444-.056-20.705-9.115-40.477-21.86-56.692-17.857-22.721-43.99-39.711-72.903-43.258-28.913-3.548-60.215 7.673-77.708 31.03zM45.272 192.42l1.132.93a32.48 32.48 0 0038.008 3.117 34.745 34.745 0 0011.71-12.206 34.703 34.703 0 004.552-16.286c.134-6.704-1.677-13.81.906-20.02 3.354-8.07 12.58-11.522 20.857-14.128 8.278-2.606 17.52-6.051 20.816-14.129 2.063-5.07 1.225-10.953-.839-16.039-5.535-13.467-19.406-22.4-33.714-24.244-14.308-1.843-28.833 2.623-41.212 9.956-17.377 10.282-31.526 26.807-36.558 46.484-5.032 19.676-.218 42.335 14.342 56.565zM289.281 86.347c12.381 0 22.417-10.028 22.417-22.4 0-12.37-10.036-22.399-22.417-22.399-12.381 0-22.418 10.029-22.418 22.4 0 12.37 10.037 22.4 22.418 22.4zM578.5 313c20.711 0 37.5-17.013 37.5-38s-16.789-38-37.5-38-37.5 17.013-37.5 38 16.789 38 37.5 38zM66.165 263.844c1.65-9.513-4.73-18.56-14.25-20.209-9.52-1.648-18.576 4.728-20.225 14.24-1.65 9.513 4.73 18.56 14.25 20.209 9.521 1.648 18.576-4.727 20.225-14.24z" fill="#EBEBEB"/><path d="M166.509 48.663s-10.005-3.595-16.714-1.475c-6.709 2.12-8.605 6.369-13.721 6.15-4.042-.175-6.944-1.843-8.504-6.083-1.56-4.24-1.719-9.545-15.465-8.707-10.517.679-11.531 2.246-11.531 2.246l-.361 28.014c5.929-1.106 12.001-1.952 18.56-1.207a7.842 7.842 0 016.323 6.545c.923 5.958 7.137 8.12 10.819 8.02 5.275-.151 7.85-3.78 12.286-4.936 6.97-1.802 19.172 2.774 19.172 2.774l-.864-31.341z" fill="#8547C6"/><path d="M129.265 71.23c.109 0 .159-4.642.109-10.374s-.168-10.367-.277-10.367c-.109 0-.159 4.643-.109 10.375.051 5.732.168 10.366.277 10.366zM140.057 58.828c-.109 0-.067 4.801.092 10.71.159 5.907.386 10.692.495 10.692.109 0 .059-4.793-.101-10.71-.159-5.916-.427-10.692-.486-10.692z" fill="#263238"/><path opacity=".2" d="M140.468 75.487c.134 2.145.143 5.028.143 5.028-1.544 1.098-4.772 1.819-6.592 1.307h-.051a7.32 7.32 0 01-5.032-5.128 8.764 8.764 0 01-.352-2.514c.403-7.132.931-16.023.512-23.154a11.908 11.908 0 0011.011 2.061l.361 22.4z" fill="#000"/><path opacity=".6" d="M140.896 54.084a6.34 6.34 0 00.898-.553l2.39-1.575a26.504 26.504 0 018.546-3.88 19.555 19.555 0 019.326.293c1.247.397 2.473.855 3.673 1.375a6.14 6.14 0 00-.914-.545 17.155 17.155 0 00-2.683-1.09 18.776 18.776 0 00-9.494-.427 25.067 25.067 0 00-8.613 4.04c-1.007.686-1.795 1.273-2.34 1.675a4.535 4.535 0 00-.789.688zM116.156 40.459c0 .067.747-.042 1.912.067a9.224 9.224 0 017.347 4.81c.57 1.03.763 1.751.839 1.735a4.92 4.92 0 00-.579-1.86 8.813 8.813 0 00-7.548-4.962 4.678 4.678 0 00-1.971.21z" fill="#fff"/><path d="M99.953 37.945l-1.535 186.597 1.392.293 1.745-186.823-1.602-.067z" fill="#263238"/><path d="M479.91 375.65l3.9 12.243s-11.154 8.079-10.651 10.408l24.036-6.704-5.292-19.324-11.993 3.377z" fill="#8547C6"/><path d="M490.947 384.785a1.004 1.004 0 01.99.93.985.985 0 01-.915.989 1.085 1.085 0 01-1.04-.989 1.014 1.014 0 011.066-.93M497.328 392.1l-.511-1.869-23.08 6.587s-.94.763-.604 1.483l24.195-6.201z" fill="#E0E0E0"/><path d="M483.382 387.885c0 .117.638 0 1.326.218.687.218 1.124.629 1.216.545.092-.084-.269-.704-1.099-.947s-1.501.084-1.443.184zM481.151 389.67c0 .117.57.176 1.107.561.537.386.839.88.914.838.076-.041 0-.72-.671-1.181-.671-.461-1.375-.369-1.35-.218zM480.556 393.022c.109 0 .109-.637-.369-1.19-.478-.553-1.098-.662-1.123-.553-.026.109.411.36.838.838.428.478.537.947.654.905zM482.803 384.994c.076.092.57-.218 1.25-.36.679-.143 1.249-.076 1.283-.193.033-.117-.579-.394-1.376-.218-.796.176-1.241.695-1.157.771z" fill="#263238"/><path d="M437.18 360.91l8.152 14.053s-14.157 5.489-14.258 8.154l27.617.134v-2.145l-6.105-20.481-15.406.285z" fill="#8547C6"/><path d="M453.87 373.631a1.12 1.12 0 01.839 1.273 1.099 1.099 0 01-1.258.838 1.196 1.196 0 01-.839-1.357 1.132 1.132 0 011.401-.687M458.676 383.251v-2.145l-26.528.595s-1.216.553-1.065 1.416l27.593.134z" fill="#E0E0E0"/><path d="M445.432 374.829c0 .134.688.184 1.35.603.663.419 1.04.989 1.158.93.117-.058-.092-.837-.906-1.323-.813-.486-1.627-.336-1.602-.21zM442.305 376.262c0 .134.562.352 1.023.913.461.562.612 1.165.746 1.157.134-.009.21-.771-.386-1.458-.595-.687-1.383-.729-1.383-.612zM440.669 379.79c.126 0 .302-.645-.058-1.374-.361-.729-.99-1.023-1.049-.905-.058.117.344.502.629 1.106.286.603.344 1.165.478 1.173zM443.654 371.904c.059.126.68-.075 1.443 0 .763.076 1.358.269 1.426.151.067-.117-.512-.586-1.409-.62-.898-.033-1.518.369-1.46.469z" fill="#263238"/><path d="M486.904 250.093l1.543 22.039 8.236 1.584 1.719-24.553-11.498.93z" fill="#FFBE9D"/><path d="M484.321 290.493s-.252-5.447-.42-7.618a3.148 3.148 0 01.495-1.969l4.051-6.285v-2.514l8.236 1.592s.612 6.31.612 7.349c0 .679-.252 4.19-.436 6.596a2.513 2.513 0 01-2.357 2.346c.07.292.074.596.012.891a2.041 2.041 0 01-1.907 1.623 4.198 4.198 0 01-3.279 1.106h-.839s-.168.888-1.585.888-.914-1.919-.914-1.919l-.202-2.329-1.467.243z" fill="#FFBE9D"/><path d="M486.024 283.755c.352 2.51.269 5.061-.244 7.542a22.94 22.94 0 010-3.762c-.032-1.265.049-2.53.244-3.78zM489.932 286.42a8.378 8.378 0 01-.201 3.679 8.798 8.798 0 01-1.359 3.427c-.117-.058.503-1.567.931-3.519.428-1.953.478-3.587.629-3.587zM492.893 286.495a10.81 10.81 0 01-.78 6.193c.069-1.038.207-2.071.411-3.092.059-1.04.182-2.076.369-3.101zM494.604 285.875c.288.738.383 1.537.277 2.322a4.713 4.713 0 01-.478 2.296 9.726 9.726 0 010-2.313 10.25 10.25 0 01.201-2.305z" fill="#EB996E"/><path d="M438.899 168.79a3.048 3.048 0 01-1.459-5.866 3.172 3.172 0 01.707-5.064 3.187 3.187 0 011.918-.358 3.789 3.789 0 011.897-3.228 3.813 3.813 0 011.869-.51 3.816 3.816 0 011.878.478 4.27 4.27 0 015.25-.251 3.038 3.038 0 013.295 1.494 3.032 3.032 0 01-.477 3.584" fill="#263238"/><path d="M438.462 169.226a12.934 12.934 0 013.893-8.583 12.953 12.953 0 018.687-3.669h.671c7.238.218 11.096 6.478 10.677 13.702l-.369 24.067v1.165l-16.572 3.813-.202-6.143s-6.977-.888-7.254-7.818c-.143-3.352.142-10.274.469-16.534z" fill="#FFBE9D"/><path d="M445.189 193.578a16.85 16.85 0 009.025-2.916s-1.997 5.028-8.949 4.617l-.076-1.701z" fill="#EB996E"/><path d="M441.592 174.597a.986.986 0 00.981.972.961.961 0 00.912-.556.961.961 0 00.086-.365.996.996 0 00-.981-.981.933.933 0 00-.374.056.934.934 0 00-.543.505.957.957 0 00-.081.369zM440.056 172.578c.126.125.839-.453 1.929-.478 1.09-.025 1.862.486 1.971.352.109-.134-.076-.293-.42-.528a2.797 2.797 0 00-1.593-.444 2.608 2.608 0 00-1.526.545c-.319.259-.428.494-.361.553zM451.84 175.142a.994.994 0 00.981.972.94.94 0 00.694-.25.948.948 0 00.304-.672.98.98 0 00-.981-.972.94.94 0 00-.694.25.948.948 0 00-.304.672zM450.548 172.486c.126.125.839-.453 1.929-.478 1.091-.025 1.862.478 1.98.343.117-.134-.076-.284-.428-.527a2.714 2.714 0 00-1.585-.436 2.633 2.633 0 00-1.535.544c-.319.26-.428.495-.361.554zM446.9 180.497a7.504 7.504 0 00-1.744-.26c-.277 0-.537-.067-.587-.251a1.45 1.45 0 01.159-.838c.243-.671.487-1.366.747-2.095a36.084 36.084 0 001.677-5.472 35.991 35.991 0 00-2.097 5.321c-.243.737-.486 1.441-.713 2.112-.16.333-.199.713-.109 1.072a.676.676 0 00.462.386c.151.035.306.052.461.05.58.062 1.166.054 1.744-.025zM450.061 181.15c-.176 0-.151 1.149-1.115 2.003-.965.855-2.206.754-2.206.914 0 .159.277.218.839.218a2.903 2.903 0 001.845-.704c.485-.43.786-1.031.839-1.676.008-.486-.126-.763-.202-.755zM450.155 168.312c.109.285 1.174.118 2.432.235 1.258.117 2.273.427 2.432.168.159-.26-.109-.403-.528-.671a4.25 4.25 0 00-3.707-.301c-.42.201-.68.435-.629.569zM440.357 169.486c.193.234.923-.042 1.803-.076.881-.033 1.636.117 1.804-.142.075-.126-.051-.361-.386-.587a2.523 2.523 0 00-1.476-.352 2.47 2.47 0 00-1.434.528c-.302.26-.369.511-.311.629z" fill="#263238"/><path d="M439.042 166.025s1.678-4.392 3.774-5.464c2.516-1.307 3.682 1.45 6.081.704 2.398-.746 4.789-1.986 7.313-.185 2.768 1.961 1.535 3.436 1.786 6.512 1.032 12.461 3.414 15.922 3.9 10.056.05-.646 1.828-1.215 2.013-3.939.243-3.536.26-7.827-.596-10.307-.729-2.095-1.97-3.52-4.193-5.07-3.48-2.439-8.169-2.363-11.339-1.953-3.17.411-9.158 4.215-8.739 9.646z" fill="#263238"/><path d="M461.443 177.447a1.892 1.892 0 011.987-1.878c1.3.093 2.759.78 2.751 3.461 0 4.743-4.789 3.746-4.797 3.612-.008-.134.033-3.209.059-5.195z" fill="#FFBE9D"/><path d="M462.423 180.857s.083.059.226.126a.843.843 0 00.621 0 2.076 2.076 0 00.956-1.835 2.686 2.686 0 00-.235-1.182.921.921 0 00-.621-.637.43.43 0 00-.486.218c-.067.134 0 .235-.059.243-.059.008-.101-.084-.059-.276a.508.508 0 01.185-.302.642.642 0 01.461-.117 1.168 1.168 0 01.839.737c.205.41.303.866.285 1.324a2.143 2.143 0 01-1.216 2.045.844.844 0 01-.755-.126c-.134-.067-.159-.209-.142-.218z" fill="#EB996E"/><path d="M461.09 168.254a4.61 4.61 0 01-1.979.989 1.563 1.563 0 01-1.753-1.04c-.067-.335 0-.72-.218-.963s-.746-.193-1.14-.134a3.027 3.027 0 01-3.204-2.087 1.276 1.276 0 01-1.677.21 6.565 6.565 0 01-1.334-1.35 1.94 1.94 0 00-1.677-.762c-.33.123-.674.207-1.023.251-.629 0-.956-.754-1.065-1.374-.109-.62-.202-1.333-.738-1.676a2.516 2.516 0 00-1.678 0c-.57.1-1.317 0-1.476-.57a1.095 1.095 0 01.185-.838 3.068 3.068 0 013.598-1.257 4.2 4.2 0 015.852-2.649 4.19 4.19 0 011.779 1.618 4.194 4.194 0 015.589-.258c.53.431.947.986 1.213 1.616a3.063 3.063 0 013.918 2.622 3.053 3.053 0 01-.337 1.735 2.888 2.888 0 011.677 2.271 1.681 1.681 0 01-.517 1.296 1.681 1.681 0 01-1.319.456 1.699 1.699 0 01-2.894 1.776" fill="#263238"/><path d="M445.574 159.044v.344c.076.32.203.626.378.905.271.442.641.814 1.082 1.089.581.377 1.27.554 1.962.503l-.084-.109a1.67 1.67 0 00.126 1.307c.226.419.508.805.839 1.148.165.193.347.369.545.528.231.145.492.234.763.26a1.743 1.743 0 001.51-.595l-.177-.042a3.568 3.568 0 001.619 2.38c.46.325 1.014.49 1.577.469a4.58 4.58 0 001.526-.377l-.126-.058a3.655 3.655 0 001.166 1.433 1.986 1.986 0 001.677.41 2.62 2.62 0 001.963-2.103l-.109.05a2.435 2.435 0 001.677.193c.413-.086.798-.27 1.124-.537.204-.166.377-.368.512-.594.05-.079.09-.163.117-.252a2.845 2.845 0 01-.679.779 2.63 2.63 0 01-1.099.495 2.318 2.318 0 01-1.543-.21l-.092-.05v.101a2.527 2.527 0 01-.64 1.243 2.526 2.526 0 01-1.205.709 1.83 1.83 0 01-1.518-.385 3.564 3.564 0 01-1.091-1.358v-.092h-.092a4.362 4.362 0 01-1.459.369 2.416 2.416 0 01-1.451-.436 3.35 3.35 0 01-1.493-2.279l-.042-.227-.142.176a1.52 1.52 0 01-1.334.52 1.421 1.421 0 01-.671-.218 4.187 4.187 0 01-.52-.494 4.796 4.796 0 01-.839-1.098 1.561 1.561 0 01-.134-1.182v-.117h-.117a3.096 3.096 0 01-1.879-.453 3.362 3.362 0 01-1.073-1.03 3.615 3.615 0 01-.554-1.115z" fill="#455A64"/><path d="M418.855 242.182l-16.37-8.279-5.737 6.025s15.851 13.408 19.742 14.246c0-.017 4.613-3.185 2.365-11.992z" fill="#FFBE9D"/><path d="M397.678 225.967l-3.992-.78s-5.946 11.732-5.032 13.836c.914 2.103 10.76 1.592 10.76 1.592l3.355-4.467s.327-.938.344-4.919c.025-2.413-5.435-5.262-5.435-5.262z" fill="#FFBE9D"/><path d="M388.411 232.436s-1.082 2.514-.444 3.293c0 0-.839 2.464.671 3.294 0 0 6.038-1.467 6.231-2.875l.193-1.407s4.596-.068 2.935-2.305c0 0 1.283-1.969 0-2.514l-1.501-.318s1.895-1.534.696-2.137a27.504 27.504 0 00-3.413-1.349l-4.529.771-.839 5.547z" fill="#FFBE9D"/><path d="M388.411 232.436c-.02-.13-.02-.263 0-.394l.126-1.114c.143-1.023.327-2.405.554-4.09v-.109h.109l4.52-.838h.092c.977.311 1.937.672 2.877 1.081.263.105.516.234.755.386.15.109.259.266.31.444a.966.966 0 01-.042.519 3.657 3.657 0 01-1.107 1.408l-.092-.377 1.51.319h.041c.235.103.429.279.554.502.114.226.16.479.134.73-.05.461-.189.908-.411 1.315l-.184.319v-.252a1.512 1.512 0 01.335 1.358 1.74 1.74 0 01-1.04.838 7.609 7.609 0 01-2.407.41l.21-.176c-.059.394-.109.78-.168 1.165-.01.102-.027.203-.05.302a.848.848 0 01-.151.335 2.242 2.242 0 01-.453.444 9.03 9.03 0 01-2.004 1.014 32.303 32.303 0 01-3.774 1.148h-.118a2.056 2.056 0 01-.956-1.776 5.018 5.018 0 01.252-1.676v.109a1.29 1.29 0 01-.218-.838 3.55 3.55 0 01.084-.696 8.35 8.35 0 01.293-1.039 3.78 3.78 0 01.377-.838 8.407 8.407 0 01-.251.838 8.42 8.42 0 00-.243 1.039c-.108.442-.058.907.142 1.316l.042.059v.058a4.867 4.867 0 00-.193 1.601 1.762 1.762 0 00.839 1.508h-.117a33.436 33.436 0 003.706-1.19 8.91 8.91 0 001.904-.98c.134-.102.256-.221.361-.352a.843.843 0 00.126-.461c.05-.386.1-.771.159-1.165v-.176h.184a7.198 7.198 0 002.257-.394 1.283 1.283 0 00.788-.62 1.11 1.11 0 00-.277-.947l-.084-.126.076-.125c.058-.09.111-.182.159-.277.198-.351.323-.739.369-1.139a.743.743 0 00-.428-.839h.042l-1.501-.318-.419-.092.327-.285c.415-.316.749-.727.973-1.198a.395.395 0 00-.118-.512 4.928 4.928 0 00-.671-.343 30.015 30.015 0 00-2.826-1.09h.092l-4.537.738.126-.126c-.285 1.676-.512 3.067-.688 4.09-.084.435-.151.796-.201 1.097-.05.302-.059.486-.076.478z" fill="#EB996E"/><path d="M395.095 234.707c0 .134-1.568 0-3.455.193a22.529 22.529 0 00-3.355.762 5.529 5.529 0 013.296-1.198 7.741 7.741 0 013.514.243zM388.98 232.738a9.564 9.564 0 014.471-1.048 9.44 9.44 0 014.537.746 41.913 41.913 0 00-4.521-.31c-2.499.075-4.445.746-4.487.612zM389.754 229.671a6.478 6.478 0 013.489-.838 6.293 6.293 0 013.505.737c-.041.126-1.568-.352-3.505-.302-1.938.051-3.439.528-3.489.403z" fill="#EB996E"/><path d="M397.678 228.037a10.12 10.12 0 011.903 1.516l.118.109-.092.134a7.555 7.555 0 00-.898 2.079 7.99 7.99 0 00-.167 3.243c.114.45.204.906.268 1.366a2.974 2.974 0 01-.57-1.299 6.979 6.979 0 010-3.428 6.849 6.849 0 011.014-2.17v.243a10.037 10.037 0 01-1.576-1.793z" fill="#EB996E"/><path d="M467.229 276.791l-27.333 2.741 18.728 48.83 7.917 12.419 13.092 43.425 15.045-4.977c-.218-7.467-27.449-102.438-27.449-102.438z" fill="#263238"/><path d="M445.414 279.54s-23.247 26.472-25.243 30.311c-1.996 3.838-3.909 6.058-1.736 11.732 2.172 5.673 23.767 53.254 23.767 53.254s15.323-3.427 15.935-4.508c0 0-10.5-31.903-11.884-36.872a75.213 75.213 0 00-5.032-12.352s19.097-16.651 22.359-20.288c3.262-3.637 17.83-13.006 17.084-22.903-.487-6.461-1.678-8.304-1.678-8.304l-33.572 9.93z" fill="#263238"/><path d="M444.879 279.984c-1.881 2.711-4 5.25-6.332 7.584a27.14 27.14 0 013.002-3.93 28.194 28.194 0 013.33-3.654zM441.138 320.895a24.885 24.885 0 01-2.617-.201c-1.426-.075-2.592.067-2.617-.05a6.963 6.963 0 015.234.251zM471.759 292.965a5.606 5.606 0 01-.763.762l-2.181 1.97a375.72 375.72 0 00-7.036 6.603c-2.709 2.615-5.158 5.028-6.961 6.704-.898.838-1.627 1.525-2.147 1.986a4.984 4.984 0 01-.839.687c.203-.307.442-.588.713-.838l2.055-2.086c1.744-1.76 4.151-4.19 6.868-6.796 2.718-2.607 5.25-4.919 7.137-6.528.94-.838 1.678-1.442 2.256-1.869.278-.23.578-.429.898-.595zM472.17 333.775a11.576 11.576 0 01-3.649 4.987 20.086 20.086 0 011.812-2.514 19.776 19.776 0 011.837-2.473z" fill="#455A64"/><path d="M433.23 205.042a60.013 60.013 0 00-2.894 6.595c-.645 1.676-4.763 15.578-4.763 15.578l-5.15 14.506a1.682 1.682 0 00-2.078.292 1.667 1.667 0 00-.379.647c-.738 1.935-2.357 12.008-2.357 12.008 1.7.807 3.587 1.14 5.46.964 3.036-.318 11.423-4.291 11.423-4.291l2.239-4.793 4.839-10.651.738-34.928s-5.778 2.02-7.078 4.073z" fill="#8547C6"/><path d="M480.69 249.724l-.277-13.349-2.172-35.783-13.536-4.751-1.912-5.523-14.719 8.38-3.472-3.285-1.031 4.09-3.271 1.408-5.577 13.491 1.493 22.794s1.115 36.034 4.193 42.738c0 0 8.454-3.461 16.052-2.916 7.598.544 18.576-1.358 18.576-1.358s6.148-2.011 6.71.31" fill="#8547C6"/><path d="M480.665 252.104l-.285-13.341-2.164-35.783-13.545-4.751-1.903-5.531-14.719 8.38-3.48-3.285-1.032 4.165-3.237 1.307-5.577 13.501 1.493 22.793s1.115 36.034 4.193 42.696c0 0 8.454-3.452 16.052-2.908 7.598.545 18.585-1.366 18.585-1.366s6.147-2.011 6.709.319" fill="#8547C6"/><path d="M467.137 226.88a9.892 9.892 0 01-2.013.067h-9.695c-.672.042-1.346.016-2.013-.075a8.902 8.902 0 012.004-.235 75.4 75.4 0 014.856-.142c1.904 0 3.615.067 4.856.15a8.68 8.68 0 012.005.235zM467.078 229.235a9.157 9.157 0 01-2.013.067h-9.695a9.964 9.964 0 01-2.013-.067 8.416 8.416 0 012.005-.235 74.678 74.678 0 014.856-.151c1.895 0 3.614.076 4.856.16.674 0 1.346.076 2.004.226zM467.053 231.598c-.67.09-1.347.113-2.022.067h-9.686a9.412 9.412 0 01-2.013-.075 8.769 8.769 0 011.996-.235 75.651 75.651 0 014.864-.142c1.904 0 3.615.067 4.856.15a8.68 8.68 0 012.005.235zM467.019 233.953a9.405 9.405 0 01-2.012.075h-9.695a9.818 9.818 0 01-2.013-.067 8.4 8.4 0 012.004-.234 74.703 74.703 0 014.856-.151c1.896 0 3.615.075 4.856.159a8.943 8.943 0 012.004.218z" fill="#fff"/><path d="M477.847 200.517a15.08 15.08 0 016.222 5.505c2.835 4.19 11.163 28.098 11.297 29.716l1.929 4.718a8.315 8.315 0 011.577 4.592v5.397s-7.758-1.769-11.918.896a5.157 5.157 0 01-1.677-4.491 8.387 8.387 0 01.78-2.347s-1.954.478-2.348-.536a4.791 4.791 0 010-1.81l-7.783-12.017-2.298-10.953s-2.801-15.704 4.219-18.67z" fill="#8547C6"/><path d="M448.989 277.495a.642.642 0 01-.051-.192l-.084-.553c-.075-.528-.176-1.241-.301-2.146-.252-1.902-.596-4.584-1.015-7.885-.839-6.704-1.896-15.922-2.625-26.112a144.075 144.075 0 01-.42-14.456c.176-4.45.654-8.43 1.099-11.732.444-3.302.906-6.008 1.224-7.86l.378-2.129c0-.226.084-.402.109-.553.025-.151 0-.193.05-.184a.477.477 0 010 .192c0 .151 0 .336-.067.553-.067.528-.168 1.241-.293 2.146-.269 1.86-.671 4.542-1.091 7.877-.419 3.335-.838 7.299-.998 11.732-.159 4.433.101 9.302.453 14.405.73 10.215 1.761 19.433 2.516 26.112.369 3.302.663 5.992.839 7.903.092.905.168 1.617.218 2.153 0 .218 0 .403.05.562a.585.585 0 01.009.167zM454.145 218.777c.295-.033.592-.047.889-.042l2.6-.05 9.477-.084h.176v.184c0 4.341 0 9.537.042 15.143v.1l-.075.067c-.42.352-.839.713-1.334 1.073a26.747 26.747 0 01-2.516 1.735 7.832 7.832 0 01-2.801 1.148 5.749 5.749 0 01-2.902-.436 12.812 12.812 0 01-2.424-1.358 26.575 26.575 0 01-1.065-.796 1.907 1.907 0 01-.486-.511 2.583 2.583 0 01-.302-.612 9.72 9.72 0 01-.428-2.463c-.07-1.475-.05-2.953.059-4.425.176-2.698.478-4.869.696-6.36.109-.746.201-1.324.277-1.676.026-.203.071-.402.134-.595.006.202-.011.404-.05.603-.051.436-.109 1.014-.193 1.726-.168 1.492-.419 3.662-.554 6.352a38.148 38.148 0 000 4.383c.044.8.187 1.591.428 2.355.118.379.353.71.671.947.335.26.688.519 1.057.771.731.522 1.519.96 2.348 1.307a5.433 5.433 0 002.684.402 7.457 7.457 0 002.633-1.098c.87-.524 1.71-1.098 2.516-1.717.461-.352.914-.713 1.317-1.056l-.076.167v-15.142l.185.176-9.376-.084-2.634-.05h-.704l-.269-.084z" fill="#263238"/><path d="M462.793 190.343a38.723 38.723 0 00-5.871 3.352c-4.126 2.623-8.848 5.095-8.848 5.095l.914 6.872 15.633-9.469" fill="#8547C6"/><path d="M464.622 196.193a1.46 1.46 0 01-.285.217l-.839.57-3.271 2.053-11.087 6.771-.285.168v-.327c-.117-.896-.243-1.835-.369-2.79-.185-1.4-.361-2.757-.537-4.073v-.151l.126-.067c4.286-2.246 7.9-4.441 10.483-6.034 1.309-.77 2.382-1.349 3.137-1.676a5.218 5.218 0 011.199-.477 1.217 1.217 0 01-.285.167l-.839.445a72.241 72.241 0 00-3.061 1.81 121.863 121.863 0 01-10.424 6.176l.117-.218c.168 1.315.352 2.681.537 4.073l.369 2.79-.327-.151 11.162-6.654 3.355-1.935.914-.503c.064-.068.134-.13.21-.184z" fill="#263238"/><path d="M444.602 195.464l3.472 3.284-1.132 7.526-3.372-6.453" fill="#8547C6"/><path d="M443.57 199.821a11.34 11.34 0 011.074 1.768c.637 1.132 1.501 2.732 2.516 4.592l-.394.068c.117-.838.243-1.676.377-2.514.285-1.811.545-3.512.78-5.028l.059.167a146.303 146.303 0 01-2.466-2.438 5.432 5.432 0 01-.839-.989c.369.244.712.525 1.023.838.638.544 1.518 1.349 2.584 2.321l.067.067v.101c-.21 1.483-.462 3.184-.722 5.028-.134.838-.26 1.726-.385 2.514l-.101.645-.294-.578a212.054 212.054 0 01-2.348-4.66 12.221 12.221 0 01-.931-1.902zM475.691 202.796a27.133 27.133 0 00-2.566 3.888 15.48 15.48 0 00-1.535 4.911 17.17 17.17 0 00.361 6.461c.57 1.542 1.199 3.184 1.879 4.852.57 1.391 1.148 2.724 1.794 3.972.646 1.249 1.225 2.514 1.778 3.679 1.116 2.346 2.122 4.458 3.045 6.184a54.941 54.941 0 002.339 4.006c.333.464.641.945.923 1.441a2.233 2.233 0 01-.294-.335c-.184-.226-.452-.553-.763-1.005a41.298 41.298 0 01-2.516-3.956c-.964-1.676-2.004-3.821-3.136-6.159-.571-1.173-1.174-2.388-1.795-3.662a42.784 42.784 0 01-1.82-3.997 163.652 163.652 0 01-1.87-4.878 17.337 17.337 0 01-.319-6.603c.268-1.759.836-3.46 1.677-5.028a16.893 16.893 0 011.946-2.866c.26-.31.487-.528.629-.679.143-.15.235-.226.243-.226zM433.925 213.422c.103.481.176.968.218 1.458.109.939.252 2.296.403 3.972.318 3.352.679 8.011 1.048 13.148.369 5.137.679 9.713.914 13.149.109 1.634.201 2.974.268 3.988.056.487.073.977.051 1.467a11.247 11.247 0 01-.218-1.45c-.109-.938-.252-2.296-.403-3.98-.319-3.352-.679-8.012-1.048-13.149-.369-5.136-.679-9.712-.914-13.148-.109-1.625-.202-2.975-.269-3.989a8.07 8.07 0 01-.05-1.466zM467.314 222.69c-4.566.291-9.146.291-13.712 0 4.566-.29 9.146-.29 13.712 0zM424.365 249.163c-.126 0-.713-1.878-1.678-4.107a11.4 11.4 0 00-1.467-2.706c-.503-.595-1.023-.679-1.007-.755.017-.075.596-.067 1.225.537a8.765 8.765 0 011.677 2.748 13.586 13.586 0 011.25 4.283z" fill="#263238"/><path d="M427.535 247.73c-.05 0-.394-.377-.923-1.048a26.768 26.768 0 00-2.147-2.514 10.9 10.9 0 00-2.616-1.986 10.774 10.774 0 01-1.242-.603 2.83 2.83 0 011.376.326 8.794 8.794 0 012.793 1.936c.788.81 1.488 1.7 2.088 2.657.291.37.518.786.671 1.232zM495.652 244.135a26.537 26.537 0 00-4.964-.369c-1.653.18-3.287.508-4.881.98a9.783 9.783 0 014.847-1.416 9.665 9.665 0 014.998.805zM492.556 239.559c-1.628.119-3.241.4-4.814.838a24.068 24.068 0 00-4.369 2.171 10.712 10.712 0 019.183-2.992v-.017z" fill="#263238"/><path opacity=".3" d="M453.902 234.891c.839 1.148 1.678 2.766 2.726 3.679a5.963 5.963 0 003.866 1.567 6.18 6.18 0 003.456-1.307 9.39 9.39 0 003.161-4.894c.093-.142-2.323 1.76-3.656 2.606a6.274 6.274 0 01-3.858 1.14c-2.063 0-4.034-1.55-5.695-2.774M448.074 199.519c-.135.118-.361 8.607-.361 8.607l15.532-11.112-14.257 8.606-.914-6.101z" fill="#000"/><path d="M382.994 223.168c.248 1.454.76 2.852 1.51 4.123 1.015 1.324 6.315 8.187 6.315 8.187s1.249.939.939-1.173c-.31-2.112-2.516-7.492-2.516-7.492a1.675 1.675 0 011.745-.302l3.312-.636-5.174-5.866-6.131 3.159z" fill="#FFBE9D"/><path d="M328.17 115.233c-7.112 5.188-4.772 13.928-6.089 16.09a5.64 5.64 0 00-1.182 2.707c0 1.072.839 2.019.889 3.084.109 1.474-1.157 2.74-1.946 4.064a6.926 6.926 0 00-.604 5.908c.143.402.906.561.789 1.014-1.191 4.332 2.843 10.559 3.178 10.55 7.037-.058 12.58-8.187 19.558-8.757 1.593-.126 2.608-2.899 3.925-3.721 1.795-1.114 2.44-3.125 2.96-4.977a424.55 424.55 0 011.678-5.866c.398-1.254.679-2.541.838-3.847a38.83 38.83 0 00-.184-5.413c-.076-1.676 0-3.352-.201-5.028a7.256 7.256 0 00-2.231-4.517" fill="#263238"/><path d="M334.895 107.7c-4.655 1.014-9.552 4.76-11.146 9.218-1.593 4.458-1.09 10.131-.746 14.874 1.434-.368 2.39.268 3.858.084a3.593 3.593 0 002.272-1.676 24.145 24.145 0 002.952-6.101 1002.137 1002.137 0 005.502-15.184" fill="#263238"/><path d="M349.976 121.25a11.79 11.79 0 00-3.947-8.343 11.798 11.798 0 00-8.751-2.953 12.167 12.167 0 00-8.018 3.896 12.148 12.148 0 00-3.203 8.314c0 5.514.193 11.061.537 13.031 1.023 5.941 4.948 7.684 6.499 8.153a7.677 7.677 0 001.678.134l.042.042-.252 7.048c.109 4.567 3.288 8.154 7.951 8.078 4.663-.075 7.69-4.081 7.673-8.673l-.209-28.727z" fill="#FFBE9D"/><path d="M327.625 126.018a.957.957 0 00.956.947.924.924 0 00.99-.838.948.948 0 00-.948-.947.942.942 0 00-.998.838zM327.531 123.513c.645.009 1.289.054 1.929.134.616.218 1.218.472 1.803.762.067 0 0-.234-.293-.502a3.408 3.408 0 00-1.426-.729 3.077 3.077 0 00-1.56 0c-.36.134-.503.276-.453.335zM337.621 126.018a.963.963 0 00.956.947.927.927 0 00.998-.838.963.963 0 00-.956-.947.932.932 0 00-.998.838zM337.906 124.217c.59-.361 1.197-.691 1.82-.989 1.057-.402 1.988-.335 2.063-.461.076-.126-.142-.168-.553-.201a3.893 3.893 0 00-1.678.26c-.53.19-1.012.496-1.409.896-.276.302-.318.486-.243.495zM334.317 131.289a7.22 7.22 0 00-1.677-.276c-.268 0-.52-.076-.57-.252-.027-.27.031-.543.167-.779.244-.645.504-1.315.772-2.019a32.786 32.786 0 001.719-5.271 35.223 35.223 0 00-2.147 5.12c-.251.712-.503 1.382-.738 2.036a1.509 1.509 0 00-.125 1.031.658.658 0 00.444.377c.151.038.306.057.461.059a7.326 7.326 0 001.694-.026z" fill="#263238"/><path d="M334.786 143.482s4.059.26 9.099-2.815c0 0-1.543 5.287-9.166 4.709l.067-1.894zM334.787 133.762a1.905 1.905 0 011.677-.713 1.681 1.681 0 011.2.604 1.062 1.062 0 01.1 1.231 1.293 1.293 0 01-1.375.361 3.8 3.8 0 01-1.35-.763 1.153 1.153 0 01-.302-.301.328.328 0 010-.386" fill="#EB996E"/><path d="M337.739 120.303c.134.26 1.158 0 2.399 0s2.273.16 2.398-.109c.059-.125-.15-.368-.587-.578a3.913 3.913 0 00-1.836-.36 3.959 3.959 0 00-1.82.469c-.42.201-.621.453-.554.578zM327.742 120.119c.185.235.906 0 1.778-.05.872-.051 1.602.134 1.77-.118.075-.117 0-.352-.369-.57a2.524 2.524 0 00-1.451-.36c-.509.019-1 .191-1.409.495-.31.243-.403.486-.319.603z" fill="#263238"/><path d="M334.677 107.155a6.346 6.346 0 003.405 8.028c1.308.603 2.96.888 3.665 2.145.553.981.344 2.288 1.023 3.176.679.889 1.837 1.014 2.726 1.593a5.155 5.155 0 011.971 3.72c.093 1.447.264 2.888.511 4.316a4.13 4.13 0 002.701 3.143c.646-4.14 1.216-8.38.755-12.52-.462-4.14-2.038-8.38-5.116-11.196-3.078-2.816-7.8-4.098-11.641-2.405z" fill="#263238"/><path d="M350.151 148.326a5.693 5.693 0 01-4.68-5.154c-.193-2.43 0-5.078-.436-6.436-.73-2.43-1.921-2.053-2.097-4.617-.176-2.564 1.459-5.103 1.048-7.316-.411-2.212-1.123-1.676-2.247-5.103-1.124-3.428-3.145-4.299-3.145-4.299l1.065-8.481-.839-.519c5.032-.092 10.852 3.025 12.832 7.659.998 2.347 1.35 5.028 3.128 6.897 1.124 1.148 2.709 1.81 3.648 3.109 1.996 2.79.092 6.863 1.426 10.056.587 1.416 1.92 2.38 2.709 3.695 4.034 6.704.646 11.833.646 11.833l-13.058-1.324zM321.813 133.083c.537-.914 1.091-1.953.839-2.984a17.655 17.655 0 00-.973-1.994 3.5 3.5 0 01.118-2.74c.293-.888.712-1.726.939-2.632.184-.72.243-1.474.495-2.178a2.288 2.288 0 011.484-1.534c.696 3.277-.402 6.654-.394 10.006a5.776 5.776 0 01-.218 2.179 1.591 1.591 0 01-1.677 1.081" fill="#263238"/><path d="M357.38 148.686s.084-.159.184-.477c.143-.472.192-.968.143-1.458a6.114 6.114 0 00-.679-2.213 21.33 21.33 0 00-1.678-2.589 8.514 8.514 0 01-1.618-3.419 24.41 24.41 0 01-.151-4.341 9.34 9.34 0 00-.252-2.296 4.374 4.374 0 00-1.149-2.045c-.57-.586-1.283-1.056-1.921-1.676a4.762 4.762 0 01-1.434-2.221c-.503-1.751-.268-3.511-.478-5.137a9.632 9.632 0 00-1.677-4.357 9.432 9.432 0 00-3.17-2.824 36.824 36.824 0 00-3.439-1.534 13.233 13.233 0 01-2.759-1.475 6.761 6.761 0 01-1.677-1.676 4.245 4.245 0 01-.638-1.349 2.471 2.471 0 01-.1-.511s.042.176.151.494c.15.47.376.912.671 1.308a6.981 6.981 0 001.677 1.617 13.677 13.677 0 002.742 1.425c1.185.436 2.345.94 3.472 1.508a9.75 9.75 0 015.032 7.349c.21 1.676 0 3.411.478 5.079a4.438 4.438 0 001.351 2.111c.62.57 1.333 1.039 1.929 1.676a4.645 4.645 0 011.207 2.162c.186.771.27 1.563.252 2.355a24.804 24.804 0 00.126 4.308 8.376 8.376 0 001.56 3.352c.624.83 1.185 1.707 1.677 2.622.361.708.58 1.48.646 2.271a3.515 3.515 0 01-.193 1.484 1.674 1.674 0 01-.285.477z" fill="#455A64"/><path d="M337.075 132.111c.059 0 .143.234.118.637a2.67 2.67 0 01-1.828 2.329c-.386.118-.638.092-.646.042-.009-.05.906-.343 1.568-1.198a7.022 7.022 0 00.788-1.81zM361.684 147.874a8.68 8.68 0 001.937-1.115 6.332 6.332 0 001.61-2.028 5.855 5.855 0 00.537-3.352 5.949 5.949 0 00-1.853-3.603c-1.066-1.039-2.6-1.802-3.632-3.302a5.028 5.028 0 01-.78-2.59c-.017-.929.034-1.859.151-2.782.126-.923.126-1.859 0-2.782a4.654 4.654 0 00-1.291-2.447c-.655-.712-1.435-1.315-2.139-2.003a8.908 8.908 0 01-1.728-2.329c-.88-1.676-1.35-3.453-1.996-5.028a9.988 9.988 0 00-2.633-3.947 11.744 11.744 0 00-3.598-2.104 23.717 23.717 0 00-5.98-1.223l-1.677-.159a2.984 2.984 0 01-.579-.084c.195-.02.392-.02.587 0 .386 0 .948 0 1.678.075 2.066.089 4.109.464 6.072 1.115a11.686 11.686 0 013.723 2.12 10.309 10.309 0 012.768 4.064c.671 1.601 1.149 3.352 2.004 4.978a8.411 8.411 0 001.678 2.221c.679.67 1.459 1.273 2.147 2.019.356.368.66.783.905 1.232.237.45.404.933.495 1.433.13.962.13 1.937 0 2.9-.116.9-.172 1.807-.168 2.715.017.847.26 1.675.705 2.396.922 1.383 2.44 2.171 3.547 3.26a6.22 6.22 0 011.904 3.83 6.017 6.017 0 01-.62 3.478 6.431 6.431 0 01-1.728 2.044c-.445.35-.94.632-1.468.838l-.419.134-.159.026z" fill="#263238"/><path d="M318.559 300.758l3.9 12.252s-11.155 8.07-10.651 10.408l24.036-6.704-5.292-19.333-11.993 3.377z" fill="#8547C6"/><path d="M329.595 309.892a1.03 1.03 0 01.998.931.98.98 0 01-.914.988 1.063 1.063 0 01-1.048-.988 1.022 1.022 0 011.065-.922M336.003 317.217l-.537-1.878-23.072 6.596s-.939.762-.612 1.483l24.221-6.201z" fill="#E0E0E0"/><path d="M322.048 312.993c0 .117.637 0 1.325.226.687.226 1.124.62 1.224.545.101-.075-.268-.704-1.107-.955-.839-.252-1.509.083-1.442.184zM319.799 314.736c0 .126.571.184 1.108.57.536.385.796.838.914.838.117 0 0-.721-.671-1.19s-1.376-.327-1.351-.218zM319.213 318.155c.117 0 .117-.637-.369-1.198-.487-.562-1.099-.662-1.124-.545-.025.117.419.36.838.838.42.478.537.922.655.905zM321.451 310.102c.084.1.571-.218 1.25-.352.679-.134 1.25-.075 1.283-.193.034-.117-.578-.402-1.375-.226-.797.176-1.241.729-1.158.771z" fill="#263238"/><path d="M356.937 314.007l8.177 14.045s-14.182 5.514-14.3 8.154l27.609.134v-2.146l-6.113-20.48-15.373.293z" fill="#8547C6"/><path d="M373.626 326.719a1.123 1.123 0 01.797 1.274 1.084 1.084 0 01-1.25.838 1.202 1.202 0 01-.838-1.357 1.124 1.124 0 011.392-.688M378.423 336.34v-2.146l-26.527.595s-1.216.553-1.065 1.417l27.592.134z" fill="#E0E0E0"/><path d="M365.189 327.918c0 .134.679.184 1.35.612.671.427 1.031.98 1.157.921.126-.058-.092-.838-.914-1.324-.822-.486-1.627-.327-1.593-.209zM362.061 329.334c0 .126.553.344 1.023.913.469.57.604 1.157.738 1.148.134-.008.209-.771-.386-1.458-.595-.687-1.375-.704-1.375-.603zM360.425 332.879c.118 0 .302-.646-.058-1.375-.361-.729-.99-1.014-1.049-.905-.058.109.344.503.629 1.106.285.604.344 1.165.478 1.174zM363.419 324.993c.059.126.671-.075 1.434 0 .763.076 1.359.268 1.426.151.067-.117-.503-.587-1.409-.62-.906-.034-1.518.369-1.451.469z" fill="#263238"/><path d="M376.082 204.849l6.911 18.319 6.298-2.766-5.082-16.877s-5.208-1.039-8.127 1.324zM282.579 174.807s-3.036-.495-4.495-1.567l-9.007-6.704s-1.04-1.333 1.258-1.031c2.297.302 8.177 2.556 8.177 2.556v-2.171l.729-3.477 7.204 6.276-3.866 6.118z" fill="#FFBE9D"/><path d="M301.92 194.768l-19.289-19.961 2.893-6.872 20.313 15.084s-1.401 8.548-3.917 11.749z" fill="#FFBE9D"/><path d="M389.14 220.009c.364.32.706.664 1.023 1.03.671.746 1.577 1.727 2.659 2.917.285.326.57.611.889 1.005a.831.831 0 01.059.838.886.886 0 01-.68.52l-1.493.301-.385.076a.787.787 0 01-.487-.067 1.12 1.12 0 00-.687 0c-.12.035-.235.083-.344.142-.109.059-.126.092-.143.168a.211.211 0 000 .1l.076.201.159.403c.21.544.419 1.089.629 1.676.419 1.131.839 2.304 1.182 3.536.187.607.317 1.23.386 1.86.055.361-.029.73-.235 1.031a.596.596 0 01-.612.159 1.205 1.205 0 01-.478-.226c-2.566-3.352-4.814-6.277-6.39-8.38a9.479 9.479 0 01-1.108-2.924 4.63 4.63 0 01-.176-1.115c.126.351.233.709.319 1.073.261.989.665 1.935 1.199 2.807l6.492 8.304-.042-.041c.201.15.478.217.528.117.111-.22.15-.469.109-.712a9.106 9.106 0 00-.369-1.76 49.12 49.12 0 00-1.166-3.511l-.612-1.676-.159-.403-.076-.201a.626.626 0 010-.31.6.6 0 01.352-.469c.135-.068.275-.124.42-.168.3-.096.622-.096.922 0 .193.067.168.076.294.051l.386-.067 1.492-.277a.548.548 0 00.443-.303.554.554 0 00.055-.272.552.552 0 00-.087-.263c-.251-.31-.57-.67-.838-.972l-2.567-3.017a8.755 8.755 0 01-.939-1.181z" fill="#EB996E"/><path d="M329.89 150.84c-.453.151-4.89 3.117-6.165 5.581-.78 1.492-1.233 10.257-1.233 10.257s-2.717 5.581-1.811 9.503l.906 3.922s.755 16.76 2.113 20.808a15.71 15.71 0 004.193 6.486s12.077-7.693 18.451-9.051a30.77 30.77 0 0111.465-.301 12.47 12.47 0 004.529-4.676c1.358-2.858 1.962-11.908 1.962-11.908l-2.415-32.431-11.264-3.067-4.252-4.592-6.919 5.028-3.472 8.556-1.35-7.601-3.103 3.067-1.635.419z" fill="#8547C6"/><path d="M331.767 204.472a1.893 1.893 0 01-.268-.427c-.24-.421-.45-.858-.629-1.308a19.908 19.908 0 01-1.3-5.162 46.351 46.351 0 01-.117-7.894c.142-2.958.402-6.209.788-9.612a147.756 147.756 0 013.011-17.262c.52-2.188.998-3.939 1.333-5.146.176-.561.311-1.022.42-1.382.039-.166.098-.326.176-.478a2.7 2.7 0 01-.093.503c-.083.36-.201.838-.335 1.399-.294 1.224-.721 2.984-1.199 5.171a168.456 168.456 0 00-2.877 17.246 185.908 185.908 0 00-.839 9.586 48.58 48.58 0 000 7.836 21.441 21.441 0 001.141 5.137c.486 1.131.822 1.743.788 1.793zM356.174 167.784c.126.378 16.58 32.012 16.58 32.012s.839 4.777 2.516 5.657c1.678.879 10.299-2.447 10.299-2.447s-.478-5.866-1.862-8.481c-1.384-2.615-17.863-41.9-18.115-42.369-.252-.47-2.625-3.352-5.032-3.31-2.407.042-4.386 18.938-4.386 18.938zM337.328 162.011c.107-.049.22-.083.336-.101a8.82 8.82 0 01.981-.21 18.663 18.663 0 013.74-.234 37.567 37.567 0 0112.413 2.857l.209.084-.1.21a15.328 15.328 0 00-1.309 4.609v.394h-.167c-3.57.354-7.175.05-10.635-.897a28.32 28.32 0 01-7.279-3.126l-.101-.058.059-.101a283.23 283.23 0 011.375-2.556c.155-.308.331-.605.528-.888-.113.328-.25.647-.41.955-.328.654-.755 1.525-1.275 2.606l-.051-.167a30.207 30.207 0 007.255 2.966 29.495 29.495 0 0010.483.838l-.193.193v-.218a15.7 15.7 0 011.359-4.743l.117.293a39.269 39.269 0 00-12.286-2.983 22.071 22.071 0 00-3.707.101c-.444.081-.892.14-1.342.176zM322.501 164.6c.222-.145.465-.252.721-.318.672-.233 1.359-.42 2.055-.562a17.975 17.975 0 013.145-.36c.322-.027.646-.013.965.042a1.026 1.026 0 01.763.838c.117.712-.168 1.424.092 1.885a.725.725 0 00.101.126l.176.268-.252.092a58.139 58.139 0 00-6.583 3.109h-.109a12.626 12.626 0 01-2.231-.762c.781.1 1.552.266 2.306.494h-.109a42.295 42.295 0 016.567-3.268l-.067.36a1.048 1.048 0 01-.168-.218 1.855 1.855 0 01-.168-1.114c.037-.304.037-.61 0-.914a.584.584 0 00-.453-.502 3.918 3.918 0 00-.838-.042 20.301 20.301 0 00-3.095.259c-1.744.294-2.793.654-2.818.587z" fill="#8547C6"/><path d="M323.725 156.455s-2.516 4.324-3.229 7.097c-.713 2.774-7.263 19.132-7.263 19.132s-2.7-1.517-3.229 1.358l-4.193-1.601-4.629 12.813s10.584 5.271 11.942 5.028c1.359-.243 9.863-2.891 9.863-2.891a39.455 39.455 0 001.837-5.447c.595-2.514 3.774-32.397 3.774-32.397l-4.873-3.092z" fill="#8547C6"/><path d="M321.092 177.488a.944.944 0 01-.52.176 2.95 2.95 0 01-1.51-.184 2.987 2.987 0 01-1.677-1.55 1.933 1.933 0 010-1.408 1.288 1.288 0 011.275-.838 1.368 1.368 0 011.241.938 1.308 1.308 0 01-.52 1.35 1.574 1.574 0 01-1.241.31 1.856 1.856 0 01-.998-.47 1.67 1.67 0 01-.537-1.433c0-.36.159-.536.176-.519.017.017 0 .193 0 .528a1.606 1.606 0 00.57 1.19 1.453 1.453 0 001.787.084.916.916 0 00.36-.931.962.962 0 00-.838-.611.838.838 0 00-.839.586 1.53 1.53 0 000 1.106 2.681 2.681 0 001.401 1.417 4.255 4.255 0 001.87.259z" fill="#fff"/><path d="M326.668 206.148a1.515 1.515 0 01-.403-.268 5.54 5.54 0 01-.931-1.039 16.825 16.825 0 01-2.088-4.651 9.837 9.837 0 01-.378-1.676c-.075-.595-.1-1.199-.159-1.827a192.703 192.703 0 00-.369-4.006c-.285-2.815-.671-5.908-1.099-9.151a53.392 53.392 0 01-.411-9.218c.073-2.529.33-5.05.772-7.542a26.754 26.754 0 011.325-4.919c.162-.432.349-.855.562-1.265a1.93 1.93 0 01.235-.427c.042 0-.252.62-.629 1.751a29.596 29.596 0 00-1.191 4.911 56.189 56.189 0 00-.696 7.483c-.109 3.08.04 6.163.444 9.218.42 3.243.797 6.335 1.065 9.168.135 1.408.244 2.757.328 4.014.05.62.067 1.24.134 1.81.068.548.183 1.089.344 1.617a17.751 17.751 0 001.929 4.643c.346.507.754.969 1.216 1.374zM361.908 149.323a14.46 14.46 0 01-1.677.143 10.605 10.605 0 00-3.807 1.156 11.196 11.196 0 00-3.137 2.514c-.679.771-1.023 1.324-1.082 1.291a4.295 4.295 0 01.839-1.492 9.8 9.8 0 013.162-2.665 9.505 9.505 0 014-1.106 4.297 4.297 0 011.702.159zM331.683 150.731c-.042-.084.789-.519 1.87-1.341l.21-.167.092.268.579 1.818a41.338 41.338 0 011.35 4.006 14.007 14.007 0 01-1.761-3.863 32.073 32.073 0 01-.545-1.852l.302.1a5.357 5.357 0 01-2.097 1.031zM312.931 192.371c-.109 0-.42-1.952-1.191-4.273a22.979 22.979 0 00-1.149-2.9 8.469 8.469 0 01-.587-1.165c.042 0 .428.319.839 1.023a13.62 13.62 0 011.291 2.907c.814 2.364.931 4.4.797 4.408zM317.175 188.349c-.126.042-.637-1.441-1.761-2.983-1.124-1.542-2.365-2.514-2.29-2.615a8.233 8.233 0 014.051 5.598z" fill="#263238"/><path opacity=".3" d="M321.728 166.879c-1.216 4.953-2.424 9.679-2.449 14.783a31.66 31.66 0 003.606 15.159c-.193-2.388-.402-5.028-.713-7.441-1.199-9.277-1.358-15.084-.461-22.501M310.113 184.016a20.152 20.152 0 012.759 3.352 6.7 6.7 0 011.082 4.123c-.004.2-.065.395-.176.562a.426.426 0 01-.536.126.67.67 0 01-.21-.403 35.906 35.906 0 00-2.877-7.785M372.753 199.796a15.19 15.19 0 014.118-2.078c1.606-.38 3.26-.513 4.906-.394.238.013.472-.059.662-.201a.566.566 0 00.269-.595c-.084-.31-.453-.419-.772-.461a10.199 10.199 0 00-9.225 3.729" fill="#000"/><path d="M383.186 197.567c0 .159-2.516-.486-5.443.151a17.201 17.201 0 00-4.973 2.145c.338-.434.76-.796 1.241-1.064a10.636 10.636 0 013.648-1.509 11.679 11.679 0 013.942-.134 4.766 4.766 0 011.585.411z" fill="#263238"/><path d="M331.643 179.709a1.24 1.24 0 01-.277.218c-.295.177-.614.31-.948.394a3.888 3.888 0 01-1.677 0 3.788 3.788 0 01-1.929-.981 3.64 3.64 0 01-1.04-2.413 3.841 3.841 0 01.989-2.849 2.11 2.11 0 01.68-.52 1.234 1.234 0 01.939-.1.913.913 0 01.604.838 1.239 1.239 0 01-.302.93 2.99 2.99 0 01-1.635.838 4.284 4.284 0 01-1.845 0 4.759 4.759 0 01-2.953-2.011 3.488 3.488 0 01-.377-3.302c.237-.509.66-.908 1.183-1.115a1.68 1.68 0 011.534.143 2.26 2.26 0 01.982 2.405 3.482 3.482 0 01-1.141 1.852 5.831 5.831 0 01-1.367.838c-.302.15-.613.281-.931.394-.218.084-.335.117-.344.1-.008-.016.436-.226 1.199-.645.465-.246.896-.55 1.284-.905a3.31 3.31 0 00.998-1.726 1.953 1.953 0 00-.839-2.037 1.359 1.359 0 00-1.216-.092c-.425.178-.767.51-.956.93a3.152 3.152 0 00.369 2.9 4.424 4.424 0 002.692 1.818 4.19 4.19 0 001.677 0 2.68 2.68 0 001.392-.695c.319-.335.269-.956-.109-1.065a1.27 1.27 0 00-1.19.503 3.529 3.529 0 00-.923 2.556c.017.823.337 1.61.897 2.213a3.782 3.782 0 003.313.997 6.07 6.07 0 001.267-.411zM357.849 170.675a11.708 11.708 0 00-2.692 1.744 9.728 9.728 0 00-2.264 2.974 9.414 9.414 0 00-.772 2.196 5.24 5.24 0 00-.042 2.514 1.094 1.094 0 00.898.779 1.29 1.29 0 001.165-.503 5.024 5.024 0 00.579-2.932 5.92 5.92 0 00-4.177-5.256 5.93 5.93 0 00-6.407 2.012 6.157 6.157 0 00-.922 1.718 1.967 1.967 0 00-.16.905c.031.299.164.577.378.788a1.46 1.46 0 001.677.293c.536-.389.94-.933 1.157-1.558.48-1.279.51-2.683.084-3.981a7.724 7.724 0 00-2.08-3.352 6.62 6.62 0 00-3.354-1.751 5.219 5.219 0 00-3.523.595 4.617 4.617 0 00-2.18 2.572 3.547 3.547 0 00.402 3.084 2.572 2.572 0 002.617 1.006 2.073 2.073 0 001.577-1.969 2.552 2.552 0 00-1.007-2.196 3.301 3.301 0 00-2.13-.687 4.913 4.913 0 00-3.355 1.45 8.202 8.202 0 00-1.3 1.986l-.293.544a.677.677 0 01-.118.185s0-.076.076-.201c.075-.126.151-.344.26-.57.3-.753.725-1.45 1.258-2.062a5.031 5.031 0 013.438-1.575 3.507 3.507 0 012.307.712 2.865 2.865 0 011.14 2.43 2.696 2.696 0 01-.494 1.417c-.32.433-.789.732-1.317.838a2.915 2.915 0 01-2.986-1.123 3.932 3.932 0 01-.478-3.411 5.026 5.026 0 012.357-2.807 5.572 5.572 0 013.791-.654 6.986 6.986 0 013.564 1.852 8.105 8.105 0 012.197 3.52 6.396 6.396 0 01-.092 4.273 5.232 5.232 0 01-.528.973c-.2.349-.49.638-.839.838a1.87 1.87 0 01-2.181-.378 1.722 1.722 0 01-.503-1.039 2.573 2.573 0 01.185-1.097c.232-.66.566-1.279.989-1.836a6.058 6.058 0 013.355-2.195 6.598 6.598 0 013.849.184 6.003 6.003 0 012.894 2.238 6.687 6.687 0 011.182 3.251 5.229 5.229 0 01-.679 3.168 1.593 1.593 0 01-1.468.611 1.416 1.416 0 01-.738-.335 1.638 1.638 0 01-.411-.662 3.355 3.355 0 01-.134-1.408c.041-.436.108-.87.201-1.299.185-.78.467-1.535.839-2.245a9.92 9.92 0 012.365-2.992 8.867 8.867 0 012.03-1.316c.187-.092.38-.17.578-.234l.235-.026zM372.225 168.53a1.676 1.676 0 01-.092.511c-.156.479-.42.914-.771 1.274a3.844 3.844 0 01-5.099.369 5.03 5.03 0 01-2.03-3.176 6.698 6.698 0 01.688-4.274 3.442 3.442 0 011.677-1.726 1.362 1.362 0 011.342.142 1.56 1.56 0 01.57 1.24 2.764 2.764 0 01-1.468 2.154 6.793 6.793 0 01-2.465.981 7.179 7.179 0 01-5.032-.989 5.082 5.082 0 01-1.728-1.802 3.245 3.245 0 01-.402-2.38 2.116 2.116 0 011.719-1.517 2.602 2.602 0 012.105.562c.517.47.843 1.115.914 1.81a3.456 3.456 0 01-.293 1.835 4.433 4.433 0 01-2.298 2.095 6.6 6.6 0 01-2.307.495 8.989 8.989 0 01-1.476-.059 1.846 1.846 0 01-.511-.084c0-.042.712.059 1.979 0a6.516 6.516 0 002.214-.536 4.19 4.19 0 002.113-2.011 2.813 2.813 0 00-.57-3.235 2.217 2.217 0 00-1.803-.461 1.687 1.687 0 00-.892.41 1.688 1.688 0 00-.509.839 2.879 2.879 0 00.378 2.069 4.754 4.754 0 001.602 1.676 6.71 6.71 0 004.73.914 6.272 6.272 0 002.298-.905 2.351 2.351 0 001.283-1.793 1.136 1.136 0 00-.394-.906.96.96 0 00-.94-.092 3.017 3.017 0 00-1.476 1.525 6.3 6.3 0 00-.687 4.023 4.716 4.716 0 001.853 2.992 3.71 3.71 0 002.793.745 3.828 3.828 0 002.004-.989 3.752 3.752 0 00.981-1.726z" fill="#fff"/><path opacity=".3" d="M352.658 161.24c.638 4.19 1.283 8.489 2.894 12.444 1.61 3.955 4.294 7.634 8.093 9.595a382.877 382.877 0 00-10.5-21.788" fill="#000"/><path d="M364.3 184.033a4.638 4.638 0 01-.528-.838l-1.317-2.472c-1.09-2.095-2.574-5.028-4.193-8.212a439.649 439.649 0 01-4.076-8.271l-1.191-2.514a5.575 5.575 0 01-.386-.956c.214.256.395.537.537.838l1.317 2.472c1.09 2.087 2.575 5.028 4.193 8.213a411.744 411.744 0 014.076 8.279l1.191 2.514c.162.3.289.618.377.947zM350.821 146.348a4.44 4.44 0 01-.595.403c-.394.268-.973.653-1.678 1.223-.704.57-1.476 1.341-2.415 2.221a18.272 18.272 0 01-3.514 2.639l-.134.076-.076-.134c-1.014-1.835-1.954-4.014-3.17-6.277h.336c-2.047 5.355-5.083 11.573-6.592 18.763a54.494 54.494 0 00-1.091 14.43 59.095 59.095 0 002.005 11.674c.839 3.268 1.878 5.824 2.516 7.6l.839 2.02.201.528c.042.126.059.184.05.193a59.419 59.419 0 01-3.9-10.257 57.649 57.649 0 01-2.105-11.732 53.96 53.96 0 011.065-14.548 63.942 63.942 0 013.137-10.14l3.539-8.673.151-.369.185.344c1.207 2.296 2.121 4.475 3.111 6.31l-.21-.059c2.835-1.559 4.512-3.662 5.98-4.726a12.402 12.402 0 012.365-1.509z" fill="#263238"/><path d="M327.918 207.43l5.183 19.081 5.653 38.967s13.049 39.923 14.374 43.325c1.325 3.402 6.517 14.196 6.517 14.196l15.591-5.196s-4.294-18.168-6.215-24.964a85.485 85.485 0 00-5.619-13.886l-5.175-32.799-.285-29.112-1.182-19.626s-13.914-3.888-28.842 10.014z" fill="#263238"/><path d="M335.81 304.58s-5.678-18.395-7.883-27.11c-2.206-8.715-4.261-14.598-4.261-14.598s2.055-1.76 3.531-2.924c1.476-1.165 19.214-12.906 19.214-12.906s19.172-9.888 20.698-19.944c1.476-9.746.151-13.207-3.992-19.827a95.642 95.642 0 01-5.309-9.218l-1.048-.654-16.111 11.028-1.216 11.498s-25.353 20.313-28.749 24.771c-3.397 4.458-8.689 11.824-6.03 20.548 2.658 8.723 12.445 43.467 12.445 43.467l18.711-4.131z" fill="#263238"/><path d="M323.474 263.342a11.09 11.09 0 00-3.606-1.869 10.906 10.906 0 00-4.059 0 2.516 2.516 0 011.157-.453 6.778 6.778 0 013.009.059 6.746 6.746 0 012.685 1.358c.596.469.856.879.814.905zM360.443 236.014c.067.101-8.11 6.135-18.275 13.484s-18.451 13.215-18.535 13.123c-.083-.092 8.11-6.134 18.275-13.484 10.165-7.349 18.467-13.215 18.535-13.123zM340.859 219.657a36.25 36.25 0 01-4.243 3.528 33.801 33.801 0 01-4.512 3.176 36.054 36.054 0 014.243-3.528 34.37 34.37 0 014.512-3.176zM337.982 220.285a11.666 11.666 0 01-1.3-2.128 50.008 50.008 0 01-2.516-5.473 48.837 48.837 0 01-1.803-5.732 11.488 11.488 0 01-.453-2.447c.305.77.558 1.56.755 2.364a80.055 80.055 0 001.904 5.665 72.015 72.015 0 002.348 5.488c.405.73.76 1.486 1.065 2.263z" fill="#455A64"/><path d="M244.681 273.699l3.9 12.252s-11.146 8.07-10.643 10.408l24.037-6.704-5.301-19.333-11.993 3.377z" fill="#8547C6"/><path d="M255.725 282.833a1.033 1.033 0 01.99.931.968.968 0 01-.923.988 1.072 1.072 0 01-1.048-.988 1.024 1.024 0 011.065-.922M262.124 290.149l-.461-1.877-23.081 6.595s-.939.763-.603 1.483l24.145-6.201z" fill="#E0E0E0"/><path d="M248.16 285.934c0 .117.637 0 1.317.226.679.227 1.132.62 1.224.545.092-.075-.268-.704-1.099-.955-.83-.252-1.501.083-1.442.184zM245.931 287.677c0 .126.57.184 1.107.57.537.385.797.838.914.838.117 0 0-.721-.671-1.19s-1.384-.327-1.35-.218zM245.334 291.096c.118 0 .118-.637-.36-1.198-.478-.562-1.107-.662-1.124-.545-.017.117.411.36.797.838.386.478.57.922.687.905zM247.582 283.043c.076.092.571-.218 1.25-.36.679-.143 1.249-.076 1.283-.193.034-.117-.587-.394-1.375-.218-.789.176-1.242.696-1.158.771z" fill="#263238"/><path d="M196.415 251.568l8.219 14.078s-14.182 5.514-14.257 8.154l27.617.125v-2.145l-6.114-20.472-15.465.26z" fill="#8547C6"/><path d="M213.106 264.288a1.133 1.133 0 01.838 1.274 1.077 1.077 0 01-1.258.838 1.18 1.18 0 01-.839-1.349 1.106 1.106 0 011.393-.687M217.91 273.9v-2.145l-26.527.603s-1.216.553-1.065 1.417l27.592.125z" fill="#E0E0E0"/><path d="M204.635 265.487c0 .134.679.184 1.35.603s1.032.981 1.157.93c.126-.05-.092-.838-.914-1.324-.822-.486-1.593-.335-1.593-.209zM201.539 266.928c0 .134.554.352 1.023.914.47.561.612 1.164.747 1.156.134-.008.201-.771-.386-1.458-.587-.687-1.384-.738-1.384-.612zM199.904 270.448c.126 0 .302-.646-.059-1.383s-.99-1.014-1.048-.897c-.059.118.344.503.629 1.106.285.604.344 1.165.478 1.174zM202.897 262.562c.059.117.671-.075 1.435 0 .763.076 1.358.268 1.434.151.075-.117-.512-.587-1.409-.62-.898-.034-1.527.36-1.46.469z" fill="#263238"/><path d="M208.752 44.523l.663-.042c7.187-.067 11.247 6 11.154 13.173l1.787 28.937-12.488 11.732-4.78-5.925-.336-6.193-.277-5.195s-6.944-.604-7.489-7.467c-.268-3.352-.252-10.182-.168-16.4a12.827 12.827 0 013.506-8.633 12.843 12.843 0 018.428-3.987z" fill="#FFBE9D"/><path d="M204.424 81.026a16.068 16.068 0 008.797-3.15s-1.786 5.086-8.688 4.927l-.109-1.777z" fill="#784D48"/><path d="M198.545 62.012a.98.98 0 001.006.93.948.948 0 00.956-.93.986.986 0 00-1.014-.93.935.935 0 00-.873.572.922.922 0 00-.075.358zM198.353 60.06c.126.125.838-.478 1.895-.545 1.057-.067 1.862.41 1.971.268.109-.142-.092-.285-.444-.503a2.697 2.697 0 00-3.087.218c-.31.268-.402.511-.335.562zM208.248 61.325a.99.99 0 001.015.93.943.943 0 00.88-.589.938.938 0 00.068-.366.99.99 0 00-1.007-.93.944.944 0 00-.885.588.942.942 0 00-.071.367zM208.501 59.096c.117.126.838-.394 1.937-.344 1.099.05 1.812.612 1.937.486.126-.126-.058-.293-.385-.553a2.71 2.71 0 00-1.543-.544 2.594 2.594 0 00-1.552.427c-.335.235-.453.46-.394.528zM205.565 68.004a6.819 6.819 0 00-1.736-.193c-.269 0-.529-.05-.588-.226a1.393 1.393 0 01.126-.838c.21-.67.428-1.375.663-2.112a33.647 33.647 0 001.426-5.489 36.602 36.602 0 00-1.871 5.363c-.218.738-.419 1.442-.62 2.12a1.52 1.52 0 00-.067 1.065.683.683 0 00.469.368c.153.02.308.02.462 0a6.803 6.803 0 001.736-.058zM208.425 55.308c.118.277 1.166.075 2.416.134 1.249.059 2.273.344 2.424.075.067-.134-.126-.385-.554-.636a4.144 4.144 0 00-3.682-.16c-.444.243-.662.487-.604.587zM198.428 57.11c.202.226.914-.067 1.787-.134.872-.067 1.627.05 1.778-.21.067-.134-.068-.36-.403-.57a2.517 2.517 0 00-1.484-.293 2.459 2.459 0 00-1.393.578c-.293.268-.377.503-.285.629z" fill="#263238"/><path d="M220.309 62.775c.109-.06 4.629-1.676 4.788 3 .16 4.676-4.596 3.896-4.604 3.762-.008-.134-.184-6.762-.184-6.762z" fill="#FFBE9D"/><path d="M221.868 67.702s.084.059.226.117a.839.839 0 00.612 0 2.034 2.034 0 00.839-1.852 2.701 2.701 0 00-.268-1.165.953.953 0 00-.638-.611.42.42 0 00-.478.243c-.058.134 0 .226-.05.234-.05.009-.101-.075-.076-.268a.493.493 0 01.177-.301.627.627 0 01.452-.143 1.151 1.151 0 01.839.704c.246.388.39.832.419 1.29a2.106 2.106 0 01-1.123 2.079.84.84 0 01-.755-.1c-.168-.11-.193-.219-.176-.227z" fill="#784D48"/><path d="M195.475 49.19a2.393 2.393 0 011.678-2.036 2.144 2.144 0 011.81-3.162c.488-.018.968.13 1.36.422a2.207 2.207 0 01.88-1.815 2.218 2.218 0 011.988-.347 1.85 1.85 0 011.232-1.925 1.854 1.854 0 012.165.735 3.206 3.206 0 014.948-.746 4.095 4.095 0 015.107 1.86 3.885 3.885 0 013.598 2.43 2.843 2.843 0 012.39 4.291 2.103 2.103 0 01.663 3.285 2.124 2.124 0 011.275 1.802 2.106 2.106 0 01-1.082 1.927c.696 0 1.04.939.839 1.618-.244.65-.524 1.284-.839 1.902-.185.545-.21 1.131-.369 1.676a3.747 3.747 0 01-2.072 2.363l.135.134c.167.595-.646 1.064-1.233.838a3.07 3.07 0 01-1.3-1.257 6.827 6.827 0 01-1.116-1.793 1.675 1.675 0 01.52-1.894 2.442 2.442 0 01-1.618-1.835 7.22 7.22 0 010-2.514c.142-1.257.276-2.514.419-3.771a4.725 4.725 0 01-4.235-2.389 2.692 2.692 0 01-3.967-.695 3.51 3.51 0 01-4.118 2.447c.252.964-1.434 1.986-2.373 2.304a3.468 3.468 0 01-2.181-.276s-1.585 1.09-2.516.788c-.931-.302-2.18-1.341-1.677-2.313a4.331 4.331 0 01-.311-2.053z" fill="#263238"/><path d="M223.53 52.132c-.05 0-.05.327-.428.637a.835.835 0 01-.755.184.934.934 0 01-.704-.645l-.075-.277-.202.21a1.294 1.294 0 01-1.283.285 1.263 1.263 0 01-.839-1.199v-.276l-.251.126a1.225 1.225 0 01-1.56-.411 2.821 2.821 0 01-.285-.67s-.126.301.117.77c.149.279.389.498.679.62a1.515 1.515 0 001.191 0l-.234-.158a1.538 1.538 0 00.924 1.507 1.542 1.542 0 001.734-.351l-.277-.067a1.217 1.217 0 00.973.838 1.12 1.12 0 00.948-.31c.436-.453.352-.838.327-.813zM224.545 56.582a2.651 2.651 0 01-.495.226 1.106 1.106 0 01-1.208-.419l-.109-.16-.117.152a1.28 1.28 0 01-1.174.419 1.233 1.233 0 01-.956-1.04v-.31l-.252.185a.648.648 0 01-.209.117.841.841 0 01-.973-.251.92.92 0 01-.101-.93l.159-.31-.327.075c-.38.082-.777.013-1.107-.193a1.46 1.46 0 01-.578-.679 3.236 3.236 0 01-.16-.838 1.076 1.076 0 000 .88c.107.339.322.633.612.838a1.685 1.685 0 001.309.277l-.168-.226a1.191 1.191 0 001.778 1.508l-.285-.117a1.507 1.507 0 001.982 1.26c.285-.096.536-.275.718-.514h-.226a1.188 1.188 0 00.839.486c.231.04.469.017.687-.068.285-.142.378-.36.361-.368zM203.795 42.101c.149-.144.322-.26.512-.343.222-.081.465-.081.687 0a1.024 1.024 0 01.612.645l.084.26.126-.252a1.726 1.726 0 011.392-.905 1.68 1.68 0 011.678 1.073l.109.301.176-.268a2.085 2.085 0 011.576-.888 1.988 1.988 0 011.728.838c.165.22.285.47.352.738l.042.184.185-.059a2.014 2.014 0 012.306.897 2.042 2.042 0 01-.176 2.22l-.168.202h.26a2.19 2.19 0 011.468.838c.275.339.439.754.47 1.19.006.392-.051.782-.168 1.156 0 0 .075-.084.159-.276.121-.28.179-.584.168-.889 0-.487-.159-.96-.453-1.349a2.418 2.418 0 00-1.619-.947l.093.235a2.358 2.358 0 00.251-2.564 2.327 2.327 0 00-2.709-1.073l.227.134a2.417 2.417 0 00-.411-.838 2.367 2.367 0 00-2.038-.955 2.425 2.425 0 00-1.887 1.022h.285a1.909 1.909 0 00-1.715-1.255 1.91 1.91 0 00-1.816 1.104h.21a1.191 1.191 0 00-.78-.737 1.065 1.065 0 00-.788.058c-.15.071-.282.174-.386.302-.042.142-.042.193-.042.201z" fill="#455A64"/><path d="M208.727 68.523c-.176 0-.1 1.148-1.023 2.028-.922.88-2.155.838-2.155.997 0 .16.285.202.838.185a2.896 2.896 0 001.804-.771c.463-.44.742-1.039.78-1.676-.017-.495-.143-.771-.244-.763z" fill="#263238"/><path d="M278.218 167.391l1.862-8.883s-6.559-4.517-10.333-4.517l-7.548 5.455s1.627 7.877 3.59 8.699c.478.192 1.233 1.148 2.952.712a76.178 76.178 0 019.477-1.466zM262.225 159.421s-8.471-13.609-9.452-17.874c0 0-.352-4.417 9.393-2.104l7.548 14.548" fill="#FFBE9D"/><path d="M277.313 167.181a1.228 1.228 0 01-.184-.662c-.03-.64.061-1.279.268-1.885.35-.86.474-1.795.361-2.716a1.605 1.605 0 00-.906-1.181 1.09 1.09 0 00-1.367.452l-.142.369-.227-.335a1.351 1.351 0 00-1.326-.567 1.35 1.35 0 00-1.089.944l-.252.838-.176-.913v-.076a1.273 1.273 0 00-.687-.712 1.277 1.277 0 00-.99 0 2.5 2.5 0 00-1.275 1.609l-.075.26-.227-.151a1.41 1.41 0 00-1.4 0 1.984 1.984 0 00-.94 1.005 6.4 6.4 0 00-.394 2.389 4.472 4.472 0 01-.369 2.195c.013-.194.038-.387.075-.578.057-.537.074-1.078.051-1.617a6.05 6.05 0 01.327-2.514 2.365 2.365 0 011.073-1.207 1.782 1.782 0 011.795 0l-.302.109a2.946 2.946 0 011.493-1.886 1.757 1.757 0 011.35 0 1.47 1.47 0 01.956 1.039v.126l-.427-.042a1.772 1.772 0 011.441-1.253 1.775 1.775 0 011.746.776h-.369a1.304 1.304 0 01.838-.713 1.675 1.675 0 011.04.051 1.973 1.973 0 011.116 1.466 5.567 5.567 0 01-.462 2.883 5.657 5.657 0 00-.385 1.793c-.009.469.067.696.041.704z" fill="#784D48"/><path d="M268.709 168.857c-.126 0 .142-1.517.235-3.352.092-1.835 0-3.352.117-3.352a8.027 8.027 0 01.319 3.352 8.149 8.149 0 01-.671 3.352zM272.389 161.55a10.644 10.644 0 01-.394 6.796c-.117 0 .218-1.525.319-3.352s-.05-3.428.075-3.444zM275.292 161.072a7.477 7.477 0 01.159 3.293 7.346 7.346 0 01-.906 3.176c-.117-.042.269-1.449.47-3.226.201-1.776.151-3.235.277-3.243zM276.423 160.427c-.042 0-.285-.243-.671-.746l.168.059a6.671 6.671 0 01-3.271.402 6.812 6.812 0 01-2.86-1.031c-.662-.427-.972-.838-.939-.838a11.261 11.261 0 003.858 1.433 7.92 7.92 0 003.12-.235h.109l.05.084c.319.503.487.838.436.872z" fill="#784D48"/><path d="M255.508 251.693c-2.927-15.419-10.719-28.492-10.903-29.539-.185-1.048-2.893-14.38-2.893-14.38s3.27-34.467 2.516-40.467c-.755-6-49.557-5.079-49.557-5.079s-13.847 44.959-12.941 53.046c.906 8.087 17.797 47.858 17.797 47.858l15.758-.117-13.419-48.437 13.604-36.034s3.086 23.816 4.679 29.9c1.804 6.897 6.668 24.436 9.519 29.749 2.852 5.313 6.206 9.335 7.179 15.352.973 6.017 8.102 30.629 8.102 30.629l15.331-3.226s-1.703-13.064-4.772-29.255z" fill="#263238"/><path d="M216.987 189.564a14.816 14.816 0 01-.554-2.791c-.26-1.743-.553-4.19-.838-6.821a152.417 152.417 0 01-.571-6.846 17.968 17.968 0 01-.092-2.85c.2.931.332 1.875.394 2.825l.705 6.829c.26 2.598.503 4.953.688 6.822.145.938.235 1.883.268 2.832zM241.536 173.843a3.861 3.861 0 01-1.602 0 9.463 9.463 0 01-6.315-4.19 3.804 3.804 0 01-.654-1.466c.33.409.632.841.906 1.29a11.072 11.072 0 002.708 2.59 10.937 10.937 0 003.447 1.399 12.03 12.03 0 011.51.377zM202.907 166.98c.042 0-.277.486-.956 1.073a9.232 9.232 0 01-6.542 2.061 3.365 3.365 0 01-1.409-.318 15.107 15.107 0 004.764-.52 15.405 15.405 0 004.143-2.296zM201.757 213.9c0 .125-1.417-.21-3.145-.202-1.727.009-3.119.327-3.153.202a8.091 8.091 0 016.298 0z" fill="#455A64"/><path d="M244.194 154.443c-1.174-6.544-2.315-11.271-2.315-11.271l-2.86-17.849-1.954-38.858-14.819-4.81s-7.062 5.438-11.331 5.681a8.39 8.39 0 01-6.466-2.128l-9.225 5.321-3.615 8.204 3.355 39.193s1.266 23.196-.914 25.559c.595.361 12.53 1.986 20.589 2.875 5.988.653 16.472 0 21.856-.386 2.273-.167 5.636 2.02 8.613 2.958l-.545-11.053a25.576 25.576 0 00-.369-3.436z" fill="#8547C6"/><path d="M255.558 125.315c-.185-.906-9.108-28.325-9.964-29.959-2.566-4.91-8.571-8.891-8.571-8.891-7.816 2.983-4.856 20.02-4.856 20.02l6.19 17.271 6.147 14.849 15.096 20.112c4.671-2.757 11.087-5.765 11.087-5.765l-15.129-27.637z" fill="#8547C6"/><path d="M166.483 118.619l-6.633-3.888-9.83-.361s-.394 1.274 1.577 2.045c1.81.561 3.679.912 5.569 1.047 0 0-1.434-.184 1.535 2.322a11.434 11.434 0 006.852 2.438l.93-3.603z" fill="#FFBE9D"/><path d="M150.834 114.94s-3.288.461-4.135 1.257c-.847.796-.461 1.366-.21 1.626.252.26 1.938.109 2.407-.143a18.446 18.446 0 013.103-.528s-3.086 1.207-3.396 2.162c-.31.956 1.031 1.551 1.031 1.551s-.838 1.399-.31 2.12a1.672 1.672 0 001.099.779s-.839.956-.109 1.676c.729.721 3.48.176 3.48.176s1.585.604 2.307.302c.721-.302 9.367-.687 9.367-.687l.797-5.766-13.083-3.989-2.348-.536z" fill="#FFBE9D"/><path d="M152.863 119.926c-.118-.05 0-.519 0-1.089s-.042-1.039.075-1.073c.118-.033.386.436.361 1.09-.025.653-.336 1.114-.436 1.072zM149.635 120.865c0-.067.277-.101.679-.185.227-.044.444-.132.637-.259a.96.96 0 00.428-.595.787.787 0 00-.268-.654c-.17-.15-.37-.261-.587-.327-.394-.134-.671-.193-.663-.26.009-.067.277-.1.738 0 .284.041.552.154.78.327a1.122 1.122 0 01.428 1.014 1.26 1.26 0 01-.637.88 1.749 1.749 0 01-.839.218c-.436-.034-.696-.109-.696-.159z" fill="#784D48"/><path d="M149.635 120.865a2.339 2.339 0 011.09-.176 3.02 3.02 0 011.216.234c.231.097.448.224.646.377.214.189.379.428.478.696.119.263.151.556.092.838a1.132 1.132 0 01-.528.637 3.106 3.106 0 01-1.191.369c-.696.075-1.116-.067-1.107-.118a9.65 9.65 0 011.057-.184c.36-.078.706-.214 1.023-.402a.773.773 0 00.335-.419c.031-.2.002-.404-.084-.587a1.356 1.356 0 00-.352-.528 3.543 3.543 0 00-.537-.343 3.254 3.254 0 00-1.065-.285c-.654-.034-1.073-.042-1.073-.109z" fill="#784D48"/><path d="M151.799 125.817c0-.05.319-.067.839-.293l.394-.184a1.68 1.68 0 00.403-.193c.159-.134.075-.344-.294-.553a6.995 6.995 0 00-1.879-.687c-.503-.092-.838-.092-.838-.16 0-.067.327-.167.88-.142.731.05 1.441.262 2.08.62.092.057.179.121.26.193a.84.84 0 01.244.31.61.61 0 01-.202.737c-.16.102-.335.175-.52.218l-.419.126c-.621.176-1.006.084-.948.008zM153.023 120.739c0 .126-.402.184-.838.243-.437.059-.839.101-.889 0-.051-.101.318-.344.838-.411s.898.051.889.168zM155.898 124.761a7.954 7.954 0 00-.184-3.352 4.952 4.952 0 00-.495-1.039l-.05-.083v-.084a2.874 2.874 0 000-1.534c-.093-.369-.21-.586-.168-.612.042-.025.226.143.411.528.237.544.287 1.151.142 1.727v-.168c.237.348.426.725.562 1.123.278.808.339 1.675.176 2.514-.125.654-.352 1.006-.394.98zM161.225 122.826c0 .05-.361.092-.915 0a4.779 4.779 0 01-1.979-1.039 4.666 4.666 0 01-1.275-1.827c-.201-.545-.209-.897-.159-.914a9.587 9.587 0 001.728 2.414 9.228 9.228 0 002.6 1.366z" fill="#784D48"/><path d="M163.422 122.046c-.202 0-.401-.04-.587-.117a9.364 9.364 0 01-1.493-.612 11.1 11.1 0 01-4.059-3.553l.176.092h-.57a13.3 13.3 0 01-5.586-1.483 2.926 2.926 0 01-1.233-1.282c-.176-.402-.125-.654-.1-.645.025.008.05.226.251.569.304.47.73.846 1.233 1.09a14.735 14.735 0 005.452 1.316h.67l.068.092a11.74 11.74 0 003.841 3.528c1.157.687 1.954.938 1.937 1.005z" fill="#784D48"/><path d="M191.576 93.353c-1.132 2.782-6.768 30.378-6.768 30.378l-18.325-7.249s-4.63 12.771-5.259 12.57c-.629-.201 24.691 11.665 29.312 9.922 4.067-1.525 4.78-8.179 4.78-8.179l9.15-45.595s-10.466 2.195-12.89 8.153z" fill="#8547C6"/><path d="M238.483 158.868a8.776 8.776 0 01-1.417.503c-.461.151-1.032.327-1.677.503-.646.176-1.418.394-2.265.57-1.677.393-3.723.762-5.996 1.064a67.28 67.28 0 01-7.439.494 68.383 68.383 0 01-7.448-.394c-2.272-.268-4.31-.603-6.004-.98-.839-.168-1.602-.377-2.273-.545a25.753 25.753 0 01-1.678-.469 8.976 8.976 0 01-1.417-.486c.496.075.986.182 1.468.318.461.126 1.04.268 1.677.403.638.134 1.426.335 2.273.477 1.677.335 3.724.637 5.988.88 2.461.246 4.932.366 7.405.36a73.543 73.543 0 007.389-.46c2.265-.277 4.294-.604 5.98-.964.838-.159 1.602-.352 2.273-.511.671-.16 1.241-.294 1.677-.419.487-.146.983-.261 1.484-.344zM229.701 103.61c.285.409.54.837.763 1.282a66.46 66.46 0 011.803 3.663c1.451 3.125 3.271 7.542 5.209 12.394l4.956 12.486 1.543 3.771c.218.45.395.918.529 1.399a10.75 10.75 0 01-.688-1.332c-.411-.838-.99-2.137-1.677-3.713-1.367-3.159-3.145-7.542-5.074-12.452-1.929-4.911-3.707-9.277-5.083-12.428a154.552 154.552 0 00-1.677-3.704 10.944 10.944 0 01-.604-1.366zM239.02 89.356c0 .075-.755.21-1.896.67a12.357 12.357 0 00-6.667 6.537c-.486 1.131-.637 1.894-.713 1.877a5.204 5.204 0 01.428-1.986 11.243 11.243 0 016.852-6.704 5.212 5.212 0 011.996-.394z" fill="#263238"/><path d="M226.264 82.962a2.197 2.197 0 01-.327.344l-1.006.921-3.682 3.352a259.212 259.212 0 00-11.741 11.632c-4.437 4.693-8.211 9.151-10.903 12.419l-3.162 3.888-.839 1.056c-.201.235-.31.361-.327.344.073-.143.16-.278.26-.402l.839-1.098c.696-.964 1.744-2.321 3.053-3.981 2.625-3.352 6.39-7.81 10.819-12.52a194.69 194.69 0 0111.842-11.564c1.576-1.416 2.868-2.514 3.782-3.293l1.057-.838c.1-.1.213-.188.335-.26zM236.025 86.188a3.325 3.325 0 01-.419.486l-1.267 1.316-4.696 4.894c-3.942 4.19-9.326 9.939-15.046 16.542a400.892 400.892 0 00-14.157 17.313l-4.118 5.38-1.123 1.467a2.952 2.952 0 01-.42.494 4 4 0 01.344-.545c.269-.377.621-.838 1.057-1.516a218.119 218.119 0 014.017-5.464c3.439-4.584 8.387-10.785 14.081-17.397a353.424 353.424 0 0115.155-16.467 292.35 292.35 0 014.789-4.802l1.333-1.282c.142-.155.299-.296.47-.419zM231.472 107.758a2.846 2.846 0 01-.378.428l-1.115 1.156c-1.006 1.039-2.407 2.514-4.126 4.249a386.649 386.649 0 00-13.176 14.422 386.538 386.538 0 00-12.395 15.084l-3.615 4.693-.989 1.273c-.107.156-.231.3-.369.428.085-.169.186-.329.302-.478l.922-1.324c.839-1.148 2.004-2.782 3.506-4.776a294.341 294.341 0 0112.303-15.202c4.998-5.774 9.728-10.785 13.259-14.33 1.761-1.776 3.204-3.201 4.194-4.19l1.174-1.106c.156-.126.324-.235.503-.327zM200.54 159.765a7.609 7.609 0 01-1.761 1.885 7.76 7.76 0 01-2.054 1.559 7.613 7.613 0 011.761-1.886 7.757 7.757 0 012.054-1.558zM236.654 120.672a2.534 2.534 0 01-.327.411l-1.006 1.131-3.732 4.114a1219.315 1219.315 0 00-12.228 13.626 1253.657 1253.657 0 00-12.018 13.819l-3.615 4.19-.998 1.131a2.63 2.63 0 01-.369.377c.082-.157.184-.303.302-.435l.931-1.182c.839-1.031 2.021-2.514 3.514-4.299a602.983 602.983 0 0111.926-13.911 598.51 598.51 0 0112.328-13.542c1.611-1.676 2.919-3.084 3.833-4.022l1.065-1.073c.121-.124.253-.236.394-.335zM240.344 135.387c-.25.401-.53.782-.839 1.14-.545.712-1.358 1.735-2.382 2.975-2.046 2.514-4.948 5.866-8.302 9.461a210.171 210.171 0 01-8.874 8.933 100.266 100.266 0 01-2.809 2.581c-.337.323-.695.623-1.074.897.287-.37.607-.712.957-1.023l2.717-2.673a339.548 339.548 0 008.764-9.008c3.355-3.587 6.281-6.931 8.387-9.361l2.516-2.891c.288-.365.602-.71.939-1.031zM212.794 162.027c.067.109-.772.646-1.518 1.576a16.847 16.847 0 00-1.149 1.726l-.227.293.101-.31c0-.075.05-.109.076-.109.025 0 0 0 .058.109h-.126a3.927 3.927 0 01.923-1.961 3.171 3.171 0 011.862-1.324zM242.66 149.365a55.73 55.73 0 01-4.269 5.464 54.077 54.077 0 01-4.604 5.187 56.003 56.003 0 014.269-5.464 55.663 55.663 0 014.604-5.187zM232.747 160.184c.092.092-1.065 1.282-2.122 3.008s-1.677 3.268-1.77 3.226a8.247 8.247 0 011.401-3.46 7.883 7.883 0 012.491-2.774zM244.051 158.382a25.476 25.476 0 01-2.441 3.997 25.444 25.444 0 01-2.809 3.754 25.546 25.546 0 012.44-3.997 25.504 25.504 0 012.81-3.754zM206.479 87.152a20.772 20.772 0 01-1.811 2.271 279.83 279.83 0 00-4.411 5.422 218.635 218.635 0 00-4.244 5.564 20.342 20.342 0 01-1.786 2.288c.091-.246.218-.478.377-.687a47.78 47.78 0 011.157-1.785 87.924 87.924 0 014.194-5.648c1.736-2.154 3.312-4.031 4.528-5.355a49.562 49.562 0 011.46-1.55c.157-.194.337-.369.536-.52zM194.117 113.08a16.2 16.2 0 01-3.061-2.246 16.251 16.251 0 01-2.785-2.598 16.985 16.985 0 013.062 2.254 16.79 16.79 0 012.784 2.59zM194.227 124.141c-.093.093-1.678-1.726-3.9-3.704-2.222-1.977-4.193-3.352-4.118-3.477a18.433 18.433 0 014.403 3.159 17.98 17.98 0 013.615 4.022z" fill="#fff"/><path d="M193.983 100.191c.02.187.02.375 0 .562v1.617c0 1.45.076 3.461.126 5.925.168 5.028.386 11.933.629 19.542.243 7.609.453 14.556.529 19.567.041 2.514.05 4.525 0 5.925v1.617c.004.188-.01.376-.042.562a2.41 2.41 0 01-.051-.562c0-.419 0-.947-.05-1.617 0-1.45-.101-3.461-.176-5.925-.168-5.028-.403-11.933-.654-19.55-.252-7.618-.445-14.548-.495-19.559v-5.933c0-.696.05-1.241.067-1.609a3.38 3.38 0 01.117-.562z" fill="#263238"/><path d="M192.817 137.105a14.982 14.982 0 01-1.007-2.07 65.008 65.008 0 00-2.516-4.902 40.957 40.957 0 00-3.069-4.584 20.017 20.017 0 01-1.401-1.818 8.391 8.391 0 011.678 1.625 30.219 30.219 0 013.203 4.551 38.409 38.409 0 012.441 5.028c.302.697.527 1.424.671 2.17zM179.349 121.736c.196.69.289 1.404.277 2.12a22.066 22.066 0 01-.386 5.162 22.606 22.606 0 01-1.568 4.928 7.206 7.206 0 01-1.057 1.869 41.826 41.826 0 002.198-6.88 42.02 42.02 0 00.536-7.199zM172.077 118.636a8.255 8.255 0 01-.311 2.053 29.582 29.582 0 01-3.849 9.209 7.463 7.463 0 01-1.241 1.676c.281-.629.609-1.237.981-1.818a45.853 45.853 0 002.172-4.458 44.266 44.266 0 001.636-4.668c.147-.681.352-1.348.612-1.994zM191.459 94.786a7.626 7.626 0 012.357 4.534 15.174 15.174 0 01-1.174-2.271 14.862 14.862 0 01-1.183-2.263zM247.91 101.75a85.023 85.023 0 01-8.429 2.179c-4.688 1.089-8.512 1.877-8.538 1.76a85.524 85.524 0 018.437-2.179 86.936 86.936 0 018.53-1.76zM252.12 117.043a66.752 66.752 0 01-7.372 2.062 66.99 66.99 0 01-7.473 1.676 65.864 65.864 0 017.372-2.07 67.687 67.687 0 017.473-1.668zM258.15 130.284a68.557 68.557 0 01-7.816 1.257 72.503 72.503 0 01-7.875.838 69.04 69.04 0 017.816-1.257 72.254 72.254 0 017.875-.838zM266.31 143.164a17.04 17.04 0 01-2.516 0c-1.56 0-3.716-.059-6.097-.05-2.382.008-4.529.05-6.089.084-.837.069-1.679.069-2.516 0a13.65 13.65 0 012.516-.294 95.204 95.204 0 016.105-.209 86.13 86.13 0 016.106.184c.837.016 1.671.112 2.491.285z" fill="#fff"/><path opacity=".3" d="M230.037 104.239c.579 10.056 4.152 20.682 10.182 28.735 0 .117-1.133-7.14-1.133-7.14s-5.468-13.634-9.049-21.595zM206.705 156.706l17.771 1.056c2.516.151 5.36.209 7.263-1.483a.84.84 0 00.361-.654c-.05-.503-.755-.545-1.25-.453a55.179 55.179 0 01-22.862-.544 2.93 2.93 0 00-1.736-.059c-.545.226-.88 1.006-.469 1.425M194.67 133.703a46.543 46.543 0 01-.939-29.59l.839 29.506M184.809 123.731a37.198 37.198 0 002.591 6.821c.176.369.478.788.881.712.402-.075.52-.519.494-.896a4.491 4.491 0 00-.964-2.196l-2.969-4.383" fill="#000"/><path d="M425.12 383.712l.361-22.635-37.598-1.148-.494-23.589h-38.302v-13.341h-41.162v-13.115l-33.731-.964v-16.601h-37.732l-.176-20.07-51.133.905v-21.871h-38.73v-26.741H82.885l-1.694 173.307h387.372v-14.137H425.12z" fill="#EBEBEB"/><path d="M82.885 224.584H99.6l46.822-.067h.134v26.808l-.159-.16h38.948v22.057l-.193-.193 51.158-.914h.193v.21c.059 6.293.118 13.131.185 20.07l-.21-.21h37.933v16.819l-.21-.218 22.041.629 11.682.335h.218v13.324l-.218-.218h41.372v13.559l-.21-.209h38.495v.192l.486 23.598-.193-.192 37.606 1.165h.168v.175c-.134 7.92-.26 15.445-.378 22.626l-.159-.167H468.68V397.857l-.109-.1 29.303.05H505.422h-7.548l-29.303.05h-.101v-.109-14.137l.118.126h-43.611v-.159c.106-7.185.221-14.727.344-22.626l.176.176-37.606-1.132h-.184v-.184c-.168-7.634-.336-15.486-.504-23.598l.202.201h-38.52v-13.416l.218.209h-41.397v-13.324l.21.218-11.683-.335-22.048-.629h-.21V292.32l.218.217h-37.941v-.209c-.067-6.939-.126-13.777-.176-20.062l.209.201-51.158.88h-.193v-.159-21.872l.176.176h-38.881v-.151-26.74l.134.134-46.764-.151H82.885zM132.711 327.75v-.209-.587-2.254c0-1.969 0-4.793-.075-8.33l.134.143-36.474.075.218-.218v11.363l-.21-.217 25.999.1 7.649.059H132.703h-2.701l-7.598.058-26.175.101h-.21v-.21-11.363l.219-.218 36.473.076h.143v.142c0 3.578-.059 6.428-.076 8.38v2.782c-.05.235-.058.327-.067.327z" fill="#263238"/><path d="M148.638 327.993h-36.474v11.38h36.474v-11.38zM252.153 382.74H215.68v11.38h36.473v-11.38zM214.833 359.737h-36.474v11.38h36.474v-11.38z" fill="#E0E0E0"/><path d="M236.236 382.497a.672.672 0 010-.21v-.586-2.246c0-1.978-.042-4.802-.075-8.338l.142.142-36.473.076c.092-.093-.227.217.209-.218v11.371l-.218-.209 25.999.092 7.649.059h2.801-2.709l-7.598.067-26.175.092h-.21v-.21-11.371c.436-.436.126-.118.227-.218l36.473.075h.134v.143c0 3.578-.058 6.427-.075 8.422v2.773c-.022.102-.056.2-.101.294z" fill="#263238"/><path d="M163.868 380.125a10.22 10.22 0 016.273-1.416 5.32 5.32 0 013.288 1.081 2.264 2.264 0 01.344 3.126 3.057 3.057 0 01-1.929.704c-1.678.15-3.573.042-4.814 1.19-.705.653-1.116 1.676-2.005 2.036a2.162 2.162 0 01-2.516-.838 3.651 3.651 0 01-.545-2.698 4.187 4.187 0 011.904-3.185zM158.576 372.072c1.358 1.567 3.598.779 4.554-.36a8.612 8.612 0 001.526-4.14c.604-3.352 1.208-6.847.176-10.056a5.63 5.63 0 00-1.551-2.581 2.907 2.907 0 00-2.835-.629c-1.132.419-1.736 1.626-2.147 2.757a23.876 23.876 0 00-1.317 10.434 8.263 8.263 0 001.594 4.609M155.582 374.779a6.144 6.144 0 00.377-5.741 10.895 10.895 0 00-3.833-4.516 18.249 18.249 0 00-6.348-2.925 6.47 6.47 0 00-2.743-.184 2.856 2.856 0 00-2.122 1.6c-.511 1.266.244 2.657 1.015 3.78a45.55 45.55 0 004.546 5.597 10.658 10.658 0 004.705 3.26c1.861.511 3.723.235 4.554-1.106" fill="#8547C6"/><path d="M161.075 397.472c.03-.259.03-.521 0-.78v-2.111a28.81 28.81 0 01.159-3.109c.148-1.264.398-2.514.747-3.738a13.747 13.747 0 011.518-3.461 6.98 6.98 0 012.138-2.179 6.73 6.73 0 011.912-.838c.257-.04.509-.101.755-.184a3.19 3.19 0 00-.78.067 6.122 6.122 0 00-2.004.738 6.968 6.968 0 00-2.265 2.212 13.14 13.14 0 00-1.576 3.536 22.522 22.522 0 00-.738 3.788 26.306 26.306 0 00-.093 3.151c0 .888.076 1.617.109 2.112.016.268.056.534.118.796z" fill="#263238"/><path d="M161.024 395.846a1.382 1.382 0 000-.352c0-.268-.059-.603-.101-1.022-.092-.88-.226-2.154-.335-3.738-.244-3.159-.319-6.578-.277-11.413.042-4.551.176-9.855.536-13.333.076-.788.151-1.5.235-2.12.084-.62.135-1.165.21-1.609.075-.444.101-.746.134-1.006.017-.119.017-.24 0-.36a1.558 1.558 0 00-.084.344c-.058.268-.117.595-.201 1.005-.084.411-.168.972-.26 1.601a71.33 71.33 0 00-.285 2.12 117.19 117.19 0 00-.721 12.394c-.042 4.844.159 9.218.461 12.394.142 1.584.302 2.858.436 3.738.067.41.117.745.168 1.013.016.118.044.233.084.344z" fill="#263238"/><path d="M160.228 387.424a8.505 8.505 0 00-.117-1.056 28.921 28.921 0 00-.621-2.849 36.745 36.745 0 00-1.358-4.089 34.867 34.867 0 00-2.256-4.785 26.468 26.468 0 00-5.963-7.492c-.42-.363-.863-.699-1.325-1.006-.202-.142-.386-.276-.562-.385l-.504-.277a5.92 5.92 0 00-.956-.477 29.005 29.005 0 013.196 2.312 28.211 28.211 0 015.87 7.475 40.823 40.823 0 012.265 4.744 43.509 43.509 0 011.417 4.047c.352 1.173.562 2.137.713 2.807.034.35.101.695.201 1.031zM550.727 397.849c0 .126-114.898.218-256.532.218s-256.556-.092-256.556-.218 114.847-.218 256.556-.218c141.71 0 256.532.101 256.532.218z" fill="#263238"/></svg>