<svg width="290" height="290" fill="none" xmlns="http://www.w3.org/2000/svg"><g clip-path="url(#clip0)"><path d="M29.369 58.389l1.454-2.394C43.046 35.842 65.201 23.682 88.534 25.16c3.005.187 5.991.596 8.936 1.222 21.219 4.543 39.682 20.574 47.334 41.112 4.504 12.074 5.763 25.98 14.301 35.568 11.117 12.477 29.989 12.867 46.582 12.348 16.593-.519 35.447-.073 46.533 12.453 6.931 7.841 9.131 18.999 8.557 29.503-1.479 27.811-20.878 52.679-45.538 65.04-24.66 12.361-53.708 13.472-80.672 8.031-37.819-7.616-73.779-28.538-95.396-60.845C17.555 137.286 12.073 93.26 29.37 58.389z" fill="#EBEBEB"/><path d="M269.357 278.04c0 .087-55.709.157-124.41.157s-124.422-.07-124.422-.157 55.68-.15 124.422-.15c68.742 0 124.41.069 124.41.15z" fill="#263238"/><path d="M80.196 229.808c2.563-1.323 5.585-1.491 8.433-1.021 1.525.249 3.12.707 4.164 1.856 1.044 1.148 1.236 3.172.041 4.158-.772.522-1.7.757-2.627.667-2.228-.029-4.698-.417-6.479.923-1.015.765-1.694 2.035-2.9 2.412a2.9 2.9 0 01-3.161-1.409 4.906 4.906 0 01-.354-3.619 5.525 5.525 0 012.883-3.967zM74.327 218.469c1.566 2.238 4.61 1.496 6.026.133 1.415-1.363 2.007-3.347 2.552-5.22 1.241-4.315 2.494-8.845 1.572-13.241a7.34 7.34 0 00-1.694-3.596 3.843 3.843 0 00-3.637-1.213c-1.537.406-2.494 1.909-3.184 3.341a31.582 31.582 0 00-3.12 13.543c0 2.181.25 4.472 1.485 6.27M70.017 221.682c1.705-2.019 2.024-4.965 1.27-7.5-.754-2.534-2.47-4.68-4.443-6.438a23.888 23.888 0 00-7.951-4.692 8.452 8.452 0 00-3.573-.58 3.749 3.749 0 00-1.727.536 3.748 3.748 0 00-1.278 1.28c-.835 1.595-.034 3.532.836 5.109a60.604 60.604 0 005.22 7.958c1.566 2.018 3.358 4.008 5.747 4.918 2.39.911 4.86.807 6.13-.846" fill="#8547C6"/><path d="M74.239 252.248c.086-.334.134-.676.145-1.021.07-.737.162-1.67.267-2.772a41.17 41.17 0 01.626-4.06c.365-1.638.86-3.244 1.48-4.803a17.607 17.607 0 012.458-4.35 9.132 9.132 0 013.103-2.581 8.577 8.577 0 012.61-.812 4.904 4.904 0 001.015-.151 5.089 5.089 0 00-1.032 0 7.82 7.82 0 00-2.726.708 9.093 9.093 0 00-3.271 2.604 17.187 17.187 0 00-2.546 4.437 29.186 29.186 0 00-1.468 4.884 34.656 34.656 0 00-.545 4.124 49.747 49.747 0 00-.133 2.795c-.03.332-.024.667.017.998z" fill="#263238"/><path d="M74.407 250.108c.03-.155.04-.313.03-.47v-1.352c0-1.16 0-2.865.063-4.959.104-4.187.464-8.7 1.16-15.045.661-5.98 1.543-12.928 2.477-17.452.203-1.027.406-1.949.58-2.761.174-.812.336-1.514.487-2.076.15-.563.232-.969.313-1.317.045-.151.074-.307.087-.464a1.637 1.637 0 00-.168.441l-.389 1.293c-.174.58-.354 1.259-.58 2.065-.226.806-.435 1.74-.655 2.761a153.358 153.358 0 00-2.604 16.188c-.696 6.38-1.015 12.18-1.039 16.362-.029 2.099 0 3.799.07 4.97.035.58.064.998.081 1.352.01.157.04.313.087.464z" fill="#263238"/><path d="M74.435 238.96a9.03 9.03 0 000-1.409 38.814 38.814 0 00-.429-3.823 51.39 51.39 0 00-1.241-5.568 46.028 46.028 0 00-2.32-6.588 35.12 35.12 0 00-6.832-10.643A17.412 17.412 0 0062 209.432c-.243-.209-.464-.417-.684-.58l-.627-.429a8.353 8.353 0 00-1.16-.76c-.07.087 1.682 1.12 3.892 3.48a37.082 37.082 0 016.664 10.608 53.477 53.477 0 012.32 6.525 67.567 67.567 0 011.323 5.516c.307 1.589.458 2.9.58 3.782.008.464.051.928.127 1.386zM63.63 258.651l1.12 15.353h19.72l1.12-15.353H63.63zM87.939 252.602H61.723v6.049h26.216v-6.049z" fill="#263238"/><path d="M61.723 273.412v1.682H87.51v-1.682H61.723zM64.165 278.04l-1.206-2.946h23.612l-1.41 2.946H64.165z" fill="#455A64"/><path d="M85.224 263.668s-.03.052-.093.145c-.064.093-.174.232-.296.389-.278.359-.661.852-1.16 1.467l-.052.07-.047-.07-2.824-3.903h.162l-2.778 3.932-.087.122-.099-.116-3.294-3.921h.191l-.18.226-2.946 3.695-.098.122-.093-.128-2.778-3.932h.162l-3.428 3.897-.058.07-.046-.076-1.073-1.803-.273-.482a.792.792 0 01-.087-.168s.047.046.116.151l.308.464 1.125 1.769h-.11l3.37-3.95.086-.099.076.111 2.801 3.915h-.185l2.94-3.701.18-.226.093-.122.098.116 3.283 3.933h-.185l2.807-3.915.081-.116.081.116 2.767 3.944h-.105l1.195-1.433.32-.371.133-.122z" fill="#E0E0E0"/><path d="M85.839 258.552c0 .07-4.942.122-11.02.122-6.079 0-11.02-.052-11.02-.122 0-.069 4.941-.121 11.02-.121 6.078 0 11.02.052 11.02.121z" fill="#455A64"/><path d="M86.86 275.256c0 .07-5.37.122-11.994.122s-11.989-.052-11.989-.122c0-.069 5.365-.121 11.989-.121 6.623 0 11.994.052 11.994.121zM118.51 278.04c-.319-1.281 9.036-48.476 9.036-48.476l50.107-7.169s20.334 12.383 20.972 22.62c.638 10.237 5.365 33.008 5.365 33.008h-48.488l-1.531-1.943-.986 1.821-34.475.139z" fill="#263238"/><path d="M157.898 268.65v.087c-.011.083-.03.165-.057.244-.104.31-.281.59-.517.818a2.856 2.856 0 01-1.334.748 2.98 2.98 0 01-2.007-.209 4.455 4.455 0 01-1.838-1.63 7.587 7.587 0 01-1.033-2.616c-.208-.968-.324-1.989-.481-3.045-.157-1.055-.302-2.146-.458-3.265-.58-4.46-1.16-8.497-1.543-11.472-.18-1.439-.325-2.616-.435-3.48-.041-.383-.075-.696-.104-.946a1.35 1.35 0 010-.336c.034.106.059.214.075.325l.157.939c.133.864.313 2.036.527 3.48.424 2.97.998 7.007 1.636 11.461l.452 3.265c.151 1.056.261 2.083.459 3.028a7.48 7.48 0 00.968 2.54 4.408 4.408 0 001.74 1.572 2.784 2.784 0 001.885.232c.47-.114.901-.353 1.247-.69.307-.288.535-.649.661-1.05zM153.7 240.271a.886.886 0 01.545-.081 1.928 1.928 0 011.329.713c.232.313.378.682.421 1.069.042.387-.019.779-.178 1.135a2.529 2.529 0 01-2.221 1.537 2.22 2.22 0 01-1.41-.4 2.354 2.354 0 01-.829-1.073 2.103 2.103 0 01-.104-1.23c.078-.355.255-.68.51-.939.359-.376.84-.61 1.357-.662.185-.025.373-.001.545.07 0 .029-.197 0-.533.052a2.16 2.16 0 00-1.212.685 1.81 1.81 0 00-.308 1.919 2.018 2.018 0 001.966 1.276 2.276 2.276 0 001.984-1.345 1.978 1.978 0 00-.162-1.961 1.846 1.846 0 00-1.16-.73c-.331-.058-.54-.006-.54-.035z" fill="#455A64"/><path d="M186.18 107.445h-26.448l-2.941 7.784-16.774 22.997-13.177 94.934 16.773 3.103c2.913.541 5.887.666 8.834.371l25.207-2.488.754-84.68 12.278-34.046-4.506-7.975z" fill="#F5F5F5"/><path d="M166.083 124.12s0 .099-.069.284c-.07.186-.134.476-.238.835-.221.743-.534 1.816-.94 3.19-.406 1.375-.922 3.08-1.479 5.058-.557 1.978-1.218 4.217-1.879 6.716-.661 2.5-1.421 5.22-2.158 8.173-.736 2.952-1.513 6.095-2.32 9.413a582.84 582.84 0 00-4.64 21.738c-1.496 7.743-2.668 15.167-3.659 21.93-.47 3.382-.934 6.595-1.288 9.617-.354 3.021-.708 5.8-.986 8.392a767.746 767.746 0 00-.708 6.96 432.028 432.028 0 00-.481 5.22c-.122 1.415-.22 2.546-.29 3.318-.035.365-.064.655-.081.858-.018.203-.041.296-.041.296a2.922 2.922 0 010-.296c0-.209.035-.493.052-.864.058-.771.14-1.891.238-3.318.099-1.426.232-3.207.429-5.254.198-2.048.377-4.374.662-6.96.284-2.587.58-5.389.951-8.405.371-3.016.8-6.235 1.264-9.622a515.942 515.942 0 013.637-21.941c1.461-7.755 3.08-15.08 4.64-21.75.812-3.318 1.566-6.479 2.32-9.414a397.257 397.257 0 012.198-8.166c.696-2.488 1.351-4.733 1.92-6.705.568-1.972 1.09-3.665 1.525-5.046l.998-3.172.266-.824.157-.261zM134.467 225.661c.009 1.641.193 3.276.551 4.877a22.513 22.513 0 001.897 4.536 4.955 4.955 0 01-.853-1.189 13.265 13.265 0 01-1.74-6.774 4.984 4.984 0 01.145-1.45zM135.95 235.434a2.736 2.736 0 01-.968-.464 8.952 8.952 0 01-3.358-3.852 2.806 2.806 0 01-.331-1.02 13.03 13.03 0 004.64 5.336h.017zM156.36 226.496c.109.487.144.987.105 1.485a16.153 16.153 0 01-.47 3.555 15.688 15.688 0 01-1.241 3.37 5.231 5.231 0 01-.777 1.264c.166-.463.36-.916.58-1.357a20.304 20.304 0 001.687-6.844c.008-.493.046-.985.116-1.473zM157.48 113.396s-16.153 6.832-18.479 7.279c-2.326.446-10.44 2.482-10.44 2.482s-6.252 11.194-5.672 17.597c.58 6.404 4.947 52.345 4.947 52.345s-7.128 39.696-7.273 42.607c-.145 2.912-6.305 30.682-5.116 30.514 1.189-.168 6.543-6.107 6.543-6.107l17.742-97.574s4.64-22.394 8.12-29.661c3.48-7.267 9.605-16.721 9.605-16.721l.023-2.761z" fill="#263238"/><path d="M133.794 195.216a1.497 1.497 0 010-.232c0-.162 0-.388-.035-.672-.029-.58-.069-1.474-.116-2.581-.087-2.262-.203-5.51-.348-9.512-.145-4.002-.284-8.805-.406-14.118-.058-2.656-.116-5.44-.121-8.334a39.224 39.224 0 011.467-8.845c1.27-4.913 2.865-9.518 4.402-13.775a261.466 261.466 0 014.524-11.6l4.484-3.753.104.174-3.3 1.294-.302.116.203-.25 3.73-4.709c.429-.534.759-.952.997-1.242l.261-.319a.465.465 0 01.093-.098.676.676 0 01-.075.116l-.244.33-.963 1.265-3.665 4.762-.099-.134 3.289-1.316.58-.238-.482.406-4.46 3.781.035-.046a268.443 268.443 0 00-4.484 11.6c-1.537 4.275-3.108 8.862-4.373 13.758a38.972 38.972 0 00-1.467 8.769c0 2.9.058 5.678.104 8.329l.342 14.117c.099 4.025.192 7.25.25 9.512 0 1.108.046 1.978.058 2.587v.673c.01.061.015.123.017.185z" fill="#455A64"/><path d="M128.533 123.157s-5.325 4.06-6.235 8.642c-.911 4.582-2.274 23.977-2.274 23.977s-2.285 2.564-2.285 3.028c0 .464-1.096 12.627-1.096 12.627l-17.087-21.46-15.52 14.656s20.131 35.2 28.1 38.327c12.134 4.761 15.759-2.146 15.759-2.146l1.821-28.345-1.183-49.306z" fill="#263238"/><path d="M124.589 142.477c.018.05.03.103.034.157 0 .121.047.272.076.458l.261 1.775a534.2 534.2 0 01.887 6.519c.708 5.51 1.636 13.137 2.129 21.605.232 4.24.307 8.282.261 11.959-.047 1.839-.076 3.585-.186 5.22-.052.818-.081 1.607-.145 2.367-.064.76-.127 1.479-.191 2.169-.105 1.392-.284 2.633-.412 3.729-.07.551-.133 1.056-.197 1.532-.064.475-.145.887-.203 1.276-.128.748-.226 1.339-.302 1.74-.035.185-.064.336-.081.458s-.035.156-.041.151a.824.824 0 010-.157c0-.122.035-.273.058-.464a897.838 897.838 0 01.424-3.051c.069-.464.11-.98.168-1.525.116-1.096.278-2.32.371-3.73.052-.69.11-1.415.168-2.169.058-.754.082-1.543.122-2.36.105-1.63.122-3.37.163-5.22.034-3.666-.053-7.703-.285-11.937-.493-8.456-1.386-16.083-2.041-21.599-.331-2.738-.58-4.965-.789-6.531-.087-.754-.151-1.345-.203-1.775 0-.191-.035-.342-.046-.464a.739.739 0 010-.133zM121.464 188.268a2.967 2.967 0 01-.076-.69c0-.441-.075-1.085-.156-1.874a37.286 37.286 0 00-1.16-6.072 36.638 36.638 0 00-2.175-5.8 35.254 35.254 0 00-.836-1.682 3.116 3.116 0 01-.29-.632c.154.177.287.371.395.58.238.371.58.933.922 1.641a31.05 31.05 0 013.341 11.942c.058.795.075 1.439.064 1.885.018.234.009.47-.029.702zM123.387 183.993c-.052 0-.087-.829-.324-2.14a18.793 18.793 0 00-4.536-9.228c-.899-.991-1.537-1.525-1.502-1.566.176.088.338.202.481.337.41.335.798.698 1.16 1.084a17.03 17.03 0 014.594 9.338c.08.527.127 1.057.139 1.59.025.194.021.392-.012.585zM133.793 195.216a.634.634 0 010 .174c0 .134-.046.302-.075.517-.081.469-.186 1.16-.331 1.972-.296 1.74-.725 4.193-1.258 7.232-1.091 6.125-2.599 14.547-4.263 23.856-1.665 9.309-3.237 17.719-4.356 23.838-.58 3.033-1.027 5.492-1.351 7.221l-.383 1.96-.11.505a.67.67 0 01-.047.174.678.678 0 010-.18c0-.134.047-.302.081-.511.076-.469.186-1.131.325-1.972.302-1.74.731-4.193 1.259-7.232l4.268-23.861c1.694-9.28 3.237-17.719 4.35-23.838.58-3.028 1.033-5.493 1.358-7.216l.382-1.96c.041-.209.076-.377.105-.51.011-.058.026-.114.046-.169z" fill="#455A64"/><path d="M187.635 110.084l-14.616 31.975s-7.575 20.718-8.149 23.293c-.574 2.575-8.12 35.299-8.12 35.299l5 48.447s.638 16.861 5.463 18.294c4.826 1.432 41.273-4.716 41.273-4.716l-6.003-40.443s-2.291-31.013-2.291-31.442c0-.429 6.577-46.307 6.577-46.307l4.35-17.708-12.354-5.011-11.13-11.681z" fill="#263238"/><path d="M159.215 192.833c.022-.077.051-.15.087-.221l.278-.667c.273-.58.656-1.421 1.16-2.494l4.31-9.141c3.688-7.714 8.769-18.339 14.389-30.078 4.321-8.961 8.329-17.279 11.6-24.047l.111.174h-5.29l.331-.203c1.821-1.16 3.48-2.158 4.906-3.063l-.04.082c-.122-3.08-.221-5.516-.29-7.198-.029-.824-.052-1.462-.064-1.908v-.493a.796.796 0 010-.169c.004.056.004.113 0 .169 0 .119.012.282.035.487.029.452.064 1.084.116 1.908.087 1.682.214 4.118.377 7.192v.052l-.047.029c-1.444.922-3.068 1.949-4.889 3.097l-.058-.203h5.098l-.087.174c-3.254 6.781-7.244 15.08-11.553 24.076a321548.286 321548.286 0 00-20.48 42.445zM195.141 156.548a3.399 3.399 0 01-.684 0 57.46 57.46 0 00-1.845-.105 47.67 47.67 0 00-12.128.963c-.765.157-1.38.296-1.809.395-.216.069-.441.11-.667.121.204-.099.418-.176.638-.232a24.74 24.74 0 011.792-.493 40.36 40.36 0 016.055-.962 39.71 39.71 0 016.131 0c.783.063 1.415.133 1.844.203.228.008.454.045.673.11z" fill="#455A64"/><path d="M194.335 156.391c2.018.076-.343-6.119-1.271-9.112-.168-.58-.475-1.218-1.061-1.276a1.542 1.542 0 00-.998.418c-3.932 2.9-7.215 6.861-10.161 10.776 0-.017 9.291-.962 13.491-.806z" fill="#E0E0E0"/><path d="M163.949 202.942a11.738 11.738 0 01-5.724.748c0-.087 1.293-.104 2.871-.319 1.577-.214 2.83-.51 2.853-.429zM201.694 222.395c0 .081-4.542.824-10.179 1.659-5.638.835-10.208 1.438-10.22 1.357-.012-.081 4.541-.823 10.179-1.659 5.638-.835 10.208-1.438 10.22-1.357zM179.921 260.872a.73.73 0 01-.082-.174 22.182 22.182 0 01-.214-.516c-.192-.47-.458-1.16-.795-1.983a75.476 75.476 0 01-1.206-3.167c-.441-1.241-.992-2.651-1.508-4.234-.516-1.584-1.12-3.295-1.688-5.168a436.452 436.452 0 01-1.769-5.991c-1.16-4.24-2.32-8.938-3.323-13.92-1.004-4.983-1.74-9.762-2.32-14.123-.256-2.187-.517-4.258-.685-6.206-.168-1.949-.33-3.765-.441-5.423-.11-1.659-.179-3.167-.243-4.484a94.107 94.107 0 01-.11-3.387c-.012-.928-.029-1.63-.035-2.14v-.58a1.23 1.23 0 010-.192c.006.064.006.128 0 .192v.58l.093 2.134c.029.928.075 2.065.162 3.382.087 1.316.145 2.824.29 4.477.145 1.653.267 3.48.476 5.412.208 1.931.446 4.019.713 6.2.58 4.35 1.34 9.123 2.32 14.1.98 4.976 2.152 9.657 3.294 13.92.58 2.117 1.16 4.129 1.74 5.991.58 1.862 1.126 3.602 1.653 5.179.528 1.578 1.027 2.993 1.462 4.24.435 1.247.824 2.32 1.16 3.179l.748 2.012c.076.215.134.389.186.522.048.05.089.107.122.168z" fill="#455A64"/><path d="M208.464 262.676a2.301 2.301 0 01-.261.047l-.754.116-2.9.423-10.724 1.479-15.921 2.163-4.599.621-2.378.319a8.756 8.756 0 01-2.471.128 5.263 5.263 0 01-3.985-2.947 6.458 6.458 0 01-.406-1.241l-.313-1.247c-.209-.841-.429-1.682-.58-2.54a147.609 147.609 0 01-2.639-19.494c-.476-6.032-.806-11.467-1.195-16.02-.388-4.553-.812-8.23-1.16-10.765-.174-1.264-.336-2.244-.429-2.9a24.59 24.59 0 00-.104-.759 1.894 1.894 0 010-.261s0 .087.052.255l.139.754c.11.667.29 1.641.481 2.9.377 2.534.841 6.206 1.247 10.765.406 4.558.766 9.987 1.253 16.013a151.94 151.94 0 002.662 19.454c.163.858.383 1.693.58 2.528.17.829.403 1.643.696 2.436a4.98 4.98 0 003.759 2.784c.798.07 1.603.027 2.389-.127l2.378-.319 4.6-.609 15.927-2.094 10.735-1.392 2.9-.36.766-.087c.162-.023.255-.023.255-.023z" fill="#455A64"/><path d="M160.26 121.829l.626 7.349 6.409 2.621 7.453-7.244-4.936-2.726h-3.677l-3.254-1.154-2.621 1.154z" fill="#8547C6"/><path d="M160.885 129.178s-19.72 51.301-22.475 75.44l8.027 17.777 8.567-12.609 12.499-79.071-6.618-1.537z" fill="#8547C6"/><path d="M167.278 132.02a17.645 17.645 0 00-3.039-1.671 18.021 18.021 0 00-3.387-.754 7.813 7.813 0 016.426 2.425zM170.136 121.846a6.55 6.55 0 01-1.085 1.23 24.584 24.584 0 01-6.449 4.541 6.794 6.794 0 01-1.52.609c.458-.297.935-.564 1.427-.8a35.074 35.074 0 003.329-2.065 36.323 36.323 0 003.062-2.442c.389-.383.802-.741 1.236-1.073z" fill="#263238"/><path d="M166.669 131.411c-.004.08-.016.159-.035.237-.035.169-.075.395-.133.691l-.54 2.656c-.464 2.32-1.16 5.649-1.943 9.785a706.041 706.041 0 00-5.469 32.439c-.922 6.38-1.7 12.429-2.361 17.98-.33 2.761-.661 5.394-1.113 7.83a47.502 47.502 0 01-1.688 6.687 28.156 28.156 0 01-4.681 8.787 16.478 16.478 0 01-2.563 2.61.988.988 0 01.168-.174l.504-.487a23.976 23.976 0 001.798-2.024 28.78 28.78 0 004.571-8.775 47.723 47.723 0 001.641-6.653c.441-2.436.766-5.058 1.091-7.824.643-5.533 1.409-11.6 2.32-17.98a619.171 619.171 0 015.556-32.44 597.302 597.302 0 012.036-9.767c.255-1.16.458-2.024.58-2.645l.162-.69a.97.97 0 01.099-.243z" fill="#263238"/><path d="M160.863 160.782a16.6 16.6 0 01-1.009-1.705c-.58-1.062-1.444-2.523-2.413-4.113a113.367 113.367 0 00-2.575-4.019 14.56 14.56 0 01-1.055-1.676s.139.127.353.394c.215.267.517.661.876 1.16a60.64 60.64 0 012.657 3.985c.98 1.595 1.792 3.08 2.32 4.17.278.545.498.992.638 1.305.139.313.232.487.208.499zM157.179 183.17a3.894 3.894 0 01-.365-.679c-.244-.499-.551-1.131-.911-1.885-.771-1.595-1.833-3.793-3.051-6.2a335.564 335.564 0 00-3.196-6.131l-.986-1.85a3.819 3.819 0 01-.324-.702c.162.202.305.417.429.644a64.58 64.58 0 011.067 1.804 139.206 139.206 0 013.277 6.096 144.986 144.986 0 012.975 6.246c.36.812.638 1.474.824 1.932.113.231.201.474.261.725zM154.762 203c-.07.046-2.726-4.141-5.928-9.35-3.202-5.208-5.742-9.465-5.672-9.506.069-.04 2.726 4.141 5.927 9.35 3.202 5.208 5.771 9.454 5.673 9.506zM150.069 216.659c-.07.046-2.547-3.451-5.534-7.807-2.987-4.356-5.353-7.928-5.284-7.981.07-.052 2.547 3.451 5.534 7.813 2.987 4.362 5.353 7.929 5.284 7.975zM163.381 146.856a7.48 7.48 0 01-.951-1.061c-.633-.754-1.381-1.636-2.199-2.616l-2.25-2.575a7.628 7.628 0 01-.899-1.097c.388.276.742.595 1.056.952.62.62 1.45 1.508 2.32 2.528a47.728 47.728 0 012.14 2.68c.304.366.567.765.783 1.189zM161.877 133c-.081.035-.307-.325-.69-.661-.383-.337-.766-.522-.743-.58.024-.058.505 0 .94.377.435.377.568.841.493.864zM162.69 134.885c-.064.064-.331-.11-.58-.383-.25-.273-.447-.545-.389-.58.058-.035.331.116.58.389.25.272.447.516.389.574zM165.66 137.216a5.87 5.87 0 01-1.363-1.2 5.545 5.545 0 01-1.16-1.41 11.036 11.036 0 012.511 2.61h.012zM165.907 125.187c-.058.07-1.096-.823-2.557-1.641-1.462-.818-2.75-1.259-2.721-1.346a10.02 10.02 0 015.278 2.987zM171.396 127.6c-.081.046-.684-.853-1.595-1.815-.91-.963-1.769-1.624-1.74-1.7a7.69 7.69 0 013.318 3.515h.017z" fill="#FAFAFA"/><path d="M160.896 136.689a21.483 21.483 0 011.108-3.44c.372-1.147.84-2.26 1.398-3.329a22.687 22.687 0 01-1.113 3.439 21.955 21.955 0 01-1.393 3.33zM161.652 141.137a7.68 7.68 0 01.238-1.566c.186-.963.482-2.279.859-3.723a69.08 69.08 0 011.055-3.672 7.415 7.415 0 01.58-1.485 9.138 9.138 0 01-.348 1.543c-.278 1.044-.58 2.32-.974 3.689-.395 1.369-.679 2.651-.946 3.695a8.51 8.51 0 01-.464 1.519z" fill="#263238"/><path opacity=".3" d="M161.483 129.723v.069c.365.099.58.203.58.58 0 .378-.079.752-.232 1.097-.389 1.073-.772 2.146-1.16 3.224-.099.273-.157.662.11.783.267.122.493-.127.655-.342l1.346-1.804a656.062 656.062 0 01-.638 3.103c-.064.308-.105.691.151.882a.575.575 0 00.701-.087 1.65 1.65 0 00.383-.655c.313-.789.627-1.572.934-2.355a6.693 6.693 0 01.8-1.589 2.321 2.321 0 011.445-.963c-1.468-1.317-3.121-1.682-5.075-1.943z" fill="#000"/><path d="M157.481 115.292a.786.786 0 01.04.203l.07.58c.058.58.139 1.317.238 2.28.185 2.007.452 4.825.771 8.218l-.244-.034 1.769-4.785v-.053l.058-.029 2.622-1.16h.11l3.254 1.16h3.666l7.064 3.892-.174.035 6.421-8.149 1.844-2.32.499-.58a1.19 1.19 0 01.185-.197 1.703 1.703 0 01-.15.226c-.116.162-.273.371-.464.626l-1.781 2.349c-1.56 2.03-3.753 4.867-6.334 8.213l-.046.093-.104-.058-7.036-3.84h.07-3.718l-3.254-1.16h.11l-2.627 1.16.075-.081c-.643 1.705-1.247 3.318-1.798 4.779l-.197.528-.046-.58c-.279-3.399-.505-6.223-.673-8.224-.07-.969-.122-1.74-.162-2.291 0-.25-.029-.447-.035-.58a.912.912 0 01-.023-.221zM118.51 278.04c-.319-1.281 9.036-48.476 9.036-48.476l50.107-7.169s20.334 12.383 20.972 22.62c.638 10.237 5.365 33.008 5.365 33.008h-48.488l-1.531-1.943-.986 1.821-34.475.139z" fill="#263238"/><path d="M157.898 268.65v.087c-.011.083-.03.165-.057.244-.104.31-.281.59-.517.818a2.856 2.856 0 01-1.334.748 2.98 2.98 0 01-2.007-.209 4.455 4.455 0 01-1.838-1.63 7.587 7.587 0 01-1.033-2.616c-.208-.968-.324-1.989-.481-3.045-.157-1.055-.302-2.146-.458-3.265-.58-4.46-1.16-8.497-1.543-11.472-.18-1.439-.325-2.616-.435-3.48-.041-.383-.075-.696-.104-.946a1.35 1.35 0 010-.336c.034.106.059.214.075.325l.157.939c.133.864.313 2.036.527 3.48.424 2.97.998 7.007 1.636 11.461l.452 3.265c.151 1.056.261 2.083.459 3.028a7.48 7.48 0 00.968 2.54 4.408 4.408 0 001.74 1.572 2.784 2.784 0 001.885.232c.47-.114.901-.353 1.247-.69.307-.288.535-.649.661-1.05zM153.7 240.271a.886.886 0 01.545-.081 1.928 1.928 0 011.329.713c.232.313.378.682.421 1.069.042.387-.019.779-.178 1.135a2.529 2.529 0 01-2.221 1.537 2.22 2.22 0 01-1.41-.4 2.354 2.354 0 01-.829-1.073 2.103 2.103 0 01-.104-1.23c.078-.355.255-.68.51-.939.359-.376.84-.61 1.357-.662.185-.025.373-.001.545.07 0 .029-.197 0-.533.052a2.16 2.16 0 00-1.212.685 1.81 1.81 0 00-.308 1.919 2.018 2.018 0 001.966 1.276 2.276 2.276 0 001.984-1.345 1.978 1.978 0 00-.162-1.961 1.846 1.846 0 00-1.16-.73c-.331-.058-.54-.006-.54-.035z" fill="#455A64"/><path d="M186.18 107.445h-26.448l-2.941 7.784-16.774 22.997-13.177 94.934 16.773 3.103c2.913.541 5.887.666 8.834.371l25.207-2.488.754-84.68 12.278-34.046-4.506-7.975z" fill="#F5F5F5"/><path d="M166.083 124.12s0 .099-.069.284c-.07.186-.134.476-.238.835-.221.743-.534 1.816-.94 3.19-.406 1.375-.922 3.08-1.479 5.058-.557 1.978-1.218 4.217-1.879 6.716-.661 2.5-1.421 5.22-2.158 8.173-.736 2.952-1.513 6.095-2.32 9.413a582.84 582.84 0 00-4.64 21.738c-1.496 7.743-2.668 15.167-3.659 21.93-.47 3.382-.934 6.595-1.288 9.617-.354 3.021-.708 5.8-.986 8.392a767.746 767.746 0 00-.708 6.96 432.028 432.028 0 00-.481 5.22c-.122 1.415-.22 2.546-.29 3.318-.035.365-.064.655-.081.858-.018.203-.041.296-.041.296a2.922 2.922 0 010-.296c0-.209.035-.493.052-.864.058-.771.14-1.891.238-3.318.099-1.426.232-3.207.429-5.254.198-2.048.377-4.374.662-6.96.284-2.587.58-5.389.951-8.405.371-3.016.8-6.235 1.264-9.622a515.942 515.942 0 013.637-21.941c1.461-7.755 3.08-15.08 4.64-21.75.812-3.318 1.566-6.479 2.32-9.414a397.257 397.257 0 012.198-8.166c.696-2.488 1.351-4.733 1.92-6.705.568-1.972 1.09-3.665 1.525-5.046l.998-3.172.266-.824.157-.261zM134.467 225.661c.009 1.641.193 3.276.551 4.877a22.513 22.513 0 001.897 4.536 4.955 4.955 0 01-.853-1.189 13.265 13.265 0 01-1.74-6.774 4.984 4.984 0 01.145-1.45zM135.95 235.434a2.736 2.736 0 01-.968-.464 8.952 8.952 0 01-3.358-3.852 2.806 2.806 0 01-.331-1.02 13.03 13.03 0 004.64 5.336h.017zM156.36 226.496c.109.487.144.987.105 1.485a16.153 16.153 0 01-.47 3.555 15.688 15.688 0 01-1.241 3.37 5.231 5.231 0 01-.777 1.264c.166-.463.36-.916.58-1.357a20.304 20.304 0 001.687-6.844c.008-.493.046-.985.116-1.473zM157.48 113.396s-16.153 6.832-18.479 7.279c-2.326.446-10.44 2.482-10.44 2.482s-6.252 11.194-5.672 17.597c.58 6.404 4.947 52.345 4.947 52.345s-7.128 39.696-7.273 42.607c-.145 2.912-6.305 30.682-5.116 30.514 1.189-.168 6.543-6.107 6.543-6.107l17.742-97.574s4.64-22.394 8.12-29.661c3.48-7.267 9.605-16.721 9.605-16.721l.023-2.761z" fill="#263238"/><path d="M133.794 195.216a1.497 1.497 0 010-.232c0-.162 0-.388-.035-.672-.029-.58-.069-1.474-.116-2.581-.087-2.262-.203-5.51-.348-9.512-.145-4.002-.284-8.805-.406-14.118-.058-2.656-.116-5.44-.121-8.334a39.224 39.224 0 011.467-8.845c1.27-4.913 2.865-9.518 4.402-13.775a261.466 261.466 0 014.524-11.6l4.484-3.753.104.174-3.3 1.294-.302.116.203-.25 3.73-4.709c.429-.534.759-.952.997-1.242l.261-.319a.465.465 0 01.093-.098.676.676 0 01-.075.116l-.244.33-.963 1.265-3.665 4.762-.099-.134 3.289-1.316.58-.238-.482.406-4.46 3.781.035-.046a268.443 268.443 0 00-4.484 11.6c-1.537 4.275-3.108 8.862-4.373 13.758a38.972 38.972 0 00-1.467 8.769c0 2.9.058 5.678.104 8.329l.342 14.117c.099 4.025.192 7.25.25 9.512 0 1.108.046 1.978.058 2.587v.673c.01.061.015.123.017.185z" fill="#455A64"/><path d="M128.533 123.157s-5.325 4.06-6.235 8.642c-.911 4.582-2.274 23.977-2.274 23.977s-2.285 2.564-2.285 3.028c0 .464-1.096 12.627-1.096 12.627l-17.087-21.46-15.52 14.656s20.131 35.2 28.1 38.327c12.134 4.761 15.759-2.146 15.759-2.146l1.821-28.345-1.183-49.306z" fill="#263238"/><path d="M124.589 142.477c.018.05.03.103.034.157 0 .121.047.272.076.458l.261 1.775a534.2 534.2 0 01.887 6.519c.708 5.51 1.636 13.137 2.129 21.605.232 4.24.307 8.282.261 11.959-.047 1.839-.076 3.585-.186 5.22-.052.818-.081 1.607-.145 2.367-.064.76-.127 1.479-.191 2.169-.105 1.392-.284 2.633-.412 3.729-.07.551-.133 1.056-.197 1.532-.064.475-.145.887-.203 1.276-.128.748-.226 1.339-.302 1.74-.035.185-.064.336-.081.458s-.035.156-.041.151a.824.824 0 010-.157c0-.122.035-.273.058-.464a897.838 897.838 0 01.424-3.051c.069-.464.11-.98.168-1.525.116-1.096.278-2.32.371-3.73.052-.69.11-1.415.168-2.169.058-.754.082-1.543.122-2.36.105-1.63.122-3.37.163-5.22.034-3.666-.053-7.703-.285-11.937-.493-8.456-1.386-16.083-2.041-21.599-.331-2.738-.58-4.965-.789-6.531-.087-.754-.151-1.345-.203-1.775 0-.191-.035-.342-.046-.464a.739.739 0 010-.133zM121.464 188.268a2.967 2.967 0 01-.076-.69c0-.441-.075-1.085-.156-1.874a37.286 37.286 0 00-1.16-6.072 36.638 36.638 0 00-2.175-5.8 35.254 35.254 0 00-.836-1.682 3.116 3.116 0 01-.29-.632c.154.177.287.371.395.58.238.371.58.933.922 1.641a31.05 31.05 0 013.341 11.942c.058.795.075 1.439.064 1.885.018.234.009.47-.029.702zM123.387 183.993c-.052 0-.087-.829-.324-2.14a18.793 18.793 0 00-4.536-9.228c-.899-.991-1.537-1.525-1.502-1.566.176.088.338.202.481.337.41.335.798.698 1.16 1.084a17.03 17.03 0 014.594 9.338c.08.527.127 1.057.139 1.59.025.194.021.392-.012.585zM133.793 195.216a.634.634 0 010 .174c0 .134-.046.302-.075.517-.081.469-.186 1.16-.331 1.972-.296 1.74-.725 4.193-1.258 7.232-1.091 6.125-2.599 14.547-4.263 23.856-1.665 9.309-3.237 17.719-4.356 23.838-.58 3.033-1.027 5.492-1.351 7.221l-.383 1.96-.11.505a.67.67 0 01-.047.174.678.678 0 010-.18c0-.134.047-.302.081-.511.076-.469.186-1.131.325-1.972.302-1.74.731-4.193 1.259-7.232l4.268-23.861c1.694-9.28 3.237-17.719 4.35-23.838.58-3.028 1.033-5.493 1.358-7.216l.382-1.96c.041-.209.076-.377.105-.51.011-.058.026-.114.046-.169z" fill="#455A64"/><path d="M187.635 110.084l-14.616 31.975s-7.575 20.718-8.149 23.293c-.574 2.575-8.12 35.299-8.12 35.299l5 48.447s.638 16.861 5.463 18.294c4.826 1.432 41.273-4.716 41.273-4.716l-6.003-40.443s-2.291-31.013-2.291-31.442c0-.429 6.577-46.307 6.577-46.307l4.35-17.708-12.354-5.011-11.13-11.681z" fill="#263238"/><path d="M159.215 192.833c.022-.077.051-.15.087-.221l.278-.667c.273-.58.656-1.421 1.16-2.494l4.31-9.141c3.688-7.714 8.769-18.339 14.389-30.078 4.321-8.961 8.329-17.279 11.6-24.047l.111.174h-5.29l.331-.203c1.821-1.16 3.48-2.158 4.906-3.063l-.04.082c-.122-3.08-.221-5.516-.29-7.198-.029-.824-.052-1.462-.064-1.908v-.493a.796.796 0 010-.169c.004.056.004.113 0 .169 0 .119.012.282.035.487.029.452.064 1.084.116 1.908.087 1.682.214 4.118.377 7.192v.052l-.047.029c-1.444.922-3.068 1.949-4.889 3.097l-.058-.203h5.098l-.087.174c-3.254 6.781-7.244 15.08-11.553 24.076a321548.286 321548.286 0 00-20.48 42.445zM195.141 156.548a3.399 3.399 0 01-.684 0 57.46 57.46 0 00-1.845-.105 47.67 47.67 0 00-12.128.963c-.765.157-1.38.296-1.809.395-.216.069-.441.11-.667.121.204-.099.418-.176.638-.232a24.74 24.74 0 011.792-.493 40.36 40.36 0 016.055-.962 39.71 39.71 0 016.131 0c.783.063 1.415.133 1.844.203.228.008.454.045.673.11z" fill="#455A64"/><path d="M194.335 156.391c2.018.076-.343-6.119-1.271-9.112-.168-.58-.475-1.218-1.061-1.276a1.542 1.542 0 00-.998.418c-3.932 2.9-7.215 6.861-10.161 10.776 0-.017 9.291-.962 13.491-.806z" fill="#E0E0E0"/><path d="M163.949 202.942a11.738 11.738 0 01-5.724.748c0-.087 1.293-.104 2.871-.319 1.577-.214 2.83-.51 2.853-.429zM201.694 222.395c0 .081-4.542.824-10.179 1.659-5.638.835-10.208 1.438-10.22 1.357-.012-.081 4.541-.823 10.179-1.659 5.638-.835 10.208-1.438 10.22-1.357zM179.921 260.872a.73.73 0 01-.082-.174 22.182 22.182 0 01-.214-.516c-.192-.47-.458-1.16-.795-1.983a75.476 75.476 0 01-1.206-3.167c-.441-1.241-.992-2.651-1.508-4.234-.516-1.584-1.12-3.295-1.688-5.168a436.452 436.452 0 01-1.769-5.991c-1.16-4.24-2.32-8.938-3.323-13.92-1.004-4.983-1.74-9.762-2.32-14.123-.256-2.187-.517-4.258-.685-6.206-.168-1.949-.33-3.765-.441-5.423-.11-1.659-.179-3.167-.243-4.484a94.107 94.107 0 01-.11-3.387c-.012-.928-.029-1.63-.035-2.14v-.58a1.23 1.23 0 010-.192c.006.064.006.128 0 .192v.58l.093 2.134c.029.928.075 2.065.162 3.382.087 1.316.145 2.824.29 4.477.145 1.653.267 3.48.476 5.412.208 1.931.446 4.019.713 6.2.58 4.35 1.34 9.123 2.32 14.1.98 4.976 2.152 9.657 3.294 13.92.58 2.117 1.16 4.129 1.74 5.991.58 1.862 1.126 3.602 1.653 5.179.528 1.578 1.027 2.993 1.462 4.24.435 1.247.824 2.32 1.16 3.179l.748 2.012c.076.215.134.389.186.522.048.05.089.107.122.168z" fill="#455A64"/><path d="M208.464 262.676a2.301 2.301 0 01-.261.047l-.754.116-2.9.423-10.724 1.479-15.921 2.163-4.599.621-2.378.319a8.756 8.756 0 01-2.471.128 5.263 5.263 0 01-3.985-2.947 6.458 6.458 0 01-.406-1.241l-.313-1.247c-.209-.841-.429-1.682-.58-2.54a147.609 147.609 0 01-2.639-19.494c-.476-6.032-.806-11.467-1.195-16.02-.388-4.553-.812-8.23-1.16-10.765-.174-1.264-.336-2.244-.429-2.9a24.59 24.59 0 00-.104-.759 1.894 1.894 0 010-.261s0 .087.052.255l.139.754c.11.667.29 1.641.481 2.9.377 2.534.841 6.206 1.247 10.765.406 4.558.766 9.987 1.253 16.013a151.94 151.94 0 002.662 19.454c.163.858.383 1.693.58 2.528.17.829.403 1.643.696 2.436a4.98 4.98 0 003.759 2.784c.798.07 1.603.027 2.389-.127l2.378-.319 4.6-.609 15.927-2.094 10.735-1.392 2.9-.36.766-.087c.162-.023.255-.023.255-.023z" fill="#455A64"/><path d="M160.26 121.829l.626 7.349 6.409 2.621 7.453-7.244-4.936-2.726h-3.677l-3.254-1.154-2.621 1.154z" fill="#8547C6"/><path d="M160.885 129.178s-19.72 51.301-22.475 75.44l8.027 17.777 8.567-12.609 12.499-79.071-6.618-1.537z" fill="#8547C6"/><path d="M167.278 132.02a17.645 17.645 0 00-3.039-1.671 18.021 18.021 0 00-3.387-.754 7.813 7.813 0 016.426 2.425zM170.136 121.846a6.55 6.55 0 01-1.085 1.23 24.584 24.584 0 01-6.449 4.541 6.794 6.794 0 01-1.52.609c.458-.297.935-.564 1.427-.8a35.074 35.074 0 003.329-2.065 36.323 36.323 0 003.062-2.442c.389-.383.802-.741 1.236-1.073z" fill="#263238"/><path d="M166.669 131.411c-.004.08-.016.159-.035.237-.035.169-.075.395-.133.691l-.54 2.656c-.464 2.32-1.16 5.649-1.943 9.785a706.041 706.041 0 00-5.469 32.439c-.922 6.38-1.7 12.429-2.361 17.98-.33 2.761-.661 5.394-1.113 7.83a47.502 47.502 0 01-1.688 6.687 28.156 28.156 0 01-4.681 8.787 16.478 16.478 0 01-2.563 2.61.988.988 0 01.168-.174l.504-.487a23.976 23.976 0 001.798-2.024 28.78 28.78 0 004.571-8.775 47.723 47.723 0 001.641-6.653c.441-2.436.766-5.058 1.091-7.824.643-5.533 1.409-11.6 2.32-17.98a619.171 619.171 0 015.556-32.44 597.302 597.302 0 012.036-9.767c.255-1.16.458-2.024.58-2.645l.162-.69a.97.97 0 01.099-.243z" fill="#263238"/><path d="M160.863 160.782a16.6 16.6 0 01-1.009-1.705c-.58-1.062-1.444-2.523-2.413-4.113a113.367 113.367 0 00-2.575-4.019 14.56 14.56 0 01-1.055-1.676s.139.127.353.394c.215.267.517.661.876 1.16a60.64 60.64 0 012.657 3.985c.98 1.595 1.792 3.08 2.32 4.17.278.545.498.992.638 1.305.139.313.232.487.208.499zM157.179 183.17a3.894 3.894 0 01-.365-.679c-.244-.499-.551-1.131-.911-1.885-.771-1.595-1.833-3.793-3.051-6.2a335.564 335.564 0 00-3.196-6.131l-.986-1.85a3.819 3.819 0 01-.324-.702c.162.202.305.417.429.644a64.58 64.58 0 011.067 1.804 139.206 139.206 0 013.277 6.096 144.986 144.986 0 012.975 6.246c.36.812.638 1.474.824 1.932.113.231.201.474.261.725zM154.762 203c-.07.046-2.726-4.141-5.928-9.35-3.202-5.208-5.742-9.465-5.672-9.506.069-.04 2.726 4.141 5.927 9.35 3.202 5.208 5.771 9.454 5.673 9.506zM150.069 216.659c-.07.046-2.547-3.451-5.534-7.807-2.987-4.356-5.353-7.928-5.284-7.981.07-.052 2.547 3.451 5.534 7.813 2.987 4.362 5.353 7.929 5.284 7.975zM163.381 146.856a7.48 7.48 0 01-.951-1.061c-.633-.754-1.381-1.636-2.199-2.616l-2.25-2.575a7.628 7.628 0 01-.899-1.097c.388.276.742.595 1.056.952.62.62 1.45 1.508 2.32 2.528a47.728 47.728 0 012.14 2.68c.304.366.567.765.783 1.189zM161.877 133c-.081.035-.307-.325-.69-.661-.383-.337-.766-.522-.743-.58.024-.058.505 0 .94.377.435.377.568.841.493.864zM162.69 134.885c-.064.064-.331-.11-.58-.383-.25-.273-.447-.545-.389-.58.058-.035.331.116.58.389.25.272.447.516.389.574zM165.66 137.216a5.87 5.87 0 01-1.363-1.2 5.545 5.545 0 01-1.16-1.41 11.036 11.036 0 012.511 2.61h.012zM165.907 125.187c-.058.07-1.096-.823-2.557-1.641-1.462-.818-2.75-1.259-2.721-1.346a10.02 10.02 0 015.278 2.987zM171.396 127.6c-.081.046-.684-.853-1.595-1.815-.91-.963-1.769-1.624-1.74-1.7a7.69 7.69 0 013.318 3.515h.017z" fill="#FAFAFA"/><path d="M160.896 136.689a21.483 21.483 0 011.108-3.44c.372-1.147.84-2.26 1.398-3.329a22.687 22.687 0 01-1.113 3.439 21.955 21.955 0 01-1.393 3.33zM161.652 141.137a7.68 7.68 0 01.238-1.566c.186-.963.482-2.279.859-3.723a69.08 69.08 0 011.055-3.672 7.415 7.415 0 01.58-1.485 9.138 9.138 0 01-.348 1.543c-.278 1.044-.58 2.32-.974 3.689-.395 1.369-.679 2.651-.946 3.695a8.51 8.51 0 01-.464 1.519z" fill="#263238"/><path opacity=".3" d="M161.483 129.723v.069c.365.099.58.203.58.58 0 .378-.079.752-.232 1.097-.389 1.073-.772 2.146-1.16 3.224-.099.273-.157.662.11.783.267.122.493-.127.655-.342l1.346-1.804a656.062 656.062 0 01-.638 3.103c-.064.308-.105.691.151.882a.575.575 0 00.701-.087 1.65 1.65 0 00.383-.655c.313-.789.627-1.572.934-2.355a6.693 6.693 0 01.8-1.589 2.321 2.321 0 011.445-.963c-1.468-1.317-3.121-1.682-5.075-1.943z" fill="#000"/><path d="M157.481 115.292a.786.786 0 01.04.203l.07.58c.058.58.139 1.317.238 2.28.185 2.007.452 4.825.771 8.218l-.244-.034 1.769-4.785v-.053l.058-.029 2.622-1.16h.11l3.254 1.16h3.666l7.064 3.892-.174.035 6.421-8.149 1.844-2.32.499-.58a1.19 1.19 0 01.185-.197 1.703 1.703 0 01-.15.226c-.116.162-.273.371-.464.626l-1.781 2.349c-1.56 2.03-3.753 4.867-6.334 8.213l-.046.093-.104-.058-7.036-3.84h.07-3.718l-3.254-1.16h.11l-2.627 1.16.075-.081c-.643 1.705-1.247 3.318-1.798 4.779l-.197.528-.046-.58c-.279-3.399-.505-6.223-.673-8.224-.07-.969-.122-1.74-.162-2.291 0-.25-.029-.447-.035-.58a.912.912 0 01-.023-.221z" fill="#263238"/><path d="M148.132 71.19a4.993 4.993 0 01-2.477-7.877c.58-.702 1.311-1.27 1.671-2.094.765-1.74-.615-3.805-.273-5.707.319-1.74 2.013-2.9 3.689-3.561 1.676-.662 3.48-.975 4.941-2.03 1.329-.969 2.193-2.454 3.446-3.515a7.192 7.192 0 016.478-1.398c2.268.644 4.176 2.413 6.519 2.674 1.74.197 3.399-.441 5.116-.551a8.565 8.565 0 018.59 6.38c.388 1.664.765 3.114 1.844 4.448 1.398 1.74 3.811 2.32 4.913 4.252.649 1.16.44 2.598.058 3.868-.383 1.27-.94 2.53-.922 3.852a4.705 4.705 0 003.665 4.413 4.727 4.727 0 01-2.436 2.9c.886.49 1.89.722 2.9.673a9.495 9.495 0 01-5.088 5.556 9.498 9.498 0 01-7.533.105" fill="#E0E0E0"/><path d="M185.791 79.61c.185-.086 7.575-2.383 7.464 5.22-.11 7.605-7.696 5.911-7.708 5.69-.011-.22.244-10.91.244-10.91z" fill="#E5AB91"/><path d="M187.92 87.661s.128.093.348.197c.312.138.665.15.986.035.806-.284 1.502-1.543 1.554-2.9a4.27 4.27 0 00-.342-1.896 1.507 1.507 0 00-.974-1.027.684.684 0 00-.789.348c-.104.215-.058.365-.099.377-.04.012-.156-.128-.092-.44a.81.81 0 01.307-.47.992.992 0 01.731-.186 1.864 1.864 0 011.363 1.195c.311.663.458 1.39.429 2.122-.075 1.526-.876 2.947-1.978 3.248a1.445 1.445 0 01-1.206-.22c-.238-.203-.279-.371-.238-.383z" fill="#BC8579"/><path d="M147.39 95.085c-.157-5.353.411-16.396 1.038-26.384a20.656 20.656 0 0120.253-19.36h1.073c11.542.475 17.592 10.538 16.82 22.04l-1.003 38.059-19.761 12.256-6.96-5.447v-8.56s-11.13-1.549-11.46-12.604z" fill="#E5AB91"/><path d="M158.82 107.689s7.018.446 14.379-4.362c0 0-3.196 8.161-14.274 7.354l-.105-2.992z" fill="#BC8579"/><path d="M152.342 76.328a1.584 1.584 0 001.554 1.572 1.517 1.517 0 001.466-.873c.086-.183.133-.381.141-.583a1.582 1.582 0 00-1.555-1.572 1.518 1.518 0 00-1.606 1.456zM169.639 76.13a1.582 1.582 0 001.554 1.567 1.517 1.517 0 001.466-.873c.086-.183.133-.381.141-.583a1.582 1.582 0 00-1.555-1.572 1.52 1.52 0 00-1.606 1.462zM150.799 74.559c.197.203 1.381-.708 3.086-.73 1.705-.024 2.964.805 3.149.58.087-.094-.122-.465-.673-.848a4.302 4.302 0 00-2.523-.73 4.158 4.158 0 00-2.459.829c-.499.43-.667.806-.58.899zM167.932 73.869c.209.191 1.334-.795 3.034-.928 1.699-.134 3.01.62 3.178.394.081-.098-.145-.452-.719-.806a4.396 4.396 0 00-2.569-.58 4.189 4.189 0 00-2.396.992c-.487.458-.632.84-.528.928zM161.691 86.838c0-.093-1.056-.261-2.772-.447-.435-.04-.853-.122-.928-.412-.047-.45.046-.904.266-1.299l1.23-3.33c1.699-4.75 2.9-8.647 2.738-8.7-.163-.051-1.74 3.73-3.434 8.475-.412 1.16-.8 2.285-1.16 3.352a2.525 2.525 0 00-.197 1.711 1.085 1.085 0 00.725.626c.243.06.492.09.742.087 1.717.047 2.784.035 2.79-.063zM166.727 87.928c-.279 0-.25 1.839-1.81 3.178-1.56 1.34-3.532 1.16-3.538 1.433 0 .116.441.348 1.276.36a4.64 4.64 0 002.958-1.09 4.026 4.026 0 001.427-2.663c.029-.777-.186-1.23-.313-1.218z" fill="#263238"/><path d="M167.174 66.654c.214.44 1.885.052 3.897.092 2.013.041 3.677.418 3.898 0 .098-.208-.226-.614-.922-.997a6.75 6.75 0 00-5.934-.052c-.702.342-1.032.742-.939.957zM151.049 69.983c.307.383 1.473-.04 2.9-.081 1.426-.041 2.61.214 2.9-.198.121-.197-.076-.58-.58-.94a4.01 4.01 0 00-2.355-.58 3.959 3.959 0 00-2.285.819c-.557.394-.714.794-.58.98z" fill="#E0E0E0"/><path d="M160.537 48.453c3.863-1.682 7.859-1.009 12.041-.58a19.05 19.05 0 018.99 3.208c4.321 2.958 6.583 7.835 6.995 13.055a48.975 48.975 0 01-1.097 14.988l-.417-.082c.301 1.27.58 2.61.197 3.852-.383 1.24-1.786 2.256-2.993 1.78-1.415-.58-1.531-2.482-1.461-4.002a109.12 109.12 0 00-.493-15.381c-.354-3.817-2.703-8.422-5.754-10.133-6.856-3.799-11.919 0-14.227.934-3.794-3.022-7.842-1.073-10 1.74.679-4.118 4.356-7.697 8.219-9.379z" fill="#E0E0E0"/><path d="M190.912 60.645c0 .238-.435.528-1.345.667a8.878 8.878 0 01-3.799-.43 20.13 20.13 0 01-4.925-2.447c-1.682-1.09-3.364-2.36-5.15-3.376a11.434 11.434 0 00-5.127-1.67 10.816 10.816 0 00-4.385.748c-2.465.957-3.724 2.32-4.164 2.001-.105-.07-.134-.232-.087-.481.065-.349.193-.683.377-.986a8.183 8.183 0 012.673-2.773 10.884 10.884 0 015.539-1.82 11.317 11.317 0 013.538.405c1.197.338 2.346.823 3.422 1.444a42.868 42.868 0 015.313 3.811 33.276 33.276 0 003.996 2.807 19.7 19.7 0 002.929 1.375c.72.278 1.184.464 1.195.725zM191.185 66.822a3.748 3.748 0 01-1.439.307 9.17 9.17 0 01-6.647-2.163 3.87 3.87 0 01-.986-1.09c.404.275.791.573 1.16.893a10.5 10.5 0 006.473 2.1c.876-.007 1.427-.105 1.439-.047zM194.519 74.414a1.842 1.842 0 01-.58-.133 14.694 14.694 0 01-1.519-.551 24.063 24.063 0 01-4.64-2.57 23.755 23.755 0 01-3.968-3.544 14.557 14.557 0 01-1.02-1.247 1.843 1.843 0 01-.319-.498c.046-.035.58.609 1.525 1.571a29.28 29.28 0 003.99 3.422 29.705 29.705 0 004.554 2.634 21.64 21.64 0 011.977.916z" fill="#fff"/><path d="M168.1 46.928c0 .052-.638.278-1.641.748a10.092 10.092 0 00-3.48 2.5 6.16 6.16 0 00-1.467 3.909c.038.588.135 1.171.29 1.74 0 0-.122-.133-.25-.43a4.083 4.083 0 01-.296-1.316 6.017 6.017 0 011.445-4.147 9.328 9.328 0 013.63-2.5 5.806 5.806 0 011.769-.504z" fill="#fff"/><path d="M164 44.515c.034.058-.58.412-1.358 1.224a7.893 7.893 0 00-1.798 8.074c.36 1.06.766 1.647.708 1.681-.058.035-.139-.121-.319-.388-.25-.38-.46-.784-.626-1.207a7.59 7.59 0 011.861-8.34 6.174 6.174 0 011.091-.83 1.36 1.36 0 01.441-.214zM187.072 80.701c0 .093-1.253 0-2.511-.83-1.259-.829-1.856-1.93-1.74-1.965.116-.035.771.899 1.966 1.664 1.195.766 2.308 1.05 2.285 1.131zM187.526 82.151c0 .087-1.363.18-2.818-.58-1.456-.76-2.17-1.954-2.088-1.99.081-.034.875.958 2.256 1.671 1.38.714 2.662.789 2.65.9zM151.454 59.549a2.057 2.057 0 01-1.003-.348 5.048 5.048 0 01-2.488-4.298 1.969 1.969 0 01.191-1.038c.049.341.07.687.064 1.032.077.817.328 1.608.737 2.32a5.687 5.687 0 001.635 1.78c.516.343.887.494.864.552zM152.586 57.345c-.069.063-.974-.847-1.74-2.21-.765-1.363-1.108-2.599-1.015-2.622.093-.023.58 1.12 1.328 2.448.749 1.328 1.508 2.314 1.427 2.384z" fill="#fff"/><path d="M178.169 74.24c-.32.357-.734.617-1.195.748a2.463 2.463 0 01-1.386.255 5.202 5.202 0 011.276-.539 5.264 5.264 0 011.305-.464zM179.365 75.881a9.06 9.06 0 01-3.289-.208 4.642 4.642 0 011.653-.047 4.718 4.718 0 011.636.255zM150.526 77.041c0 .087-.406.157-.91.163-.505.006-.911-.058-.911-.145s.406-.157.911-.157c.504 0 .91.058.91.14zM150.104 76.183c-.046.075-.394-.058-.777-.29-.383-.232-.667-.481-.621-.551.047-.07.389.058.777.29.389.232.662.481.621.551zM167.62 61.091c0 .047-.533.169-1.363.493-.829.325-1.925.888-3.195 1.433a8.703 8.703 0 01-3.44.812 4.218 4.218 0 01-1.067-.133c-.249-.064-.377-.122-.371-.14.006-.017.551.105 1.432.058a9.801 9.801 0 003.33-.875c1.247-.54 2.372-1.085 3.242-1.352a4.055 4.055 0 011.432-.296zM165.357 60.836a8.176 8.176 0 01-3.37 1.16 7.956 7.956 0 01-3.555-.122 33.468 33.468 0 003.48-.174 34.464 34.464 0 003.445-.864zM168.86 88.357c-.076.035-.337-.615-1.056-.899a3.258 3.258 0 00-1.386-.075c0-.035.11-.157.383-.25a1.652 1.652 0 011.949.778c.139.249.145.435.11.446zM170.299 88.01c-.081 0-.249-.697-.974-1.16a3.478 3.478 0 00-1.444-.418c0-.035.156-.134.464-.157.41-.017.816.094 1.16.319.341.219.605.54.754.916.098.302.075.5.04.5z" fill="#BC8579"/><path d="M152.974 81.6c.257-.048.517-.083.777-.104a5.638 5.638 0 002.042-.725c.44-.261.848-.575 1.212-.934.415-.43.765-.919 1.038-1.45a5.54 5.54 0 00.58-1.926c.07-.696 0-1.467.035-2.256l.139.14h-13.015l.139-.146c-.034.842-.009 1.685.076 2.523a5.728 5.728 0 003.665 4.437c.78.285 1.607.415 2.436.383h.667c.157 0 .232 0 .232.03h-.899a6.378 6.378 0 01-2.499-.314 5.874 5.874 0 01-3.863-4.565 17.703 17.703 0 01-.099-2.563v-.145H158.919v.139c0 .789 0 1.543-.058 2.285a5.665 5.665 0 01-.626 2.001 5.806 5.806 0 01-2.372 2.425 5.32 5.32 0 01-2.112.667 3.887 3.887 0 01-.58.029.772.772 0 01-.197.07zM171.343 81.6c.257-.048.517-.083.777-.104a5.638 5.638 0 002.042-.725c.44-.261.848-.575 1.212-.934.415-.43.765-.919 1.038-1.45a5.54 5.54 0 00.58-1.926c.07-.696.029-1.467.035-2.256l.139.14H164.14l.139-.146c-.035.842-.009 1.685.075 2.523a5.725 5.725 0 003.666 4.437 6.38 6.38 0 002.436.383h.667c.156 0 .232 0 .232.03h-.899a6.321 6.321 0 01-2.494-.314 5.87 5.87 0 01-3.869-4.565 17.846 17.846 0 01-.098-2.563v-.145h13.299v.139c0 .789 0 1.543-.058 2.285a5.665 5.665 0 01-.626 2.001 5.803 5.803 0 01-2.373 2.425 5.31 5.31 0 01-2.111.667 3.887 3.887 0 01-.58.029.776.776 0 01-.203.07z" fill="#455A64"/><path d="M164.029 75.945c-.04 0-.232-.267-.649-.58a3.098 3.098 0 00-3.834-.087c-.435.313-.638.58-.678.58-.041 0 .116-.354.545-.73a3.062 3.062 0 012.07-.76c.76.023 1.484.324 2.036.846.412.372.539.714.51.731zM188.384 78.735a11.032 11.032 0 01-1.665-.325 112.985 112.985 0 00-3.984-.818c-1.566-.29-2.981-.516-4.014-.672a9.854 9.854 0 01-1.664-.296 8.804 8.804 0 011.693.087 49.73 49.73 0 014.06.58c1.589.29 2.976.626 3.979.91a9.006 9.006 0 011.595.534z" fill="#455A64"/><path d="M152.54 80.887c-.477.056-.96.017-1.421-.116a6.59 6.59 0 01-3.057-1.59 5.718 5.718 0 01-1.74-2.98 2.97 2.97 0 01-.052-1.427c.052 0 .029.545.255 1.374a6.126 6.126 0 001.74 2.813 7.252 7.252 0 002.9 1.607c.795.238 1.375.267 1.375.319zM171.146 80.539c-.462.02-.923-.031-1.369-.151a7.583 7.583 0 01-3.08-1.282 4.446 4.446 0 01-1.74-2.824 2.919 2.919 0 01.035-1.021c.052-.238.11-.36.127-.354-.028.447-.011.896.052 1.34a4.505 4.505 0 001.74 2.621 8.48 8.48 0 002.941 1.311c.438.093.87.213 1.294.36z" fill="#fff"/><path d="M172.776 116.11s-.133 0-.319-.122a1.518 1.518 0 01-.545-.765 6.331 6.331 0 01-.267-1.328 1.738 1.738 0 00-.684-1.3 13.635 13.635 0 01-1.496-.684 2.217 2.217 0 01-.789-1.16 1.553 1.553 0 01.064-1.253c-.02.392.027.784.139 1.16.147.397.407.742.748.992.371.29.945.325 1.496.655.261.172.463.419.58.708.104.258.172.53.203.806.029.44.095.877.198 1.305.101.398.339.747.672.986zM175.345 115.292a1.859 1.859 0 01-1.084-.707 2.939 2.939 0 01-.644-1.282 2.78 2.78 0 01-.052-.858c.029-.296.098-.58.104-.865a1.62 1.62 0 00-.719-1.322c-.191-.18-.383-.342-.545-.528a1.685 1.685 0 01-.325-.609 1.077 1.077 0 01.104-.968c.163-.186.314-.192.314-.18 0 .011-.111.075-.215.243a1.037 1.037 0 000 .841c.072.187.178.358.313.505.151.157.342.313.54.487.222.177.418.387.58.621.185.27.272.595.249.922 0 .319-.081.58-.11.882a2.59 2.59 0 00.029.771c.083.438.265.851.533 1.206.275.317.586.599.928.841z" fill="#BC8579"/><path d="M98.304 151.89c-.238-.162-9.164-11.02-9.164-11.02s-.081-2.528-3.085-5.295c-3.005-2.767-10.905-11.223-10.905-11.223l-8.931-.951s-1.108 1.502 0 2.848l.168.203c-.702-.087-2.807-.163-2.935 2.012-.163 2.604.632 3.399.632 3.399-.551 1.17-.9 2.425-1.032 3.712a10.51 10.51 0 00.319 3.086s-.238.707 0 3.004a4.489 4.489 0 001.658 3.236 4.462 4.462 0 00-.394 3.324c.58 1.74 2.767 2.9 2.767 2.9s4.35 1.978 5.452 2.134c1.102.157 7.986 1.346 7.986 1.346l5.33 7.876 12.134-10.591z" fill="#E5AB91"/><path d="M92.585 150.116a2.09 2.09 0 01-1.114-.279 4.058 4.058 0 01-1.05-.69 9.701 9.701 0 01-.992-1.16 3.018 3.018 0 00-1.084-.922 3.332 3.332 0 01-1.114-.58.875.875 0 01-.238-.841c.076-.209.21-.255.21-.238 0 .017-.07.093-.1.267a.827.827 0 00.273.661c.334.21.698.369 1.079.47.48.221.895.56 1.206.986.294.405.612.792.951 1.16.289.275.61.513.958.707.597.319 1.026.412 1.015.459zM93.768 149.449s-.04-.111-.168-.256a1.303 1.303 0 00-.72-.342 3.836 3.836 0 01-1.281-.272 1.104 1.104 0 01-.51-.667 5.946 5.946 0 01-.151-.818 1.365 1.365 0 00-.255-.679 1.749 1.749 0 00-.546-.435 3.86 3.86 0 01-1.09-.719 1.156 1.156 0 01-.307-.841c.034-.226.133-.313.145-.302.011.012-.035.116 0 .302.03.269.163.516.37.69.325.26.687.47 1.074.621.244.119.46.287.638.493.178.239.29.521.325.818.07.58.115 1.084.498 1.293.383.155.785.256 1.195.302.303.064.572.235.76.481.064.197.04.331.023.331z" fill="#BC8579"/><path d="M72.308 147.987l.372 17.493h-4.02v-15.643l.963-1.357 2.685-.493z" fill="#455A64"/><path d="M65.963 125.721c.619.511 1.265.987 1.937 1.427a10.622 10.622 0 005.481 1.531h.58l-.035.185a6.966 6.966 0 001.126 5.22 9.918 9.918 0 001.525 1.659 1.743 1.743 0 01-.522-.33 6.01 6.01 0 01-1.16-1.213 6.903 6.903 0 01-1.247-5.37l.157.179h-.43a10.194 10.194 0 01-5.597-1.653 9.018 9.018 0 01-1.392-1.113 2.168 2.168 0 01-.423-.522z" fill="#BC8579"/><path d="M64.106 131.805c.116-.084.248-.143.388-.174a4.524 4.524 0 011.16-.197 9.53 9.53 0 013.735.719c1.158.479 2.348.877 3.562 1.189a1.6 1.6 0 001.06-.116c.227-.128.326-.244.343-.226.017.017-.052.156-.278.325-.344.219-.759.3-1.16.226a19.436 19.436 0 01-3.631-1.114 10.787 10.787 0 00-3.63-.789c-.52.021-1.037.074-1.55.157zM63.51 138.545c.147-.131.319-.231.504-.296a3.803 3.803 0 011.584-.25c.678 0 1.461.18 2.32.267.858.087 1.838.238 2.848.348.498.052.991.087 1.461.093h.696c.21-.019.418-.068.615-.145.375-.14.727-.335 1.044-.58a1.65 1.65 0 00.383-.36c.087-.136.15-.288.185-.446.119-.5.119-1.02 0-1.52a2.187 2.187 0 00-.203-.522s.203.116.32.487a3.21 3.21 0 01.063 1.607c-.033.185-.1.362-.197.522a1.967 1.967 0 01-.423.429 4.17 4.17 0 01-1.102.661c-.222.093-.457.15-.696.169h-.714c-.5-.004-1-.033-1.496-.087-1.015-.116-1.972-.279-2.842-.372-.87-.092-1.659-.29-2.32-.33a4.694 4.694 0 00-2.03.325zM65.191 144.896c.08-.183.198-.346.348-.476.168-.166.364-.3.58-.394.288-.116.59-.19.9-.221l1.078-.104c.418-.049.838-.076 1.259-.081.881 0 1.85.04 2.853 0 .479.006.956-.058 1.416-.192a1.877 1.877 0 001.015-.754 2.554 2.554 0 00.278-2.134 4.277 4.277 0 00-.679-1.34 3.296 3.296 0 01-.342-.464c.167.102.315.234.435.389.362.396.64.862.818 1.368a2.733 2.733 0 01-.25 2.355 2.192 2.192 0 01-1.16.876 5.06 5.06 0 01-1.502.215c-1.026.029-1.989-.041-2.865-.035-.433 0-.845.017-1.235.052l-1.085.07a2.318 2.318 0 00-1.415.487c-.296.238-.43.4-.447.383z" fill="#BC8579"/><path d="M67.586 148.48c0-.052.58.064 1.531 0a7.544 7.544 0 003.48-1.044 3.842 3.842 0 001.392-1.369 1.997 1.997 0 00.174-1.531 1.693 1.693 0 00-.58-.887c-.203-.157-.348-.203-.342-.232a.697.697 0 01.406.133c.337.216.589.542.713.922a2.176 2.176 0 01-.139 1.74 3.85 3.85 0 01-1.479 1.497 7.076 7.076 0 01-3.619 1.003 5.865 5.865 0 01-1.16-.11c-.243-.081-.383-.122-.377-.122zM75.92 135.175c-.225.77-.375 1.561-.446 2.36a8.87 8.87 0 001.537 5.464 9.863 9.863 0 004.507 3.48c.76.259 1.534.472 2.32.638-.219.024-.44.014-.656-.029a8.529 8.529 0 01-1.74-.412 9.54 9.54 0 01-4.674-3.526 8.701 8.701 0 01-1.508-5.649 7.06 7.06 0 01.382-1.74c.065-.208.159-.405.279-.586z" fill="#BC8579"/><path d="M88.386 163.821H53v11.008h35.386v-11.008z" fill="#455A64"/><path d="M58.795 163.931s-.081 0-.232-.029a2.905 2.905 0 00-.632 0 4.53 4.53 0 00-.91.221c-.337.116-.69.278-1.068.452a9.401 9.401 0 01-1.073.435 4.192 4.192 0 01-.928.18 2.526 2.526 0 01-.638-.035 1.469 1.469 0 01-.226-.058s.081 0 .226.041c.21.022.422.022.632 0 .314-.028.623-.093.922-.192a8.56 8.56 0 001.068-.435c.347-.169.704-.32 1.067-.452.3-.104.612-.174.928-.209.212-.027.426-.027.638 0 .078.018.154.045.226.081zM55.1 166.686a2.754 2.754 0 01-.326.064 5.289 5.289 0 00-1.496.545c-.18.099-.284.168-.29.163-.006-.006 0 0 .07-.058l.208-.128c.23-.14.473-.256.725-.348.253-.089.513-.157.778-.203l.243-.029.087-.006zM61.984 163.821h-.168c-.15.023-.298.062-.44.116a3.062 3.062 0 00-.58.319 8.493 8.493 0 00-.668.499c-.22.173-.452.33-.696.47-.2.114-.418.198-.644.249a1.5 1.5 0 01-.458.029.566.566 0 01-.168-.029.945.945 0 00.168 0 1.72 1.72 0 00.453-.041c.221-.055.434-.141.632-.255.24-.139.468-.296.684-.47.238-.179.459-.359.673-.498.194-.125.4-.23.615-.314.146-.052.298-.086.452-.098a.888.888 0 01.145.023zM66.398 165.613a1.833 1.833 0 000-.232 1.276 1.276 0 00-.18-.609 1.224 1.224 0 00-.725-.58 2.179 2.179 0 00-1.16.064 9.223 9.223 0 00-1.972.789c-.238.127-.43.238-.58.319l-.15.093-.053.034.046-.04.145-.099c.128-.087.32-.203.58-.336a8.888 8.888 0 011.978-.806 2.24 2.24 0 011.16-.058c.314.088.581.296.743.58.107.191.165.406.168.626a.753.753 0 010 .255z" fill="#263238"/><path d="M65 165.573a1.382 1.382 0 00-.192-.128 1.072 1.072 0 00-.55-.11c-.198.01-.393.047-.58.11l-.227.058c.071-.035.145-.064.22-.087.186-.073.382-.116.58-.128a.988.988 0 01.58.128.55.55 0 01.146.11c.011.029.029.047.023.047zM55.21 167.991s-.128 0-.337.052a2.979 2.979 0 00-1.45.749c-.15.145-.232.243-.238.243-.005 0 0-.029.053-.081.052-.065.108-.127.168-.186.194-.201.422-.368.673-.493.247-.128.513-.216.788-.261l.25-.029.093.006zM56.351 174.829l.087-.029.244-.092a2.77 2.77 0 00.812-.459c.168-.136.298-.314.377-.516a1.54 1.54 0 000-.731 2.538 2.538 0 00-.824-1.455 3.396 3.396 0 00-1.52-.737 5.005 5.005 0 00-1.392-.099 8.626 8.626 0 00-.933.122l-.256.047h-.087.087l.25-.053c.31-.065.623-.11.94-.133.467-.04.938-.011 1.397.087.57.113 1.102.37 1.543.748.44.383.734.905.835 1.479a1.61 1.61 0 01-.035.748 1.317 1.317 0 01-.388.528c-.249.197-.53.35-.83.453-.185.063-.307.092-.307.092z" fill="#263238"/><path d="M54.52 173.629a.925.925 0 00-.296-.174.734.734 0 00-.394 0 .577.577 0 00-.371.342.506.506 0 00.127.58c.102.07.216.119.337.141.121.023.245.021.365-.008a2.115 2.115 0 001.392-.916 1.16 1.16 0 00.197-.829.803.803 0 00-.452-.627 1.437 1.437 0 00-.725-.093c-.215.015-.429.05-.638.105a3.808 3.808 0 00-.881.33l-.22.122-.082.047a2.53 2.53 0 01.296-.186c.279-.149.575-.264.881-.342a3.27 3.27 0 01.644-.11c.251-.035.507-.003.742.092a.834.834 0 01.476.656c.043.301-.03.608-.203.858a2.166 2.166 0 01-1.41.917.938.938 0 01-.73-.145.551.551 0 01-.134-.615.586.586 0 01.395-.354.72.72 0 01.406 0 .782.782 0 01.226.122l.052.087zM68.961 172.591c-.135.06-.275.11-.417.15a5.957 5.957 0 01-1.207.221c-.602.046-1.207.046-1.81 0-.678-.041-1.426-.11-2.215-.11a7.556 7.556 0 00-2.18.307 7.153 7.153 0 00-1.66.708c-.351.201-.687.43-1.003.684-.116.087-.197.168-.255.215l-.087.075s.11-.116.33-.302a7.552 7.552 0 014.855-1.734c.789 0 1.537.076 2.216.116.602.043 1.207.043 1.81 0a6.035 6.035 0 001.2-.209c.107-.025.211-.058.313-.098l.11-.023z" fill="#263238"/><path d="M71.217 173.872h-.18l-.522.029-.83.041a1.054 1.054 0 01-.51-.046.193.193 0 01-.062-.043.193.193 0 01-.05-.14.19.19 0 01.02-.073.368.368 0 01.249-.168 12.026 12.026 0 012.83-.29.725.725 0 01.4.11.297.297 0 01.064.401.848.848 0 01-.319.284l-.197.098-.197.087a4.988 4.988 0 01-1.74.348 15.727 15.727 0 01-3.48-.487 9.383 9.383 0 00-2.82-.249 4.474 4.474 0 00-1.82.545c-.15.088-.294.186-.43.296l-.145.11.14-.116c.131-.114.273-.215.423-.302a4.408 4.408 0 011.827-.58 9.467 9.467 0 012.83.273c1.126.287 2.28.448 3.44.481a4.888 4.888 0 001.74-.336l.197-.087.191-.099a.821.821 0 00.308-.272.261.261 0 00-.052-.348.704.704 0 00-.377-.099 12.3 12.3 0 00-2.825.279.368.368 0 00-.232.15.169.169 0 00.081.221c.16.056.332.07.5.04l.829-.029h.521l.198-.029zM77.61 172.707h-.052l-.157.058c-.133.04-.319.116-.551.214-.458.203-1.067.534-1.74.899-.336.18-.667.342-.974.47-.27.119-.55.216-.836.29-.261.07-.53.113-.8.128h.215c.07 0 .156 0 .249-.047.111-.019.222-.044.33-.075.283-.08.56-.179.83-.296.302-.133.626-.296.969-.476.672-.359 1.287-.69 1.74-.881.25-.116.51-.211.777-.284zM83.194 173.031h-.081l-.215-.029c-.098 0-.214-.034-.353-.046-.14-.012-.29-.035-.465-.041a8.674 8.674 0 00-1.206 0c-.492.044-.98.124-1.462.238a9.81 9.81 0 00-1.403.482c-.372.166-.73.36-1.073.58a3.866 3.866 0 00-.389.255c-.116.069-.209.145-.29.203l-.174.133-.064.041c.281-.245.582-.466.9-.661.342-.22.701-.414 1.073-.58.457-.197.928-.36 1.409-.488a9.582 9.582 0 011.467-.237 8.537 8.537 0 011.218 0c.373.021.743.072 1.108.15zM88.004 167.956l-.105.064-.29.18c-.36.216-.693.475-.991.771a2.734 2.734 0 00-.488.708 1.84 1.84 0 00-.156.963c.046.348.18.696.255 1.073.036.191.036.388 0 .58a1.013 1.013 0 01-.308.522c-.318.24-.678.421-1.06.533l-1.033.395a4.16 4.16 0 00-.464.203.652.652 0 00-.314.348.394.394 0 00.07.406.584.584 0 00.371.133c.42.002.838-.029 1.253-.093l.342-.052h.116s-.162.041-.452.087a8.04 8.04 0 01-1.259.105.581.581 0 01-.394-.14.41.41 0 01-.075-.44.655.655 0 01.319-.366c.152-.082.311-.152.475-.209l1.032-.394c.377-.115.73-.296 1.044-.534a.912.912 0 00.29-.498c.04-.192.04-.389 0-.58-.075-.377-.208-.725-.249-1.079-.04-.336.016-.676.162-.98.123-.266.29-.51.493-.72a4.95 4.95 0 01.992-.742l.296-.168.128-.076zM88.061 174.899l-.029-.046-.081-.14a6.51 6.51 0 01-.267-.522 4.716 4.716 0 01-.476-1.873 3.07 3.07 0 01.546-1.839c.117-.158.254-.302.406-.429l.174-.122c-.052.05-.106.096-.163.14-.148.127-.28.271-.394.429a3.112 3.112 0 00-.528 1.821c.033.644.189 1.276.458 1.862.105.226.192.406.255.528l.076.139.023.052zM68.823 166.814c.14-.14.246-.308.313-.493a1.43 1.43 0 00.058-.627 1.626 1.626 0 00-.284-.707 2.893 2.893 0 00-1.073-.899c-.163-.087-.296-.145-.389-.192-.093-.046-.145-.063-.139-.069h.035l.11.046c.135.05.267.108.394.174.436.203.813.512 1.097.899.152.22.25.472.29.737.024.215 0 .433-.07.638a1.11 1.11 0 01-.22.371.772.772 0 01-.122.122zM88.38 167.26l-.162-.121a3.105 3.105 0 00-.493-.308 5.062 5.062 0 00-2.047-.551 11.242 11.242 0 00-3.144.319c-.58.122-1.195.261-1.833.377a19.51 19.51 0 01-2 .25 19.948 19.948 0 01-3.887-.082 7.976 7.976 0 01-1.658-.359 4.085 4.085 0 01-1.3-.702 4.746 4.746 0 01-.806-.911 7.972 7.972 0 00-.58-.725 2.334 2.334 0 00-.446-.371 1.058 1.058 0 00-.128-.081h-.046a.883.883 0 01.18.093c.164.105.316.23.452.371.206.229.4.469.58.719.225.338.497.642.806.905.383.308.82.544 1.288.696a8.332 8.332 0 001.653.348 20.287 20.287 0 005.87-.168c.637-.11 1.252-.255 1.838-.377a11.025 11.025 0 013.155-.308 5.16 5.16 0 012.053.58c.169.094.332.199.487.314l.169.092z" fill="#263238"/><path d="M80.364 164.981s-.435.041-1.2.075c-.465.025-.93.025-1.393 0a6.644 6.644 0 01-1.775-.359h-.058.058a14.123 14.123 0 015.505 0 .733.733 0 01.47.214.305.305 0 01.04.256.423.423 0 01-.14.22.878.878 0 01-.463.186l-.487.075a24.65 24.65 0 01-1.85.226 8.455 8.455 0 01-3.139-.267 4.534 4.534 0 01-2.273-1.467l-.128-.162.134.156c.128.144.266.28.411.406a5.093 5.093 0 001.868.986 8.38 8.38 0 003.12.255c.58-.046 1.213-.133 1.85-.226l.482-.075a.896.896 0 00.447-.174.332.332 0 00.093-.424.69.69 0 00-.447-.197 14.12 14.12 0 00-5.481 0v-.035a6.64 6.64 0 001.74.366c.46.037.924.047 1.386.029l.893-.035.337-.029zM88.304 165.3a6.398 6.398 0 01-.864.041 8.937 8.937 0 01-2.065-.279 8.542 8.542 0 01-1.937-.76 6.854 6.854 0 01-.737-.452l.052.029.145.087c.128.081.314.186.551.307a8.98 8.98 0 001.938.749c.67.173 1.36.271 2.053.29h.864v-.012zM88.299 164.326h-.366a6.21 6.21 0 01-.905 0 6.336 6.336 0 01-.887-.14l-.261-.069-.099-.035h.099l.267.058c.293.06.589.102.887.128.298.016.596.016.893 0h.273l.099.058z" fill="#263238"/><path d="M85.242 165.88H56.027v7.035h29.215v-7.035z" fill="#F5F5F5"/><path d="M85.259 167.04a.77.77 0 01-.04.093l-.134.255a4.055 4.055 0 01-.215.394c-.092.151-.185.325-.319.511-.133.185-.26.383-.423.58a7.474 7.474 0 01-.534.644c-.43.468-.897.9-1.397 1.293-.509.384-1.048.726-1.613 1.021-.267.127-.516.255-.76.348l-.348.145-.33.11c-.209.075-.406.122-.58.174a4.176 4.176 0 01-.441.104l-.278.053h-.099.099l.278-.064a4.34 4.34 0 00.435-.11c.168-.053.365-.099.58-.18l.33-.11.349-.145c.243-.093.487-.227.754-.348.56-.299 1.096-.642 1.6-1.027.502-.389.97-.82 1.398-1.288.197-.22.383-.423.54-.632.156-.209.301-.406.423-.58.122-.174.226-.354.319-.504.093-.151.168-.285.226-.395l.134-.249.046-.093zM85.113 171.332h-.168c-.11 0-.267.035-.464.075a8.28 8.28 0 00-2.848 1.102 6.872 6.872 0 00-.388.261l-.105.07h-.04.034l.099-.081.383-.267a7.876 7.876 0 011.374-.702 7.4 7.4 0 011.491-.406c.191-.035.354-.052.464-.064h.168v.012z" fill="#E0E0E0"/><path d="M80.828 169.209c-.06.036-.122.069-.186.099-.177.1-.376.154-.58.156a.654.654 0 01-.394-.15.441.441 0 01-.134-.476 1.2 1.2 0 01.337-.476 4.73 4.73 0 01.499-.429 4.516 4.516 0 011.334-.69c.266-.088.54-.15.817-.186.147-.017.295-.017.441 0a.81.81 0 01.412.198.587.587 0 01.168.435.997.997 0 01-.15.452 6.088 6.088 0 01-.58.777 7.518 7.518 0 01-.731.696 6.92 6.92 0 01-.847.58 7.103 7.103 0 01-1.88.801 7.304 7.304 0 01-.962.174 1.663 1.663 0 01-.922-.14.916.916 0 01-.528-.69 1.521 1.521 0 01.168-.818 7.277 7.277 0 012.929-3.306l-.174.116c-.11.076-.273.186-.481.343a7.96 7.96 0 00-1.503 1.56c-.29.409-.539.846-.742 1.305a1.509 1.509 0 00-.162.8.88.88 0 00.51.661c.282.125.593.169.899.128.323-.033.643-.091.957-.174a7.216 7.216 0 001.873-.795c.293-.175.574-.369.841-.58.257-.215.5-.448.725-.696.217-.238.411-.497.58-.771a.92.92 0 00.145-.435.512.512 0 00-.15-.4 1.055 1.055 0 00-.824-.203c-.276.03-.548.088-.812.174a4.652 4.652 0 00-1.328.684 4.05 4.05 0 00-.499.424c-.146.127-.26.288-.33.469a.409.409 0 00.121.447.615.615 0 00.383.151 1.26 1.26 0 00.58-.145l.18-.07zM77.719 166.199c.01.114.01.228 0 .342-.048.311-.14.614-.273.899a4.978 4.978 0 01-.777 1.16 9.886 9.886 0 01-1.27 1.16c-.476.371-.94.708-1.34 1.044a7.802 7.802 0 00-.986.975 4.855 4.855 0 00-.522.777c-.052.098-.093.174-.116.226l-.035.081c.037-.109.082-.216.134-.319.144-.278.317-.541.516-.783.299-.357.629-.687.986-.986.4-.336.864-.678 1.34-1.05a9.732 9.732 0 001.264-1.131c.313-.347.575-.738.777-1.16a3.66 3.66 0 00.29-.887c.016-.084.026-.17.03-.255-.018-.064-.018-.093-.018-.093zM64.64 172.84a11.97 11.97 0 011.99-.51c.626-.122 1.375-.227 2.198-.389.412-.087.841-.18 1.276-.307a9.636 9.636 0 003.596-1.996 9.695 9.695 0 001.497-1.647c.286-.41.546-.838.777-1.282l.174-.371.064-.127s-.076.185-.227.504a9.343 9.343 0 01-2.262 2.952c-.33.292-.678.561-1.044.807-.395.259-.808.492-1.235.696a10.3 10.3 0 01-1.328.498c-.435.128-.87.227-1.282.308-.824.162-1.572.267-2.198.383-.627.116-1.125.232-1.468.324l-.394.116-.133.041zM61.422 170.996a.717.717 0 01.04-.279c.086-.255.243-.481.453-.649a3.559 3.559 0 011.107-.58 4.943 4.943 0 011.642-.296c.327-.007.653.02.974.081.172.026.34.075.499.145a.982.982 0 01.423.331.681.681 0 01.134.539.845.845 0 01-.32.481 2.323 2.323 0 01-.504.308c-.18.087-.365.168-.58.249-.794.328-1.617.581-2.459.754-.44.087-.893.157-1.351.203l-.696.047a2.054 2.054 0 01-.702-.076 1.043 1.043 0 01-.58-.429 1.364 1.364 0 01-.203-.667 1.829 1.829 0 01.493-1.253c.29-.33.624-.621.992-.864a6.929 6.929 0 011.102-.615 9.755 9.755 0 012.227-.684c.665-.13 1.337-.217 2.012-.261.621-.052 1.16-.052 1.67-.116.413-.045.81-.184 1.16-.406.224-.147.407-.346.534-.58a.875.875 0 00.082-.192.722.722 0 000-.069 1.079 1.079 0 01-.099.261 1.674 1.674 0 01-.528.58 2.654 2.654 0 01-1.16.417c-.487.064-1.05.064-1.67.122-.674.048-1.344.135-2.007.261-.763.144-1.506.375-2.216.69a6.287 6.287 0 00-1.096.615 5.072 5.072 0 00-.986.853c-.31.334-.481.774-.481 1.229.006.229.075.451.197.644a.963.963 0 00.54.412c.223.066.457.091.69.075.232 0 .464 0 .696-.046.458-.046.904-.116 1.34-.203a13.2 13.2 0 002.459-.748 4.78 4.78 0 001.055-.551.837.837 0 00.302-.458.64.64 0 00-.122-.511 1.375 1.375 0 00-.905-.47 4.695 4.695 0 00-.968-.081 4.98 4.98 0 00-1.636.284c-.4.129-.775.325-1.108.58a1.457 1.457 0 00-.452.644.688.688 0 00-.04.203.582.582 0 01.046.076z" fill="#E0E0E0"/><path d="M64.82 166.048s-.127.087-.376.221c-.25.133-.615.313-1.08.51-.463.197-1.02.423-1.64.673-.67.268-1.321.58-1.95.934a6.84 6.84 0 00-1.699 1.328 4.972 4.972 0 00-.928 1.485 3.932 3.932 0 00-.25 1.16 2.968 2.968 0 000 .324v0a3.711 3.711 0 01.244-1.484 4.754 4.754 0 01.928-1.508 6.746 6.746 0 011.7-1.334 15.832 15.832 0 011.96-.934c.615-.25 1.16-.464 1.642-.661.481-.198.83-.372 1.078-.505l.29-.151.082-.058zM56.37 167.991h.191c.121 0 .295-.058.504-.11a7.96 7.96 0 003.457-1.827l.11-.093.035-.029v.035l-.105.099c-.087.087-.22.208-.388.348a7.784 7.784 0 01-3.068 1.502c-.17.04-.343.071-.517.093h-.139l-.08-.018z" fill="#E0E0E0"/><path d="M67.98 116.081l1.016-11.907h2.546l1.032 11.907h-4.593z" fill="#455A64"/><path d="M91.638 119.08a1.445 1.445 0 001.473-.414 1.436 1.436 0 00.267-1.506c-.237-.51-.777-.916-1.873-.992-2.946-.197-36.54-.58-42.624-.638a1.995 1.995 0 00-1.937 1.16 1.217 1.217 0 00.237 1.091c.754.58 1.416.33 2.448-.43 1.322-.962 16.872.412 18.612.998h3.585s2.9-.969 13.299-1.003c6.061 0 4.913.846 5.968 1.595l.545.139z" fill="#455A64"/><path d="M71.815 117.978l.441 3.178-.55.36.55 2.534-4.75-.504 1.154-2.03-.44-.603.197-2.889 3.398-.046zM70.278 105.148a3.718 3.718 0 100-7.435 3.718 3.718 0 000 7.435z" fill="#455A64"/><path d="M53.8 117.328c.215.76 1.108 3.967 2.802 10.023l7.024 25.311.058.209H45.356l.046-.203c2.401-10.11 4.5-18.966 6.009-25.323 1.444-6.05 2.21-9.251 2.39-10.017-.175.777-.917 4.06-2.32 10.22-1.445 6.322-3.48 15.138-5.76 25.195l-.162-.203h17.898l-.162.209c-2.697-10.046-5.07-18.862-6.769-25.19-1.647-6.182-2.517-9.454-2.726-10.231z" fill="#263238"/><path d="M43.435 151.96h23.02s-1.16 8.526-11.6 8.48c-10.335-.047-11.42-8.48-11.42-8.48z" fill="#455A64"/><path d="M57.419 159.164c-.16.078-.333.125-.51.139-.47.091-.948.142-1.427.151a11.493 11.493 0 01-2.129-.145 13.016 13.016 0 01-2.517-.708 12.5 12.5 0 01-2.32-1.235 11.615 11.615 0 01-1.63-1.346 8.292 8.292 0 01-.922-1.096 1.55 1.55 0 01-.273-.453c.047-.04.488.58 1.363 1.375.52.464 1.077.885 1.665 1.259.714.456 1.47.845 2.256 1.16a13.71 13.71 0 002.448.713c.683.127 1.376.197 2.07.209 1.166.046 1.926-.081 1.926-.023z" fill="#fff"/><path d="M88.421 117.328c.215.76 1.108 3.967 2.802 10.023l7.024 25.311.058.209H79.977l.052-.203 6.003-25.323c1.444-6.05 2.21-9.251 2.39-10.017-.175.777-.917 4.06-2.32 10.22-1.445 6.322-3.48 15.138-5.76 25.195l-.157-.203h17.893l-.156.209c-2.703-10.046-5.075-18.862-6.775-25.19a4326.631 4326.631 0 00-2.726-10.231z" fill="#263238"/><path d="M78.06 151.96h23.015s-1.16 8.526-11.6 8.48c-10.336-.047-11.414-8.48-11.414-8.48z" fill="#455A64"/><path d="M92.028 159.164c-.16.078-.333.125-.51.139-.47.091-.948.142-1.427.151a11.58 11.58 0 01-2.128-.145 13.02 13.02 0 01-2.518-.708 12.503 12.503 0 01-2.32-1.235 11.987 11.987 0 01-1.635-1.369 8.292 8.292 0 01-.922-1.096 1.74 1.74 0 01-.273-.453c.052-.04.493.58 1.363 1.375a12.808 12.808 0 006.345 3.178c.683.127 1.376.197 2.07.209 1.213.023 1.944-.104 1.955-.046z" fill="#fff"/><path d="M201.259 172.457s-1.021 11.763-.644 14.918c.377 3.155 3.48 20.915 6.803 23.397 3.324 2.482 7.076 5.928 11.954 5.452 4.878-.476 7.262-1.241 8.027-3.631.766-2.389 4.495-11.664 3.637-15.776-.859-4.112-4.02-10.515-4.02-10.515s-2.482-19.216-3.729-20.271l-1.241-1.05s2.105-7.54 1.914-9.86c-.192-2.32-2.773-22.197-6.925-25.178a25.98 25.98 0 00-6.38-3.346l-4.397 18.2-4.999 27.66z" fill="#263238"/><path d="M226.512 190.658a4.104 4.104 0 01-.539-.679 23.903 23.903 0 01-1.253-2.001 24.774 24.774 0 01-1.479-3.178 21.161 21.161 0 00-1.74-3.869 12.53 12.53 0 00-2.952-2.999l-2.796-2.088-1.873-1.426a4.85 4.85 0 01-.667-.58c.26.127.507.281.737.458l1.931 1.351c.806.58 1.781 1.253 2.836 2.042a12.424 12.424 0 013.039 3.051 20.593 20.593 0 011.74 3.938 27.216 27.216 0 001.41 3.172c.452.882.87 1.566 1.16 2.042.169.243.319.499.446.766zM219.239 188.848a2.495 2.495 0 01-.348.58c-.35.508-.738.989-1.16 1.438a10.562 10.562 0 01-5.18 3.156 7.516 7.516 0 01-5.91-1.085 5.271 5.271 0 01-1.322-1.305 2.215 2.215 0 01-.337-.58 7.822 7.822 0 001.781 1.74 7.542 7.542 0 005.719.963 10.82 10.82 0 005.092-3.01c1.085-1.126 1.665-1.932 1.665-1.897zM219.82 164.616a18.547 18.547 0 01-1.919-.319 34.063 34.063 0 00-4.64-.453 34.6 34.6 0 00-4.675.226c-1.189.145-1.92.279-1.932.232.159-.079.329-.132.505-.156.325-.087.806-.186 1.398-.284a26.207 26.207 0 014.715-.319c1.576.039 3.144.221 4.687.545.58.127 1.067.249 1.386.348.166.038.326.099.475.18zM217.366 158.763a17.94 17.94 0 01-1.833.517 36.301 36.301 0 00-8.456 3.48c-.54.338-1.097.646-1.671.922 0 0 .134-.134.4-.331.267-.197.662-.464 1.16-.777a28.274 28.274 0 018.515-3.48 18.86 18.86 0 011.374-.261c.167-.045.338-.069.511-.07z" fill="#455A64"/><path d="M213.113 132.727c-.023.105-.06.207-.11.302l-.377.852a73.39 73.39 0 00-1.351 3.138 65.277 65.277 0 00-1.74 4.745 106.241 106.241 0 00-1.74 5.956c-.551 2.135-.905 4.199-1.213 6.079a65.156 65.156 0 00-.614 5.022 88.6 88.6 0 00-.238 3.411l-.052.928a1.432 1.432 0 01-.041.325 1.359 1.359 0 010-.325v-.934c0-.806.041-1.978.145-3.422.104-1.444.278-3.155.58-5.046a80.08 80.08 0 011.195-6.107c.516-2.146 1.16-4.165 1.74-5.974.58-1.81 1.247-3.417 1.827-4.739.58-1.322 1.067-2.39 1.444-3.109l.423-.823c.031-.097.072-.19.122-.279z" fill="#455A64"/><path d="M217.146 182.422c-.052-.238-1.125-5.22-4.42-8.283-3.294-3.062-7.772-11.24-7.772-11.24s-2.036-3.625-1.879-6.925c.157-3.301 2.975-7.801 1.288-8.526-1.688-.725-5.464.081-6.752 7.238-1.287 7.157-.887 10.138-.887 10.138s-8.195.47-8.12 3.608c.075 3.138 2.082 4.101 2.082 4.101s-2.082 2.32-1.032 3.619c1.05 1.299 3.051 1.282 3.051 1.282s-1.282.406.081 2.575a5.173 5.173 0 003.48 2.413 3.729 3.729 0 00.481 2.975c.969 1.607 1.613 1.688 2.32 1.607.708-.082 4.64-.807 4.64-.807s.482 1.793 2.976 2.744l-.163 1.601s-.156 4.819 5.632 3.294c5.788-1.525 6.119-6.432 4.994-11.414z" fill="#E5AB91"/><path d="M203.922 162.104s-.255-.075-.725-.122a4.586 4.586 0 00-1.955.285c-.925.369-1.801.85-2.61 1.432a15.5 15.5 0 01-1.543.911 8.355 8.355 0 01-1.821.649c-1.287.29-2.511.499-3.613.725a5.894 5.894 0 00-1.491.493 2.65 2.65 0 00-.992.882 2.97 2.97 0 00-.452 1.879c.035.47.133.719.104.731a.943.943 0 01-.087-.174 3.054 3.054 0 01-.151-1.304c.044-.44.182-.866.407-1.248a2.754 2.754 0 011.055-.986 6.032 6.032 0 011.543-.545c1.114-.244 2.32-.464 3.608-.748a9.946 9.946 0 003.288-1.503 11.569 11.569 0 012.686-1.397 4.436 4.436 0 012.035-.198c.185.029.366.078.54.145.122.053.18.082.174.093zM203.696 167.075c-.606.33-1.236.615-1.885.852l-4.64 1.874c-1.809.731-3.445 1.392-4.64 1.896-.58.25-1.055.464-1.374.615a2.693 2.693 0 01-.511.221 7.727 7.727 0 011.798-1.027c1.16-.58 2.779-1.253 4.588-1.984 1.81-.73 3.48-1.357 4.64-1.798a14.404 14.404 0 012.024-.649zM211.194 178.42a1.594 1.594 0 01-.319.545 4.411 4.411 0 01-1.334 1.119 6.984 6.984 0 01-2.442.795 23.313 23.313 0 01-3.126.156 20.67 20.67 0 00-5.55.783c-1.381.401-2.204.766-2.222.72.176-.131.372-.233.58-.302.523-.238 1.06-.445 1.607-.621a18.436 18.436 0 015.603-.881 25.943 25.943 0 003.091-.134 7.044 7.044 0 002.384-.707 5.433 5.433 0 001.728-1.473zM212.674 182.857s.064.139.046.411c-.043.388-.2.753-.452 1.05a3.013 3.013 0 01-1.404.94c-.649.198-1.315.34-1.989.423-1.415.226-2.697.406-3.631.493a4.701 4.701 0 01-1.525 0c0-.04.58-.087 1.496-.232l3.614-.58a14.017 14.017 0 001.948-.388 2.94 2.94 0 001.329-.818c.32-.363.519-.818.568-1.299zM214.019 185.072a2.652 2.652 0 01-.76.98 5.289 5.289 0 01-5.678.986 2.623 2.623 0 01-1.05-.667c0-.04.424.227 1.131.47a5.602 5.602 0 005.452-.951c.557-.47.835-.87.905-.818zM213.875 180.479a18.878 18.878 0 00-1.74-3.985 18.223 18.223 0 00-2.854-3.277c.395.184.756.433 1.067.737a10.414 10.414 0 012.042 2.378c.564.887.994 1.852 1.276 2.865.138.413.208.846.209 1.282zM215.475 179.539a7.787 7.787 0 01-1.055-1.462 7.96 7.96 0 01-.981-1.525c.498.36.911.823 1.213 1.357.391.476.672 1.033.823 1.63zM205.747 173.861c0 .052-.76.058-1.966.249a29.16 29.16 0 00-4.64 1.16l-4.535 1.543c-.619.243-1.255.436-1.903.58.59-.302 1.203-.558 1.833-.766 1.16-.435 2.732-1.044 4.512-1.635a23.202 23.202 0 014.687-1.096 11.8 11.8 0 011.455-.087c.188-.016.376.002.557.052zM203.4 171.431a1.467 1.467 0 01-1.033.464c-.701.133-1.682-.093-2.656.121-.481.116-.905.406-1.363.551-.408.119-.84.129-1.253.029a1.992 1.992 0 00-.777 0c-.174.041-.261.105-.278.087-.018-.017.052-.11.243-.203.271-.09.559-.116.841-.075.388.072.787.044 1.16-.081.447-.221.906-.414 1.375-.58a4.903 4.903 0 011.519-.076c.396.038.793.047 1.189.029a4.243 4.243 0 001.033-.266zM211.521 174.18c-.07.052-.83-.957-2.059-1.885a2.117 2.117 0 01-.754-.87c-.14-.331-.198-.627-.285-.859a1.926 1.926 0 00-.417-.661s.093 0 .22.081c.176.127.312.299.395.499.116.238.203.534.342.824.16.304.396.561.684.748a5.704 5.704 0 011.874 2.123z" fill="#BC8579"/><circle cx="251.759" cy="58.273" r="32.779" fill="#EBEBEB"/></g><defs><clipPath id="clip0"><path fill="#fff" d="M0 0h290v290H0z"/></clipPath></defs></svg>