<svg width="403" height="289" viewBox="0 0 403 289" fill="none" xmlns="http://www.w3.org/2000/svg">
<path d="M292.124 119.565L291.719 117.047C288.306 95.8437 273.76 77.8887 253.424 70.9051C250.818 69.999 248.15 69.2858 245.439 68.7713C225.85 65.1046 204.611 72.0304 190.983 86.5363C182.97 95.0657 177.077 106.27 166.499 111.295C152.702 117.814 136.558 111.528 122.67 105.241C108.782 98.9534 92.583 92.6913 78.8439 99.2897C70.2412 103.419 64.4993 111.983 61.3312 120.985C52.9323 144.794 60.7595 172.445 77.4008 191.479C94.0421 210.513 118.316 221.665 143.115 226.609C177.843 233.554 215.62 228.683 245.202 209.245C274.783 189.807 294.709 154.861 292.124 119.565Z" fill="#F5F5F5"/>
<path d="M353.405 152.437L352.215 151.953C342.197 147.875 330.666 149.439 322.341 156.364C321.269 157.248 320.264 158.21 319.334 159.242C312.632 166.714 310.057 177.666 312.735 187.325C314.31 193.004 317.59 198.471 316.986 204.338C316.182 211.981 309.254 217.284 302.916 221.617C296.577 225.949 289.645 231.282 288.891 238.921C288.418 243.703 290.602 248.414 293.647 252.132C301.697 261.975 315.644 265.839 328.188 263.656C340.733 261.473 351.881 253.944 360.496 244.564C372.568 231.435 380.353 213.903 379.726 196.088C379.098 178.273 369.271 160.557 353.405 152.437Z" fill="#F5F5F5"/>
<path d="M25.0872 215.022C38.9426 215.022 50.1745 203.824 50.1745 190.011C50.1745 176.198 38.9426 165 25.0872 165C11.2319 165 0 176.198 0 190.011C0 203.824 11.2319 215.022 25.0872 215.022Z" fill="#F5F5F5"/>
<path d="M355.087 116.022C368.943 116.022 380.174 104.824 380.174 91.0109C380.174 77.1977 368.943 66 355.087 66C341.232 66 330 77.1977 330 91.0109C330 104.824 341.232 116.022 355.087 116.022Z" fill="#F5F5F5"/>
<path d="M45.8252 123.43C45.8252 123.43 45.8252 123.336 45.8726 123.153C45.92 122.97 45.9733 122.698 46.0443 122.356C46.1983 121.641 46.4293 120.614 46.7195 119.297C47.3117 116.622 48.2001 112.802 49.2779 108.032L57.8476 70.8046L58.0016 70.1492L58.126 70.8046L58.3155 71.6312C61.6498 86.3921 64.6702 99.7654 66.8556 109.454C67.9335 114.29 68.8041 118.205 69.4082 120.927C69.7043 122.273 69.9293 123.288 70.0892 124.044C70.1603 124.393 70.2195 124.635 70.261 124.859C70.3024 125.083 70.3084 125.142 70.3084 125.142C70.3084 125.142 70.2728 125.048 70.2254 124.865L70.03 124.062C69.8583 123.336 69.6095 122.291 69.2956 120.95C68.6619 118.234 67.7617 114.326 66.6424 109.502C64.4333 99.8186 61.3833 86.4747 58.0135 71.7138L57.824 70.8872H58.126L49.4675 108.085L46.8142 119.303C46.5003 120.62 46.2516 121.665 46.0799 122.356C45.9969 122.692 45.9259 122.946 45.8785 123.147C45.8311 123.347 45.8252 123.43 45.8252 123.43Z" fill="#263238"/>
<path d="M45.8188 134.489V125.142H70.8291V134.489C70.8291 135.919 70.5463 137.334 69.997 138.655C69.4477 139.976 68.6425 141.176 67.6276 142.186C66.6128 143.196 65.4081 143.997 64.0825 144.542C62.7569 145.088 61.3364 145.367 59.9023 145.365H56.7338C53.84 145.365 51.0646 144.219 49.0179 142.18C46.9711 140.14 45.8204 137.374 45.8188 134.489Z" fill="#455A64"/>
<path d="M45.8188 125.142C45.9254 125.263 46.0205 125.394 46.1031 125.532L46.8671 126.713L49.621 131L58.6171 145.205L58.6823 145.306H58.4217C61.8211 139.732 64.9008 134.678 67.1454 131.023L69.8164 126.713L70.5567 125.532C70.6385 125.396 70.7295 125.266 70.8291 125.142C70.7698 125.291 70.6964 125.433 70.61 125.568L69.9171 126.748C69.2893 127.799 68.4128 129.281 67.329 131.106C65.1021 134.79 62.058 139.844 58.6823 145.436L58.552 145.648L58.4217 145.436L58.3565 145.335L49.4374 131.094L46.7664 126.754L46.0498 125.573C45.9634 125.435 45.8862 125.291 45.8188 125.142Z" fill="#263238"/>
<path d="M60.8086 70.7219C60.8086 71.2603 60.6485 71.7865 60.3485 72.2341C60.0485 72.6817 59.6221 73.0306 59.1232 73.2366C58.6243 73.4426 58.0753 73.4965 57.5457 73.3915C57.0161 73.2865 56.5296 73.0273 56.1478 72.6466C55.766 72.2659 55.506 71.7809 55.4006 71.2529C55.2953 70.7249 55.3493 70.1776 55.556 69.6803C55.7626 69.1829 56.1126 68.7578 56.5615 68.4587C57.0105 68.1596 57.5384 68 58.0784 68C58.4371 67.9992 58.7925 68.0691 59.1241 68.2056C59.4557 68.3421 59.757 68.5426 60.0107 68.7955C60.2643 69.0484 60.4654 69.3488 60.6024 69.6794C60.7393 70.01 60.8094 70.3642 60.8086 70.7219Z" fill="#263238"/>
<path d="M59.493 146.38C59.493 146.614 59.4236 146.842 59.2935 147.036C59.1634 147.231 58.9784 147.382 58.7621 147.471C58.5457 147.561 58.3077 147.584 58.078 147.539C57.8483 147.493 57.6374 147.38 57.4718 147.215C57.3062 147.05 57.1934 146.84 57.1478 146.611C57.1021 146.382 57.1255 146.144 57.2151 145.928C57.3047 145.713 57.4565 145.528 57.6512 145.398C57.8459 145.269 58.0748 145.199 58.309 145.199C58.623 145.199 58.9242 145.324 59.1462 145.545C59.3683 145.767 59.493 146.067 59.493 146.38Z" fill="#263238"/>
<path d="M57.8061 146.817L57.9956 146.723C57.6637 146.933 57.3845 147.217 57.1792 147.551C56.9739 147.886 56.848 148.263 56.8112 148.653C56.743 149.432 56.8091 150.217 57.0066 150.974C57.0599 151.216 57.1902 151.517 57.4389 151.505C57.6877 151.493 57.7706 151.228 57.8061 151.003C57.8831 150.541 57.8951 150.07 57.8417 149.604C57.8132 150.203 58.0071 150.792 58.3865 151.257C58.4576 151.346 58.5642 151.44 58.6767 151.411C58.7893 151.381 58.8248 151.257 58.8544 151.151C58.9597 150.766 59.0193 150.369 59.0321 149.97C59.0587 150.324 59.1884 150.663 59.4052 150.944C59.4608 151.011 59.5296 151.066 59.6074 151.106C59.6851 151.145 59.7702 151.169 59.8573 151.174C59.9444 151.18 60.0317 151.167 60.1139 151.138C60.196 151.109 60.2713 151.063 60.335 151.003C60.3959 150.903 60.4362 150.791 60.4535 150.674C60.4708 150.557 60.4647 150.439 60.4357 150.324C60.2384 148.928 59.6745 147.608 58.8011 146.498" fill="#263238"/>
<path d="M47.3944 125.142C47.3944 125.142 36.1419 112.224 37.4033 111.757C38.6648 111.291 48.65 118.447 48.65 118.447C48.65 118.447 40.0625 99.3108 41.78 97.9115C43.4975 96.5121 52.5469 114.845 52.5469 114.845C52.5469 114.845 51.1374 88.0866 52.5469 87.7737C53.9564 87.4608 59.0971 114.538 59.0971 114.538C59.0971 114.538 66.7488 89.7989 68.9282 89.7989C71.1077 89.7989 66.5889 113.605 66.5889 113.605C66.5889 113.605 75.6442 98.3779 77.0774 100.403C78.5106 102.428 70.6457 118.919 70.6457 118.919C70.6457 118.919 82.0404 109.425 82.4905 110.653C82.9406 111.881 70.1601 125.125 70.1601 125.125L47.3944 125.142Z" fill="#8547C6"/>
<path d="M45.8251 105.693C45.9021 105.658 47.8979 109.915 50.2787 115.205C52.6595 120.496 54.5251 124.812 54.4244 124.847C54.3237 124.883 52.3516 120.62 49.9708 115.329C47.59 110.039 45.7481 105.729 45.8251 105.693Z" fill="#263238"/>
<path d="M54.9042 108.073C54.9871 108.073 55.3186 111.822 55.6442 116.457C55.9698 121.092 56.1592 124.859 56.0764 124.865C55.9935 124.871 55.662 121.116 55.3364 116.481C55.0108 111.846 54.8213 108.079 54.9042 108.073Z" fill="#263238"/>
<path d="M67.4239 96.087C67.4169 96.19 67.395 96.2915 67.3588 96.3882C67.2956 96.6165 67.2127 96.8999 67.1101 97.2384C66.8791 98.0178 66.5593 99.0746 66.1743 100.356C65.3807 102.989 64.3147 106.638 63.2131 110.689C62.1116 114.739 61.2291 118.429 60.6013 121.104C60.2934 122.409 60.0446 123.466 59.8611 124.274C59.7722 124.617 59.7071 124.9 59.6478 125.136C59.6288 125.238 59.5969 125.338 59.5531 125.432C59.5488 125.326 59.5608 125.221 59.5886 125.119C59.6301 124.889 59.6775 124.599 59.7426 124.251C59.8788 123.495 60.1039 122.403 60.3881 121.057C60.9804 118.364 61.8273 114.662 62.9111 110.606C63.9949 106.55 65.1024 102.93 65.9433 100.291C66.3698 98.9861 66.7251 97.9292 66.9798 97.203C67.1041 96.8664 67.1989 96.6125 67.2818 96.3705C67.314 96.2691 67.362 96.1735 67.4239 96.087Z" fill="#263238"/>
<path d="M72.8369 109.88C72.908 109.927 70.7167 113.192 67.9391 117.16C65.1615 121.127 62.8636 124.292 62.7866 124.292C62.7096 124.292 64.9128 120.986 67.6904 117.012C70.468 113.038 72.7718 109.832 72.8369 109.88Z" fill="#263238"/>
<path d="M51.1849 124.882C50.8264 124.697 50.4956 124.462 50.2018 124.186C49.4517 123.561 48.736 122.897 48.0579 122.196C47.3788 121.505 46.7382 120.778 46.139 120.017C45.8663 119.719 45.6389 119.383 45.4639 119.019C45.5349 118.966 46.7016 120.372 48.2829 121.972C49.8642 123.572 51.2441 124.794 51.1849 124.882Z" fill="#263238"/>
<path d="M58.0135 119.734C58.2438 120.604 58.3768 121.497 58.4101 122.397C58.5457 123.288 58.5755 124.191 58.4989 125.089C58.2673 124.219 58.1342 123.326 58.1023 122.426C57.9668 121.536 57.937 120.632 58.0135 119.734Z" fill="#263238"/>
<path d="M70.8295 130.964C70.514 131.058 70.191 131.125 69.8642 131.165C69.2719 131.271 68.3303 131.413 67.205 131.572C64.2747 131.98 61.3255 132.241 58.3688 132.351C55.4026 132.464 52.432 132.342 49.4852 131.985C48.36 131.838 47.4538 131.69 46.832 131.56C46.5062 131.511 46.1852 131.434 45.8726 131.33C46.2008 131.342 46.5275 131.379 46.8498 131.442C47.4775 131.537 48.3896 131.649 49.5148 131.767C52.4485 132.06 55.3988 132.153 58.3451 132.044C61.7979 131.926 64.919 131.608 67.1695 131.354L69.8345 131.047C70.1628 130.988 70.496 130.96 70.8295 130.964Z" fill="white"/>
<path d="M70.8295 133.739C70.5149 133.837 70.1916 133.904 69.8642 133.94C69.2719 134.052 68.3303 134.194 67.205 134.347C64.9604 134.654 61.8334 135.009 58.3688 135.133C55.4024 135.24 52.4321 135.116 49.4852 134.761C48.36 134.613 47.4538 134.465 46.832 134.335C46.5062 134.286 46.1852 134.209 45.8726 134.105C46.2005 134.12 46.5269 134.158 46.8498 134.217C47.4775 134.312 48.3896 134.43 49.5148 134.542C52.4485 134.835 55.3988 134.928 58.3451 134.82C61.7979 134.702 64.919 134.383 67.1695 134.129L69.8345 133.822C70.1638 133.771 70.4963 133.743 70.8295 133.739Z" fill="white"/>
<path d="M254.88 67.4017C251.209 67.401 247.605 68.3907 244.452 70.2661C241.299 72.1415 238.714 74.8326 236.971 78.054C235.228 81.2754 234.392 84.907 234.551 88.5638C234.711 92.2206 235.86 95.7662 237.877 98.8247L234.916 106.258L242.615 103.897C245.19 105.836 248.191 107.136 251.37 107.691C254.55 108.245 257.815 108.038 260.898 107.086C263.981 106.134 266.793 104.465 269.101 102.216C271.409 99.967 273.148 97.203 274.173 94.1521C275.198 91.1013 275.481 87.851 274.998 84.6698C274.515 81.4885 273.279 78.4674 271.394 75.8558C269.509 73.2443 267.028 71.1173 264.155 69.6505C261.283 68.1836 258.101 67.4189 254.874 67.4194L254.88 67.4017Z" fill="#FAFAFA"/>
<path d="M259.968 91.4444H257.155C257.16 91.7651 257.099 92.0835 256.977 92.3801C256.854 92.6767 256.673 92.9454 256.443 93.1697C256.213 93.394 255.939 93.5693 255.639 93.6848C255.339 93.8003 255.018 93.8536 254.697 93.8416C254.223 93.8591 253.756 93.7285 253.361 93.468C252.966 93.2075 252.663 92.8302 252.494 92.3891C252.344 92.0214 252.284 91.6235 252.319 91.2283C252.354 90.8331 252.483 90.4518 252.695 90.1159C253.169 89.3365 254.217 88.6221 256.112 88.9351V82.6233H253.329V86.3312C252.184 86.6677 251.181 87.3701 250.476 88.3303C249.771 89.2906 249.402 90.4553 249.426 91.6451C249.426 95.7487 253.116 96.7052 254.697 96.7052C255.905 96.6875 260.021 96.3923 259.968 91.4444Z" fill="#8547C6"/>
<path d="M253.293 81.3184H256.118V78.685H253.293V81.3184Z" fill="#8547C6"/>
<path d="M275.39 87.6892C275.4 87.5693 275.4 87.4488 275.39 87.329C275.39 87.0751 275.39 86.7386 275.36 86.2898C275.36 86.0596 275.36 85.7998 275.324 85.5164C275.289 85.233 275.242 84.9259 275.194 84.5953C275.147 84.2646 275.094 83.9045 275.04 83.5207C274.987 83.1369 274.845 82.7472 274.744 82.3398C274.221 80.275 273.361 78.3101 272.197 76.524C270.512 73.8749 268.241 71.6459 265.557 70.0083C262.874 68.3706 259.849 67.3679 256.716 67.077C255.779 66.9971 254.837 66.9793 253.897 67.0239C253.418 67.0239 252.932 67.0239 252.452 67.1125L250.995 67.3309C248.999 67.6952 247.068 68.3497 245.262 69.2735C241.342 71.2668 238.169 74.4653 236.213 78.3957C235.157 80.4507 234.474 82.6753 234.193 84.9673C234.104 85.5537 234.055 86.1455 234.045 86.7386C234.001 87.3279 233.989 87.9192 234.01 88.5099C234.063 89.701 234.214 90.8858 234.46 92.0525C234.995 94.5779 235.999 96.9811 237.421 99.1377V98.9252C236.432 101.37 235.467 103.773 234.525 106.117L234.353 106.542L234.798 106.418L242.497 104.304L242.307 104.269C244.901 106.221 247.92 107.536 251.12 108.106C252.609 108.381 254.126 108.477 255.638 108.39C256.365 108.372 257.089 108.303 257.806 108.183L258.86 108.018C259.204 107.953 259.541 107.853 259.879 107.77C264.621 106.565 268.781 103.722 271.617 99.7459C272.675 98.277 273.524 96.6696 274.14 94.9692L274.531 93.8946C274.62 93.5404 274.703 93.1979 274.786 92.8732L275.022 91.9344C275.076 91.6392 275.111 91.344 275.153 91.0783C275.218 90.5351 275.313 90.0568 275.336 89.6376C275.36 89.2184 275.336 88.8759 275.372 88.5807C275.407 88.2855 275.372 88.1025 275.372 87.9371C275.379 87.8645 275.379 87.7914 275.372 87.7187C275.353 87.788 275.343 87.8594 275.342 87.9312C275.342 88.0966 275.313 88.3091 275.289 88.5748C275.265 88.8405 275.247 89.2184 275.218 89.6258C275.188 90.0332 275.082 90.5173 275.005 91.0546C274.326 94.9561 272.526 98.5775 269.825 101.48C267.123 104.383 263.636 106.443 259.784 107.41C259.452 107.486 259.121 107.587 258.777 107.652L257.741 107.805C257.038 107.922 256.327 107.985 255.615 107.994C254.132 108.076 252.644 107.979 251.185 107.705C248.054 107.135 245.103 105.838 242.568 103.92L242.479 103.855H242.378L234.679 105.951L234.946 106.258L237.854 99.0669L237.895 98.9547L237.83 98.8543C235.79 95.7631 234.631 92.1773 234.478 88.4803C234.457 87.9035 234.469 87.3259 234.513 86.7504C234.519 86.1769 234.566 85.6047 234.655 85.0381C234.931 82.7976 235.601 80.6231 236.634 78.6142C237.615 76.6709 238.891 74.8905 240.418 73.3357C241.915 71.8775 243.615 70.6408 245.464 69.6632C247.232 68.7481 249.126 68.0976 251.084 67.7324L252.506 67.5081C252.979 67.4431 253.453 67.449 253.921 67.4136C254.845 67.371 255.77 67.3848 256.693 67.4549C259.775 67.7308 262.754 68.7017 265.404 70.2944C268.054 71.8871 270.306 74.0597 271.99 76.648C273.156 78.4037 274.03 80.3357 274.578 82.3693C274.691 82.7885 274.797 83.1841 274.892 83.5502C274.987 83.9163 275.017 84.2823 275.07 84.613C275.123 84.9436 275.176 85.2448 275.218 85.5223C275.259 85.7998 275.259 86.0596 275.277 86.2898C275.307 86.7268 275.336 87.0692 275.354 87.329C275.356 87.4498 275.368 87.5703 275.39 87.6892Z" fill="#263238"/>
<path d="M162.2 195.623C161.85 196.804 160.281 248.171 169.834 288.74L217.373 288.847C218.006 261.132 228.625 218.036 213.257 194.2L162.2 195.623Z" fill="#263238"/>
<path d="M210.189 97.569C211.758 103.261 214.133 107.819 216.449 110.11C218.764 112.401 221.24 115.081 221.157 118.329C221.122 119.604 220.695 120.956 221.258 122.107C221.98 123.595 223.917 123.92 225.368 124.735C226.421 125.384 227.278 126.304 227.85 127.398C228.423 128.492 228.688 129.72 228.619 130.952C228.445 133.42 227.356 135.736 225.563 137.447C223.787 139.254 220.908 140.517 218.67 139.283C217.319 138.539 216.55 137.087 215.868 135.705C212.343 128.553 209.152 121.251 206.298 113.8" fill="#263238"/>
<path d="M195.762 73.2017C193.763 70.9886 191.135 69.4349 188.229 68.7474C185.322 68.06 182.274 68.2715 179.491 69.3536C176.708 70.4358 174.321 72.3374 172.649 74.8052C170.977 77.2731 170.098 80.1902 170.13 83.1683C170.171 86.9766 171.664 90.9738 170.13 94.4692C169.064 96.949 166.577 98.8207 166.251 101.495C165.854 104.595 168.519 107.4 168.377 110.535C168.288 112.578 167.003 114.379 165.528 115.796C164.054 117.213 162.336 118.376 160.98 119.929C157.219 124.192 156.982 130.923 159.795 135.835C162.609 140.748 168.128 143.841 173.778 144.509C179.428 145.176 185.197 143.623 190.201 140.913C193.458 139.142 196.52 136.827 198.457 133.674C200.393 130.521 201.063 126.435 199.529 123.046" fill="#263238"/>
<path d="M177.829 70.9049C178.674 70.8891 179.519 70.9286 180.358 71.023C182.369 71.3885 184.341 71.938 186.251 72.6644C188.19 73.3925 190.249 73.7549 192.321 73.7331C192.948 73.703 193.569 73.5959 194.169 73.4143C194.392 73.3537 194.607 73.2664 194.809 73.1545C193.992 73.363 193.157 73.4895 192.315 73.5323C190.273 73.4962 188.251 73.1108 186.34 72.3928C184.415 71.6599 182.418 71.1334 180.382 70.8222C179.757 70.7648 179.129 70.7648 178.504 70.8222C178.276 70.818 178.049 70.8458 177.829 70.9049Z" fill="#455A64"/>
<path d="M225.67 141.238C225.622 140.508 225.525 139.782 225.38 139.065C224.755 136.143 223.427 133.417 221.508 131.122C219.59 128.827 217.14 127.032 214.37 125.892L200.068 119.876L183.722 120.295C183.722 120.295 171.575 125.827 169.129 128.709C168.946 128.921 167.317 130.527 167.21 131.153L154.909 167.559L139.186 177.331L143.497 182.81L166.677 180.62L169.484 176.067C167.951 179.498 161.833 193.414 161.833 197.677C161.833 197.677 197.61 205.312 211.853 203.883C218.119 203.251 219.606 202.667 219.606 202.667L215.424 187.044C218.889 186.807 222.431 184.682 223.852 181.73C226.322 176.611 226.114 148.11 225.67 141.238Z" fill="#8547C6"/>
<path d="M113.997 146.664H111.534L114.909 178.435L144.048 176.439L140.761 149.084L113.997 146.664Z" fill="#E0E0E0"/>
<path d="M113.997 145.093L116.573 177.319L174.103 175.471L167.014 145.093L141.151 147.585L113.997 145.093Z" fill="#FAFAFA"/>
<path d="M113.997 145.123L114.459 145.158L115.85 145.276L121.24 145.737L141.163 147.508L167.026 144.993H167.15V145.111C169.335 154.44 171.734 164.707 174.257 175.489L174.298 175.672H174.109L171.396 175.754L116.585 177.478H116.466V177.36C115.702 167.465 115.08 159.399 114.642 153.796C114.435 151.015 114.269 148.848 114.162 147.36C114.107 146.636 114.066 146.081 114.038 145.695C114.038 145.317 114.038 145.105 114.038 145.105C114.038 145.105 114.038 145.312 114.091 145.695C114.145 146.079 114.18 146.652 114.239 147.384C114.37 148.878 114.553 151.051 114.79 153.843C115.252 159.429 115.915 167.465 116.733 177.319L116.608 177.213L171.42 175.441L174.138 175.359L173.99 175.542C171.479 164.766 169.093 154.499 166.919 145.164L167.067 145.27L141.204 147.726L121.37 145.849L115.963 145.329L114.547 145.188L113.997 145.123Z" fill="#263238"/>
<path d="M145.842 175.991C145.798 175.903 145.766 175.809 145.747 175.713C145.694 175.495 145.623 175.229 145.546 174.91C145.374 174.208 145.143 173.192 144.871 171.958C144.32 169.437 143.633 165.947 142.981 162.068C142.33 158.189 141.85 154.664 141.548 152.108C141.4 150.826 141.288 149.793 141.222 149.073C141.193 148.742 141.169 148.482 141.151 148.246C141.136 148.15 141.136 148.053 141.151 147.957C141.182 148.049 141.203 148.144 141.216 148.24C141.216 148.465 141.288 148.73 141.341 149.061C141.447 149.817 141.59 150.832 141.767 152.078C142.123 154.629 142.644 158.148 143.289 162.021C143.935 165.894 144.592 169.39 145.066 171.917C145.303 173.145 145.498 174.154 145.658 174.904C145.718 175.235 145.771 175.495 145.806 175.725C145.829 175.812 145.841 175.901 145.842 175.991Z" fill="#263238"/>
<path d="M137.877 183.678L132.546 179.781L132.837 170.925C133.434 171.054 133.976 171.363 134.389 171.812C134.803 172.26 135.067 172.824 135.146 173.428C135.365 175.507 135.549 177.479 135.549 177.479L137.225 177.981L136.994 176.829L141.069 171.043C141.069 171.043 142.614 172.182 141.969 173.682C142.709 172.962 143.882 173.558 143.746 174.225L144.03 172.649C144.03 172.649 145.884 172.1 145.807 173.971C145.804 174.721 145.73 175.468 145.587 176.203H152.061C152.061 176.203 150.189 179.356 149.099 180.212C148.01 181.068 138.184 183.725 138.184 183.725" fill="#FFBE9D"/>
<path d="M138.368 181.978C137.465 180.433 136.993 178.676 137 176.888C137.095 176.888 137.266 178.069 137.645 179.445C138.024 180.82 138.45 181.936 138.368 181.978Z" fill="#EB996E"/>
<path d="M140.524 180.608C140.21 179.463 139.994 178.294 139.878 177.112V177.059V177.012L139.979 176.841C140.554 175.728 141.219 174.663 141.968 173.658C141.484 174.814 140.908 175.93 140.245 176.994L140.145 177.166V177.071C140.369 178.238 140.496 179.421 140.524 180.608Z" fill="#EB996E"/>
<path d="M143.165 179.586C142.998 178.898 142.912 178.193 142.911 177.484V177.449C142.988 177.112 143.059 176.764 143.142 176.404C143.324 175.358 143.608 174.332 143.988 173.34C143.904 174.4 143.72 175.449 143.438 176.475L143.195 177.508V177.473C143.263 178.176 143.253 178.885 143.165 179.586Z" fill="#EB996E"/>
<path d="M203.011 78.0728V80.9718L203.603 124.333C203.674 129.364 199.392 133.438 193.985 133.473C188.525 133.509 183.97 129.417 183.816 124.333C183.65 119.019 183.384 113.381 183.384 113.381C183.384 113.381 176.455 112.43 174.779 103.503C173.944 99.0627 173.967 91.7413 174.186 85.7543C174.226 84.4713 174.528 83.2097 175.073 82.0467C175.617 80.8836 176.394 79.8435 177.356 78.9899C178.318 78.1362 179.444 77.4868 180.665 77.0814C181.887 76.6761 183.179 76.5232 184.462 76.6321L203.011 78.0728Z" fill="#FFBE9D"/>
<path d="M177.598 92.2255C177.61 92.5234 177.734 92.8059 177.946 93.0161C178.158 93.2264 178.442 93.3489 178.741 93.3591C178.89 93.3704 179.039 93.3513 179.181 93.303C179.322 93.2547 179.452 93.1783 179.563 93.0783C179.674 92.9784 179.763 92.8569 179.825 92.7215C179.887 92.586 179.921 92.4394 179.925 92.2904C179.913 91.9925 179.789 91.7101 179.577 91.4998C179.365 91.2896 179.081 91.167 178.782 91.1568C178.633 91.1447 178.483 91.1632 178.341 91.2111C178.2 91.2591 178.069 91.3355 177.958 91.4356C177.847 91.5358 177.758 91.6575 177.696 91.7934C177.634 91.9292 177.601 92.0763 177.598 92.2255Z" fill="#263238"/>
<path d="M175.922 89.5154C176.07 89.6571 176.929 88.9899 178.167 88.9604C179.404 88.9309 180.334 89.5508 180.464 89.3678C180.595 89.1848 180.376 89.0312 179.973 88.7773C179.425 88.4195 178.779 88.24 178.125 88.2637C177.481 88.2814 176.859 88.5026 176.348 88.8954C175.981 89.1729 175.851 89.4445 175.922 89.5154Z" fill="#263238"/>
<path d="M189.839 92.2255C189.851 92.5234 189.975 92.8059 190.187 93.0161C190.399 93.2264 190.683 93.3489 190.982 93.3591C191.131 93.3704 191.281 93.3513 191.422 93.303C191.563 93.2548 191.693 93.1783 191.804 93.0783C191.915 92.9784 192.004 92.857 192.066 92.7215C192.128 92.5861 192.162 92.4394 192.166 92.2905C192.154 91.9925 192.03 91.7101 191.818 91.4998C191.606 91.2896 191.322 91.167 191.023 91.1568C190.874 91.1456 190.725 91.1647 190.583 91.2129C190.442 91.2612 190.312 91.3377 190.201 91.4376C190.091 91.5376 190.001 91.659 189.939 91.7945C189.877 91.9299 189.843 92.0766 189.839 92.2255Z" fill="#263238"/>
<path d="M188.134 89.4092C188.282 89.5568 189.141 88.8837 190.378 88.8542C191.616 88.8247 192.546 89.4447 192.676 89.2616C192.807 89.0786 192.593 88.9251 192.185 88.6712C191.636 88.3154 190.991 88.138 190.337 88.1634C189.693 88.1794 189.071 88.3985 188.56 88.7893C188.187 89.0668 188.063 89.3443 188.134 89.4092Z" fill="#263238"/>
<path d="M183.882 98.7145C183.222 98.5271 182.542 98.4239 181.856 98.4074C181.536 98.4074 181.234 98.3248 181.175 98.1122C181.138 97.786 181.202 97.4564 181.359 97.1675L182.235 94.7349C183.42 91.275 184.302 88.4291 184.166 88.3818C184.03 88.3346 182.934 91.1037 181.726 94.5637L180.891 97.014C180.705 97.4019 180.659 97.842 180.76 98.2598C180.811 98.3695 180.886 98.4663 180.979 98.543C181.072 98.6197 181.182 98.6743 181.299 98.7027C181.475 98.748 181.657 98.7699 181.838 98.7676C182.519 98.8307 183.205 98.8129 183.882 98.7145Z" fill="#263238"/>
<path d="M183.432 113.381C187.669 113.326 191.809 112.1 195.389 109.838C195.389 109.838 192.635 116.079 183.609 115.489L183.432 113.381Z" fill="#EB996E"/>
<path d="M184.491 101.678C184.719 101.376 185.02 101.137 185.366 100.983C185.712 100.829 186.092 100.766 186.47 100.799C186.745 100.814 187.014 100.885 187.26 101.008C187.507 101.131 187.725 101.303 187.903 101.513C188.074 101.714 188.18 101.963 188.205 102.226C188.23 102.489 188.175 102.753 188.045 102.983C187.851 103.211 187.594 103.376 187.306 103.457C187.018 103.538 186.712 103.531 186.428 103.438C185.835 103.249 185.285 102.944 184.811 102.54C184.671 102.444 184.549 102.324 184.45 102.186C184.404 102.117 184.379 102.036 184.379 101.953C184.379 101.87 184.404 101.789 184.45 101.72" fill="#EB996E"/>
<path d="M187.559 99.4702C187.358 99.4702 187.393 100.805 186.262 101.791C185.131 102.777 183.698 102.67 183.692 102.853C183.692 102.942 184.018 103.107 184.628 103.107C185.418 103.095 186.179 102.807 186.777 102.292C187.35 101.798 187.706 101.102 187.772 100.35C187.826 99.7831 187.654 99.4584 187.559 99.4702Z" fill="#263238"/>
<path d="M187.678 84.5676C187.808 84.8982 189.046 84.7034 190.509 84.8392C191.971 84.975 193.156 85.3411 193.345 85.034C193.422 84.8864 193.209 84.5735 192.753 84.2605C192.108 83.8791 191.383 83.6491 190.635 83.5877C189.887 83.5263 189.135 83.6353 188.436 83.9063C187.885 84.1366 187.624 84.4082 187.678 84.5676Z" fill="#263238"/>
<path d="M176.277 85.9197C176.508 86.1913 177.355 85.8784 178.379 85.837C179.404 85.7957 180.286 85.9728 180.476 85.6717C180.565 85.53 180.417 85.2466 180.032 84.9927C179.514 84.6806 178.912 84.5362 178.308 84.5794C177.706 84.5986 177.124 84.805 176.644 85.1698C176.289 85.4887 176.182 85.7839 176.277 85.9197Z" fill="#263238"/>
<path d="M191.699 75.2328C189.295 78.4211 191.794 82.9084 194.566 85.8134C197.337 88.7183 200.713 92.0307 199.955 95.9453C199.078 100.486 192.848 103.391 193.778 107.919C194.115 109.573 195.424 110.984 195.43 112.643C195.43 115.689 191.486 117.166 190.349 119.994C188.791 123.867 193.079 127.728 193.144 131.903C193.18 134.265 191.829 136.485 191.758 138.852C191.61 143.706 197.373 147.26 202.093 146.067C206.813 144.875 210.047 140.281 211.077 135.534C212.108 130.787 210.544 124.115 209.78 119.321L217.959 121.21C219.487 119.763 217.402 118.222 217.059 116.15C216.2 110.96 212.777 106.567 211.136 101.56C209.709 97.1852 209.703 92.503 209.081 87.9448C208.459 83.3867 207.038 78.6396 203.55 75.6343C200.061 72.6289 194.021 72.257 191.196 75.894" fill="#263238"/>
<path d="M197 158.366L194.512 154.995L197.894 147.484L199.078 129.895C199.078 129.895 196.626 129.252 196.378 132.015C196.23 133.639 196.099 135.091 196.099 135.091L193.316 134.2L189.354 135.38C189.354 135.38 189.531 137.388 191.13 136.992C192.072 136.755 193.044 136.655 194.015 136.697L195.531 138.917V139.714L193.517 138.28H189.537L187.074 140.399C187.074 140.399 187.909 142.365 189.2 141.769C189.2 141.769 187.05 147.567 186.831 148.659C186.831 148.659 184.64 154.31 186.831 157.581C188.329 159.738 190.052 161.731 191.971 163.527L197 158.366Z" fill="#FFBE9D"/>
<path d="M197.994 141.185C198.133 140.913 198.19 140.608 198.16 140.305C197.943 139.584 197.654 138.888 197.295 138.226C196.808 137.255 196.412 136.241 196.111 135.198C196.695 136.116 197.193 137.087 197.597 138.097C197.775 138.498 197.947 138.882 198.106 139.277C198.269 139.6 198.368 139.951 198.396 140.311C198.412 140.56 198.348 140.808 198.213 141.019C198.095 141.149 198.006 141.196 197.994 141.185Z" fill="#EB996E"/>
<path d="M196.958 140.73C196.301 140.453 195.686 140.083 195.134 139.632C194.175 138.953 193.446 138.321 193.517 138.238C194.145 138.563 194.74 138.946 195.294 139.384C195.91 139.751 196.471 140.205 196.958 140.73Z" fill="#EB996E"/>
<path d="M195.176 144.048C194.835 143.796 194.55 143.477 194.341 143.109C194.084 142.739 193.866 142.343 193.689 141.928C193.583 141.682 193.49 141.429 193.411 141.173C193.401 141.122 193.381 141.075 193.352 141.033C193.322 140.991 193.283 140.956 193.239 140.931C193.118 140.889 192.993 140.864 192.866 140.854C192.055 140.748 191.285 140.612 190.669 140.553H190.71C190.488 140.679 190.288 140.841 190.118 141.031C189.946 141.208 189.798 141.362 189.668 141.48C189.407 141.728 189.206 141.822 189.194 141.793C189.182 141.763 189.336 141.651 189.555 141.379L189.964 140.889C190.141 140.648 190.367 140.447 190.627 140.299H190.669C191.338 140.334 192.084 140.452 192.901 140.559C193.062 140.569 193.22 140.605 193.369 140.665C193.448 140.709 193.518 140.768 193.574 140.839C193.63 140.91 193.671 140.991 193.695 141.078C193.778 141.356 193.849 141.592 193.944 141.828C194.109 142.237 194.307 142.632 194.536 143.009C194.933 143.647 195.211 144.013 195.176 144.048Z" fill="#EB996E"/>
<path d="M191.474 144.532C191.453 143.876 191.532 143.221 191.711 142.59C191.788 141.936 191.972 141.3 192.256 140.706C192.277 141.362 192.195 142.018 192.013 142.649C191.935 143.301 191.753 143.937 191.474 144.532Z" fill="#EB996E"/>
<path d="M194.471 147.85C194.508 147.65 194.481 147.444 194.394 147.26C194.283 147.066 194.113 146.913 193.908 146.823C193.633 146.725 193.331 146.725 193.056 146.823C192.706 146.948 192.377 147.123 192.078 147.343C191.719 147.603 191.319 147.803 190.894 147.933C190.631 148.009 190.352 148.005 190.091 147.922C189.831 147.839 189.601 147.68 189.431 147.467C189.35 147.34 189.299 147.197 189.28 147.048C189.262 146.899 189.277 146.747 189.324 146.605C189.42 146.337 189.567 146.09 189.757 145.878C190.42 145.111 191.169 144.421 191.99 143.824C192.361 143.547 192.797 143.37 193.257 143.31C193.671 143.275 194.085 143.37 194.441 143.582C194.923 143.878 195.329 144.282 195.626 144.762C195.755 144.922 195.857 145.102 195.928 145.294C195.78 145.155 195.647 145.001 195.531 144.833C195.212 144.403 194.809 144.042 194.347 143.771C194.029 143.602 193.669 143.53 193.31 143.564C192.898 143.63 192.509 143.799 192.179 144.054C191.392 144.653 190.669 145.331 190.023 146.079C189.686 146.457 189.467 146.947 189.709 147.301C189.847 147.464 190.028 147.585 190.231 147.649C190.435 147.712 190.652 147.717 190.858 147.662C191.693 147.437 192.309 146.758 193.044 146.593C193.37 146.491 193.721 146.512 194.033 146.652C194.262 146.769 194.444 146.961 194.548 147.195C194.661 147.644 194.471 147.868 194.471 147.85Z" fill="#EB996E"/>
<path d="M220.399 184.599C220.238 184.813 220.058 185.01 219.86 185.19C219.304 185.698 218.665 186.107 217.971 186.4C216.868 186.871 215.682 187.114 214.482 187.115C212.896 187.113 211.328 186.777 209.881 186.129C208.139 185.338 206.51 184.322 205.036 183.105C203.431 181.818 201.761 180.407 200.044 178.872C198.235 177.271 196.555 175.529 195.021 173.664C193.408 171.636 191.955 169.487 190.674 167.235C190.396 166.745 190.124 166.254 189.845 165.776L189.792 165.676L189.875 165.593L198.96 156.252L199.037 156.17L199.138 156.229C205.06 159.89 210.058 163.155 213.6 165.404L217.746 168.038L218.841 168.74L219.126 168.923L219.214 168.994C219.214 168.994 219.179 168.994 219.108 168.947L218.818 168.782L217.698 168.114C216.721 167.524 215.329 166.662 213.517 165.552C209.964 163.338 204.953 160.114 198.995 156.471H199.173L190.118 165.788V165.605C190.39 166.089 190.669 166.573 190.941 167.063C192.221 169.305 193.672 171.445 195.282 173.464C196.802 175.32 198.467 177.054 200.263 178.648C203.704 181.671 206.777 184.552 209.993 185.916C211.409 186.567 212.947 186.913 214.506 186.932C215.685 186.942 216.854 186.721 217.947 186.282C218.637 186.003 219.277 185.614 219.842 185.131C220.227 184.794 220.399 184.587 220.399 184.599Z" fill="#263238"/>
<path d="M210.651 147.166C210.669 147.376 210.669 147.587 210.651 147.797C210.651 148.27 210.621 148.842 210.603 149.51C210.55 151.039 210.479 152.999 210.402 155.172C210.325 157.345 210.23 159.382 210.147 160.828L210.041 162.54C210.039 162.752 210.012 162.962 209.958 163.166C209.916 162.958 209.904 162.746 209.922 162.535C209.922 162.127 209.922 161.543 209.922 160.816C209.922 159.37 210.005 157.368 210.088 155.16C210.171 152.952 210.278 150.95 210.378 149.504C210.387 148.717 210.478 147.933 210.651 147.166Z" fill="#263238"/>
<path d="M218.148 131.625C218.148 131.679 217.509 131.897 216.555 132.458C215.998 132.785 215.471 133.16 214.98 133.58C213.78 134.612 212.813 135.885 212.143 137.317C211.869 137.9 211.649 138.507 211.486 139.13C211.202 140.198 211.172 140.901 211.113 140.901C211.082 140.741 211.082 140.577 211.113 140.417C211.131 139.974 211.191 139.533 211.29 139.1C211.423 138.454 211.621 137.823 211.883 137.217C212.542 135.731 213.539 134.419 214.796 133.385C215.308 132.963 215.861 132.595 216.449 132.287C216.84 132.074 217.251 131.898 217.675 131.761C217.825 131.692 217.984 131.646 218.148 131.625Z" fill="#263238"/>
<path d="M171.924 164.524C171.757 164.225 171.615 163.913 171.498 163.592C171.243 163.001 170.876 162.098 170.473 160.988C169.68 158.779 168.596 155.621 168.584 151.972C168.584 151.087 168.657 150.205 168.803 149.333C168.959 148.524 169.156 147.724 169.395 146.935C169.834 145.436 170.248 144.101 170.473 142.95C170.667 142.044 170.741 141.117 170.692 140.193C170.657 139.543 170.568 139.183 170.604 139.177C170.638 139.259 170.664 139.344 170.681 139.431C170.743 139.679 170.787 139.932 170.811 140.187C170.905 141.12 170.865 142.063 170.692 142.985C170.491 144.166 170.1 145.512 169.668 147.012C169.466 147.762 169.259 148.553 169.117 149.374C168.978 150.231 168.909 151.098 168.91 151.966C168.91 155.55 169.958 158.691 170.686 160.911C171.06 162.027 171.397 162.924 171.616 163.544C171.746 163.862 171.849 164.19 171.924 164.524Z" fill="#263238"/>
<path d="M200.92 188.514C200.838 188.567 200.748 188.606 200.654 188.632L199.884 188.915C199.215 189.157 198.226 189.464 196.994 189.801C195.762 190.138 194.276 190.474 192.611 190.775C190.947 191.076 189.105 191.295 187.157 191.431C185.208 191.566 183.349 191.56 181.661 191.501C179.973 191.442 178.457 191.289 177.189 191.112C175.922 190.935 174.903 190.769 174.228 190.616L173.429 190.439C173.333 190.423 173.239 190.395 173.15 190.356C173.246 190.34 173.344 190.34 173.441 190.356L174.252 190.48C174.957 190.598 175.975 190.74 177.213 190.876C178.451 191.011 179.991 191.135 181.673 191.2C183.355 191.265 185.226 191.23 187.139 191.106C189.052 190.982 190.906 190.74 192.564 190.474C194.222 190.208 195.709 189.884 196.941 189.571C198.172 189.258 199.167 188.98 199.849 188.779L200.636 188.555C200.728 188.528 200.824 188.514 200.92 188.514Z" fill="#263238"/>
<path d="M169.834 175.282C169.789 175.592 169.706 175.896 169.585 176.185C169.389 176.776 169.082 177.573 168.703 178.577C167.933 180.59 166.849 183.353 165.706 186.429C164.563 189.506 163.58 192.334 162.916 194.353L162.14 196.78C162.063 197.083 161.96 197.38 161.833 197.665C161.871 197.355 161.937 197.049 162.028 196.75C162.164 196.16 162.401 195.327 162.703 194.288C163.295 192.228 164.267 189.405 165.416 186.323C166.565 183.241 167.678 180.49 168.495 178.494L169.472 176.132C169.703 175.589 169.816 175.276 169.834 175.282Z" fill="#263238"/>
<path d="M211.273 288.628C211.265 288.555 211.265 288.482 211.273 288.41C211.273 288.25 211.273 288.043 211.273 287.772C211.273 287.181 211.237 286.378 211.214 285.327C211.178 283.202 211.154 280.132 211.16 276.329C211.16 268.73 211.267 258.238 211.16 246.648C211.054 235.058 210.686 224.566 209.976 217.002C209.786 215.113 209.656 213.401 209.437 211.913C209.342 211.165 209.253 210.468 209.17 209.823C209.129 209.504 209.093 209.197 209.058 208.907C209.022 208.618 208.957 208.317 208.91 208.081C208.738 207.047 208.602 206.239 208.501 205.666C208.46 205.406 208.43 205.194 208.406 205.04C208.397 204.967 208.397 204.894 208.406 204.822C208.431 204.89 208.449 204.962 208.46 205.034L208.59 205.625C208.697 206.215 208.856 207 209.052 208.028C209.105 208.293 209.158 208.565 209.212 208.854C209.265 209.144 209.295 209.445 209.342 209.775C209.431 210.419 209.526 211.11 209.632 211.86C209.869 213.353 210.017 215.066 210.225 216.955C210.989 224.518 211.409 235.022 211.498 246.618C211.587 258.215 211.45 268.707 211.397 276.3C211.397 280.084 211.362 283.155 211.356 285.298V287.742C211.356 288.008 211.356 288.221 211.356 288.38C211.34 288.466 211.312 288.55 211.273 288.628Z" fill="#455A64"/>
<path d="M204.646 77.2225C204.553 76.4478 204.708 75.6635 205.09 74.9824C205.472 74.3013 206.061 73.7585 206.772 73.4319C207.493 73.1279 208.275 72.9957 209.057 73.0459C209.838 73.0961 210.597 73.3274 211.273 73.7213C212.13 74.1932 212.86 74.8636 213.403 75.6759C213.945 76.4882 214.284 77.4187 214.39 78.3888C214.496 79.3589 214.367 80.3403 214.013 81.2502C213.659 82.1601 213.091 82.9718 212.357 83.617C211.541 84.385 210.458 84.8082 209.336 84.7978C208.368 84.6568 207.429 84.3638 206.553 83.9299C205.635 83.5815 204.587 83.3395 203.704 83.7764" fill="#263238"/>
<path d="M208.685 84.7919C208.276 83.2807 207.729 81.8102 207.05 80.3991C206.274 79.0394 205.369 77.7564 204.35 76.5671C204.742 76.8219 205.092 77.1367 205.386 77.5C206.911 79.1718 207.984 81.204 208.501 83.4044C208.633 83.8548 208.695 84.3228 208.685 84.7919Z" fill="#8547C6"/>
<path d="M207.222 81.1194C207.02 81.2871 206.802 81.4335 206.57 81.5563C205.946 81.9079 205.292 82.2043 204.616 82.442C202.367 83.231 199.953 83.4343 197.604 83.0324C196.311 82.8117 195.057 82.4019 193.884 81.8161C192.907 81.3509 192.072 80.6358 191.462 79.7437C191.06 79.1322 190.841 78.4198 190.828 77.689C190.823 77.4905 190.843 77.2921 190.888 77.0985C190.917 76.9686 190.941 76.9037 190.953 76.9037C190.965 76.9037 190.911 77.1871 190.953 77.6772C191.01 78.3748 191.251 79.0451 191.652 79.6197C192.623 81.1194 194.998 82.253 197.657 82.7254C199.962 83.1121 202.326 82.942 204.551 82.2294C205.462 81.913 206.354 81.5423 207.222 81.1194Z" fill="#455A64"/>
<path d="M207.843 84.3077C207.843 84.3077 207.761 84.4554 207.571 84.6915C207.298 85.0166 206.999 85.3187 206.677 85.5949C204.532 87.4682 201.769 88.4859 198.918 88.4526C198.494 88.4545 198.069 88.4189 197.651 88.3463C197.349 88.2932 197.189 88.2578 197.195 88.2342C197.201 88.2105 197.858 88.2696 198.918 88.2342C200.298 88.1866 201.661 87.9215 202.957 87.4489C204.242 86.9663 205.442 86.2827 206.511 85.4237C207.37 84.7447 207.802 84.2487 207.843 84.3077Z" fill="#455A64"/>
<path d="M213.44 77.8129C213.513 78.1942 213.472 78.5883 213.322 78.9465C213.042 79.8515 212.444 80.6253 211.638 81.1255C210.832 81.6257 209.871 81.8185 208.933 81.6684C208.546 81.6372 208.175 81.5003 207.861 81.2728C207.861 81.2256 208.282 81.3968 208.957 81.45C209.836 81.5339 210.718 81.3274 211.467 80.8621C212.216 80.3969 212.791 79.6989 213.103 78.8757C213.369 78.2675 213.393 77.8129 213.44 77.8129Z" fill="#455A64"/>
<path d="M132.184 166.989L131.274 164.147L126.748 164.163L125.857 167.011L123.021 167.021L127.361 155.006L130.579 154.994L135.021 166.979L132.184 166.989ZM130.638 162.024C129.797 159.45 129.322 157.993 129.213 157.656C129.11 157.318 129.035 157.052 128.989 156.856C128.805 157.554 128.276 159.281 127.402 162.036L130.638 162.024Z" fill="#8547C6"/>
<path d="M151 155.175L154.733 154.682C156.435 154.457 157.7 154.538 158.531 154.923C159.365 155.303 159.853 156.02 159.992 157.076C160.087 157.793 159.995 158.403 159.717 158.908C159.444 159.411 159.034 159.746 158.489 159.913L158.499 159.995C159.282 160.064 159.871 160.309 160.266 160.73C160.667 161.15 160.918 161.746 161.02 162.517C161.165 163.611 160.881 164.517 160.169 165.235C159.462 165.951 158.43 166.399 157.073 166.579L152.585 167.172L151 155.175ZM154.171 159.59L155.648 159.395C156.338 159.304 156.821 159.131 157.099 158.878C157.383 158.623 157.492 158.25 157.427 157.757C157.367 157.298 157.154 156.992 156.788 156.84C156.428 156.682 155.884 156.651 155.157 156.747L153.819 156.923L154.171 159.59ZM154.438 161.609L154.851 164.735L156.509 164.516C157.209 164.423 157.708 164.221 158.006 163.909C158.305 163.597 158.417 163.164 158.344 162.612C158.213 161.616 157.436 161.213 156.014 161.401L154.438 161.609Z" fill="#8547C6"/>
<path d="M276.384 266.982H53.6546L53.0742 274.056H96.2603V288.846H100.436V274.056H258.925V288.911H263.094V274.056H276.384V266.982Z" fill="#455A64"/>
<path d="M230.094 212.639C230.094 212.32 225.534 192.086 225.185 190.556L229.04 184.882C229.04 184.882 230.45 183.548 230.012 182.952C229.573 182.355 228.827 182.279 227.992 182.822C227.465 183.17 224.699 184.629 224.699 184.629C224.699 184.629 223.651 176.416 223.432 175.825C223.213 175.235 222.638 174.951 222.247 175.382C221.856 175.813 221.963 181.381 221.963 181.381C221.963 181.381 219.742 174.52 219.268 174.249C219.154 174.179 219.025 174.136 218.892 174.123C218.759 174.11 218.624 174.127 218.498 174.174C218.373 174.221 218.26 174.295 218.167 174.392C218.075 174.489 218.006 174.605 217.965 174.733C217.965 175.004 219.487 182.361 219.487 182.361C219.487 182.361 215.934 175.654 215.342 175.866C215.112 175.924 214.907 176.056 214.76 176.242C214.613 176.428 214.532 176.657 214.53 176.894C214.477 177.378 216.899 184.457 216.899 184.457C216.899 184.457 214.187 179.267 213.701 179.433C213.461 179.565 213.269 179.77 213.153 180.019C213.038 180.267 213.006 180.546 213.062 180.814C213.133 181.287 216.508 191.519 217.136 193.402L218.569 217.61L228.324 238.606L237.118 226.337C237.118 226.337 230.094 212.975 230.094 212.639Z" fill="#FFBE9D"/>
<path d="M242.668 218.803C242.668 218.803 241.483 235.926 243.781 238.606C246.079 241.287 250.769 240.59 250.769 240.59L253.813 226.012L242.668 218.803Z" fill="#FFBE9D"/>
<path d="M237.468 226.408L241.921 232.666L251.989 237.933L274.885 249.901C276.063 250.517 276.988 251.522 277.504 252.743C278.019 253.965 278.092 255.327 277.71 256.597L276.917 259.236L268.329 280.409L268.768 288.911L223.064 288.846C223.064 288.846 233.34 255.54 233.666 253.42C233.991 251.301 232.019 248.484 232.019 248.484C232.019 248.484 226.097 244.351 226.097 243.873C226.097 243.395 226.914 227.234 237.468 226.408Z" fill="#8547C6"/>
<path d="M236.39 261.787C236.331 261.787 236.39 260.972 236.295 259.679C236.229 258.92 236.11 258.166 235.94 257.423C235.726 256.515 235.453 255.622 235.123 254.749C234.497 253.174 233.732 251.659 232.837 250.22C232.15 249.11 231.682 248.449 231.723 248.449C231.867 248.574 231.995 248.717 232.102 248.874C232.339 249.157 232.653 249.588 233.02 250.137C233.978 251.562 234.772 253.089 235.389 254.69C235.728 255.575 235.999 256.485 236.201 257.412C236.36 258.17 236.459 258.94 236.497 259.714C236.497 260.045 236.497 260.346 236.497 260.606C236.499 260.831 236.487 261.056 236.461 261.279C236.461 261.451 236.437 261.621 236.39 261.787Z" fill="#263238"/>
<path d="M262.413 278.047C262.129 278.184 261.834 278.294 261.53 278.378C260.938 278.573 260.121 278.838 259.084 279.157C257.017 279.801 254.145 280.639 250.953 281.519C247.761 282.399 244.859 283.107 242.75 283.597C241.696 283.845 240.837 284.034 240.245 284.158C239.941 284.241 239.63 284.294 239.315 284.318C239.608 284.203 239.909 284.111 240.216 284.04L242.697 283.385L250.876 281.218L259.025 278.962L261.495 278.278C261.794 278.177 262.101 278.1 262.413 278.047Z" fill="#263238"/>
<path d="M277.349 257.016L276.976 256.898C276.617 256.767 276.251 256.654 275.88 256.561C274.461 256.194 272.989 256.066 271.527 256.184C269.209 256.361 266.986 257.178 265.108 258.545C263.937 259.392 262.916 260.427 262.087 261.61C261.142 262.917 260.494 264.414 260.186 265.997C260.027 266.842 260.049 267.711 260.251 268.547C260.458 269.417 260.963 270.188 261.679 270.726C262.464 271.259 263.393 271.544 264.344 271.544C265.294 271.544 266.223 271.259 267.009 270.726C267.806 270.092 268.41 269.249 268.752 268.291C269.094 267.333 269.161 266.299 268.945 265.306C268.708 264.251 268.222 263.269 267.526 262.44C266.831 261.611 265.947 260.96 264.948 260.541C262.833 259.622 260.46 259.48 258.249 260.139C257.104 260.443 256.002 260.89 254.968 261.468C253.908 262.046 252.915 262.739 252.007 263.534C250.139 265.174 248.662 267.21 247.684 269.492C247.189 270.658 246.847 271.882 246.665 273.135C246.575 273.762 246.537 274.396 246.553 275.03C246.556 275.657 246.734 276.27 247.068 276.802C247.247 277.049 247.475 277.257 247.738 277.414C248.001 277.57 248.293 277.671 248.596 277.711C249.216 277.807 249.85 277.773 250.456 277.61C251.671 277.296 252.737 276.565 253.464 275.544C254.158 274.535 254.475 273.315 254.359 272.096C254.243 270.878 253.702 269.739 252.83 268.878C251.96 268.052 250.891 267.462 249.727 267.166C248.589 266.849 247.406 266.723 246.227 266.794C243.928 266.939 241.691 267.599 239.683 268.724C237.767 269.789 236.1 271.245 234.791 272.999C233.541 274.688 232.641 276.666 232.712 278.65C232.728 279.598 233.032 280.52 233.586 281.292C234.139 282.064 234.914 282.649 235.81 282.972C236.234 283.097 236.68 283.137 237.12 283.088C237.561 283.04 237.987 282.904 238.374 282.688C239.118 282.272 239.733 281.659 240.151 280.917C240.883 279.478 241.076 277.826 240.695 276.258C240.42 274.845 239.91 273.488 239.185 272.243C237.841 269.911 235.685 268.5 233.772 268.411C232.933 268.349 232.09 268.462 231.297 268.742C230.715 268.95 230.18 269.269 229.721 269.681C229.352 270.024 229.038 270.423 228.792 270.862C228.792 270.862 228.845 270.744 228.963 270.513C229.159 270.182 229.4 269.88 229.68 269.616C230.235 269.123 230.886 268.749 231.592 268.517C232.298 268.286 233.044 268.202 233.784 268.27C235.738 268.341 237.959 269.769 239.333 272.131C240.074 273.392 240.601 274.767 240.891 276.199C241.287 277.816 241.092 279.52 240.34 281.005C239.899 281.788 239.249 282.434 238.463 282.871C238.049 283.103 237.592 283.249 237.12 283.302C236.648 283.355 236.17 283.313 235.715 283.178C234.77 282.845 233.95 282.232 233.364 281.422C232.778 280.612 232.453 279.642 232.434 278.644C232.351 276.571 233.281 274.546 234.548 272.822C235.913 270.99 237.66 269.474 239.669 268.381C241.678 267.287 243.902 266.641 246.186 266.487C247.398 266.41 248.615 266.536 249.786 266.859C250.996 267.17 252.108 267.779 253.02 268.63C253.942 269.542 254.515 270.747 254.638 272.036C254.761 273.325 254.428 274.616 253.695 275.686C252.924 276.766 251.796 277.541 250.509 277.876C249.86 278.05 249.182 278.086 248.519 277.982C248.176 277.936 247.845 277.82 247.548 277.643C247.251 277.465 246.993 277.229 246.79 276.949C246.416 276.375 246.211 275.708 246.197 275.024C246.183 274.371 246.223 273.717 246.316 273.07C246.498 271.79 246.846 270.54 247.352 269.35C248.361 267.033 249.877 264.969 251.788 263.31C252.715 262.498 253.73 261.793 254.814 261.208C255.868 260.619 256.993 260.164 258.161 259.856C260.437 259.183 262.879 259.333 265.054 260.281C266.094 260.721 267.012 261.402 267.734 262.268C268.455 263.134 268.958 264.159 269.2 265.259C269.424 266.302 269.35 267.387 268.986 268.39C268.621 269.394 267.981 270.274 267.139 270.933C266.31 271.494 265.33 271.792 264.327 271.787C263.325 271.781 262.348 271.473 261.525 270.903C260.771 270.328 260.238 269.514 260.014 268.594C259.812 267.726 259.792 266.826 259.955 265.949C260.278 264.338 260.947 262.815 261.915 261.486C262.759 260.29 263.801 259.246 264.995 258.398C266.555 257.294 268.342 256.551 270.226 256.223C272.11 255.895 274.044 255.99 275.886 256.502C276.387 256.634 276.876 256.806 277.349 257.016Z" fill="#FAFAFA"/>
<path d="M246.766 238.411C246.454 238.971 246.054 239.477 245.582 239.911C244.342 241.144 242.76 241.977 241.039 242.302C239.849 242.529 238.623 242.489 237.45 242.184C236.104 241.829 234.859 241.166 233.814 240.248C233.251 239.753 232.755 239.187 232.339 238.565C231.888 237.917 231.559 237.193 231.368 236.427C231.253 236.025 231.219 235.604 231.268 235.189C231.317 234.773 231.447 234.372 231.652 234.007C231.894 233.642 232.223 233.343 232.61 233.137C232.996 232.931 233.429 232.824 233.867 232.826C234.723 232.811 235.567 233.036 236.301 233.475C237.002 233.915 237.606 234.492 238.078 235.17C238.925 236.465 239.339 237.995 239.262 239.539C239.229 240.253 239.096 240.958 238.866 241.635C238.639 242.266 238.324 242.863 237.93 243.406C237.195 244.369 236.238 245.141 235.14 245.656C233.558 246.408 231.784 246.663 230.053 246.388C229.424 246.301 228.811 246.122 228.235 245.857C228.838 246.032 229.451 246.17 230.071 246.27C231.773 246.492 233.503 246.211 235.046 245.461C236.101 244.948 237.019 244.191 237.723 243.253C238.097 242.724 238.397 242.146 238.611 241.535C238.825 240.879 238.949 240.198 238.978 239.509C239.047 238.028 238.645 236.563 237.829 235.323C237.389 234.683 236.823 234.138 236.165 233.723C235.48 233.316 234.694 233.111 233.897 233.133C233.51 233.126 233.128 233.216 232.786 233.394C232.443 233.573 232.151 233.834 231.936 234.154C231.751 234.486 231.634 234.851 231.591 235.228C231.549 235.605 231.581 235.986 231.688 236.351C231.871 237.078 232.181 237.768 232.606 238.388C233.005 238.993 233.483 239.542 234.027 240.023C235.036 240.919 236.237 241.571 237.539 241.93C238.675 242.232 239.864 242.283 241.021 242.078C242.711 241.776 244.276 240.988 245.522 239.811C245.968 239.373 246.383 238.905 246.766 238.411Z" fill="#FAFAFA"/>
<path d="M267.778 287.069C267.743 287.116 267.263 286.739 266.363 286.39C265.199 285.918 263.925 285.783 262.687 286.002C261.45 286.22 260.299 286.782 259.369 287.624C258.646 288.262 258.326 288.805 258.279 288.746C258.232 288.687 258.326 288.598 258.474 288.368C258.687 288.039 258.938 287.736 259.221 287.465C260.155 286.545 261.346 285.927 262.638 285.694C263.93 285.473 265.258 285.644 266.452 286.184C266.809 286.342 267.146 286.54 267.459 286.774C267.666 286.945 267.778 287.057 267.778 287.069Z" fill="#FAFAFA"/>
<g opacity="0.3">
<path opacity="0.3" d="M261.264 239.793C256.816 237.845 251.824 237.626 247.127 235.465L241.637 232.596C242.17 233.434 243.675 234.131 244.036 235.4C244.304 236.7 244.356 238.034 244.19 239.35C244.007 242.881 244.313 246.419 245.102 249.866C245.593 252.009 246.529 254.394 248.62 255.115C250.011 255.593 251.545 255.18 252.961 254.766C259.274 252.912 266.813 250.911 273.127 249.057C271.243 244.587 265.706 241.736 261.264 239.793Z" fill="black"/>
</g>
<path d="M275.649 219.517C274.962 216.217 273.967 212.845 271.741 210.306C269.153 207.354 265.155 205.872 261.217 205.624C257.841 205.412 257.172 203.759 253.725 204.319C252.398 204.55 251.129 205.035 249.988 205.748C245.161 208.7 242.46 213.554 241.051 219.263C240.524 221.401 240.5 224.064 242.289 225.351C243.586 226.284 245.421 226.16 246.73 227.075C248.181 228.096 248.554 230.127 248.252 231.875C247.95 233.623 247.121 235.229 246.63 236.929C245.445 241.062 246.304 245.455 247.175 249.659L272.333 248.933C273.304 248.903 274.364 248.838 275.069 248.171C275.609 247.546 275.937 246.767 276.005 245.945C277.587 237.195 277.466 228.222 275.649 219.517Z" fill="#263238"/>
<path d="M242.934 220.037C242.924 219.805 242.944 219.573 242.993 219.346C243.023 219.078 243.068 218.812 243.129 218.549C243.2 218.236 243.26 217.882 243.378 217.498C243.624 216.593 243.941 215.709 244.326 214.853C244.801 213.808 245.365 212.807 246.014 211.859C246.677 210.918 247.418 210.033 248.229 209.214C248.894 208.553 249.611 207.945 250.372 207.396C250.686 207.154 251 206.965 251.267 206.805C251.492 206.656 251.726 206.518 251.966 206.392C252.162 206.269 252.373 206.17 252.593 206.097C252.623 206.144 251.752 206.616 250.503 207.585C249.77 208.15 249.077 208.766 248.43 209.427C247.645 210.244 246.922 211.118 246.268 212.043C245.63 212.982 245.066 213.969 244.58 214.995C244.191 215.834 243.859 216.698 243.585 217.581C243.123 219.069 242.993 220.049 242.934 220.037Z" fill="#455A64"/>
<path d="M245.931 223.585C245.883 223.026 245.901 222.464 245.984 221.909C246.114 220.562 246.35 219.227 246.689 217.917C247.028 216.608 247.468 215.327 248.004 214.085C248.202 213.56 248.461 213.058 248.774 212.592C248.614 213.129 248.416 213.653 248.182 214.162C247.233 216.674 246.56 219.282 246.174 221.938C246.133 222.492 246.052 223.043 245.931 223.585Z" fill="#455A64"/>
<path d="M270.533 244.434C270.481 244.304 270.443 244.17 270.42 244.032C270.349 243.767 270.272 243.365 270.177 242.851C269.949 241.392 269.832 239.918 269.828 238.441C269.828 236.575 269.952 234.349 270.154 231.893C270.418 229.238 270.54 226.572 270.521 223.904C270.51 221.243 270.029 218.605 269.099 216.111C268.306 214.088 267.079 212.262 265.504 210.761C264.438 209.754 263.185 208.964 261.815 208.435C261.44 208.297 261.059 208.179 260.672 208.081C260.534 208.053 260.399 208.012 260.269 207.957C260.409 207.968 260.547 207.989 260.684 208.022C261.086 208.089 261.482 208.19 261.868 208.323C263.277 208.815 264.569 209.591 265.664 210.602C267.29 212.105 268.558 213.951 269.378 216.004C270.334 218.527 270.83 221.201 270.841 223.898C270.862 226.576 270.732 229.253 270.45 231.917C270.231 234.373 270.071 236.581 270.059 238.441C270.041 239.909 270.126 241.377 270.313 242.834C270.384 243.347 270.444 243.749 270.491 244.015C270.521 244.152 270.535 244.293 270.533 244.434Z" fill="#455A64"/>
<path d="M268.181 244.062C268.061 243.439 267.994 242.807 267.98 242.172C267.909 240.992 267.862 239.386 267.891 237.591C267.921 235.796 268.045 234.184 268.164 233.021C268.197 232.386 268.29 231.755 268.442 231.137C268.463 231.77 268.443 232.403 268.383 233.033C268.318 234.213 268.241 235.813 268.199 237.597C268.158 239.38 268.199 240.997 268.199 242.167C268.242 242.798 268.236 243.431 268.181 244.062Z" fill="#455A64"/>
<path d="M154.838 227.565C155.083 230.809 155.324 234.048 155.561 237.284C153.109 237.732 150.562 238.01 148.14 237.431C145.718 236.853 143.402 235.276 142.543 232.944C142.351 232.502 142.293 232.013 142.378 231.539C142.429 231.306 142.549 231.093 142.724 230.93C142.898 230.767 143.118 230.66 143.355 230.624" fill="#FFBE9D"/>
<path d="M161.406 217.203C161.791 216.022 163.414 215.29 163.426 214.044C163.438 212.798 161.726 212.037 161.223 210.826C160.465 209.002 162.709 207.065 162.188 205.176C161.596 202.908 157.663 202.666 156.935 200.452C156.633 199.525 156.935 198.362 156.177 197.695C155.194 196.821 153.476 197.695 152.238 197.169C151.095 196.673 150.799 195.156 149.656 194.648C148.513 194.141 147.104 194.991 145.955 195.646C145.611 195.847 145.179 196.101 144.735 196.331C142.786 195.693 139.683 195.782 138.35 196.821C136.781 198.037 135.585 199.667 133.838 200.653C132.304 201.527 130.391 201.875 129.165 203.109C126.985 205.306 128.158 208.907 127.045 211.712C126.666 212.668 126.02 213.519 125.611 214.463C125.203 215.408 125.078 216.565 125.706 217.415C126.334 218.266 127.649 218.738 127.672 219.777C127.696 220.816 126.375 221.513 126.488 222.505C126.6 223.497 128.223 223.839 128.916 224.713C129.822 225.847 128.916 227.618 129.698 228.846C130.557 230.151 132.623 229.874 134.217 230.252C136.994 230.907 139.055 233.924 141.874 233.469C142.952 233.292 143.882 232.607 144.96 232.436C146.417 232.206 147.832 232.938 149.295 233.115C151.936 233.44 154.406 231.97 156.597 230.559C157.723 229.838 158.931 229 159.221 227.76C159.487 226.638 158.943 225.398 159.547 224.365C160.151 223.332 161.489 223.101 161.987 222.133C162.768 220.557 160.891 218.803 161.406 217.203Z" fill="#263238"/>
<path d="M133.233 205.583C133.195 205.513 133.167 205.437 133.15 205.359C133.1 205.136 133.081 204.908 133.091 204.68C133.148 203.828 133.522 203.028 134.139 202.436C135.059 201.574 136.224 201.017 137.474 200.842C138.232 200.717 139.009 200.89 139.641 201.326C139.964 201.584 140.213 201.922 140.364 202.306C140.518 202.711 140.518 203.159 140.364 203.564C140.286 203.772 140.157 203.958 139.988 204.103C139.819 204.249 139.617 204.35 139.399 204.396C139.172 204.447 138.935 204.416 138.729 204.308C138.53 204.194 138.381 204.008 138.315 203.788C138.265 203.587 138.258 203.379 138.294 203.175C138.331 202.971 138.411 202.778 138.528 202.607C138.747 202.293 139.051 202.047 139.404 201.899C140.003 201.653 140.668 201.623 141.286 201.815C141.903 202.007 142.434 202.409 142.786 202.95C143.24 203.673 143.422 204.532 143.301 205.376C143.278 205.601 143.231 205.823 143.159 206.038C143.106 206.185 143.076 206.256 143.064 206.256C143.053 206.256 143.147 205.937 143.183 205.365C143.247 204.557 143.038 203.75 142.591 203.074C142.287 202.617 141.839 202.274 141.317 202.1C140.726 201.89 140.077 201.909 139.499 202.153C139.205 202.281 138.949 202.485 138.759 202.743C138.667 202.878 138.605 203.031 138.575 203.192C138.545 203.352 138.55 203.517 138.587 203.676C138.632 203.824 138.734 203.948 138.87 204.022C139.007 204.096 139.166 204.114 139.316 204.072C139.484 204.036 139.641 203.958 139.772 203.845C139.902 203.733 140.002 203.589 140.062 203.428C140.158 203.085 140.148 202.722 140.034 202.385C139.92 202.048 139.707 201.753 139.422 201.539C138.853 201.145 138.151 200.988 137.468 201.102C136.276 201.261 135.158 201.77 134.258 202.566C133.656 203.115 133.271 203.86 133.174 204.668C133.172 204.974 133.191 205.28 133.233 205.583Z" fill="#455A64"/>
<path d="M130.379 216.996C130.254 216.82 130.169 216.618 130.13 216.406C129.944 215.684 129.971 214.924 130.207 214.217C130.444 213.51 130.879 212.887 131.463 212.42C131.905 212.076 132.415 211.827 132.959 211.689C133.504 211.552 134.071 211.53 134.625 211.623L134.447 211.8C134.382 211.37 134.382 210.932 134.447 210.502C134.539 209.873 134.758 209.27 135.091 208.729C135.424 208.188 135.864 207.72 136.384 207.354C137.108 206.881 137.954 206.624 138.82 206.616C139.686 206.607 140.537 206.847 141.27 207.307C141.427 207.41 141.575 207.525 141.714 207.65C141.803 207.738 141.85 207.786 141.844 207.791C141.627 207.677 141.415 207.551 141.211 207.414C140.626 207.095 139.98 206.906 139.316 206.859C138.337 206.777 137.359 207.035 136.55 207.591C136.071 207.94 135.668 208.381 135.363 208.888C135.058 209.395 134.857 209.958 134.773 210.543C134.711 210.944 134.711 211.352 134.773 211.753L134.803 211.966L134.595 211.924C134.079 211.834 133.55 211.851 133.04 211.974C132.531 212.096 132.052 212.323 131.634 212.639C130.958 213.15 130.482 213.881 130.29 214.705C130.156 215.255 130.142 215.827 130.248 216.382C130.319 216.778 130.379 216.984 130.379 216.996Z" fill="#455A64"/>
<path d="M150.924 200.812C150.924 200.86 150.509 200.736 149.858 200.706C149.008 200.653 148.159 200.825 147.397 201.203C146.635 201.581 145.987 202.153 145.517 202.861C145.149 203.398 145.007 203.794 144.96 203.776C144.996 203.406 145.124 203.051 145.333 202.743C145.782 201.961 146.453 201.33 147.261 200.928C148.07 200.527 148.98 200.373 149.876 200.488C150.247 200.504 150.608 200.616 150.924 200.812Z" fill="#455A64"/>
<path d="M159.505 216.429C159.505 216.429 159.618 216.211 159.778 215.839C159.991 215.274 160.074 214.669 160.021 214.068C159.96 213.185 159.577 212.355 158.943 211.736C158.547 211.373 158.078 211.098 157.567 210.93C157.057 210.762 156.516 210.705 155.981 210.761C155.479 210.817 154.994 210.973 154.554 211.222L154.24 211.411L154.335 211.057C154.438 210.629 154.438 210.183 154.335 209.755C154.232 209.327 154.029 208.929 153.743 208.594C153.51 208.327 153.225 208.109 152.905 207.954C152.586 207.799 152.238 207.709 151.883 207.691C151.404 207.663 150.924 207.75 150.486 207.945C150.332 208.03 150.174 208.107 150.012 208.175C150.127 208.035 150.273 207.922 150.438 207.845C150.882 207.602 151.383 207.481 151.889 207.496C152.276 207.499 152.658 207.582 153.011 207.741C153.364 207.899 153.68 208.13 153.938 208.417C154.263 208.782 154.495 209.219 154.615 209.692C154.734 210.164 154.738 210.659 154.625 211.133L154.4 210.962C154.876 210.686 155.405 210.513 155.952 210.454C156.529 210.393 157.113 210.458 157.663 210.643C158.213 210.829 158.716 211.131 159.138 211.529C159.689 212.093 160.055 212.81 160.188 213.586C160.321 214.362 160.215 215.16 159.884 215.874C159.813 216.027 159.726 216.171 159.624 216.306C159.553 216.388 159.517 216.435 159.505 216.429Z" fill="#455A64"/>
<path d="M127.767 271.169C127.767 271.169 120.453 272.639 119.357 271.86C118.262 271.08 114.205 268.435 114.827 264.851C115.448 261.267 122.952 235.737 124.51 233.865C126.067 231.993 127.637 230.128 130.758 230.287C133.879 230.446 154.341 234.798 154.341 234.798C154.341 234.798 162.774 234.332 164.492 235.577C166.209 236.823 170.118 239.161 170.118 243.519C170.118 247.876 169.253 277.764 169.253 277.764L171.528 288.74H126.517L127.773 271.169" fill="#8547C6"/>
<path d="M127.766 271.169C127.677 271.169 127.139 265.264 126.582 257.913C126.026 250.563 125.605 244.635 125.688 244.629C125.771 244.623 126.316 250.533 126.872 257.89C127.429 265.247 127.849 271.163 127.766 271.169Z" fill="#263238"/>
<path d="M170.059 242.763C169.901 242.76 169.744 242.74 169.591 242.704L168.252 242.468L163.343 241.588C159.197 240.856 153.458 239.905 147.092 239.014C140.725 238.122 134.945 237.478 130.752 237.047L125.789 236.551L124.439 236.416C124.281 236.407 124.124 236.383 123.971 236.345C124.128 236.332 124.287 236.332 124.444 236.345L125.801 236.427C126.985 236.504 128.673 236.64 130.776 236.829C134.975 237.201 140.767 237.821 147.133 238.707C153.5 239.592 159.244 240.578 163.384 241.369C165.451 241.765 167.127 242.102 168.276 242.35L169.603 242.639C169.757 242.671 169.909 242.712 170.059 242.763Z" fill="#FAFAFA"/>
<path d="M169.253 253.645C169.106 253.661 168.957 253.661 168.809 253.645L167.548 253.615C166.446 253.615 164.859 253.515 162.893 253.42C158.972 253.22 153.553 252.865 147.583 252.322C141.614 251.779 136.218 251.141 132.321 250.628C130.373 250.374 128.797 250.149 127.714 249.984L126.464 249.783C126.317 249.768 126.173 249.738 126.032 249.695C126.18 249.69 126.329 249.7 126.476 249.724L127.731 249.866L132.351 250.415C136.248 250.875 141.643 251.472 147.613 252.015C153.583 252.558 158.99 252.948 162.91 253.196L167.548 253.491L168.815 253.58C168.962 253.593 169.109 253.615 169.253 253.645Z" fill="#FAFAFA"/>
<path d="M169.94 263.8C169.804 263.843 169.663 263.871 169.52 263.883L168.3 264.066C167.246 264.219 165.712 264.402 163.811 264.597C160.014 264.981 154.737 265.335 148.91 265.335C143.082 265.335 137.805 264.987 134.003 264.603C132.102 264.414 130.568 264.231 129.514 264.078L128.294 263.9C128.152 263.881 128.012 263.853 127.874 263.818C128.017 263.802 128.162 263.802 128.306 263.818L129.526 263.942C130.586 264.054 132.126 264.207 134.027 264.373C137.823 264.698 143.088 265.01 148.91 265.01C154.732 265.01 159.991 264.692 163.793 264.361C165.688 264.196 167.228 264.042 168.288 263.924L169.508 263.806C169.652 263.791 169.796 263.789 169.94 263.8Z" fill="#FAFAFA"/>
<path d="M169.141 278.821C169.001 278.853 168.858 278.866 168.715 278.862L167.495 278.927L163.005 279.075C159.209 279.181 153.968 279.281 148.199 279.317C142.431 279.352 137.16 279.317 133.393 279.163C131.498 279.098 129.958 279.039 128.904 278.963L127.684 278.874C127.541 278.871 127.398 278.853 127.258 278.821C127.4 278.811 127.542 278.811 127.684 278.821H128.91C129.97 278.862 131.504 278.892 133.399 278.933C137.19 278.998 142.431 279.022 148.205 278.986L163.011 278.839L167.506 278.785H168.726C168.865 278.786 169.004 278.798 169.141 278.821Z" fill="#FAFAFA"/>
<path d="M126.713 258.167C125.108 257.847 123.526 257.425 121.975 256.904C120.398 256.483 118.849 255.962 117.338 255.345C118.942 255.666 120.525 256.088 122.076 256.609C123.653 257.029 125.202 257.549 126.713 258.167Z" fill="#FAFAFA"/>
<path d="M61.3532 237.526C61.2051 234.048 58.1847 227.784 56.941 221.625C56.3073 218.478 55.9283 215.68 57.9656 213.188C59.689 211.08 62.1113 209.645 64.4802 208.311C68.2646 206.168 72.2622 204.06 76.6033 203.824C79.4342 203.67 82.4902 204.461 84.3024 206.634C85.789 208.406 86.2094 210.838 86.4996 213.129C86.9901 216.958 87.265 220.812 87.3229 224.672C87.4296 226.678 87.2299 228.689 86.7306 230.635C86.4763 231.607 86.0313 232.52 85.4214 233.319C84.8115 234.119 84.0487 234.79 83.1772 235.294C81.6374 236.091 79.8014 236.162 78.2616 236.959C76.7218 237.756 75.5847 239.911 76.7277 241.187L66.5412 243.962L61.3532 237.526Z" fill="#FFBE9D"/>
<path d="M59.2271 232.454C59.7509 233.544 60.4898 234.517 61.3995 235.315C62.3093 236.114 63.3712 236.721 64.5217 237.101C65.6814 237.46 66.9162 237.504 68.0987 237.229C69.2813 236.954 70.369 236.37 71.2496 235.536C72.2504 234.515 72.8427 233.174 73.5237 231.917C74.2048 230.659 75.0458 229.396 76.331 228.752C77.6161 228.108 79.4461 228.309 80.1568 229.555C80.3937 229.945 80.5418 230.441 80.9504 230.647C81.223 230.74 81.5213 230.722 81.7806 230.597C82.04 230.472 82.2396 230.251 82.3363 229.98C82.5071 229.43 82.5215 228.843 82.3777 228.286C81.935 226.188 81.7029 224.052 81.6848 221.909C81.7677 219.771 82.3896 217.569 83.8642 216.004C84.9954 214.824 86.5293 214.08 87.8796 213.141C89.2299 212.202 90.4973 210.862 90.6098 209.22C90.7105 207.756 89.8518 206.369 88.7621 205.377C86.3931 203.216 77.0416 201.551 74.0568 202.761C74.0568 202.761 61.5131 208.199 60.8972 208.636C60.2813 209.073 55.7566 210.661 55.8632 216.17C55.9698 221.679 59.2271 232.454 59.2271 232.454Z" fill="#263238"/>
<path d="M61.3532 237.526C61.2051 234.048 58.1847 227.784 56.941 221.625C56.3073 218.478 55.9283 215.68 57.9656 213.188C59.689 211.08 62.1113 209.645 64.4802 208.311C68.2646 206.168 72.2622 204.06 76.6033 203.824C79.4342 203.67 82.4902 204.461 84.3024 206.634C85.789 208.406 86.2094 210.838 86.4996 213.129C86.9901 216.958 87.265 220.812 87.3229 224.672C87.4296 226.678 87.2299 228.689 86.7306 230.635C86.4763 231.607 86.0313 232.52 85.4214 233.319C84.8115 234.119 84.0487 234.79 83.1772 235.294C81.6374 236.091 79.8014 236.162 78.2616 236.959C76.7218 237.756 75.5847 239.911 76.7277 241.187L66.5412 243.962L61.3532 237.526Z" fill="#FFBE9D"/>
<path d="M90.817 205.034C90.6698 204.886 90.4933 204.769 90.2988 204.692C90.1043 204.615 89.8959 204.579 89.6867 204.586C89.4775 204.594 89.2721 204.644 89.0834 204.734C88.8946 204.825 88.7267 204.953 88.5901 205.111C88.9946 204.573 89.1682 203.897 89.0726 203.231C88.9771 202.566 88.6204 201.966 88.0808 201.562C87.5413 201.159 86.8632 200.986 86.1957 201.081C85.5281 201.177 84.9259 201.532 84.5215 202.07C84.7736 201.523 84.8252 200.904 84.6672 200.323C84.5092 199.741 84.1517 199.233 83.6568 198.888C83.1512 198.559 82.579 198.346 81.9811 198.263C81.3832 198.18 80.7744 198.23 80.1981 198.409C79.0465 198.776 77.9667 199.337 77.0059 200.069C76.9944 199.669 76.8743 199.28 76.6584 198.943C76.4425 198.606 76.1389 198.334 75.78 198.156C75.0576 197.805 74.2527 197.658 73.4525 197.73C71.8959 197.813 70.3849 198.283 69.0575 199.098C67.7302 199.913 66.6288 201.046 65.8541 202.395C65.0679 202.08 64.2069 201.998 63.3754 202.161C62.5438 202.324 61.7774 202.723 61.1688 203.311C60.5603 203.899 60.1358 204.65 59.9467 205.474C59.7576 206.297 59.8121 207.158 60.1034 207.951C59.2735 208.122 58.529 208.575 57.9974 209.234C57.4659 209.892 57.1803 210.714 57.1896 211.558C56.2463 212.911 55.7797 214.537 55.863 216.182C55.9933 221.702 59.2269 232.466 59.2269 232.466C59.7508 233.555 60.4897 234.529 61.3994 235.327C62.3091 236.125 63.371 236.733 64.5216 237.112C65.6812 237.472 66.916 237.516 68.0986 237.241C69.2812 236.966 70.3688 236.381 71.2494 235.548C72.2503 234.526 72.8425 233.186 73.5236 231.928C74.2047 230.671 75.0516 229.407 76.3308 228.764C77.61 228.12 79.0847 228.563 80.4765 228.964C81.7261 229.325 81.7261 228.516 81.8031 227.565L81.6965 221.903C81.7794 219.766 82.4012 217.563 83.8759 215.999C85.0071 214.818 86.541 214.074 87.8913 213.135C89.2416 212.196 90.509 210.856 90.6215 209.214C90.6364 208.976 90.6245 208.736 90.586 208.5C90.8595 208.174 91.0758 207.805 91.2256 207.408C91.3852 207.013 91.4315 206.582 91.3594 206.163C91.2872 205.744 91.0994 205.353 90.817 205.034Z" fill="#263238"/>
<path d="M74.0272 214.351C74.0149 214.555 73.9647 214.756 73.8791 214.942C73.6087 215.615 73.1442 216.193 72.5444 216.602C71.9446 217.012 71.2364 217.236 70.5093 217.244C69.9589 217.249 69.4139 217.135 68.912 216.909C68.41 216.684 67.9629 216.353 67.6014 215.939H67.8442C67.5884 216.315 67.2746 216.648 66.9144 216.925C66.4145 217.308 65.8411 217.584 65.2299 217.736C64.6186 217.888 63.9825 217.914 63.361 217.811C62.3541 217.618 61.4491 217.074 60.8084 216.276C60.3761 215.754 60.0755 215.137 59.9319 214.475C59.8918 214.297 59.868 214.115 59.8608 213.932C59.8608 213.808 59.8608 213.743 59.8608 213.743C59.8608 213.743 59.9082 213.997 60.0326 214.446C60.2194 215.069 60.5362 215.647 60.9624 216.14C61.6034 216.88 62.4869 217.37 63.4557 217.522C64.0337 217.606 64.6229 217.575 65.1884 217.429C65.7539 217.283 66.2844 217.025 66.7486 216.672C67.0799 216.414 67.3678 216.105 67.6014 215.756L67.7139 215.591L67.8442 215.745C68.1755 216.126 68.5834 216.433 69.0415 216.647C69.4996 216.86 69.9977 216.975 70.5034 216.985C71.3281 216.997 72.1295 216.712 72.7598 216.182C73.1854 215.834 73.5309 215.399 73.7725 214.906C73.9502 214.552 74.0035 214.345 74.0272 214.351Z" fill="#455A64"/>
<path d="M82.1705 210.614C82.265 210.761 82.3242 210.929 82.3438 211.103C82.3633 211.277 82.3425 211.453 82.2831 211.618C82.1939 211.989 82.0056 212.33 81.7382 212.604C81.4094 212.925 81.0005 213.153 80.5537 213.265C79.7381 213.435 78.8895 213.349 78.1255 213.017C77.8036 212.919 77.5053 212.756 77.249 212.539C77.5738 212.595 77.8915 212.686 78.1966 212.81C78.9299 213.06 79.7164 213.113 80.4767 212.964C80.8834 212.864 81.257 212.661 81.5605 212.373C81.8087 212.144 81.9942 211.855 82.0995 211.535C82.167 211.233 82.1909 210.923 82.1705 210.614Z" fill="#455A64"/>
<path d="M87.9744 208.594C88.0284 208.934 87.9724 209.281 87.8145 209.586C87.5101 210.369 86.9117 211.002 86.1464 211.352C85.3811 211.701 84.5093 211.739 83.7162 211.458C83.3822 211.376 83.0821 211.192 82.8574 210.933C82.8574 210.885 83.2009 211.104 83.7754 211.251C84.5206 211.442 85.3083 211.379 86.0141 211.074C86.7097 210.743 87.273 210.188 87.6131 209.498C87.8796 208.972 87.927 208.589 87.9744 208.594Z" fill="#455A64"/>
<path d="M80.9268 204.627C80.3869 204.272 79.7838 204.023 79.1501 203.895C78.3999 203.755 77.6243 203.865 76.9434 204.209C76.2625 204.552 75.7142 205.11 75.3834 205.796C75.17 206.213 75.0431 206.669 75.0103 207.136L74.7083 207.118C74.7021 206.807 74.5859 206.508 74.38 206.273C74.1742 206.039 73.8919 205.884 73.583 205.837C73.0676 205.752 72.539 205.864 72.1024 206.15C71.7073 206.439 71.3277 206.748 70.9653 207.077C70.9653 207.077 71.0246 206.941 71.1904 206.741C71.4221 206.454 71.6933 206.202 71.9958 205.991C72.2295 205.817 72.4954 205.692 72.778 205.622C73.0607 205.552 73.3544 205.539 73.6422 205.583C73.9932 205.652 74.3176 205.817 74.578 206.062C74.727 206.199 74.8432 206.368 74.918 206.556C74.9928 206.744 75.0244 206.946 75.0103 207.148L74.7083 207.118C74.7567 206.408 75.0044 205.725 75.4232 205.147C75.8421 204.57 76.4152 204.122 77.0772 203.853C77.7627 203.584 78.5133 203.524 79.233 203.682C79.7144 203.782 80.1688 203.983 80.5655 204.273C80.8202 204.467 80.9386 204.615 80.9268 204.627Z" fill="#455A64"/>
<path d="M75.3656 200.346C75.3656 200.393 75.0872 200.405 74.6727 200.541C74.1369 200.712 73.6647 201.039 73.3164 201.48C72.9649 201.925 72.7583 202.467 72.7242 203.032C72.7392 203.272 72.7392 203.513 72.7242 203.753C72.6946 203.753 72.5465 203.505 72.5169 203.032C72.4772 202.407 72.6659 201.789 73.048 201.292C73.4302 200.795 73.9799 200.453 74.5957 200.328C75.0813 200.24 75.3715 200.311 75.3656 200.346Z" fill="#455A64"/>
<path d="M63.8408 207.242C63.8112 207.242 63.9059 206.8 64.433 206.386C64.7556 206.149 65.132 205.995 65.5287 205.937C66.0066 205.873 66.4932 205.919 66.9501 206.073C67.7516 206.371 68.4704 206.854 69.0466 207.484C69.4967 207.951 69.7336 208.264 69.704 208.293C69.4116 208.108 69.1414 207.89 68.8985 207.644C68.3085 207.089 67.614 206.655 66.8553 206.368C66.4428 206.227 66.0042 206.176 65.5701 206.221C65.2174 206.261 64.8778 206.378 64.5752 206.563C64.0481 206.888 63.8882 207.272 63.8408 207.242Z" fill="#455A64"/>
<path d="M69.834 211.984C69.5915 211.463 69.5393 210.874 69.6863 210.318C69.8333 209.763 70.1704 209.276 70.6391 208.943C70.3846 209.409 70.1669 209.895 69.9879 210.395C69.9001 210.921 69.8487 211.451 69.834 211.984Z" fill="#455A64"/>
<path d="M103.059 234.78L94.4712 237.561L96.1176 253.302L95.5253 254.483L89.1469 264.916C89.0344 265.099 95.6201 266.64 98.1016 267.172C101.199 267.833 109.354 267.172 108.17 256.945C107.281 249.724 103.059 234.78 103.059 234.78Z" fill="#FFBE9D"/>
<path d="M93.8009 223.485C93.1216 223.821 92.5442 224.331 92.128 224.963C91.7118 225.595 91.4719 226.326 91.4329 227.081C91.4135 227.285 91.4546 227.49 91.5513 227.671C91.6724 227.823 91.8431 227.928 92.0336 227.966C92.2241 228.005 92.4222 227.976 92.5933 227.884C92.9325 227.693 93.2193 227.421 93.428 227.093" fill="#FFBE9D"/>
<path d="M93.4465 227.105C93.4465 227.105 93.4465 227.211 93.3162 227.37C93.1661 227.609 92.9636 227.811 92.724 227.961C92.5456 228.068 92.3399 228.121 92.1318 228.114C92.0051 228.116 91.8797 228.09 91.7649 228.036C91.65 227.983 91.5487 227.905 91.4685 227.807C91.3219 227.584 91.259 227.316 91.2908 227.051C91.3005 226.791 91.3362 226.532 91.3974 226.278C91.6079 225.388 92.1051 224.592 92.8128 224.011C93.0837 223.749 93.4219 223.567 93.79 223.485C93.79 223.532 93.4347 223.716 92.955 224.17C92.3371 224.763 91.8998 225.519 91.6935 226.349C91.6401 226.584 91.6064 226.823 91.5928 227.063C91.5613 227.266 91.5988 227.474 91.6994 227.654C91.818 227.771 91.9714 227.847 92.1368 227.87C92.3022 227.894 92.4708 227.863 92.6174 227.784C92.8403 227.658 93.0405 227.497 93.2096 227.305C93.3518 227.193 93.4347 227.087 93.4465 227.105Z" fill="#7C3B29"/>
<path d="M98.8361 223.521C98.8361 223.521 94.6075 225.203 94.0981 226.561C93.5888 227.919 92.6294 232.985 92.6294 232.985L94.5068 237.886L102.917 236.209C102.917 236.209 104.208 226.219 104.297 225.924C104.297 225.924 107.258 217.557 107.222 216.79C107.222 215.756 106.399 215.414 105.38 216.624C104.362 217.835 102.099 222.446 102.099 222.446L98.8361 223.521Z" fill="#FFBE9D"/>
<path d="M98.0483 221.513C97.1947 221.398 96.3258 221.512 95.5313 221.844C94.8088 222.257 94.2615 222.918 93.9914 223.704C93.7306 224.484 93.5636 225.293 93.494 226.113C93.417 226.703 93.3933 227.465 93.8908 227.837C94.0148 227.925 94.1587 227.98 94.3096 227.999C94.4606 228.017 94.6137 227.998 94.7554 227.943C94.8955 227.882 95.0178 227.787 95.111 227.666C95.2042 227.545 95.2652 227.403 95.2884 227.252" fill="#FFBE9D"/>
<path d="M95.2888 227.252C95.2888 227.252 95.3302 227.429 95.1644 227.689C95.0626 227.847 94.9134 227.969 94.738 228.037C94.5003 228.132 94.2354 228.132 93.9977 228.037C93.8556 227.974 93.7291 227.88 93.6269 227.763C93.5246 227.646 93.4491 227.508 93.4055 227.358C93.3151 227.036 93.287 226.699 93.3225 226.367C93.3743 225.636 93.4892 224.911 93.666 224.2C93.8474 223.466 94.2215 222.793 94.7498 222.251C95.1973 221.819 95.7725 221.541 96.3903 221.46C96.7837 221.412 97.1814 221.412 97.5748 221.46C97.7245 221.458 97.8732 221.484 98.0131 221.537C98.0131 221.602 97.3735 221.537 96.3963 221.69C95.8357 221.788 95.3201 222.059 94.9216 222.464C94.443 222.981 94.1046 223.611 93.9385 224.294C93.7647 224.987 93.642 225.691 93.5713 226.402C93.5319 226.7 93.548 227.002 93.6187 227.294C93.6476 227.412 93.7016 227.523 93.7772 227.619C93.8529 227.714 93.9482 227.793 94.0569 227.849C94.2191 227.93 94.4043 227.954 94.5819 227.916C94.7595 227.879 94.919 227.782 95.0341 227.642C95.1301 227.52 95.2153 227.389 95.2888 227.252Z" fill="#7C3B29"/>
<path d="M101.951 222.328C101.46 221.733 100.809 221.291 100.074 221.053C99.6616 220.989 99.24 221.023 98.843 221.151C98.446 221.279 98.0846 221.498 97.7879 221.791C97.2001 222.381 96.7281 223.076 96.3961 223.839C96.0941 224.459 95.8039 225.091 95.5492 225.735C95.394 226.074 95.2902 226.434 95.2413 226.803C95.2165 226.988 95.2294 227.176 95.2792 227.356C95.3291 227.535 95.4149 227.703 95.5315 227.849C95.7312 228.048 95.9902 228.178 96.2699 228.218C96.5496 228.258 96.8349 228.208 97.0831 228.073C97.5775 227.792 97.946 227.334 98.1136 226.792" fill="#FFBE9D"/>
<path d="M98.1256 226.792C98.1013 226.991 98.0325 227.183 97.9242 227.353C97.8013 227.606 97.6195 227.827 97.3939 227.996C97.1684 228.166 96.9055 228.279 96.6272 228.327C96.4264 228.358 96.2211 228.344 96.0264 228.286C95.8316 228.228 95.6525 228.127 95.502 227.99C95.3428 227.819 95.2258 227.613 95.16 227.388C95.0942 227.164 95.0815 226.927 95.123 226.697C95.2055 226.225 95.3571 225.767 95.5731 225.339C95.7744 224.89 95.9817 224.43 96.1653 223.952C96.5332 223.026 97.1133 222.199 97.8591 221.537C98.1799 221.261 98.5626 221.066 98.9749 220.968C99.3872 220.87 99.817 220.873 100.228 220.976C100.749 221.159 101.217 221.467 101.59 221.873C101.857 222.151 101.987 222.316 101.969 222.328C101.803 222.222 101.648 222.099 101.507 221.962C101.124 221.609 100.667 221.345 100.169 221.188C99.7965 221.116 99.4123 221.131 99.0471 221.234C98.6819 221.337 98.346 221.523 98.0664 221.779C97.3677 222.426 96.8234 223.221 96.4733 224.105L95.881 225.469C95.6728 225.876 95.5214 226.309 95.4309 226.756C95.3949 226.944 95.4012 227.137 95.4493 227.322C95.4975 227.507 95.5863 227.679 95.7093 227.825C95.8316 227.94 95.9778 228.026 96.1375 228.078C96.2972 228.13 96.4664 228.147 96.6332 228.126C96.8846 228.087 97.1242 227.993 97.3351 227.852C97.546 227.71 97.7229 227.523 97.8532 227.305C98.0309 226.981 98.1019 226.78 98.1256 226.792Z" fill="#7C3B29"/>
<path d="M98.9902 229.98L98.4394 227.105C97.3753 226.935 96.3701 226.505 95.5137 225.853C95.2235 225.091 95.6263 224.613 96.6982 224.318C97.7702 224.023 101.116 224.507 101.484 224.708C102.769 225.398 102.923 227.193 103.106 228.64" fill="#FFBE9D"/>
<path d="M103.094 228.64C103.023 228.419 102.973 228.191 102.946 227.961C102.859 227.345 102.708 226.739 102.496 226.154C102.352 225.761 102.122 225.406 101.821 225.115C101.654 224.957 101.45 224.842 101.229 224.778C100.998 224.719 100.749 224.672 100.489 224.631C99.3704 224.437 98.2351 224.36 97.1009 224.4C96.6781 224.443 96.2719 224.587 95.9165 224.82C95.7591 224.92 95.645 225.076 95.5967 225.256C95.5669 225.44 95.5873 225.627 95.6559 225.8L95.6085 225.735C96.4444 226.376 97.424 226.806 98.4631 226.986H98.546V227.063C98.6881 227.902 98.8066 228.61 98.9014 229.177C98.9599 229.435 98.9877 229.698 98.9843 229.962C98.8899 229.716 98.8205 229.461 98.777 229.201C98.6526 228.64 98.4986 227.937 98.321 227.105L98.4157 227.199C97.3253 227.04 96.2926 226.609 95.4131 225.947V225.906C95.321 225.682 95.2943 225.436 95.3361 225.197C95.4052 224.956 95.5584 224.746 95.7684 224.607C96.173 224.331 96.6422 224.164 97.1306 224.123C98.2895 224.081 99.4496 224.168 100.589 224.383C100.849 224.423 101.106 224.478 101.359 224.548C101.61 224.629 101.837 224.769 102.022 224.955C102.342 225.279 102.585 225.671 102.733 226.101C102.929 226.708 103.05 227.336 103.094 227.973C103.122 228.194 103.122 228.418 103.094 228.64Z" fill="#7C3B29"/>
<path d="M98.1197 228.965C97.8601 229.017 97.5967 229.049 97.332 229.059C96.7134 229.143 96.1231 229.37 95.6087 229.723C95.0944 230.076 94.6704 230.544 94.3708 231.09C94.1339 231.509 94.0451 231.805 93.9977 231.793C93.9503 231.781 93.9977 231.468 94.1754 230.996C94.4393 230.379 94.8732 229.85 95.4267 229.47C95.9802 229.089 96.6306 228.873 97.3024 228.847C97.8058 228.841 98.1315 228.965 98.1197 228.965Z" fill="#7C3B29"/>
<path d="M101.282 255.912C100.37 255.605 99.4774 255.24 98.6112 254.82C97.7051 254.495 96.8208 254.112 95.9639 253.674C96.9229 253.826 97.8547 254.116 98.7296 254.536C99.6448 254.865 100.505 255.328 101.282 255.912Z" fill="#7C3B29"/>
<path d="M72.3393 239.232C72.8842 239.049 81.3946 240.578 83.8702 241.677C85.2679 242.297 97.1186 251.879 97.1186 251.879L88.4127 266.115L82.7035 264.042L82.6383 288.941L47.104 288.847L47.8739 249.081C47.8739 249.081 50.4265 238.66 54.7676 237.396C59.1087 236.133 72.3393 239.232 72.3393 239.232Z" fill="#8547C6"/>
<path d="M81.9216 264.391C81.8235 264.39 81.7258 264.376 81.6314 264.349C81.3534 264.3 81.0786 264.235 80.8082 264.154C79.8104 263.854 78.8625 263.408 77.9951 262.832C76.6981 261.99 75.5811 260.9 74.7082 259.626C73.6089 258.067 72.9465 256.244 72.7893 254.344C72.6321 252.445 72.9858 250.538 73.8139 248.821C74.4605 247.416 75.3781 246.152 76.5145 245.101C77.2714 244.384 78.1342 243.786 79.073 243.33C79.3239 243.202 79.5831 243.092 79.8488 242.999C79.9375 242.958 80.031 242.928 80.1271 242.911C78.8573 243.515 77.6886 244.312 76.6625 245.272C75.5862 246.321 74.7217 247.565 74.1159 248.939C73.3227 250.617 72.9856 252.473 73.1384 254.322C73.2912 256.17 73.9285 257.946 74.9865 259.472C75.8269 260.731 76.9002 261.82 78.1491 262.678C79.3108 263.439 80.5833 264.017 81.9216 264.391Z" fill="#263238"/>
<path d="M75.8929 287.164C75.81 287.164 76.0231 282.192 76.3665 276.069C76.7099 269.947 77.0769 264.981 77.1302 264.981C77.1834 264.981 77.0058 269.953 76.6566 276.081C76.3073 282.21 75.9639 287.17 75.8929 287.164Z" fill="#263238"/>
<path d="M66.8668 272.415C66.7188 272.606 66.5499 272.78 66.3634 272.934C66.0317 273.259 65.5342 273.708 64.9124 274.251C63.6628 275.343 61.892 276.796 59.8665 278.307C57.8411 279.819 55.9281 281.094 54.5364 281.98C53.8375 282.423 53.263 282.765 52.8603 282.995C52.66 283.129 52.4455 283.24 52.2207 283.326C52.4012 283.16 52.5999 283.016 52.8129 282.895L54.4357 281.797C55.8097 280.87 57.6871 279.571 59.7066 278.065C61.7261 276.56 63.5147 275.113 64.7999 274.086L66.316 272.846C66.4867 272.686 66.671 272.542 66.8668 272.415Z" fill="#263238"/>
<path d="M52.8427 248.449C52.7658 248.396 53.4646 247.38 54.1634 246.04C54.8623 244.7 55.3183 243.56 55.4012 243.59C55.2424 244.506 54.9152 245.384 54.4359 246.182C54.0462 247.027 53.5065 247.795 52.8427 248.449Z" fill="#FAFAFA"/>
<path d="M55.2888 261.698C54.5927 261.065 54.0047 260.323 53.5476 259.502C53.0034 258.734 52.5929 257.879 52.3335 256.975C52.8659 257.736 53.3581 258.524 53.8082 259.337C54.3492 260.093 54.8437 260.882 55.2888 261.698Z" fill="#FAFAFA"/>
<path d="M64.7765 249.777C64.2027 250.643 63.5462 251.452 62.8162 252.192C62.1599 252.996 61.4281 253.735 60.6309 254.4C61.1991 253.532 61.8539 252.723 62.5852 251.986C63.2409 251.179 63.9749 250.44 64.7765 249.777Z" fill="#FAFAFA"/>
<path d="M67.6964 265.341C67.6135 265.306 68.2886 263.853 68.9519 262.017C69.6152 260.181 70.0831 258.652 70.1719 258.669C69.7664 261.026 68.9271 263.288 67.6964 265.341Z" fill="#FAFAFA"/>
<path d="M61.5843 272.285C61.3856 271.452 61.2922 270.597 61.306 269.74C61.2136 268.888 61.2256 268.027 61.3416 267.178C61.5318 268.012 61.6232 268.866 61.6139 269.722C61.7028 270.575 61.6928 271.435 61.5843 272.285Z" fill="#FAFAFA"/>
<path d="M55.8456 279.972C55.0822 279.24 54.3901 278.438 53.7787 277.575C53.0905 276.77 52.4797 275.902 51.9546 274.983C52.7224 275.711 53.4148 276.514 54.0215 277.38C54.7154 278.181 55.3266 279.049 55.8456 279.972Z" fill="#FAFAFA"/>
<path d="M63.5919 284.926C63.2653 283.614 63.1415 282.26 63.2249 280.911C63.5515 282.223 63.6753 283.577 63.5919 284.926Z" fill="#FAFAFA"/>
<path d="M72.2625 281.254C71.6322 280.598 71.0762 279.875 70.6042 279.098C70.0504 278.366 69.5816 277.574 69.2065 276.737C69.8368 277.392 70.3929 278.115 70.8648 278.892C71.4186 279.624 71.8875 280.416 72.2625 281.254Z" fill="#FAFAFA"/>
<path d="M75.3007 269.486C74.8698 269.576 74.424 269.566 73.9977 269.457C73.5588 269.443 73.129 269.327 72.7422 269.12C73.173 269.03 73.6188 269.04 74.0451 269.15C74.4841 269.164 74.9138 269.279 75.3007 269.486Z" fill="#FAFAFA"/>
<path d="M81.359 276.064C80.7619 275.359 80.2473 274.588 79.8251 273.767C79.3125 273.001 78.8855 272.181 78.5518 271.322C79.1514 272.023 79.6662 272.792 80.0857 273.613C80.599 274.381 81.026 275.203 81.359 276.064Z" fill="#FAFAFA"/>
<path d="M81.2221 281.631C81.0805 282.349 80.8415 283.045 80.5117 283.698C80.2756 284.392 79.9406 285.048 79.5171 285.646C79.6577 284.928 79.8968 284.233 80.2275 283.58C80.4648 282.887 80.7996 282.231 81.2221 281.631Z" fill="#FAFAFA"/>
<path d="M77.4737 256.237C77.0491 255.513 76.7809 254.708 76.6864 253.875C76.4905 253.056 76.4663 252.206 76.6153 251.377C76.7101 251.377 76.7515 252.487 76.9883 253.822C77.2251 255.156 77.5566 256.207 77.4737 256.237Z" fill="#FAFAFA"/>
<path d="M80.8794 247.469C81.354 247.093 81.8885 246.8 82.4607 246.601C82.9932 246.308 83.5721 246.108 84.1722 246.01C83.6961 246.387 83.1594 246.68 82.585 246.878C82.0533 247.168 81.4769 247.368 80.8794 247.469Z" fill="#FAFAFA"/>
<path d="M85.1723 255.257C84.6929 254.669 84.2947 254.019 83.9883 253.326C83.5911 252.682 83.2844 251.986 83.0767 251.259C83.5578 251.844 83.9561 252.491 84.2607 253.184C84.6538 253.832 84.9603 254.529 85.1723 255.257Z" fill="#FAFAFA"/>
<path d="M90.9882 252.724C90.4559 252.165 90.0037 251.535 89.6443 250.852C89.1954 250.226 88.833 249.543 88.5669 248.821C89.0944 249.383 89.5444 250.012 89.9048 250.693C90.3541 251.319 90.7184 252.002 90.9882 252.724Z" fill="#FAFAFA"/>
<path d="M89.1946 259.821C88.4497 260.183 87.6645 260.457 86.8553 260.635C86.0734 260.904 85.2622 261.078 84.439 261.155C85.179 260.786 85.9631 260.512 86.7724 260.34C87.5545 260.066 88.3684 259.891 89.1946 259.821Z" fill="#FAFAFA"/>
<path d="M70.8884 244.316C70.0691 244.094 69.3062 243.701 68.6498 243.164C67.9373 242.708 67.3314 242.104 66.873 241.393C66.9382 241.328 67.7318 242.114 68.8393 242.911C69.9468 243.708 70.924 244.245 70.8884 244.316Z" fill="#FAFAFA"/>
<path d="M58.0842 239.811C57.4922 239.944 56.8737 239.899 56.3075 239.681C55.7213 239.567 55.1817 239.284 54.7559 238.866C55.3103 239.008 55.856 239.181 56.3904 239.386C56.9633 239.492 57.529 239.634 58.0842 239.811Z" fill="#FAFAFA"/>
<path d="M305.368 288.847C305.368 288.93 244.332 289.001 169.052 289.001C93.7727 289.001 32.7188 288.93 32.7188 288.847C32.7188 288.764 93.7194 288.693 169.052 288.693C244.385 288.693 305.368 288.758 305.368 288.847Z" fill="#263238"/>
</svg>
