<svg width="376" height="250" viewBox="0 0 376 250" fill="none" xmlns="http://www.w3.org/2000/svg">
<g clip-path="url(#clip0)">
<path d="M310.709 21.165L310.027 21.775C307.196 24.2539 305.098 27.4582 303.962 31.0408C302.825 34.6235 302.693 38.4479 303.58 42.1C303.821 43.0517 304.133 43.9843 304.513 44.89C305.932 48.1597 308.139 51.0293 310.938 53.2439C313.736 55.4585 317.04 56.9497 320.555 57.585C324.706 58.3 329.248 57.87 332.838 60.03C337.515 62.845 338.774 68.865 339.601 74.205C340.428 79.545 341.706 85.57 346.394 88.36C349.332 90.11 353.047 90.15 356.391 89.36C365.239 87.22 372.062 79.52 374.554 70.86C377.045 62.2 375.657 52.86 372.293 44.54C367.575 32.89 358.697 22.625 347.016 17.64C335.335 12.655 320.871 13.54 310.709 21.165Z" fill="#F5F5F5"/>
<path d="M355.284 175.138C357.518 163.377 349.77 152.035 337.977 149.807C326.184 147.578 314.813 155.306 312.578 167.067C310.343 178.829 318.092 190.17 329.885 192.399C341.677 194.627 353.049 186.9 355.284 175.138Z" fill="#F5F5F5"/>
<path d="M41.2676 152.997C45.3531 141.741 39.5159 129.313 28.2299 125.238C16.9439 121.164 4.48287 126.985 0.3974 138.241C-3.68807 149.497 2.14911 161.925 13.4351 166C24.7211 170.074 37.1821 164.253 41.2676 152.997Z" fill="#F5F5F5"/>
<path d="M252.456 54.94C259.7 54.94 265.571 49.0839 265.571 41.86C265.571 34.6361 259.7 28.78 252.456 28.78C245.213 28.78 239.342 34.6361 239.342 41.86C239.342 49.0839 245.213 54.94 252.456 54.94Z" fill="#F5F5F5"/>
<path d="M44.8598 96.5C47.4376 94.1351 49.5158 91.2804 50.9725 88.1035C52.4291 84.9267 53.2348 81.4916 53.3423 78C53.5128 72.42 53.7534 67.135 58.1902 61.73C63.77 54.945 73.3305 51.815 77.5667 44.125C81.6526 36.705 79.1058 26.75 72.8291 21.05C66.5524 15.35 54.4051 13.42 46.0279 14.8C37.7557 16.1643 29.93 19.4796 23.2022 24.47C12.5238 32.3 6.15683 43.74 2.05091 56.31C-2.05501 68.88 -0.12488 83.85 9.00941 93.425C18.1437 103 34.8782 105.195 44.8748 96.52L44.8598 96.5Z" fill="#F5F5F5"/>
<path d="M350.933 234.105C350.933 234.175 277.989 234.235 188.03 234.235C98.0708 234.235 25.0967 234.175 25.0967 234.105C25.0967 234.035 98.0256 233.97 188.03 233.97C278.034 233.97 350.933 234.03 350.933 234.105Z" fill="#263238"/>
<path d="M58.0493 68.88L58.0493 228.33C58.0493 231.519 60.6418 234.105 63.8397 234.105L298.318 234.105C301.516 234.105 304.109 231.519 304.109 228.33V68.88C304.109 65.6905 301.516 63.105 298.318 63.105L63.8397 63.105C60.6418 63.105 58.0493 65.6905 58.0493 68.88Z" fill="#263238"/>
<path d="M74.8843 68.4949L74.8843 228.715H280.371V68.4949H74.8843Z" fill="#EBEBEB"/>
<path d="M291.741 142.04C293.043 142.039 294.316 142.423 295.4 143.144C296.483 143.865 297.327 144.891 297.826 146.09C298.325 147.29 298.456 148.611 298.202 149.885C297.948 151.158 297.321 152.329 296.4 153.247C295.479 154.166 294.306 154.791 293.029 155.044C291.751 155.297 290.428 155.167 289.225 154.669C288.022 154.172 286.993 153.33 286.271 152.249C285.548 151.169 285.162 149.899 285.163 148.6C285.165 146.861 285.858 145.193 287.091 143.963C288.325 142.733 289.997 142.041 291.741 142.04Z" fill="#455A64"/>
<path d="M65.1333 123.46V173.745C65.1333 174.082 65.4071 174.355 65.7449 174.355H67.2389C67.5767 174.355 67.8505 174.082 67.8505 173.745V123.46C67.8505 123.123 67.5767 122.85 67.2389 122.85H65.7449C65.4071 122.85 65.1333 123.123 65.1333 123.46Z" fill="#455A64"/>
<path d="M146.8 100.36C146.018 105.945 146.615 110.63 143.291 115.03C141.982 116.755 140.178 118.23 139.586 120.315C139.17 121.77 139.41 123.35 139.019 124.815C138.092 128.275 134.192 129.815 131.359 132.045C127.77 134.85 125.629 139.18 124.616 143.62C123.603 148.06 123.613 152.655 123.644 157.205C123.644 159.145 123.814 161.39 125.398 162.515C126.491 163.29 127.93 163.275 129.269 163.23L155.017 162.38C155.789 162.355 156.636 162.295 157.178 161.755C157.583 161.252 157.818 160.634 157.85 159.99C160.082 145.657 162.31 131.323 164.532 116.99L146.8 100.36Z" fill="#263238"/>
<path d="M217.107 115.26C213.759 101.515 219.91 103.26 218.11 89.23C217.659 85.73 214.907 69.53 213.598 66.23C210.164 57.675 195.901 40.485 178.705 52.47C177.833 54.75 179.878 62.515 181.663 64.185C183.448 65.855 191.509 60.385 193.013 62.305C194.197 63.805 194.863 65.645 195.866 67.275C196.788 68.775 197.992 70.095 198.789 71.66C199.711 73.48 200.037 75.54 200.293 77.565C201.11 84.03 201.351 90.665 199.827 97C198.082 104.255 194.101 110.795 192.006 117.955C190.029 124.735 189.781 131.9 191.284 138.8C191.511 140.207 192.036 141.55 192.823 142.74C194.668 145.24 198.302 145.83 201.28 144.95C204.258 144.07 206.735 142 209.056 140C211.097 138.21 213.132 136.35 214.516 134.025C216.02 131.485 216.681 128.525 217.313 125.66C217.714 124.089 217.948 122.48 218.01 120.86C217.936 118.964 217.633 117.084 217.107 115.26Z" fill="#263238"/>
<path d="M194.016 126.82C194.066 121.54 194.016 120.32 194.016 120.365C194.016 120.41 205.185 118.49 207.466 103.95C208.599 96.715 208.213 84.865 207.577 75.175C207.005 66.455 201.19 55.77 192.482 56.71L165.289 63.625C164.012 63.7635 162.834 64.3744 161.987 65.3371C161.139 66.2998 160.685 67.5443 160.712 68.825L163.76 127.115C163.947 127.625 164.229 128.095 164.592 128.5C170.854 136.715 181.412 141.155 189.87 135.21C192.198 132.987 193.666 130.016 194.016 126.82Z" fill="#FFBE9D"/>
<path d="M201.982 85.05C201.988 85.5362 201.803 86.0053 201.466 86.3574C201.13 86.7095 200.669 86.9168 200.182 86.935C199.945 86.9547 199.705 86.9268 199.479 86.8527C199.252 86.7787 199.042 86.6601 198.863 86.504C198.683 86.3478 198.536 86.1573 198.431 85.9436C198.326 85.7299 198.265 85.4975 198.252 85.26C198.245 84.7743 198.429 84.3051 198.765 83.9529C199.1 83.6006 199.56 83.3932 200.047 83.375C200.285 83.3552 200.524 83.3832 200.751 83.4572C200.978 83.5311 201.188 83.6497 201.368 83.8057C201.549 83.9618 201.696 84.1523 201.801 84.366C201.907 84.5797 201.968 84.8123 201.982 85.05Z" fill="#263238"/>
<path d="M182.917 85.465C182.922 85.9512 182.737 86.4203 182.401 86.7724C182.065 87.1245 181.604 87.3318 181.117 87.35C180.879 87.3683 180.64 87.3392 180.413 87.2643C180.187 87.1895 179.978 87.0704 179.798 86.9139C179.618 86.7575 179.472 86.5669 179.367 86.3534C179.262 86.1398 179.201 85.9075 179.187 85.67C179.182 85.1842 179.368 84.7157 179.704 84.3639C180.04 84.0121 180.5 83.8045 180.986 83.785C181.224 83.7652 181.464 83.7934 181.691 83.8677C181.918 83.9421 182.128 84.0611 182.308 84.2178C182.488 84.3744 182.634 84.5656 182.739 84.7798C182.844 84.994 182.904 85.227 182.917 85.465Z" fill="#263238"/>
<path d="M184.726 82.76C184.416 82.85 183.087 81.7 180.871 81.065C178.655 80.43 176.795 80.63 176.61 80.4C176.52 80.29 176.876 80.075 177.693 79.965C178.863 79.8465 180.046 79.9604 181.172 80.3C182.273 80.5989 183.298 81.1271 184.18 81.85C184.741 82.365 184.877 82.725 184.726 82.76Z" fill="#263238"/>
<path d="M204.89 80.255C204.684 80.505 202.935 80.305 200.749 81.035C198.563 81.765 197.144 82.975 196.859 82.885C196.718 82.85 196.889 82.47 197.505 81.92C198.401 81.1611 199.439 80.5867 200.558 80.23C201.634 79.856 202.778 79.7162 203.912 79.82C204.679 79.92 204.99 80.14 204.89 80.255Z" fill="#263238"/>
<path d="M192.582 96.63C192.582 96.515 193.82 96.295 195.846 96.035C196.347 95.98 196.848 95.875 196.934 95.535C197.019 95.195 196.833 94.615 196.588 94.035L195.059 90.135C192.938 84.585 191.399 80.025 191.624 79.94C191.85 79.855 193.75 84.285 195.871 89.835C196.372 91.205 196.873 92.51 197.335 93.755C197.53 94.34 197.866 95 197.605 95.755C197.532 95.9367 197.418 96.0992 197.272 96.2301C197.126 96.361 196.952 96.4568 196.763 96.51C196.479 96.587 196.186 96.6273 195.891 96.63C193.855 96.73 192.587 96.74 192.582 96.63Z" fill="#263238"/>
<path d="M194.016 120.365C187.146 120.487 180.377 118.704 174.464 115.215C174.464 115.215 179.397 125.265 193.981 123.875L194.016 120.365Z" fill="#EB996E"/>
<path d="M185.272 77C185.077 77.545 183.067 77.29 180.705 77.58C178.344 77.87 176.439 78.515 176.128 78.025C175.988 77.795 176.319 77.28 177.086 76.75C178.105 76.0855 179.269 75.674 180.48 75.55C181.687 75.404 182.912 75.5445 184.054 75.96C184.922 76.31 185.358 76.735 185.272 77Z" fill="#263238"/>
<path d="M206.103 76.78C205.677 77.235 203.992 76.78 201.972 76.75C199.952 76.72 198.242 77.065 197.846 76.59C197.676 76.355 197.941 75.9 198.688 75.465C199.722 74.9247 200.881 74.666 202.047 74.715C203.207 74.7172 204.344 75.0297 205.341 75.62C206.048 76.09 206.293 76.555 206.103 76.78Z" fill="#263238"/>
<path d="M185.228 56.3949C185.064 56.0963 184.84 55.8343 184.571 55.6249C180.254 51.8449 173.817 50.9099 168.368 52.7199C162.918 54.5299 159.113 61.4049 156.536 66.5249C154.451 70.6649 152.18 76.6899 152.08 81.3349C151.398 85.5249 151.257 85.7199 149.919 89.7449C148.38 94.3799 146.169 99.0299 146.625 103.89C146.921 107.105 148.385 110.23 147.984 113.43C147.583 116.63 145.312 119.43 144.62 122.65C144.168 124.72 144.394 126.88 144.585 128.965C144.81 131.693 145.239 134.4 145.868 137.065C145.935 137.46 146.109 137.83 146.369 138.135C146.704 138.427 147.105 138.635 147.537 138.74C154.526 141.045 161.84 143.38 169.095 142.275C169.618 142.24 170.12 142.054 170.539 141.74C170.6 141.681 170.649 141.612 170.684 141.535C172.719 137.09 165.064 131.32 164.838 126.385C164.623 121.535 164.212 116.175 167.46 112.56C170.248 109.465 170.9 105.9 167.962 97.5949C167.347 95.8885 167.004 94.097 166.944 92.2849C166.944 92.0549 166.944 91.8249 166.944 91.5949C167.145 86.0949 172.158 82.2499 175.913 78.2249C181.133 72.5915 184.429 65.4532 185.328 57.8349C185.426 57.3548 185.392 56.8569 185.228 56.3949Z" fill="#263238"/>
<path d="M184.947 57.355C186.276 60.015 189.404 61.12 192.171 62.215C195.167 63.3967 198.057 64.8302 200.809 66.5C202.038 67.1858 203.154 68.056 204.118 69.08C205.477 70.63 206.163 72.645 206.775 74.615C207.574 77.1916 208.299 79.7866 208.951 82.4C210.866 77.345 211.402 71.68 209.873 66.495C208.344 61.31 204.609 56.69 199.601 54.625C194.593 52.56 188.376 53.34 184.396 57.005" fill="#263238"/>
<path d="M147.758 103.5C147.641 102.689 147.589 101.869 147.603 101.05C147.636 98.2599 148.246 95.5067 149.395 92.9626C150.544 90.4186 152.207 88.1385 154.28 86.265C157.068 83.715 160.768 81.795 164.468 79.605C167.992 77.6012 171.15 75.0163 173.807 71.96C174.95 70.615 175.999 69.1933 176.946 67.705C177.759 66.4012 178.487 65.0468 179.126 63.65C180.063 61.6291 180.795 59.5204 181.312 57.355C181.518 56.59 181.613 55.985 181.703 55.58L181.799 55.115C181.807 55.0616 181.822 55.0096 181.844 54.96C181.848 55.0132 181.848 55.0667 181.844 55.12C181.844 55.24 181.804 55.395 181.774 55.59C181.703 55.995 181.623 56.59 181.433 57.375C180.948 59.5584 180.239 61.6863 179.317 63.725C178.683 65.1343 177.959 66.5021 177.151 67.82C176.205 69.323 175.155 70.7582 174.008 72.115C172.733 73.6062 171.33 74.9847 169.817 76.235C168.185 77.5702 166.448 78.7724 164.623 79.83C160.908 82.025 157.228 83.93 154.461 86.44C151.991 88.6355 150.1 91.4035 148.956 94.5C148.191 96.5855 147.768 98.7802 147.703 101C147.703 101.79 147.703 102.4 147.733 102.815L147.758 103.285C147.769 103.356 147.769 103.429 147.758 103.5Z" fill="#455A64"/>
<path d="M148.029 111.61C148.012 111.553 148.002 111.494 147.999 111.435C147.999 111.31 147.959 111.14 147.928 110.935C147.863 110.485 147.798 109.815 147.743 108.935C147.581 106.487 147.772 104.029 148.309 101.635C148.695 99.9828 149.302 98.3901 150.114 96.9C151.065 95.1944 152.293 93.6584 153.749 92.355C155.346 90.919 157.043 89.5974 158.827 88.4C160.652 87.125 162.582 85.855 164.417 84.375C167.856 81.5649 170.892 78.2978 173.441 74.665C175.53 71.7075 177.424 68.6176 179.111 65.415C180.57 62.69 181.668 60.415 182.425 58.885C182.801 58.12 183.092 57.52 183.297 57.095L183.528 56.63C183.553 56.5753 183.583 56.5234 183.618 56.475C183.603 56.5321 183.581 56.5875 183.553 56.64L183.348 57.115L182.485 58.935C181.758 60.5 180.686 62.765 179.247 65.505C177.577 68.7287 175.693 71.8373 173.607 74.81C171.064 78.4667 168.027 81.7561 164.583 84.585C162.738 86.085 160.803 87.345 158.978 88.615C157.202 89.8043 155.51 91.114 153.914 92.535C152.472 93.8267 151.255 95.3472 150.31 97.035C149.495 98.504 148.884 100.077 148.495 101.71C147.943 104.085 147.725 106.525 147.848 108.96C147.888 109.82 147.938 110.49 147.984 110.96C147.984 111.175 148.019 111.345 148.029 111.46C148.034 111.51 148.034 111.56 148.029 111.61Z" fill="#455A64"/>
<path d="M210.635 83.955C210.635 83.955 210.635 83.915 210.685 83.84C210.736 83.765 210.781 83.645 210.846 83.51C210.911 83.375 211.011 83.195 211.102 82.975C211.192 82.755 211.277 82.5 211.382 82.215C211.885 80.5658 211.961 78.8164 211.603 77.13C211.079 74.6259 209.907 72.3022 208.204 70.39C206.299 68.225 203.592 66.46 200.604 64.99C197.616 63.52 194.613 62.405 191.966 61.205C189.6 60.1807 187.349 58.9086 185.253 57.41C183.846 56.3843 182.592 55.1656 181.528 53.79C181.352 53.54 181.192 53.32 181.052 53.125C180.911 52.93 180.826 52.755 180.741 52.625L180.55 52.31C180.527 52.2762 180.508 52.2392 180.495 52.2C180.495 52.2 180.525 52.23 180.575 52.295C180.625 52.36 180.701 52.475 180.781 52.6C180.861 52.725 180.976 52.9 181.117 53.1L181.618 53.745C182.704 55.0873 183.967 56.2765 185.373 57.28C187.469 58.7481 189.712 59.9948 192.066 61C194.708 62.185 197.706 63.295 200.719 64.77C203.732 66.245 206.459 68.04 208.384 70.27C210.105 72.2194 211.28 74.5876 211.788 77.135C212.133 78.8513 212.026 80.6273 211.478 82.29L211.172 83.045C211.076 83.265 210.966 83.43 210.891 83.575L210.705 83.895C210.665 83.925 210.64 83.96 210.635 83.955Z" fill="#455A64"/>
<path d="M191.364 100.545L188.311 99.5449C188.119 99.4588 187.904 99.4377 187.699 99.4849C187.495 99.5902 187.339 99.769 187.263 99.9849C186.867 100.705 186.599 101.489 186.471 102.3C186.41 102.701 186.438 103.11 186.551 103.499C186.664 103.889 186.861 104.249 187.127 104.555C187.425 104.865 187.808 105.081 188.228 105.176C188.648 105.27 189.087 105.238 189.489 105.085C189.849 104.891 190.163 104.622 190.409 104.294C190.654 103.967 190.824 103.59 190.907 103.19C191.104 102.419 191.36 101.665 191.675 100.935L191.364 100.545Z" fill="#EB996E"/>
<path d="M189.554 105.08C189.554 105.105 189.439 105.245 189.113 105.365C188.642 105.516 188.134 105.505 187.669 105.335C187.329 105.201 187.019 104.999 186.76 104.741C186.502 104.483 186.299 104.175 186.165 103.835C185.834 102.999 185.818 102.072 186.12 101.225C186.263 100.794 186.462 100.384 186.712 100.005C186.946 99.5967 187.334 99.2982 187.789 99.175C188.197 99.1263 188.61 99.1976 188.978 99.38L189.85 99.76C190.908 100.26 191.549 100.565 191.524 100.63C191.499 100.695 190.808 100.49 189.715 100.105L188.822 99.78C188.53 99.651 188.207 99.6043 187.89 99.645C187.567 99.7561 187.299 99.9847 187.138 100.285C186.928 100.631 186.76 101 186.636 101.385C186.373 102.119 186.373 102.921 186.636 103.655C186.85 104.247 187.29 104.73 187.86 105C188.253 105.175 188.688 105.234 189.113 105.17C189.369 105.12 189.534 105.04 189.554 105.08Z" fill="#263238"/>
<path d="M195.279 82.5649C194.995 82.4795 194.719 82.3725 194.452 82.2449C193.797 82.0035 193.096 81.9145 192.401 81.9849C191.71 82.0743 191.056 82.351 190.511 82.7849C190.095 83.1249 189.89 83.3999 189.85 83.3699C189.969 83.0898 190.155 82.8427 190.391 82.6499C190.943 82.1361 191.646 81.8135 192.396 81.7299C193.131 81.6487 193.875 81.7679 194.547 82.0749C194.823 82.1853 195.072 82.3523 195.279 82.5649Z" fill="#455A64"/>
<path d="M190.005 85.155C189.997 85.1053 189.997 85.0546 190.005 85.005L189.965 84.565C189.959 84.3248 189.932 84.0856 189.885 83.85C189.838 83.5279 189.771 83.2089 189.685 82.895C189.152 80.8736 187.953 79.0896 186.281 77.83C185.052 76.8994 183.609 76.2921 182.084 76.064C180.559 75.836 179 75.9945 177.552 76.525C176.715 76.8185 175.929 77.2402 175.221 77.775C174.854 78.0465 174.506 78.3422 174.178 78.66C173.855 78.9952 173.553 79.3509 173.276 79.725C172.114 81.2971 171.486 83.1991 171.486 85.1525C171.486 87.1058 172.114 89.0078 173.276 90.58C173.551 90.956 173.852 91.3119 174.178 91.645C174.506 91.9644 174.854 92.2617 175.221 92.535C175.93 93.0679 176.716 93.4895 177.552 93.785C179.569 94.5139 181.778 94.5221 183.8 93.8081C185.823 93.0941 187.534 91.7022 188.642 89.87C189.109 89.1075 189.46 88.2802 189.685 87.415C189.77 87.1009 189.837 86.782 189.885 86.46C189.932 86.2243 189.959 85.9851 189.965 85.745L190.005 85.305C189.997 85.2553 189.997 85.2046 190.005 85.155C190.011 85.2048 190.011 85.2551 190.005 85.305C190.005 85.42 190.005 85.565 190.005 85.75C190.007 85.9913 189.987 86.2322 189.945 86.47C189.91 86.7974 189.849 87.1216 189.765 87.44C189.562 88.3198 189.223 89.1631 188.762 89.94C188.155 90.9796 187.35 91.8902 186.391 92.62C185.228 93.5164 183.869 94.1263 182.425 94.4C180.768 94.7097 179.058 94.5716 177.472 94C176.613 93.6993 175.805 93.2694 175.076 92.725C174.7 92.4438 174.342 92.1399 174.003 91.815C173.669 91.4719 173.359 91.106 173.075 90.72C171.878 89.1058 171.231 87.1507 171.231 85.1425C171.231 83.1343 171.878 81.1791 173.075 79.565C173.631 78.7941 174.308 78.1186 175.081 77.565C175.809 77.0245 176.615 76.598 177.472 76.3C179.061 75.7255 180.775 75.5891 182.435 75.905C183.749 76.156 184.994 76.6836 186.087 77.4528C187.179 78.2219 188.095 79.2147 188.772 80.365C189.234 81.1415 189.573 81.9849 189.775 82.865C189.86 83.1831 189.921 83.5074 189.955 83.835C189.997 84.0727 190.017 84.3137 190.016 84.555C190.016 84.74 190.016 84.885 190.016 85C190.018 85.0518 190.015 85.1038 190.005 85.155Z" fill="#455A64"/>
<path d="M177.161 92.265C177.01 92.2547 176.862 92.2156 176.725 92.15C176.344 92.0185 175.976 91.8511 175.627 91.65C174.456 90.9558 173.496 89.9575 172.85 88.7616C172.203 87.5657 171.895 86.2171 171.957 84.86C171.974 84.4543 172.028 84.051 172.118 83.655C172.141 83.5067 172.189 83.3632 172.258 83.23C172.308 83.23 172.143 83.855 172.143 84.865C172.134 86.1785 172.459 87.4728 173.086 88.6276C173.714 89.7824 174.624 90.7601 175.732 91.47C176.569 92 177.176 92.225 177.161 92.265Z" fill="white"/>
<path d="M179.267 93C179.267 93.07 179.121 93.11 178.961 93.09C178.8 93.07 178.68 93 178.69 92.925C178.7 92.85 178.835 92.815 178.991 92.835C179.146 92.855 179.272 92.945 179.267 93Z" fill="white"/>
<path d="M213.568 85.155C213.56 85.1052 213.56 85.0547 213.568 85.005C213.568 84.89 213.568 84.745 213.533 84.565C213.527 84.3245 213.498 84.0851 213.448 83.85C213.405 83.5275 213.339 83.2084 213.252 82.895C212.719 80.8736 211.52 79.0896 209.848 77.83C208.62 76.8994 207.177 76.2921 205.651 76.064C204.126 75.836 202.568 75.9945 201.12 76.525C200.283 76.8185 199.496 77.2402 198.789 77.775C198.422 78.0465 198.073 78.3422 197.746 78.66C197.422 78.9952 197.121 79.3509 196.844 79.725C195.681 81.2971 195.054 83.1991 195.054 85.1525C195.054 87.1058 195.681 89.0078 196.844 90.58C197.118 90.956 197.42 91.3119 197.746 91.645C198.073 91.9644 198.422 92.2617 198.789 92.535C199.497 93.0679 200.283 93.4895 201.12 93.785C203.137 94.5139 205.345 94.5221 207.368 93.8081C209.39 93.0941 211.101 91.7022 212.209 89.87C212.677 89.1075 213.028 88.2802 213.252 87.415C213.339 87.1014 213.404 86.7823 213.448 86.46C213.498 86.2248 213.527 85.9854 213.533 85.745C213.533 85.565 213.563 85.42 213.568 85.305C213.56 85.2552 213.56 85.2047 213.568 85.155C213.574 85.2048 213.574 85.2551 213.568 85.305C213.568 85.42 213.568 85.565 213.568 85.75C213.567 85.9912 213.547 86.2319 213.508 86.47C213.472 86.7974 213.412 87.1216 213.327 87.44C213.124 88.3198 212.786 89.1631 212.325 89.94C211.718 90.9809 210.91 91.8917 209.948 92.62C208.788 93.5173 207.431 94.1273 205.988 94.4C204.331 94.7097 202.62 94.5716 201.035 94C200.175 93.6993 199.367 93.2694 198.638 92.725C198.261 92.4451 197.903 92.1411 197.565 91.815C197.231 91.4719 196.921 91.106 196.638 90.72C195.44 89.1058 194.793 87.1507 194.793 85.1425C194.793 83.1343 195.44 81.1791 196.638 79.565C197.193 78.7941 197.87 78.1186 198.643 77.565C199.371 77.0245 200.178 76.598 201.035 76.3C202.623 75.7255 204.338 75.5891 205.998 75.905C207.311 76.156 208.556 76.6836 209.649 77.4528C210.742 78.2219 211.657 79.2147 212.335 80.365C212.797 81.1415 213.135 81.9849 213.337 82.865C213.423 83.1831 213.483 83.5074 213.518 83.835C213.557 84.073 213.577 84.3138 213.578 84.555C213.578 84.74 213.578 84.885 213.578 85C213.581 85.0518 213.577 85.1038 213.568 85.155Z" fill="#455A64"/>
<path d="M197.475 90.265C197.475 90.265 197.355 90.15 197.184 89.905C196.952 89.5555 196.749 89.1876 196.578 88.805C195.996 87.535 195.716 86.1481 195.76 84.7526C195.805 83.3571 196.172 81.9906 196.833 80.76C197.035 80.389 197.267 80.0346 197.525 79.7C197.613 79.573 197.717 79.4586 197.836 79.36C197.876 79.39 197.47 79.905 197.014 80.86C196.418 82.0829 196.085 83.4163 196.036 84.775C196 86.1338 196.246 87.4854 196.758 88.745C197.139 89.7 197.525 90.24 197.475 90.265Z" fill="white"/>
<path d="M198.563 91.4999C198.508 91.5499 198.352 91.4599 198.212 91.2999C198.071 91.1399 198.001 90.9749 198.056 90.9249C198.112 90.8749 198.267 90.9699 198.407 91.1299C198.548 91.2899 198.618 91.4599 198.563 91.4999Z" fill="white"/>
<path d="M151.072 127.535L164.758 123.835C164.758 123.835 170.112 136.625 182.15 136.505C195.34 136.375 194.041 124.55 194.041 124.55L218.366 128.47L221.805 170C221.805 170 219.765 206.965 216.09 215.265L221.805 228.705H141.171L139.872 133.24L151.072 127.535Z" fill="#455A64"/>
<path d="M199.28 183.275C200.007 182.835 200.784 182.685 201.381 182.36C201.977 182.035 202.885 182.165 203.05 182.805C203.261 183.525 202.443 184.095 201.757 184.405C203.336 185.16 205.492 183.495 206.85 184.595C207.743 185.315 207.532 186.825 206.71 187.62C205.888 188.415 204.704 188.66 203.546 188.79C202.388 188.92 201.225 188.995 200.223 189.55C199.721 189.84 199.22 190.405 199.385 190.975C199.696 191.94 201.501 191.735 201.722 192.725C201.872 193.395 201.125 193.89 200.498 194.175L193.655 197.25C193.077 197.581 192.421 197.753 191.755 197.75C191.424 197.735 191.111 197.596 190.879 197.36C190.646 197.125 190.511 196.81 190.502 196.48C190.572 195.835 191.264 195.435 191.91 195.34C192.56 195.326 193.207 195.26 193.846 195.145C194.467 194.955 195.034 194.31 194.808 193.7C194.522 192.945 193.44 193.01 192.657 193.2L185.393 195.125C184.871 195.312 184.309 195.356 183.764 195.255C183.497 195.186 183.267 195.017 183.122 194.783C182.977 194.549 182.929 194.269 182.987 194C183.108 193.74 183.301 193.519 183.543 193.365C185.28 192.066 187.286 191.169 189.414 190.74C190.228 190.643 191.022 190.417 191.765 190.07C192.477 189.665 193.033 188.85 192.838 188.07C191.339 188.611 189.783 188.98 188.201 189.17C187.639 189.24 186.897 189.17 186.737 188.63C186.576 188.09 187.188 187.63 187.714 187.355L196.172 183.2C196.889 182.85 197.711 182.49 198.463 182.76L199.28 183.275Z" fill="white"/>
<path d="M166.407 210.11C167.139 209.67 167.911 209.52 168.508 209.195C169.104 208.87 170.012 209 170.182 209.635C170.393 210.36 169.576 210.93 168.884 211.24C170.463 211.995 172.619 210.33 173.982 211.43C174.87 212.15 174.659 213.66 173.837 214.455C173.015 215.25 171.832 215.495 170.679 215.625C169.526 215.755 168.352 215.83 167.35 216.385C166.848 216.675 166.347 217.24 166.513 217.81C166.823 218.775 168.628 218.57 168.849 219.56C168.999 220.23 168.257 220.725 167.631 221.005L160.782 224.085C160.203 224.413 159.548 224.585 158.882 224.585C158.226 224.52 157.564 223.97 157.634 223.315C157.704 222.66 158.396 222.27 159.038 222.175C159.687 222.161 160.334 222.096 160.973 221.98C161.594 221.79 162.166 221.145 161.935 220.535C161.655 219.78 160.572 219.845 159.79 220.035L152.52 221.96C152 222.146 151.439 222.191 150.896 222.09C150.628 222.027 150.394 221.862 150.245 221.631C150.095 221.4 150.041 221.12 150.094 220.85C150.214 220.588 150.409 220.367 150.655 220.215C152.391 218.917 154.395 218.02 156.521 217.59C157.336 217.493 158.129 217.267 158.872 216.92C159.584 216.515 160.146 215.7 159.95 214.92C158.451 215.46 156.895 215.829 155.313 216.02C154.746 216.09 154.009 216.02 153.844 215.48C153.678 214.94 154.3 214.48 154.821 214.205L163.279 210.05C163.996 209.7 164.818 209.335 165.57 209.61L166.407 210.11Z" fill="white"/>
<path d="M204.223 213.765C204.955 213.325 205.727 213.175 206.324 212.845C206.92 212.515 207.828 212.655 207.998 213.29C208.209 214.015 207.391 214.585 206.705 214.895C208.284 215.65 210.44 213.985 211.798 215.085C212.686 215.805 212.48 217.315 211.653 218.11C210.826 218.905 209.647 219.145 208.494 219.28C207.341 219.415 206.173 219.485 205.171 220.04C204.644 220.33 204.168 220.895 204.333 221.465C204.644 222.43 206.444 222.22 206.67 223.21C206.82 223.88 206.073 224.38 205.446 224.66L198.603 227.74C198.022 228.068 197.366 228.241 196.698 228.24C196.367 228.224 196.055 228.083 195.823 227.847C195.592 227.61 195.458 227.295 195.45 226.965C195.515 226.32 196.212 225.925 196.858 225.83C197.508 225.816 198.155 225.75 198.794 225.635C199.415 225.445 199.982 224.795 199.756 224.19C199.47 223.435 198.388 223.5 197.605 223.69L190.341 225.615C189.819 225.802 189.256 225.845 188.712 225.74C188.443 225.678 188.209 225.513 188.06 225.282C187.911 225.05 187.859 224.769 187.915 224.5C188.035 224.24 188.229 224.019 188.471 223.865C190.21 222.569 192.215 221.674 194.342 221.245C195.156 221.146 195.949 220.92 196.693 220.575C197.4 220.17 197.961 219.355 197.766 218.575C196.268 219.12 194.712 219.49 193.129 219.68C192.562 219.745 191.825 219.68 191.665 219.14C191.504 218.6 192.116 218.14 192.642 217.865L201.095 213.71C201.817 213.355 202.634 212.995 203.391 213.27L204.223 213.765Z" fill="white"/>
<path d="M171.571 166.21C172.303 165.77 173.075 165.62 173.672 165.295C174.268 164.97 175.176 165.105 175.346 165.74C175.557 166.46 174.735 167.03 174.048 167.34C175.627 168.1 177.783 166.435 179.141 167.53C180.034 168.25 179.823 169.765 179.001 170.555C178.179 171.345 176.996 171.595 175.837 171.73C174.679 171.865 173.516 171.935 172.514 172.485C172.012 172.775 171.511 173.34 171.676 173.91C171.987 174.88 173.792 174.67 174.013 175.66C174.163 176.33 173.421 176.825 172.789 177.11L165.941 180.185C165.362 180.513 164.707 180.685 164.041 180.685C163.71 180.668 163.398 180.527 163.165 180.291C162.933 180.055 162.799 179.74 162.788 179.41C162.858 178.765 163.555 178.37 164.196 178.275C164.846 178.258 165.492 178.193 166.132 178.08C166.753 177.885 167.32 177.24 167.094 176.63C166.808 175.875 165.731 175.94 164.948 176.13L157.679 178.05C157.157 178.237 156.595 178.281 156.05 178.18C155.782 178.117 155.549 177.952 155.4 177.721C155.251 177.489 155.199 177.209 155.253 176.94C155.373 176.678 155.568 176.457 155.814 176.305C157.551 175.009 159.554 174.112 161.68 173.68C162.496 173.578 163.291 173.349 164.036 173C164.402 172.819 164.702 172.53 164.895 172.172C165.088 171.813 165.165 171.404 165.114 171C163.613 171.541 162.056 171.91 160.472 172.1C159.91 172.17 159.168 172.1 159.008 171.565C158.847 171.03 159.459 170.565 159.985 170.29L168.448 166.14C169.165 165.785 169.987 165.425 170.739 165.695L171.571 166.21Z" fill="white"/>
<g opacity="0.2">
<path opacity="0.2" d="M217.183 210.135C216.922 208.935 216.255 207.875 215.679 206.78C214.305 204.055 213.603 201.04 212.29 198.28C209.893 193.245 205.592 189.38 201.135 186.01C196.678 182.64 191.931 179.59 188.1 175.535L187.94 175.63C192.101 182.345 196.433 189.415 200.764 196.025L210.249 210.525C210.861 211.61 211.687 212.561 212.676 213.32C213.713 214.005 215.182 214.215 216.185 213.485C217.188 212.755 217.443 211.335 217.183 210.135Z" fill="black"/>
</g>
<path d="M255.093 195.85C252.256 185.85 245.703 170.045 243.061 164C240.419 157.955 230.959 139.595 230.959 139.595C230.959 139.595 226.182 129.93 217.423 128.325L214.215 165.36L205.06 156.73C205.06 156.73 187.188 169.59 187.489 174.77L209.191 197.595C209.191 197.595 213.558 207.18 222.296 213.715C231.034 220.25 231.686 224.605 239.111 224.165C246.536 223.725 245.007 226.345 249.594 219.165C254.181 211.985 257.931 205.87 255.093 195.85Z" fill="#455A64"/>
<path d="M199.846 185.105C199.806 185.13 199.395 184.45 198.568 183.48C197.47 182.234 196.307 181.048 195.084 179.925C193.855 178.788 192.717 177.558 191.679 176.245C191.288 175.745 190.988 175.315 190.792 175.015C190.676 174.861 190.58 174.693 190.506 174.515C190.645 174.639 190.768 174.78 190.872 174.935C191.093 175.215 191.414 175.62 191.825 176.11C192.897 177.38 194.045 178.584 195.264 179.715C196.496 180.845 197.648 182.058 198.713 183.345C199.026 183.744 199.317 184.16 199.586 184.59C199.693 184.751 199.78 184.924 199.846 185.105Z" fill="#263238"/>
<path d="M204.344 184.27C204.161 184.16 203.992 184.027 203.842 183.875C203.541 183.61 203.11 183.215 202.594 182.71C201.556 181.71 200.162 180.28 198.709 178.63C197.255 176.98 196.021 175.405 195.164 174.245C194.733 173.665 194.392 173.19 194.161 172.855C194.033 172.689 193.922 172.509 193.831 172.32C193.984 172.463 194.122 172.622 194.242 172.795L195.299 174.135C196.192 175.265 197.445 176.805 198.894 178.455C200.343 180.105 201.712 181.55 202.714 182.58L203.902 183.805C204.063 183.947 204.21 184.102 204.344 184.27Z" fill="#263238"/>
<path d="M208.62 182C208.44 181.883 208.272 181.749 208.118 181.6C207.802 181.33 207.351 180.93 206.795 180.43C205.692 179.43 204.188 178.02 202.574 176.43C200.959 174.84 199.53 173.345 198.523 172.25C198.021 171.7 197.61 171.25 197.34 170.935C197.191 170.78 197.055 170.612 196.934 170.435C197.116 170.563 197.284 170.711 197.435 170.875L198.673 172.125C199.721 173.19 201.18 174.655 202.779 176.25C204.378 177.845 205.872 179.28 206.94 180.31L208.209 181.54C208.362 181.678 208.499 181.832 208.62 182Z" fill="#263238"/>
<path d="M210.53 177.265C210.53 177.265 210.369 177.15 210.114 176.9L209.056 175.85L205.546 172.35L202.007 168.88L200.944 167.82C200.804 167.697 200.68 167.558 200.573 167.405C200.733 167.501 200.881 167.615 201.014 167.745C201.285 167.975 201.666 168.32 202.137 168.745C203.075 169.6 204.353 170.805 205.732 172.165C207.111 173.525 208.329 174.79 209.196 175.715C209.632 176.18 209.978 176.56 210.199 176.825C210.324 176.96 210.435 177.107 210.53 177.265Z" fill="#263238"/>
<path d="M211.563 172.73C211.621 172.857 211.662 172.992 211.683 173.13L211.728 173.31L211.608 173.165C211.021 172.47 209.472 170.49 207.532 168.27C206.304 166.86 205.151 165.615 204.308 164.72L203.306 163.66C203.174 163.538 203.059 163.398 202.965 163.245C203.113 163.344 203.251 163.458 203.376 163.585C203.632 163.815 203.998 164.16 204.434 164.585C205.311 165.45 206.489 166.68 207.723 168.085C209.13 169.677 210.447 171.346 211.668 173.085L211.588 173.115C211.561 172.988 211.553 172.859 211.563 172.73Z" fill="#263238"/>
<path d="M215.102 171.12C214.962 170.966 214.837 170.799 214.731 170.62C214.511 170.29 214.18 169.815 213.769 169.24C211.615 166.232 209.088 163.509 206.249 161.135C205.702 160.68 205.246 160.32 204.945 160.075C204.774 159.958 204.617 159.82 204.479 159.665C204.666 159.753 204.843 159.862 205.005 159.99C205.336 160.215 205.803 160.555 206.364 160.99C207.828 162.139 209.199 163.401 210.465 164.765C211.732 166.129 212.892 167.588 213.934 169.13C214.33 169.725 214.636 170.21 214.832 170.56C214.946 170.734 215.037 170.922 215.102 171.12Z" fill="#263238"/>
<path d="M239.697 184.21C240.429 183.765 241.201 183.615 241.798 183.29C242.395 182.965 243.302 183.1 243.472 183.735C243.683 184.455 242.866 185.03 242.179 185.34C243.753 186.095 245.909 184.43 247.273 185.53C248.16 186.245 247.949 187.76 247.127 188.555C246.305 189.35 245.122 189.59 243.969 189.725C242.816 189.86 241.643 189.93 240.64 190.5C240.113 190.79 239.637 191.355 239.798 191.925C240.113 192.89 241.913 192.68 242.139 193.67C242.284 194.34 241.542 194.84 240.916 195.12L234.072 198.195C233.492 198.525 232.835 198.698 232.167 198.695C231.511 198.625 230.849 198.08 230.919 197.42C230.989 196.76 231.681 196.38 232.323 196.285C232.973 196.268 233.622 196.203 234.263 196.09C234.885 195.9 235.451 195.25 235.22 194.645C234.94 193.885 233.857 193.95 233.075 194.145L225.81 196.065C225.289 196.254 224.726 196.299 224.181 196.195C223.912 196.133 223.679 195.968 223.53 195.737C223.381 195.505 223.328 195.225 223.384 194.955C223.502 194.693 223.696 194.472 223.94 194.32C225.678 193.025 227.681 192.131 229.806 191.7C230.62 191.602 231.414 191.375 232.157 191.03C232.869 190.625 233.431 189.81 233.235 189.03C231.736 189.572 230.18 189.942 228.598 190.135C228.031 190.2 227.294 190.135 227.129 189.595C226.963 189.055 227.585 188.595 228.132 188.32L236.584 184.165C237.306 183.81 238.123 183.45 238.875 183.725L239.697 184.21Z" fill="white"/>
<path d="M233.315 223.115C233.315 223.115 233.14 222.985 232.814 222.715C232.488 222.445 231.992 222.04 231.365 221.515L225.876 216.93L221.95 213.645C220.375 212.379 218.869 211.031 217.438 209.605C215.846 207.952 214.385 206.178 213.066 204.3C211.578 202.221 210.265 200.021 209.141 197.725V197.755L186.782 174.71L186.731 174.66V174.595C187.037 173.18 187.895 171.965 188.772 170.805C189.706 169.649 190.71 168.552 191.78 167.52C193.885 165.45 196.106 163.555 198.327 161.765C200.548 159.975 202.784 158.265 205.01 156.705L205.095 156.645L205.17 156.72C208.244 159.64 211.186 162.495 214.054 165.185C214.771 165.86 215.483 166.525 216.205 167.15C216.934 167.768 217.605 168.451 218.21 169.19C218.366 169.36 218.526 169.525 218.711 169.69C218.882 169.844 219.061 169.987 219.248 170.12C219.615 170.407 219.963 170.718 220.291 171.05C220.937 171.71 221.514 172.415 222.075 173.105C222.637 173.795 223.193 174.47 223.8 175.105C224.389 175.709 225.053 176.237 225.775 176.675C226.487 177.11 227.229 177.48 227.926 177.905C228.614 178.324 229.255 178.813 229.841 179.365C230.423 179.9 230.954 180.455 231.485 180.99C232.017 181.525 232.523 182.07 232.989 182.615C233.925 183.649 234.681 184.832 235.225 186.115C236.061 188.336 236.46 190.698 236.399 193.07C236.399 195.145 236.233 196.915 236.163 198.36C236.093 199.805 236.068 200.915 236.078 201.67C236.078 202.04 236.078 202.325 236.103 202.525C236.128 202.725 236.103 202.82 236.103 202.82C236.103 202.82 236.058 202.425 236.028 201.67C235.997 200.915 236.028 199.8 236.073 198.355C236.118 196.91 236.268 195.14 236.263 193.07C236.313 190.717 235.908 188.376 235.07 186.175C234.097 183.715 231.917 181.675 229.701 179.505C229.122 178.963 228.489 178.482 227.811 178.07C227.124 177.655 226.382 177.285 225.66 176.845C224.927 176.399 224.254 175.863 223.655 175.25C223.043 174.63 222.476 173.945 221.915 173.25C221.354 172.555 220.777 171.865 220.14 171.22C219.825 170.896 219.49 170.593 219.138 170.31C218.962 170.175 218.762 170.035 218.586 169.87C218.411 169.705 218.245 169.535 218.085 169.37C217.479 168.644 216.808 167.974 216.079 167.37C215.353 166.735 214.641 166.075 213.919 165.4C211.046 162.715 208.098 159.86 205.03 156.945H205.191C202.97 158.52 200.739 160.21 198.523 161.995C196.307 163.78 194.091 165.67 192.005 167.735C190.948 168.761 189.955 169.851 189.033 171C188.16 172.14 187.323 173.345 187.027 174.67L186.992 174.56L209.322 197.63C210.434 199.916 211.734 202.107 213.207 204.18C214.525 206.063 215.986 207.841 217.578 209.5C218.994 210.927 220.485 212.277 222.045 213.545L225.951 216.855L231.4 221.485L232.829 222.71C233.155 222.965 233.315 223.115 233.315 223.115Z" fill="#263238"/>
<path d="M246.205 203.645C246.136 203.372 246.089 203.095 246.064 202.815C245.989 202.235 245.894 201.465 245.773 200.54C245.653 199.615 245.523 198.425 245.377 197.165C245.302 196.53 245.242 195.86 245.117 195.165C245.001 194.472 244.747 193.809 244.37 193.215C243.553 192.015 242.304 191.285 241.236 190.595C240.169 189.905 239.166 189.325 238.329 188.84L236.323 187.705C236.071 187.578 235.829 187.435 235.596 187.275C235.863 187.367 236.122 187.482 236.368 187.62C236.87 187.855 237.557 188.215 238.409 188.68C239.261 189.145 240.264 189.72 241.357 190.395C242.45 191.07 243.708 191.8 244.575 193.07C244.976 193.692 245.242 194.39 245.357 195.12C245.483 195.815 245.538 196.485 245.608 197.12C245.733 198.38 245.849 199.525 245.949 200.5C246.049 201.475 246.099 202.2 246.155 202.785C246.198 203.069 246.215 203.357 246.205 203.645Z" fill="#263238"/>
<path d="M236.569 167.085C236.474 167.252 236.358 167.407 236.223 167.545C235.983 167.83 235.632 168.235 235.18 168.72C234.006 169.986 232.767 171.193 231.471 172.335C230.175 173.478 228.821 174.555 227.415 175.56C226.985 175.877 226.496 176.103 225.976 176.225C225.832 176.251 225.686 176.263 225.54 176.26C225.49 176.267 225.439 176.267 225.389 176.26C225.389 176.235 225.6 176.26 225.951 176.15C226.442 175.996 226.901 175.754 227.305 175.435C228.357 174.64 229.811 173.495 231.315 172.165C232.819 170.835 234.138 169.555 235.065 168.62L236.128 167.5C236.257 167.344 236.405 167.204 236.569 167.085Z" fill="#263238"/>
<path d="M227.169 149.88C227.161 149.966 227.144 150.052 227.119 150.135C227.079 150.3 227.019 150.54 226.934 150.85C226.763 151.465 226.497 152.35 226.156 153.445C225.49 155.635 224.442 158.625 223.65 162.015C223.006 164.919 222.735 167.893 222.843 170.865C222.875 171.764 222.955 172.66 223.083 173.55C223.179 174.185 223.244 174.55 223.224 174.55C223.187 174.472 223.16 174.39 223.143 174.305C223.108 174.14 223.038 173.9 222.983 173.585C222.815 172.693 222.706 171.791 222.657 170.885C222.494 167.895 222.742 164.898 223.394 161.975C224.191 158.56 225.264 155.58 225.976 153.405C226.327 152.35 226.618 151.48 226.828 150.835L227.064 150.135C227.085 150.045 227.121 149.959 227.169 149.88Z" fill="#263238"/>
<path d="M151.072 127.535C151.072 127.535 138.428 131.33 133.269 137.11C129.379 141.47 124 162.185 124 162.185C124 162.185 110.428 213.36 110.759 217.32C111.09 221.28 118.039 227.985 123.007 230.525C127.975 233.065 136.247 235.805 145.843 223.92C151.182 217.315 156.371 211.07 158.877 205.33C160.112 202.325 160.744 199.108 160.737 195.86L176.97 177.265L160.081 159.215L145.181 178.365L151.072 127.535Z" fill="#455A64"/>
<path d="M161.6 164C161.478 164.18 161.339 164.347 161.184 164.5C160.898 164.825 160.497 165.295 160.006 165.885C159.003 167.06 157.72 168.735 156.261 170.57C155.03 172.154 153.708 173.665 152.3 175.095C151.754 175.635 151.297 176.06 150.962 176.335C150.799 176.49 150.621 176.627 150.43 176.745C150.568 176.564 150.722 176.397 150.891 176.245C151.202 175.95 151.638 175.505 152.17 174.95C153.228 173.845 154.601 172.23 156.055 170.395C157.509 168.56 158.843 166.895 159.865 165.75C160.367 165.175 160.803 164.72 161.109 164.42C161.259 164.265 161.423 164.124 161.6 164Z" fill="#263238"/>
<path d="M162.883 167.32C162.8 167.498 162.695 167.666 162.572 167.82C162.362 168.135 162.041 168.585 161.635 169.13C160.823 170.22 159.629 171.695 158.321 173.285C157.013 174.875 155.749 176.285 154.847 177.285C154.416 177.755 154.055 178.155 153.764 178.48C153.636 178.63 153.495 178.769 153.343 178.895C153.435 178.714 153.552 178.546 153.689 178.395C153.924 178.095 154.27 177.67 154.691 177.145L158.105 173.08C159.439 171.49 160.612 170.04 161.474 168.975L162.477 167.72C162.6 167.575 162.736 167.441 162.883 167.32Z" fill="#263238"/>
<path d="M165.44 170.855C165.348 171.015 165.239 171.164 165.114 171.3L164.176 172.46C163.384 173.46 162.316 174.81 161.133 176.33C159.95 177.85 158.857 179.205 158.03 180.155C157.614 180.63 157.273 181.01 157.027 181.265C156.911 181.405 156.778 181.531 156.631 181.64C156.719 181.479 156.827 181.329 156.952 181.195C157.213 180.88 157.524 180.49 157.89 180.04C158.682 179.04 159.755 177.685 160.933 176.17C162.111 174.655 163.209 173.295 164.041 172.34C164.452 171.865 164.798 171.485 165.044 171.235C165.16 171.093 165.293 170.966 165.44 170.855Z" fill="#263238"/>
<path d="M168.694 174.77C168.619 174.916 168.525 175.051 168.413 175.17C168.222 175.41 167.937 175.755 167.576 176.17C166.859 177.01 165.831 178.145 164.688 179.385L161.75 182.56C161.367 183.019 160.951 183.45 160.507 183.85C160.58 183.706 160.673 183.573 160.783 183.455C160.973 183.21 161.254 182.86 161.615 182.455C162.327 181.61 163.349 180.455 164.492 179.225L167.44 176.06C167.829 175.603 168.248 175.172 168.694 174.77Z" fill="#263238"/>
<path d="M171.02 176.67C170.739 177.152 170.417 177.608 170.057 178.035C169.431 178.855 168.553 179.965 167.551 181.175C166.548 182.385 165.651 183.495 165.009 184.3C164.679 184.75 164.32 185.179 163.936 185.585C164.202 185.094 164.511 184.627 164.858 184.19C165.465 183.355 166.362 182.23 167.365 181.01L169.947 177.92C170.274 177.478 170.633 177.06 171.02 176.67Z" fill="#263238"/>
<path d="M145.286 176.185C145.261 176.185 145.201 175.865 145.021 175.305C144.746 174.523 144.357 173.785 143.868 173.115C143.134 172.124 142.282 171.226 141.331 170.44C140.161 169.477 138.91 168.617 137.591 167.87C135.176 166.526 132.662 165.368 130.071 164.405C129.068 164.03 128.266 163.755 127.705 163.565C127.409 163.481 127.119 163.375 126.837 163.25C126.918 163.251 126.997 163.264 127.073 163.29C127.228 163.33 127.449 163.385 127.735 163.47C128.306 163.63 129.134 163.88 130.136 164.235C132.753 165.152 135.286 166.293 137.706 167.645C139.038 168.399 140.298 169.273 141.471 170.255C142.421 171.063 143.264 171.989 143.978 173.01C144.463 173.702 144.835 174.467 145.081 175.275C145.146 175.496 145.193 175.722 145.221 175.95C145.256 176.024 145.278 176.104 145.286 176.185Z" fill="#263238"/>
<path d="M146.444 143.835C147.176 143.39 147.948 143.24 148.545 142.915C149.141 142.59 150.049 142.725 150.219 143.36C150.43 144.08 149.608 144.655 148.921 144.965C150.5 145.72 152.656 144.055 154.019 145.155C154.907 145.87 154.696 147.385 153.874 148.18C153.052 148.975 151.869 149.215 150.711 149.35C149.553 149.485 148.389 149.555 147.387 150.11C146.885 150.4 146.384 150.965 146.55 151.535C146.86 152.5 148.665 152.29 148.886 153.28C149.036 153.95 148.294 154.45 147.668 154.73L140.819 157.805C140.24 158.133 139.585 158.305 138.919 158.305C138.263 158.235 137.601 157.685 137.671 157.03C137.741 156.375 138.433 155.99 139.075 155.895C139.724 155.878 140.371 155.813 141.01 155.7C141.631 155.51 142.203 154.86 141.972 154.255C141.692 153.495 140.609 153.56 139.827 153.755L132.557 155.675C132.038 155.864 131.476 155.909 130.933 155.805C130.664 155.743 130.43 155.579 130.28 155.347C130.13 155.116 130.077 154.835 130.131 154.565C130.251 154.303 130.446 154.082 130.692 153.93C132.43 152.636 134.433 151.739 136.558 151.305C137.372 151.21 138.166 150.985 138.909 150.64C139.621 150.235 140.183 149.42 139.987 148.64C138.488 149.18 136.932 149.549 135.35 149.74C134.783 149.81 134.041 149.74 133.881 149.205C133.72 148.67 134.332 148.205 134.858 147.93L143.316 143.775C144.033 143.42 144.855 143.06 145.607 143.33L146.444 143.835Z" fill="white"/>
<path d="M133.119 195.04C133.846 194.6 134.623 194.45 135.219 194.12C135.816 193.79 136.723 193.93 136.894 194.565C137.104 195.29 136.282 195.86 135.595 196.17C137.175 196.925 139.33 195.26 140.689 196.36C141.581 197.08 141.371 198.59 140.549 199.36C139.726 200.13 138.543 200.395 137.385 200.53C136.227 200.665 135.064 200.735 134.061 201.29C133.56 201.58 133.059 202.145 133.224 202.715C133.535 203.68 135.34 203.47 135.56 204.465C135.711 205.135 134.969 205.63 134.337 205.91L127.494 209C126.915 209.328 126.26 209.5 125.594 209.5C125.262 209.485 124.948 209.345 124.716 209.108C124.483 208.872 124.349 208.556 124.34 208.225C124.411 207.58 125.108 207.185 125.749 207.09C126.398 207.076 127.045 207.01 127.684 206.895C128.306 206.705 128.873 206.055 128.647 205.45C128.361 204.695 127.283 204.76 126.496 204.95L119.232 206.875C118.71 207.063 118.147 207.106 117.603 207C117.334 206.937 117.101 206.772 116.953 206.541C116.804 206.309 116.751 206.029 116.805 205.76C116.926 205.499 117.121 205.28 117.367 205.13C119.102 203.831 121.106 202.934 123.233 202.505C124.047 202.406 124.84 202.18 125.584 201.835C125.949 201.654 126.25 201.365 126.443 201.006C126.636 200.648 126.712 200.239 126.662 199.835C125.161 200.376 123.604 200.745 122.019 200.935C121.458 201 120.716 200.935 120.555 200.395C120.395 199.855 121.007 199.395 121.533 199.12L129.991 194.965C130.707 194.61 131.53 194.25 132.282 194.525L133.119 195.04Z" fill="white"/>
<path d="M145.497 177.165C145.457 177.062 145.425 176.957 145.402 176.85C145.347 176.61 145.271 176.305 145.181 175.93C144.986 175.1 144.715 173.93 144.389 172.545C143.717 169.685 142.76 165.745 141.612 161.415C140.464 157.085 139.351 153.185 138.523 150.37C138.117 148.985 137.782 147.87 137.521 147.035C137.416 146.66 137.33 146.36 137.26 146.125C137.224 146.021 137.201 145.914 137.19 145.805C137.24 145.902 137.28 146.005 137.31 146.11C137.39 146.34 137.491 146.64 137.621 147.005C137.882 147.785 138.248 148.915 138.684 150.32C139.556 153.12 140.689 157.015 141.847 161.35C143.005 165.685 143.923 169.635 144.545 172.505C144.86 173.94 145.106 175.1 145.261 175.91C145.332 176.29 145.392 176.6 145.437 176.835C145.469 176.942 145.489 177.053 145.497 177.165Z" fill="#263238"/>
<path d="M123.624 207.56L123.714 207.27C123.784 207.075 123.879 206.77 124.005 206.425C124.265 205.685 124.651 204.59 125.223 203.205C125.912 201.503 126.782 199.881 127.82 198.365C129.053 196.585 130.878 194.905 132.893 193.08C134.909 191.255 136.784 188.91 138.774 186.37C140.764 183.83 142.83 181.04 145.03 178.105C147.231 175.17 149.542 172.065 152.014 168.87C154.486 165.675 157.093 162.37 159.985 159.13L160.075 159.025L160.171 159.13L169.45 169.095L176.86 177.095L176.945 177.185L176.86 177.27C173.817 180.59 170.904 183.855 168.167 187.05C166.803 188.645 165.485 190.23 164.247 191.81C163.931 192.205 163.63 192.6 163.334 193C163.033 193.386 162.757 193.79 162.507 194.21C162.027 195.044 161.643 195.93 161.364 196.85C160.797 198.67 160.492 200.51 160.045 202.265C159.834 203.132 159.566 203.983 159.243 204.815C158.917 205.635 158.521 206.395 158.17 207.165C156.808 209.977 155.264 212.698 153.548 215.31C151.073 219.052 148.166 222.491 144.885 225.555L144.068 226.31C143.807 226.54 143.567 226.755 143.331 226.95C142.875 227.35 142.484 227.68 142.158 227.95C141.832 228.22 141.596 228.395 141.426 228.535L141.17 228.725C141.17 228.725 141.245 228.65 141.411 228.515L142.128 227.91C142.449 227.655 142.835 227.315 143.286 226.91L144.013 226.26L144.825 225.495C148.072 222.401 150.952 218.945 153.408 215.195C155.11 212.584 156.639 209.865 157.985 207.055C158.336 206.29 158.732 205.52 159.048 204.72C159.364 203.894 159.627 203.049 159.835 202.19C160.271 200.445 160.577 198.6 161.148 196.765C161.429 195.827 161.815 194.925 162.301 194.075C162.56 193.648 162.841 193.236 163.144 192.84C163.439 192.44 163.745 192.04 164.056 191.645C165.299 190.055 166.618 188.47 167.982 186.87C170.714 183.67 173.627 180.4 176.675 177.08V177.25L169.26 169.25L160.01 159.285H160.201C157.318 162.52 154.711 165.815 152.235 169.005C149.758 172.195 147.442 175.29 145.216 178.225C142.99 181.16 140.93 183.93 138.939 186.475C136.949 189.02 135.074 191.385 133.014 193.19C130.953 194.995 129.168 196.69 127.93 198.425C126.89 199.928 126.013 201.537 125.313 203.225C124.726 204.6 124.31 205.695 124.055 206.425C123.919 206.79 123.814 207.07 123.744 207.265C123.674 207.46 123.624 207.56 123.624 207.56Z" fill="#263238"/>
<path d="M162.001 127.3C162.036 127.366 162.066 127.434 162.091 127.505L162.322 128.105C162.665 128.837 163.082 129.532 163.565 130.18C165.352 132.459 167.469 134.459 169.847 136.115H169.817C171.451 136.675 173.246 137.24 175.181 137.715C177.201 138.231 179.269 138.533 181.352 138.615C184.448 138.706 187.521 138.067 190.321 136.75C192.603 135.661 194.548 133.978 195.951 131.88C196.902 130.47 197.547 128.878 197.846 127.205C197.901 126.91 197.937 126.645 197.957 126.41C197.977 126.175 198.002 125.985 198.002 125.83V125.47C197.995 125.429 197.995 125.386 198.002 125.345C198.045 125.971 198.015 126.601 197.911 127.22C197.647 128.92 197.02 130.543 196.072 131.98C194.668 134.13 192.705 135.858 190.391 136.98C187.56 138.327 184.448 138.981 181.312 138.89C179.21 138.808 177.122 138.5 175.086 137.97C173.268 137.517 171.474 136.973 169.711 136.34C167.325 134.662 165.214 132.624 163.455 130.3C162.976 129.637 162.572 128.922 162.252 128.17C162.166 127.915 162.101 127.71 162.051 127.555C162.026 127.472 162.009 127.386 162.001 127.3Z" fill="#263238"/>
<path d="M183.252 156.445C182.911 157.071 182.76 157.782 182.816 158.492C182.872 159.202 183.133 159.88 183.568 160.445C185.057 159.39 186.425 158.176 187.649 156.825L187.97 156.5L189.013 153.525L186.22 152.025L183.628 151.685L183.252 156.445Z" fill="#EB996E"/>
<path d="M187.599 154.58C186.945 155.679 186.47 156.873 186.19 158.12C185.908 159.374 186 160.683 186.456 161.885C186.487 161.988 186.548 162.08 186.631 162.15C186.702 162.192 186.78 162.219 186.862 162.23L188.225 162.52C188.545 161.916 188.812 161.285 189.022 160.635" fill="#EB996E"/>
<path d="M167.235 172.9C167.235 172.9 170.849 167.59 171.857 166.48C172.427 165.835 173.156 165.351 173.973 165.075C173.973 165.075 179.317 161.955 181.031 159.845C182.746 157.735 185.368 153.91 185.368 153.91L186.676 153.51L187.99 154.815C187.99 154.815 187.489 160.85 190.106 161.555L191.519 161.15V149.59L183.047 143.855L176.394 140.355C176.394 140.355 171.556 149.005 170.142 150.31C168.729 151.615 161.008 159.74 160.171 160.645C160.171 160.625 160.727 165.39 167.235 172.9Z" fill="#FFBE9D"/>
<path d="M168.693 137.185L180.184 132.685L194.517 138.105C194.517 138.105 200.488 152.79 201.21 153.92C201.932 155.05 205.12 158.55 205.12 158.55C204.808 160.068 204.132 161.489 203.15 162.69C201.731 164.45 200.247 166.41 198.944 167.32C198.944 167.32 192.963 164.495 192.251 161.62C191.539 158.745 189.043 152.38 189.043 152.38L186.917 148.38L182.821 145.605L178.454 146.225C178.454 146.225 177.878 148.995 175.747 148.275L173.617 147.15L176.028 144.15C176.028 144.15 172.995 147.745 171.04 146L170.323 145.175L172.689 143.125C172.689 143.125 170.428 144.765 169.706 143.535L171.972 139.425C171.972 139.425 168.418 139.545 168.693 137.185Z" fill="#FFBE9D"/>
<path d="M205.1 158.55C205.1 158.55 204.995 158.45 204.81 158.25L203.977 157.35C203.621 156.95 203.175 156.455 202.669 155.85C202.413 155.555 202.137 155.235 201.857 154.885C201.541 154.522 201.261 154.13 201.019 153.715C200.122 151.89 199.185 149.62 198.072 147.005C196.959 144.39 195.74 141.41 194.402 138.135L194.457 138.195L180.144 132.77H180.229L168.739 137.295L168.819 137.19C168.776 137.533 168.837 137.881 168.994 138.19C169.18 138.489 169.448 138.728 169.766 138.88C170.45 139.191 171.196 139.342 171.947 139.32H172.173L172.062 139.51L170.734 141.925L169.801 143.615V143.5C169.864 143.603 169.95 143.69 170.051 143.755C170.153 143.82 170.268 143.861 170.388 143.875C170.649 143.902 170.912 143.871 171.16 143.785C171.673 143.611 172.158 143.363 172.599 143.05L172.759 143.25L170.393 145.305V145.12L171.11 145.945C171.464 146.251 171.925 146.406 172.393 146.375C172.867 146.332 173.324 146.183 173.732 145.94C174.552 145.45 175.289 144.832 175.913 144.11L176.108 144.27L173.697 147.245L173.662 147.06L175.792 148.19C176.088 148.287 176.402 148.315 176.71 148.27C177.008 148.207 177.281 148.059 177.497 147.845C177.922 147.392 178.215 146.832 178.344 146.225L178.369 146.145H178.444L182.806 145.53H182.851H182.886L186.977 148.31L189.098 152.31C190.136 155.015 191.038 157.48 191.74 159.675C191.91 160.225 192.076 160.76 192.206 161.28C192.272 161.531 192.35 161.778 192.442 162.02C192.547 162.243 192.666 162.461 192.798 162.67C193.324 163.394 193.95 164.041 194.658 164.59C195.638 165.359 196.678 166.051 197.766 166.66C198.137 166.87 198.423 167.02 198.618 167.125L198.909 167.285C198.909 167.285 198.804 167.245 198.603 167.15C198.402 167.055 198.102 166.91 197.736 166.705C196.633 166.117 195.581 165.438 194.592 164.675C193.869 164.124 193.229 163.473 192.692 162.74C192.553 162.525 192.427 162.301 192.316 162.07C192.222 161.823 192.14 161.571 192.071 161.315C191.935 160.815 191.765 160.27 191.594 159.72C190.877 157.535 189.97 155.075 188.917 152.38L186.782 148.38L186.817 148.415L182.716 145.65H182.796L178.434 146.27L178.53 146.175C178.392 146.828 178.078 147.431 177.622 147.92C177.372 148.169 177.055 148.343 176.71 148.42C176.362 148.478 176.005 148.447 175.672 148.33L173.541 147.2L173.406 147.13L173.501 147.015L175.908 144.015L176.103 144.175C175.46 144.924 174.698 145.562 173.847 146.065C173.408 146.33 172.914 146.491 172.403 146.535C171.867 146.568 171.339 146.389 170.934 146.035L170.218 145.21L170.132 145.115L170.228 145.03L172.594 142.975L172.759 143.18C172.297 143.508 171.791 143.769 171.255 143.955C170.971 144.049 170.671 144.083 170.373 144.055C170.214 144.035 170.062 143.98 169.927 143.894C169.792 143.807 169.679 143.691 169.596 143.555L169.561 143.49L169.596 143.425L170.528 141.735L171.862 139.32L171.977 139.51C171.182 139.534 170.393 139.373 169.671 139.04C169.307 138.866 169.002 138.59 168.794 138.245C168.615 137.895 168.543 137.5 168.588 137.11V137.035L168.663 137.005L180.159 132.505H180.204H180.249L194.517 138H194.562V138.045L198.197 146.925C199.295 149.54 200.202 151.83 201.09 153.645C201.326 154.056 201.6 154.444 201.907 154.805C202.183 155.155 202.453 155.48 202.704 155.78L203.997 157.28L204.8 158.205L205.1 158.55Z" fill="#EB996E"/>
<path d="M171.777 139.595C171.835 139.44 171.921 139.297 172.033 139.175C172.304 138.817 172.626 138.5 172.99 138.235C173.918 137.58 175.226 136.77 176.67 135.845C178.114 134.92 179.417 134.1 180.42 133.555C180.623 133.443 180.848 133.375 181.079 133.355C181.311 133.335 181.544 133.364 181.763 133.44C182.069 133.57 182.159 133.75 182.149 133.755C182.019 133.664 181.878 133.59 181.728 133.535C181.522 133.484 181.308 133.474 181.098 133.506C180.888 133.537 180.687 133.61 180.505 133.72C179.558 134.29 178.259 135.165 176.81 136.065L173.1 138.385C172.616 138.738 172.172 139.144 171.777 139.595Z" fill="#EB996E"/>
<path d="M189.053 139.425C188.785 139.397 188.52 139.347 188.261 139.275C187.759 139.16 187.032 138.975 186.145 138.71C185.258 138.445 184.215 138.1 183.072 137.655C182.523 137.365 181.907 137.227 181.287 137.255C180.616 137.345 179.954 137.489 179.307 137.685C178.66 137.871 178.049 138.162 177.497 138.545C176.994 138.928 176.523 139.352 176.088 139.81C175.231 140.67 174.454 141.455 173.782 142.085C173.11 142.715 172.539 143.205 172.128 143.52C171.922 143.675 171.757 143.795 171.626 143.865C171.496 143.935 171.451 143.975 171.446 143.965C171.636 143.779 171.837 143.604 172.047 143.44C172.438 143.105 172.985 142.6 173.637 141.94C174.288 141.28 175.05 140.5 175.903 139.625C176.343 139.154 176.821 138.719 177.331 138.325C177.904 137.923 178.539 137.617 179.211 137.42C179.877 137.221 180.558 137.076 181.247 136.985C181.584 136.945 181.926 136.977 182.25 137.08C182.565 137.18 182.851 137.31 183.137 137.42C184.265 137.87 185.298 138.235 186.175 138.52C187.052 138.805 187.764 139.02 188.261 139.165C188.531 139.23 188.796 139.317 189.053 139.425Z" fill="#EB996E"/>
<path d="M190.507 144C190.297 143.976 190.092 143.925 189.895 143.85L188.261 143.35L185.844 142.565L184.426 142.095C183.935 141.91 183.432 141.758 182.922 141.64C181.912 141.515 180.887 141.703 179.989 142.18C179.106 142.57 178.274 142.805 177.628 143.105C176.928 143.435 176.298 143.893 175.768 144.455C175.768 144.455 175.768 144.4 175.853 144.31C175.945 144.185 176.043 144.064 176.149 143.95C176.549 143.533 177.023 143.194 177.547 142.95C178.204 142.625 179.051 142.37 179.894 141.975C180.352 141.765 180.828 141.598 181.317 141.475C181.857 141.333 182.422 141.311 182.972 141.41C183.499 141.535 184.018 141.692 184.526 141.88L185.945 142.38L188.341 143.215L189.945 143.805C190.138 143.853 190.326 143.919 190.507 144Z" fill="#EB996E"/>
<path d="M176.745 177.165C176.655 177.189 176.562 177.202 176.469 177.205C176.294 177.205 176.028 177.235 175.687 177.24C174.723 177.259 173.759 177.182 172.81 177.01C172.15 176.893 171.505 176.707 170.884 176.455C170.173 176.15 169.523 175.72 168.964 175.185C167.68 173.994 166.527 172.67 165.525 171.235C164.432 169.735 163.399 168.305 162.557 166.93C161.798 165.72 161.171 164.433 160.687 163.09C160.364 162.18 160.162 161.232 160.086 160.27C160.059 160.011 160.051 159.75 160.061 159.49C160.049 159.399 160.049 159.306 160.061 159.215C160.086 159.215 160.086 159.59 160.166 160.26C160.279 161.205 160.504 162.133 160.838 163.025C161.344 164.346 161.982 165.612 162.743 166.805C163.59 168.16 164.628 169.585 165.716 171.08C166.708 172.5 167.844 173.815 169.105 175.005C170.133 175.971 171.429 176.607 172.825 176.83C173.761 177.016 174.712 177.12 175.667 177.14C176.364 177.16 176.74 177.145 176.745 177.165Z" fill="#263238"/>
<path d="M205.075 156.755C205.113 156.837 205.137 156.925 205.145 157.015C205.194 157.272 205.219 157.533 205.221 157.795C205.207 158.757 204.982 159.705 204.559 160.57C203.929 161.842 203.135 163.027 202.198 164.095C201.195 165.325 200.002 166.625 198.688 167.925C197.375 169.225 196.061 170.385 194.823 171.39C193.743 172.315 192.589 173.151 191.374 173.89C190.546 174.384 189.621 174.693 188.662 174.795C188.402 174.82 188.14 174.82 187.88 174.795C187.788 174.79 187.697 174.773 187.609 174.745C187.609 174.715 187.985 174.785 188.652 174.715C189.586 174.577 190.482 174.248 191.284 173.75C192.472 173.001 193.603 172.165 194.668 171.25C195.896 170.25 197.199 169.07 198.503 167.785C199.806 166.5 201.009 165.205 202.012 163.985C202.947 162.941 203.745 161.784 204.388 160.54C204.818 159.699 205.067 158.778 205.12 157.835C205.135 157.125 205.045 156.76 205.075 156.755Z" fill="#263238"/>
<g opacity="0.2">
<path opacity="0.2" d="M166.132 189.47C163.936 192.025 162.096 193.325 161.234 196.575C160.507 199.315 159.73 204.205 156.872 209.365C152.791 216.77 148.029 223.365 142.614 227.535C152.009 225.81 159.76 218.445 162.768 209.4C164.342 204.67 164.573 199.56 166.277 194.9C167.741 190.94 170.233 187.425 173.065 184.29C174.7 182.485 176.108 180.55 176.224 178.115C173.15 181.125 169.476 185.58 166.132 189.47Z" fill="black"/>
</g>
<g opacity="0.2">
<path opacity="0.2" d="M124.516 205.29C123.561 208.082 122.157 210.702 120.36 213.045C119.212 211.89 118.856 210.11 119.132 208.505C119.466 206.907 120.115 205.391 121.042 204.045C125.95 196.21 133.074 189.915 140.468 184.34C138.168 187.372 135.699 190.273 133.074 193.03C129.73 196.5 126.125 200.195 124.516 205.29Z" fill="black"/>
</g>
<path d="M188.185 184.93C188.156 185.023 188.113 185.113 188.06 185.195L187.654 185.93C187.303 186.565 186.756 187.465 186.049 188.56C185.343 189.655 184.455 190.93 183.423 192.305C182.39 193.68 181.177 195.145 179.848 196.625C178.519 198.105 177.166 199.435 175.908 200.625C174.649 201.815 173.466 202.81 172.448 203.625C171.431 204.44 170.588 205.075 169.987 205.49L169.3 205.99C169.222 206.05 169.138 206.102 169.049 206.145C169.114 206.07 169.188 206.005 169.27 205.95L169.927 205.45C170.508 205.01 171.33 204.355 172.328 203.525C173.326 202.695 174.494 201.67 175.747 200.495C177 199.32 178.319 197.97 179.653 196.495C180.986 195.02 182.159 193.56 183.227 192.205C184.295 190.85 185.172 189.585 185.894 188.505C186.616 187.425 187.188 186.54 187.569 185.92C187.749 185.635 187.894 185.42 188.015 185.215C188.061 185.114 188.119 185.019 188.185 184.93Z" fill="#263238"/>
<g opacity="0.2">
<path opacity="0.2" d="M236.048 201.115L237.181 202.66C239.168 197.822 239.215 192.407 237.311 187.535C235.401 182.725 231.531 179.395 226.783 177.265C228.879 178.485 230.252 179.91 231.912 181.47C236.048 185.355 237.131 190.325 236.028 201.115" fill="black"/>
</g>
<path d="M217.684 136.055C218.411 135.615 219.188 135.465 219.784 135.14C220.381 134.815 221.288 134.945 221.454 135.585C221.664 136.305 220.847 136.875 220.16 137.185C221.74 137.945 223.895 136.275 225.254 137.375C226.146 138.095 225.936 139.605 225.114 140.4C224.291 141.195 223.108 141.44 221.95 141.57C220.792 141.7 219.629 141.775 218.626 142.33C218.125 142.62 217.624 143.185 217.789 143.755C218.1 144.72 219.905 144.515 220.125 145.505C220.276 146.175 219.529 146.67 218.902 146.955L212.064 150.03C211.486 150.361 210.83 150.533 210.164 150.53C209.833 150.515 209.52 150.376 209.287 150.14C209.055 149.905 208.92 149.59 208.91 149.26C208.981 148.615 209.672 148.215 210.319 148.12C210.968 148.106 211.615 148.04 212.254 147.925C212.876 147.735 213.442 147.09 213.217 146.48C212.931 145.725 211.848 145.79 211.066 145.98L203.802 147.905C203.28 148.092 202.718 148.136 202.173 148.035C201.905 147.97 201.673 147.806 201.524 147.575C201.376 147.344 201.322 147.064 201.375 146.795C201.496 146.535 201.689 146.314 201.932 146.16C203.67 144.863 205.675 143.966 207.802 143.535C208.617 143.438 209.411 143.212 210.154 142.865C210.866 142.46 211.422 141.645 211.227 140.865C209.728 141.406 208.172 141.775 206.589 141.965C206.028 142.035 205.286 141.965 205.125 141.425C204.965 140.885 205.577 140.425 206.128 140.15L214.57 136C215.287 135.65 216.11 135.29 216.862 135.56L217.684 136.055Z" fill="white"/>
<path d="M84.0435 214.545V215.045H81.6371V214.64L82.9355 213.415C83.2513 213.11 83.3065 212.915 83.3065 212.74C83.3065 212.44 83.101 212.27 82.6999 212.27C82.5549 212.262 82.4099 212.288 82.2773 212.347C82.1447 212.407 82.0283 212.497 81.9379 212.61L81.5117 212.285C81.6621 212.104 81.8529 211.961 82.0689 211.867C82.2848 211.774 82.5199 211.732 82.755 211.745C83.4619 211.745 83.9181 212.1 83.9181 212.68C83.9146 212.881 83.8638 213.079 83.7698 213.257C83.6758 213.435 83.5411 213.588 83.3767 213.705L82.5044 214.535L84.0435 214.545Z" fill="#263238"/>
<path d="M84.3743 212.93C84.3753 212.855 84.3985 212.782 84.441 212.72C84.4834 212.658 84.5433 212.61 84.613 212.582C84.6827 212.554 84.7591 212.548 84.8327 212.563C84.9063 212.578 84.9737 212.615 85.0265 212.668C85.0793 212.721 85.1151 212.789 85.1294 212.863C85.1437 212.936 85.1358 213.012 85.1068 213.081C85.0779 213.151 85.029 213.21 84.9665 213.251C84.9039 213.293 84.8305 213.315 84.7553 213.315C84.7045 213.316 84.6539 213.307 84.6067 213.288C84.5595 213.269 84.5167 213.241 84.481 213.205C84.4452 213.169 84.4173 213.126 84.399 213.079C84.3806 213.031 84.3723 212.981 84.3743 212.93ZM84.3743 214.705C84.3743 214.604 84.4145 214.507 84.4859 214.436C84.5574 214.365 84.6543 214.325 84.7553 214.325C84.8564 214.325 84.9533 214.365 85.0248 214.436C85.0962 214.507 85.1364 214.604 85.1364 214.705C85.1364 214.806 85.0962 214.902 85.0248 214.974C84.9533 215.045 84.8564 215.085 84.7553 215.085C84.6543 215.085 84.5574 215.045 84.4859 214.974C84.4145 214.902 84.3743 214.806 84.3743 214.705Z" fill="#263238"/>
<path d="M86.6553 211.8V215.055H86.0537V212.305H85.3618V211.805L86.6553 211.8Z" fill="#263238"/>
<path d="M90.2398 214.315H89.6382V215.055H89.0516V214.315H87.2568V213.9L88.8661 211.8H89.5178L88.0138 213.8H89.0817V213.15H89.6532V213.805H90.2398V214.315Z" fill="#263238"/>
<path d="M253.61 213.65H94.9326V214.45H253.61V213.65Z" fill="white"/>
<path d="M147.959 212.79H92.9824V214.925H147.959V212.79Z" fill="#8547C6"/>
<path d="M151.553 214.05C151.553 214.578 151.396 215.094 151.102 215.533C150.808 215.972 150.39 216.315 149.9 216.517C149.411 216.719 148.873 216.772 148.354 216.669C147.834 216.566 147.357 216.311 146.983 215.938C146.608 215.565 146.353 215.089 146.25 214.571C146.147 214.053 146.2 213.516 146.403 213.028C146.605 212.54 146.948 212.123 147.389 211.83C147.829 211.537 148.346 211.38 148.876 211.38C149.586 211.38 150.267 211.661 150.769 212.162C151.271 212.663 151.553 213.342 151.553 214.05Z" fill="#8547C6"/>
<path d="M258.011 214.29C258.008 214.444 257.972 214.596 257.907 214.736C257.842 214.876 257.749 215.001 257.633 215.104C257.517 215.206 257.382 215.283 257.234 215.331C257.087 215.378 256.932 215.395 256.778 215.38C255.86 215.38 255.319 214.79 255.319 213.705C255.319 212.62 255.996 211.92 256.973 211.92C257.283 211.91 257.59 211.984 257.861 212.135L257.625 212.605C257.433 212.49 257.212 212.434 256.988 212.445C256.352 212.445 255.951 212.84 255.951 213.6C256.066 213.48 256.207 213.386 256.363 213.326C256.519 213.265 256.686 213.24 256.853 213.25C256.999 213.235 257.146 213.251 257.286 213.297C257.425 213.342 257.554 213.416 257.663 213.514C257.772 213.612 257.859 213.732 257.919 213.865C257.979 213.999 258.01 214.144 258.011 214.29ZM257.404 214.315C257.404 213.965 257.139 213.745 256.733 213.745C256.649 213.735 256.565 213.743 256.484 213.767C256.404 213.791 256.329 213.831 256.265 213.885C256.201 213.939 256.148 214.005 256.11 214.08C256.073 214.155 256.051 214.236 256.046 214.32C256.046 214.64 256.296 214.89 256.748 214.89C256.829 214.9 256.913 214.892 256.991 214.868C257.07 214.844 257.143 214.803 257.205 214.749C257.267 214.695 257.317 214.628 257.351 214.553C257.385 214.478 257.404 214.397 257.404 214.315Z" fill="#263238"/>
<path d="M258.317 213.135C258.317 213.03 258.359 212.93 258.433 212.856C258.507 212.782 258.608 212.74 258.713 212.74C258.818 212.74 258.919 212.782 258.993 212.856C259.067 212.93 259.109 213.03 259.109 213.135C259.109 213.24 259.067 213.34 258.993 213.414C258.919 213.488 258.818 213.53 258.713 213.53C258.608 213.53 258.507 213.488 258.433 213.414C258.359 213.34 258.317 213.24 258.317 213.135ZM258.317 214.965C258.317 214.86 258.359 214.76 258.433 214.686C258.507 214.612 258.608 214.57 258.713 214.57C258.818 214.57 258.919 214.612 258.993 214.686C259.067 214.76 259.109 214.86 259.109 214.965C259.109 215.07 259.067 215.17 258.993 215.244C258.919 215.318 258.818 215.36 258.713 215.36C258.608 215.36 258.507 215.318 258.433 215.244C258.359 215.17 258.317 215.07 258.317 214.965Z" fill="#263238"/>
<path d="M259.51 213.65C259.51 212.545 260.117 211.92 260.919 211.92C261.721 211.92 262.328 212.545 262.328 213.65C262.328 214.755 261.721 215.38 260.919 215.38C260.117 215.38 259.51 214.755 259.51 213.65ZM261.696 213.65C261.696 212.84 261.38 212.465 260.919 212.465C260.458 212.465 260.142 212.84 260.142 213.65C260.142 214.46 260.458 214.835 260.919 214.835C261.38 214.835 261.696 214.46 261.696 213.65Z" fill="#263238"/>
<path d="M262.749 213.65C262.749 212.545 263.355 211.92 264.158 211.92C264.96 211.92 265.566 212.545 265.566 213.65C265.566 214.755 264.96 215.38 264.158 215.38C263.355 215.38 262.749 214.755 262.749 213.65ZM264.935 213.65C264.935 212.84 264.619 212.465 264.158 212.465C263.696 212.465 263.38 212.84 263.38 213.65C263.38 214.46 263.696 214.835 264.158 214.835C264.619 214.835 264.935 214.46 264.935 213.65Z" fill="#263238"/>
<path d="M271.101 213.355H270.429V211.43H272.359V212.095H271.101V213.355Z" fill="#263238"/>
<path d="M272.359 215.87H270.429V213.945H271.101V215.2H272.359V215.87Z" fill="#263238"/>
<path d="M275.437 215.87H273.507V215.2H274.771V213.945H275.437V215.87Z" fill="#263238"/>
<path d="M275.437 213.35H274.771V212.095H273.507V211.43H275.437V213.35Z" fill="#263238"/>
<path d="M94.2276 86.4703C95.7667 84.8056 95.6614 82.2118 93.9923 80.6768C92.3232 79.1417 89.7224 79.2468 88.1833 80.9115C86.6442 82.5761 86.7496 85.17 88.4186 86.705C90.0877 88.24 92.6885 88.1349 94.2276 86.4703Z" fill="#E0E0E0"/>
<path d="M95.3133 83.685C95.2832 83.685 95.3133 83.315 95.1328 82.685C94.9331 81.9448 94.5271 81.2761 93.9619 80.7567C93.3966 80.2372 92.6954 79.8881 91.9393 79.75C91.2351 79.6237 90.5098 79.6876 89.8387 79.935C89.0996 80.2063 88.4576 80.69 87.9938 81.325C87.4895 82.0043 87.2173 82.8272 87.2173 83.6725C87.2173 84.5178 87.4895 85.3407 87.9938 86.02C88.4576 86.655 89.0996 87.1387 89.8387 87.41C90.467 87.6417 91.1435 87.7128 91.8065 87.6167C92.4694 87.5206 93.0976 87.2605 93.6338 86.86C94.3689 86.3161 94.8987 85.5411 95.1378 84.66C95.3033 84.04 95.2882 83.66 95.3183 83.66C95.3292 83.7463 95.3292 83.8337 95.3183 83.92C95.32 84.1728 95.2897 84.4248 95.2281 84.67C95.0453 85.4477 94.6409 86.156 94.0636 86.7096C93.4863 87.2632 92.7607 87.6384 91.9744 87.79C91.1916 87.9405 90.382 87.8668 89.6394 87.5775C88.8967 87.2881 88.2515 86.7949 87.7782 86.155C87.2387 85.4326 86.9473 84.5558 86.9473 83.655C86.9473 82.7542 87.2387 81.8774 87.7782 81.155C88.0251 80.8087 88.3284 80.5062 88.6756 80.26C88.9999 80.0132 89.3622 79.8207 89.7485 79.69C90.46 79.4351 91.2272 79.3763 91.9694 79.52C92.7557 79.6716 93.4813 80.0468 94.0586 80.6004C94.6359 81.154 95.0403 81.8623 95.2231 82.64C95.2847 82.8852 95.315 83.1372 95.3133 83.39C95.3269 83.4879 95.3269 83.5871 95.3133 83.685Z" fill="#263238"/>
<path d="M161.931 83.095C161.931 83.165 148.074 83.225 130.983 83.225C113.893 83.225 100.036 83.165 100.036 83.095C100.036 83.025 113.888 82.965 130.983 82.965C148.079 82.965 161.931 83 161.931 83.095Z" fill="#263238"/>
<path d="M239.941 85.7344C241.585 84.0942 241.585 81.4349 239.941 79.7947C238.296 78.1545 235.63 78.1545 233.985 79.7947C232.341 81.4349 232.341 84.0942 233.985 85.7344C235.63 87.3746 238.296 87.3746 239.941 85.7344Z" fill="#E0E0E0"/>
<path d="M252.795 85.7343C254.44 84.0941 254.44 81.4348 252.795 79.7946C251.151 78.1544 248.484 78.1544 246.84 79.7946C245.195 81.4348 245.195 84.0941 246.84 85.7343C248.484 87.3745 251.151 87.3745 252.795 85.7343Z" fill="#E0E0E0"/>
<path d="M264.273 86.6452C266.423 85.762 267.449 83.3073 266.563 81.1624C265.678 79.0175 263.216 77.9947 261.066 78.8779C258.915 79.7611 257.89 82.2158 258.775 84.3607C259.661 86.5056 262.122 87.5284 264.273 86.6452Z" fill="#E0E0E0"/>
<path d="M97.409 179.29C98.151 176.715 99.7503 174.225 102.217 173.165C104.784 172.06 107.757 172.69 110.384 173.64C113.011 174.59 115.592 175.87 118.405 176.04C121.217 176.21 124.346 174.89 125.183 172.23C125.965 169.73 124.456 167.06 122.561 165.23C120.559 163.312 118.106 161.926 115.426 161.202C112.747 160.478 109.928 160.437 107.229 161.085C104.53 161.732 102.038 163.047 99.9815 164.907C97.9255 166.767 96.3719 169.114 95.4639 171.73" fill="#8547C6"/>
<g opacity="0.3">
<path opacity="0.3" d="M122.541 165.245C120.539 163.327 118.086 161.941 115.406 161.217C112.727 160.493 109.908 160.452 107.209 161.1C104.51 161.747 102.018 163.062 99.9615 164.922C97.9055 166.782 96.3519 169.129 95.4438 171.745L97.4091 179.305C98.151 176.73 99.7503 174.24 102.217 173.18C104.784 172.075 107.757 172.705 110.384 173.655C113.011 174.605 115.592 175.885 118.405 176.055C121.217 176.225 124.346 174.905 125.183 172.245C125.945 169.73 124.436 167.06 122.541 165.245Z" fill="black"/>
</g>
<path d="M75.2953 190.47C71.2044 186.595 71.41 179.84 73.4504 174.59C75.4908 169.34 79.9677 165.305 84.9309 162.65C89.7912 160.105 95.1661 158.691 100.653 158.513C106.139 158.336 111.595 159.4 116.61 161.625C114.155 161.731 111.763 162.435 109.643 163.676C107.524 164.918 105.742 166.658 104.453 168.745C102.207 172.46 101.711 176.97 99.8556 180.895C97.7663 185.322 94.0551 188.782 89.4856 190.563C84.916 192.344 79.8358 192.311 75.2903 190.47" fill="#8547C6"/>
<path d="M73.33 167.165C68.818 161.83 68.1913 153.265 68.8631 146.3C69.5349 139.335 71.1442 132.335 70.0463 125.425C69.3945 121.335 67.8003 117.425 67.2639 113.32C66.7274 109.215 67.4895 104.565 70.6779 101.91C74.3477 98.865 80.1281 99.58 83.9432 102.445C87.7584 105.31 89.9592 109.8 91.5886 114.285C95.138 124.13 96.4415 135.045 93.5237 145.095C90.6059 155.145 83.7627 164.135 73.721 167.165" fill="#8547C6"/>
<path d="M71.154 210.95C71.1342 210.745 71.1342 210.54 71.154 210.335C71.154 209.935 71.154 209.335 71.1841 208.575C71.2442 207.04 71.3896 204.83 71.7355 202.11C72.1383 198.925 72.7191 195.765 73.4752 192.645C74.4185 188.814 75.8755 185.128 77.8067 181.685C79.7479 178.248 82.1273 175.077 84.8855 172.25C87.1305 169.943 89.6162 167.881 92.3002 166.1C93.4332 165.315 94.5312 164.725 95.4737 164.175C96.4162 163.625 97.2835 163.255 97.9803 162.92L99.6097 162.235C99.7954 162.149 99.9883 162.078 100.186 162.025C100.011 162.131 99.8284 162.225 99.6397 162.305L98.0405 163.05C97.3637 163.405 96.5365 163.835 95.5789 164.36C94.6214 164.885 93.5736 165.525 92.4556 166.32C86.549 170.338 81.6497 175.659 78.1376 181.87C73.9715 189.14 72.8284 196.785 72.0012 202.145C71.6252 204.85 71.4397 207.055 71.3345 208.58C71.2944 209.315 71.2593 209.905 71.2342 210.34C71.2234 210.545 71.1966 210.749 71.154 210.95Z" fill="#263238"/>
<path d="M32.0552 146.115C23.6679 151.16 23.698 155.755 25.0967 160.09C26.4954 164.425 31.6441 167.44 35.9104 165.815C38.3218 164.895 40.0715 162.815 41.5655 160.705C43.0594 158.595 44.4582 156.355 46.5487 154.845C48.6393 153.335 51.6723 152.76 53.7779 154.255" fill="#8547C6"/>
<g opacity="0.3">
<path opacity="0.3" d="M32.0552 146.115C23.6679 151.16 23.698 155.755 25.0967 160.09C26.4954 164.425 31.6441 167.44 35.9104 165.815C38.3218 164.895 40.0715 162.815 41.5655 160.705C43.0594 158.595 44.4582 156.355 46.5487 154.845C47.9904 153.778 49.7728 153.271 51.5621 153.42L32.0552 146.115Z" fill="black"/>
</g>
<path d="M51.5522 153.42L53.7782 154.255C53.1186 153.794 52.3529 153.507 51.5522 153.42Z" fill="black"/>
<path d="M25.7784 151.65C27.9692 148.625 33.3886 147.75 36.8077 149.26C40.2268 150.77 42.7334 153.76 44.9794 156.76C47.2254 159.76 49.4062 162.9 52.4994 164.975C55.5926 167.05 59.9492 167.805 63.0274 165.715C65.0628 164.34 66.241 161.95 66.6119 159.53C66.9829 157.11 66.6119 154.635 66.1106 152.235C65.3736 148.735 64.1654 145.065 61.3479 142.835C58.2146 140.335 53.858 140.235 49.8574 140.365C45.2602 140.515 40.5978 140.865 36.2863 142.445C31.9748 144.025 27.5781 147.445 25.7583 151.67" fill="#8547C6"/>
<path d="M64.1707 204.25C64.1707 204.25 64.1707 204.19 64.1707 204.07C64.1707 203.95 64.1707 203.75 64.1406 203.53C64.1406 203.03 64.1005 202.33 64.0704 201.455C64.0153 199.62 63.9451 197.02 63.8498 193.82C63.7546 190.62 63.6192 186.76 63.3836 182.505C63.148 178.25 62.8271 173.57 62.1804 168.7C61.9081 166.333 61.4437 163.992 60.7917 161.7C60.1245 159.582 59.2636 157.53 58.2199 155.57C57.2835 153.791 56.1967 152.095 54.9712 150.5C53.8945 149.115 52.7093 147.818 51.4268 146.62C49.5575 144.897 47.4423 143.459 45.1501 142.355C44.744 142.165 44.3831 141.98 44.0622 141.855L43.245 141.5L42.7437 141.3C42.6284 141.25 42.5732 141.225 42.5732 141.215C42.6351 141.222 42.6957 141.237 42.7537 141.26L43.2551 141.43L44.0923 141.715C44.4181 141.835 44.7791 142.01 45.2002 142.185C47.5333 143.254 49.6888 144.672 51.5922 146.39C52.8988 147.585 54.106 148.885 55.2018 150.275C56.447 151.879 57.5507 153.587 58.5006 155.38C59.5642 157.356 60.4403 159.427 61.1176 161.565C61.7792 163.878 62.2503 166.241 62.5263 168.63C63.178 173.52 63.4839 178.205 63.7044 182.465C63.925 186.725 64.0253 190.565 64.0905 193.79C64.1556 197.015 64.1807 199.625 64.1907 201.43C64.1907 202.31 64.1907 203.005 64.1907 203.51C64.1907 203.725 64.1907 203.905 64.1907 204.05C64.1922 204.117 64.1855 204.184 64.1707 204.25Z" fill="#263238"/>
<path d="M67.2037 208.03C66.8033 206.859 66.4949 205.659 66.2813 204.44C65.7017 201.109 65.5736 197.715 65.9002 194.35C66.4113 189.364 67.4826 184.452 69.0937 179.705C70.8133 174.325 73.1545 168.57 75.1498 162.385C76.1326 159.38 76.9362 156.32 77.5562 153.22C78.1101 150.337 78.5068 147.426 78.7444 144.5C79.1269 139.525 79.2173 134.531 79.0151 129.545C78.8697 125.285 78.6391 121.845 78.5138 119.46C78.4436 118.29 78.3935 117.37 78.3534 116.72C78.3534 116.425 78.3534 116.19 78.3183 116.005C78.3116 115.925 78.3116 115.845 78.3183 115.765C78.3423 115.843 78.3558 115.924 78.3584 116.005C78.3584 116.185 78.3985 116.42 78.4286 116.715C78.4837 117.365 78.5589 118.28 78.6592 119.45C78.8447 121.83 79.1154 125.275 79.2909 129.535C79.5356 134.534 79.4736 139.543 79.1054 144.535C78.8761 147.483 78.4845 150.415 77.9322 153.32C77.3081 156.426 76.4978 159.491 75.5058 162.5C73.5005 168.705 71.1592 174.45 69.4246 179.815C67.8117 184.535 66.7223 189.418 66.176 194.375C65.83 197.719 65.9193 201.094 66.4417 204.415C66.6472 205.585 66.8377 206.495 67.0032 207.1C67.0734 207.383 67.1285 207.613 67.1686 207.79C67.1878 207.869 67.1995 207.949 67.2037 208.03Z" fill="#263238"/>
<path d="M87.9939 211.81H48.6142L47.7168 204.25H87.9939V211.81Z" fill="#455A64"/>
<path d="M52.8403 210.95L57.7634 233.63H79.1603L83.7676 210.95H52.8403Z" fill="#455A64"/>
<path d="M87.9941 211.81C87.9941 211.915 79.3361 211.975 68.6577 211.945C57.9793 211.915 49.3213 211.805 49.3213 211.705C49.3213 211.605 57.9793 211.54 68.6577 211.57C79.3361 211.6 87.9941 211.71 87.9941 211.81Z" fill="#455A64"/>
<path d="M81.2159 223C80.1465 222.193 78.9812 221.522 77.7467 221C76.4026 220.471 74.975 220.185 73.5305 220.155C71.7598 220.159 70.0042 220.479 68.3467 221.1C66.5519 221.705 64.8724 222.41 63.2431 222.8C61.7927 223.111 60.2976 223.155 58.8314 222.93C57.8424 222.79 56.8835 222.488 55.9938 222.035C55.7573 221.907 55.5295 221.763 55.312 221.605C55.1616 221.495 55.0914 221.43 55.0964 221.42C55.1015 221.41 55.4323 221.615 56.059 221.92C56.9516 222.312 57.8978 222.57 58.8665 222.685C60.3001 222.874 61.7558 222.811 63.1679 222.5C64.7471 222.105 66.4216 221.395 68.2314 220.785C69.9288 220.145 71.731 219.826 73.5455 219.845C75.0268 219.891 76.4868 220.21 77.852 220.785C78.7701 221.17 79.6332 221.674 80.4188 222.285C80.6319 222.44 80.8361 222.607 81.0304 222.785C81.1016 222.848 81.164 222.92 81.2159 223Z" fill="#263238"/>
<path d="M80.935 224.5C79.9028 223.725 78.7861 223.069 77.6061 222.545C76.3145 222.018 74.9358 221.735 73.5403 221.71C71.8291 221.713 70.1319 222.018 68.527 222.61C66.7923 223.185 65.163 223.855 63.6089 224.275C62.2349 224.678 60.8028 224.847 59.3726 224.775C58.4056 224.718 57.4605 224.464 56.5952 224.03C56.3618 223.91 56.1388 223.772 55.9285 223.615C55.7881 223.505 55.7179 223.445 55.7229 223.435C55.7279 223.425 56.0488 223.625 56.6554 223.9C57.521 224.268 58.4471 224.475 59.3877 224.51C60.7851 224.552 62.1803 224.368 63.5186 223.965C65.0226 223.54 66.657 222.865 68.4117 222.28C70.0564 221.676 71.7976 221.374 73.5503 221.39C74.9848 221.431 76.3979 221.748 77.7114 222.325C78.5952 222.714 79.423 223.218 80.1729 223.825C80.3775 223.981 80.5733 224.148 80.7595 224.325C80.8798 224.44 80.945 224.5 80.935 224.5Z" fill="white"/>
<path d="M81.6268 221.5C80.5192 220.675 79.3239 219.974 78.0624 219.41C76.6917 218.821 75.2302 218.469 73.7409 218.37C71.9134 218.333 70.0964 218.652 68.3916 219.31C66.5367 219.935 64.8121 220.685 63.1076 221.035C61.5994 221.291 60.0587 221.291 58.5505 221.035C57.5353 220.877 56.5498 220.567 55.6277 220.115C55.3803 219.985 55.1424 219.838 54.9158 219.675C54.7604 219.56 54.6852 219.495 54.6952 219.485C54.7052 219.475 55.0411 219.685 55.6979 219.985C56.6258 220.377 57.6019 220.645 58.6006 220.78C60.0793 220.994 61.5831 220.965 63.0524 220.695C64.6868 220.345 66.4164 219.585 68.2814 218.96C70.0289 218.281 71.8967 217.965 73.7709 218.03C75.296 218.143 76.7885 218.527 78.1777 219.165C79.1143 219.584 79.9965 220.114 80.8047 220.745C81.0261 220.912 81.237 221.092 81.4363 221.285C81.5667 221.42 81.6319 221.5 81.6268 221.5Z" fill="white"/>
<path d="M88.3396 211.845C88.3396 211.95 79.4811 212.03 68.557 212.03C57.633 212.03 48.7744 211.95 48.7744 211.845C48.7744 211.74 57.628 211.655 68.557 211.655C79.4861 211.655 88.3396 211.74 88.3396 211.845Z" fill="#263238"/>
<path d="M322.127 120.28H317.695V123.48H322.127V120.28Z" fill="#455A64"/>
<path d="M284.948 94.35H277.323V116.555H284.948V94.35Z" fill="#8547C6"/>
<g opacity="0.3">
<path opacity="0.3" d="M284.948 94.35H277.323V116.555H284.948V94.35Z" fill="black"/>
</g>
<path d="M284.948 92.535V118.105H306.776L311.975 114.995V96.16L306.691 92.535H284.948Z" fill="#8547C6"/>
<path d="M293.345 92.535H291.681V118.11H293.345V92.535Z" fill="#455A64"/>
<path d="M302.72 117.89C302.66 117.89 302.61 112.245 302.61 105.285C302.61 98.3251 302.66 92.6801 302.72 92.6801C302.78 92.6801 302.835 98.3251 302.835 105.285C302.835 112.245 302.805 117.89 302.72 117.89Z" fill="#263238"/>
<path d="M302.535 113.09C299.473 113.243 296.406 113.243 293.345 113.09C293.345 113.03 295.401 112.98 297.942 112.98C300.484 112.98 302.535 113.03 302.535 113.09Z" fill="#263238"/>
<path d="M302.535 111.675C299.473 111.828 296.406 111.828 293.345 111.675C293.345 111.615 295.401 111.565 297.942 111.565C300.484 111.565 302.535 111.615 302.535 111.675Z" fill="#263238"/>
<path d="M302.535 110.26C299.473 110.413 296.406 110.413 293.345 110.26C293.345 110.2 295.401 110.15 297.942 110.15C300.484 110.15 302.535 110.2 302.535 110.26Z" fill="#263238"/>
<path d="M302.535 108.845C299.473 108.998 296.406 108.998 293.345 108.845C293.345 108.785 295.401 108.735 297.942 108.735C300.484 108.735 302.535 108.785 302.535 108.845Z" fill="#263238"/>
<path d="M302.535 107.43C299.473 107.583 296.406 107.583 293.345 107.43C293.345 107.37 295.401 107.32 297.942 107.32C300.484 107.32 302.535 107.37 302.535 107.43Z" fill="#263238"/>
<path d="M302.535 106C299.473 106.153 296.406 106.153 293.345 106C293.345 105.94 295.401 105.89 297.942 105.89C300.484 105.89 302.535 105.955 302.535 106Z" fill="#263238"/>
<path d="M302.535 104.6C299.473 104.753 296.406 104.753 293.345 104.6C293.345 104.54 295.401 104.49 297.942 104.49C300.484 104.49 302.535 104.54 302.535 104.6Z" fill="#263238"/>
<path d="M302.535 103.185C299.473 103.338 296.406 103.338 293.345 103.185C293.345 103.125 295.401 103.075 297.942 103.075C300.484 103.075 302.535 103.125 302.535 103.185Z" fill="#263238"/>
<path d="M302.535 101.77C299.473 101.923 296.406 101.923 293.345 101.77C293.345 101.71 295.401 101.66 297.942 101.66C300.484 101.66 302.535 101.71 302.535 101.77Z" fill="#263238"/>
<path d="M302.535 100.355C299.473 100.508 296.406 100.508 293.345 100.355C293.345 100.295 295.401 100.245 297.942 100.245C300.484 100.245 302.535 100.295 302.535 100.355Z" fill="#263238"/>
<path d="M302.535 98.94C299.473 99.0933 296.406 99.0933 293.345 98.94C293.345 98.88 295.401 98.83 297.942 98.83C300.484 98.83 302.535 98.88 302.535 98.94Z" fill="#263238"/>
<path d="M302.535 97.525C299.473 97.6783 296.406 97.6783 293.345 97.525C293.345 97.465 295.401 97.415 297.942 97.415C300.484 97.415 302.535 97.465 302.535 97.525Z" fill="#263238"/>
<path d="M302.535 96.115C302.535 96.175 300.479 96.225 297.942 96.225C295.406 96.225 293.345 96.175 293.345 96.115C296.406 95.9617 299.473 95.9617 302.535 96.115Z" fill="#263238"/>
<path d="M302.535 94.7C302.535 94.76 300.479 94.81 297.942 94.81C295.406 94.81 293.345 94.76 293.345 94.7C296.406 94.5466 299.473 94.5466 302.535 94.7Z" fill="#263238"/>
<path d="M302.535 93.285C302.535 93.345 300.479 93.395 297.942 93.395C295.406 93.395 293.345 93.345 293.345 93.285C296.406 93.1317 299.473 93.1317 302.535 93.285Z" fill="#263238"/>
<path d="M302.535 114.69C302.535 114.75 300.479 114.805 297.942 114.805C295.406 114.805 293.345 114.75 293.345 114.69C293.345 114.63 295.401 114.575 297.942 114.575C300.484 114.575 302.535 114.63 302.535 114.69Z" fill="#263238"/>
<path d="M302.535 116.29C302.535 116.35 300.479 116.4 297.942 116.4C295.406 116.4 293.345 116.35 293.345 116.29C296.406 116.137 299.473 116.137 302.535 116.29Z" fill="#263238"/>
<path d="M308.084 88.44V89.615C308.084 89.8769 308.156 90.1339 308.291 90.3585C308.426 90.583 308.62 90.7668 308.851 90.89L311.975 92.535V118.7H315.279C315.562 118.701 315.842 118.646 316.104 118.538C316.366 118.43 316.604 118.272 316.804 118.072C317.005 117.872 317.163 117.635 317.272 117.374C317.38 117.112 317.435 116.833 317.434 116.55H330.198C330.69 116.551 331.178 116.455 331.633 116.267C332.088 116.08 332.501 115.805 332.85 115.458C333.198 115.111 333.474 114.699 333.663 114.245C333.851 113.792 333.948 113.306 333.948 112.815V90.045C333.947 89.7033 333.81 89.3759 333.568 89.1343C333.326 88.8927 332.997 88.7563 332.655 88.755H331.005V87.325L328.218 84.695L316.527 85.145L309.167 87.045C308.857 87.1248 308.583 87.3052 308.387 87.5578C308.191 87.8103 308.084 88.1206 308.084 88.44Z" fill="#8547C6"/>
<path d="M333.948 90.43C333.948 90.49 328.148 90.095 321.004 89.545C313.86 88.995 308.074 88.505 308.079 88.44C308.084 88.375 313.88 88.775 321.024 89.32C328.168 89.865 333.953 90.365 333.948 90.43Z" fill="#263238"/>
<path d="M317.399 95.04C317.464 95.04 317.514 99.86 317.514 105.805C317.514 111.75 317.464 116.575 317.399 116.575C317.334 116.575 317.289 111.755 317.289 105.805C317.289 99.855 317.344 95.04 317.399 95.04Z" fill="#263238"/>
<path d="M322.698 89.42C321.9 90.4327 321.043 91.3977 320.131 92.31C319.274 93.2712 318.361 94.1827 317.399 95.04C318.197 94.0285 319.054 93.0651 319.966 92.155C320.823 91.1916 321.735 90.2784 322.698 89.42Z" fill="#263238"/>
<path d="M314.777 90.145C314.537 90.142 314.303 90.2251 314.119 90.3793C313.935 90.5334 313.813 90.7484 313.775 90.9851C313.744 91.2277 313.811 91.4726 313.962 91.6657C314.112 91.8589 314.333 91.9846 314.577 92.0151C314.82 92.0456 315.065 91.9784 315.259 91.8284C315.453 91.6784 315.579 91.4577 315.609 91.2151C315.609 90.595 315.349 90.145 314.762 90.145" fill="#263238"/>
<path d="M311.975 118.7C311.909 118.7 311.859 112.85 311.859 105.63C311.859 98.4101 311.909 92.5601 311.975 92.5601C312.04 92.5601 312.09 98.4101 312.09 105.63C312.09 112.85 312.035 118.7 311.975 118.7Z" fill="#263238"/>
<path d="M306.776 118.105C306.716 118.105 306.646 112.38 306.621 105.32C306.596 98.26 306.621 92.535 306.691 92.535C306.761 92.535 306.821 98.26 306.846 105.32C306.871 112.38 306.841 118.105 306.776 118.105Z" fill="#263238"/>
<path d="M304.545 94.665C304.703 94.6293 304.869 94.6547 305.009 94.7361C305.15 94.8176 305.254 94.949 305.301 95.1039C305.348 95.2588 305.334 95.4257 305.263 95.571C305.191 95.7163 305.067 95.8292 304.916 95.887C304.764 95.9448 304.596 95.9432 304.446 95.8825C304.295 95.8218 304.174 95.7065 304.105 95.5598C304.036 95.4132 304.026 95.246 304.076 95.0921C304.126 94.9381 304.233 94.8087 304.375 94.73" fill="#263238"/>
<path d="M317.399 116.375H331.02V118.305C331.02 118.57 330.915 118.825 330.727 119.012C330.539 119.2 330.284 119.305 330.018 119.305H317.399V116.36V116.375Z" fill="#263238"/>
<path d="M323.079 119.32H316.457C316.307 119.32 316.186 119.441 316.186 119.59V120.315C316.186 120.464 316.307 120.585 316.457 120.585H323.079C323.229 120.585 323.35 120.464 323.35 120.315V119.59C323.35 119.441 323.229 119.32 323.079 119.32Z" fill="#263238"/>
<path d="M329.742 123.48H311.478C311.193 123.48 310.962 123.711 310.962 123.995V125.38C310.962 125.664 311.193 125.895 311.478 125.895H329.742C330.027 125.895 330.258 125.664 330.258 125.38V123.995C330.258 123.711 330.027 123.48 329.742 123.48Z" fill="#263238"/>
<path d="M335.252 122.365H329.201C328.652 122.365 328.208 122.808 328.208 123.355V126.02C328.208 126.567 328.652 127.01 329.201 127.01H335.252C335.8 127.01 336.244 126.567 336.244 126.02V123.355C336.244 122.808 335.8 122.365 335.252 122.365Z" fill="#263238"/>
<path d="M322.944 125.895H316.071V149.525H322.944V125.895Z" fill="#263238"/>
<path d="M315.99 148.5H323.009V232.605C323.009 233.003 322.851 233.384 322.569 233.666C322.287 233.947 321.904 234.105 321.505 234.105H317.494C317.096 234.105 316.713 233.947 316.431 233.666C316.149 233.384 315.99 233.003 315.99 232.605V148.5Z" fill="#263238"/>
<path d="M323.896 212.81H314.842C314.18 212.81 313.644 213.345 313.644 214.005V219.59C313.644 220.25 314.18 220.785 314.842 220.785H323.896C324.558 220.785 325.095 220.25 325.095 219.59V214.005C325.095 213.345 324.558 212.81 323.896 212.81Z" fill="#455A64"/>
<path d="M325.095 214.04H329.191C329.503 214.04 329.803 214.164 330.024 214.384C330.245 214.604 330.369 214.903 330.369 215.215V218.38C330.369 218.534 330.338 218.687 330.279 218.83C330.22 218.972 330.133 219.102 330.024 219.211C329.914 219.32 329.784 219.407 329.641 219.466C329.499 219.525 329.345 219.555 329.191 219.555H325.095V214.055V214.04Z" fill="#455A64"/>
<path d="M313.644 219.56H309.548C309.236 219.56 308.936 219.436 308.715 219.216C308.494 218.995 308.37 218.697 308.37 218.385V215.22C308.37 215.066 308.401 214.913 308.46 214.77C308.519 214.628 308.606 214.498 308.715 214.389C308.825 214.28 308.954 214.194 309.097 214.134C309.24 214.075 309.393 214.045 309.548 214.045H313.644V219.545V219.56Z" fill="#455A64"/>
<path d="M328.423 147.135H310.591C309.932 147.135 309.398 147.668 309.398 148.325V151.53C309.398 152.187 309.932 152.72 310.591 152.72H328.423C329.082 152.72 329.617 152.187 329.617 151.53V148.325C329.617 147.668 329.082 147.135 328.423 147.135Z" fill="#263238"/>
<path d="M343.809 227.84H296.087C295.019 227.84 294.152 228.704 294.152 229.77V232.175C294.152 233.241 295.019 234.105 296.087 234.105H343.809C344.878 234.105 345.745 233.241 345.745 232.175V229.77C345.745 228.704 344.878 227.84 343.809 227.84Z" fill="#455A64"/>
<path d="M353.741 148.825H328.804V151.03H353.741V148.825Z" fill="#263238"/>
<path d="M360.81 146.365H352.919C352.08 146.365 351.4 147.043 351.4 147.88V151.945C351.4 152.782 352.08 153.46 352.919 153.46H360.81C361.649 153.46 362.329 152.782 362.329 151.945V147.88C362.329 147.043 361.649 146.365 360.81 146.365Z" fill="#263238"/>
<path d="M274.405 93.295L274.711 117.245L277.934 118.7V91.955C277.704 92.03 274.405 93.295 274.405 93.295Z" fill="#8547C6"/>
<path d="M289.771 118.42C289.705 118.42 289.655 112.55 289.655 105.315C289.655 98.08 289.705 92.205 289.771 92.205C289.836 92.205 289.886 98.07 289.886 105.315C289.886 112.56 289.846 118.42 289.771 118.42Z" fill="#263238"/>
<path d="M276.33 117.595C276.27 117.595 276.22 111.98 276.22 105.055C276.22 98.13 276.27 92.515 276.33 92.515C276.39 92.515 276.445 98.125 276.445 105.055C276.445 111.985 276.395 117.595 276.33 117.595Z" fill="#263238"/>
<path d="M284.401 105.93C282.3 106.083 280.191 106.083 278.09 105.93C280.191 105.783 282.3 105.783 284.401 105.93Z" fill="#263238"/>
<path d="M328.073 115.705C328.007 115.705 327.957 109.98 327.957 102.92C327.957 95.86 328.007 90.14 328.073 90.14C328.138 90.14 328.183 95.86 328.183 102.92C328.183 109.98 328.133 115.705 328.073 115.705Z" fill="#263238"/>
<path d="M146.892 75.8L141.302 65.97C144.774 60.3714 146.02 53.6799 144.796 47.2113C143.572 40.7426 139.966 34.9647 134.686 31.0136C129.407 27.0625 122.836 25.224 116.267 25.8597C109.697 26.4954 103.604 29.5592 99.1843 34.4488C94.765 39.3384 92.3395 45.6999 92.3849 52.2827C92.4303 58.8654 94.9431 65.1931 99.4294 70.0217C103.916 74.8502 110.051 77.8302 116.629 78.3758C123.206 78.9214 129.751 76.9931 134.975 72.97L146.892 75.8Z" fill="#FAFAFA"/>
<path d="M146.891 75.7999L134.944 73.0749L134.824 73.0499L134.899 72.9499L135.014 73.0649C133.342 74.3619 131.521 75.4562 129.59 76.3249C127.279 77.3504 124.833 78.0392 122.325 78.3699C120.942 78.562 119.545 78.6322 118.149 78.5799C117.432 78.5399 116.701 78.5249 115.964 78.4649L113.733 78.1249C108.581 77.1211 103.843 74.618 100.116 70.9313C96.3889 67.2446 93.8404 62.5396 92.7919 57.4099C92.0318 53.5345 92.1379 49.5396 93.1027 45.7099C94.0994 41.7055 96.0399 37.9961 98.7628 34.8899L99.8407 33.7049C100.197 33.3099 100.618 32.9799 100.999 32.6149C101.38 32.2499 101.766 31.8799 102.197 31.5749L103.46 30.6349C103.878 30.3149 104.319 30.0258 104.779 29.7699L106.117 28.9599L107.516 28.2799C107.974 28.043 108.446 27.8342 108.93 27.6549C112.686 26.1729 116.728 25.5526 120.756 25.8399C124.564 26.0994 128.268 27.1919 131.605 29.0399C137.604 32.3686 142.091 37.8695 144.138 44.4049C144.953 47.1821 145.338 50.0669 145.282 52.9599C145.21 55.4721 144.776 57.961 143.993 60.3499C143.335 62.3298 142.446 64.226 141.346 65.9999V65.9199L146.861 75.7899L141.211 65.9999V65.9599V65.9199C142.293 64.1484 143.164 62.2574 143.808 60.2849C144.574 57.9121 144.994 55.4419 145.056 52.9499C145.097 50.0901 144.702 47.2408 143.883 44.4999C141.851 38.0356 137.41 32.5952 131.475 29.2999C128.172 27.4787 124.507 26.405 120.741 26.1549C116.762 25.8729 112.77 26.4863 109.06 27.9499C108.584 28.1288 108.118 28.3358 107.666 28.5699L106.283 29.2399L104.959 30.0449C104.508 30.2989 104.076 30.5846 103.666 30.8999L102.418 31.8299C102.005 32.1515 101.61 32.4954 101.234 32.8599C100.853 33.2199 100.437 33.5399 100.086 33.9349L99.0235 35.0999C96.3382 38.1691 94.4239 41.8317 93.4386 45.7849C92.4806 49.5696 92.3727 53.5187 93.1228 57.3499C93.8507 60.9741 95.3482 64.4009 97.5145 67.3999C101.413 72.8281 107.236 76.5732 113.803 77.8749L116.009 78.2149C116.741 78.2799 117.463 78.2949 118.174 78.3399C119.558 78.397 120.944 78.3317 122.315 78.1449C124.793 77.8223 127.212 77.1489 129.5 76.1449C131.42 75.29 133.234 74.2144 134.904 72.9399L135.405 72.5649L135.029 73.0649L134.984 72.9399L146.891 75.7999Z" fill="#263238"/>
<path d="M111.386 52.1899C111.383 52.7186 111.223 53.2345 110.927 53.6725C110.63 54.1105 110.21 54.4511 109.719 54.6511C109.228 54.8511 108.689 54.9016 108.17 54.7963C107.65 54.691 107.174 54.4346 106.8 54.0594C106.427 53.6842 106.174 53.2071 106.072 52.6882C105.97 52.1694 106.025 51.6322 106.229 51.1444C106.433 50.6565 106.778 50.24 107.219 49.9473C107.661 49.6546 108.179 49.499 108.709 49.4999C109.062 49.4999 109.412 49.5697 109.738 49.7051C110.064 49.8405 110.36 50.039 110.609 50.289C110.858 50.5391 111.055 50.8358 111.188 51.162C111.322 51.4883 111.389 51.8376 111.386 52.1899Z" fill="#263238"/>
<path d="M122.105 52.1899C122.102 52.7186 121.942 53.2345 121.645 53.6725C121.349 54.1105 120.928 54.4511 120.438 54.6511C119.947 54.8511 119.408 54.9016 118.889 54.7963C118.369 54.691 117.893 54.4346 117.519 54.0594C117.146 53.6842 116.892 53.2071 116.791 52.6882C116.689 52.1694 116.744 51.6322 116.948 51.1444C117.152 50.6565 117.497 50.24 117.938 49.9473C118.379 49.6546 118.898 49.499 119.428 49.4999C119.781 49.4999 120.131 49.5697 120.457 49.7051C120.783 49.8405 121.079 50.039 121.328 50.289C121.577 50.5391 121.774 50.8358 121.907 51.162C122.04 51.4883 122.108 51.8376 122.105 52.1899Z" fill="#263238"/>
<path d="M132.798 50.85C133.061 51.3097 133.18 51.8367 133.143 52.3643C133.105 52.8919 132.911 53.3965 132.586 53.8143C132.26 54.2321 131.818 54.5443 131.315 54.7115C130.812 54.8787 130.27 54.8933 129.759 54.7535C129.247 54.6137 128.789 54.3259 128.441 53.9262C128.094 53.5266 127.873 53.0332 127.806 52.5084C127.74 51.9836 127.831 51.4509 128.068 50.9777C128.305 50.5046 128.678 50.1121 129.138 49.85C129.444 49.6752 129.782 49.5624 130.132 49.5181C130.481 49.4737 130.837 49.4987 131.177 49.5917C131.517 49.6846 131.835 49.8436 132.113 50.0595C132.391 50.2755 132.624 50.5441 132.798 50.85Z" fill="#263238"/>
</g>
<defs>
<clipPath id="clip0">
<rect width="376" height="250" fill="white"/>
</clipPath>
</defs>
</svg>
