<svg width="216" height="310" viewBox="0 0 216 310" fill="none" xmlns="http://www.w3.org/2000/svg">
<path d="M166.802 213.46H52.7002V229.129H166.802V213.46Z" fill="#263238"/>
<path d="M166.986 229.328H52.4551V213.276H166.94L166.986 229.328ZM52.8833 228.945H166.588V213.659H52.8833V228.945Z" fill="#263238"/>
<path d="M63.269 223.916L79.6961 304.891H140.464L156.34 229.129L63.269 223.916Z" fill="#263238"/>
<path d="M63.269 297.232L72.0332 309.278H145.894L156.34 297.232H63.269Z" fill="#455A64"/>
<path d="M105.453 226.285C105.239 226.285 104.948 188.771 104.811 142.498C104.673 96.2245 104.811 58.7104 104.979 58.7104C105.147 58.7104 105.499 96.2245 105.621 142.498C105.744 188.771 105.682 226.285 105.453 226.285Z" fill="#263238"/>
<path d="M130.874 132.409C130.802 132.709 130.7 133.001 130.568 133.28L129.543 135.711L128.809 137.453C128.564 138.111 128.32 138.829 128.044 139.578C127.769 140.327 127.478 141.107 127.157 142.024C126.836 142.941 126.622 143.843 126.316 144.806C124.965 149.393 123.902 154.059 123.134 158.779C122.24 164.563 121.648 170.39 121.36 176.236C120.943 186.874 121.244 197.528 122.263 208.125C122.63 212.191 122.997 215.493 123.272 217.755C123.395 218.825 123.486 219.697 123.563 220.385C123.593 220.69 123.593 220.997 123.563 221.302C123.452 221.012 123.38 220.709 123.349 220.4C123.242 219.727 123.089 218.871 122.905 217.801C122.538 215.539 122.079 212.252 121.651 208.186C120.457 197.565 120.073 186.869 120.504 176.19C120.796 170.317 121.408 164.463 122.339 158.656C123.155 153.914 124.284 149.231 125.719 144.638C126.041 143.675 126.301 142.727 126.622 141.856C126.943 140.985 127.279 140.19 127.57 139.425L128.396 137.3L129.207 135.573L130.369 133.204C130.5 132.916 130.669 132.649 130.874 132.409Z" fill="#263238"/>
<path d="M127.952 102.064C127.875 102.489 127.752 102.904 127.585 103.302L126.408 106.788C126.132 107.552 125.842 108.393 125.536 109.31C125.23 110.227 124.924 111.246 124.618 112.367C123.945 114.538 123.089 116.953 122.492 119.781L121.345 124.108C120.993 125.636 120.641 127.165 120.274 128.862C119.479 132.118 118.898 135.665 118.163 139.379C116.909 146.824 115.793 155.064 115.104 163.747C114.416 172.43 114.08 180.761 113.973 188.313C113.866 195.864 113.973 202.682 114.355 208.4C114.447 211.258 114.63 213.826 114.783 216.043C114.936 218.26 115.059 220.262 115.196 221.852C115.334 223.442 115.41 224.604 115.471 225.521C115.512 225.953 115.512 226.388 115.471 226.82C115.371 226.398 115.305 225.969 115.273 225.536C115.166 224.634 115.013 223.411 114.844 221.883C114.676 220.354 114.462 218.336 114.278 216.074C114.095 213.811 113.866 211.228 113.728 208.43C113.345 202.713 113.193 195.88 113.177 188.313C113.162 180.746 113.529 172.399 114.248 163.685C114.967 154.972 116.16 146.702 117.46 139.226C118.209 135.512 118.821 131.965 119.647 128.694C120.029 127.058 120.397 125.468 120.764 123.939L121.957 119.613C122.691 116.831 123.486 114.37 124.205 112.214L125.199 109.157C125.536 108.255 125.857 107.43 126.132 106.665C126.693 105.228 127.137 104.082 127.463 103.226C127.594 102.826 127.758 102.437 127.952 102.064Z" fill="#263238"/>
<path d="M98.2339 232.92C98.2181 232.773 98.2181 232.624 98.2339 232.477C98.2339 232.14 98.2339 231.728 98.1269 231.193C98.1269 230 97.928 228.334 97.7904 226.224C97.5151 221.852 97.1327 215.615 96.6432 207.957C95.6643 192.532 94.2266 171.268 91.6264 147.772C90.2957 136.062 88.7662 124.933 87.1602 114.844C86.319 109.799 85.5389 105.015 84.6671 100.551C83.7953 96.0871 82.9999 91.9444 82.2046 88.1533C81.4092 84.3621 80.6751 80.9684 79.9409 77.9875C79.2067 75.0066 78.6408 72.4231 78.1055 70.3441C77.5701 68.265 77.203 66.6752 76.9277 65.4981C76.8054 64.9936 76.7136 64.5656 76.6371 64.2446C76.6203 64.0973 76.6203 63.9486 76.6371 63.8013C76.7109 63.9293 76.7627 64.0688 76.7901 64.214C76.8818 64.5503 77.0042 64.9478 77.1572 65.4675L78.4878 70.2676C79.069 72.3466 79.7573 74.8537 80.4609 77.911C81.1645 80.9684 81.9904 84.2857 82.847 88.0615C83.7035 91.8374 84.5753 95.9801 85.4013 100.459C86.2272 104.938 87.1143 109.631 87.9862 114.752C89.6227 124.842 91.1829 135.986 92.5747 147.711C95.1749 171.176 96.5209 192.517 97.3621 207.941C97.7751 215.661 98.0657 221.913 98.2492 226.286C98.2492 228.395 98.3869 230.061 98.4328 231.254C98.4328 231.789 98.4328 232.217 98.4328 232.553C98.3847 232.684 98.3177 232.808 98.2339 232.92Z" fill="#263238"/>
<path d="M104.459 76.7798C103.97 71.46 98.6011 67.4548 93.2478 67.4089C87.8944 67.3631 82.9388 70.4663 79.6656 74.7772C76.5921 79.1577 74.3761 84.0801 73.1346 89.2845C69.5402 101.804 67.5671 114.951 69.1119 127.884C70.6568 140.817 75.8877 153.566 85.1872 162.707C86.7167 164.236 88.6439 165.673 90.724 165.23C91.8805 164.902 92.9269 164.268 93.7525 163.395C102.85 155.074 110.061 144.902 114.899 133.564C119.738 122.226 122.092 109.984 121.804 97.6617C121.666 92.7393 121.009 87.6182 118.286 83.5213C115.563 79.4245 109.216 75.0677 104.52 76.7187" fill="#8547C6"/>
<path d="M64.6914 34.1752L57.1203 47.7347C56.952 48.0557 56.7226 48.4073 56.3555 48.4379C55.9884 48.4684 55.6672 48.1016 55.4531 47.7652C48.815 37.574 42.1871 27.4083 35.5693 17.268L40.1579 14.6692L64.6914 34.1752Z" fill="#8547C6"/>
<g opacity="0.2">
<path opacity="0.2" d="M64.6914 34.1752L57.1203 47.7347C56.952 48.0557 56.7226 48.4073 56.3555 48.4379C55.9884 48.4684 55.6672 48.1016 55.4531 47.7652C48.815 37.574 42.1871 27.4083 35.5693 17.268L40.1579 14.6692L64.6914 34.1752Z" fill="black"/>
</g>
<path d="M104.979 58.7107L37.1602 18.6896C36.7009 18.5644 36.2903 18.3031 35.9826 17.94C35.6748 17.577 35.4844 17.1292 35.4363 16.6558C35.3883 16.1824 35.4849 15.7055 35.7135 15.2881C35.9421 14.8707 36.2918 14.5323 36.7167 14.3176C41.3797 9.47891 47.0315 5.7016 53.287 3.24298C59.5424 0.784363 66.2546 -0.297803 72.9663 0.0701868C79.6749 0.55054 86.1654 2.65706 91.8765 6.20757C97.5876 9.75807 102.347 14.6456 105.744 20.4476C112.29 32.142 112.504 47.5971 104.994 58.6648" fill="#8547C6"/>
<path d="M46.9336 5.94027C47.2233 5.8657 47.5216 5.82971 47.8207 5.83325C48.4019 5.83325 49.2585 5.69569 50.375 5.71098C53.5315 5.66626 56.6854 5.91186 59.7969 6.44472C70.1462 8.19151 79.7792 12.8623 87.5578 19.9053C95.3364 26.9483 100.936 36.0692 103.694 46.1906C104.54 49.1941 105.103 52.27 105.377 55.3781C105.499 56.494 105.453 56.7692 105.484 57.3653C105.435 57.9091 105.256 58.4332 104.964 58.894C105.164 57.7637 105.2 56.6104 105.071 55.4698C104.667 52.3671 104.023 49.3005 103.143 46.2977C100.3 36.342 94.7212 27.3823 87.0404 20.4353C79.3597 13.4883 69.8844 8.83206 59.6898 6.99507C56.6165 6.41502 53.5016 6.08275 50.375 6.00143C48.1572 5.97086 46.9336 6.01671 46.9336 5.94027Z" fill="#263238"/>
<path d="M95.8018 31.1025C94.7229 31.7432 93.5731 32.2562 92.3756 32.6312C90.219 33.4873 87.1906 34.5727 83.8103 35.6886C80.4301 36.8046 77.3405 37.6148 75.0768 38.1651C73.8793 38.5406 72.6423 38.7766 71.3906 38.8683C72.5231 38.3326 73.7069 37.9126 74.9238 37.6148L83.5656 34.909L92.2227 32.1115C93.3788 31.6559 94.5779 31.3179 95.8018 31.1025Z" fill="#263238"/>
<path d="M85.1257 2.42407C86.0578 7.4266 86.1869 12.5456 85.5081 17.5887C85.1685 15.0559 85.0355 12.4996 85.1104 9.94525C84.9113 7.44194 84.9165 4.92656 85.1257 2.42407Z" fill="#263238"/>
<path d="M36.5635 17.9556C38.1491 17.2272 39.7975 16.6439 41.4885 16.2129C44.5476 15.2651 48.8608 14.0728 53.7247 12.911C58.5886 11.7491 62.9018 10.8778 66.0526 10.3275C67.7519 9.94218 69.4818 9.70689 71.2224 9.62427C69.5679 10.1657 67.8757 10.5847 66.1597 10.8778C63.1006 11.581 58.6803 12.5593 53.9235 13.7059C49.1667 14.8524 44.8535 15.9683 41.6874 16.7632C40.0088 17.2778 38.2968 17.6762 36.5635 17.9556Z" fill="#263238"/>
<path d="M76.3769 65.2228C70.5341 60.7896 64.3702 59.9183 57.0591 60.2087C49.7299 60.6982 42.5563 62.549 35.9058 65.6661C24.465 70.6802 13.7125 78.0485 6.84495 88.5047C-0.0225947 98.961 -2.33217 112.78 2.74583 124.154C3.13631 125.343 3.95368 126.345 5.04011 126.967C6.31379 127.328 7.67445 127.225 8.87921 126.676C21.8801 122.426 34.9881 118.146 46.949 111.511C58.9098 104.877 69.8 95.6284 76.2087 83.5518C77.8525 80.7003 78.8936 77.5422 79.2677 74.2726C79.4327 72.6334 79.2451 70.9779 78.7175 69.417C78.1899 67.8562 77.3345 66.4262 76.2087 65.2228" fill="#8547C6"/>
<path d="M76.4839 63.8472C76.189 64.0107 75.8758 64.139 75.5509 64.2293L72.8284 65.1618L70.8553 65.8191C70.1364 66.079 69.3258 66.4001 68.5457 66.7211C66.8938 67.3784 64.9819 68.051 62.9782 69.0294L59.7816 70.4817C58.6803 70.9861 57.579 71.6129 56.4013 72.2091C54.0459 73.3709 51.6598 74.8537 49.1208 76.3518C43.7026 79.7598 38.5535 83.5774 33.7185 87.7711C28.9464 92.0148 24.5032 96.6141 20.427 101.529C18.6069 103.868 16.8326 106.039 15.3949 108.225C14.6454 109.31 13.8654 110.335 13.2383 111.282L11.3876 114.34C10.1639 116.205 9.26152 118.024 8.32851 119.568C7.91554 120.347 7.48727 121.097 7.15078 121.739C6.81429 122.381 6.52368 123.038 6.24837 123.604C5.71303 124.674 5.30006 125.53 4.96357 126.187C4.83247 126.499 4.66839 126.796 4.47412 127.074C4.5489 126.746 4.66184 126.428 4.81062 126.126C5.11652 125.438 5.48361 124.597 5.95776 123.481L6.79899 121.57C7.12019 120.882 7.51787 120.149 7.93084 119.354C8.77207 117.825 9.6439 115.945 10.8369 114.049L12.6571 110.992C13.2842 109.952 14.0489 108.913 14.7678 107.812C16.2055 105.596 17.9645 103.394 19.7846 101.04C23.8473 96.0366 28.3076 91.3691 33.122 87.0832C37.9888 82.8593 43.1853 79.0305 48.6619 75.6333C51.2315 74.1047 53.6482 72.683 56.0342 71.5365C57.212 70.9556 58.3285 70.3288 59.4604 69.8396L62.6876 68.4179C64.7219 67.4701 66.6644 66.8892 68.3316 66.2166C69.1575 65.9109 69.8611 65.6204 70.6564 65.3759L72.6601 64.7796L75.4438 64C75.7825 63.9045 76.1321 63.8531 76.4839 63.8472Z" fill="#263238"/>
<path d="M30.9043 88.5049C26.2628 90.2986 21.524 91.8297 16.7103 93.091C11.9798 94.6142 7.17 95.8797 2.30225 96.8821C6.94662 95.0966 11.685 93.5656 16.4962 92.296C21.2268 90.7728 26.0365 89.5073 30.9043 88.5049Z" fill="#263238"/>
<path d="M30.3233 119.812C30.0823 118.353 29.9799 116.873 30.0173 115.394C30.0173 112.658 29.9256 108.882 30.0173 104.694C30.1091 100.505 30.3538 96.7597 30.5833 93.9927C30.6289 92.5112 30.8133 91.0372 31.1339 89.5901C31.2756 91.0644 31.2756 92.5489 31.1339 94.0233C31.0421 97.0807 30.9351 100.658 30.8127 104.724C30.6903 108.79 30.6139 112.368 30.5374 115.425C30.604 116.891 30.5323 118.36 30.3233 119.812Z" fill="#263238"/>
<path d="M57.1508 106.146C56.9214 106.146 56.2178 98.5022 55.6213 89.0091C55.0247 79.5159 54.6118 71.8266 54.8412 71.8113C55.0706 71.796 55.7742 79.4548 56.3707 88.9632C56.9672 98.4717 57.3802 106.13 57.1508 106.146Z" fill="#263238"/>
<path d="M23.7612 71.0779C25.2823 70.8788 26.8195 70.8327 28.3498 70.9403C31.1641 70.9403 35.0338 71.032 39.3011 71.1696C43.5685 71.3072 47.4535 71.4906 50.2525 71.6588C51.7915 71.6698 53.3266 71.813 54.8411 72.0868C53.32 72.2859 51.7828 72.332 50.2525 72.2244C47.4535 72.2244 43.5685 72.1327 39.2859 71.9951C35.0032 71.8575 31.1488 71.6741 28.3498 71.5059C26.8107 71.4976 25.2753 71.3544 23.7612 71.0779Z" fill="#263238"/>
<path d="M88.1544 164.45C88.0828 164.155 88.0469 163.852 88.0473 163.548C88.0473 162.86 88.0473 162.019 87.9403 160.934C87.8332 158.671 87.8026 155.385 87.9403 151.334C88.0779 147.283 88.2921 142.452 88.7815 137.117C89.271 131.782 90.0663 125.927 91.1676 119.827C92.2688 113.728 93.5995 107.98 94.9761 102.767C96.3526 97.5545 97.8516 92.9684 99.2128 89.1314C100.574 85.2944 101.737 82.2217 102.639 80.1274C103.052 79.1491 103.404 78.3541 103.664 77.7274C103.777 77.4408 103.915 77.1645 104.077 76.9019C104.031 77.2079 103.944 77.5063 103.817 77.7885L102.93 80.2803C102.134 82.3899 101.033 85.4931 99.7635 89.3454C98.494 93.1977 97.0868 97.7991 95.7102 102.981C94.3337 108.164 93.0489 113.896 91.917 119.965C90.7852 126.034 90.051 131.873 89.4851 137.193C88.9192 142.513 88.6133 147.313 88.4756 151.349C88.338 155.385 88.2462 158.671 88.2462 160.934C88.2462 162.004 88.2462 162.86 88.2462 163.548C88.2524 163.851 88.2216 164.154 88.1544 164.45Z" fill="#263238"/>
<path d="M91.7335 120.072C90.9379 121.153 90.0304 122.147 89.0263 123.038C87.2673 124.78 84.7742 127.135 81.9293 129.626C79.0844 132.118 76.4383 134.212 74.4652 135.741C73.4568 136.624 72.3539 137.393 71.1768 138.034C72.056 137.026 73.0347 136.109 74.0981 135.298L81.394 128.969L88.6286 122.64C89.5731 121.68 90.6135 120.82 91.7335 120.072Z" fill="#263238"/>
<path d="M113.208 137.346C112.139 136.09 111.172 134.751 110.317 133.341L103.617 123.573L96.8111 113.896C95.7904 112.611 94.8748 111.246 94.0732 109.815C95.2539 110.964 96.3289 112.218 97.2852 113.56C99.1665 115.945 101.675 119.308 104.336 123.114C106.998 126.921 109.261 130.452 110.852 133.051C111.752 134.417 112.54 135.853 113.208 137.346Z" fill="#263238"/>
<path d="M101.95 82.9861C102.073 83.1695 94.9453 87.9696 86.0282 93.6869C77.1111 99.4042 69.7694 103.914 69.6623 103.73C69.5553 103.547 76.6675 98.7316 85.5846 93.0296C94.5017 87.3276 101.828 82.8027 101.95 82.9861Z" fill="#263238"/>
<path d="M122.063 104.678C118.287 101.564 114.687 98.2418 111.28 94.7267C107.682 91.3976 104.266 87.8765 101.048 84.1787C104.832 87.2903 108.437 90.6129 111.846 94.1305C115.438 97.4619 118.848 100.983 122.063 104.678Z" fill="#263238"/>
<path d="M127.126 104.296L133.245 103.792C137.589 103.43 141.804 102.137 145.603 100C147.46 98.9131 149.386 97.948 151.369 97.1112C159.017 94.0538 167.383 94.6194 175.536 94.2067C188.876 93.5297 201.946 90.1874 213.973 84.3772C214.677 84.0576 215.261 83.5222 215.64 82.8485C216.909 80.5555 214.569 78.5223 212.581 77.2841C202.272 70.9248 191.779 64.5043 180.078 61.3399C168.378 58.1755 155.101 58.7258 145.114 65.5897C133.397 73.6458 129.13 90.2015 127.157 104.281" fill="#8547C6"/>
<path d="M215.777 82.0691C215.418 81.9471 215.074 81.783 214.753 81.58L211.846 80.0513C209.323 78.7213 205.728 76.7799 201.14 74.5785C195.808 71.962 190.255 69.8237 184.545 68.1886C177.563 66.1876 170.253 65.5952 163.039 66.4459C155.818 67.2536 148.999 70.185 143.446 74.869C139.103 78.901 135.627 83.7746 133.229 89.1928C131.088 93.7789 129.757 97.6771 128.794 100.352C128.335 101.636 127.983 102.661 127.708 103.41C127.592 103.772 127.449 104.124 127.279 104.464C127.329 104.085 127.416 103.711 127.539 103.348C127.784 102.569 128.105 101.514 128.488 100.215C129.673 96.3699 131.083 92.5978 132.709 88.9176C135.065 83.3784 138.55 78.3907 142.942 74.2728C148.591 69.4555 155.553 66.4369 162.932 65.6051C170.252 64.7424 177.671 65.3664 184.743 67.4396C190.481 69.1219 196.051 71.3274 201.385 74.0282C205.973 76.306 209.537 78.3391 212.015 79.7455L214.844 81.3965C215.181 81.582 215.495 81.8079 215.777 82.0691Z" fill="#263238"/>
<path d="M201.079 89.9569C200.956 90.1556 192.942 84.9734 183.199 78.4C173.456 71.8267 165.64 66.354 165.762 66.1705C165.885 65.9871 173.899 71.154 183.658 77.7274C193.416 84.3007 201.201 89.7734 201.079 89.9569Z" fill="#263238"/>
<path d="M192.544 65.7425C190.661 66.3884 188.691 66.7441 186.701 66.7973C184.73 67.0636 182.729 67.0327 180.767 66.7056C182.707 66.3657 184.67 66.1665 186.64 66.1093C188.596 65.841 190.57 65.7184 192.544 65.7425Z" fill="#263238"/>
<path d="M157.488 61.1719C156.823 62.6672 155.936 64.0535 154.857 65.2841C153.938 66.7001 152.814 67.9724 151.522 69.0599C152.186 67.5684 153.073 66.1869 154.153 64.963C155.08 63.5481 156.202 62.2717 157.488 61.1719Z" fill="#263238"/>
<path d="M164.661 94.6808C163.306 94.12 162.014 93.418 160.806 92.5865C158.497 91.1801 155.361 89.1317 152.027 86.701C148.692 84.2704 145.74 81.9927 143.63 80.3111C142.434 79.4664 141.318 78.5147 140.295 77.4678C141.594 78.1406 142.824 78.9394 143.966 79.8525L152.501 86.0437C155.835 88.4591 158.894 90.6298 161.112 92.1585C162.367 92.8927 163.555 93.7368 164.661 94.6808Z" fill="#263238"/>
<path d="M136.135 130.284C130.292 128.755 123.333 134.426 122.125 140.342C120.916 146.258 123.15 152.312 125.75 157.754C131.309 169.97 139.566 180.768 149.901 189.337C160.347 197.668 173.455 202.988 186.823 202.927C184.361 191.462 187.481 179.492 186.105 167.844C184.887 157.586 180.225 148.044 172.879 140.777C165.534 133.511 155.939 128.949 145.664 127.838C141.932 127.44 137.619 126.844 136.135 130.284Z" fill="#8547C6"/>
<path d="M186.824 202.881C186.532 202.793 186.254 202.664 185.998 202.499C185.226 202.053 184.494 201.542 183.81 200.97C181.372 198.856 179.407 196.252 178.044 193.327C177.111 191.508 176.071 189.551 174.985 187.38C173.899 185.209 172.951 182.794 171.85 180.44C170.713 177.889 169.426 175.408 167.995 173.01C166.411 170.471 164.632 168.058 162.672 165.795C158.68 161.102 154.382 157.036 150.666 153.168C147.293 149.778 144.222 146.1 141.489 142.177C139.664 139.52 138.16 136.657 137.007 133.647C136.64 132.561 136.365 131.721 136.227 131.14C136.123 130.849 136.062 130.546 136.043 130.238C136.12 130.238 136.456 131.43 137.298 133.524C138.52 136.46 140.058 139.254 141.886 141.856C144.648 145.696 147.717 149.305 151.063 152.648C154.795 156.485 159.124 160.521 163.162 165.275C165.141 167.572 166.936 170.02 168.53 172.598C169.982 175.024 171.275 177.541 172.4 180.134L175.459 187.09C176.438 189.26 177.463 191.248 178.35 193.052C179.632 195.97 181.489 198.601 183.81 200.787C185.722 202.254 186.869 202.805 186.824 202.881Z" fill="#263238"/>
<path d="M156.631 193.358C156.659 192.032 156.838 190.714 157.166 189.429C157.61 187.029 158.359 183.727 159.384 180.134C160.409 176.542 161.479 173.332 162.336 171.039C162.707 169.772 163.22 168.552 163.865 167.4C163.63 168.704 163.277 169.983 162.81 171.222C162.091 173.546 161.097 176.771 160.088 180.394C159.078 184.017 158.237 187.227 157.64 189.566C157.415 190.857 157.077 192.126 156.631 193.358Z" fill="#263238"/>
<path d="M185.722 165.23C184.326 165.033 182.949 164.716 181.608 164.282C179.084 163.625 175.612 162.753 171.742 161.852C167.873 160.95 164.355 160.323 161.801 159.818C160.401 159.636 159.019 159.334 157.671 158.917C159.086 158.878 160.501 158.991 161.892 159.253C164.477 159.589 168.01 160.185 171.926 161.057C175.842 161.928 179.283 162.922 181.761 163.732C183.132 164.085 184.46 164.588 185.722 165.23Z" fill="#263238"/>
<path d="M134.958 173.393C135.01 171.847 135.22 170.31 135.585 168.807C136.105 166.025 136.915 162.188 138.001 157.999C139.087 153.81 140.265 150.08 141.183 147.39C141.589 145.914 142.148 144.485 142.85 143.125C142.593 144.631 142.214 146.113 141.718 147.558C140.953 150.279 139.883 154.04 138.797 158.259C137.711 162.478 136.808 166.223 136.151 168.96C135.871 170.466 135.472 171.949 134.958 173.393Z" fill="#263238"/>
<path d="M172.324 140.709C172.324 140.923 164.998 140.342 156.035 139.395C147.072 138.447 139.822 137.484 139.837 137.27C145.285 137.435 150.722 137.874 156.126 138.584C161.558 139.02 166.964 139.729 172.324 140.709Z" fill="#263238"/>
<path d="M166.97 229.067C166.97 229.297 141.351 229.48 109.736 229.48C78.1204 229.48 52.4551 229.297 52.4551 229.067C52.4551 228.838 78.0745 228.67 109.69 228.67C141.305 228.67 166.97 228.838 166.97 229.067Z" fill="#455A64"/>
<path d="M149.151 262.026C149.151 262.256 131.883 262.439 110.592 262.439C89.3012 262.439 72.0176 262.256 72.0176 262.026C72.0176 261.797 89.2859 261.629 110.592 261.629C131.898 261.629 149.151 261.751 149.151 262.026Z" fill="#455A64"/>
<path d="M148.479 266.75C148.479 266.964 131.516 267.147 110.592 267.147C89.6686 267.147 72.6909 266.964 72.6909 266.75C72.6909 266.536 89.6533 266.337 110.577 266.337C131.501 266.337 148.479 266.52 148.479 266.75Z" fill="#455A64"/>
<path d="M149.825 258.143C149.825 258.373 131.96 258.556 109.935 258.556C87.9097 258.556 70.0449 258.373 70.0449 258.143C70.0449 257.914 87.8944 257.746 109.935 257.746C131.975 257.746 149.825 257.914 149.825 258.143Z" fill="#455A64"/>
</svg>
