<svg width="113" height="50" viewBox="0 0 113 50" fill="none" xmlns="http://www.w3.org/2000/svg">
<circle cx="25" cy="25" r="25" fill="#8547C6"/>
<circle cx="27.2473" cy="24.251" r="20.8801" fill="#7F44BA"/>
<circle cx="29.2136" cy="24.3447" r="17.0412" fill="#7941B0"/>
<circle cx="30.8987" cy="25.0937" r="13.4831" fill="#723FA4"/>
<circle cx="32.5843" cy="25.0936" r="9.92509" fill="#6B3C9A"/>
<path d="M10.5511 23.7126V27.8903C10.5511 28.0464 10.5304 28.1911 10.4891 28.3242C10.4477 28.4599 10.3818 28.5776 10.2913 28.6775C10.2008 28.7773 10.0845 28.8554 9.94231 28.9117C9.80271 28.9706 9.63467 29 9.43819 29C9.35547 29 9.2792 28.9936 9.2094 28.9808C9.1396 28.968 9.0698 28.9488 9 28.9232L9.02714 28.5546C9.03232 28.5315 9.04136 28.5136 9.05429 28.5008C9.06463 28.4906 9.08014 28.4842 9.10082 28.4816C9.1215 28.4791 9.14865 28.4778 9.18226 28.4778C9.21328 28.4803 9.25335 28.4816 9.30247 28.4816C9.50411 28.4816 9.64759 28.4343 9.7329 28.3396C9.81822 28.2474 9.86087 28.0976 9.86087 27.8903V23.7126H10.5511ZM10.6946 22.4915C10.6946 22.5581 10.6804 22.6208 10.6519 22.6796C10.6261 22.736 10.5899 22.7872 10.5434 22.8332C10.4994 22.8768 10.4477 22.9113 10.3883 22.9369C10.3288 22.9625 10.2655 22.9753 10.1982 22.9753C10.131 22.9753 10.0677 22.9625 10.0082 22.9369C9.95135 22.9113 9.90094 22.8768 9.85699 22.8332C9.81305 22.7872 9.77815 22.736 9.75229 22.6796C9.72644 22.6208 9.71352 22.5581 9.71352 22.4915C9.71352 22.4249 9.72644 22.3622 9.75229 22.3033C9.77815 22.2419 9.81305 22.1894 9.85699 22.1459C9.90094 22.0998 9.95135 22.064 10.0082 22.0384C10.0677 22.0128 10.131 22 10.1982 22C10.2655 22 10.3288 22.0128 10.3883 22.0384C10.4477 22.064 10.4994 22.0998 10.5434 22.1459C10.5899 22.1894 10.6261 22.2419 10.6519 22.3033C10.6804 22.3622 10.6946 22.4249 10.6946 22.4915Z" fill="white"/>
<path d="M14.3144 25.2331C14.3144 25.0744 14.2911 24.9298 14.2446 24.7992C14.2007 24.6661 14.1347 24.5522 14.0468 24.4575C13.9615 24.3602 13.8568 24.286 13.7327 24.2348C13.6086 24.181 13.4678 24.1541 13.3101 24.1541C12.9792 24.1541 12.7168 24.2501 12.5229 24.4421C12.3316 24.6316 12.2126 24.8952 12.1661 25.2331H14.3144ZM14.8728 27.057C14.7875 27.1594 14.6854 27.249 14.5665 27.3258C14.4475 27.4001 14.3196 27.4615 14.1826 27.5101C14.0481 27.5588 13.9085 27.5946 13.7638 27.6177C13.619 27.6433 13.4755 27.6561 13.3333 27.6561C13.0619 27.6561 12.8111 27.6113 12.581 27.5217C12.3535 27.4295 12.1558 27.2964 11.9877 27.1223C11.8223 26.9457 11.693 26.7281 11.5999 26.4696C11.5069 26.211 11.4603 25.9141 11.4603 25.5787C11.4603 25.3074 11.5017 25.0539 11.5844 24.8184C11.6697 24.5829 11.7913 24.3794 11.9489 24.2079C12.1066 24.0338 12.2992 23.8982 12.5267 23.8009C12.7542 23.701 13.0102 23.6511 13.2945 23.6511C13.5298 23.6511 13.747 23.6908 13.946 23.7702C14.1477 23.847 14.3209 23.9596 14.4656 24.1081C14.613 24.254 14.728 24.4357 14.8108 24.6533C14.8935 24.8683 14.9349 25.1141 14.9349 25.3906C14.9349 25.4981 14.9232 25.5698 14.9 25.6056C14.8767 25.6414 14.8327 25.6594 14.7681 25.6594H12.1428C12.1506 25.9051 12.1842 26.1189 12.2437 26.3006C12.3057 26.4824 12.391 26.6347 12.4996 26.7575C12.6082 26.8779 12.7374 26.9687 12.8874 27.0302C13.0373 27.089 13.2054 27.1185 13.3915 27.1185C13.5647 27.1185 13.7133 27.0993 13.8374 27.0609C13.9641 27.0199 14.0727 26.9764 14.1632 26.9303C14.2537 26.8843 14.3286 26.842 14.3881 26.8036C14.4501 26.7627 14.5031 26.7422 14.5471 26.7422C14.6039 26.7422 14.6479 26.7639 14.6789 26.8075L14.8728 27.057Z" fill="white"/>
<path d="M16.4342 24.277C16.5195 24.1823 16.61 24.0965 16.7056 24.0197C16.8013 23.943 16.9021 23.8777 17.0081 23.8239C17.1167 23.7676 17.2304 23.7254 17.3493 23.6972C17.4708 23.6665 17.6014 23.6511 17.741 23.6511C17.9556 23.6511 18.1443 23.687 18.3072 23.7586C18.4726 23.8278 18.6096 23.9276 18.7182 24.0581C18.8294 24.1861 18.9134 24.341 18.9703 24.5228C19.0271 24.7045 19.0556 24.9055 19.0556 25.1256V27.6023H18.3614V25.1256C18.3614 24.8312 18.2929 24.6034 18.1559 24.4421C18.0215 24.2783 17.816 24.1964 17.5393 24.1964C17.3351 24.1964 17.1438 24.245 16.9654 24.3423C16.7896 24.4396 16.6268 24.5714 16.4768 24.7378V27.6023H15.7827V23.7126H16.1976C16.2959 23.7126 16.3566 23.7599 16.3799 23.8546L16.4342 24.277Z" fill="white"/>
<path d="M20.7588 24.277C20.8441 24.1823 20.9346 24.0965 21.0303 24.0197C21.1259 23.943 21.2268 23.8777 21.3327 23.8239C21.4413 23.7676 21.5551 23.7254 21.674 23.6972C21.7955 23.6665 21.926 23.6511 22.0656 23.6511C22.2802 23.6511 22.4689 23.687 22.6318 23.7586C22.7973 23.8278 22.9343 23.9276 23.0429 24.0581C23.154 24.1861 23.238 24.341 23.2949 24.5228C23.3518 24.7045 23.3802 24.9055 23.3802 25.1256V27.6023H22.6861V25.1256C22.6861 24.8312 22.6176 24.6034 22.4806 24.4421C22.3461 24.2783 22.1406 24.1964 21.864 24.1964C21.6598 24.1964 21.4685 24.245 21.2901 24.3423C21.1143 24.4396 20.9514 24.5714 20.8015 24.7378V27.6023H20.1074V23.7126H20.5223C20.6205 23.7126 20.6813 23.7599 20.7045 23.8546L20.7588 24.277Z" fill="white"/>
<path d="M27.7228 23.7126L25.5318 28.7504C25.5085 28.8016 25.4788 28.8426 25.4426 28.8733C25.409 28.904 25.356 28.9194 25.2836 28.9194H24.7717L25.4891 27.3758L23.8682 23.7126H24.4654C24.5249 23.7126 24.5714 23.7279 24.605 23.7586C24.6412 23.7868 24.6658 23.8188 24.6787 23.8546L25.7296 26.3044C25.7709 26.412 25.8058 26.5246 25.8343 26.6423C25.8705 26.522 25.9092 26.4081 25.9506 26.3006L26.9705 23.8546C26.986 23.8137 27.0118 23.7804 27.048 23.7548C27.0868 23.7266 27.1295 23.7126 27.176 23.7126H27.7228Z" fill="white"/>
<path d="M30.3857 25.8513C30.0677 25.8616 29.7963 25.8872 29.5714 25.9281C29.3491 25.9665 29.1668 26.0177 29.0246 26.0817C28.885 26.1457 28.7829 26.2212 28.7183 26.3083C28.6562 26.3953 28.6252 26.4926 28.6252 26.6001C28.6252 26.7025 28.642 26.7908 28.6756 26.8651C28.7092 26.9393 28.7545 27.0007 28.8113 27.0494C28.8708 27.0954 28.9393 27.13 29.0169 27.153C29.097 27.1735 29.1823 27.1838 29.2728 27.1838C29.3943 27.1838 29.5055 27.1722 29.6063 27.1492C29.7071 27.1236 29.8015 27.0878 29.8894 27.0417C29.9798 26.9956 30.0652 26.9406 30.1453 26.8766C30.228 26.8126 30.3082 26.7396 30.3857 26.6577V25.8513ZM28.156 24.2617C28.3731 24.0543 28.6071 23.8994 28.8579 23.797C29.1086 23.6946 29.3865 23.6434 29.6916 23.6434C29.9113 23.6434 30.1065 23.6793 30.2771 23.751C30.4478 23.8226 30.5912 23.9225 30.7076 24.0505C30.8239 24.1785 30.9118 24.3333 30.9713 24.5151C31.0307 24.6968 31.0605 24.8965 31.0605 25.1141V27.6023H30.7541C30.6869 27.6023 30.6352 27.5921 30.599 27.5716C30.5628 27.5485 30.5344 27.505 30.5137 27.441L30.4361 27.0724C30.3327 27.1671 30.2319 27.2516 30.1337 27.3258C30.0354 27.3975 29.932 27.459 29.8234 27.5101C29.7149 27.5588 29.5985 27.5959 29.4744 27.6215C29.3529 27.6497 29.2172 27.6637 29.0673 27.6637C28.9147 27.6637 28.7713 27.6433 28.6368 27.6023C28.5024 27.5588 28.3848 27.4948 28.2839 27.4103C28.1857 27.3258 28.1069 27.2196 28.0474 27.0916C27.9905 26.9611 27.9621 26.8075 27.9621 26.6308C27.9621 26.4772 28.0047 26.33 28.0901 26.1892C28.1754 26.0459 28.3137 25.9192 28.505 25.8091C28.6963 25.699 28.9458 25.6094 29.2534 25.5403C29.561 25.4686 29.9385 25.4277 30.3857 25.4174V25.1141C30.3857 24.812 30.3198 24.5842 30.1879 24.4306C30.0561 24.2745 29.8635 24.1964 29.6102 24.1964C29.4395 24.1964 29.2961 24.2181 29.1797 24.2617C29.066 24.3026 28.9664 24.35 28.8811 24.4037C28.7984 24.4549 28.726 24.5023 28.664 24.5458C28.6045 24.5868 28.5451 24.6072 28.4856 24.6072C28.4391 24.6072 28.399 24.5957 28.3654 24.5727C28.3318 24.5471 28.3033 24.5164 28.2801 24.4805L28.156 24.2617Z" fill="white"/>
<path d="M31.9956 27.1799C31.9956 27.1134 32.0072 27.0506 32.0305 26.9918C32.0563 26.9329 32.0899 26.8817 32.1313 26.8382C32.1752 26.7947 32.2269 26.7601 32.2864 26.7345C32.3458 26.7089 32.4092 26.6961 32.4764 26.6961C32.5436 26.6961 32.607 26.7089 32.6664 26.7345C32.7259 26.7601 32.7776 26.7947 32.8215 26.8382C32.8655 26.8817 32.9004 26.9329 32.9262 26.9918C32.9521 27.0506 32.965 27.1134 32.965 27.1799C32.965 27.249 32.9521 27.313 32.9262 27.3719C32.9004 27.4282 32.8655 27.4781 32.8215 27.5217C32.7776 27.5652 32.7259 27.5985 32.6664 27.6215C32.607 27.6471 32.5436 27.6599 32.4764 27.6599C32.4092 27.6599 32.3458 27.6471 32.2864 27.6215C32.2269 27.5985 32.1752 27.5652 32.1313 27.5217C32.0899 27.4781 32.0563 27.4282 32.0305 27.3719C32.0072 27.313 31.9956 27.249 31.9956 27.1799Z" fill="white"/>
<path d="M34.6001 24.492C34.7242 24.2258 34.8767 24.0185 35.0577 23.87C35.2386 23.719 35.4597 23.6434 35.7208 23.6434C35.8035 23.6434 35.8824 23.6524 35.9573 23.6703C36.0349 23.6882 36.1034 23.7164 36.1629 23.7548L36.1124 24.2655C36.0969 24.3295 36.0582 24.3615 35.9961 24.3615C35.9599 24.3615 35.9069 24.3538 35.8371 24.3385C35.7673 24.3231 35.6885 24.3154 35.6006 24.3154C35.4765 24.3154 35.3653 24.3333 35.2671 24.3692C35.1714 24.405 35.0848 24.4588 35.0073 24.5304C34.9323 24.5996 34.8638 24.6866 34.8017 24.7916C34.7423 24.8939 34.688 25.0117 34.6389 25.1448V27.6023H33.9448V23.7126H34.3403C34.4153 23.7126 34.467 23.7266 34.4954 23.7548C34.5238 23.783 34.5432 23.8316 34.5536 23.9007L34.6001 24.492Z" fill="white"/>
<path d="M40 23.7126V27.6023H39.589C39.4907 27.6023 39.4287 27.5549 39.4028 27.4602L39.3485 27.0417C39.1779 27.2286 38.9866 27.3796 38.7746 27.4948C38.5626 27.6074 38.3196 27.6637 38.0456 27.6637C37.831 27.6637 37.641 27.6292 37.4756 27.5601C37.3127 27.4884 37.1757 27.3886 37.0645 27.2606C36.9533 27.1326 36.8693 26.9777 36.8124 26.7959C36.7582 26.6142 36.731 26.4132 36.731 26.1931V23.7126H37.4213V26.1931C37.4213 26.4875 37.4885 26.7153 37.6229 26.8766C37.7599 27.0378 37.968 27.1185 38.2472 27.1185C38.4515 27.1185 38.6415 27.0711 38.8173 26.9764C38.9957 26.8791 39.1598 26.746 39.3098 26.5771V23.7126H40Z" fill="white"/>
<path d="M66.3632 21.9988L66.3553 23.3377H59.3469V12.2244H66.3553V13.5633H61.0321V17.0846H65.3158V18.377H61.0321V21.9988H66.3632Z" fill="white"/>
<path d="M74.6888 15.4748V23.3377H73.7674C73.5574 23.3377 73.421 23.2371 73.358 23.0359L73.2477 22.2465C73.0745 22.4271 72.8934 22.5922 72.7044 22.7418C72.5154 22.8914 72.3133 23.0204 72.098 23.1287C71.8828 23.2319 71.6544 23.3119 71.4129 23.3687C71.1715 23.4306 70.9116 23.4615 70.6334 23.4615C70.1924 23.4615 69.8039 23.3893 69.4679 23.2448C69.1372 23.1004 68.859 22.8992 68.6332 22.6412C68.4075 22.3781 68.2369 22.0633 68.1214 21.697C68.0059 21.3307 67.9481 20.9257 67.9481 20.482V15.4748H69.4916V20.482C69.4916 21.0444 69.6228 21.4829 69.8853 21.7976C70.1478 22.1072 70.5494 22.262 71.0901 22.262C71.4838 22.262 71.8513 22.1717 72.1925 21.9911C72.5338 21.8054 72.854 21.5526 73.1532 21.2327V15.4748H74.6888Z" fill="white"/>
<path d="M79.8795 19.414C80.1525 19.414 80.3914 19.3779 80.5961 19.3057C80.8061 19.2334 80.9794 19.1328 81.1158 19.0038C81.2576 18.8697 81.3626 18.7098 81.4308 18.524C81.5043 18.3383 81.5411 18.1345 81.5411 17.9126C81.5411 17.4586 81.3993 17.0974 81.1158 16.8292C80.8376 16.5557 80.4255 16.419 79.8795 16.419C79.3388 16.419 78.9267 16.5557 78.6432 16.8292C78.365 17.0974 78.2259 17.4586 78.2259 17.9126C78.2259 18.1345 78.26 18.3383 78.3283 18.524C78.4018 18.7046 78.5068 18.862 78.6432 18.9961C78.785 19.1251 78.9582 19.2283 79.163 19.3057C79.373 19.3779 79.6118 19.414 79.8795 19.414ZM82.3285 23.7479C82.3285 23.5621 82.276 23.4151 82.171 23.3067C82.066 23.1932 81.9217 23.1055 81.7379 23.0436C81.5594 22.9765 81.3495 22.9301 81.108 22.9043C80.8665 22.8734 80.6119 22.8501 80.3441 22.8347C80.0817 22.8192 79.8113 22.8063 79.5331 22.796C79.2548 22.7805 78.9871 22.7547 78.7299 22.7186C78.4569 22.8527 78.2311 23.0152 78.0527 23.2061C77.8794 23.397 77.7928 23.6215 77.7928 23.8794C77.7928 24.0445 77.8348 24.1993 77.9188 24.3438C78.008 24.4882 78.1419 24.6121 78.3204 24.7152C78.5041 24.8236 78.7325 24.9061 79.0055 24.9629C79.2837 25.0248 79.6144 25.0558 79.9977 25.0558C80.3756 25.0558 80.709 25.0222 80.9977 24.9552C81.2865 24.8932 81.528 24.803 81.7222 24.6843C81.9217 24.5708 82.0713 24.4341 82.171 24.2741C82.276 24.1142 82.3285 23.9388 82.3285 23.7479ZM83.8877 15.7689V16.3339C83.8877 16.5196 83.7696 16.6357 83.5333 16.6821L82.675 16.8059C82.7485 16.9659 82.8062 17.1361 82.8482 17.3167C82.8902 17.4921 82.9112 17.6779 82.9112 17.8739C82.9112 18.2609 82.8351 18.6117 82.6829 18.9264C82.5306 19.236 82.3207 19.5017 82.0529 19.7236C81.7852 19.9454 81.465 20.1157 81.0922 20.2343C80.7247 20.353 80.3205 20.4123 79.8795 20.4123C79.5173 20.4123 79.1787 20.3736 78.8637 20.2963C78.7062 20.3891 78.5855 20.4923 78.5015 20.6058C78.4228 20.7142 78.3834 20.8225 78.3834 20.9309C78.3834 21.1114 78.4595 21.2456 78.6117 21.3333C78.7692 21.421 78.9713 21.4855 79.2181 21.5268C79.4701 21.5629 79.7562 21.5861 80.0764 21.5964C80.4019 21.6067 80.73 21.6248 81.0607 21.6506C81.3967 21.6712 81.7248 21.7125 82.045 21.7744C82.3705 21.8312 82.6566 21.9266 82.9034 22.0608C83.1554 22.1897 83.3575 22.3703 83.5097 22.6025C83.6672 22.8295 83.7459 23.1262 83.7459 23.4925C83.7459 23.833 83.6593 24.1632 83.4861 24.4831C83.3181 24.803 83.0714 25.0867 82.7459 25.3344C82.4204 25.582 82.024 25.7807 81.5568 25.9303C81.0896 26.0799 80.5594 26.1547 79.9662 26.1547C79.373 26.1547 78.8559 26.098 78.4149 25.9845C77.9792 25.8709 77.6143 25.7187 77.3203 25.5278C77.0316 25.337 76.8137 25.1151 76.6667 24.8623C76.525 24.6095 76.4541 24.3464 76.4541 24.0729C76.4541 23.6911 76.5749 23.3687 76.8164 23.1055C77.0578 22.8372 77.3912 22.6283 77.8164 22.4787C77.5854 22.3755 77.4017 22.2362 77.2652 22.0608C77.1287 21.8802 77.0605 21.6428 77.0605 21.3488C77.0605 21.2353 77.0815 21.1192 77.1235 21.0005C77.1655 20.8767 77.2285 20.7554 77.3124 20.6368C77.4017 20.5129 77.5093 20.3969 77.6353 20.2885C77.7665 20.1802 77.9162 20.0821 78.0842 19.9944C77.6904 19.7777 77.3807 19.4914 77.155 19.1354C76.9292 18.7742 76.8164 18.3538 76.8164 17.8739C76.8164 17.487 76.8925 17.1387 77.0447 16.8292C77.197 16.5196 77.4069 16.2539 77.6747 16.032C77.9477 15.8102 78.2705 15.6399 78.6432 15.5213C79.0212 15.4026 79.4333 15.3433 79.8795 15.3433C80.5725 15.3433 81.1683 15.4851 81.6671 15.7689H83.8877Z" fill="white"/>
<path d="M90.7094 18.5318C90.7094 18.2325 90.6647 17.9565 90.5755 17.7037C90.4915 17.4509 90.3655 17.2316 90.1975 17.0459C90.0295 16.8601 89.8248 16.7157 89.5833 16.6125C89.3418 16.5093 89.0636 16.4577 88.7486 16.4577C88.1029 16.4577 87.5937 16.6408 87.2209 17.0072C86.8535 17.3735 86.6199 17.8817 86.5201 18.5318H90.7094ZM91.9772 22.2155C91.7882 22.4322 91.5703 22.6205 91.3236 22.7805C91.0768 22.9353 90.8144 23.0617 90.5361 23.1597C90.2579 23.2577 89.9692 23.33 89.6699 23.3764C89.3759 23.4228 89.0846 23.446 88.7959 23.446C88.2446 23.446 87.7328 23.3558 87.2603 23.1752C86.7931 22.9894 86.3862 22.7212 86.0398 22.3703C85.6985 22.0143 85.4308 21.5758 85.2366 21.0547C85.0476 20.5284 84.9531 19.9248 84.9531 19.2437C84.9531 18.6969 85.0397 18.1887 85.2129 17.7192C85.3862 17.2445 85.6329 16.8317 85.9531 16.4809C86.2786 16.1301 86.675 15.854 87.1422 15.6528C87.6094 15.4516 88.1344 15.351 88.7171 15.351C89.2053 15.351 89.6542 15.431 90.0637 15.5909C90.4784 15.7457 90.8354 15.9727 91.1346 16.272C91.4338 16.5712 91.6674 16.9401 91.8354 17.3786C92.0087 17.8172 92.0953 18.3176 92.0953 18.88C92.0953 19.1122 92.069 19.2695 92.0165 19.3521C91.964 19.4295 91.8669 19.4682 91.7252 19.4682H86.4807C86.4965 19.9377 86.5647 20.3478 86.6855 20.6987C86.8062 21.0444 86.9716 21.3333 87.1816 21.5655C87.3968 21.7976 87.6514 21.9705 87.9454 22.084C88.2394 22.1975 88.5675 22.2542 88.9297 22.2542C89.271 22.2542 89.5649 22.2155 89.8117 22.1381C90.0637 22.0608 90.2789 21.9782 90.4574 21.8905C90.6411 21.7976 90.7934 21.7125 90.9141 21.6351C91.0401 21.5577 91.1503 21.519 91.2448 21.519C91.3708 21.519 91.4679 21.5655 91.5362 21.6583L91.9772 22.2155Z" fill="white"/>
<path d="M95.423 16.566C95.5963 16.3855 95.7774 16.2204 95.9664 16.0707C96.1553 15.9211 96.3548 15.7947 96.5648 15.6915C96.7801 15.5832 97.0084 15.5006 97.2499 15.4439C97.4966 15.382 97.7591 15.351 98.0374 15.351C98.4783 15.351 98.8642 15.4232 99.1949 15.5677C99.5309 15.7122 99.8118 15.916 100.037 16.1791C100.263 16.4371 100.434 16.7492 100.549 17.1155C100.665 17.4818 100.723 17.8868 100.723 18.3305V23.3377H99.1792V18.3305C99.1792 17.7682 99.0479 17.3322 98.7854 17.0226C98.523 16.7079 98.1214 16.5506 97.5806 16.5506C97.1869 16.5506 96.8168 16.6434 96.4703 16.8292C96.1291 17.0097 95.8115 17.2574 95.5175 17.5721V23.3377H93.982V15.4748H94.9033C95.1185 15.4748 95.2524 15.5754 95.3049 15.7767L95.423 16.566Z" fill="white"/>
<path d="M104.637 15.4748V23.3377H103.102V15.4748H104.637ZM104.929 13.0448C104.929 13.1841 104.9 13.3182 104.842 13.4472C104.784 13.571 104.706 13.682 104.606 13.78C104.511 13.8728 104.398 13.9477 104.267 14.0044C104.136 14.056 103.999 14.0818 103.858 14.0818C103.716 14.0818 103.582 14.056 103.456 14.0044C103.33 13.9477 103.217 13.8728 103.118 13.78C103.023 13.682 102.947 13.571 102.889 13.4472C102.837 13.3182 102.81 13.1841 102.81 13.0448C102.81 12.9003 102.837 12.7662 102.889 12.6423C102.947 12.5134 103.023 12.4024 103.118 12.3096C103.217 12.2115 103.33 12.1367 103.456 12.0851C103.582 12.0284 103.716 12 103.858 12C103.999 12 104.136 12.0284 104.267 12.0851C104.398 12.1367 104.511 12.2115 104.606 12.3096C104.706 12.4024 104.784 12.5134 104.842 12.6423C104.9 12.7662 104.929 12.9003 104.929 13.0448Z" fill="white"/>
<path d="M111.396 19.8474C110.772 19.868 110.241 19.917 109.806 19.9944C109.37 20.0667 109.016 20.1647 108.743 20.2885C108.47 20.4123 108.273 20.5594 108.152 20.7296C108.031 20.8947 107.971 21.0805 107.971 21.2869C107.971 21.4829 108.002 21.6532 108.065 21.7976C108.134 21.9369 108.223 22.053 108.333 22.1459C108.449 22.2336 108.582 22.2981 108.735 22.3394C108.887 22.3806 109.052 22.4013 109.231 22.4013C109.467 22.4013 109.682 22.3781 109.876 22.3316C110.076 22.2852 110.262 22.2207 110.436 22.1381C110.609 22.0504 110.774 21.9447 110.932 21.8208C111.089 21.697 111.244 21.5551 111.396 21.3952V19.8474ZM106.892 16.5738C107.338 16.1559 107.821 15.8437 108.341 15.6374C108.866 15.431 109.441 15.3278 110.065 15.3278C110.522 15.3278 110.926 15.4026 111.278 15.5522C111.63 15.6967 111.926 15.9005 112.168 16.1636C112.409 16.4267 112.591 16.7415 112.711 17.1078C112.837 17.4741 112.9 17.8791 112.9 18.3228V23.3377H112.215C112.063 23.3377 111.947 23.3145 111.869 23.268C111.79 23.2165 111.727 23.1236 111.68 22.9894L111.514 22.3007C111.31 22.4864 111.108 22.6515 110.908 22.796C110.709 22.9353 110.499 23.0565 110.278 23.1597C110.063 23.2577 109.832 23.3325 109.585 23.3841C109.338 23.4357 109.065 23.4615 108.766 23.4615C108.451 23.4615 108.155 23.4202 107.876 23.3377C107.603 23.25 107.365 23.1184 107.16 22.943C106.955 22.7676 106.792 22.5483 106.672 22.2852C106.556 22.0221 106.498 21.7151 106.498 21.3642C106.498 21.0547 106.582 20.758 106.75 20.4743C106.924 20.1853 107.202 19.9274 107.585 19.7003C107.973 19.4733 108.477 19.2876 109.097 19.1431C109.722 18.9987 110.488 18.9161 111.396 18.8955V18.3228C111.396 17.7295 111.268 17.2858 111.01 16.9917C110.753 16.6976 110.375 16.5506 109.876 16.5506C109.54 16.5506 109.257 16.5918 109.026 16.6744C108.8 16.7569 108.603 16.8498 108.435 16.953C108.273 17.051 108.128 17.1413 108.002 17.2239C107.882 17.3064 107.756 17.3477 107.624 17.3477C107.519 17.3477 107.427 17.3193 107.349 17.2625C107.275 17.2058 107.215 17.1387 107.168 17.0613L106.892 16.5738Z" fill="white"/>
<path d="M62.7696 34.4551V37.9053H62.1554V34.4551L59 29.5312H59.542C59.5982 29.5312 59.6443 29.545 59.6805 29.5726C59.7166 29.5963 59.7467 29.6318 59.7708 29.6792L62.2096 33.5259C62.2618 33.6167 62.3099 33.7054 62.3541 33.7922C62.3982 33.8751 62.4364 33.9579 62.4685 34.0408C62.5006 33.9579 62.5367 33.8751 62.5769 33.7922C62.617 33.7054 62.6632 33.6167 62.7154 33.5259L65.1542 29.6792C65.1743 29.6358 65.2024 29.6003 65.2385 29.5726C65.2786 29.545 65.3268 29.5312 65.383 29.5312H65.925L62.7696 34.4551Z" fill="white"/>
<path d="M69.0783 35.0587C68.5082 35.0784 68.0164 35.1238 67.6029 35.1948C67.1935 35.2619 66.8542 35.3546 66.5853 35.473C66.3203 35.5913 66.1236 35.7334 65.9951 35.8991C65.8667 36.0608 65.8025 36.2463 65.8025 36.4554C65.8025 36.6526 65.8346 36.8243 65.8988 36.9703C65.967 37.1123 66.0554 37.2306 66.1638 37.3253C66.2762 37.4161 66.4046 37.4832 66.5491 37.5266C66.6937 37.57 66.8442 37.5917 67.0008 37.5917C67.2336 37.5917 67.4464 37.568 67.6391 37.5206C67.8358 37.4693 68.0164 37.4003 68.181 37.3135C68.3496 37.2228 68.5062 37.1162 68.6507 36.9939C68.7952 36.8716 68.9378 36.7394 69.0783 36.5974V35.0587ZM65.5556 32.8513C65.8687 32.5435 66.1979 32.3107 66.5431 32.1529C66.8884 31.9951 67.2798 31.9162 67.7174 31.9162C68.0385 31.9162 68.3195 31.9675 68.5604 32.0701C68.8013 32.1687 69 32.3127 69.1565 32.5021C69.3171 32.6875 69.4376 32.9144 69.5178 33.1827C69.5981 33.447 69.6383 33.7429 69.6383 34.0704V37.9053H69.4095C69.289 37.9053 69.2148 37.8501 69.1867 37.7396L69.1023 36.9821C68.9378 37.1399 68.7732 37.2819 68.6086 37.4082C68.448 37.5344 68.2794 37.641 68.1027 37.7278C67.9261 37.8146 67.7354 37.8816 67.5307 37.929C67.3259 37.9763 67.1011 38 66.8563 38C66.6515 38 66.4528 37.9704 66.2601 37.9112C66.0674 37.852 65.8948 37.7613 65.7422 37.639C65.5937 37.5167 65.4733 37.3608 65.3809 37.1715C65.2926 36.9781 65.2485 36.7473 65.2485 36.479C65.2485 36.2305 65.3207 35.9997 65.4652 35.7866C65.6098 35.5736 65.8366 35.3881 66.1457 35.2303C66.4548 35.0725 66.8502 34.9463 67.332 34.8516C67.8177 34.7569 68.3998 34.7017 69.0783 34.6859V34.0704C69.0783 33.5259 68.9578 33.1077 68.717 32.8158C68.4801 32.5198 68.1268 32.3719 67.6571 32.3719C67.3681 32.3719 67.1212 32.4113 66.9165 32.4903C66.7157 32.5692 66.5451 32.656 66.4046 32.7507C66.2641 32.8453 66.1497 32.9321 66.0614 33.011C65.9731 33.09 65.8988 33.1294 65.8386 33.1294C65.7944 33.1294 65.7583 33.1195 65.7302 33.0998C65.7021 33.0801 65.678 33.0544 65.6579 33.0229L65.5556 32.8513Z" fill="white"/>
<path d="M72.1358 29.2945V34.5438H72.4128C72.469 34.5438 72.5212 34.5359 72.5693 34.5202C72.6215 34.5044 72.6777 34.4669 72.738 34.4077L75.1406 32.1648C75.1808 32.1174 75.2249 32.0819 75.2731 32.0582C75.3213 32.0306 75.3815 32.0168 75.4537 32.0168H75.9596L73.316 34.4847C73.2438 34.5675 73.1655 34.6326 73.0812 34.68C73.1454 34.7115 73.1996 34.749 73.2438 34.7924C73.2919 34.8318 73.3381 34.8792 73.3823 34.9344L76.1583 37.9053H75.6585C75.6023 37.9053 75.5501 37.8974 75.5019 37.8816C75.4578 37.8619 75.4156 37.8244 75.3755 37.7692L72.8584 35.1179C72.8263 35.0824 72.7942 35.0528 72.762 35.0291C72.7339 35.0054 72.7038 34.9877 72.6717 34.9759C72.6396 34.9601 72.6015 34.9502 72.5573 34.9463C72.5172 34.9384 72.467 34.9344 72.4068 34.9344H72.1358V37.9053H71.5577V29.2945H72.1358Z" fill="white"/>
<path d="M77.9237 32.0168V37.9053H77.3516V32.0168H77.9237ZM78.1706 29.9869C78.1706 30.0579 78.1545 30.125 78.1224 30.1881C78.0943 30.2473 78.0562 30.3006 78.008 30.3479C77.9598 30.3953 77.9036 30.4327 77.8394 30.4604C77.7751 30.488 77.7069 30.5018 77.6346 30.5018C77.5624 30.5018 77.4941 30.488 77.4299 30.4604C77.3657 30.4327 77.3095 30.3953 77.2613 30.3479C77.2131 30.3006 77.175 30.2473 77.1469 30.1881C77.1188 30.125 77.1047 30.0579 77.1047 29.9869C77.1047 29.9159 77.1188 29.8488 77.1469 29.7857C77.175 29.7186 77.2131 29.6614 77.2613 29.6141C77.3095 29.5667 77.3657 29.5292 77.4299 29.5016C77.4941 29.474 77.5624 29.4602 77.6346 29.4602C77.7069 29.4602 77.7751 29.474 77.8394 29.5016C77.9036 29.5292 77.9598 29.5667 78.008 29.6141C78.0562 29.6614 78.0943 29.7186 78.1224 29.7857C78.1545 29.8488 78.1706 29.9159 78.1706 29.9869Z" fill="white"/>
<path d="M79.9669 37.9053V32.0168H80.2861C80.3864 32.0168 80.4446 32.0661 80.4607 32.1648L80.5149 33.017C80.7477 32.6895 81.0147 32.4252 81.3158 32.2239C81.6169 32.0227 81.9561 31.9221 82.3334 31.9221C82.771 31.9221 83.1203 32.0464 83.3812 32.295C83.6462 32.5435 83.8248 32.8887 83.9171 33.3306C83.9894 33.09 84.0898 32.8808 84.2182 32.7033C84.3507 32.5258 84.5013 32.3798 84.6699 32.2654C84.8385 32.147 85.0211 32.0602 85.2178 32.005C85.4186 31.9497 85.6233 31.9221 85.8321 31.9221C86.1291 31.9221 86.3961 31.9714 86.6329 32.0701C86.8698 32.1648 87.0705 32.3068 87.2351 32.4962C87.3997 32.6856 87.5262 32.9183 87.6145 33.1945C87.7028 33.4707 87.747 33.7863 87.747 34.1414V37.9053H87.1749V34.1414C87.1749 33.5654 87.0484 33.1274 86.7955 32.8276C86.5426 32.5238 86.1813 32.3719 85.7116 32.3719C85.5029 32.3719 85.3021 32.4094 85.1094 32.4843C84.9208 32.5593 84.7522 32.6717 84.6036 32.8217C84.4591 32.9676 84.3427 33.1511 84.2544 33.3721C84.1701 33.593 84.1279 33.8494 84.1279 34.1414V37.9053H83.5498V34.1414C83.5498 33.5693 83.4334 33.1314 83.2006 32.8276C82.9717 32.5238 82.6345 32.3719 82.1889 32.3719C81.8637 32.3719 81.5627 32.4666 81.2857 32.656C81.0087 32.8453 80.7618 33.1077 80.545 33.4431V37.9053H79.9669Z" fill="white"/>
<path d="M93.8612 34.3663C93.8612 34.0507 93.8151 33.7686 93.7227 33.52C93.6344 33.2675 93.508 33.0544 93.3434 32.8808C93.1788 32.7073 92.9821 32.5751 92.7532 32.4843C92.5284 32.3896 92.2795 32.3423 92.0066 32.3423C91.6974 32.3423 91.4204 32.3896 91.1756 32.4843C90.9307 32.579 90.7179 32.7151 90.5373 32.8927C90.3606 33.0702 90.2181 33.2833 90.1097 33.5318C90.0013 33.7804 89.9291 34.0586 89.8929 34.3663H93.8612ZM89.8628 34.7273V34.8397C89.8628 35.2816 89.915 35.6702 90.0194 36.0056C90.1238 36.341 90.2723 36.6231 90.465 36.8519C90.6577 37.0768 90.8905 37.2464 91.1635 37.3608C91.4365 37.4753 91.7416 37.5325 92.0788 37.5325C92.3799 37.5325 92.6408 37.5009 92.8616 37.4378C93.0824 37.3707 93.2671 37.2977 93.4156 37.2188C93.5682 37.136 93.6886 37.063 93.7769 36.9998C93.8653 36.9328 93.9295 36.8992 93.9696 36.8992C94.0218 36.8992 94.062 36.919 94.0901 36.9584L94.2466 37.1478C94.1503 37.2662 94.0218 37.3766 93.8612 37.4792C93.7047 37.5818 93.528 37.6706 93.3313 37.7455C93.1386 37.8165 92.9299 37.8737 92.7051 37.9171C92.4843 37.9605 92.2615 37.9822 92.0367 37.9822C91.6272 37.9822 91.2538 37.9132 90.9166 37.7751C90.5794 37.6331 90.2904 37.4279 90.0495 37.1596C89.8086 36.8913 89.622 36.5639 89.4895 36.1772C89.361 35.7866 89.2968 35.3408 89.2968 34.8397C89.2968 34.4176 89.357 34.029 89.4774 33.6739C89.6019 33.3148 89.7785 33.0071 90.0073 32.7507C90.2402 32.4903 90.5232 32.2871 90.8564 32.1411C91.1936 31.9951 91.575 31.9221 92.0005 31.9221C92.3377 31.9221 92.6509 31.9793 92.9399 32.0937C93.229 32.2082 93.4799 32.3758 93.6926 32.5968C93.9054 32.8138 94.072 33.0821 94.1924 33.4016C94.3169 33.7212 94.3791 34.0881 94.3791 34.5024C94.3791 34.5892 94.3671 34.6484 94.343 34.68C94.3189 34.7115 94.2787 34.7273 94.2225 34.7273H89.8628Z" fill="white"/>
<path d="M96.4865 33.0466C96.7635 32.7073 97.0827 32.435 97.444 32.2299C97.8093 32.0247 98.2147 31.9221 98.6603 31.9221C98.9895 31.9221 99.2786 31.9734 99.5275 32.076C99.7804 32.1786 99.9891 32.3265 100.154 32.5198C100.318 32.7132 100.443 32.9459 100.527 33.2182C100.611 33.4904 100.654 33.7982 100.654 34.1414V37.9053H100.075V34.1414C100.075 33.589 99.947 33.157 99.6901 32.8453C99.4331 32.5297 99.0417 32.3719 98.5158 32.3719C98.1264 32.3719 97.7611 32.4705 97.4199 32.6678C97.0827 32.8611 96.7816 33.1314 96.5166 33.4786V37.9053H95.9385V32.0168H96.2577C96.358 32.0168 96.4163 32.0661 96.4323 32.1648L96.4865 33.0466Z" fill="white"/>
<path d="M103.138 29.2945V34.5438H103.415C103.471 34.5438 103.524 34.5359 103.572 34.5202C103.624 34.5044 103.68 34.4669 103.74 34.4077L106.143 32.1648C106.183 32.1174 106.227 32.0819 106.275 32.0582C106.324 32.0306 106.384 32.0168 106.456 32.0168H106.962L104.318 34.4847C104.246 34.5675 104.168 34.6326 104.084 34.68C104.148 34.7115 104.202 34.749 104.246 34.7924C104.294 34.8318 104.34 34.8792 104.385 34.9344L107.161 37.9053H106.661C106.605 37.9053 106.552 37.8974 106.504 37.8816C106.46 37.8619 106.418 37.8244 106.378 37.7692L103.861 35.1179C103.829 35.0824 103.797 35.0528 103.764 35.0291C103.736 35.0054 103.706 34.9877 103.674 34.9759C103.642 34.9601 103.604 34.9502 103.56 34.9463C103.52 34.9384 103.469 34.9344 103.409 34.9344H103.138V37.9053H102.56V29.2945H103.138Z" fill="white"/>
<path d="M110.272 31.9221C110.702 31.9221 111.085 31.9951 111.422 32.1411C111.764 32.2831 112.051 32.4863 112.283 32.7507C112.516 33.015 112.693 33.3346 112.813 33.7094C112.938 34.0802 113 34.4965 113 34.9581C113 35.4197 112.938 35.836 112.813 36.2068C112.693 36.5777 112.516 36.8953 112.283 37.1596C112.051 37.424 111.764 37.6272 111.422 37.7692C111.085 37.9112 110.702 37.9822 110.272 37.9822C109.843 37.9822 109.457 37.9112 109.116 37.7692C108.779 37.6272 108.492 37.424 108.255 37.1596C108.022 36.8953 107.843 36.5777 107.719 36.2068C107.599 35.836 107.538 35.4197 107.538 34.9581C107.538 34.4965 107.599 34.0802 107.719 33.7094C107.843 33.3346 108.022 33.015 108.255 32.7507C108.492 32.4863 108.779 32.2831 109.116 32.1411C109.457 31.9951 109.843 31.9221 110.272 31.9221ZM110.272 37.5384C110.629 37.5384 110.941 37.4792 111.206 37.3608C111.475 37.2385 111.697 37.0649 111.874 36.8401C112.055 36.6152 112.189 36.3449 112.277 36.0293C112.366 35.7097 112.41 35.3526 112.41 34.9581C112.41 34.5675 112.366 34.2124 112.277 33.8928C112.189 33.5733 112.055 33.301 111.874 33.0761C111.697 32.8473 111.475 32.6717 111.206 32.5494C110.941 32.4271 110.629 32.366 110.272 32.366C109.915 32.366 109.602 32.4271 109.333 32.5494C109.068 32.6717 108.845 32.8473 108.664 33.0761C108.488 33.301 108.353 33.5733 108.261 33.8928C108.173 34.2124 108.128 34.5675 108.128 34.9581C108.128 35.3526 108.173 35.7097 108.261 36.0293C108.353 36.3449 108.488 36.6152 108.664 36.8401C108.845 37.0649 109.068 37.2385 109.333 37.3608C109.602 37.4792 109.915 37.5384 110.272 37.5384Z" fill="white"/>
</svg>
