<svg width="50" height="50" viewBox="0 0 50 50" fill="none" xmlns="http://www.w3.org/2000/svg">
<g clip-path="url(#clip0)">
<path d="M31.579 6.34037C31.618 5.06146 30.6157 3.99172 29.3369 3.94739H19.2983V19.7369H29.3369C30.1467 19.7396 30.9336 20.0056 31.579 20.4948V6.34037ZM28.9475 17.1053H21.9299C21.4455 17.1053 21.0527 16.7125 21.0527 16.2281C21.0527 15.7436 21.4455 15.3509 21.9299 15.3509H28.9475C29.4319 15.3509 29.8246 15.7436 29.8246 16.2281C29.8246 16.7125 29.4319 17.1053 28.9475 17.1053ZM28.9475 12.7193H21.9299C21.4455 12.7193 21.0527 12.3266 21.0527 11.8421C21.0527 11.3577 21.4455 10.9649 21.9299 10.9649H28.9475C29.4319 10.9649 29.8246 11.3577 29.8246 11.8421C29.8246 12.3266 29.4319 12.7193 28.9475 12.7193ZM28.9475 8.33335H21.9299C21.4455 8.33335 21.0527 7.94062 21.0527 7.45616C21.0527 6.9717 21.4455 6.57897 21.9299 6.57897H28.9475C29.4319 6.57897 29.8246 6.9717 29.8246 7.45616C29.8246 7.94062 29.4319 8.33335 28.9475 8.33335Z" fill="black"/>
<path d="M33.3337 24.1229H45.6065L45.6144 21.4913H35.5758C34.2349 21.6086 33.2365 22.7805 33.3337 24.1229Z" fill="black"/>
<path d="M19.2983 21.4913V24.1229H31.579C31.6762 22.7805 30.6778 21.6086 29.3369 21.4913H19.2983Z" fill="black"/>
<path d="M45.6143 3.94739H35.5757C34.297 3.99172 33.2947 5.06146 33.3336 6.34037V20.4948C33.979 20.0056 34.7659 19.7396 35.5757 19.7369H45.6143V3.94739ZM42.9827 17.1053H35.9652C35.4807 17.1053 35.088 16.7125 35.088 16.2281C35.088 15.7436 35.4807 15.3509 35.9652 15.3509H42.9827C43.4672 15.3509 43.8599 15.7436 43.8599 16.2281C43.8599 16.7125 43.4672 17.1053 42.9827 17.1053ZM42.9827 12.7193H35.9652C35.4807 12.7193 35.088 12.3266 35.088 11.8421C35.088 11.3577 35.4807 10.9649 35.9652 10.9649H42.9827C43.4672 10.9649 43.8599 11.3577 43.8599 11.8421C43.8599 12.3266 43.4672 12.7193 42.9827 12.7193ZM42.9827 8.33335H35.9652C35.4807 8.33335 35.088 7.94062 35.088 7.45616C35.088 6.9717 35.4807 6.57897 35.9652 6.57897H42.9827C43.4672 6.57897 43.8599 6.9717 43.8599 7.45616C43.8599 7.94062 43.4672 8.33335 42.9827 8.33335Z" fill="black"/>
<path d="M2.99063 11.479C2.65028 18.765 3.17923 21.6782 3.60467 24.0229C3.86843 25.2634 4.01004 26.5267 4.02747 27.7948C4.02747 28.4747 3.99765 29.1387 3.96782 29.7913C3.82484 32.9448 3.71168 35.4352 6.8766 38.4387C8.23468 39.7733 9.42343 41.2699 10.4161 42.8948C11.8573 45.1089 12.5784 46.0878 14.588 46.0878H18.7459C20.7555 46.0878 21.4766 45.1089 22.9178 42.8948C23.9104 41.268 25.0994 39.7696 26.4582 38.4334C28.3611 36.8326 29.446 34.4629 29.4143 31.9764C28.6366 31.8049 28.0825 31.1158 28.0819 30.3194V29.3273L15.7301 29.3861C14.7929 29.3841 14.0344 28.6233 14.0354 27.6861V6.5229C14.0354 5.58635 14.7936 4.82659 15.7301 4.82466H17.5441V3.88781C17.5344 2.96252 18.2759 2.20416 19.2012 2.19308H24.1134C22.0897 1.23473 19.9087 0.65188 17.6766 0.4729H15.6231C15.1643 0.49483 3.46432 1.14483 2.99063 11.479Z" fill="black"/>
<path d="M49.123 6.52295L47.6072 6.57909C47.5257 6.57474 47.4453 6.55848 47.3686 6.53084V24.123C47.3937 25.0643 46.6528 25.8487 45.7116 25.8773H33.3335C33.3335 25.8914 33.3265 25.9028 33.3256 25.9168C33.3247 25.9309 33.3335 25.9431 33.3335 25.9572V27.5914C33.3335 28.0758 32.9408 28.4686 32.4563 28.4686C31.9718 28.4686 31.5791 28.0758 31.5791 27.5914V25.9572C31.5791 25.9431 31.5861 25.9309 31.587 25.9168C31.5879 25.9028 31.5791 25.8914 31.5791 25.8773H19.201C18.2598 25.8487 17.5189 25.0643 17.544 24.123V6.57909H15.73L15.7896 27.6861L28.1414 27.6317C29.0779 27.6337 29.8361 28.3934 29.8361 29.33V30.3221H30.0282C30.1063 30.2908 30.1884 30.271 30.2721 30.2633C30.3513 30.27 30.4294 30.2865 30.5045 30.3124L35.1484 30.2633L35.0879 29.3273C35.0893 28.3915 35.8476 27.6332 36.7835 27.6317H49.1826L49.123 6.52295Z" fill="black"/>
<path d="M18.7459 47.8423H14.588C11.5424 47.8423 10.3389 45.994 8.94502 43.8519C8.75467 43.5589 8.55643 43.2554 8.34766 42.9467V48.6844C8.34766 49.1688 8.74039 49.5616 9.22485 49.5616H24.1117C24.5962 49.5616 24.9889 49.1688 24.9889 48.6844V42.9467C24.7801 43.2554 24.5819 43.5607 24.3915 43.8519C22.995 45.994 21.7915 47.8423 18.7459 47.8423Z" fill="black"/>
<path d="M1.2667 19.759C1.00354 19.3879 0.514066 18.9511 0.269329 18.9739C-0.0262846 19.4932 -0.0929513 21.6686 0.129856 23.7528C0.424371 25.2848 1.17037 26.6938 2.27196 27.7984V27.7897C2.25362 26.627 2.12171 25.4688 1.8781 24.3318C1.5862 22.8206 1.38205 21.2938 1.2667 19.759Z" fill="black"/>
</g>
<defs>
<clipPath id="clip0">
<rect width="50" height="50" fill="white" transform="translate(0 0.00012207)"/>
</clipPath>
</defs>
</svg>
