<svg width="51" height="50" viewBox="0 0 51 50" fill="none" xmlns="http://www.w3.org/2000/svg">
<g clip-path="url(#clip0)">
<path d="M13.7992 21.5518C13.8121 13.7395 19.6257 7.15247 27.3759 6.16905C23.7906 2.09146 17.4432 1.74319 17.376 1.7406H15.3596C14.9079 1.76129 3.41044 2.40008 2.94579 12.5553C2.6113 19.7165 3.13113 22.5794 3.54924 24.8828C3.80788 26.102 3.94704 27.3435 3.96475 28.5897C3.96475 29.2587 3.93544 29.9104 3.90613 30.5527C3.76561 33.6501 3.65441 36.0966 6.76561 39.0501C8.1006 40.3628 9.26861 41.8351 10.2432 43.4337C11.6596 45.6096 12.3691 46.5725 14.3441 46.5725H18.4303C20.4053 46.5725 21.1147 45.6096 22.5311 43.4337C23.5057 41.8351 24.6737 40.3628 26.0087 39.0501C26.6623 38.4362 27.235 37.7415 27.713 36.9828C19.8126 36.1517 13.8112 29.4958 13.7992 21.5518Z" fill="black"/>
<path d="M18.4284 48.2932H14.3422C11.3491 48.2932 10.1655 46.475 8.79568 44.3716C8.6089 44.0842 8.4135 43.7874 8.20947 43.4811V49.1207C8.20947 49.5968 8.59543 49.9828 9.07154 49.9828H23.7017C24.1778 49.9828 24.5638 49.5968 24.5638 49.1207V43.4811C24.3592 43.7851 24.1638 44.0819 23.9776 44.3716C22.6052 46.475 21.4215 48.2932 18.4284 48.2932Z" fill="black"/>
<path d="M1.25091 20.6898C0.992294 20.3251 0.538845 19.8906 0.270742 19.9208C-0.0189133 20.4303 -0.0852927 22.5691 0.133673 24.6182C0.422848 26.1242 1.15602 27.5091 2.23885 28.5949V28.5863C2.22082 27.4439 2.09118 26.3061 1.85178 25.1889C1.56396 23.7022 1.36333 22.1999 1.25091 20.6898Z" fill="black"/>
<path d="M49.1436 4.31043H45.6953V0.862154C45.6952 0.513537 45.4852 0.19928 45.1631 0.0658801C44.841 -0.0675199 44.4703 0.00619911 44.2238 0.252671L40.7755 3.70095C40.6138 3.86258 40.5229 4.08181 40.5229 4.31043V8.46905L38.1514 10.9691C32.3655 6.06116 23.7274 6.63701 18.6442 12.2695C13.5611 17.902 13.8716 26.5537 19.3454 31.8073C24.8192 37.0609 33.4763 37.0162 38.8955 31.7062C44.3147 26.3962 44.5356 17.7417 39.3945 12.1622L41.9367 9.48284H45.6953C45.9239 9.4828 46.1432 9.39194 46.3048 9.23026L49.7531 5.78198C49.9995 5.53543 50.0733 5.16471 49.9399 4.84262C49.8065 4.52054 49.4922 4.3105 49.1436 4.31043ZM42.247 4.66733L43.9712 2.94319V4.82767L42.247 6.64922V4.66733ZM41.385 21.5518C41.3927 27.2075 37.477 32.1122 31.96 33.3572C26.4431 34.6022 20.8005 31.8546 18.3785 26.7437C15.9565 21.6328 17.403 15.5258 21.8601 12.0442C26.3171 8.56263 32.5927 8.63778 36.9651 12.2251L35.7729 13.4828C31.4102 9.96082 25.046 10.5068 21.347 14.7205C17.648 18.9342 17.9311 25.3155 21.9886 29.1852C26.0461 33.0548 32.4337 33.0353 36.4674 29.1408C40.5011 25.2464 40.7451 18.8634 37.0203 14.6725L38.2074 13.4191C40.2495 15.6353 41.3837 18.5382 41.385 21.5518ZM34.4884 21.5518C34.4892 23.9254 32.8745 25.9949 30.5719 26.5712C28.2694 27.1476 25.8701 26.0828 24.7527 23.9887C23.6352 21.8947 24.0864 19.3088 25.847 17.7169C27.6077 16.125 30.2258 15.9358 32.197 17.2578L30.9746 18.5509C30.4691 18.2625 29.898 18.1084 29.316 18.1035C27.4116 18.1035 25.8677 19.6474 25.8677 21.5518C25.8677 23.4562 27.4116 25.0001 29.316 25.0001C31.2204 25.0001 32.7643 23.4562 32.7643 21.5518C32.7624 20.9058 32.5773 20.2736 32.2307 19.7285L33.4436 18.4484C34.1208 19.3413 34.4877 20.4311 34.4884 21.5518ZM33.3893 15.9992C30.4656 13.8763 26.3954 14.391 24.0923 17.1749C21.7892 19.9589 22.0462 24.0534 24.6793 26.5275C27.3125 29.0016 31.4151 29.0034 34.0503 26.5315C36.6856 24.0596 36.9461 19.9653 34.6453 17.1794L35.8332 15.9259C38.8557 19.4183 38.6083 24.6673 35.2708 27.8599C31.9332 31.0525 26.6783 31.0666 23.3236 27.8921C19.9689 24.7176 19.6932 19.47 22.6968 15.9614C25.7004 12.4528 30.9278 11.9162 34.5815 14.7415L33.3893 15.9992ZM45.3384 7.75871H43.5703L45.2082 6.03457H47.0669L45.3384 7.75871Z" fill="black"/>
</g>
<defs>
<clipPath id="clip0">
<rect width="50" height="50" fill="white" transform="translate(0.00585938 0.00012207)"/>
</clipPath>
</defs>
</svg>
