<svg width="51" height="50" viewBox="0 0 51 50" fill="none" xmlns="http://www.w3.org/2000/svg">
<g clip-path="url(#clip0)">
<path d="M28.5784 31.2501C26.606 31.2501 25.007 29.6511 25.007 27.6787V26.7858C25.0084 26.0378 25.2469 25.3094 25.6883 24.7055C24.6175 23.7798 24.0036 22.4333 24.007 21.018V11.5938L20.6142 9.70545C20.0156 9.36262 19.6463 8.7256 19.6463 8.03581C19.6463 7.34601 20.0156 6.70899 20.6142 6.36616L26.6159 3.02241C24.0488 1.29583 21.0769 0.266325 17.9918 0.0349121H15.9088C15.4418 0.0563407 3.53291 0.717948 3.05166 11.2367C2.70523 18.6528 3.24362 21.618 3.67666 24.0046C3.94513 25.2672 4.08927 26.5531 4.10701 27.8438C4.10701 28.5358 4.07666 29.2117 4.0463 29.876C3.90076 33.0858 3.78559 35.6206 7.00701 38.6778C8.38909 40.0366 9.59877 41.5602 10.6088 43.2144C12.0758 45.468 12.8097 46.4644 14.8552 46.4644H19.0874C21.1329 46.4644 21.8668 45.468 23.3338 43.2144C24.3441 41.5585 25.5544 40.0334 26.9374 38.6733C29.782 35.9715 30.0213 33.6831 29.9427 30.9769C29.5105 31.1571 29.0468 31.25 28.5784 31.2501Z" fill="black"/>
<path d="M1.29669 19.6652C1.02883 19.2884 0.535078 18.8429 0.281507 18.8661C-0.0193862 19.3947 -0.0872434 21.609 0.139542 23.7304C0.439317 25.2898 1.19864 26.7238 2.3199 27.8482V27.8393C2.30123 26.6558 2.16696 25.477 1.91901 24.3197C1.62189 22.7815 1.4141 21.2274 1.29669 19.6652Z" fill="black"/>
<path d="M49.9566 7.92684L35.7352 0.0045166L21.487 7.92684C21.455 7.95398 21.4365 7.99381 21.4365 8.03577C21.4365 8.07772 21.455 8.11755 21.487 8.14469L28.6021 12.1081L31.6039 9.10719C31.3809 8.79422 31.2599 8.42005 31.2575 8.03577C31.2575 6.50898 33.1762 5.35719 35.7218 5.35719C38.2673 5.35719 40.1861 6.50898 40.1861 8.03577C40.1861 9.56255 38.2673 10.7143 35.7218 10.7143C34.8027 10.7268 33.8909 10.5499 33.0432 10.1947L30.2262 13.0117L35.7084 16.0715L49.9566 8.14916C49.9886 8.12202 50.007 8.08218 50.007 8.04023C50.007 7.99828 49.9886 7.95845 49.9566 7.9313V7.92684Z" fill="black"/>
<path d="M35.722 8.92866C37.2014 8.92866 38.4006 8.52891 38.4006 8.0358C38.4006 7.54269 37.2014 7.14294 35.722 7.14294C34.2427 7.14294 33.0435 7.54269 33.0435 8.0358C33.0435 8.52891 34.2427 8.92866 35.722 8.92866Z" fill="black"/>
<path d="M27.0912 23.5492C27.283 23.4625 27.4819 23.3929 27.6859 23.3411V13.6429L25.793 12.5894V21.0179C25.7874 22.0228 26.2718 22.9674 27.0912 23.5492Z" fill="black"/>
<path d="M35.7212 17.8572C35.4122 17.857 35.1084 17.7774 34.839 17.626L29.4712 14.6376V23.3412C30.0058 23.4807 30.5004 23.743 30.9158 24.1072H42.523C42.9715 24.1082 43.4141 24.0049 43.8158 23.8055C44.8817 23.288 45.5539 22.2027 45.5426 21.018L45.5428 12.6483L36.6033 17.6278C36.3336 17.7782 36.03 17.8571 35.7212 17.8572Z" fill="black"/>
<path d="M19.0878 48.2501H14.8557C11.7557 48.2501 10.5307 46.3689 9.11194 44.1885C8.91819 43.8903 8.71641 43.5814 8.50391 43.2671V49.1073C8.50391 49.6004 8.90365 50.0001 9.39676 50.0001H24.5494C25.0426 50.0001 25.4423 49.6004 25.4423 49.1073V43.2671C25.2298 43.5814 25.028 43.8921 24.8343 44.1885C23.4128 46.3689 22.1878 48.2501 19.0878 48.2501Z" fill="black"/>
<path d="M28.5792 25C27.5929 25 26.7935 25.7995 26.7935 26.7857V27.6786C26.7935 28.6648 27.5929 29.4643 28.5792 29.4643C29.5654 29.4643 30.3649 28.6648 30.3649 27.6786V26.7857C30.3649 25.7995 29.5654 25 28.5792 25Z" fill="black"/>
</g>
<defs>
<clipPath id="clip0">
<rect width="50" height="50" fill="white" transform="translate(0.00732422 0.00012207)"/>
</clipPath>
</defs>
</svg>
