<svg width="177" height="543" viewBox="0 0 177 543" fill="none" xmlns="http://www.w3.org/2000/svg">
<path d="M136.268 489.747L152.079 517.941L171.007 536.633C171.332 536.95 171.587 537.331 171.758 537.752C171.929 538.173 172.011 538.624 171.999 539.078C171.987 539.532 171.882 539.979 171.689 540.39C171.496 540.801 171.221 541.168 170.88 541.468C170.484 541.819 170.01 542.07 169.497 542.2C168.984 542.329 168.447 542.335 167.932 542.215C161.275 540.651 136.818 534.772 135.774 532.644C134.575 530.177 117.128 504.013 117.128 504.013L136.268 489.747Z" fill="#8547C6"/>
<g opacity="0.6">
<path opacity="0.6" d="M170.88 541.44L134.716 530.74L135.407 531.925C136.011 532.94 136.956 533.709 138.073 534.096C141.063 535.139 149.356 537.803 167.89 542.243C168.422 542.369 168.978 542.361 169.507 542.221C170.035 542.081 170.522 541.813 170.922 541.44H170.88Z" fill="white"/>
</g>
<g opacity="0.6">
<path opacity="0.6" d="M135.083 518.392C135.573 518.443 136.027 518.673 136.36 519.036C136.693 519.4 136.88 519.873 136.888 520.365C136.859 520.859 136.64 521.322 136.278 521.658C135.915 521.995 135.436 522.178 134.942 522.17C134.42 522.117 133.937 521.874 133.585 521.486C133.234 521.098 133.038 520.593 133.038 520.069C133.124 519.56 133.405 519.104 133.82 518.797C134.235 518.49 134.754 518.354 135.266 518.42" fill="white"/>
</g>
<path d="M157.283 533.038C157.437 531.773 157.83 530.549 158.44 529.43C159.213 528.427 160.171 527.58 161.261 526.934C161.261 526.85 160.767 526.836 160.062 527.132C159.142 527.537 158.362 528.204 157.819 529.049C157.27 529.888 156.972 530.866 156.959 531.868C157.043 532.615 157.283 533.052 157.283 533.038Z" fill="#263238"/>
<path d="M161.515 535.59C161.712 535.59 162.079 534.18 163.264 532.94C164.448 531.699 165.845 531.192 165.788 530.994C165.732 530.797 164.096 530.994 162.742 532.404C161.388 533.814 161.317 535.604 161.515 535.59Z" fill="#263238"/>
<path d="M150.809 530.445C151.515 528.976 152.331 527.562 153.249 526.216C154.353 524.997 155.541 523.857 156.804 522.804C155.123 523.28 153.665 524.334 152.685 525.779C151.526 527.062 150.861 528.716 150.809 530.445Z" fill="#263238"/>
<path d="M145.294 522.268C145.464 522.395 146.62 520.859 148.581 519.59C150.541 518.321 152.403 517.884 152.361 517.673C150.837 517.597 149.337 518.067 148.129 518.998C146.829 519.721 145.826 520.879 145.294 522.268Z" fill="#263238"/>
<path d="M140.443 514.12C141.419 513.009 142.544 512.036 143.785 511.23C145.133 510.625 146.556 510.203 148.017 509.976C148.017 509.891 147.523 509.722 146.606 509.736C145.475 509.764 144.367 510.064 143.376 510.61C142.386 511.149 141.536 511.912 140.894 512.837C140.499 513.556 140.358 514.078 140.443 514.12Z" fill="#263238"/>
<path d="M142.826 509.708C142.71 509.312 142.507 508.946 142.234 508.637C141.578 507.721 140.743 506.949 139.78 506.367C139.108 505.879 138.297 505.622 137.466 505.634C137.197 505.677 136.945 505.797 136.743 505.979C136.54 506.162 136.394 506.399 136.324 506.663C136.237 507.187 136.347 507.724 136.634 508.171C137.249 509.068 138.156 509.723 139.201 510.024C140.246 510.325 141.363 510.253 142.361 509.821C143.338 509.368 144.159 508.637 144.721 507.719C145.284 506.801 145.561 505.737 145.52 504.661C145.507 504.389 145.437 504.122 145.313 503.879C145.189 503.636 145.014 503.422 144.801 503.252C144.566 503.106 144.292 503.037 144.016 503.055C143.741 503.073 143.477 503.176 143.263 503.35C142.672 503.912 142.235 504.616 141.994 505.394C141.59 506.438 141.38 507.546 141.373 508.665C141.334 509.079 141.382 509.497 141.514 509.891C141.611 508.414 141.93 506.96 142.459 505.578C142.695 504.909 143.093 504.308 143.616 503.83C143.735 503.737 143.881 503.687 144.032 503.687C144.183 503.687 144.329 503.737 144.448 503.83C144.58 503.949 144.685 504.095 144.755 504.258C144.826 504.42 144.861 504.597 144.857 504.774C144.866 505.707 144.604 506.623 144.104 507.411C143.603 508.199 142.885 508.825 142.036 509.215C141.19 509.576 140.247 509.642 139.359 509.401C138.471 509.161 137.69 508.628 137.142 507.889C136.942 507.575 136.853 507.203 136.888 506.832C136.921 506.686 136.999 506.554 137.11 506.453C137.221 506.352 137.36 506.288 137.509 506.268C138.21 506.257 138.899 506.459 139.483 506.846C140.753 507.602 141.884 508.57 142.826 509.708Z" fill="#263238"/>
<path d="M100.611 498.656L94.1798 521.761C94.1798 521.761 115.534 536.055 114.758 540.495L69.4829 529.655L77.9456 493.229L100.611 498.656Z" fill="#8547C6"/>
<g opacity="0.6">
<path opacity="0.6" d="M80.6535 516.446C80.187 516.479 79.7484 516.681 79.419 517.012C79.0896 517.344 78.8918 517.784 78.8623 518.251C78.8729 518.72 79.0631 519.167 79.3937 519.5C79.7244 519.833 80.1702 520.027 80.6394 520.041C81.134 520.01 81.5996 519.797 81.9461 519.443C82.2925 519.089 82.4954 518.619 82.5154 518.124C82.4585 517.636 82.2125 517.19 81.83 516.881C81.4476 516.573 80.9593 516.427 80.4702 516.474" fill="white"/>
</g>
<g opacity="0.6">
<path opacity="0.6" d="M69.4829 529.599L70.4844 525.962L113.559 537.676C113.559 537.676 115.365 539.086 114.786 540.397L69.4829 529.599Z" fill="white"/>
</g>
<path d="M94.9698 521.705C94.9698 521.93 93.785 521.704 92.5297 522.212C91.2744 522.719 90.4704 523.453 90.2871 523.326C90.1037 523.199 90.7384 521.986 92.2757 521.465C93.8131 520.943 95.0685 521.521 94.9698 521.705Z" fill="#263238"/>
<path d="M99.2575 524.806C99.2575 525.031 98.1997 525.186 97.2264 525.933C96.2532 526.68 95.816 527.625 95.5904 527.568C95.3647 527.512 95.5904 526.159 96.7611 525.299C97.9317 524.439 99.2998 524.594 99.2575 524.806Z" fill="#263238"/>
<path d="M100.597 531.135C100.386 531.135 100.344 529.951 101.19 528.88C102.036 527.808 103.207 527.569 103.249 527.78C103.291 527.992 102.502 528.485 101.839 529.373C101.176 530.261 100.865 531.163 100.597 531.135Z" fill="#263238"/>
<path d="M95.8584 516.277C95.7173 516.461 94.7724 515.911 93.5029 515.699C92.2335 515.488 91.1615 515.699 91.091 515.432C91.0205 515.164 92.1489 514.642 93.644 514.924C95.139 515.206 95.9994 516.136 95.8584 516.277Z" fill="#263238"/>
<g opacity="0.3">
<path opacity="0.3" d="M99.3282 503.224L98.1857 507.354L75.9854 501.814L77.0997 497.021L99.3282 503.224Z" fill="black"/>
</g>
<path d="M97.0569 511.597C96.2681 511.611 95.4897 511.416 94.8002 511.033C94.0144 510.696 93.2749 510.261 92.5999 509.736C92.1951 509.431 91.8133 509.096 91.4574 508.735C91.2404 508.534 91.0549 508.301 90.9073 508.045C90.7951 507.854 90.752 507.631 90.7854 507.413C90.8188 507.194 90.9267 506.994 91.0907 506.846C91.2369 506.717 91.4113 506.625 91.6 506.576C91.7887 506.527 91.9863 506.523 92.1768 506.564C92.4632 506.634 92.7384 506.743 92.9948 506.889C93.4531 507.118 93.8877 507.392 94.2925 507.706C94.9744 508.236 95.5692 508.868 96.0555 509.581C96.5655 510.192 96.8755 510.945 96.944 511.738C96.8312 511.738 96.4786 510.977 95.5336 509.919C95.0218 509.307 94.4341 508.762 93.7846 508.298C93.4043 508.028 93.0035 507.788 92.5858 507.579C92.1344 507.34 91.7254 507.241 91.5562 507.424C91.3869 507.608 91.4715 507.523 91.5562 507.692C91.6686 507.879 91.8062 508.05 91.9652 508.2C92.3037 508.552 92.6563 508.876 92.9948 509.172C93.6169 509.697 94.2822 510.169 94.9836 510.582C96.253 511.216 97.0992 511.47 97.0569 511.597Z" fill="#263238"/>
<path d="M96.7047 511.837C96.4268 511.08 96.4021 510.254 96.6342 509.483C96.805 508.636 97.1097 507.823 97.5369 507.072C97.7985 506.628 98.1057 506.212 98.4537 505.832C98.6467 505.561 98.9071 505.346 99.2089 505.208C99.5108 505.069 99.8437 505.012 100.174 505.042C100.375 505.094 100.557 505.202 100.697 505.355C100.837 505.508 100.93 505.698 100.964 505.902C101.005 506.192 101.005 506.486 100.964 506.776C100.919 507.304 100.796 507.821 100.598 508.313C100.269 509.13 99.7406 509.853 99.0602 510.413C97.9036 511.386 96.9163 511.428 96.9163 511.343C96.9163 511.259 97.7344 510.977 98.6794 510.004C99.2369 509.454 99.6614 508.784 99.9206 508.045C100.069 507.622 100.159 507.181 100.189 506.734C100.189 506.226 100.189 505.803 99.9487 505.803C99.709 505.803 99.2576 506.015 98.9755 506.353C98.6638 506.696 98.3808 507.064 98.1293 507.453C97.7034 508.123 97.3712 508.849 97.142 509.609C96.7894 510.892 96.8317 511.837 96.7047 511.837Z" fill="#263238"/>
<path d="M109.145 244.251C109.145 244.251 124.575 271.19 125.421 301.033C126.268 330.876 104.434 515.995 104.434 515.995L69.8357 507.537C69.201 513.486 80.6821 446.681 84.7442 414.498C88.7357 382.837 68.665 268.597 68.665 268.597L106.507 244.251" fill="#263238"/>
<path d="M30.0895 266.821C30.0895 266.821 26.3377 298.863 35.7312 320.388C45.1248 341.914 120.358 519.505 120.358 519.505L151.232 503.844L75.8443 267.018L30.0895 266.821Z" fill="#263238"/>
<path d="M123.192 415.669C122.995 415.739 113.503 387.137 102.036 351.81C90.5689 316.484 81.3164 287.783 81.5138 287.712C81.7113 287.642 91.2036 316.244 102.671 351.585C114.137 386.925 123.432 415.612 123.192 415.669Z" fill="#455A64"/>
<path d="M120.428 519.449C120.245 519.533 105.238 484.545 86.9021 441.324C68.5663 398.104 53.8554 362.975 54.0388 362.876C54.2222 362.777 69.2434 397.765 87.5792 441.014C105.915 484.263 120.612 519.35 120.428 519.449Z" fill="#455A64"/>
<path d="M65.1106 70.7062C60.6113 61.3178 46.3658 55.9469 34.5745 58.7381C24.7014 61.0781 13.8833 70.7203 12.896 80.8982C11.4855 95.6434 19.2147 110.967 14.0243 124.88C7.97348 141.063 -0.29171 135.735 0.286572 159.206C0.46993 166.254 3.20621 183.607 6.64769 189.81C8.41075 193.01 11.1893 196.012 14.8424 196.703C19.3981 197.549 25.6604 198.451 29.3558 195.702C39.3136 188.259 48.5802 187.244 51.0767 175.135C54.7721 157.303 42.8679 135.453 43.3756 120.961C43.8834 106.47 41.6408 92.0628 39.3841 77.7264" fill="#263238"/>
<path d="M117.142 153.088C114.321 146.702 108.679 142.022 102.84 138.075C97.0007 134.128 90.8512 130.632 85.9146 125.613C80.9781 120.595 77.5789 109.19 77.452 100.817C77.3673 98.5051 77.1981 96.2355 76.9019 93.9941C75.7735 85.7757 74.0809 77.4163 69.5393 70.382C64.9977 63.3477 53.2064 56.7927 42.7409 60.8808L37.4658 67.6755C43.2453 89.8169 45.0834 112.802 42.8961 135.58C42.2614 142.163 41.4856 149.535 45.717 154.737C48.4391 158.134 52.7691 159.868 57.0992 160.714C61.8665 161.659 67.2685 161.532 71.0485 158.529C71.2779 158.352 71.5235 158.196 71.782 158.064C72.634 160.58 73.9284 162.924 75.6043 164.986C79.8356 169.976 86.2955 172.372 92.5296 174.106C99.7229 176.094 108.256 177.222 113.968 172.415C119.413 167.889 120.033 159.474 117.142 153.088Z" fill="#263238"/>
<path d="M27.6068 135.368C27.6068 135.368 10.8225 142.558 6.83095 145.349C2.83939 148.14 23.2062 204.457 23.2062 204.457C23.2062 204.457 32.7972 227.618 30.3994 237.993C28.989 243.843 26.563 250.074 25.4911 255.473C24.9623 258.143 25.5105 260.914 27.0163 263.182C28.5221 265.45 30.8635 267.031 33.5307 267.582C43.4038 269.626 62.4589 272.121 78.6649 265.947C88.4549 262.396 97.7204 257.54 106.211 251.512C108.28 249.985 109.704 247.741 110.205 245.22C110.706 242.698 110.247 240.081 108.919 237.88C107.736 235.914 106.314 234.1 104.688 232.481C99.1869 226.983 94.2785 205.542 93.0091 199.65C92.8027 198.682 92.7361 197.69 92.8116 196.703C93.2488 191.065 94.5324 170.54 91.105 160.601C88.2841 152.651 82.6423 143.22 79.4265 138.047C78.6625 136.853 77.661 135.829 76.4842 135.038C75.3074 134.247 73.9804 133.707 72.5859 133.451L59.2008 130.998C58.0431 130.801 56.8604 130.801 55.7028 130.998L27.5785 135.453L27.6068 135.368Z" fill="#8547C6"/>
<g opacity="0.3">
<path opacity="0.3" d="M31.2035 235.836L28.2134 245.704C28.2134 245.704 48.7918 238.768 55.4209 230.973C62.05 223.177 68.6085 217.341 71.6833 217.003C74.758 216.664 88.0444 216.65 90.3717 218.511C92.6989 220.372 100.555 225.362 100.555 225.362L96.9443 215.001L88.1714 208.051L61.8948 205.331L31.2035 235.836Z" fill="black"/>
</g>
<path d="M6.831 145.349C6.831 145.349 0.145508 150.127 0.145508 162.11C0.145508 162.11 0.751926 216.988 2.62782 227.561C5.1243 241.658 16.4925 243.349 22.374 243.349C28.2556 243.349 60.0752 217.51 60.0752 217.51L50.3149 202.835L27.1132 208.869C27.1132 208.869 26.1541 186.314 26.1541 178.589C26.1541 170.864 6.831 145.349 6.831 145.349Z" fill="#8547C6"/>
<path d="M74.208 133.86C74.208 133.86 88.9895 137.342 94.8852 150.17C100.062 161.447 132.516 212.012 115.76 221.33C103.686 228.069 88.1714 212.562 88.1714 212.562L74.208 133.86Z" fill="#8547C6"/>
<path d="M96.9444 197.45C96.0288 195.129 95.5506 192.658 95.534 190.162C95.6048 188.658 95.4237 187.152 94.9981 185.708C94.7617 184.968 94.2818 184.33 93.6364 183.897C92.9911 183.465 92.2182 183.263 91.4437 183.325L90.9077 194.335L96.9444 197.45Z" fill="#FFBE9D"/>
<path d="M91.9513 172.57L90.1036 211.491L71.387 213.309L70.9639 175.163C70.9616 174.677 71.134 174.206 71.4498 173.836C71.7656 173.466 72.2038 173.222 72.6847 173.148L89.61 170.483C89.9063 170.437 90.2092 170.457 90.4968 170.542C90.7844 170.627 91.0496 170.775 91.2735 170.974C91.4973 171.173 91.6742 171.42 91.7914 171.696C91.9086 171.972 91.9632 172.27 91.9513 172.57Z" fill="#263238"/>
<path d="M72.6567 185.665C72.7212 185.288 72.7543 184.906 72.7554 184.524C72.7554 183.706 72.84 182.649 72.8964 181.366C72.9528 180.083 72.9952 178.434 73.0657 176.7C73.051 176.489 73.051 176.277 73.0657 176.065C73.1034 175.872 73.1909 175.693 73.3195 175.544C73.4468 175.388 73.6119 175.266 73.7991 175.191C74.0136 175.118 74.2363 175.071 74.4621 175.051L77.3816 174.571C81.3873 173.923 85.0122 173.303 87.6356 172.837L90.7386 172.259C91.1213 172.207 91.4987 172.122 91.8669 172.006C91.4787 172.008 91.0916 172.045 90.7103 172.118L87.5933 172.569C84.9558 172.964 81.3309 173.528 77.3252 174.191L74.3915 174.67C74.1412 174.697 73.8951 174.754 73.6581 174.839C73.4118 174.933 73.1968 175.094 73.0375 175.304C72.8679 175.5 72.7556 175.739 72.7131 175.995C72.6936 176.225 72.6936 176.456 72.7131 176.686C72.7131 178.434 72.7131 180.013 72.7131 181.366C72.7131 182.719 72.7131 183.692 72.7131 184.509C72.6581 184.892 72.6392 185.279 72.6567 185.665Z" fill="#455A64"/>
<path d="M81.2601 175.882C81.3036 175.684 81.4112 175.505 81.5661 175.373C81.7211 175.241 81.915 175.163 82.1182 175.152C82.3214 175.141 82.5226 175.197 82.6912 175.311C82.8597 175.425 82.9862 175.591 83.0514 175.784C83.093 175.971 83.0821 176.166 83.0198 176.348C82.9576 176.529 82.8465 176.69 82.6988 176.813C82.5404 176.919 82.3538 176.976 82.1628 176.976C81.9718 176.976 81.7852 176.919 81.6268 176.813C81.4763 176.715 81.36 176.573 81.2943 176.406C81.2285 176.239 81.2165 176.056 81.2601 175.882Z" fill="#FAFAFA"/>
<path d="M83.5733 187.174C84.0246 187.174 94.6312 190.712 94.6312 190.712L100.597 195.294C102.169 197.62 102.753 200.474 102.219 203.23C101.486 208.347 99.3138 210.448 93.8977 212.731H82.9809L76.8878 209.221C76.3011 208.878 75.8313 208.367 75.5395 207.753C75.2477 207.14 75.1474 206.453 75.2517 205.782V205.556L74.4759 204.626C74.2363 204.345 74.0856 203.999 74.0429 203.633C74.0002 203.267 74.0675 202.896 74.2362 202.567C74.4648 202.127 74.859 201.795 75.3323 201.644C75.8056 201.493 76.3193 201.537 76.7608 201.764L83.545 205.232L87.7764 205.119L88.1855 203.709L81.5564 201.51L72.8116 196.717C72.5365 196.568 72.2947 196.365 72.101 196.119C71.9074 195.873 71.766 195.591 71.6854 195.289C71.6049 194.986 71.5868 194.671 71.6326 194.361C71.6783 194.052 71.7867 193.755 71.9512 193.489C72.231 193.021 72.6685 192.667 73.1853 192.491C73.7021 192.316 74.2646 192.33 74.7721 192.531L82.6847 195.632L90.7666 197.775L89.1022 194.955L79.2291 189.782C79.2291 189.782 78.0443 186.666 83.5733 187.174Z" fill="#FFBE9D"/>
<path d="M81.8246 182.156C80.8961 181.934 79.9305 181.917 78.995 182.107C78.0595 182.297 77.1768 182.689 76.4084 183.255C73.235 185.186 69.2576 187.992 69.2576 187.992L63.0375 190.896L63.5593 189.176C63.5593 189.176 70.0756 188.809 69.0319 184.185L65.1814 184.961L61.5988 183.791L56.0699 191.177L54.6594 199.382L51.1475 203.385L58.8485 215.297L69.2152 211.336L78.5523 210.42L82.6144 205.909L82.3747 201.045L86.211 195.674C86.211 195.674 86.4085 193.25 84.2787 193.362C82.149 193.475 77.8612 199.297 77.8612 199.297L72.7977 200.228C72.7977 200.228 71.7963 199.565 72.4451 199.001C73.0939 198.437 86.9022 188.711 87.2971 186.963C87.692 185.215 88.2139 184.016 86.6483 183.791C85.2872 183.806 83.9507 184.155 82.7554 184.806C82.7554 184.806 83.0094 182.325 81.8246 182.156Z" fill="#FFBE9D"/>
<path d="M70.8936 193.306C73.0258 192.006 75.0879 190.594 77.0713 189.077C79.1361 187.693 81.1231 186.196 83.0233 184.594C80.8935 185.898 78.8316 187.309 76.8456 188.823C74.7807 190.207 72.7937 191.703 70.8936 193.306Z" fill="#7C5142"/>
<path d="M69.8354 205.739C70.0969 205.816 70.3671 205.858 70.6394 205.866C71.1613 205.866 71.9088 205.979 72.8397 205.993C73.9424 206.028 75.0454 205.933 76.126 205.711C77.4595 205.423 78.7151 204.851 79.8073 204.034C81.7425 202.51 83.3254 200.587 84.4476 198.395C84.8989 197.577 85.2234 196.901 85.449 196.435C85.5879 196.203 85.6923 195.951 85.7593 195.688C85.7593 195.688 85.1528 196.661 84.2078 198.254C83.037 200.357 81.4653 202.21 79.5816 203.709C78.5234 204.487 77.3194 205.043 76.0414 205.345C74.9888 205.572 73.9164 205.694 72.8397 205.711C70.9215 205.739 69.8354 205.669 69.8354 205.739Z" fill="#7C5142"/>
<path d="M51.0767 203.371L51.3305 203.131L52.0075 202.37L54.645 199.41L56.1542 191.234L61.7114 183.861H61.5421L65.1387 185.059H65.2092L69.0598 184.284L68.8764 184.171C69.0228 184.81 68.9985 185.476 68.8059 186.102C68.5605 186.73 68.1332 187.27 67.5789 187.653C66.3647 188.415 64.9766 188.857 63.5449 188.936H63.418V189.049C63.2629 189.584 63.0795 190.176 62.8962 190.782L62.7833 191.149L63.1359 190.994L69.356 188.104C71.2036 186.821 73.136 185.51 75.1388 184.227C76.1111 183.545 77.1565 182.973 78.2558 182.522C79.3713 182.093 80.5902 182.009 81.7538 182.282C82.1205 182.282 82.3462 182.761 82.4308 183.227C82.5016 183.717 82.5016 184.216 82.4308 184.707V185.059L82.7552 184.904C83.4302 184.559 84.1392 184.285 84.8708 184.086C85.5798 183.847 86.3481 183.847 87.0571 184.086C87.1996 184.167 87.3122 184.292 87.3783 184.442C87.4443 184.591 87.4602 184.759 87.4237 184.918C87.3931 185.31 87.3222 185.697 87.2122 186.074C87.157 186.451 87.0428 186.818 86.8737 187.16C86.6334 187.471 86.3693 187.763 86.0839 188.034C83.6806 190.207 81.1616 192.249 78.538 194.152L74.7439 196.971L72.868 198.381L72.4026 198.719C72.2054 198.845 72.0564 199.034 71.9794 199.255C71.9493 199.375 71.9489 199.501 71.9784 199.621C72.0079 199.741 72.0663 199.853 72.1487 199.945C72.2712 200.122 72.4298 200.271 72.6141 200.382H72.6847L77.7481 199.452H77.8186C79.0709 197.752 80.4883 196.179 82.0499 194.758C82.8257 194.123 83.6719 193.433 84.6028 193.602C84.8236 193.635 85.0333 193.72 85.2147 193.85C85.3962 193.98 85.5442 194.151 85.6466 194.349C85.8464 194.79 85.929 195.276 85.8864 195.759V195.674C84.4759 197.549 83.277 199.325 82.0641 201.045C82.1487 202.736 82.2333 204.358 82.3179 205.922V205.81L78.27 210.321H78.3546L69.0175 211.279L61.3588 214.239L59.3701 215.029L58.8622 215.24C58.7494 215.24 58.693 215.24 58.693 215.325H58.8622L59.3842 215.142L61.4011 214.409L69.1021 211.519L78.4392 210.631L82.5154 206.134C82.5154 204.569 82.3603 202.948 82.2757 201.256V201.355L86.112 195.998C86.1447 195.471 86.0479 194.943 85.83 194.462C85.6999 194.222 85.5222 194.011 85.3081 193.841C85.0819 193.68 84.8211 193.574 84.5465 193.531C83.9998 193.448 83.4414 193.558 82.9668 193.841C82.5118 194.1 82.0861 194.407 81.6973 194.758C80.1295 196.194 78.7117 197.786 77.466 199.508L77.5789 199.424L72.5294 200.354H72.6564C72.3884 200.171 72.1204 199.847 72.191 199.635C72.2615 199.424 72.6564 199.198 72.9385 198.973L74.8144 197.563L78.6226 194.744C81.2588 192.83 83.7918 190.779 86.2108 188.597C86.5165 188.309 86.7951 187.993 87.043 187.653C87.1714 187.467 87.258 187.255 87.2968 187.033L87.4378 186.455C87.5492 186.053 87.6247 185.643 87.6636 185.228C87.6867 184.998 87.6528 184.766 87.5648 184.552C87.4762 184.324 87.305 184.138 87.0852 184.03C86.2866 183.748 85.4156 183.748 84.617 184.03C83.8592 184.244 83.1227 184.527 82.4167 184.876L82.6988 185.073C82.7764 184.545 82.7764 184.008 82.6988 183.48C82.6602 183.209 82.564 182.95 82.4167 182.719C82.341 182.591 82.239 182.481 82.1173 182.396C81.9957 182.311 81.8573 182.253 81.7115 182.226C80.4663 181.914 79.155 181.998 77.9597 182.465C76.8274 182.92 75.7527 183.507 74.758 184.213C72.7551 185.496 70.8229 186.807 68.9752 188.104L62.7692 190.923L63.009 191.135C63.1923 190.529 63.3616 189.937 63.5168 189.401L63.3616 189.528C64.8685 189.423 66.3242 188.938 67.5929 188.118C68.1993 187.699 68.6622 187.103 68.9187 186.412C69.1362 185.728 69.1654 184.998 69.0033 184.298V184.143H68.8482L64.9977 184.932H65.0824L61.4857 183.762H61.387V183.847C59.3419 186.582 57.4941 189.077 55.8721 191.262C55.2938 194.56 54.8143 197.323 54.4617 199.466C53.3474 200.763 52.4871 201.778 51.8806 202.469L51.2318 203.258C51.179 203.294 51.1272 203.332 51.0767 203.371Z" fill="#7C5142"/>
<path d="M23.4602 87.5661C23.1843 84.6262 23.5049 81.6609 24.4025 78.8478C25.3002 76.0346 26.7565 73.4314 28.6844 71.1939C30.6122 68.9565 32.972 67.1308 35.6224 65.8263C38.2727 64.5217 41.1593 63.765 44.1091 63.6015C49.8201 63.2827 55.4392 65.1432 59.8301 68.8069C64.221 72.4705 67.0562 77.664 67.7623 83.337C69.0458 93.5149 70.1176 103.777 69.9766 107.485C69.5253 118.678 62.7411 122.864 59.9907 124.105C59.0108 124.429 57.9989 124.646 56.9724 124.753C56.9649 124.766 56.961 124.781 56.961 124.796C56.961 124.811 56.9649 124.825 56.9724 124.838L59.1726 137.765C60.0894 146.223 55.1106 153.609 46.4787 154.61C37.8467 155.611 31.3023 148.972 30.2022 140.514L23.4602 87.5661Z" fill="#FFBE9D"/>
<path d="M64.1937 90.6107C64.25 91.0753 64.1221 91.5434 63.8374 91.9149C63.5527 92.2864 63.1338 92.5318 62.6704 92.5984C62.4424 92.6431 62.2077 92.6421 61.9801 92.5952C61.7525 92.5483 61.5366 92.4566 61.3449 92.3253C61.1532 92.1941 60.9896 92.026 60.8636 91.8308C60.7376 91.6356 60.6518 91.4173 60.6112 91.1887C60.5548 90.7241 60.6826 90.256 60.9673 89.8845C61.252 89.5129 61.6709 89.2676 62.1344 89.201C62.3624 89.1562 62.5971 89.1573 62.8247 89.2042C63.0523 89.2511 63.2682 89.3428 63.4599 89.4741C63.6517 89.6053 63.8153 89.7734 63.9413 89.9686C64.0672 90.1637 64.153 90.382 64.1937 90.6107Z" fill="#263238"/>
<path d="M65.0544 86.3818C64.8569 86.6355 63.3619 85.8038 61.4295 86.0293C59.4972 86.2549 58.1855 87.439 57.9458 87.1712C57.706 86.9033 57.9458 86.6355 58.5805 86.1139C59.3716 85.4306 60.3593 85.016 61.4014 84.9298C62.4035 84.8083 63.4186 85.0004 64.3069 85.4796C64.8993 85.8602 65.1531 86.2549 65.0544 86.3818Z" fill="#263238"/>
<path d="M46.0698 93.0355C46.1262 93.5 45.9983 93.9682 45.7135 94.3397C45.4288 94.7112 45.0099 94.9565 44.5465 95.0231C44.3184 95.0679 44.0838 95.0668 43.8562 95.0199C43.6286 94.9731 43.4126 94.8813 43.2209 94.7501C43.0292 94.6188 42.8655 94.4507 42.7396 94.2556C42.6136 94.0604 42.5278 93.8421 42.4872 93.6135C42.4308 93.1489 42.5587 92.6808 42.8434 92.3093C43.1281 91.9377 43.547 91.6924 44.0105 91.6258C44.2385 91.581 44.4731 91.5821 44.7007 91.629C44.9283 91.6759 45.1443 91.7676 45.3361 91.8989C45.5278 92.0301 45.6914 92.1982 45.8174 92.3934C45.9433 92.5885 46.0292 92.8068 46.0698 93.0355Z" fill="#263238"/>
<path d="M46.0273 88.9475C45.8298 89.2012 44.3489 88.3695 42.4166 88.5951C40.4843 88.8206 39.1726 90.0048 38.9328 89.7369C38.6931 89.4691 38.9328 89.2012 39.5534 88.6937C40.3427 88.0053 41.3306 87.5857 42.3743 87.4955C43.3827 87.3695 44.405 87.567 45.2938 88.0594C45.858 88.44 46.126 88.8347 46.0273 88.9475Z" fill="#263238"/>
<path d="M54.7862 102.241C55.7703 101.812 56.8028 101.505 57.861 101.324C58.3547 101.212 58.806 101.057 58.8483 100.718C58.8433 100.207 58.6698 99.7115 58.3546 99.3086C57.7481 98.1809 57.0994 97.0109 56.4364 95.7704C54.7021 92.7971 53.2071 89.6907 51.9653 86.4806C52.1769 86.3678 54.5183 90.3713 57.184 95.4038L59.0457 98.9562C59.4219 99.5051 59.5918 100.169 59.5253 100.831C59.4755 101.013 59.3848 101.181 59.2602 101.323C59.1355 101.465 58.9802 101.576 58.806 101.649C58.5375 101.75 58.2584 101.821 57.9739 101.86C56.9317 102.121 55.8606 102.249 54.7862 102.241Z" fill="#263238"/>
<path d="M56.8877 124.838C56.8877 124.838 49.4828 126.248 39.4404 121.864C39.4404 121.864 43.573 131.238 57.48 128.32L56.8877 124.838Z" fill="#7C5142"/>
<path d="M54.5184 106.921C54.0887 106.51 53.5632 106.212 52.9894 106.054C52.4157 105.897 51.8117 105.884 51.232 106.019C50.811 106.102 50.4112 106.269 50.0572 106.512C49.7032 106.754 49.4022 107.066 49.1727 107.428C48.952 107.774 48.8455 108.181 48.8683 108.591C48.891 109 49.042 109.393 49.2997 109.712C49.6534 110.018 50.0894 110.213 50.5534 110.274C51.0174 110.334 51.4889 110.256 51.909 110.05C52.7852 109.628 53.5709 109.039 54.2222 108.316C54.4179 108.135 54.5803 107.92 54.7018 107.682C54.7596 107.57 54.7824 107.442 54.7673 107.317C54.7522 107.191 54.7 107.073 54.6171 106.977" fill="#7C5142"/>
<path d="M49.2434 104.229C49.5537 104.229 49.8076 106.23 51.7822 107.485C53.7568 108.739 56.0135 108.26 56.0135 108.542C56.0135 108.824 55.5622 109.007 54.6031 109.148C53.3736 109.301 52.129 109.027 51.077 108.373C50.574 108.058 50.1382 107.646 49.7945 107.163C49.4508 106.679 49.2061 106.132 49.0742 105.554C48.919 104.764 49.0883 104.229 49.2434 104.229Z" fill="#263238"/>
<path d="M46.4927 85.5079C46.3657 86.0577 44.4052 86.0295 42.1626 86.5652C39.92 87.1009 38.157 87.9749 37.7902 87.4956C37.4235 87.0163 37.889 86.7626 38.5801 86.1705C39.4922 85.431 40.5643 84.9145 41.7112 84.6621C42.8623 84.3984 44.0581 84.3984 45.2091 84.6621C46.0836 84.9018 46.5491 85.2542 46.4927 85.5079Z" fill="#263238"/>
<path d="M63.8694 82.5758C63.5733 83.041 62.191 82.7449 60.569 82.9141C58.947 83.0832 57.6494 83.5484 57.2827 83.1396C56.916 82.7308 57.2827 82.4771 57.8187 81.9978C58.5592 81.4075 59.4581 81.0497 60.4019 80.9694C61.3457 80.8891 62.2922 81.09 63.1219 81.5467C63.7425 81.9132 63.9823 82.3502 63.8694 82.5758Z" fill="#263238"/>
<path d="M58.3544 64.2218C57.5498 68.5082 55.5542 72.4816 52.5959 75.6876C49.6377 78.8935 45.8363 81.2025 41.6266 82.3503C41.8664 81.3071 42.1062 80.2499 42.36 79.1926C38.3394 86.393 31.7684 91.8291 23.9397 94.4313C21.5019 89.8549 20.6947 84.5857 21.6508 79.49C22.6069 74.3943 25.2694 69.7754 29.2006 66.3927C37.2401 59.7672 50.2444 58.2025 58.4109 64.687" fill="#263238"/>
<path d="M32.4871 89.1731C30.5266 92.8383 31.3306 97.3211 32.5576 101.296C33.7847 105.272 35.3785 109.289 34.9554 113.42C34.5323 117.254 32.3461 120.722 31.8524 124.542C31.0344 130.984 35.0964 136.961 36.662 143.277C37.6108 147.365 37.5303 151.624 36.4275 155.674C35.3247 159.723 33.2342 163.436 30.3432 166.48C30.0812 166.823 29.7498 167.107 29.3707 167.313C28.9916 167.52 28.5733 167.644 28.1429 167.678C27.6495 167.605 27.1934 167.373 26.8445 167.016C26.4956 166.66 26.273 166.199 26.2106 165.705C26.1158 164.725 26.168 163.737 26.3658 162.772C27.3954 153.525 18.5237 145.856 17.4518 136.637C16.7465 130.632 19.4264 124.767 19.9624 118.748C20.6394 111.164 17.9172 103.721 17.1415 96.1933C16.7674 93.6072 16.9892 90.9698 17.7902 88.4824C18.2064 87.2345 18.9212 86.1071 19.8725 85.1981C20.8238 84.2891 21.9827 83.626 23.2487 83.2666C24.5348 82.9407 25.8958 83.0981 27.0736 83.7087C28.2513 84.3193 29.1639 85.3408 29.638 86.5793" fill="#263238"/>
<path d="M30.1459 208.22C29.3492 208.3 28.5488 208.338 27.7481 208.333C25.8414 208.517 23.9954 209.103 22.3321 210.053C20.6605 211.01 19.2167 212.318 18.1008 213.887C17.7 214.587 17.2622 215.264 16.7891 215.917C16.8899 215.087 17.1899 214.294 17.6635 213.605C18.6994 211.87 20.1618 210.428 21.912 209.417C23.6622 208.405 25.642 207.857 27.6635 207.826C28.5111 207.743 29.3656 207.879 30.1459 208.22Z" fill="#263238"/>
<path d="M26.8733 177.969C27.0708 177.969 27.3387 184.693 27.4798 193.01C27.6208 201.327 27.4798 208.051 27.3529 208.051C26.8976 203.055 26.6952 198.04 26.7464 193.024C26.6054 184.707 26.6758 177.969 26.8733 177.969Z" fill="#263238"/>
<path d="M90.9924 187.977C90.8654 187.977 90.7385 186.187 90.2308 183.354C88.8984 175.938 85.8454 168.937 81.3168 162.913C79.5819 160.601 78.3548 159.29 78.4959 159.206C78.8543 159.435 79.1773 159.715 79.455 160.038C80.2755 160.846 81.0523 161.698 81.7822 162.589C84.1751 165.555 86.1625 168.826 87.6919 172.316C89.2205 175.809 90.2645 179.494 90.7949 183.269C90.9659 184.408 91.0648 185.557 91.0911 186.709C91.1128 187.134 91.0796 187.56 90.9924 187.977Z" fill="#263238"/>
<path d="M0.0326865 165.281C0.0447416 165.432 0.0447416 165.582 0.0326865 165.733C0.0326865 166.071 0.0326865 166.508 0.0326865 167.072C0.0326865 168.284 0.0326968 169.99 0.131428 172.161C0.244263 176.644 0.385318 183.043 0.58278 190.924C0.780243 198.804 1.14695 208.263 1.80986 218.708C1.89449 220.005 1.99315 221.33 2.09188 222.669L2.23298 224.671C2.33171 225.348 2.41635 226.01 2.51508 226.673C2.70554 228.024 3.00266 229.358 3.40367 230.662C3.86293 231.973 4.44371 233.238 5.13849 234.44C6.58897 236.89 8.64287 238.929 11.1046 240.361C13.6502 241.831 16.4947 242.708 19.4263 242.927H19.9482C22.1234 243.068 24.2988 242.651 26.2669 241.714C28.2204 240.813 30.1059 239.772 31.9087 238.599C35.5758 236.325 39.0644 233.975 42.3742 231.55C48.5422 227.184 54.4175 222.418 59.9624 217.284V217.679L50.2586 202.962L50.5125 203.061C44.109 204.64 39.0737 206.035 35.5899 206.909L31.6126 207.91L30.5829 208.164C30.461 208.177 30.338 208.177 30.2161 208.164L30.5547 208.037L31.5702 207.727L35.5335 206.599C38.9891 205.655 43.9962 204.189 50.3996 202.553H50.5548L50.6536 202.694L60.5267 217.327L60.6677 217.538L60.4843 217.721C55.007 222.924 49.1928 227.76 43.0795 232.199C39.779 234.595 36.267 236.949 32.5858 239.247C30.7374 240.443 28.8046 241.503 26.8029 242.419C24.7145 243.406 22.4082 243.843 20.1033 243.688H19.5392C16.4904 243.466 13.5329 242.55 10.8931 241.009C8.32663 239.515 6.1853 237.39 4.67302 234.835C3.95362 233.588 3.35392 232.276 2.88181 230.916C2.47394 229.574 2.1721 228.203 1.97911 226.814C1.88038 226.123 1.79573 225.404 1.697 224.756L1.55599 222.74C1.45726 221.401 1.37263 220.076 1.288 218.779C0.653303 208.305 0.399409 198.874 0.216051 190.952C0.0326934 183.029 -0.00965441 176.629 0.00445003 172.189C0.00445003 170.018 0.00445003 168.312 0.00445003 167.1V165.761C-0.00658255 165.6 0.00292451 165.439 0.0326865 165.281Z" fill="#263238"/>
<path d="M110.456 222.952C110.137 223.049 109.803 223.092 109.469 223.078C108.56 223.115 107.65 223.082 106.747 222.98C105.404 222.83 104.078 222.562 102.783 222.176C101.201 221.687 99.6667 221.055 98.1994 220.287C95.5662 218.862 93.1014 217.145 90.851 215.17C89.8709 214.414 88.9895 213.538 88.2275 212.562C89.2746 213.211 90.2655 213.947 91.1895 214.761C93.4894 216.602 95.9485 218.234 98.5379 219.639C99.9667 220.385 101.452 221.016 102.981 221.528C104.234 221.936 105.516 222.247 106.817 222.458C109.046 222.825 110.456 222.811 110.456 222.952Z" fill="#263238"/>
<path d="M113.997 198.479C111.868 197.308 109.623 196.363 107.297 195.66C104.907 195.174 102.472 194.947 100.033 194.983C102.46 194.239 105.054 194.239 107.48 194.983C109.956 195.464 112.228 196.683 113.997 198.479Z" fill="#263238"/>
<path d="M107.917 192.164C107.917 192.389 105.929 192.361 103.686 193.01C101.443 193.658 99.7085 194.687 99.5957 194.504C100.693 193.474 102.022 192.724 103.47 192.317C104.919 191.91 106.444 191.857 107.917 192.164Z" fill="#263238"/>
<path d="M35.2515 267.413C35.2515 267.483 34.6027 267.243 33.8411 266.51C32.9038 265.525 32.2805 264.284 32.0499 262.944C31.802 261.611 31.949 260.234 32.473 258.983C32.8961 258.024 33.3757 257.573 33.4462 257.644C33.5167 257.714 33.2346 258.236 32.9666 259.152C32.6182 260.342 32.5506 261.597 32.7691 262.817C32.9807 264.027 33.4628 265.174 34.1796 266.172C34.8425 266.933 35.3221 267.314 35.2515 267.413Z" fill="#263238"/>
<path d="M49.483 269.485C49.483 269.569 48.7637 269.344 47.8751 268.639C46.7324 267.691 45.8491 266.469 45.3081 265.087C44.7443 263.708 44.5545 262.206 44.758 260.731C44.9273 259.603 45.2517 258.983 45.3363 259.011C45.421 259.039 45.3363 259.702 45.3363 260.773C45.3083 262.151 45.5528 263.521 46.0557 264.805C46.5648 266.09 47.3274 267.26 48.2982 268.244C48.9752 269.006 49.5394 269.386 49.483 269.485Z" fill="#263238"/>
<path d="M62.6562 270.457C62.6562 270.528 62.0074 270.288 61.2458 269.612C60.2562 268.698 59.5185 267.545 59.1036 266.263C58.6886 264.982 58.6103 263.616 58.8762 262.295C59.1019 261.28 59.4545 260.745 59.525 260.787C59.1619 262.532 59.2596 264.341 59.8086 266.037C60.3577 267.733 61.3391 269.256 62.6562 270.457Z" fill="#263238"/>
<path d="M75.8442 266.905C75.6327 266.905 75.4493 264.96 74.7159 262.676C73.9825 260.392 73.0515 258.658 73.2348 258.546C74.3251 259.609 75.0844 260.965 75.4211 262.451C75.9955 263.862 76.1426 265.411 75.8442 266.905Z" fill="#263238"/>
<path d="M89.737 261.788C89.5231 260.007 89.1981 258.242 88.7637 256.502C88.1026 254.833 87.3249 253.212 86.4365 251.652C87.937 252.811 89.0049 254.439 89.469 256.276C90.1649 258.033 90.2591 259.972 89.737 261.788Z" fill="#263238"/>
<path d="M99.5254 255.966C99.2337 254.285 98.8572 252.619 98.3971 250.976C97.4661 248.326 95.9429 246.535 96.1121 246.394C97.4623 247.557 98.4869 249.051 99.0853 250.729C99.6837 252.407 99.8353 254.212 99.5254 255.966Z" fill="#263238"/>
<path d="M107.918 250.102C107.538 248.452 107.014 246.839 106.352 245.281C105.475 243.825 104.475 242.448 103.362 241.165C104.922 242.035 106.188 243.349 106.999 244.941C107.811 246.532 108.13 248.329 107.918 250.102Z" fill="#263238"/>
<g opacity="0.3">
<path opacity="0.3" d="M27.0567 207.685C25.1125 206.356 22.7249 205.84 20.4051 206.248C18.0853 206.657 16.0176 207.957 14.6448 209.87C14.0686 210.584 13.7329 211.462 13.6857 212.379C13.6682 212.84 13.7945 213.295 14.0472 213.682C14.2998 214.068 14.6664 214.367 15.0961 214.536C15.7399 214.641 16.4003 214.564 17.0031 214.315C17.606 214.067 18.1276 213.655 18.5094 213.126C20.8724 210.535 23.9824 208.742 27.4093 207.995" fill="black"/>
</g>
<g opacity="0.3">
<path opacity="0.3" d="M100.005 194.969C103.771 194.433 107.466 196.139 111.289 196.661C111.623 196.744 111.971 196.761 112.313 196.711C112.654 196.66 112.982 196.542 113.277 196.365C113.481 196.193 113.641 195.976 113.744 195.731C113.847 195.486 113.89 195.22 113.87 194.955C113.803 194.43 113.577 193.937 113.221 193.545C112.602 192.957 111.867 192.505 111.063 192.219C110.259 191.932 109.404 191.818 108.552 191.882C106.801 191.853 105.055 192.066 103.362 192.516C102.646 192.637 101.961 192.901 101.348 193.29C100.735 193.68 100.207 194.189 99.7935 194.786" fill="black"/>
</g>
<path d="M0.0327148 176.799C0.229388 177.922 0.777544 178.953 1.59829 179.745C1.9519 180.13 2.43482 180.371 2.95501 180.423C3.4752 180.475 3.99631 180.334 4.41917 180.027C4.89872 179.604 5.15262 178.871 5.75911 178.617C6.3656 178.363 7.33882 179.167 8.15688 179.054C9.41217 178.871 9.66605 176.813 10.9778 176.615C12.2895 176.418 13.0934 178.194 14.264 177.87C15.4347 177.546 15.2937 175.755 16.2951 175.149C17.2965 174.543 18.2556 175.318 18.9891 176.037C19.7225 176.756 20.5969 177.616 21.5984 177.377C23.2486 176.968 23.2768 174.022 24.9693 173.796C26.1682 173.655 27.3248 175.107 28.3967 174.557C28.9045 174.289 29.116 173.669 29.525 173.289C30.329 172.541 31.5843 172.809 32.6421 173.049C33.7 173.289 35.0681 173.331 35.604 172.4C33.0542 171.35 30.3057 170.869 27.5505 170.991C26.5893 171.17 25.5958 171.021 24.7296 170.568C24.1795 170.187 23.7563 169.511 23.0934 169.525C22.4305 169.539 22.1062 170.145 21.5561 170.342C20.6675 170.667 19.7648 169.877 19.2993 169.045C18.977 168.156 18.4505 167.354 17.762 166.705C17.1435 166.4 16.4346 166.332 15.7693 166.514C15.1039 166.696 14.5283 167.115 14.1513 167.692C13.4457 168.89 13.0618 170.25 13.037 171.639C11.6265 171.174 11.6266 168.566 10.0892 168.298C9.13008 168.129 8.35433 169.074 7.97351 169.962C7.59269 170.85 7.22594 171.879 6.35147 172.288C5.64625 171.146 4.94106 170.004 4.26404 168.862C4.10795 169.868 3.5941 170.784 2.81684 171.442C2.03958 172.099 1.05107 172.455 0.0327148 172.443" fill="white"/>
<path d="M60.1036 157.133C60.5267 156.33 60.9358 155.526 61.3448 154.723C61.6676 155.014 62.0534 155.227 62.4721 155.345C62.8909 155.463 63.3311 155.482 63.7586 155.402C64.1861 155.321 64.5892 155.143 64.9363 154.881C65.2834 154.619 65.5651 154.28 65.7595 153.891C66.1262 152.904 65.9006 151.65 66.6481 150.874C67.0038 150.577 67.447 150.403 67.9103 150.38C68.3737 150.357 68.8318 150.486 69.2151 150.748C69.9746 151.286 70.6017 151.989 71.0487 152.806C71.3099 151.813 71.792 150.893 72.4591 150.113C72.8098 149.733 73.2761 149.478 73.786 149.389C74.2959 149.3 74.8209 149.381 75.28 149.62C75.8442 149.986 76.2814 150.705 76.9444 150.649C78.2138 150.536 77.7483 148.182 78.8908 147.632C80.0332 147.082 81.1334 148.704 82.2054 148.267C83.2773 147.83 83.1081 146.49 83.9684 146.067C85.2519 145.447 86.4508 147.703 87.8472 147.393C88.5242 147.237 88.9191 146.561 89.4974 146.18C89.9752 145.938 90.5154 145.846 91.0467 145.916C91.5779 145.987 92.0754 146.216 92.4734 146.575C93.2511 147.319 93.8659 148.217 94.2788 149.211C94.6854 149.901 94.9402 150.67 95.0263 151.467C95.0579 151.865 94.9631 152.263 94.7556 152.605C94.548 152.946 94.238 153.214 93.8697 153.37C92.3605 153.849 90.936 151.65 89.4127 152.143C88.2844 152.51 87.8894 154.215 86.7187 154.356C85.5481 154.497 84.7442 152.862 83.5171 152.707C82.1066 152.524 81.345 154.413 80.2448 155.414C79.8712 155.715 79.437 155.932 78.9718 156.051C78.5066 156.17 78.0212 156.187 77.5488 156.101C77.0763 156.016 76.6279 155.829 76.234 155.555C75.84 155.281 75.5099 154.925 75.2659 154.511L73.0375 155.921C72.6639 155.685 72.2401 155.54 71.8002 155.498C71.3603 155.455 70.9166 155.517 70.5049 155.677C70.0932 155.838 69.7249 156.093 69.4298 156.422C69.1348 156.75 68.9211 157.144 68.8061 157.57C68.9472 156.851 68.0445 156.302 67.3957 156.485C66.7122 156.76 66.1409 157.256 65.7736 157.895C65.4072 158.539 64.8292 159.037 64.1376 159.304C63.0374 159.586 61.8667 158.67 60.7807 159.008C59.6946 159.347 58.9471 161.066 57.7482 160.841C56.5493 160.615 56.6058 159.079 57.3392 158.346C58.1475 157.729 59.1439 157.411 60.1601 157.444" fill="white"/>
<path d="M55.8019 188.725C55.8089 188.326 55.6895 187.935 55.4605 187.608C55.2316 187.281 54.905 187.035 54.5276 186.905C54.1502 186.775 53.7413 186.768 53.3596 186.885C52.9779 187.001 52.643 187.236 52.4027 187.554C51.9796 188.104 51.8245 188.964 51.1898 189.176C50.0896 189.599 49.0177 187.893 47.9034 188.287C46.7892 188.682 46.9725 190.317 45.9852 190.67C45.2236 190.924 44.5042 190.205 44.1093 189.514C43.7144 188.823 43.3054 188.006 42.5296 187.85C41.7539 187.695 40.7665 188.696 40.3998 189.627C40.0331 190.557 39.6381 191.685 38.679 191.981C37.3814 192.404 36.2672 191.036 35.6043 189.852C34.9414 188.668 33.813 187.315 32.5154 187.724C31.8351 188.046 31.2978 188.609 31.0062 189.302L27.2686 195.886L27.3532 203.202C29.0739 203.202 29.3701 201.524 29.5111 199.79C29.9143 200.398 30.5116 200.852 31.2057 201.077C31.8998 201.303 32.6498 201.286 33.3335 201.031C34.6979 200.5 35.9547 199.726 37.0429 198.747C38.1407 197.776 39.5295 197.196 40.9922 197.098C42.0359 197.098 43.1502 197.577 44.0669 197.098C44.9837 196.619 45.2941 195.209 45.9852 194.279C46.463 193.762 47.0436 193.351 47.6897 193.072C48.3358 192.793 49.0331 192.651 49.737 192.658C51.1392 192.662 52.5335 192.448 53.8696 192.023C54.5331 191.795 55.0929 191.337 55.4475 190.732C55.802 190.127 55.9277 189.414 55.8019 188.725Z" fill="white"/>
<path d="M99.2149 185.736C99.2514 184.888 99.1755 184.04 98.9892 183.212C98.9046 182.367 99.2431 181.324 100.061 181.14C100.404 181.115 100.749 181.176 101.062 181.319C101.375 181.462 101.647 181.682 101.852 181.958C102.252 182.52 102.813 182.947 103.46 183.184C104.081 182.479 103.46 181.309 103.898 180.45C104.143 180.06 104.528 179.779 104.975 179.666C105.421 179.554 105.894 179.617 106.295 179.843C107.086 180.322 107.734 181.003 108.171 181.817C108.439 180.872 109.821 180.703 110.611 181.253C111.351 181.902 111.873 182.764 112.106 183.72C112.193 183.918 112.238 184.131 112.238 184.347C112.238 184.563 112.193 184.777 112.106 184.975C111.897 185.275 111.578 185.483 111.218 185.553C110.075 185.872 108.858 185.797 107.762 185.341C107.393 185.12 106.964 185.021 106.535 185.059C105.689 185.271 105.59 186.596 104.772 186.906C104.236 187.117 103.601 186.779 103.051 186.976C102.501 187.174 102.233 187.822 101.725 188.09C101.429 188.211 101.101 188.235 100.79 188.159C100.478 188.083 100.198 187.911 99.9906 187.667C99.5863 187.176 99.2928 186.604 99.1303 185.99L99.3137 185.877" fill="white"/>
<path d="M99.2434 215.283C99.1023 216.044 100.104 216.523 100.851 216.396C101.577 216.152 102.33 216 103.094 215.945C103.682 216.093 104.243 216.331 104.758 216.65C105.456 216.944 106.223 217.037 106.971 216.917C107.719 216.798 108.418 216.471 108.99 215.973C108.965 216.732 109.135 217.484 109.483 218.158C109.673 218.488 109.981 218.733 110.345 218.846C110.708 218.958 111.101 218.929 111.444 218.765C111.815 218.427 112.1 218.007 112.276 217.538C112.516 217.087 112.953 216.65 113.447 216.763C113.94 216.876 114.124 217.327 114.42 217.679C115.449 218.891 117.579 218.454 118.651 217.228C119.542 215.895 120.032 214.334 120.062 212.731C120.146 212.04 120.16 211.18 119.582 210.8C119.315 210.658 119.006 210.615 118.71 210.677C118.414 210.738 118.149 210.902 117.96 211.138C117.588 211.611 117.336 212.167 117.227 212.759C117.334 212.326 117.348 211.875 117.267 211.436C117.187 210.997 117.015 210.58 116.762 210.212C116.508 209.844 116.18 209.534 115.798 209.303C115.417 209.071 114.99 208.923 114.547 208.869C114.101 208.864 113.661 208.964 113.262 209.162C112.863 209.36 112.516 209.65 112.25 210.007C111.985 210.365 111.808 210.78 111.734 211.219C111.66 211.659 111.691 212.109 111.825 212.534C111.709 211.866 111.47 211.225 111.119 210.645C110.945 210.353 110.693 210.116 110.392 209.959C110.091 209.802 109.752 209.732 109.413 209.757C108.369 209.912 107.889 211.166 107.636 212.153C107.382 213.14 106.987 214.409 105.957 214.662C104.66 214.987 103.672 213.506 102.473 212.9C101.987 212.66 101.443 212.559 100.903 212.609C100.363 212.658 99.8468 212.857 99.4126 213.182L99.2434 215.283Z" fill="white"/>
<path d="M28.0866 246.112C28.0866 246.112 26.2811 252.442 26.1965 252.442C26.1119 252.442 28.0583 251.342 28.8482 251.61C29.638 251.878 30.3996 252.484 31.2177 252.273C32.5012 251.963 32.7692 249.904 34.0386 249.679C34.6231 249.648 35.1977 249.839 35.6465 250.214C36.0873 250.593 36.6243 250.842 37.198 250.933C37.7763 250.933 38.411 250.44 38.2558 249.89C38.4465 250.624 38.9064 251.259 39.544 251.669C40.1817 252.079 40.9504 252.234 41.6973 252.103C43.181 251.788 44.5833 251.169 45.8158 250.285C47.0447 249.415 48.5511 249.029 50.0471 249.2C50.9608 249.512 51.8438 249.909 52.6848 250.384C53.111 250.61 53.5937 250.707 54.0743 250.665C54.5549 250.622 55.0128 250.441 55.3928 250.144C55.7877 249.749 55.957 249.129 56.4365 248.819C56.7631 248.67 57.1248 248.614 57.4811 248.659C57.8373 248.704 58.174 248.847 58.4534 249.073C59.0061 249.526 59.6511 249.853 60.3435 250.031C60.8866 250.031 61.417 249.867 61.8651 249.56C62.3131 249.253 62.6578 248.818 62.854 248.311C63.3195 247.353 63.5028 246.253 63.9824 245.295C64.1843 244.791 64.5361 244.361 64.9901 244.064C65.4441 243.766 65.9786 243.615 66.5212 243.631C67.0572 243.716 67.5932 244.04 68.1009 243.843C69.1164 243.434 68.5099 241.573 69.4408 241.023C69.6943 240.912 69.968 240.855 70.2447 240.855C70.5215 240.855 70.7952 240.912 71.0487 241.023C73.3684 241.709 75.8632 241.477 78.0163 240.375C77.6207 239.797 77.1018 239.314 76.497 238.96C75.8921 238.607 75.2164 238.392 74.5184 238.331C73.1011 238.22 71.6751 238.319 70.2871 238.627C69.0478 238.737 67.8578 239.164 66.8315 239.867C66.3943 240.248 65.9711 240.756 65.421 240.77C64.4055 240.77 63.7991 239.191 62.8118 239.43C61.8244 239.67 62.0783 241.08 61.3731 241.644C60.6678 242.208 59.61 241.503 58.9048 240.882C58.1996 240.262 57.1276 239.684 56.4365 240.304C55.7454 240.925 55.9287 242.377 55.0261 242.475C54.1234 242.574 54.0247 241.15 53.39 240.502C53.194 240.356 52.9692 240.254 52.7307 240.202C52.4922 240.15 52.2454 240.15 52.0066 240.2C51.7679 240.251 51.5425 240.352 51.3458 240.496C51.149 240.64 50.9852 240.825 50.8652 241.038C50.417 241.935 50.2592 242.95 50.4139 243.941C49.8451 242.789 48.9721 241.814 47.8892 241.122C47.6135 240.96 47.3084 240.854 46.9916 240.81C46.6747 240.767 46.3524 240.786 46.043 240.867C45.7336 240.948 45.4433 241.09 45.1889 241.284C44.9345 241.477 44.721 241.719 44.5606 241.996C44.4195 242.348 44.3772 242.771 44.081 243.011C43.8479 243.143 43.5738 243.183 43.3127 243.123C43.0517 243.063 42.8226 242.907 42.6705 242.687C42.3179 242.264 42.1487 241.728 41.7961 241.277C41.4649 240.911 41.0173 240.67 40.529 240.596C40.0407 240.521 39.5416 240.618 39.1162 240.868C38.707 241.141 38.4058 241.548 38.2642 242.019C38.1226 242.49 38.1495 242.995 38.3404 243.448C37.6835 242.671 36.8212 242.094 35.852 241.783C34.8828 241.472 33.8457 241.44 32.859 241.69C31.8722 241.94 30.9756 242.462 30.2714 243.196C29.5673 243.931 29.0839 244.849 28.8764 245.845L28.0866 246.112Z" fill="white"/>
<path d="M5.64609 234.468C8.32593 235.695 10.8647 236.978 12.5996 234.595C12.9381 235.256 13.4551 235.809 14.092 236.192C14.7289 236.574 15.4603 236.771 16.2032 236.759C16.9461 236.747 17.6707 236.528 18.2952 236.125C18.9197 235.723 19.419 235.154 19.7364 234.482C20.357 233.186 20.3711 231.423 21.6264 230.704C23.0369 229.859 24.8422 231.226 26.5206 231.536C28.5658 231.917 30.5546 230.62 32.0496 229.154C33.3691 227.533 34.935 226.13 36.69 224.995C38.3543 224.149 40.752 223.515 40.7379 221.654C40.7238 219.794 38.4389 219.187 36.8733 219.794C35.4076 220.625 34.0603 221.649 32.8676 222.838C31.5277 223.853 29.4826 224.431 28.2414 223.29C27.5362 222.641 27.0849 221.485 26.1258 221.499C25.1667 221.513 24.7153 222.909 24.7153 223.952C24.7153 224.995 24.2216 226.377 23.1638 226.292C22.1059 226.208 21.9226 224.572 21.161 223.741C20.0326 222.5 17.7618 223.529 17.254 225.15C16.963 226.814 17.257 228.528 18.0862 230L12.5573 222.768L10.9917 228.167C9.96614 226.643 8.5679 225.405 6.92964 224.572C5.22301 223.896 3.17782 224.192 2.47259 225.883C2.13409 226.349 4.03819 233.735 5.64609 234.468Z" fill="white"/>
<path d="M105.012 232.847C104.617 233.27 105.012 233.89 105.153 234.468C105.325 235.034 105.388 235.627 105.337 236.216C105.238 236.794 104.688 237.344 104.11 237.189C103.799 237.105 103.574 236.837 103.292 236.71C102.544 236.371 101.768 236.992 101.021 237.26C98.5384 238.134 95.8304 235.258 93.4044 236.245C91.994 236.794 91.0348 238.5 89.5962 238.204C89.098 238.053 88.6755 237.719 88.4138 237.269C88.1521 236.819 88.0706 236.287 88.1858 235.779C88.4645 234.771 89.0758 233.887 89.9206 233.27C90.759 232.664 91.534 231.974 92.2337 231.212C92.7274 230.578 93.221 229.802 94.025 229.802C95.0828 229.802 95.7457 231.536 96.7471 231.212C97.2831 231.029 97.4523 230.366 97.4241 229.802C97.3254 229.252 97.3254 228.689 97.4241 228.139C97.5506 227.895 97.7271 227.681 97.9419 227.509C98.1568 227.338 98.4053 227.214 98.6713 227.145C98.9373 227.075 99.2148 227.063 99.4859 227.108C99.757 227.153 100.016 227.255 100.245 227.406C101.231 227.974 102.03 228.816 102.544 229.831L105.012 232.847Z" fill="white"/>
<path d="M93.9417 83.2055L101.446 66.8968C95.2347 58.5019 92.3896 48.0885 93.4701 37.7035C94.5507 27.3185 99.4787 17.713 107.285 10.7751C115.092 3.83721 125.213 0.0686762 135.659 0.210271C146.105 0.351866 156.12 4.39335 163.735 11.5403C171.351 18.6873 176.017 28.4228 176.815 38.8333C177.613 49.2438 174.487 59.5762 168.05 67.7996C161.613 76.0231 152.331 81.5427 142.029 83.2737C131.727 85.0046 121.149 82.8216 112.376 77.1538L93.9417 83.2055Z" fill="white"/>
<path d="M93.941 83.2052L112.337 77.0125L112.273 77.2818L111.387 76.333L112.478 77.0253C118.624 80.9761 125.704 83.2361 133.003 83.577C135.191 83.6921 137.385 83.6106 139.558 83.3334C140.674 83.1667 141.803 83.0385 142.945 82.8462L146.383 82.0128C156.56 79.0761 165.237 72.379 170.654 63.2809C173.66 58.2515 175.558 52.6392 176.221 46.8184C176.89 40.6684 176.189 34.4468 174.169 28.5994C172.08 22.4836 168.562 16.9541 163.906 12.4702C159.211 7.83873 153.475 4.39665 147.178 2.43116C141.136 0.608975 134.761 0.170749 128.526 1.14903C122.627 2.05159 116.999 4.24021 112.042 7.55967C103.118 13.541 96.8348 22.7213 94.4926 33.2022C93.5672 37.6528 93.3293 42.2189 93.7871 46.7415C94.5867 53.9747 97.2717 60.8715 101.574 66.7427V66.8196V66.8965C96.7376 77.1536 94.4029 82.1154 93.8769 83.1411C94.3387 82.1154 96.5708 77.1279 101.24 66.7683V66.9222C96.8392 61.0384 94.0811 54.0917 93.2483 46.7928C92.7663 42.2175 92.9869 37.5955 93.9025 33.0868C96.2387 22.4567 102.584 13.1352 111.618 7.05964C116.632 3.68664 122.324 1.45451 128.295 0.520791C134.623 -0.476172 141.094 -0.0379843 147.23 1.80292C153.638 3.76765 159.484 7.23617 164.278 11.9189C169.001 16.4754 172.568 22.0929 174.682 28.3045C176.725 34.2443 177.43 40.5618 176.747 46.8056C176.06 52.702 174.122 58.3841 171.064 63.4733C165.557 72.6896 156.739 79.4581 146.409 82.3975L142.932 83.2309C141.778 83.4232 140.623 83.5514 139.494 83.718C137.294 83.9807 135.075 84.0536 132.862 83.936C125.48 83.5626 118.33 81.2352 112.144 77.192L112.362 76.9356L112.529 77.1279L112.285 77.2048L93.941 83.2052Z" fill="#263238"/>
<path d="M119.829 37.2664L119.983 36.9202L120.188 37.2279C120.352 37.4784 120.583 37.6781 120.855 37.8049L121.201 37.9588L120.893 38.164C120.643 38.3284 120.443 38.5593 120.316 38.8308L120.162 39.177L119.957 38.8564C119.792 38.6093 119.561 38.4138 119.29 38.2922L118.943 38.1383L119.264 37.9332C119.511 37.7685 119.707 37.5373 119.829 37.2664Z" fill="#8547C6"/>
<path d="M109.566 34.7024L109.656 34.51L109.771 34.6895C109.873 34.8333 110.01 34.9482 110.169 35.0229L110.361 35.1127L110.182 35.2281C110.032 35.317 109.915 35.452 109.848 35.6128L109.758 35.8179L109.643 35.6384C109.549 35.4878 109.41 35.371 109.245 35.305L109.053 35.2153L109.232 35.0999C109.376 34.9985 109.491 34.8615 109.566 34.7024Z" fill="#8547C6"/>
<path d="M141.893 52.1906L141.983 51.9983L142.098 52.1778C142.195 52.3211 142.328 52.4361 142.483 52.5112L142.689 52.601L142.509 52.7164C142.359 52.8053 142.242 52.9402 142.175 53.101L142.085 53.3062L141.957 53.1138C141.864 52.9712 141.73 52.8596 141.572 52.7933L141.38 52.7035L141.56 52.5753C141.703 52.4789 141.818 52.3461 141.893 52.1906Z" fill="#8547C6"/>
<path d="M157.71 43.2285L157.864 42.8823L158.07 43.1901C158.232 43.4474 158.469 43.6488 158.75 43.7671L159.083 43.921L158.775 44.1261C158.525 44.2906 158.325 44.5214 158.198 44.7929L158.044 45.1391L157.839 44.8314C157.677 44.5781 157.446 44.3775 157.172 44.2543L156.825 44.1005L157.146 43.8953C157.393 43.7306 157.589 43.4995 157.71 43.2285Z" fill="#8547C6"/>
<path d="M155.658 30.6379L155.914 30.0609L156.261 30.5866C156.534 31.0113 156.927 31.3459 157.39 31.5483L157.954 31.8048L157.428 32.151C157.007 32.4282 156.673 32.8196 156.466 33.2794L156.21 33.8564L155.863 33.3307C155.593 32.9079 155.205 32.5736 154.747 32.369L154.17 32.1125L154.696 31.7663C155.121 31.4931 155.455 31.1005 155.658 30.6379Z" fill="#8547C6"/>
<path d="M116.635 26.7916L116.904 26.2146L117.238 26.7403C117.515 27.1616 117.906 27.4951 118.367 27.702L118.944 27.9585L118.418 28.3047C117.996 28.5818 117.663 28.9732 117.456 29.4331L117.199 30.0101L116.853 29.4844C116.579 29.0597 116.187 28.7252 115.724 28.5227L115.159 28.2662L115.685 27.92C116.1 27.639 116.429 27.2483 116.635 26.7916Z" fill="#8547C6"/>
<g clip-path="url(#clip0)">
<path d="M160.021 34.355C159.877 34.2914 156.376 32.7453 135.645 23.5888C135.232 23.4066 134.765 23.4066 134.353 23.5888L109.976 34.355C108.668 34.9315 108.681 36.8239 109.976 37.3944C114.712 39.4856 122.453 42.9052 134.353 48.1606C134.762 48.3417 135.23 48.3439 135.645 48.1606C136.774 47.6615 152.171 40.8614 152.874 40.5507V58.1888C152.874 59.0809 153.547 59.8483 154.422 59.8897C155.355 59.934 156.125 59.1767 156.125 58.2352V39.95C156.125 39.6897 155.936 39.47 155.682 39.4367C152.632 39.0361 138.247 37.1437 134.79 36.6894C133.79 36.5621 133.167 35.5302 133.43 34.6117C133.637 33.836 134.359 33.3419 135.091 33.3933C135.164 33.3976 158.323 36.4436 158.306 36.4415C158.739 36.4982 159.094 36.7806 159.265 37.1635C159.385 37.4312 159.689 37.5539 159.95 37.429C160.387 37.2201 160.767 36.9452 160.939 36.3229C161.161 35.5166 160.76 34.6807 160.021 34.355Z" fill="#8547C6"/>
<path d="M133.059 51.1024L119.457 45.0949C119.122 44.9467 118.748 45.1974 118.748 45.5698V51.5124C118.748 57.0849 125.886 61.4504 134.998 61.4504C144.111 61.4504 151.249 57.0849 151.249 51.5124V45.5698C151.249 45.1974 150.875 44.9468 150.54 45.0949L136.936 51.1024C135.701 51.6496 134.296 51.6492 133.059 51.1024Z" fill="#8547C6"/>
</g>
<defs>
<clipPath id="clip0">
<rect width="52" height="53" fill="white" transform="translate(109 16)"/>
</clipPath>
</defs>
</svg>
