<svg width="603" height="603" viewBox="0 0 603 603" fill="none" xmlns="http://www.w3.org/2000/svg">
<g clip-path="url(#clip0)">
<path d="M514.419 161.278C544.846 221.904 541.651 307.204 503.625 363.428C465.6 419.652 406.699 462.815 340.176 476.056C292.684 485.511 214.752 487.272 171.336 465.781C127.92 444.29 90.1363 396.34 89.9795 347.919C89.9192 327.019 95.1171 299.595 116.512 277.814C137.014 257.011 174.942 259.507 204.127 260.412C233.313 261.316 266.514 260.629 286.135 238.945C301.162 222.278 303.369 198.098 311.293 177.101C324.752 141.404 357.229 113.533 394.507 105.646C399.673 104.551 404.913 103.838 410.185 103.511C451.189 100.942 490.179 122.071 511.718 157.118L514.419 161.278Z" fill="#EBEBEB"/>
<path d="M416.601 492.265C400.923 476.515 401.043 452.527 405.518 431.76C406.265 428.287 406.543 424.524 408.75 421.786C410.957 419.049 415.214 417.626 418.072 419.652C420.484 421.34 421.027 424.56 422.028 427.31C423.369 430.981 425.718 434.199 428.805 436.596C430.819 438.152 433.448 439.358 435.848 438.538C439.165 437.416 440.262 433.328 440.865 429.855C441.991 423.374 443.117 416.898 444.242 410.426C444.661 406.92 445.638 403.504 447.137 400.308C448.813 397.208 451.743 394.579 455.217 394.278C458.69 393.976 462.453 396.581 462.513 400.103C462.385 401.564 462.155 403.015 461.826 404.444C461.669 405.903 462.055 407.616 463.345 408.267C464.636 408.918 466.228 408.183 467.446 407.351C471.655 404.492 474.899 400.416 477.974 396.34C481.049 392.264 484.088 388.067 488.02 384.822C491.952 381.578 497.005 379.371 502.022 379.998C507.039 380.626 511.79 384.63 512.164 389.731C512.538 394.832 508.799 399.307 504.928 402.708C499.262 407.753 492.897 411.953 486.03 415.178C484.729 415.622 483.602 416.466 482.81 417.59C481.604 419.76 483.425 422.414 485.572 423.62C487.984 424.946 490.854 425.175 493.507 426.032C496.16 426.888 498.874 428.564 499.429 431.302C500.213 435.101 496.583 438.285 493.23 440.202C486.495 444.029 479.152 446.668 471.522 448.005C468.796 448.475 465.974 448.813 463.586 450.236C461.199 451.659 459.402 454.553 460.21 457.219C461.018 459.884 464.057 461.247 466.818 461.235C469.58 461.223 472.245 460.198 474.959 459.691C480.06 458.75 486.151 460.185 488.466 464.865C489.142 466.45 489.441 468.169 489.341 469.889C489.24 471.609 488.743 473.283 487.887 474.778C486.184 477.738 483.909 480.329 481.194 482.4C472.001 490.113 460.928 495.253 449.102 497.294C437.344 499.139 426.912 498.331 416.637 492.325" fill="#455A64"/>
<path d="M508.003 384.039C507.882 384.144 507.749 384.233 507.605 384.304L506.399 385.04C505.35 385.679 503.794 386.619 501.828 387.898C496.266 391.466 490.981 395.45 486.018 399.813C482.846 402.563 479.517 405.722 475.996 409.172C472.474 412.621 468.76 416.408 464.961 420.424C460.982 424.64 457.234 429.069 453.733 433.69C451.912 436.102 450.224 438.67 448.499 441.275L443.265 449.223C436.565 459.262 430.429 469.665 424.886 480.386C420.415 489.171 416.781 498.357 414.032 507.822C412.191 514.213 410.9 520.749 410.172 527.36C409.943 529.699 409.799 531.52 409.738 532.763C409.738 533.354 409.738 533.824 409.654 534.174C409.666 534.334 409.666 534.495 409.654 534.656C409.641 534.495 409.641 534.334 409.654 534.174C409.654 533.824 409.654 533.354 409.654 532.763C409.654 531.557 409.762 529.687 409.967 527.336C410.572 520.69 411.783 514.114 413.585 507.69C416.318 498.172 419.952 488.936 424.439 480.109C429.963 469.352 436.095 458.919 442.807 448.861C444.58 446.172 446.328 443.531 448.041 440.914C449.753 438.297 451.478 435.728 453.311 433.304C456.831 428.677 460.603 424.248 464.611 420.038C468.41 415.973 472.161 412.259 475.706 408.81C479.252 405.361 482.617 402.225 485.801 399.487C490.779 395.139 496.094 391.191 501.696 387.681C503.686 386.475 505.314 385.522 506.339 384.919L507.545 384.244L508.003 384.039Z" fill="#263238"/>
<path d="M453.456 433.34C453.386 432.829 453.362 432.312 453.384 431.796C453.384 430.807 453.384 429.384 453.48 427.599C453.613 424.054 453.95 419.157 454.36 413.779C454.77 408.4 455.048 403.516 455.12 399.982C455.12 398.209 455.181 396.786 455.181 395.797C455.15 395.281 455.179 394.763 455.265 394.253C455.383 394.755 455.44 395.27 455.434 395.785C455.518 396.774 455.566 398.197 455.579 399.982C455.579 403.528 455.41 408.424 455.012 413.827C454.614 419.23 454.216 423.945 453.938 427.623C453.818 429.288 453.721 430.687 453.637 431.808C453.636 432.324 453.575 432.838 453.456 433.34Z" fill="#263238"/>
<path d="M499.525 433.026C498.916 433.055 498.306 433.018 497.704 432.918C496.498 432.821 494.858 432.665 492.772 432.532C488.611 432.23 482.846 432.025 476.466 432.086C470.087 432.146 464.322 432.447 460.161 432.785C458.075 432.942 456.399 433.111 455.229 433.219C454.627 433.319 454.017 433.359 453.408 433.34C453.99 433.162 454.588 433.037 455.193 432.966C456.399 432.785 458.039 432.544 460.125 432.327C464.286 431.869 470.075 431.495 476.466 431.422C481.925 431.36 487.383 431.574 492.82 432.062C494.906 432.254 496.583 432.484 497.74 432.665C498.344 432.736 498.941 432.857 499.525 433.026Z" fill="#263238"/>
<path d="M425.055 479.421C424.957 479.231 424.888 479.028 424.85 478.818C424.717 478.348 424.56 477.769 424.379 477.069C423.969 475.538 423.439 473.319 422.836 470.581C421.63 465.082 420.134 457.424 418.639 448.97C417.143 440.516 415.744 432.845 414.623 427.334C414.08 424.657 413.622 422.51 413.284 420.81C413.14 420.098 413.019 419.507 412.935 419.025C412.872 418.822 412.843 418.61 412.85 418.398C412.953 418.585 413.023 418.789 413.055 419.001C413.188 419.471 413.345 420.05 413.525 420.749C413.936 422.269 414.454 424.488 415.069 427.238C416.275 432.737 417.771 440.383 419.266 448.849C420.761 457.315 422.16 464.961 423.282 470.473C423.825 473.162 424.283 475.369 424.621 477.009C424.765 477.721 424.874 478.3 424.97 478.782C425.026 478.991 425.055 479.205 425.055 479.421Z" fill="#263238"/>
<path d="M487.779 470.979C487.574 471.055 487.358 471.1 487.14 471.112L485.319 471.377C483.642 471.618 481.363 471.92 478.601 472.294C472.933 473.066 465.106 474.235 456.459 475.526C447.812 476.816 439.973 477.938 434.281 478.553C431.434 478.89 429.131 479.132 427.539 479.264L425.706 479.409C425.489 479.428 425.271 479.428 425.055 479.409C425.256 479.333 425.467 479.284 425.682 479.264L427.515 478.999L434.232 478.082C439.901 477.311 447.727 476.153 456.375 474.862C465.022 473.572 472.861 472.45 478.541 471.823C481.387 471.498 483.69 471.257 485.294 471.124L487.128 470.967C487.344 470.94 487.563 470.944 487.779 470.979Z" fill="#263238"/>
<path d="M174.556 143.092C173.402 141.175 171.76 139.597 169.799 138.519C167.838 137.441 165.626 136.901 163.389 136.953C161.155 137.047 158.962 137.584 156.937 138.532C154.913 139.48 153.096 140.821 151.594 142.477C150.183 143.984 148.953 145.926 149.182 147.964C149.363 148.91 149.793 149.791 150.43 150.514C151.066 151.237 151.884 151.777 152.8 152.077C154.652 152.655 156.625 152.73 158.516 152.294C165.017 151.088 171.095 148.76 174.484 143.092" fill="#455A64"/>
<path d="M185.977 138.991C183.401 135.042 181.804 130.536 181.318 125.847C180.831 121.157 181.469 116.419 183.179 112.025C184.071 109.806 185.688 107.394 188.075 107.37C190.463 107.346 192.14 109.782 193.008 111.977C194.754 116.671 195.07 121.776 193.915 126.649C192.76 131.522 190.187 135.943 186.52 139.353" fill="#455A64"/>
<path d="M142.235 98.4096C141.485 100.266 141.118 102.255 141.155 104.257C141.193 106.259 141.634 108.232 142.453 110.06C144.109 113.71 146.585 116.929 149.689 119.466C155.514 124.544 163.956 127.317 171.553 128.668C172.518 120.154 166.971 111.893 163.895 107.877C159.071 101.533 146.396 93.0067 142.248 98.4096" fill="#455A64"/>
<path d="M195.529 153.584C194.63 152.654 193.671 151.784 192.659 150.979C188.698 148.123 184.369 145.815 179.791 144.117C175.165 142.413 170.163 141.996 165.319 142.911C163.864 143.219 162.454 143.71 161.122 144.37C160.613 144.572 160.143 144.862 159.735 145.227C161.589 144.508 163.496 143.935 165.439 143.514C170.183 142.782 175.034 143.25 179.549 144.877C184.055 146.568 188.352 148.77 192.357 151.437" fill="#263238"/>
<path d="M195.613 153.668L190.608 148.338C186.363 143.888 180.526 137.725 174.158 130.827C167.791 123.929 162.098 117.561 158.022 113.038L153.198 107.623C152.638 106.926 152.012 106.284 151.329 105.706C151.803 106.461 152.339 107.175 152.933 107.84C154.018 109.179 155.61 111.097 157.6 113.436C161.58 118.128 167.248 124.519 173.555 131.418C179.863 138.316 185.856 144.418 190.21 148.772C192.381 150.943 194.166 152.68 195.42 153.861" fill="#263238"/>
<path d="M187.376 118.079C187.087 118.516 186.86 118.991 186.701 119.49C186.454 120.045 186.248 120.618 186.086 121.203C185.839 121.971 185.633 122.752 185.471 123.543C185.021 125.6 184.778 127.696 184.747 129.802C184.741 132.383 185.008 134.958 185.543 137.484C186.125 139.98 186.974 142.406 188.076 144.72C188.989 146.616 190.092 148.414 191.368 150.087C191.864 150.738 192.396 151.362 192.96 151.956C193.352 152.418 193.78 152.85 194.238 153.246C194.974 153.922 195.372 153.91 195.444 153.861C194.196 152.552 193.021 151.175 191.923 149.737C190.746 148.045 189.721 146.254 188.86 144.382C187.818 142.089 187.01 139.697 186.448 137.243C185.921 134.78 185.638 132.272 185.603 129.754C185.598 127.696 185.776 125.641 186.134 123.615C186.689 120.19 187.533 118.188 187.376 118.079Z" fill="#263238"/>
<path d="M152.738 203.354C154.573 184.737 140.969 168.158 122.353 166.323C103.737 164.488 87.1576 178.092 85.3224 196.708C83.4872 215.324 97.0909 231.903 115.707 233.738C134.323 235.573 150.902 221.97 152.738 203.354Z" fill="#8547C6"/>
<path d="M113.907 487.423C116.473 461.393 97.4516 438.212 71.4222 435.646C45.3927 433.08 22.2116 452.101 19.6456 478.13C17.0796 504.16 36.1005 527.341 62.13 529.907C88.1594 532.473 111.341 513.452 113.907 487.423Z" fill="#EBEBEB"/>
<path d="M598.838 497.119C601.442 470.705 582.14 447.181 555.726 444.577C529.312 441.974 505.788 461.275 503.184 487.689C500.581 514.103 519.882 537.627 546.296 540.231C572.71 542.835 596.234 523.533 598.838 497.119Z" fill="#EBEBEB"/>
<path d="M478.738 306.076C480.11 292.471 470.194 280.329 456.589 278.957C442.984 277.585 430.842 287.501 429.47 301.106C428.097 314.712 438.014 326.853 451.619 328.225C465.224 329.598 477.366 319.681 478.738 306.076Z" fill="#8547C6"/>
<path d="M390.105 84.6009L358.664 84.42C357.632 84.4325 356.612 84.6495 355.664 85.0585C354.716 85.4674 353.858 86.0602 353.14 86.8025C352.423 87.5449 351.859 88.4221 351.483 89.3835C351.106 90.3449 350.924 91.3715 350.946 92.4038V98.1081C350.965 99.1323 350.782 100.15 350.408 101.103C350.033 102.057 349.474 102.927 348.763 103.664C348.051 104.401 347.202 104.991 346.262 105.399C345.323 105.807 344.312 106.026 343.288 106.044L281.999 105.766C279.929 105.706 277.968 104.829 276.544 103.326C275.12 101.822 274.349 99.8163 274.401 97.7463V92.042C274.428 91.0172 274.253 89.9971 273.886 89.0399C273.519 88.0828 272.967 87.2074 272.262 86.4637C271.556 85.72 270.711 85.1227 269.774 84.7058C268.838 84.2889 267.828 84.0607 266.803 84.0341L255.744 83.9738L228.223 83.8532C224.974 83.8453 221.755 84.4776 218.75 85.7141C215.745 86.9506 213.014 88.767 210.711 91.0596C208.408 93.3521 206.58 96.0759 205.33 99.0752C204.081 102.075 203.434 105.291 203.428 108.54L201.752 505.314C201.726 511.871 204.304 518.17 208.919 522.828C213.534 527.487 219.809 530.123 226.366 530.158L388.199 530.905C391.449 530.92 394.67 530.294 397.678 529.063C400.686 527.833 403.422 526.022 405.73 523.734C408.038 521.446 409.873 518.726 411.13 515.729C412.387 512.732 413.041 509.517 413.055 506.267L414.731 109.493C414.752 106.24 414.131 103.016 412.904 100.004C411.677 96.9919 409.868 94.2515 407.581 91.9394C405.293 89.6273 402.572 87.7891 399.573 86.5299C396.575 85.2706 393.357 84.6152 390.105 84.6009Z" fill="white"/>
<path d="M390.334 70.7199L228.187 69.948C223.548 69.9274 218.949 70.821 214.655 72.5779C210.36 74.3348 206.454 76.9206 203.159 80.1874C199.865 83.4542 197.246 87.3382 195.452 91.6174C193.659 95.8966 192.726 100.487 192.707 105.127L190.982 511.645C190.944 521.01 194.625 530.006 201.217 536.657C207.81 543.308 216.773 547.069 226.137 547.114L388.332 547.886C392.971 547.908 397.569 547.016 401.864 545.26C406.158 543.505 410.064 540.92 413.359 537.654C416.654 534.388 419.273 530.505 421.067 526.227C422.861 521.948 423.794 517.358 423.813 512.719L425.537 106.2C425.572 96.8276 421.884 87.8245 415.282 81.171C408.681 74.5174 399.707 70.7582 390.334 70.7199ZM413.055 506.387C413.041 509.637 412.387 512.852 411.13 515.849C409.873 518.846 408.038 521.566 405.73 523.854C403.422 526.142 400.686 527.953 397.678 529.184C394.67 530.414 391.449 531.04 388.199 531.026L226.378 530.278C219.819 530.246 213.541 527.612 208.923 522.953C204.306 518.295 201.726 511.994 201.752 505.435L203.428 108.661C203.442 105.411 204.097 102.197 205.354 99.2003C206.611 96.204 208.446 93.4847 210.754 91.1977C213.062 88.9108 215.798 87.101 218.806 85.8719C221.814 84.6427 225.035 84.0182 228.284 84.0341L255.793 84.1547H266.852C267.876 84.1813 268.886 84.4095 269.823 84.8264C270.759 85.2433 271.604 85.8406 272.31 86.5843C273.015 87.328 273.568 88.2034 273.935 89.1605C274.302 90.1177 274.477 91.1378 274.449 92.1625V97.8669C274.398 99.9368 275.168 101.943 276.592 103.446C278.016 104.949 279.978 105.827 282.047 105.887L343.336 106.164C345.391 106.114 347.343 105.254 348.768 103.773C350.192 102.292 350.975 100.308 350.946 98.2528V92.5605C350.927 91.5358 351.11 90.5173 351.484 89.5633C351.859 88.6093 352.418 87.7383 353.129 87.0003C353.84 86.2623 354.689 85.6716 355.629 85.262C356.568 84.8523 357.579 84.6318 358.604 84.613L390.045 84.7577C393.293 84.7719 396.507 85.4258 399.502 86.682C402.498 87.9382 405.216 89.7722 407.503 92.0791C409.79 94.386 411.6 97.1208 412.83 100.127C414.06 103.134 414.685 106.353 414.671 109.601L413.055 506.387Z" fill="#263238"/>
<path d="M404.493 127.969C404.512 128.187 404.485 128.407 404.415 128.614C404.344 128.822 404.232 129.012 404.084 129.174C403.936 129.335 403.756 129.464 403.555 129.553C403.355 129.641 403.138 129.686 402.919 129.686C402.7 129.686 402.483 129.641 402.282 129.553C402.082 129.464 401.902 129.335 401.754 129.174C401.606 129.012 401.493 128.822 401.423 128.614C401.352 128.407 401.326 128.187 401.345 127.969C401.379 127.575 401.56 127.209 401.851 126.942C402.143 126.675 402.524 126.527 402.919 126.527C403.314 126.527 403.695 126.675 403.986 126.942C404.277 127.209 404.458 127.575 404.493 127.969Z" fill="#455A64"/>
<path d="M404.492 133.637C404.492 133.949 404.4 134.255 404.226 134.515C404.052 134.774 403.806 134.977 403.517 135.096C403.228 135.216 402.911 135.247 402.604 135.186C402.298 135.125 402.016 134.975 401.795 134.754C401.574 134.533 401.424 134.252 401.363 133.945C401.302 133.639 401.333 133.321 401.453 133.032C401.572 132.744 401.775 132.497 402.035 132.323C402.294 132.15 402.6 132.057 402.912 132.057C403.331 132.057 403.733 132.223 404.03 132.52C404.326 132.816 404.492 133.218 404.492 133.637Z" fill="#455A64"/>
<path d="M404.493 139.293C404.512 139.511 404.485 139.731 404.415 139.939C404.344 140.146 404.232 140.337 404.084 140.498C403.936 140.66 403.756 140.789 403.555 140.877C403.355 140.965 403.138 141.011 402.919 141.011C402.7 141.011 402.483 140.965 402.282 140.877C402.082 140.789 401.902 140.66 401.754 140.498C401.606 140.337 401.493 140.146 401.423 139.939C401.352 139.731 401.326 139.511 401.345 139.293C401.379 138.899 401.56 138.533 401.851 138.266C402.143 137.999 402.524 137.851 402.919 137.851C403.314 137.851 403.695 137.999 403.986 138.266C404.277 138.533 404.458 138.899 404.493 139.293Z" fill="#455A64"/>
<path d="M224.195 125.315C224.395 125.444 224.581 125.594 224.75 125.762L226.378 127.161L232.408 132.479L232.481 132.539V132.66C232.481 135.361 232.481 138.509 232.541 141.958V142.248H232.251H226.39H226.089V141.934C226.089 140.149 226.089 138.316 226.089 136.362L226.402 136.676H222.411L222.724 136.362C222.724 138.268 222.724 140.137 222.724 141.934V142.308H222.423H216.127H215.874V142.019C215.874 138.569 215.874 135.446 215.874 132.72V132.612L215.946 132.551L221.976 127.233L223.604 125.834C223.778 125.667 223.968 125.518 224.171 125.388C223.997 125.594 223.807 125.788 223.604 125.967L222.025 127.486L216.248 132.889L216.32 132.72C216.32 135.446 216.32 138.569 216.381 142.019L216.091 141.741H222.386L222.073 142.043V136.157H226.728V142.043L226.414 141.741H232.276L231.986 142.019C231.986 138.569 231.986 135.422 232.046 132.72L232.119 132.889C229.707 130.646 227.777 128.813 226.342 127.486C225.703 126.859 225.136 126.365 224.762 125.967C224.558 125.763 224.369 125.546 224.195 125.315Z" fill="#263238"/>
<path d="M305.673 411.246C305.687 411.686 305.57 412.12 305.336 412.492C305.102 412.865 304.762 413.159 304.359 413.337C303.957 413.515 303.51 413.568 303.077 413.49C302.644 413.413 302.244 413.207 301.929 412.9C301.613 412.594 301.397 412.2 301.307 411.769C301.217 411.338 301.258 410.89 301.424 410.483C301.591 410.076 301.876 409.727 302.241 409.483C302.607 409.239 303.038 409.109 303.478 409.111C303.763 409.107 304.045 409.158 304.31 409.263C304.574 409.368 304.815 409.524 305.019 409.722C305.223 409.921 305.386 410.157 305.498 410.419C305.61 410.68 305.67 410.961 305.673 411.246Z" fill="#263238"/>
<path d="M312.499 411.246C312.511 411.685 312.391 412.118 312.155 412.489C311.92 412.86 311.579 413.153 311.176 413.329C310.773 413.505 310.327 413.556 309.895 413.477C309.462 413.398 309.064 413.191 308.749 412.884C308.435 412.577 308.22 412.183 308.131 411.752C308.042 411.322 308.084 410.874 308.251 410.468C308.418 410.061 308.702 409.714 309.068 409.47C309.434 409.226 309.864 409.097 310.304 409.099C310.589 409.096 310.872 409.149 311.136 409.255C311.401 409.361 311.642 409.519 311.846 409.718C312.05 409.917 312.212 410.155 312.324 410.417C312.436 410.679 312.495 410.961 312.499 411.246Z" fill="#263238"/>
<path d="M319.313 411.246C319.327 411.686 319.21 412.12 318.976 412.492C318.741 412.865 318.401 413.159 317.999 413.337C317.596 413.515 317.15 413.568 316.717 413.491C316.284 413.413 315.884 413.207 315.568 412.9C315.253 412.594 315.036 412.2 314.946 411.769C314.857 411.338 314.898 410.89 315.064 410.483C315.231 410.076 315.515 409.727 315.881 409.483C316.247 409.239 316.678 409.109 317.118 409.111C317.403 409.105 317.686 409.155 317.951 409.26C318.216 409.364 318.458 409.52 318.663 409.719C318.867 409.917 319.03 410.155 319.141 410.417C319.253 410.679 319.311 410.961 319.313 411.246Z" fill="#263238"/>
<path d="M406.76 153.476H209.711V423.74H406.76V153.476Z" fill="#E0E0E0"/>
<path d="M367.299 322.111L382.218 343.517L375.066 288.306L396.388 279.864C396.388 279.864 423.306 383.05 387.21 384.497C387.21 384.497 362.234 383.809 343.589 340.574L367.299 322.111Z" fill="#FFBE9D"/>
<path d="M397.039 282.542L396.702 280.286C395.399 271.591 396.641 264.608 396.292 260.074C395.652 251.632 394.893 251.632 393.88 251.885C391.263 252.464 394.446 266.755 391.974 264.042C389.502 261.328 390.117 246.157 387.403 246.88C383.87 247.821 387.476 262.727 387.681 264.017C387.886 265.308 386.041 265.597 385.908 264.428C385.727 262.751 383.339 245.192 379.878 246.084C377.936 246.579 379.239 249.956 379.239 249.956C379.239 249.956 382.688 266.261 381.036 266.622C379.383 266.984 376.996 257.481 376.429 254.225C375.862 250.969 374.113 249.931 372.883 251.318C372.051 252.271 373.546 262.281 374.173 265.489C374.801 268.697 376.706 277.476 372.232 273.81C367.758 270.144 362.994 268.986 361.498 269.553C360.003 270.12 360.292 272.411 362.029 272.882C363.85 273.571 365.566 274.509 367.13 275.667C368.376 276.607 369.509 277.688 370.507 278.887C372.841 281.559 374.404 284.815 375.03 288.306" fill="#FFBE9D"/>
<path d="M390.382 277.223C390.382 277.296 389.852 277.428 389.092 277.947C388.065 278.626 387.32 279.654 386.994 280.841L386.813 281.517L386.451 280.914C385.939 280.059 385.282 279.3 384.509 278.67C382.999 277.446 381.153 276.706 379.215 276.548C377.719 276.415 376.803 276.681 376.803 276.548C377.548 276.17 378.383 276.007 379.215 276.078C381.289 276.114 383.29 276.849 384.895 278.164C385.728 278.827 386.425 279.647 386.945 280.576L386.415 280.648C386.606 279.999 386.924 279.394 387.35 278.868C387.777 278.342 388.303 277.906 388.899 277.585C389.341 277.307 389.862 277.18 390.382 277.223Z" fill="#EB996E"/>
<path d="M270.53 203.669C265.839 213.788 268.866 226.27 263.873 236.231C261.762 240.428 258.205 244.492 258.952 249.123C259.519 252.585 262.462 255.515 262.184 259.001C261.979 261.581 260.05 263.644 258.398 265.634C256.745 267.623 255.19 270.18 255.889 272.677C256.48 274.751 258.566 276.295 258.615 278.489C258.489 279.771 258.077 281.007 257.409 282.107C254.502 288.62 257.409 296.905 263.246 300.933C269.083 304.961 277.284 304.901 283.579 301.536C289.874 298.171 294.288 291.888 296.278 285.026C297.633 280.248 297.911 275.229 297.094 270.331C296.276 265.433 294.383 260.776 291.551 256.697C288.294 252.078 283.88 248.327 280.95 243.491C277.332 237.461 276.258 230.225 276.717 223.194C277.175 216.163 279.032 209.35 280.889 202.584" fill="#263238"/>
<path d="M220.614 349.185L209.711 376.658V423.74H219.046L241.851 360.799" fill="#FFBE9D"/>
<path d="M348.534 423.74L336.655 395.568C332.918 386.645 331.939 376.808 333.845 367.323L337.921 346.966L353.876 365.695L380.408 339.055L368.348 318.324C345.748 279.418 316.792 285.569 316.792 285.569L278.682 282.602C278.682 282.602 254.562 283.036 240.657 298.811C236.135 303.948 217.815 347.702 217.815 347.702L248.122 364.212L253.706 351.682L257.324 367.432C259.796 375.983 259.833 385.055 257.433 393.626L246.964 423.776L348.534 423.74Z" fill="#8547C6"/>
<path d="M268.371 284.447C268.371 284.447 268.106 284.447 267.66 284.676C267.019 284.981 266.507 285.502 266.213 286.148C265.73 287.153 265.61 288.296 265.875 289.38C266.335 290.809 266.95 292.184 267.708 293.48C268.597 295.154 269.013 297.038 268.914 298.931C268.803 301.128 267.879 303.204 266.321 304.756C265.454 305.602 264.411 306.247 263.267 306.645C262.123 307.043 260.905 307.185 259.7 307.06C258.466 306.804 257.256 306.445 256.082 305.986C255.529 305.782 254.935 305.716 254.35 305.794C253.766 305.871 253.21 306.091 252.729 306.432C251.795 307.203 251.114 308.237 250.776 309.399C250.408 310.545 250.229 311.742 250.245 312.945C250.185 315.357 250.317 317.829 249.184 319.916C248.656 320.955 247.811 321.8 246.772 322.328C245.812 322.799 244.754 323.034 243.684 323.015C241.771 323.015 239.921 322.326 238.475 321.073C237.329 320.031 236.437 318.74 235.87 317.299C235.445 316.223 235.146 315.102 234.977 313.958C234.874 313.239 234.821 312.514 234.82 311.787C234.783 311.535 234.783 311.279 234.82 311.027C234.82 311.027 234.82 312.077 235.17 313.91C235.375 315.028 235.703 316.12 236.147 317.166C236.72 318.55 237.598 319.787 238.716 320.784C240.096 321.933 241.84 322.553 243.636 322.533C244.645 322.57 245.646 322.33 246.528 321.839C247.41 321.348 248.141 320.624 248.641 319.747C249.666 317.841 249.558 315.441 249.594 313.029C249.58 311.766 249.763 310.509 250.137 309.303C250.516 308.014 251.277 306.87 252.319 306.022C252.879 305.629 253.524 305.375 254.201 305.28C254.879 305.186 255.569 305.254 256.215 305.48C257.345 305.93 258.511 306.285 259.7 306.541C260.817 306.664 261.948 306.538 263.011 306.173C264.075 305.809 265.044 305.213 265.851 304.431C267.316 302.983 268.196 301.047 268.323 298.991C268.447 297.188 268.084 295.385 267.274 293.769C266.526 292.438 265.931 291.026 265.501 289.561C265.233 288.397 265.396 287.176 265.959 286.123C266.3 285.431 266.89 284.892 267.611 284.616C267.849 284.503 268.109 284.446 268.371 284.447Z" fill="#FAFAFA"/>
<path d="M259.29 379.661C259.29 379.661 259.579 379.769 260.122 379.866C260.936 380.009 261.774 379.912 262.534 379.588C263.705 379.091 264.698 378.25 265.38 377.176C266.204 375.712 266.522 374.016 266.285 372.352C265.995 370.299 265.439 368.293 264.633 366.383C263.672 364.138 263.117 361.742 262.992 359.304C262.992 356.626 264.403 354.19 264.922 351.573C265.154 350.562 265.166 349.514 264.957 348.498C264.748 347.482 264.323 346.524 263.711 345.686C263.099 344.849 262.315 344.153 261.41 343.646C260.506 343.138 259.503 342.831 258.47 342.745C257.114 342.62 255.749 342.857 254.514 343.433C253.308 343.951 252.102 344.639 250.788 345.085C249.515 345.573 248.127 345.678 246.796 345.386C244.239 344.771 242.237 343.288 240.042 342.974C238.001 342.707 235.929 343.131 234.157 344.18C232.691 345.02 231.51 346.28 230.768 347.798C230.2 348.954 229.88 350.215 229.827 351.501C229.796 352.599 229.926 353.696 230.213 354.757C230.213 354.757 230.213 354.757 230.117 354.564C230.032 354.364 229.96 354.158 229.9 353.949C229.675 353.165 229.566 352.352 229.574 351.537C229.589 350.208 229.885 348.897 230.443 347.69C231.188 346.078 232.403 344.728 233.928 343.819C235.784 342.698 237.967 342.247 240.115 342.54C242.466 342.83 244.529 344.325 246.929 344.868C248.137 345.133 249.398 345.028 250.547 344.566C251.753 344.12 252.959 343.457 254.237 342.902C255.568 342.292 257.035 342.038 258.494 342.166C259.611 342.27 260.693 342.61 261.668 343.164C262.644 343.717 263.491 344.471 264.153 345.377C264.816 346.282 265.278 347.317 265.511 348.415C265.743 349.512 265.74 350.646 265.501 351.742C264.91 354.516 263.511 356.867 263.535 359.364C263.648 361.733 264.174 364.063 265.091 366.25C265.879 368.209 266.418 370.259 266.695 372.352C266.923 374.122 266.554 375.918 265.646 377.454C264.91 378.585 263.839 379.458 262.582 379.95C261.794 380.253 260.933 380.311 260.11 380.119C259.812 380.016 259.534 379.861 259.29 379.661Z" fill="#FAFAFA"/>
<path d="M316.225 321.64C316.489 321.859 316.727 322.105 316.937 322.376C317.524 323.164 317.935 324.069 318.143 325.029C318.504 326.555 318.425 328.153 317.914 329.636C317.595 330.57 317.1 331.434 316.454 332.181C315.701 332.986 314.795 333.634 313.789 334.086C312.719 334.546 311.71 335.137 310.786 335.847C309.868 336.677 309.285 337.813 309.146 339.043C308.917 340.321 308.917 341.708 308.603 343.131C308.266 344.618 307.469 345.96 306.324 346.966C305.138 347.985 303.804 348.819 302.368 349.439C300.909 350.135 299.381 350.676 297.81 351.055C296.144 351.496 294.387 351.455 292.744 350.934C291.911 350.617 291.16 350.113 290.55 349.463C289.958 348.798 289.466 348.05 289.09 347.244C288.468 345.678 287.734 344.158 286.895 342.697C285.988 341.385 284.61 340.474 283.048 340.152C279.973 339.405 276.693 339.899 273.774 338.741C272.436 338.185 271.223 337.365 270.21 336.328C269.196 335.292 268.403 334.062 267.877 332.711C266.904 330.379 266.644 327.811 267.129 325.331C267.565 323.312 268.383 321.396 269.541 319.686C270.404 318.402 271.407 317.217 272.532 316.153C273.252 315.499 274.009 314.887 274.799 314.32C275.074 314.117 275.365 313.936 275.668 313.777C275.425 314.013 275.163 314.227 274.884 314.416C274.128 315.018 273.403 315.658 272.713 316.334C271.626 317.404 270.663 318.594 269.843 319.879C268.743 321.563 267.977 323.442 267.587 325.415C267.149 327.806 267.426 330.272 268.383 332.506C268.885 333.792 269.642 334.964 270.607 335.95C271.573 336.936 272.728 337.718 274.003 338.247C276.741 339.32 279.961 338.838 283.217 339.585C284.926 339.947 286.434 340.943 287.438 342.371C288.297 343.859 289.046 345.407 289.681 347.002C289.978 347.76 290.424 348.449 290.994 349.03C291.564 349.61 292.246 350.069 292.998 350.379C294.522 350.867 296.156 350.905 297.701 350.488C299.231 350.127 300.719 349.606 302.139 348.932C303.519 348.342 304.804 347.549 305.95 346.58C307.019 345.661 307.763 344.422 308.073 343.047C308.386 341.696 308.398 340.321 308.652 338.982C308.822 337.641 309.473 336.407 310.485 335.509C311.448 334.794 312.492 334.195 313.596 333.724C314.565 333.31 315.439 332.703 316.165 331.939C316.793 331.237 317.277 330.417 317.588 329.527C318.086 328.209 318.22 326.781 317.976 325.394C317.732 324.006 317.119 322.709 316.201 321.64H316.225Z" fill="#FAFAFA"/>
<path d="M323.908 422.992C323.908 422.992 323.908 423.077 323.727 423.197C323.508 423.364 323.258 423.483 322.991 423.547C322.47 423.639 321.934 423.583 321.443 423.384C320.953 423.186 320.528 422.854 320.217 422.426C319.4 420.989 319.094 419.319 319.349 417.686C319.422 416.703 319.341 415.714 319.108 414.755C318.76 413.723 318.092 412.827 317.202 412.199C316.214 411.496 315.101 410.988 313.922 410.703C312.716 410.378 311.365 410.197 309.99 409.919C306.973 409.413 304.254 407.795 302.368 405.385C301.319 404.066 300.568 402.536 300.166 400.9C299.765 399.264 299.722 397.56 300.041 395.906C300.379 394.13 301.107 392.452 302.173 390.992C303.238 389.532 304.615 388.327 306.203 387.464C307.807 386.571 309.472 385.92 310.955 385.052C312.451 384.286 313.648 383.042 314.356 381.518C314.948 379.984 315.156 378.327 314.959 376.694C314.85 375.078 314.609 373.486 314.501 371.87C314.339 369.516 314.662 367.154 315.45 364.93C316.238 362.705 317.474 360.667 319.081 358.939C320.689 357.212 322.634 355.833 324.796 354.887C326.958 353.942 329.29 353.45 331.65 353.442C333.028 353.397 334.404 353.572 335.726 353.961C335.374 353.939 335.024 353.894 334.677 353.828C333.674 353.697 332.661 353.649 331.65 353.684C327.923 353.811 324.334 355.129 321.411 357.446C319.29 359.186 317.613 361.406 316.52 363.923C315.428 366.44 314.95 369.18 315.128 371.918C315.236 373.462 315.49 375.042 315.598 376.742C315.801 378.461 315.586 380.202 314.971 381.82C314.216 383.456 312.945 384.799 311.353 385.643C309.797 386.559 308.133 387.21 306.529 388.055C305.019 388.873 303.709 390.018 302.696 391.405C301.682 392.792 300.989 394.387 300.668 396.075C300.361 397.643 300.397 399.259 300.774 400.812C301.151 402.365 301.859 403.818 302.851 405.071C304.632 407.385 307.212 408.95 310.087 409.461C311.438 409.751 312.776 409.944 314.042 410.293C315.275 410.598 316.434 411.143 317.455 411.897C318.412 412.587 319.118 413.569 319.469 414.695C319.705 415.694 319.778 416.724 319.687 417.746C319.414 419.311 319.665 420.921 320.398 422.329C320.679 422.734 321.067 423.055 321.518 423.254C321.968 423.454 322.466 423.526 322.955 423.463C323.305 423.385 323.632 423.223 323.908 422.992Z" fill="#FAFAFA"/>
<path d="M293.733 424.512C294.552 424.237 295.27 423.725 295.796 423.041C296.372 422.219 296.714 421.256 296.784 420.255C296.897 418.933 296.571 417.61 295.856 416.492C294.964 415.14 293.831 413.963 292.515 413.019C291.116 411.945 289.488 410.969 287.92 409.678C286.177 408.397 284.874 406.606 284.194 404.553C283.555 402.358 283.808 400.054 283.687 397.787C283.647 395.601 282.903 393.486 281.565 391.757C280.324 390.135 278.602 388.949 276.644 388.368C274.868 387.847 272.984 387.818 271.193 388.284C269.642 388.756 268.191 389.508 266.912 390.503C265.821 391.332 264.659 392.062 263.439 392.686C262.494 393.147 261.462 393.406 260.411 393.445C259.747 393.479 259.084 393.364 258.47 393.108C258.256 393.028 258.056 392.914 257.879 392.77C258.675 393.106 259.537 393.255 260.399 393.204C261.406 393.119 262.385 392.836 263.282 392.372C264.464 391.724 265.589 390.977 266.647 390.141C267.958 389.089 269.455 388.291 271.06 387.789C272.941 387.258 274.932 387.258 276.813 387.789C278.901 388.408 280.739 389.675 282.059 391.407C283.487 393.245 284.278 395.497 284.314 397.823C284.435 400.151 284.194 402.406 284.785 404.444C285.432 406.371 286.653 408.054 288.282 409.268C289.802 410.534 291.418 411.535 292.829 412.645C294.183 413.623 295.337 414.851 296.23 416.263C296.977 417.461 297.296 418.876 297.134 420.279C297.028 421.335 296.632 422.341 295.988 423.185C295.582 423.729 295.03 424.147 294.397 424.391C294.237 424.452 294.071 424.496 293.902 424.524C293.794 424.512 293.733 424.512 293.733 424.512Z" fill="#FAFAFA"/>
<path d="M289.367 363.573C290.278 363.703 291.199 363.743 292.117 363.693C293.01 363.633 294.083 363.44 295.337 363.247C296.782 362.952 298.271 362.952 299.715 363.247C300.567 363.437 301.369 363.807 302.067 364.333C302.854 364.915 303.386 365.779 303.55 366.745C303.677 367.765 303.518 368.8 303.092 369.736C302.718 370.688 302.236 371.605 301.886 372.582C301.114 374.499 301.633 376.73 301.427 379.106C301.343 380.368 300.767 381.545 299.824 382.386C298.806 383.166 297.56 383.59 296.278 383.592C295.06 383.615 293.844 383.481 292.66 383.194L289.247 382.29C287.034 381.844 284.921 380.998 283.012 379.794C282.128 379.162 281.425 378.309 280.974 377.321C280.556 376.387 280.39 375.36 280.491 374.342C280.579 373.393 280.894 372.48 281.408 371.677C281.875 370.97 282.387 370.294 282.939 369.651C284.438 367.567 286.388 365.848 288.644 364.622C289.276 364.333 289.946 364.134 290.634 364.031C290.874 364.002 291.117 364.002 291.357 364.031C290.453 364.2 289.573 364.483 288.74 364.875C286.579 366.155 284.719 367.887 283.289 369.953C282.084 371.167 281.287 372.727 281.01 374.415C280.932 375.373 281.109 376.335 281.522 377.203C281.935 378.071 282.569 378.815 283.362 379.359C285.211 380.518 287.253 381.335 289.392 381.771C291.618 382.525 293.941 382.952 296.29 383.038C297.439 383.031 298.555 382.654 299.474 381.964C300.292 381.22 300.789 380.186 300.861 379.082C301.078 376.887 300.547 374.535 301.391 372.425C302.236 370.314 303.381 368.674 303.092 366.877C302.951 366.033 302.494 365.274 301.813 364.755C301.171 364.266 300.437 363.914 299.655 363.718C298.269 363.401 296.834 363.364 295.434 363.609C294.228 363.766 293.022 363.923 292.177 363.947C291.482 363.979 290.786 363.926 290.103 363.79L289.585 363.657L289.367 363.573Z" fill="#FAFAFA"/>
<path d="M375.79 331.035C375.79 331.035 375.79 331.107 375.862 331.252C375.888 331.486 375.854 331.722 375.766 331.939C375.568 332.344 375.268 332.691 374.896 332.944C374.524 333.198 374.092 333.351 373.643 333.387C372.509 333.58 371.074 333.266 369.699 334.05C368.191 334.993 367.073 336.449 366.552 338.15C365.888 340.02 365.708 342.227 365.105 344.542C364.463 347.044 363.159 349.327 361.33 351.151C360.315 352.165 359.106 352.964 357.776 353.5C356.446 354.037 355.021 354.3 353.587 354.275C352.053 354.25 350.553 353.812 349.246 353.008C347.903 352.167 346.831 350.957 346.158 349.523C345.447 348.093 345.247 346.463 345.591 344.904C345.929 343.384 346.629 342.058 347.063 340.707C347.573 339.442 347.599 338.034 347.135 336.751C346.604 335.536 345.774 334.474 344.723 333.664C342.721 332 340.297 331.083 338.368 329.636C336.511 328.326 335.188 326.391 334.641 324.185C334.184 322.376 334.306 320.469 334.991 318.734C335.506 317.439 336.31 316.28 337.342 315.345C337.983 314.751 338.711 314.258 339.501 313.886C339.766 313.765 339.984 313.681 340.128 313.632C340.273 313.584 340.345 313.56 340.357 313.572C339.315 314.082 338.352 314.74 337.499 315.526C336.535 316.466 335.79 317.606 335.316 318.866C334.702 320.537 334.618 322.356 335.075 324.076C335.623 326.168 336.908 327.993 338.693 329.214C340.562 330.601 342.986 331.481 345.109 333.218C346.226 334.091 347.106 335.232 347.666 336.534C347.941 337.228 348.072 337.971 348.052 338.717C348.015 339.461 347.873 340.196 347.63 340.9C347.171 342.311 346.484 343.626 346.17 345.037C345.863 346.463 346.05 347.952 346.701 349.258C347.327 350.578 348.314 351.694 349.547 352.478C350.761 353.236 352.157 353.653 353.587 353.684C354.941 353.709 356.287 353.462 357.544 352.959C358.801 352.455 359.945 351.705 360.908 350.753C362.658 349.009 363.908 346.826 364.526 344.434C365.141 342.178 365.346 339.947 366.057 338.018C366.634 336.231 367.849 334.72 369.47 333.773C370.978 332.952 372.485 333.326 373.535 333.17C373.947 333.152 374.349 333.033 374.705 332.822C375.06 332.612 375.359 332.317 375.573 331.964C375.73 331.68 375.805 331.359 375.79 331.035Z" fill="#FAFAFA"/>
<path d="M281.674 288.439C282.566 279.02 283.338 269.143 283.338 269.143C283.338 269.143 271.398 265.935 270.446 249.847C269.541 234.507 275.451 199.882 275.451 199.882C284.4 197.28 293.932 197.473 302.768 200.437C311.605 203.4 319.326 208.993 324.897 216.465L316.334 292.889C315.345 301.753 306.927 307.964 297.436 306.83C287.884 305.624 280.817 297.424 281.674 288.439Z" fill="#FFBE9D"/>
<path d="M277.272 227.5C277.213 228.028 277.363 228.558 277.69 228.977C278.017 229.396 278.494 229.671 279.02 229.743C279.277 229.79 279.541 229.784 279.796 229.727C280.051 229.67 280.291 229.562 280.504 229.41C280.716 229.259 280.896 229.066 281.033 228.843C281.17 228.621 281.26 228.373 281.3 228.115C281.358 227.586 281.206 227.056 280.876 226.639C280.547 226.221 280.066 225.95 279.539 225.884C279.284 225.837 279.021 225.842 278.768 225.899C278.515 225.955 278.275 226.062 278.064 226.213C277.853 226.364 277.673 226.555 277.537 226.776C277.401 226.997 277.311 227.243 277.272 227.5Z" fill="#263238"/>
<path d="M274.835 225.751C275.052 226.041 276.705 225.052 278.887 225.281C281.07 225.51 282.566 226.752 282.831 226.487C283.096 226.222 282.747 225.884 282.108 225.281C281.227 224.53 280.136 224.071 278.984 223.966C277.847 223.855 276.704 224.104 275.716 224.678C274.968 225.16 274.715 225.619 274.835 225.751Z" fill="#263238"/>
<path d="M299.594 230.093C299.539 230.622 299.692 231.152 300.021 231.571C300.35 231.989 300.828 232.264 301.355 232.336C301.612 232.382 301.876 232.377 302.131 232.32C302.385 232.263 302.626 232.155 302.839 232.003C303.051 231.851 303.231 231.659 303.368 231.436C303.505 231.214 303.595 230.966 303.635 230.708C303.693 230.178 303.541 229.646 303.212 229.227C302.883 228.808 302.402 228.534 301.874 228.465C301.617 228.418 301.353 228.424 301.098 228.481C300.844 228.538 300.603 228.646 300.39 228.797C300.178 228.949 299.998 229.142 299.861 229.365C299.725 229.587 299.634 229.835 299.594 230.093Z" fill="#263238"/>
<path d="M297.195 228.308C297.424 228.597 299.076 227.608 301.259 227.826C303.442 228.043 304.877 229.297 305.202 229.032C305.528 228.766 305.118 228.429 304.467 227.826C303.587 227.075 302.495 226.616 301.343 226.511C300.206 226.4 299.063 226.649 298.075 227.223C297.363 227.717 297.086 228.175 297.195 228.308Z" fill="#263238"/>
<path d="M287.402 243.371C286.281 242.898 285.107 242.566 283.905 242.382C283.362 242.261 282.843 242.104 282.783 241.719C282.791 241.138 282.976 240.575 283.314 240.103L285.388 236.014C288.27 230.189 290.429 225.377 290.212 225.257C289.995 225.136 287.45 229.779 284.556 235.604L282.554 239.717C282.145 240.358 281.966 241.119 282.047 241.875C282.108 242.082 282.215 242.271 282.362 242.428C282.509 242.585 282.69 242.706 282.892 242.78C283.191 242.892 283.503 242.969 283.82 243.009C284.995 243.277 286.198 243.399 287.402 243.371Z" fill="#263238"/>
<path d="M283.338 269.083C290.789 269.916 298.325 268.663 305.106 265.465C305.106 265.465 298.895 275.836 283.193 272.797L283.338 269.083Z" fill="#EB996E"/>
<path d="M287.8 248.725C288.268 248.242 288.851 247.887 289.495 247.692C290.139 247.498 290.821 247.472 291.478 247.616C291.955 247.706 292.41 247.891 292.814 248.161C293.218 248.43 293.563 248.778 293.83 249.184C294.084 249.579 294.212 250.042 294.197 250.511C294.182 250.981 294.025 251.435 293.746 251.813C293.354 252.169 292.865 252.401 292.34 252.479C291.816 252.556 291.281 252.475 290.803 252.247C289.808 251.779 288.914 251.119 288.174 250.305C287.947 250.109 287.759 249.872 287.619 249.606C287.551 249.476 287.523 249.329 287.538 249.183C287.553 249.037 287.611 248.899 287.704 248.786" fill="#EB996E"/>
<path d="M293.673 245.517C293.323 245.457 293.082 247.833 290.887 249.316C288.692 250.8 286.196 250.293 286.147 250.619C286.147 250.764 286.666 251.137 287.727 251.27C289.112 251.418 290.506 251.081 291.671 250.317C292.791 249.573 293.578 248.423 293.866 247.109C294.047 246.133 293.842 245.517 293.673 245.517Z" fill="#263238"/>
<path d="M317.395 233.301C319.127 233.103 320.879 233.387 322.46 234.121C324.047 234.876 325.27 236.229 325.861 237.883C326.357 239.569 326.193 241.38 325.403 242.949C324.612 244.502 323.483 245.858 322.098 246.916C321.162 247.746 320.042 248.342 318.83 248.653C318.223 248.802 317.588 248.798 316.982 248.642C316.376 248.487 315.818 248.184 315.357 247.761" fill="#FFBE9D"/>
<path d="M317.323 243.612C317.118 243.612 317.757 244.746 319.349 244.48C319.776 244.383 320.179 244.201 320.535 243.947C320.891 243.692 321.193 243.369 321.423 242.997C321.976 242.173 322.358 241.246 322.545 240.271C322.771 239.236 322.621 238.155 322.123 237.22C321.912 236.822 321.614 236.478 321.25 236.212C320.886 235.947 320.467 235.768 320.024 235.689C318.432 235.496 317.829 236.557 318.01 236.605C318.191 236.653 318.806 236.231 319.819 236.605C320.43 236.912 320.912 237.427 321.177 238.057C321.442 238.687 321.474 239.391 321.266 240.042C320.905 241.767 320.06 243.298 319.108 243.66C318.155 244.022 317.443 243.528 317.323 243.612Z" fill="#EB996E"/>
<path d="M279.587 195.915C278.718 198.248 278.626 200.799 279.323 203.19C280.021 205.58 281.471 207.681 283.458 209.181C287.535 212.099 292.937 211.979 297.93 212.799C302.923 213.619 308.374 216.61 308.7 221.615C308.905 224.642 307.096 227.777 308.181 230.611C309.46 233.916 313.982 234.893 315.586 238.064C318.155 243.154 311.45 248.75 312.402 254.37C312.969 257.71 316.117 260.134 316.804 263.439C317.781 268.154 313.669 273.738 316.708 277.464C319.047 280.323 323.642 279.37 326.91 277.645C330.179 275.921 333.688 273.605 337.246 274.558C339.393 275.137 341.045 276.813 343.011 277.85C344.802 278.778 346.827 279.158 348.833 278.944C350.84 278.73 352.739 277.93 354.294 276.645C355.849 275.359 356.992 273.645 357.58 271.715C358.169 269.785 358.177 267.725 357.603 265.79C356.723 262.944 354.685 260.641 352.972 258.205C351.26 255.769 349.8 252.85 350.343 249.919C350.753 247.676 352.273 245.831 353.43 243.889C354.588 241.948 355.372 239.391 354.275 237.401C352.333 233.892 346.496 234.869 343.999 231.733C340.562 227.44 346.677 220.807 344.361 215.802C341.756 210.158 331.445 212.353 328.816 206.708C327.851 204.646 328.346 202.222 327.863 200.003C326.778 194.926 321.037 192.249 315.863 191.923C310.69 191.597 305.456 192.852 300.33 192.092C297.52 191.682 294.831 190.669 292.057 190.078C289.29 189.329 286.352 189.529 283.712 190.645C281.167 191.923 279.358 194.938 280.19 197.651" fill="#263238"/>
<path d="M283.109 206.6C281.915 209.308 280.118 211.708 277.854 213.614C275.59 215.521 272.92 216.884 270.048 217.599C269.583 213.699 269.608 209.757 270.12 205.864C270.644 201.944 272.406 198.294 275.149 195.444C276.541 194.039 278.267 193.01 280.166 192.455C282.065 191.9 284.074 191.837 286.003 192.273" fill="#263238"/>
<path d="M272.677 283.555C271.374 283.868 268.817 327.923 297.641 329.588C324.933 331.156 328.273 285.81 328.273 285.81C328.273 285.81 308.736 274.582 272.677 283.555Z" fill="#FFBE9D"/>
<path d="M282.313 222.555C282.18 222.881 280.672 222.555 278.839 222.555C277.006 222.555 275.499 222.821 275.366 222.483C275.233 222.145 276.741 221.277 278.839 221.277C280.938 221.277 282.445 222.242 282.313 222.555Z" fill="#263238"/>
<path d="M304.31 223.496C304.238 223.496 304.238 223.315 304.31 223.122V223.448C303.206 223.03 302.056 222.746 300.885 222.603C298.823 222.386 297.182 223.062 297.002 222.736C296.929 222.603 297.255 222.218 297.966 221.856C298.917 221.423 299.966 221.248 301.005 221.349C301.693 221.374 302.369 221.538 302.991 221.833C303.613 222.127 304.168 222.545 304.623 223.062L304.78 223.315L304.672 223.387C304.503 223.508 304.37 223.544 304.31 223.496Z" fill="#263238"/>
<path d="M315.852 260.966C318.264 264.042 317.54 268.456 316.455 272.206C315.369 275.957 314.043 279.985 315.393 283.627C316.286 285.955 318.24 287.836 318.722 290.284C319.494 294.107 316.455 297.52 315.345 301.307C314.542 304.184 314.885 307.261 316.303 309.89C317.722 312.519 320.104 314.496 322.95 315.405C325.795 316.314 328.882 316.084 331.562 314.764C334.242 313.444 336.305 311.136 337.318 308.326C337.397 309.956 337.993 311.518 339.022 312.785C340.05 314.052 341.456 314.957 343.035 315.369C344.629 315.723 346.29 315.636 347.839 315.117C349.388 314.599 350.766 313.669 351.827 312.426C352.864 311.168 353.61 309.696 354.01 308.115C354.41 306.535 354.456 304.885 354.142 303.285C354.66 304.162 355.346 304.929 356.16 305.542C356.974 306.154 357.901 306.6 358.888 306.854C359.874 307.108 360.901 307.166 361.91 307.023C362.919 306.88 363.89 306.54 364.767 306.023C365.644 305.505 366.411 304.819 367.024 304.005C367.636 303.191 368.082 302.264 368.336 301.277C368.591 300.29 368.648 299.263 368.505 298.255C368.363 297.246 368.023 296.275 367.505 295.398C365.551 291.985 361.173 290.26 359.847 286.546C358.809 283.615 360.027 280.431 360.413 277.344C360.764 274.044 360.153 270.713 358.656 267.752C357.158 264.791 354.837 262.326 351.971 260.653" fill="#263238"/>
<path d="M354.443 305.685C354.489 305.557 354.541 305.433 354.6 305.311C354.784 304.973 354.934 304.618 355.046 304.25C355.507 302.841 355.598 301.338 355.312 299.884C354.908 297.576 353.607 295.521 351.694 294.168C350.452 293.412 349.076 292.905 347.641 292.672C346.013 292.408 344.402 292.045 342.817 291.587C341.019 291.013 339.478 289.827 338.464 288.234C337.458 286.481 336.887 284.513 336.799 282.493C336.462 278.321 338.006 274.051 338.15 269.541C338.196 268.4 338.103 267.258 337.873 266.14C337.612 265.007 337.207 263.913 336.667 262.884C335.473 260.77 333.96 258.854 332.181 257.204C330.432 255.443 328.562 253.742 326.778 251.825C324.928 249.89 323.543 247.56 322.725 245.011C322.139 242.41 322.107 239.714 322.629 237.1C323.039 234.531 323.642 232.059 323.931 229.598C324.299 227.216 324.072 224.78 323.268 222.507C322.379 220.378 320.902 218.546 319.011 217.225C315.396 214.846 311.257 213.381 306.951 212.956C303.175 212.56 299.428 211.919 295.735 211.038C292.671 210.242 289.834 208.744 287.45 206.66C285.659 205.091 284.161 203.217 283.024 201.125C282.291 199.813 281.723 198.416 281.336 196.964C281.2 196.464 281.095 195.957 281.022 195.444C281.022 195.444 281.167 195.963 281.456 196.928C281.891 198.349 282.485 199.717 283.229 201.004C284.395 203.041 285.9 204.864 287.679 206.395C290.045 208.41 292.843 209.855 295.856 210.616C299.536 211.457 303.266 212.066 307.023 212.437C311.413 212.857 315.635 214.339 319.325 216.754C321.313 218.13 322.866 220.047 323.799 222.278C324.649 224.644 324.898 227.185 324.522 229.671C324.233 232.179 323.63 234.664 323.232 237.196C322.717 239.722 322.746 242.328 323.316 244.842C324.1 247.296 325.432 249.54 327.212 251.403C328.936 253.296 330.83 255.021 332.603 256.769C334.414 258.471 335.956 260.44 337.173 262.607C337.72 263.688 338.126 264.835 338.379 266.02C338.608 267.183 338.702 268.368 338.657 269.553C338.476 274.208 336.932 278.417 337.258 282.469C337.323 284.404 337.852 286.294 338.801 287.981C339.744 289.493 341.193 290.622 342.89 291.165C344.474 291.634 346.085 292.009 347.714 292.286C349.194 292.543 350.611 293.083 351.887 293.878C352.852 294.584 353.669 295.474 354.29 296.496C354.911 297.518 355.324 298.653 355.505 299.836C355.772 301.327 355.639 302.863 355.119 304.286C354.986 304.656 354.816 305.011 354.612 305.347C354.568 305.465 354.511 305.578 354.443 305.685Z" fill="#455A64"/>
<path d="M362.596 289.838C362.105 289.813 361.621 289.712 361.161 289.536C359.835 289.011 358.676 288.136 357.808 287.004C356.43 285.218 355.549 283.101 355.252 280.865C354.963 277.94 354.822 275.001 354.829 272.062C354.702 268.526 353.627 265.09 351.718 262.112C350.667 260.461 349.379 258.974 347.895 257.698C346.296 256.363 344.518 255.259 342.613 254.418C340.564 253.546 338.592 252.505 336.715 251.306C334.777 249.948 333.233 248.101 332.241 245.952C330.179 241.586 329.986 236.521 330.155 231.564C330.324 226.607 330.589 221.687 329.262 217.225C328.64 215.045 327.536 213.034 326.03 211.339C324.554 209.711 322.777 208.385 320.796 207.432C317.117 205.72 313.173 204.647 309.134 204.26C305.335 203.766 301.753 203.464 298.545 202.813C292.045 201.607 287.33 198.52 285.074 195.637C284.17 194.56 283.456 193.337 282.964 192.019C282.789 191.558 282.656 191.082 282.566 190.596C282.566 190.596 282.723 191.079 283.084 191.971C283.612 193.261 284.349 194.456 285.267 195.505C287.547 198.291 292.202 201.318 298.63 202.403C301.814 203.018 305.383 203.295 309.194 203.766C313.302 204.139 317.315 205.212 321.061 206.938C323.087 207.917 324.912 209.267 326.44 210.917C328.011 212.676 329.166 214.766 329.817 217.032C331.192 221.639 330.914 226.68 330.746 231.576C330.577 236.472 330.746 241.477 332.76 245.674C333.704 247.731 335.177 249.5 337.029 250.8C338.876 251.984 340.816 253.016 342.83 253.887C344.771 254.758 346.581 255.894 348.209 257.264C350.333 259.108 352.054 261.371 353.264 263.911C354.474 266.451 355.146 269.213 355.24 272.025C355.372 275.306 355.24 278.26 355.565 280.805C355.835 282.99 356.666 285.067 357.977 286.835C358.802 287.955 359.909 288.837 361.185 289.392C362.102 289.754 362.608 289.802 362.596 289.838Z" fill="#455A64"/>
<path d="M304.865 237.739C304.696 237.739 304.527 237.522 304.491 237.208C304.455 236.895 304.563 236.617 304.732 236.593C304.901 236.569 305.07 236.81 305.106 237.124C305.142 237.437 305.046 237.715 304.865 237.739Z" fill="#EB996E"/>
<path d="M299.86 237.582C299.691 237.582 299.57 237.281 299.691 236.979C299.811 236.678 300.113 236.569 300.234 236.69C300.354 236.81 300.354 237.027 300.234 237.232C300.113 237.437 300.029 237.582 299.86 237.582Z" fill="#EB996E"/>
<path d="M302.561 239.681C302.469 239.663 302.388 239.61 302.334 239.534C302.28 239.457 302.258 239.363 302.272 239.27C302.272 239.065 302.441 238.897 302.609 238.909C302.656 238.916 302.7 238.932 302.74 238.957C302.779 238.982 302.814 239.014 302.841 239.052C302.868 239.091 302.887 239.134 302.897 239.18C302.907 239.225 302.908 239.273 302.899 239.319C302.9 239.365 302.893 239.41 302.877 239.453C302.861 239.497 302.836 239.536 302.805 239.57C302.774 239.603 302.736 239.63 302.694 239.649C302.652 239.668 302.607 239.679 302.561 239.681Z" fill="#EB996E"/>
<path d="M273.967 236.533C273.798 236.533 273.69 236.243 273.726 235.93C273.762 235.616 273.943 235.375 274.112 235.399C274.28 235.423 274.389 235.689 274.353 236.002C274.317 236.316 274.148 236.557 273.967 236.533Z" fill="#EB996E"/>
<path d="M279.02 236.641C278.851 236.641 278.719 236.412 278.731 236.159C278.743 235.906 278.9 235.701 279.068 235.713C279.237 235.725 279.37 235.942 279.358 236.195C279.346 236.448 279.189 236.653 279.02 236.641Z" fill="#EB996E"/>
<path d="M276.56 238.233C276.379 238.233 276.234 237.98 276.234 237.678C276.234 237.377 276.367 237.1 276.548 237.1C276.729 237.1 276.861 237.353 276.861 237.666C276.861 237.98 276.729 238.233 276.56 238.233Z" fill="#EB996E"/>
<path d="M300.74 329.238C300.14 327.887 299.734 326.458 299.534 324.993C299.127 323.574 298.924 322.104 298.931 320.627C299.528 321.98 299.934 323.408 300.137 324.872C300.542 326.292 300.745 327.762 300.74 329.238Z" fill="#EB996E"/>
<path d="M252.874 289.163C252.599 288.941 252.341 288.699 252.102 288.439C251.409 287.716 250.813 286.905 250.329 286.027C248.54 282.699 248.132 278.799 249.196 275.173C249.566 273.979 250.102 272.842 250.788 271.796C251.511 270.711 252.404 269.71 253.2 268.576C254.018 267.476 254.381 266.102 254.213 264.741C253.811 263.316 253.153 261.975 252.271 260.785C251.83 260.11 251.47 259.386 251.198 258.627C250.934 257.83 250.807 256.994 250.824 256.154C250.917 254.443 251.444 252.782 252.355 251.33C253.253 249.808 254.37 248.426 255.672 247.23C256.974 246.024 258.397 244.987 259.772 243.865C261.156 242.797 262.421 241.584 263.547 240.247C264.607 238.949 265.369 237.434 265.778 235.809C266.329 232.647 266.268 229.409 265.597 226.27C265.035 223.363 264.82 220.399 264.958 217.442C265.127 214.849 265.655 212.292 266.526 209.844C267.814 206.335 269.804 203.126 272.375 200.413C272.756 199.99 273.158 199.588 273.581 199.207C273.888 198.909 274.215 198.631 274.558 198.375C274.825 198.144 275.107 197.93 275.402 197.736C275.166 197.999 274.908 198.241 274.63 198.459C274.377 198.689 274.063 198.978 273.714 199.34C273.364 199.702 272.93 200.1 272.508 200.546C268.301 205.215 265.783 211.16 265.356 217.43C265.254 220.345 265.488 223.263 266.056 226.125C266.754 229.342 266.824 232.663 266.261 235.906C265.808 237.626 264.985 239.228 263.849 240.597C262.699 241.97 261.405 243.215 259.989 244.312C258.603 245.445 257.179 246.506 255.901 247.652C254.646 248.779 253.558 250.078 252.669 251.511C251.798 252.872 251.291 254.433 251.198 256.046C251.181 256.811 251.295 257.574 251.535 258.301C251.795 259.021 252.134 259.708 252.548 260.351C253.459 261.606 254.133 263.016 254.538 264.512C254.727 266.008 254.324 267.518 253.417 268.721C252.645 269.927 251.74 270.892 251.005 271.929C250.336 272.933 249.808 274.025 249.437 275.173C248.359 278.709 248.691 282.526 250.366 285.822C251.063 287.033 251.906 288.155 252.874 289.163Z" fill="#263238"/>
<path d="M353.744 231.829C353.417 231.671 353.067 231.565 352.707 231.516C352.191 231.493 351.679 231.602 351.218 231.835C350.758 232.067 350.365 232.414 350.078 232.842C349.867 233.144 349.728 233.49 349.671 233.854C349.615 234.218 349.643 234.589 349.752 234.941C349.897 235.385 350.128 235.796 350.432 236.151C350.736 236.505 351.107 236.796 351.524 237.007C351.941 237.218 352.395 237.344 352.861 237.378C353.327 237.413 353.795 237.355 354.238 237.208C355.304 236.815 356.194 236.054 356.747 235.061C357.953 232.963 357.434 229.96 355.746 227.717C354.885 226.535 353.711 225.616 352.357 225.064C350.873 224.576 349.293 224.451 347.75 224.702C346.047 224.92 344.318 224.801 342.661 224.352C340.938 223.846 339.348 222.964 338.006 221.771C336.56 220.546 335.428 218.993 334.704 217.241C333.98 215.489 333.686 213.59 333.845 211.701C334.024 209.862 334.072 208.012 333.99 206.166C333.829 204.409 333.105 202.751 331.927 201.438C329.538 199.04 326.367 197.58 322.991 197.326C319.914 197.14 316.827 197.225 313.765 197.579C311.057 197.868 308.323 197.828 305.625 197.458C301.718 196.805 298.041 195.17 294.939 192.707C293.799 191.825 292.774 190.804 291.888 189.668C291.888 189.668 291.973 189.668 292.105 189.849L292.684 190.44C293.45 191.175 294.255 191.867 295.096 192.514C298.204 194.866 301.846 196.412 305.697 197.012C308.36 197.34 311.054 197.34 313.717 197.012C316.813 196.629 319.937 196.525 323.051 196.699C324.749 196.863 326.414 197.269 327.996 197.905C329.665 198.577 331.164 199.611 332.386 200.932C333.649 202.339 334.427 204.114 334.605 205.997C334.7 207.875 334.655 209.757 334.472 211.629C334.306 213.483 334.579 215.351 335.268 217.08C335.976 218.706 337.035 220.155 338.367 221.325C339.647 222.459 341.157 223.302 342.793 223.797C344.384 224.228 346.043 224.343 347.678 224.135C349.296 223.888 350.951 224.033 352.502 224.557C353.95 225.156 355.202 226.145 356.12 227.415C357.88 229.827 358.435 232.999 357.097 235.291C356.483 236.373 355.497 237.196 354.323 237.606C353.797 237.778 353.239 237.834 352.69 237.769C352.14 237.704 351.611 237.521 351.139 237.232C350.304 236.747 349.689 235.955 349.426 235.025C349.319 234.635 349.301 234.226 349.372 233.827C349.443 233.429 349.601 233.051 349.836 232.722C350.154 232.272 350.584 231.913 351.083 231.68C351.582 231.447 352.134 231.349 352.683 231.395C352.963 231.435 353.234 231.53 353.479 231.673L353.744 231.829Z" fill="#263238"/>
<circle cx="276" cy="471" r="25" fill="#8547C6"/>
<circle cx="278.247" cy="470.251" r="20.8801" fill="#7F44BA"/>
<circle cx="280.214" cy="470.345" r="17.0412" fill="#7941B0"/>
<circle cx="281.899" cy="471.094" r="13.4831" fill="#723FA4"/>
<circle cx="283.584" cy="471.094" r="9.92509" fill="#6B3C9A"/>
<path d="M261.551 469.713V473.89C261.551 474.046 261.53 474.191 261.489 474.324C261.448 474.46 261.382 474.578 261.291 474.677C261.201 474.777 261.084 474.855 260.942 474.912C260.803 474.971 260.635 475 260.438 475C260.355 475 260.279 474.994 260.209 474.981C260.14 474.968 260.07 474.949 260 474.923L260.027 474.555C260.032 474.532 260.041 474.514 260.054 474.501C260.065 474.491 260.08 474.484 260.101 474.482C260.122 474.479 260.149 474.478 260.182 474.478C260.213 474.48 260.253 474.482 260.302 474.482C260.504 474.482 260.648 474.434 260.733 474.34C260.818 474.247 260.861 474.098 260.861 473.89V469.713H261.551ZM261.695 468.491C261.695 468.558 261.68 468.621 261.652 468.68C261.626 468.736 261.59 468.787 261.543 468.833C261.499 468.877 261.448 468.911 261.388 468.937C261.329 468.963 261.265 468.975 261.198 468.975C261.131 468.975 261.068 468.963 261.008 468.937C260.951 468.911 260.901 468.877 260.857 468.833C260.813 468.787 260.778 468.736 260.752 468.68C260.726 468.621 260.714 468.558 260.714 468.491C260.714 468.425 260.726 468.362 260.752 468.303C260.778 468.242 260.813 468.189 260.857 468.146C260.901 468.1 260.951 468.064 261.008 468.038C261.068 468.013 261.131 468 261.198 468C261.265 468 261.329 468.013 261.388 468.038C261.448 468.064 261.499 468.1 261.543 468.146C261.59 468.189 261.626 468.242 261.652 468.303C261.68 468.362 261.695 468.425 261.695 468.491Z" fill="white"/>
<path d="M265.314 471.233C265.314 471.074 265.291 470.93 265.245 470.799C265.201 470.666 265.135 470.552 265.047 470.457C264.962 470.36 264.857 470.286 264.733 470.235C264.609 470.181 264.468 470.154 264.31 470.154C263.979 470.154 263.717 470.25 263.523 470.442C263.332 470.632 263.213 470.895 263.166 471.233H265.314ZM265.873 473.057C265.787 473.159 265.685 473.249 265.566 473.326C265.448 473.4 265.32 473.462 265.183 473.51C265.048 473.559 264.909 473.595 264.764 473.618C264.619 473.643 264.476 473.656 264.333 473.656C264.062 473.656 263.811 473.611 263.581 473.522C263.354 473.43 263.156 473.296 262.988 473.122C262.822 472.946 262.693 472.728 262.6 472.47C262.507 472.211 262.46 471.914 262.46 471.579C262.46 471.307 262.502 471.054 262.584 470.818C262.67 470.583 262.791 470.379 262.949 470.208C263.107 470.034 263.299 469.898 263.527 469.801C263.754 469.701 264.01 469.651 264.295 469.651C264.53 469.651 264.747 469.691 264.946 469.77C265.148 469.847 265.321 469.96 265.466 470.108C265.613 470.254 265.728 470.436 265.811 470.653C265.893 470.868 265.935 471.114 265.935 471.391C265.935 471.498 265.923 471.57 265.9 471.606C265.877 471.641 265.833 471.659 265.768 471.659H263.143C263.151 471.905 263.184 472.119 263.244 472.301C263.306 472.482 263.391 472.635 263.5 472.758C263.608 472.878 263.737 472.969 263.887 473.03C264.037 473.089 264.205 473.118 264.391 473.118C264.565 473.118 264.713 473.099 264.837 473.061C264.964 473.02 265.073 472.976 265.163 472.93C265.254 472.884 265.329 472.842 265.388 472.804C265.45 472.763 265.503 472.742 265.547 472.742C265.604 472.742 265.648 472.764 265.679 472.807L265.873 473.057Z" fill="white"/>
<path d="M267.434 470.277C267.519 470.182 267.61 470.097 267.706 470.02C267.801 469.943 267.902 469.878 268.008 469.824C268.117 469.768 268.23 469.725 268.349 469.697C268.471 469.666 268.601 469.651 268.741 469.651C268.956 469.651 269.144 469.687 269.307 469.759C269.473 469.828 269.61 469.928 269.718 470.058C269.829 470.186 269.913 470.341 269.97 470.523C270.027 470.705 270.056 470.905 270.056 471.126V473.602H269.361V471.126C269.361 470.831 269.293 470.603 269.156 470.442C269.021 470.278 268.816 470.196 268.539 470.196C268.335 470.196 268.144 470.245 267.965 470.342C267.79 470.44 267.627 470.571 267.477 470.738V473.602H266.783V469.713H267.198C267.296 469.713 267.357 469.76 267.38 469.855L267.434 470.277Z" fill="white"/>
<path d="M271.759 470.277C271.844 470.182 271.935 470.097 272.03 470.02C272.126 469.943 272.227 469.878 272.333 469.824C272.441 469.768 272.555 469.725 272.674 469.697C272.795 469.666 272.926 469.651 273.066 469.651C273.28 469.651 273.469 469.687 273.632 469.759C273.797 469.828 273.934 469.928 274.043 470.058C274.154 470.186 274.238 470.341 274.295 470.523C274.352 470.705 274.38 470.905 274.38 471.126V473.602H273.686V471.126C273.686 470.831 273.618 470.603 273.481 470.442C273.346 470.278 273.141 470.196 272.864 470.196C272.66 470.196 272.468 470.245 272.29 470.342C272.114 470.44 271.951 470.571 271.801 470.738V473.602H271.107V469.713H271.522C271.621 469.713 271.681 469.76 271.705 469.855L271.759 470.277Z" fill="white"/>
<path d="M278.723 469.713L276.532 474.75C276.509 474.802 276.479 474.843 276.443 474.873C276.409 474.904 276.356 474.919 276.284 474.919H275.772L276.489 473.376L274.868 469.713H275.465C275.525 469.713 275.571 469.728 275.605 469.759C275.641 469.787 275.666 469.819 275.679 469.855L276.73 472.304C276.771 472.412 276.806 472.525 276.834 472.642C276.87 472.522 276.909 472.408 276.951 472.301L277.97 469.855C277.986 469.814 278.012 469.78 278.048 469.755C278.087 469.727 278.129 469.713 278.176 469.713H278.723Z" fill="white"/>
<path d="M281.386 471.851C281.068 471.862 280.796 471.887 280.571 471.928C280.349 471.967 280.167 472.018 280.025 472.082C279.885 472.146 279.783 472.221 279.718 472.308C279.656 472.395 279.625 472.493 279.625 472.6C279.625 472.703 279.642 472.791 279.676 472.865C279.709 472.939 279.754 473.001 279.811 473.049C279.871 473.095 279.939 473.13 280.017 473.153C280.097 473.174 280.182 473.184 280.273 473.184C280.394 473.184 280.505 473.172 280.606 473.149C280.707 473.124 280.801 473.088 280.889 473.042C280.98 472.996 281.065 472.941 281.145 472.877C281.228 472.813 281.308 472.74 281.386 472.658V471.851ZM279.156 470.262C279.373 470.054 279.607 469.899 279.858 469.797C280.109 469.695 280.387 469.643 280.692 469.643C280.911 469.643 281.107 469.679 281.277 469.751C281.448 469.823 281.591 469.922 281.708 470.05C281.824 470.178 281.912 470.333 281.971 470.515C282.031 470.697 282.06 470.897 282.06 471.114V473.602H281.754C281.687 473.602 281.635 473.592 281.599 473.572C281.563 473.549 281.534 473.505 281.514 473.441L281.436 473.072C281.333 473.167 281.232 473.252 281.134 473.326C281.035 473.398 280.932 473.459 280.823 473.51C280.715 473.559 280.599 473.596 280.474 473.622C280.353 473.65 280.217 473.664 280.067 473.664C279.915 473.664 279.771 473.643 279.637 473.602C279.502 473.559 279.385 473.495 279.284 473.41C279.186 473.326 279.107 473.22 279.047 473.092C278.991 472.961 278.962 472.807 278.962 472.631C278.962 472.477 279.005 472.33 279.09 472.189C279.175 472.046 279.314 471.919 279.505 471.809C279.696 471.699 279.946 471.609 280.253 471.54C280.561 471.469 280.938 471.428 281.386 471.417V471.114C281.386 470.812 281.32 470.584 281.188 470.431C281.056 470.274 280.864 470.196 280.61 470.196C280.44 470.196 280.296 470.218 280.18 470.262C280.066 470.303 279.966 470.35 279.881 470.404C279.798 470.455 279.726 470.502 279.664 470.546C279.605 470.587 279.545 470.607 279.486 470.607C279.439 470.607 279.399 470.596 279.365 470.573C279.332 470.547 279.303 470.516 279.28 470.481L279.156 470.262Z" fill="white"/>
<path d="M282.996 473.18C282.996 473.113 283.007 473.051 283.03 472.992C283.056 472.933 283.09 472.882 283.131 472.838C283.175 472.795 283.227 472.76 283.286 472.735C283.346 472.709 283.409 472.696 283.476 472.696C283.544 472.696 283.607 472.709 283.666 472.735C283.726 472.76 283.778 472.795 283.822 472.838C283.865 472.882 283.9 472.933 283.926 472.992C283.952 473.051 283.965 473.113 283.965 473.18C283.965 473.249 283.952 473.313 283.926 473.372C283.9 473.428 283.865 473.478 283.822 473.522C283.778 473.565 283.726 473.598 283.666 473.622C283.607 473.647 283.544 473.66 283.476 473.66C283.409 473.66 283.346 473.647 283.286 473.622C283.227 473.598 283.175 473.565 283.131 473.522C283.09 473.478 283.056 473.428 283.03 473.372C283.007 473.313 282.996 473.249 282.996 473.18Z" fill="white"/>
<path d="M285.6 470.492C285.724 470.226 285.877 470.018 286.058 469.87C286.239 469.719 286.46 469.643 286.721 469.643C286.804 469.643 286.882 469.652 286.957 469.67C287.035 469.688 287.103 469.716 287.163 469.755L287.112 470.265C287.097 470.329 287.058 470.361 286.996 470.361C286.96 470.361 286.907 470.354 286.837 470.338C286.767 470.323 286.688 470.315 286.601 470.315C286.476 470.315 286.365 470.333 286.267 470.369C286.171 470.405 286.085 470.459 286.007 470.53C285.932 470.6 285.864 470.687 285.802 470.792C285.742 470.894 285.688 471.012 285.639 471.145V473.602H284.945V469.713H285.34C285.415 469.713 285.467 469.727 285.495 469.755C285.524 469.783 285.543 469.832 285.554 469.901L285.6 470.492Z" fill="white"/>
<path d="M291 469.713V473.602H290.589C290.491 473.602 290.429 473.555 290.403 473.46L290.349 473.042C290.178 473.229 289.987 473.38 289.775 473.495C289.563 473.607 289.32 473.664 289.046 473.664C288.831 473.664 288.641 473.629 288.476 473.56C288.313 473.488 288.176 473.389 288.065 473.261C287.953 473.133 287.869 472.978 287.812 472.796C287.758 472.614 287.731 472.413 287.731 472.193V469.713H288.421V472.193C288.421 472.487 288.488 472.715 288.623 472.877C288.76 473.038 288.968 473.118 289.247 473.118C289.451 473.118 289.641 473.071 289.817 472.976C289.996 472.879 290.16 472.746 290.31 472.577V469.713H291Z" fill="white"/>
<path d="M317.363 467.999L317.355 469.338H310.347V458.224H317.355V459.563H312.032V463.085H316.316V464.377H312.032V467.999H317.363Z" fill="black"/>
<path d="M325.689 461.475V469.338H324.767C324.557 469.338 324.421 469.237 324.358 469.036L324.248 468.246C324.074 468.427 323.893 468.592 323.704 468.742C323.515 468.891 323.313 469.02 323.098 469.129C322.883 469.232 322.654 469.312 322.413 469.369C322.171 469.431 321.912 469.462 321.633 469.462C321.192 469.462 320.804 469.389 320.468 469.245C320.137 469.1 319.859 468.899 319.633 468.641C319.407 468.378 319.237 468.063 319.121 467.697C319.006 467.331 318.948 466.926 318.948 466.482V461.475H320.492V466.482C320.492 467.044 320.623 467.483 320.885 467.798C321.148 468.107 321.549 468.262 322.09 468.262C322.484 468.262 322.851 468.172 323.193 467.991C323.534 467.805 323.854 467.553 324.153 467.233V461.475H325.689Z" fill="black"/>
<path d="M330.88 465.414C331.153 465.414 331.391 465.378 331.596 465.306C331.806 465.233 331.979 465.133 332.116 465.004C332.258 464.87 332.363 464.71 332.431 464.524C332.504 464.338 332.541 464.134 332.541 463.913C332.541 463.459 332.399 463.097 332.116 462.829C331.838 462.556 331.426 462.419 330.88 462.419C330.339 462.419 329.927 462.556 329.643 462.829C329.365 463.097 329.226 463.459 329.226 463.913C329.226 464.134 329.26 464.338 329.328 464.524C329.402 464.705 329.507 464.862 329.643 464.996C329.785 465.125 329.958 465.228 330.163 465.306C330.373 465.378 330.612 465.414 330.88 465.414ZM333.329 469.748C333.329 469.562 333.276 469.415 333.171 469.307C333.066 469.193 332.922 469.106 332.738 469.044C332.559 468.977 332.349 468.93 332.108 468.904C331.866 468.873 331.612 468.85 331.344 468.835C331.082 468.819 330.811 468.806 330.533 468.796C330.255 468.78 329.987 468.755 329.73 468.719C329.457 468.853 329.231 469.015 329.053 469.206C328.879 469.397 328.793 469.621 328.793 469.879C328.793 470.045 328.835 470.199 328.919 470.344C329.008 470.488 329.142 470.612 329.32 470.715C329.504 470.824 329.732 470.906 330.005 470.963C330.284 471.025 330.614 471.056 330.998 471.056C331.376 471.056 331.709 471.022 331.998 470.955C332.286 470.893 332.528 470.803 332.722 470.684C332.922 470.571 333.071 470.434 333.171 470.274C333.276 470.114 333.329 469.939 333.329 469.748ZM334.888 461.769V462.334C334.888 462.52 334.77 462.636 334.533 462.682L333.675 462.806C333.749 462.966 333.806 463.136 333.848 463.317C333.89 463.492 333.911 463.678 333.911 463.874C333.911 464.261 333.835 464.612 333.683 464.926C333.531 465.236 333.321 465.502 333.053 465.724C332.785 465.945 332.465 466.116 332.092 466.234C331.725 466.353 331.321 466.412 330.88 466.412C330.517 466.412 330.179 466.374 329.864 466.296C329.706 466.389 329.585 466.492 329.502 466.606C329.423 466.714 329.383 466.823 329.383 466.931C329.383 467.111 329.46 467.246 329.612 467.333C329.769 467.421 329.971 467.485 330.218 467.527C330.47 467.563 330.756 467.586 331.076 467.596C331.402 467.607 331.73 467.625 332.061 467.651C332.397 467.671 332.725 467.713 333.045 467.774C333.371 467.831 333.657 467.927 333.903 468.061C334.155 468.19 334.357 468.37 334.51 468.602C334.667 468.83 334.746 469.126 334.746 469.492C334.746 469.833 334.659 470.163 334.486 470.483C334.318 470.803 334.071 471.087 333.746 471.334C333.42 471.582 333.024 471.781 332.557 471.93C332.09 472.08 331.559 472.155 330.966 472.155C330.373 472.155 329.856 472.098 329.415 471.984C328.979 471.871 328.614 471.719 328.32 471.528C328.032 471.337 327.814 471.115 327.667 470.862C327.525 470.609 327.454 470.346 327.454 470.073C327.454 469.691 327.575 469.369 327.816 469.106C328.058 468.837 328.391 468.628 328.816 468.479C328.585 468.375 328.402 468.236 328.265 468.061C328.129 467.88 328.06 467.643 328.06 467.349C328.06 467.235 328.081 467.119 328.123 467.001C328.165 466.877 328.228 466.755 328.312 466.637C328.402 466.513 328.509 466.397 328.635 466.289C328.767 466.18 328.916 466.082 329.084 465.994C328.69 465.778 328.381 465.491 328.155 465.135C327.929 464.774 327.816 464.354 327.816 463.874C327.816 463.487 327.892 463.139 328.045 462.829C328.197 462.52 328.407 462.254 328.675 462.032C328.948 461.81 329.271 461.64 329.643 461.521C330.021 461.403 330.433 461.343 330.88 461.343C331.573 461.343 332.168 461.485 332.667 461.769H334.888Z" fill="black"/>
<path d="M341.709 464.532C341.709 464.233 341.665 463.956 341.576 463.704C341.492 463.451 341.366 463.232 341.198 463.046C341.03 462.86 340.825 462.716 340.583 462.612C340.342 462.509 340.064 462.458 339.749 462.458C339.103 462.458 338.594 462.641 338.221 463.007C337.853 463.373 337.62 463.882 337.52 464.532H341.709ZM342.977 468.216C342.788 468.432 342.57 468.621 342.324 468.78C342.077 468.935 341.814 469.062 341.536 469.16C341.258 469.258 340.969 469.33 340.67 469.376C340.376 469.423 340.085 469.446 339.796 469.446C339.245 469.446 338.733 469.356 338.26 469.175C337.793 468.989 337.386 468.721 337.04 468.37C336.699 468.014 336.431 467.576 336.237 467.055C336.048 466.528 335.953 465.925 335.953 465.244C335.953 464.697 336.04 464.189 336.213 463.719C336.386 463.244 336.633 462.832 336.953 462.481C337.279 462.13 337.675 461.854 338.142 461.653C338.609 461.452 339.134 461.351 339.717 461.351C340.205 461.351 340.654 461.431 341.064 461.591C341.478 461.746 341.835 461.973 342.135 462.272C342.434 462.571 342.667 462.94 342.835 463.379C343.009 463.817 343.095 464.318 343.095 464.88C343.095 465.112 343.069 465.27 343.017 465.352C342.964 465.429 342.867 465.468 342.725 465.468H337.481C337.496 465.938 337.565 466.348 337.685 466.699C337.806 467.044 337.972 467.333 338.182 467.565C338.397 467.798 338.651 467.97 338.945 468.084C339.239 468.197 339.567 468.254 339.93 468.254C340.271 468.254 340.565 468.216 340.812 468.138C341.064 468.061 341.279 467.978 341.457 467.89C341.641 467.798 341.793 467.713 341.914 467.635C342.04 467.558 342.15 467.519 342.245 467.519C342.371 467.519 342.468 467.565 342.536 467.658L342.977 468.216Z" fill="black"/>
<path d="M346.423 462.566C346.596 462.385 346.777 462.22 346.966 462.071C347.155 461.921 347.355 461.795 347.565 461.692C347.78 461.583 348.008 461.501 348.25 461.444C348.497 461.382 348.759 461.351 349.037 461.351C349.478 461.351 349.864 461.423 350.195 461.568C350.531 461.712 350.812 461.916 351.037 462.179C351.263 462.437 351.434 462.749 351.549 463.116C351.665 463.482 351.723 463.887 351.723 464.331V469.338H350.179V464.331C350.179 463.768 350.048 463.332 349.785 463.023C349.523 462.708 349.121 462.551 348.581 462.551C348.187 462.551 347.817 462.643 347.47 462.829C347.129 463.01 346.811 463.257 346.518 463.572V469.338H344.982V461.475H345.903C346.119 461.475 346.252 461.575 346.305 461.777L346.423 462.566Z" fill="black"/>
<path d="M355.637 461.475V469.338H354.102V461.475H355.637ZM355.929 459.045C355.929 459.184 355.9 459.318 355.842 459.447C355.784 459.571 355.706 459.682 355.606 459.78C355.511 459.873 355.398 459.948 355.267 460.004C355.136 460.056 354.999 460.082 354.858 460.082C354.716 460.082 354.582 460.056 354.456 460.004C354.33 459.948 354.217 459.873 354.118 459.78C354.023 459.682 353.947 459.571 353.889 459.447C353.837 459.318 353.81 459.184 353.81 459.045C353.81 458.9 353.837 458.766 353.889 458.642C353.947 458.513 354.023 458.402 354.118 458.31C354.217 458.212 354.33 458.137 354.456 458.085C354.582 458.028 354.716 458 354.858 458C354.999 458 355.136 458.028 355.267 458.085C355.398 458.137 355.511 458.212 355.606 458.31C355.706 458.402 355.784 458.513 355.842 458.642C355.9 458.766 355.929 458.9 355.929 459.045Z" fill="black"/>
<path d="M362.396 465.847C361.772 465.868 361.241 465.917 360.806 465.994C360.37 466.067 360.016 466.165 359.743 466.289C359.47 466.412 359.273 466.559 359.152 466.73C359.031 466.895 358.971 467.08 358.971 467.287C358.971 467.483 359.002 467.653 359.065 467.798C359.134 467.937 359.223 468.053 359.333 468.146C359.449 468.234 359.582 468.298 359.735 468.339C359.887 468.381 360.052 468.401 360.231 468.401C360.467 468.401 360.682 468.378 360.876 468.332C361.076 468.285 361.262 468.221 361.436 468.138C361.609 468.05 361.774 467.945 361.932 467.821C362.089 467.697 362.244 467.555 362.396 467.395V465.847ZM357.892 462.574C358.338 462.156 358.821 461.844 359.341 461.637C359.866 461.431 360.441 461.328 361.065 461.328C361.522 461.328 361.926 461.403 362.278 461.552C362.63 461.697 362.926 461.9 363.168 462.164C363.409 462.427 363.591 462.741 363.711 463.108C363.837 463.474 363.9 463.879 363.9 464.323V469.338H363.215C363.063 469.338 362.947 469.314 362.869 469.268C362.79 469.216 362.727 469.124 362.68 468.989L362.514 468.301C362.31 468.486 362.108 468.652 361.908 468.796C361.709 468.935 361.499 469.057 361.278 469.16C361.063 469.258 360.832 469.333 360.585 469.384C360.338 469.436 360.065 469.462 359.766 469.462C359.451 469.462 359.155 469.42 358.876 469.338C358.603 469.25 358.365 469.118 358.16 468.943C357.955 468.768 357.792 468.548 357.672 468.285C357.556 468.022 357.498 467.715 357.498 467.364C357.498 467.055 357.582 466.758 357.75 466.474C357.924 466.185 358.202 465.927 358.585 465.7C358.973 465.473 359.477 465.288 360.097 465.143C360.722 464.999 361.488 464.916 362.396 464.895V464.323C362.396 463.729 362.268 463.286 362.01 462.992C361.753 462.698 361.375 462.551 360.876 462.551C360.54 462.551 360.257 462.592 360.026 462.674C359.8 462.757 359.603 462.85 359.435 462.953C359.273 463.051 359.128 463.141 359.002 463.224C358.882 463.306 358.756 463.348 358.624 463.348C358.519 463.348 358.427 463.319 358.349 463.263C358.275 463.206 358.215 463.139 358.168 463.061L357.892 462.574Z" fill="black"/>
<path d="M313.77 480.455V483.905H313.155V480.455L310 475.531H310.542C310.598 475.531 310.644 475.545 310.68 475.573C310.717 475.596 310.747 475.632 310.771 475.679L313.21 479.526C313.262 479.617 313.31 479.705 313.354 479.792C313.398 479.875 313.436 479.958 313.469 480.041C313.501 479.958 313.537 479.875 313.577 479.792C313.617 479.705 313.663 479.617 313.715 479.526L316.154 475.679C316.174 475.636 316.202 475.6 316.238 475.573C316.279 475.545 316.327 475.531 316.383 475.531H316.925L313.77 480.455Z" fill="black"/>
<path d="M320.078 481.059C319.508 481.078 319.016 481.124 318.603 481.195C318.193 481.262 317.854 481.355 317.585 481.473C317.32 481.591 317.124 481.733 316.995 481.899C316.867 482.061 316.802 482.246 316.802 482.455C316.802 482.653 316.835 482.824 316.899 482.97C316.967 483.112 317.055 483.231 317.164 483.325C317.276 483.416 317.405 483.483 317.549 483.527C317.694 483.57 317.844 483.592 318.001 483.592C318.234 483.592 318.446 483.568 318.639 483.521C318.836 483.469 319.016 483.4 319.181 483.314C319.35 483.223 319.506 483.116 319.651 482.994C319.795 482.872 319.938 482.739 320.078 482.597V481.059ZM316.556 478.851C316.869 478.544 317.198 478.311 317.543 478.153C317.888 477.995 318.28 477.916 318.717 477.916C319.039 477.916 319.32 477.967 319.56 478.07C319.801 478.169 320 478.313 320.157 478.502C320.317 478.688 320.438 478.914 320.518 479.183C320.598 479.447 320.638 479.743 320.638 480.07V483.905H320.409C320.289 483.905 320.215 483.85 320.187 483.74L320.102 482.982C319.938 483.14 319.773 483.282 319.609 483.408C319.448 483.534 319.279 483.641 319.103 483.728C318.926 483.815 318.735 483.882 318.531 483.929C318.326 483.976 318.101 484 317.856 484C317.652 484 317.453 483.97 317.26 483.911C317.067 483.852 316.895 483.761 316.742 483.639C316.594 483.517 316.473 483.361 316.381 483.171C316.293 482.978 316.248 482.747 316.248 482.479C316.248 482.23 316.321 482 316.465 481.787C316.61 481.574 316.837 481.388 317.146 481.23C317.455 481.073 317.85 480.946 318.332 480.852C318.818 480.757 319.4 480.702 320.078 480.686V480.07C320.078 479.526 319.958 479.108 319.717 478.816C319.48 478.52 319.127 478.372 318.657 478.372C318.368 478.372 318.121 478.411 317.916 478.49C317.716 478.569 317.545 478.656 317.405 478.751C317.264 478.845 317.15 478.932 317.061 479.011C316.973 479.09 316.899 479.129 316.839 479.129C316.794 479.129 316.758 479.12 316.73 479.1C316.702 479.08 316.678 479.054 316.658 479.023L316.556 478.851Z" fill="black"/>
<path d="M323.136 475.294V480.544H323.413C323.469 480.544 323.521 480.536 323.569 480.52C323.622 480.504 323.678 480.467 323.738 480.408L326.141 478.165C326.181 478.117 326.225 478.082 326.273 478.058C326.321 478.031 326.381 478.017 326.454 478.017H326.96L324.316 480.485C324.244 480.568 324.165 480.633 324.081 480.68C324.145 480.712 324.2 480.749 324.244 480.792C324.292 480.832 324.338 480.879 324.382 480.934L327.158 483.905H326.658C326.602 483.905 326.55 483.897 326.502 483.882C326.458 483.862 326.416 483.824 326.375 483.769L323.858 481.118C323.826 481.082 323.794 481.053 323.762 481.029C323.734 481.005 323.704 480.988 323.672 480.976C323.64 480.96 323.601 480.95 323.557 480.946C323.517 480.938 323.467 480.934 323.407 480.934H323.136V483.905H322.558V475.294H323.136Z" fill="black"/>
<path d="M328.924 478.017V483.905H328.352V478.017H328.924ZM329.171 475.987C329.171 476.058 329.155 476.125 329.122 476.188C329.094 476.247 329.056 476.301 329.008 476.348C328.96 476.395 328.904 476.433 328.839 476.46C328.775 476.488 328.707 476.502 328.635 476.502C328.562 476.502 328.494 476.488 328.43 476.46C328.366 476.433 328.309 476.395 328.261 476.348C328.213 476.301 328.175 476.247 328.147 476.188C328.119 476.125 328.105 476.058 328.105 475.987C328.105 475.916 328.119 475.849 328.147 475.786C328.175 475.719 328.213 475.661 328.261 475.614C328.309 475.567 328.366 475.529 328.43 475.502C328.494 475.474 328.562 475.46 328.635 475.46C328.707 475.46 328.775 475.474 328.839 475.502C328.904 475.529 328.96 475.567 329.008 475.614C329.056 475.661 329.094 475.719 329.122 475.786C329.155 475.849 329.171 475.916 329.171 475.987Z" fill="black"/>
<path d="M330.967 483.905V478.017H331.286C331.386 478.017 331.445 478.066 331.461 478.165L331.515 479.017C331.748 478.689 332.015 478.425 332.316 478.224C332.617 478.023 332.956 477.922 333.333 477.922C333.771 477.922 334.12 478.046 334.381 478.295C334.646 478.544 334.825 478.889 334.917 479.331C334.989 479.09 335.09 478.881 335.218 478.703C335.351 478.526 335.501 478.38 335.67 478.265C335.838 478.147 336.021 478.06 336.218 478.005C336.419 477.95 336.623 477.922 336.832 477.922C337.129 477.922 337.396 477.971 337.633 478.07C337.87 478.165 338.071 478.307 338.235 478.496C338.4 478.686 338.526 478.918 338.614 479.195C338.703 479.471 338.747 479.786 338.747 480.141V483.905H338.175V480.141C338.175 479.565 338.048 479.127 337.796 478.828C337.543 478.524 337.181 478.372 336.712 478.372C336.503 478.372 336.302 478.409 336.109 478.484C335.921 478.559 335.752 478.672 335.604 478.822C335.459 478.968 335.343 479.151 335.254 479.372C335.17 479.593 335.128 479.849 335.128 480.141V483.905H334.55V480.141C334.55 479.569 334.433 479.131 334.201 478.828C333.972 478.524 333.635 478.372 333.189 478.372C332.864 478.372 332.563 478.467 332.286 478.656C332.009 478.845 331.762 479.108 331.545 479.443V483.905H330.967Z" fill="black"/>
<path d="M344.861 480.366C344.861 480.051 344.815 479.769 344.723 479.52C344.634 479.267 344.508 479.054 344.343 478.881C344.179 478.707 343.982 478.575 343.753 478.484C343.528 478.39 343.28 478.342 343.007 478.342C342.697 478.342 342.42 478.39 342.176 478.484C341.931 478.579 341.718 478.715 341.537 478.893C341.361 479.07 341.218 479.283 341.11 479.532C341.001 479.78 340.929 480.059 340.893 480.366H344.861ZM340.863 480.727V480.84C340.863 481.282 340.915 481.67 341.019 482.006C341.124 482.341 341.272 482.623 341.465 482.852C341.658 483.077 341.891 483.246 342.164 483.361C342.437 483.475 342.742 483.532 343.079 483.532C343.38 483.532 343.641 483.501 343.862 483.438C344.082 483.371 344.267 483.298 344.416 483.219C344.568 483.136 344.689 483.063 344.777 483C344.865 482.933 344.929 482.899 344.97 482.899C345.022 482.899 345.062 482.919 345.09 482.958L345.247 483.148C345.15 483.266 345.022 483.377 344.861 483.479C344.705 483.582 344.528 483.671 344.331 483.746C344.139 483.817 343.93 483.874 343.705 483.917C343.484 483.961 343.261 483.982 343.037 483.982C342.627 483.982 342.254 483.913 341.917 483.775C341.579 483.633 341.29 483.428 341.05 483.16C340.809 482.891 340.622 482.564 340.489 482.177C340.361 481.787 340.297 481.341 340.297 480.84C340.297 480.418 340.357 480.029 340.477 479.674C340.602 479.315 340.779 479.007 341.007 478.751C341.24 478.49 341.523 478.287 341.856 478.141C342.194 477.995 342.575 477.922 343.001 477.922C343.338 477.922 343.651 477.979 343.94 478.094C344.229 478.208 344.48 478.376 344.693 478.597C344.905 478.814 345.072 479.082 345.192 479.402C345.317 479.721 345.379 480.088 345.379 480.502C345.379 480.589 345.367 480.648 345.343 480.68C345.319 480.712 345.279 480.727 345.223 480.727H340.863Z" fill="black"/>
<path d="M347.487 479.047C347.764 478.707 348.083 478.435 348.444 478.23C348.809 478.025 349.215 477.922 349.66 477.922C349.99 477.922 350.279 477.973 350.527 478.076C350.78 478.179 350.989 478.327 351.154 478.52C351.318 478.713 351.443 478.946 351.527 479.218C351.611 479.49 351.654 479.798 351.654 480.141V483.905H351.075V480.141C351.075 479.589 350.947 479.157 350.69 478.845C350.433 478.53 350.042 478.372 349.516 478.372C349.126 478.372 348.761 478.471 348.42 478.668C348.083 478.861 347.782 479.131 347.517 479.479V483.905H346.939V478.017H347.258C347.358 478.017 347.416 478.066 347.432 478.165L347.487 479.047Z" fill="black"/>
<path d="M354.138 475.294V480.544H354.415C354.471 480.544 354.524 480.536 354.572 480.52C354.624 480.504 354.68 480.467 354.74 480.408L357.143 478.165C357.183 478.117 357.227 478.082 357.275 478.058C357.324 478.031 357.384 478.017 357.456 478.017H357.962L355.318 480.485C355.246 480.568 355.168 480.633 355.084 480.68C355.148 480.712 355.202 480.749 355.246 480.792C355.294 480.832 355.34 480.879 355.385 480.934L358.161 483.905H357.661C357.605 483.905 357.552 483.897 357.504 483.882C357.46 483.862 357.418 483.824 357.378 483.769L354.861 481.118C354.829 481.082 354.797 481.053 354.764 481.029C354.736 481.005 354.706 480.988 354.674 480.976C354.642 480.96 354.604 480.95 354.56 480.946C354.52 480.938 354.469 480.934 354.409 480.934H354.138V483.905H353.56V475.294H354.138Z" fill="black"/>
<path d="M361.272 477.922C361.702 477.922 362.085 477.995 362.422 478.141C362.764 478.283 363.051 478.486 363.283 478.751C363.516 479.015 363.693 479.335 363.813 479.709C363.938 480.08 364 480.496 364 480.958C364 481.42 363.938 481.836 363.813 482.207C363.693 482.578 363.516 482.895 363.283 483.16C363.051 483.424 362.764 483.627 362.422 483.769C362.085 483.911 361.702 483.982 361.272 483.982C360.843 483.982 360.457 483.911 360.116 483.769C359.779 483.627 359.492 483.424 359.255 483.16C359.022 482.895 358.843 482.578 358.719 482.207C358.599 481.836 358.538 481.42 358.538 480.958C358.538 480.496 358.599 480.08 358.719 479.709C358.843 479.335 359.022 479.015 359.255 478.751C359.492 478.486 359.779 478.283 360.116 478.141C360.457 477.995 360.843 477.922 361.272 477.922ZM361.272 483.538C361.629 483.538 361.941 483.479 362.206 483.361C362.475 483.239 362.697 483.065 362.874 482.84C363.055 482.615 363.189 482.345 363.277 482.029C363.366 481.71 363.41 481.353 363.41 480.958C363.41 480.568 363.366 480.212 363.277 479.893C363.189 479.573 363.055 479.301 362.874 479.076C362.697 478.847 362.475 478.672 362.206 478.549C361.941 478.427 361.629 478.366 361.272 478.366C360.915 478.366 360.602 478.427 360.333 478.549C360.068 478.672 359.845 478.847 359.664 479.076C359.488 479.301 359.353 479.573 359.261 479.893C359.173 480.212 359.128 480.568 359.128 480.958C359.128 481.353 359.173 481.71 359.261 482.029C359.353 482.345 359.488 482.615 359.664 482.84C359.845 483.065 360.068 483.239 360.333 483.361C360.602 483.479 360.915 483.538 361.272 483.538Z" fill="black"/>
</g>
<defs>
<clipPath id="clip0">
<rect width="603" height="603" fill="white"/>
</clipPath>
</defs>
</svg>
