<svg width="138" height="61" viewBox="0 0 138 61" fill="none" xmlns="http://www.w3.org/2000/svg">
<ellipse cx="30.3654" cy="30.4993" rx="30.3654" ry="30.5003" fill="#8547C6"/>
<ellipse cx="33.0947" cy="29.5855" rx="25.3613" ry="25.474" fill="#7F44BA"/>
<ellipse cx="35.4832" cy="29.6997" rx="20.6985" ry="20.7905" fill="#7941B0"/>
<ellipse cx="37.5301" cy="30.6136" rx="16.3768" ry="16.4496" fill="#723FA4"/>
<ellipse cx="39.5771" cy="30.6136" rx="12.0552" ry="12.1087" fill="#6B3C9A"/>
<path d="M12.8157 28.9287V34.0255C12.8157 34.216 12.7905 34.3925 12.7403 34.5549C12.6901 34.7204 12.61 34.8641 12.5001 34.9859C12.3902 35.1077 12.2489 35.2029 12.0762 35.2717C11.9066 35.3435 11.7025 35.3794 11.4639 35.3794C11.3634 35.3794 11.2708 35.3716 11.186 35.356C11.1012 35.3404 11.0164 35.3169 10.9316 35.2857L10.9646 34.836C10.9709 34.8079 10.9819 34.786 10.9976 34.7704C11.0101 34.7579 11.029 34.7501 11.0541 34.747C11.0792 34.7439 11.1122 34.7423 11.153 34.7423C11.1907 34.7454 11.2394 34.747 11.299 34.747C11.5439 34.747 11.7182 34.6892 11.8218 34.5736C11.9255 34.4612 11.9773 34.2785 11.9773 34.0255V28.9287H12.8157ZM12.9899 27.4389C12.9899 27.5201 12.9727 27.5967 12.9381 27.6685C12.9067 27.7372 12.8628 27.7997 12.8062 27.8559C12.7529 27.909 12.6901 27.9511 12.6178 27.9824C12.5456 28.0136 12.4687 28.0292 12.387 28.0292C12.3054 28.0292 12.2285 28.0136 12.1562 27.9824C12.0872 27.9511 12.0259 27.909 11.9726 27.8559C11.9192 27.7997 11.8768 27.7372 11.8454 27.6685C11.814 27.5967 11.7983 27.5201 11.7983 27.4389C11.7983 27.3577 11.814 27.2812 11.8454 27.2094C11.8768 27.1344 11.9192 27.0704 11.9726 27.0173C12.0259 26.9611 12.0872 26.9174 12.1562 26.8862C12.2285 26.8549 12.3054 26.8393 12.387 26.8393C12.4687 26.8393 12.5456 26.8549 12.6178 26.8862C12.6901 26.9174 12.7529 26.9611 12.8062 27.0173C12.8628 27.0704 12.9067 27.1344 12.9381 27.2094C12.9727 27.2812 12.9899 27.3577 12.9899 27.4389Z" fill="white"/>
<path d="M17.3866 30.7838C17.3866 30.5901 17.3583 30.4137 17.3018 30.2544C17.2484 30.092 17.1684 29.953 17.0616 29.8375C16.958 29.7188 16.8308 29.6282 16.6801 29.5658C16.5294 29.5002 16.3582 29.4674 16.1667 29.4674C15.7648 29.4674 15.4461 29.5845 15.2106 29.8187C14.9782 30.0498 14.8338 30.3715 14.7772 30.7838H17.3866ZM18.0648 33.009C17.9612 33.1339 17.8372 33.2432 17.6927 33.3369C17.5483 33.4275 17.3929 33.5024 17.2265 33.5618C17.0632 33.6211 16.8936 33.6648 16.7178 33.6929C16.5419 33.7242 16.3677 33.7398 16.195 33.7398C15.8653 33.7398 15.5607 33.6851 15.2812 33.5758C15.0049 33.4634 14.7647 33.301 14.5606 33.0886C14.3596 32.8731 14.2026 32.6077 14.0896 32.2922C13.9765 31.9768 13.92 31.6145 13.92 31.2054C13.92 30.8743 13.9703 30.5652 14.0707 30.2778C14.1744 29.9905 14.3219 29.7422 14.5135 29.533C14.705 29.3206 14.9389 29.1551 15.2153 29.0364C15.4916 28.9146 15.8025 28.8537 16.1479 28.8537C16.4336 28.8537 16.6974 28.9021 16.9391 28.9989C17.1841 29.0926 17.3944 29.23 17.5703 29.4112C17.7493 29.5892 17.889 29.8109 17.9895 30.0764C18.09 30.3387 18.1402 30.6385 18.1402 30.9758C18.1402 31.107 18.1261 31.1945 18.0978 31.2382C18.0696 31.2819 18.0162 31.3038 17.9377 31.3038H14.749C14.7584 31.6036 14.7992 31.8644 14.8714 32.0861C14.9468 32.3078 15.0504 32.4937 15.1823 32.6436C15.3142 32.7904 15.4712 32.9012 15.6533 32.9762C15.8354 33.048 16.0395 33.0839 16.2656 33.0839C16.476 33.0839 16.6565 33.0605 16.8073 33.0137C16.9611 32.9637 17.093 32.9106 17.2029 32.8544C17.3128 32.7982 17.4039 32.7466 17.4761 32.6998C17.5514 32.6498 17.6158 32.6248 17.6692 32.6248C17.7383 32.6248 17.7917 32.6514 17.8293 32.7045L18.0648 33.009Z" fill="white"/>
<path d="M19.9613 29.6173C20.0649 29.5017 20.1748 29.3971 20.291 29.3034C20.4072 29.2097 20.5296 29.1301 20.6584 29.0645C20.7903 28.9958 20.9284 28.9443 21.0729 28.9099C21.2204 28.8724 21.379 28.8537 21.5486 28.8537C21.8092 28.8537 22.0384 28.8974 22.2362 28.9849C22.4372 29.0692 22.6036 29.191 22.7355 29.3503C22.8705 29.5064 22.9726 29.6954 23.0417 29.9171C23.1107 30.1389 23.1453 30.384 23.1453 30.6526V33.6742H22.3022V30.6526C22.3022 30.2934 22.219 30.0155 22.0525 29.8187C21.8893 29.6189 21.6396 29.5189 21.3037 29.5189C21.0556 29.5189 20.8232 29.5783 20.6066 29.6969C20.393 29.8156 20.1952 29.9765 20.0131 30.1795V33.6742H19.17V28.9287H19.674C19.7933 28.9287 19.8671 28.9864 19.8954 29.102L19.9613 29.6173Z" fill="white"/>
<path d="M25.2141 29.6173C25.3177 29.5017 25.4276 29.3971 25.5438 29.3034C25.66 29.2097 25.7824 29.1301 25.9112 29.0645C26.0431 28.9958 26.1812 28.9443 26.3257 28.9099C26.4732 28.8724 26.6318 28.8537 26.8014 28.8537C27.062 28.8537 27.2912 28.8974 27.489 28.9849C27.69 29.0692 27.8564 29.191 27.9883 29.3503C28.1233 29.5064 28.2254 29.6954 28.2944 29.9171C28.3635 30.1389 28.3981 30.384 28.3981 30.6526V33.6742H27.555V30.6526C27.555 30.2934 27.4718 30.0155 27.3053 29.8187C27.1421 29.6189 26.8924 29.5189 26.5564 29.5189C26.3084 29.5189 26.076 29.5783 25.8594 29.6969C25.6458 29.8156 25.448 29.9765 25.2659 30.1795V33.6742H24.4228V28.9287H24.9268C25.0461 28.9287 25.1199 28.9864 25.1481 29.102L25.2141 29.6173Z" fill="white"/>
<path d="M33.6726 28.9287L31.0114 35.0749C30.9831 35.1374 30.947 35.1873 30.9031 35.2248C30.8623 35.2623 30.7979 35.281 30.71 35.281H30.0882L30.9596 33.3978L28.9908 28.9287H29.7161C29.7884 28.9287 29.8449 28.9474 29.8857 28.9849C29.9297 29.0192 29.9595 29.0583 29.9752 29.102L31.2516 32.0908C31.3019 32.222 31.3442 32.3594 31.3788 32.503C31.4227 32.3562 31.4698 32.2173 31.5201 32.0861L32.7588 29.102C32.7777 29.052 32.8091 29.0114 32.853 28.9802C32.9001 28.9458 32.9519 28.9287 33.0085 28.9287H33.6726Z" fill="white"/>
<path d="M36.907 31.538C36.5208 31.5505 36.1911 31.5817 35.9179 31.6317C35.6479 31.6785 35.4265 31.741 35.2538 31.8191C35.0843 31.8972 34.9602 31.9893 34.8817 32.0955C34.8064 32.2017 34.7687 32.3203 34.7687 32.4515C34.7687 32.5764 34.7891 32.6842 34.8299 32.7747C34.8707 32.8653 34.9257 32.9403 34.9948 32.9996C35.067 33.0558 35.1502 33.098 35.2444 33.1261C35.3417 33.1511 35.4454 33.1636 35.5553 33.1636C35.7028 33.1636 35.8379 33.1495 35.9603 33.1214C36.0828 33.0902 36.1974 33.0465 36.3042 32.9902C36.4141 32.934 36.5177 32.8669 36.615 32.7888C36.7155 32.7107 36.8128 32.6217 36.907 32.5218V31.538ZM34.1988 29.5986C34.4625 29.3456 34.7467 29.1566 35.0513 29.0317C35.3559 28.9068 35.6934 28.8443 36.0639 28.8443C36.3308 28.8443 36.5679 28.8881 36.7752 28.9755C36.9824 29.063 37.1567 29.1848 37.298 29.3409C37.4393 29.4971 37.546 29.686 37.6183 29.9077C37.6905 30.1295 37.7266 30.3731 37.7266 30.6385V33.6742H37.3545C37.2729 33.6742 37.2101 33.6617 37.1661 33.6367C37.1221 33.6086 37.0876 33.5555 37.0625 33.4774L36.9683 33.0277C36.8427 33.1433 36.7202 33.2463 36.6009 33.3369C36.4816 33.4243 36.356 33.4993 36.2241 33.5618C36.0922 33.6211 35.9509 33.6664 35.8002 33.6976C35.6526 33.732 35.4878 33.7491 35.3056 33.7491C35.1204 33.7491 34.9461 33.7242 34.7828 33.6742C34.6195 33.6211 34.4767 33.543 34.3542 33.44C34.2349 33.3369 34.1391 33.2073 34.0669 33.0511C33.9978 32.8919 33.9633 32.7045 33.9633 32.489C33.9633 32.3016 34.0151 32.122 34.1187 31.9502C34.2223 31.7754 34.3903 31.6208 34.6227 31.4865C34.855 31.3522 35.158 31.2429 35.5317 31.1585C35.9054 31.0711 36.3638 31.0211 36.907 31.0086V30.6385C36.907 30.27 36.827 29.9921 36.6668 29.8047C36.5067 29.6142 36.2728 29.5189 35.965 29.5189C35.7578 29.5189 35.5835 29.5455 35.4422 29.5986C35.3041 29.6485 35.1832 29.7063 35.0795 29.7719C34.9791 29.8344 34.8911 29.8921 34.8158 29.9452C34.7436 29.9952 34.6713 30.0202 34.5991 30.0202C34.5426 30.0202 34.4939 30.0061 34.4531 29.978C34.4123 29.9468 34.3778 29.9093 34.3495 29.8656L34.1988 29.5986Z" fill="white"/>
<path d="M38.8624 33.1589C38.8624 33.0777 38.8765 33.0012 38.9048 32.9293C38.9362 32.8575 38.977 32.795 39.0272 32.742C39.0806 32.6889 39.1434 32.6467 39.2156 32.6155C39.2878 32.5842 39.3648 32.5686 39.4464 32.5686C39.5281 32.5686 39.605 32.5842 39.6772 32.6155C39.7494 32.6467 39.8122 32.6889 39.8656 32.742C39.919 32.795 39.9614 32.8575 39.9928 32.9293C40.0242 33.0012 40.0399 33.0777 40.0399 33.1589C40.0399 33.2432 40.0242 33.3213 39.9928 33.3931C39.9614 33.4618 39.919 33.5227 39.8656 33.5758C39.8122 33.6289 39.7494 33.6695 39.6772 33.6976C39.605 33.7288 39.5281 33.7445 39.4464 33.7445C39.3648 33.7445 39.2878 33.7288 39.2156 33.6976C39.1434 33.6695 39.0806 33.6289 39.0272 33.5758C38.977 33.5227 38.9362 33.4618 38.9048 33.3931C38.8765 33.3213 38.8624 33.2432 38.8624 33.1589Z" fill="white"/>
<path d="M42.0259 29.8796C42.1766 29.5548 42.3619 29.3019 42.5817 29.1207C42.8015 28.9365 43.07 28.8443 43.3871 28.8443C43.4876 28.8443 43.5833 28.8553 43.6744 28.8771C43.7686 28.899 43.8518 28.9333 43.924 28.9802L43.8628 29.6032C43.844 29.6813 43.7969 29.7204 43.7215 29.7204C43.6775 29.7204 43.6132 29.711 43.5284 29.6923C43.4436 29.6735 43.3478 29.6641 43.2411 29.6641C43.0904 29.6641 42.9553 29.686 42.836 29.7297C42.7198 29.7735 42.6146 29.839 42.5204 29.9265C42.4294 30.0108 42.3462 30.117 42.2708 30.245C42.1986 30.37 42.1327 30.5136 42.073 30.676V33.6742H41.2299V28.9287H41.7103C41.8014 28.9287 41.8642 28.9458 41.8987 28.9802C41.9333 29.0145 41.9568 29.0739 41.9694 29.1582L42.0259 29.8796Z" fill="white"/>
<path d="M48.5847 28.9287V33.6742H48.0854C47.9661 33.6742 47.8907 33.6164 47.8593 33.5009L47.7934 32.9902C47.5862 33.2182 47.3538 33.4025 47.0963 33.543C46.8388 33.6804 46.5437 33.7491 46.2108 33.7491C45.9502 33.7491 45.7194 33.707 45.5185 33.6227C45.3206 33.5352 45.1542 33.4134 45.0192 33.2573C44.8842 33.1011 44.7821 32.9122 44.713 32.6904C44.6471 32.4687 44.6141 32.2235 44.6141 31.9549V28.9287H45.4525V31.9549C45.4525 32.3141 45.5342 32.592 45.6974 32.7888C45.8639 32.9856 46.1166 33.0839 46.4558 33.0839C46.7038 33.0839 46.9346 33.0262 47.1481 32.9106C47.3648 32.7919 47.5642 32.6295 47.7463 32.4234V28.9287H48.5847Z" fill="white"/>
<path d="M80.6055 26.8379L80.5959 28.4713H72.0835V14.913H80.5959V16.5464H74.1303V20.8424H79.3334V22.4191H74.1303V26.8379H80.6055Z" fill="black"/>
<path d="M90.7179 18.8785V28.4713H89.5988C89.3438 28.4713 89.178 28.3486 89.1015 28.1031L88.9676 27.14C88.7572 27.3603 88.5372 27.5617 88.3076 27.7443C88.0781 27.9268 87.8326 28.0842 87.5712 28.2164C87.3097 28.3423 87.0324 28.4398 86.7391 28.5091C86.4457 28.5846 86.1301 28.6224 85.7922 28.6224C85.2566 28.6224 84.7847 28.5342 84.3766 28.358C83.9749 28.1818 83.637 27.9363 83.3628 27.6215C83.0886 27.3005 82.8814 26.9166 82.7411 26.4697C82.6008 26.0227 82.5307 25.5286 82.5307 24.9873V18.8785H84.4053V24.9873C84.4053 25.6734 84.5647 26.2084 84.8835 26.5924C85.2024 26.9701 85.6901 27.1589 86.3469 27.1589C86.8251 27.1589 87.2715 27.0487 87.6859 26.8284C88.1004 26.6018 88.4894 26.2934 88.8528 25.9031V18.8785H90.7179Z" fill="black"/>
<path d="M97.0227 23.6843C97.3543 23.6843 97.6444 23.6403 97.8931 23.5522C98.1481 23.464 98.3586 23.3413 98.5243 23.1839C98.6965 23.0203 98.824 22.8251 98.9069 22.5985C98.9962 22.3719 99.0408 22.1233 99.0408 21.8526C99.0408 21.2987 98.8687 20.8581 98.5243 20.5308C98.1864 20.1972 97.6859 20.0304 97.0227 20.0304C96.3659 20.0304 95.8654 20.1972 95.5211 20.5308C95.1831 20.8581 95.0142 21.2987 95.0142 21.8526C95.0142 22.1233 95.0556 22.3719 95.1385 22.5985C95.2278 22.8188 95.3553 23.0108 95.5211 23.1745C95.6932 23.3318 95.9037 23.4577 96.1523 23.5522C96.4074 23.6403 96.6975 23.6843 97.0227 23.6843ZM99.9973 28.9717C99.9973 28.7451 99.9335 28.5657 99.806 28.4335C99.6785 28.2951 99.5031 28.188 99.2799 28.1125C99.0631 28.0307 98.8081 27.974 98.5148 27.9426C98.2215 27.9048 97.9122 27.8765 97.587 27.8576C97.2682 27.8387 96.9398 27.823 96.6019 27.8104C96.2639 27.7915 95.9387 27.76 95.6263 27.716C95.2947 27.8796 95.0205 28.0779 94.8037 28.3108C94.5933 28.5437 94.4881 28.8175 94.4881 29.1322C94.4881 29.3336 94.5391 29.5225 94.6411 29.6987C94.7495 29.875 94.9121 30.026 95.1289 30.1519C95.3521 30.2841 95.6295 30.3848 95.961 30.4541C96.299 30.5296 96.7007 30.5674 97.1662 30.5674C97.6253 30.5674 98.0302 30.5264 98.3809 30.4446C98.7316 30.3691 99.0249 30.2589 99.2608 30.1142C99.5031 29.9757 99.6848 29.8089 99.806 29.6137C99.9335 29.4186 99.9973 29.2046 99.9973 28.9717ZM101.891 19.2373V19.9265C101.891 20.1531 101.748 20.2948 101.461 20.3514L100.418 20.5025C100.507 20.6976 100.578 20.9053 100.629 21.1256C100.68 21.3396 100.705 21.5662 100.705 21.8054C100.705 22.2775 100.613 22.7055 100.428 23.0895C100.243 23.4672 99.9877 23.7913 99.6625 24.062C99.3373 24.3327 98.9484 24.5404 98.4956 24.6852C98.0493 24.8299 97.5583 24.9023 97.0227 24.9023C96.5827 24.9023 96.1715 24.8551 95.7889 24.7607C95.5976 24.874 95.4509 24.9999 95.3489 25.1384C95.2533 25.2706 95.2055 25.4027 95.2055 25.5349C95.2055 25.7552 95.2979 25.9189 95.4828 26.0259C95.6741 26.1329 95.9196 26.2116 96.2193 26.2619C96.5254 26.306 96.8729 26.3343 97.2618 26.3469C97.6572 26.3595 98.0557 26.3815 98.4574 26.413C98.8655 26.4382 99.264 26.4885 99.653 26.5641C100.048 26.6333 100.396 26.7498 100.695 26.9134C101.002 27.0708 101.247 27.2911 101.432 27.5743C101.623 27.8513 101.719 28.2132 101.719 28.6601C101.719 29.0756 101.614 29.4784 101.403 29.8687C101.199 30.2589 100.9 30.6051 100.504 30.9073C100.109 31.2094 99.6274 31.4517 99.06 31.6343C98.4925 31.8168 97.8484 31.9081 97.1279 31.9081C96.4074 31.9081 95.7793 31.8389 95.2437 31.7004C94.7145 31.5619 94.2713 31.3762 93.9142 31.1433C93.5635 30.9104 93.2989 30.6397 93.1204 30.3313C92.9482 30.0229 92.8621 29.7019 92.8621 29.3683C92.8621 28.9025 93.0088 28.5091 93.3021 28.188C93.5954 27.8607 94.0003 27.6058 94.5168 27.4233C94.2362 27.2974 94.0131 27.1274 93.8473 26.9134C93.6815 26.6931 93.5986 26.4036 93.5986 26.0448C93.5986 25.9063 93.6241 25.7647 93.6751 25.6199C93.7261 25.4688 93.8027 25.3209 93.9047 25.1761C94.0131 25.0251 94.1438 24.8834 94.2968 24.7513C94.4562 24.6191 94.638 24.4995 94.842 24.3925C94.3638 24.1281 93.9876 23.7788 93.7134 23.3444C93.4392 22.9038 93.3021 22.3908 93.3021 21.8054C93.3021 21.3333 93.3946 20.9085 93.5795 20.5308C93.7644 20.1531 94.0195 19.829 94.3446 19.5583C94.6762 19.2876 95.0684 19.0799 95.5211 18.9351C95.9802 18.7904 96.4807 18.718 97.0227 18.718C97.8644 18.718 98.5881 18.8911 99.1939 19.2373H101.891Z" fill="black"/>
<path d="M110.177 22.608C110.177 22.2429 110.123 21.9061 110.014 21.5977C109.912 21.2893 109.759 21.0218 109.555 20.7952C109.351 20.5686 109.102 20.3923 108.809 20.2664C108.516 20.1405 108.178 20.0776 107.795 20.0776C107.011 20.0776 106.392 20.3011 105.94 20.748C105.493 21.1949 105.21 21.8149 105.088 22.608H110.177ZM111.717 27.1022C111.487 27.3666 111.222 27.5964 110.923 27.7915C110.623 27.9803 110.304 28.1345 109.966 28.2541C109.628 28.3737 109.278 28.4619 108.914 28.5185C108.557 28.5752 108.203 28.6035 107.853 28.6035C107.183 28.6035 106.561 28.4933 105.988 28.273C105.42 28.0464 104.926 27.7191 104.505 27.2911C104.091 26.8568 103.765 26.3217 103.529 25.686C103.3 25.0439 103.185 24.3075 103.185 23.4766C103.185 22.8094 103.29 22.1894 103.501 21.6166C103.711 21.0375 104.011 20.5339 104.4 20.1059C104.795 19.6779 105.277 19.3411 105.844 19.0957C106.412 18.8502 107.049 18.7274 107.757 18.7274C108.35 18.7274 108.895 18.825 109.392 19.0201C109.896 19.209 110.33 19.4859 110.693 19.851C111.057 20.2161 111.34 20.6661 111.544 21.2012C111.755 21.7362 111.86 22.3468 111.86 23.0329C111.86 23.3161 111.828 23.5081 111.764 23.6088C111.701 23.7032 111.583 23.7504 111.411 23.7504H105.041C105.06 24.3232 105.143 24.8236 105.289 25.2517C105.436 25.6734 105.637 26.0259 105.892 26.3091C106.153 26.5924 106.463 26.8033 106.82 26.9417C107.177 27.0802 107.575 27.1495 108.015 27.1495C108.43 27.1495 108.787 27.1022 109.086 27.0078C109.392 26.9134 109.654 26.8127 109.871 26.7057C110.094 26.5924 110.279 26.4885 110.425 26.3941C110.578 26.2997 110.712 26.2525 110.827 26.2525C110.98 26.2525 111.098 26.3091 111.181 26.4224L111.717 27.1022Z" fill="black"/>
<path d="M115.902 20.2098C116.112 19.9895 116.332 19.7881 116.562 19.6055C116.792 19.423 117.034 19.2688 117.289 19.1429C117.55 19.0107 117.828 18.91 118.121 18.8407C118.421 18.7652 118.74 18.7274 119.077 18.7274C119.613 18.7274 120.082 18.8156 120.483 18.9918C120.892 19.168 121.233 19.4167 121.507 19.7377C121.781 20.0524 121.988 20.4332 122.129 20.8801C122.269 21.3271 122.339 21.8212 122.339 22.3625V28.4713H120.464V22.3625C120.464 21.6764 120.305 21.1445 119.986 20.7668C119.667 20.3829 119.179 20.1909 118.523 20.1909C118.044 20.1909 117.595 20.3042 117.174 20.5308C116.76 20.7511 116.374 21.0532 116.017 21.4372V28.4713H114.152V18.8785H115.271C115.532 18.8785 115.695 19.0012 115.759 19.2467L115.902 20.2098Z" fill="black"/>
<path d="M127.094 18.8785V28.4713H125.229V18.8785H127.094ZM127.448 15.9138C127.448 16.0837 127.413 16.2474 127.343 16.4048C127.272 16.5558 127.177 16.6912 127.056 16.8108C126.941 16.9241 126.804 17.0153 126.644 17.0846C126.485 17.1475 126.319 17.179 126.147 17.179C125.975 17.179 125.812 17.1475 125.659 17.0846C125.506 17.0153 125.369 16.9241 125.248 16.8108C125.133 16.6912 125.041 16.5558 124.971 16.4048C124.907 16.2474 124.875 16.0837 124.875 15.9138C124.875 15.7375 124.907 15.5739 124.971 15.4228C125.041 15.2655 125.133 15.1301 125.248 15.0168C125.369 14.8972 125.506 14.806 125.659 14.743C125.812 14.6738 125.975 14.6392 126.147 14.6392C126.319 14.6392 126.485 14.6738 126.644 14.743C126.804 14.806 126.941 14.8972 127.056 15.0168C127.177 15.1301 127.272 15.2655 127.343 15.4228C127.413 15.5739 127.448 15.7375 127.448 15.9138Z" fill="black"/>
<path d="M135.303 24.2131C134.545 24.2383 133.901 24.2981 133.371 24.3925C132.842 24.4806 132.412 24.6002 132.08 24.7513C131.749 24.9023 131.509 25.0817 131.363 25.2894C131.216 25.4909 131.143 25.7175 131.143 25.9692C131.143 26.2084 131.181 26.4161 131.258 26.5924C131.34 26.7623 131.449 26.904 131.583 27.0173C131.723 27.1243 131.886 27.203 132.071 27.2533C132.255 27.3037 132.456 27.3288 132.673 27.3288C132.96 27.3288 133.221 27.3005 133.457 27.2439C133.7 27.1872 133.926 27.1085 134.137 27.0078C134.347 26.9008 134.548 26.7718 134.739 26.6207C134.93 26.4697 135.118 26.2966 135.303 26.1014V24.2131ZM129.832 20.2192C130.374 19.7094 130.961 19.3286 131.592 19.0768C132.23 18.825 132.928 18.6991 133.687 18.6991C134.242 18.6991 134.733 18.7904 135.16 18.9729C135.587 19.1492 135.947 19.3978 136.241 19.7188C136.534 20.0398 136.754 20.4238 136.901 20.8707C137.054 21.3176 137.13 21.8117 137.13 22.3531V28.4713H136.298C136.113 28.4713 135.973 28.443 135.877 28.3863C135.782 28.3234 135.705 28.2101 135.648 28.0464L135.447 27.2061C135.198 27.4327 134.953 27.6341 134.71 27.8104C134.468 27.9803 134.213 28.1282 133.945 28.2541C133.684 28.3737 133.403 28.465 133.104 28.5279C132.804 28.5909 132.472 28.6224 132.109 28.6224C131.726 28.6224 131.366 28.572 131.028 28.4713C130.696 28.3643 130.406 28.2038 130.158 27.9898C129.909 27.7758 129.711 27.5082 129.565 27.1872C129.424 26.8662 129.354 26.4917 129.354 26.0637C129.354 25.686 129.456 25.3241 129.66 24.9779C129.871 24.6254 130.209 24.3106 130.674 24.0337C131.146 23.7567 131.758 23.5301 132.511 23.3539C133.269 23.1776 134.2 23.0769 135.303 23.0517V22.3531C135.303 21.6292 135.147 21.0879 134.835 20.7291C134.522 20.3703 134.063 20.1909 133.457 20.1909C133.049 20.1909 132.705 20.2413 132.424 20.342C132.15 20.4427 131.911 20.556 131.707 20.6819C131.509 20.8015 131.334 20.9116 131.181 21.0123C131.034 21.113 130.881 21.1634 130.722 21.1634C130.594 21.1634 130.483 21.1288 130.387 21.0595C130.298 20.9903 130.225 20.9085 130.167 20.8141L129.832 20.2192Z" fill="black"/>
<path d="M76.2407 42.0346V46.244H75.4947V42.0346L71.6621 36.0275H72.3204C72.3886 36.0275 72.4447 36.0443 72.4886 36.078C72.5325 36.1069 72.5691 36.1502 72.5983 36.208L75.5605 40.9011C75.6239 41.0118 75.6824 41.1201 75.736 41.226C75.7897 41.327 75.836 41.4281 75.875 41.5292C75.914 41.4281 75.9579 41.327 76.0067 41.226C76.0554 41.1201 76.1115 41.0118 76.1749 40.9011L79.1371 36.208C79.1614 36.155 79.1956 36.1117 79.2395 36.078C79.2882 36.0443 79.3467 36.0275 79.415 36.0275H80.0733L76.2407 42.0346Z" fill="black"/>
<path d="M83.9033 42.7711C83.2109 42.7951 82.6136 42.8505 82.1114 42.9371C81.614 43.019 81.202 43.1321 80.8753 43.2765C80.5535 43.4209 80.3146 43.5942 80.1585 43.7963C80.0025 43.9937 79.9245 44.2199 79.9245 44.475C79.9245 44.7157 79.9635 44.9251 80.0415 45.1032C80.1244 45.2765 80.2317 45.4209 80.3633 45.5364C80.4998 45.6471 80.6559 45.7289 80.8314 45.7819C81.0069 45.8348 81.1898 45.8613 81.38 45.8613C81.6628 45.8613 81.9212 45.8324 82.1553 45.7747C82.3942 45.7121 82.6136 45.6279 82.8135 45.522C83.0183 45.4112 83.2085 45.2813 83.384 45.1321C83.5596 44.9829 83.7327 44.8216 83.9033 44.6483V42.7711ZM79.6246 40.078C80.0049 39.7025 80.4048 39.4185 80.8241 39.226C81.2434 39.0334 81.7189 38.9372 82.2503 38.9372C82.6404 38.9372 82.9817 38.9998 83.2743 39.1249C83.5669 39.2452 83.8082 39.4209 83.9984 39.652C84.1934 39.8782 84.3397 40.155 84.4372 40.4823C84.5348 40.8048 84.5835 41.1658 84.5835 41.5653V46.244H84.3056C84.1593 46.244 84.0691 46.1766 84.035 46.0418L83.9326 45.1176C83.7327 45.3102 83.5327 45.4834 83.3328 45.6375C83.1378 45.7915 82.933 45.9215 82.7184 46.0274C82.5039 46.1333 82.2723 46.2151 82.0236 46.2729C81.7749 46.3306 81.5019 46.3595 81.2044 46.3595C80.9558 46.3595 80.7144 46.3234 80.4803 46.2512C80.2463 46.179 80.0366 46.0683 79.8513 45.9191C79.6709 45.7698 79.5246 45.5797 79.4125 45.3487C79.3052 45.1128 79.2516 44.8312 79.2516 44.5039C79.2516 44.2007 79.3393 43.9191 79.5149 43.6592C79.6904 43.3992 79.9659 43.173 80.3414 42.9805C80.7168 42.7879 81.1971 42.6339 81.7822 42.5184C82.3722 42.4029 83.0793 42.3355 83.9033 42.3162V41.5653C83.9033 40.9011 83.757 40.3908 83.4645 40.0346C83.1768 39.6736 82.7477 39.4931 82.1772 39.4931C81.8261 39.4931 81.5262 39.5413 81.2776 39.6375C81.0338 39.7338 80.8265 39.8397 80.6559 39.9552C80.4852 40.0707 80.3462 40.1766 80.239 40.2729C80.1317 40.3692 80.0415 40.4173 79.9684 40.4173C79.9147 40.4173 79.8708 40.4053 79.8367 40.3812C79.8026 40.3571 79.7733 40.3259 79.7489 40.2873L79.6246 40.078Z" fill="black"/>
<path d="M87.617 35.7387V42.1429H87.9535C88.0217 42.1429 88.0851 42.1333 88.1436 42.114C88.207 42.0948 88.2753 42.0491 88.3484 41.9769L91.2667 39.2404C91.3155 39.1827 91.3691 39.1393 91.4276 39.1105C91.4862 39.0768 91.5593 39.0599 91.6471 39.0599H92.2614L89.0506 42.0707C88.9628 42.1718 88.8677 42.2512 88.7653 42.309C88.8433 42.3475 88.9092 42.3932 88.9628 42.4462C89.0213 42.4943 89.0774 42.5521 89.131 42.6195L92.5028 46.244H91.8957C91.8275 46.244 91.7641 46.2343 91.7056 46.2151C91.6519 46.191 91.6007 46.1453 91.552 46.0779L88.4947 42.8433C88.4557 42.8 88.4167 42.7639 88.3777 42.735C88.3435 42.7061 88.307 42.6844 88.268 42.67C88.229 42.6507 88.1826 42.6387 88.129 42.6339C88.0802 42.6243 88.0193 42.6195 87.9462 42.6195H87.617V46.244H86.9149V35.7387H87.617Z" fill="black"/>
<path d="M94.6471 39.0599V46.244H93.9522V39.0599H94.6471ZM94.947 36.5834C94.947 36.6701 94.9275 36.7519 94.8884 36.8289C94.8543 36.9011 94.808 36.9661 94.7495 37.0238C94.691 37.0816 94.6227 37.1273 94.5447 37.161C94.4667 37.1947 94.3838 37.2116 94.296 37.2116C94.2082 37.2116 94.1253 37.1947 94.0473 37.161C93.9693 37.1273 93.901 37.0816 93.8425 37.0238C93.784 36.9661 93.7377 36.9011 93.7036 36.8289C93.6694 36.7519 93.6524 36.6701 93.6524 36.5834C93.6524 36.4968 93.6694 36.4149 93.7036 36.3379C93.7377 36.2561 93.784 36.1863 93.8425 36.1285C93.901 36.0708 93.9693 36.0251 94.0473 35.9914C94.1253 35.9577 94.2082 35.9408 94.296 35.9408C94.3838 35.9408 94.4667 35.9577 94.5447 35.9914C94.6227 36.0251 94.691 36.0708 94.7495 36.1285C94.808 36.1863 94.8543 36.2561 94.8884 36.3379C94.9275 36.4149 94.947 36.4968 94.947 36.5834Z" fill="black"/>
<path d="M97.1288 46.244V39.0599H97.5165C97.6384 39.0599 97.7091 39.1201 97.7286 39.2404L97.7944 40.2801C98.0772 39.8806 98.4015 39.5581 98.7672 39.3126C99.1329 39.0671 99.5449 38.9444 100.003 38.9444C100.535 38.9444 100.959 39.096 101.276 39.3993C101.598 39.7025 101.815 40.1237 101.927 40.6628C102.015 40.3692 102.137 40.1141 102.293 39.8975C102.453 39.6809 102.636 39.5028 102.841 39.3632C103.046 39.2188 103.268 39.1129 103.507 39.0455C103.75 38.9781 103.999 38.9444 104.253 38.9444C104.614 38.9444 104.938 39.0046 105.225 39.1249C105.513 39.2404 105.757 39.4137 105.957 39.6448C106.157 39.8758 106.31 40.1598 106.418 40.4967C106.525 40.8337 106.579 41.2187 106.579 41.652V46.244H105.884V41.652C105.884 40.9492 105.73 40.4149 105.423 40.0491C105.116 39.6784 104.677 39.4931 104.106 39.4931C103.853 39.4931 103.609 39.5389 103.375 39.6303C103.146 39.7218 102.941 39.859 102.761 40.0419C102.585 40.22 102.444 40.4438 102.336 40.7133C102.234 40.9829 102.183 41.2958 102.183 41.652V46.244H101.481V41.652C101.481 40.954 101.339 40.4197 101.056 40.0491C100.779 39.6784 100.369 39.4931 99.8277 39.4931C99.4328 39.4931 99.067 39.6087 98.7306 39.8397C98.3942 40.0707 98.0943 40.3908 97.831 40.8V46.244H97.1288Z" fill="black"/>
<path d="M114.005 41.9263C114.005 41.5412 113.949 41.1971 113.837 40.8938C113.73 40.5858 113.576 40.3259 113.376 40.1141C113.176 39.9023 112.937 39.741 112.659 39.6303C112.386 39.5148 112.084 39.457 111.752 39.457C111.377 39.457 111.04 39.5148 110.743 39.6303C110.446 39.7458 110.187 39.9119 109.968 40.1285C109.753 40.3451 109.58 40.605 109.448 40.9083C109.317 41.2115 109.229 41.5509 109.185 41.9263H114.005ZM109.149 42.3668V42.5039C109.149 43.043 109.212 43.5172 109.339 43.9263C109.465 44.3354 109.646 44.6796 109.88 44.9588C110.114 45.2332 110.397 45.4401 110.728 45.5797C111.06 45.7193 111.431 45.7891 111.84 45.7891C112.206 45.7891 112.523 45.7506 112.791 45.6736C113.059 45.5918 113.283 45.5027 113.464 45.4064C113.649 45.3054 113.795 45.2163 113.903 45.1393C114.01 45.0575 114.088 45.0165 114.137 45.0165C114.2 45.0165 114.249 45.0406 114.283 45.0887L114.473 45.3198C114.356 45.4642 114.2 45.599 114.005 45.7241C113.815 45.8493 113.6 45.9576 113.361 46.049C113.127 46.1357 112.874 46.2055 112.601 46.2584C112.333 46.3114 112.062 46.3378 111.789 46.3378C111.292 46.3378 110.838 46.2536 110.429 46.0851C110.019 45.9118 109.668 45.6615 109.375 45.3342C109.083 45.0069 108.856 44.6074 108.695 44.1357C108.539 43.6592 108.461 43.1152 108.461 42.5039C108.461 41.9889 108.534 41.5148 108.68 41.0816C108.832 40.6435 109.046 40.2681 109.324 39.9552C109.607 39.6375 109.951 39.3896 110.355 39.2115C110.765 39.0334 111.228 38.9444 111.745 38.9444C112.155 38.9444 112.535 39.0142 112.886 39.1538C113.237 39.2934 113.542 39.4979 113.8 39.7675C114.059 40.0322 114.261 40.3596 114.407 40.7494C114.559 41.1393 114.634 41.587 114.634 42.0924C114.634 42.1983 114.619 42.2705 114.59 42.309C114.561 42.3475 114.512 42.3668 114.444 42.3668H109.149Z" fill="black"/>
<path d="M117.194 40.3162C117.53 39.9023 117.918 39.5701 118.357 39.3198C118.8 39.0695 119.293 38.9444 119.834 38.9444C120.234 38.9444 120.585 39.007 120.887 39.1321C121.195 39.2573 121.448 39.4378 121.648 39.6736C121.848 39.9095 121.999 40.1935 122.102 40.5256C122.204 40.8577 122.255 41.2332 122.255 41.652V46.244H121.553V41.652C121.553 40.9781 121.397 40.451 121.085 40.0707C120.773 39.6857 120.297 39.4931 119.659 39.4931C119.186 39.4931 118.742 39.6135 118.327 39.8541C117.918 40.09 117.552 40.4197 117.23 40.8433V46.244H116.528V39.0599H116.916C117.038 39.0599 117.108 39.1201 117.128 39.2404L117.194 40.3162Z" fill="black"/>
<path d="M125.273 35.7387V42.1429H125.609C125.678 42.1429 125.741 42.1333 125.8 42.114C125.863 42.0948 125.931 42.0491 126.004 41.9769L128.923 39.2404C128.971 39.1827 129.025 39.1393 129.084 39.1105C129.142 39.0768 129.215 39.0599 129.303 39.0599H129.917L126.706 42.0707C126.619 42.1718 126.524 42.2512 126.421 42.309C126.499 42.3475 126.565 42.3932 126.619 42.4462C126.677 42.4943 126.733 42.5521 126.787 42.6195L130.159 46.244H129.552C129.483 46.244 129.42 46.2343 129.361 46.2151C129.308 46.191 129.257 46.1453 129.208 46.0779L126.151 42.8433C126.112 42.8 126.073 42.7639 126.034 42.735C125.999 42.7061 125.963 42.6844 125.924 42.67C125.885 42.6507 125.839 42.6387 125.785 42.6339C125.736 42.6243 125.675 42.6195 125.602 42.6195H125.273V46.244H124.571V35.7387H125.273Z" fill="black"/>
<path d="M133.938 38.9444C134.46 38.9444 134.925 39.0334 135.335 39.2115C135.749 39.3848 136.098 39.6327 136.381 39.9552C136.664 40.2777 136.878 40.6676 137.025 41.1249C137.176 41.5773 137.251 42.0852 137.251 42.6483C137.251 43.2115 137.176 43.7193 137.025 44.1718C136.878 44.6243 136.664 45.0117 136.381 45.3342C136.098 45.6567 135.749 45.9046 135.335 46.0779C134.925 46.2512 134.46 46.3378 133.938 46.3378C133.416 46.3378 132.948 46.2512 132.534 46.0779C132.124 45.9046 131.776 45.6567 131.488 45.3342C131.205 45.0117 130.988 44.6243 130.837 44.1718C130.691 43.7193 130.617 43.2115 130.617 42.6483C130.617 42.0852 130.691 41.5773 130.837 41.1249C130.988 40.6676 131.205 40.2777 131.488 39.9552C131.776 39.6327 132.124 39.3848 132.534 39.2115C132.948 39.0334 133.416 38.9444 133.938 38.9444ZM133.938 45.7963C134.372 45.7963 134.75 45.7241 135.072 45.5797C135.398 45.4305 135.669 45.2187 135.884 44.9443C136.103 44.67 136.266 44.3403 136.374 43.9552C136.481 43.5653 136.535 43.1297 136.535 42.6483C136.535 42.1718 136.481 41.7386 136.374 41.3487C136.266 40.9588 136.103 40.6267 135.884 40.3523C135.669 40.0732 135.398 39.859 135.072 39.7097C134.75 39.5605 134.372 39.4859 133.938 39.4859C133.504 39.4859 133.124 39.5605 132.797 39.7097C132.475 39.859 132.205 40.0732 131.985 40.3523C131.771 40.6267 131.607 40.9588 131.495 41.3487C131.388 41.7386 131.334 42.1718 131.334 42.6483C131.334 43.1297 131.388 43.5653 131.495 43.9552C131.607 44.3403 131.771 44.67 131.985 44.9443C132.205 45.2187 132.475 45.4305 132.797 45.5797C133.124 45.7241 133.504 45.7963 133.938 45.7963Z" fill="black"/>
</svg>
