<svg width="45" height="45" viewBox="0 0 45 45" fill="none" xmlns="http://www.w3.org/2000/svg">
<path d="M38.4358 5.09375H37.12V37.4199C37.12 39.5674 35.3719 41.3155 33.2244 41.3155H19.8925H9.29102V42.5138C9.29102 43.8861 10.4047 44.9997 11.7769 44.9997H25.104H38.4311C39.8033 44.9997 40.9169 43.8861 40.9169 42.5138V7.57965C40.917 6.20747 39.808 5.09375 38.4358 5.09375Z" fill="#FFBE9D"/>
<path d="M19.8923 39.906H33.2194C34.5915 39.906 35.7053 38.7923 35.7053 37.4202V5.09399V2.4859C35.7053 1.11372 34.5915 0 33.2194 0H19.8923H15.4609V0.822368C15.4702 0.906955 15.475 0.996241 15.475 1.08553V6.50376V7.89474C15.475 9.82613 13.9054 11.3957 11.974 11.3957H10.5831H5.16481C5.09432 11.3957 5.01914 11.391 4.94865 11.3863H4.08398V37.4202C4.08398 38.7923 5.19771 39.906 6.56989 39.906H9.29546H19.8923ZM20.3951 31.4568H11.7062C11.0577 31.4568 10.5314 30.9304 10.5314 30.282C10.5314 29.6334 11.0577 29.1071 11.7062 29.1071H20.3998C21.0483 29.1071 21.5746 29.6334 21.5746 30.282C21.5746 30.9304 21.0436 31.4568 20.3951 31.4568ZM29.0887 25.4606H11.7062C11.0577 25.4606 10.5314 24.9342 10.5314 24.2858C10.5314 23.6372 11.0577 23.1109 11.7062 23.1109H29.0887C29.7372 23.1109 30.2635 23.6372 30.2635 24.2858C30.2635 24.9342 29.7372 25.4606 29.0887 25.4606ZM11.7062 16.7434H29.0887C29.7372 16.7434 30.2635 17.2697 30.2635 17.9182C30.2635 18.5667 29.7372 19.093 29.0887 19.093H11.7062C11.0577 19.093 10.5314 18.5667 10.5314 17.9182C10.5314 17.2697 11.0577 16.7434 11.7062 16.7434Z" fill="#FFBE9D"/>
<path d="M5.16571 9.98688H11.9749C11.9796 9.98688 11.989 9.98688 11.9937 9.98688C13.1309 9.97748 14.052 9.05643 14.0614 7.91921C14.0614 7.91451 14.0614 7.90511 14.0614 7.90041V1.08651C14.0614 0.456807 13.5445 0.0385742 13.0088 0.0385742C12.7503 0.0385742 12.4919 0.132559 12.2757 0.348725L4.42322 8.20117C3.76533 8.85906 4.23056 9.98688 5.16571 9.98688Z" fill="#FFBE9D"/>
</svg>
