<svg width="9" height="9" viewBox="0 0 9 9" fill="none" xmlns="http://www.w3.org/2000/svg">
<g clip-path="url(#clip0)">
<path d="M4.25303 6.82735L0.101775 2.66459C-0.0341561 2.5282 -0.0339276 2.30738 0.102478 2.17122C0.238866 2.03517 0.459805 2.03552 0.595842 2.17193L4.50002 6.08691L8.40417 2.17179C8.54023 2.0354 8.76103 2.03505 8.89743 2.17108C8.96581 2.23934 9 2.32876 9 2.41818C9 2.50737 8.96604 2.59644 8.89814 2.66457L4.74699 6.82735C4.68163 6.89304 4.59269 6.9299 4.50002 6.9299C4.40735 6.9299 4.31851 6.89294 4.25303 6.82735Z" fill="black"/>
</g>
<defs>
<clipPath id="clip0">
<rect width="9" height="9" fill="white" transform="matrix(-4.37114e-08 1 1 4.37114e-08 0 -0.000366211)"/>
</clipPath>
</defs>
</svg>
