<svg width="585" height="432" viewBox="0 0 585 432" fill="none" xmlns="http://www.w3.org/2000/svg">
<path d="M480.655 237.05C477.511 202.66 449.799 170.55 415.447 167.453C393.274 165.458 369.287 174.512 349.498 164.309C333.006 155.759 325.264 136.55 321.473 118.386C317.683 100.222 316.305 80.9936 306.976 64.9481C295.899 45.8816 274.8 34.1776 253.149 30.1876C217.496 23.6136 173.055 35.6501 148.934 62.6871C124.814 89.7241 111.884 146.43 122.477 181.076C127.835 232.376 155.974 280.418 196.577 312.176C237.18 343.935 289.61 359.581 341.167 357.843C375.633 356.684 410.688 347.564 438.019 326.493C465.351 305.422 483.809 271.345 480.655 237.05Z" fill="#EBEBEB"/>
<path d="M498.497 417.797C498.497 417.93 401.939 418.044 282.847 418.044C163.755 418.044 67.1973 417.93 67.1973 417.797C67.1973 417.664 163.746 417.55 282.847 417.55C401.949 417.55 498.497 417.655 498.497 417.797Z" fill="#263238"/>
<path d="M252.59 384.594L250.376 409L243.052 427.801C242.927 428.121 242.869 428.463 242.882 428.807C242.895 429.151 242.978 429.488 243.127 429.798C243.276 430.108 243.487 430.384 243.747 430.609C244.007 430.835 244.31 431.004 244.638 431.106C245.02 431.229 245.426 431.258 245.821 431.19C246.217 431.122 246.59 430.96 246.909 430.717C251.032 427.572 266.137 415.945 266.203 414.149C266.279 412.069 270.25 388.546 270.25 388.546L252.59 384.594Z" fill="#8547C6"/>
<g opacity="0.6">
<path opacity="0.6" d="M244.601 431.116L266.356 412.515L266.232 413.541C266.137 414.435 265.722 415.265 265.064 415.878C263.316 417.522 258.414 421.949 246.947 430.736C246.618 430.989 246.231 431.155 245.822 431.222C245.412 431.288 244.993 431.252 244.601 431.116Z" fill="white"/>
</g>
<g opacity="0.6">
<path opacity="0.6" d="M262.29 404.089C261.971 404.274 261.731 404.569 261.614 404.919C261.497 405.268 261.511 405.649 261.653 405.989C261.824 406.322 262.118 406.576 262.471 406.698C262.825 406.82 263.213 406.801 263.553 406.644C263.897 406.446 264.155 406.128 264.277 405.75C264.4 405.373 264.379 404.964 264.218 404.602C264.002 404.274 263.667 404.043 263.284 403.958C262.901 403.873 262.5 403.94 262.166 404.146" fill="white"/>
</g>
<path d="M251.422 421.113C250.932 420.285 250.287 419.559 249.522 418.975C248.669 418.518 247.738 418.228 246.776 418.12C246.776 418.054 247.09 417.902 247.669 417.883C248.431 417.884 249.177 418.105 249.816 418.519C250.456 418.927 250.964 419.511 251.279 420.201C251.488 420.733 251.488 421.094 251.422 421.113Z" fill="#263238"/>
<path d="M249.35 424.2C249.227 424.295 248.533 423.411 247.317 422.908C246.546 422.672 245.763 422.479 244.971 422.328C245.373 422.138 245.814 422.047 246.259 422.062C246.703 422.076 247.138 422.197 247.526 422.414C248.875 422.965 249.445 424.124 249.35 424.2Z" fill="#263238"/>
<path d="M255.127 417.294C254.181 416.484 253.174 415.747 252.116 415.09C250.978 414.583 249.802 414.164 248.601 413.836C249.905 413.731 251.212 414 252.368 414.613C253.524 415.225 254.482 416.155 255.127 417.294Z" fill="#263238"/>
<path d="M256.419 409.95C256.343 410.093 255.061 409.37 253.313 409.114C251.565 408.857 250.14 409.114 250.102 408.953C251.147 408.535 252.286 408.407 253.398 408.582C254.51 408.758 255.553 409.23 256.419 409.95Z" fill="#263238"/>
<path d="M257.255 402.787C256.234 402.322 255.153 402.002 254.044 401.837C252.92 401.836 251.802 401.986 250.719 402.284C250.719 402.227 250.985 401.951 251.583 401.695C252.375 401.37 253.232 401.237 254.085 401.304C254.939 401.372 255.764 401.639 256.495 402.084C257.046 402.417 257.302 402.73 257.255 402.787Z" fill="#263238"/>
<path d="M254.243 400.45C254.198 400.132 254.224 399.807 254.319 399.5C254.494 398.664 254.837 397.873 255.326 397.173C255.638 396.63 256.118 396.203 256.694 395.957C256.891 395.895 257.103 395.895 257.3 395.958C257.498 396.021 257.671 396.143 257.796 396.308C258.021 396.646 258.116 397.055 258.062 397.458C257.91 398.269 257.481 399.002 256.849 399.532C256.216 400.062 255.42 400.357 254.594 400.365C253.775 400.36 252.975 400.111 252.298 399.649C251.621 399.187 251.097 398.533 250.794 397.771C250.718 397.579 250.685 397.372 250.697 397.165C250.708 396.959 250.764 396.757 250.861 396.574C250.973 396.398 251.139 396.263 251.335 396.191C251.531 396.119 251.745 396.113 251.944 396.175C252.529 396.374 253.05 396.725 253.454 397.192C254.059 397.792 254.552 398.497 254.908 399.272C255.056 399.546 255.15 399.846 255.183 400.156C254.652 399.17 253.983 398.265 253.198 397.467C252.827 397.077 252.368 396.784 251.858 396.612C251.748 396.577 251.63 396.58 251.522 396.62C251.414 396.659 251.322 396.733 251.26 396.831C251.208 396.954 251.181 397.086 251.181 397.22C251.181 397.354 251.208 397.486 251.26 397.61C251.54 398.257 252.001 398.81 252.588 399.202C253.174 399.595 253.86 399.81 254.566 399.823C255.262 399.814 255.935 399.569 256.474 399.129C257.014 398.69 257.389 398.08 257.539 397.401C257.588 397.122 257.534 396.835 257.387 396.593C257.321 396.499 257.226 396.428 257.117 396.391C257.008 396.353 256.89 396.351 256.779 396.384C256.294 396.597 255.883 396.951 255.601 397.401C254.974 398.33 254.515 399.362 254.243 400.45Z" fill="#263238"/>
<path d="M347.942 147.494C347.967 147.6 347.967 147.71 347.942 147.817C347.534 149.308 344.969 155.55 344.095 155.521C343.221 155.493 341.169 154.153 341.349 153.26C341.53 152.367 344.807 145.508 344.807 145.508C344.807 145.508 345.396 144.463 347.372 144.929C347.61 144.995 347.885 147.75 347.942 147.494Z" fill="#EB996E"/>
<path d="M344.693 143.77C344.693 143.77 344.693 143.903 344.645 144.083C344.227 145.584 341.672 151.826 340.798 151.788C339.924 151.75 337.872 150.42 338.052 149.536C338.233 148.653 341.51 141.784 341.51 141.784C341.51 141.784 342.099 140.73 344.075 141.195C345.301 141.48 344.693 143.77 344.693 143.77Z" fill="#EB996E"/>
<path d="M341.824 141.186C341.824 141.186 341.824 141.319 341.824 141.499C341.415 143 338.85 149.242 337.976 149.204C337.102 149.166 335.05 147.836 335.231 146.952C335.411 146.069 338.651 139.2 338.651 139.2C338.527 139.419 338.366 137.946 341.216 138.611C342.451 138.896 341.824 141.186 341.824 141.186Z" fill="#EB996E"/>
<path d="M338.204 138.697C338.204 138.697 338.204 138.83 338.204 139.01C337.795 140.511 335.23 146.743 334.356 146.715C333.482 146.686 331.43 145.347 331.611 144.463C331.791 143.58 335.069 136.711 335.069 136.711C335.069 136.711 335.658 135.657 337.634 136.122C338.802 136.407 338.204 138.697 338.204 138.697Z" fill="#EB996E"/>
<path d="M341.994 151.417C342.609 150.503 343.11 149.517 343.486 148.482C343.981 147.51 344.349 146.479 344.578 145.413C343.961 146.329 343.46 147.318 343.087 148.358C342.585 149.323 342.218 150.353 341.994 151.417Z" fill="#D1734A"/>
<path d="M338.28 149.983C339.099 148.648 339.79 147.239 340.342 145.774C341.026 144.369 341.585 142.907 342.014 141.404C341.199 142.741 340.509 144.15 339.952 145.613C339.268 147.017 338.709 148.48 338.28 149.983Z" fill="#D1734A"/>
<g opacity="0.78">
<path opacity="0.78" d="M334.642 148.197C335.477 146.851 336.183 145.429 336.751 143.95C337.438 142.547 337.998 141.084 338.423 139.58C337.613 140.916 336.924 142.322 336.361 143.779C335.659 145.198 335.084 146.676 334.642 148.197Z" fill="#D1734A"/>
</g>
<path d="M343.286 160.1C343.438 159.73 345.927 152.339 345.927 152.339L331.677 145.318C330.955 146.268 328.761 156.633 328.761 156.633L329.264 160.167C329.264 160.167 340.075 166.38 340.37 166.437C340.664 166.494 343.286 160.1 343.286 160.1Z" fill="#EB996E"/>
<path d="M332.152 156.908L330.699 151.55C330.066 149.197 330.362 146.69 331.525 144.549L332.418 142.915L344.521 148.425C344.521 148.425 341.719 152.396 338.641 150.249L341.006 154.847L332.152 156.908Z" fill="#EB996E"/>
<path d="M339.962 155.284C339.895 155.284 339.962 154.657 339.791 153.602C339.498 152.15 338.684 150.856 337.501 149.964L336.38 149.137L337.729 149.508L340.845 150.382H340.779C341.457 150.471 342.147 150.365 342.767 150.078C343.388 149.79 343.914 149.332 344.284 148.757C344.341 148.668 344.385 148.572 344.417 148.472L344.598 148.852C341.111 147.437 337.948 146.116 335.782 145.052C334.68 144.511 333.796 144.045 333.207 143.713C332.881 143.564 332.58 143.365 332.314 143.124C333.557 143.568 334.775 144.078 335.962 144.653C338.195 145.603 341.339 146.886 344.836 148.301L345.102 148.406L345.006 148.681C344.963 148.816 344.906 148.947 344.836 149.071C344.42 149.802 343.766 150.369 342.983 150.676C342.271 150.945 341.509 151.052 340.75 150.99H340.684L337.587 150.04L337.815 149.584C339.065 150.569 339.881 152.004 340.085 153.583C340.196 154.151 340.154 154.738 339.962 155.284Z" fill="#D1734A"/>
<path d="M342.869 149.916C342.992 149.916 342.783 150.581 342.973 151.455C343.012 151.693 343.124 151.913 343.295 152.083C343.465 152.254 343.685 152.366 343.923 152.405C344.223 152.385 344.512 152.287 344.762 152.12C345.012 151.953 345.214 151.724 345.348 151.455C346.08 150.172 346.83 149.004 347.248 148.149C347.666 147.294 347.932 146.724 348.018 146.752C348.103 146.781 348.018 147.389 347.647 148.339C347.12 149.531 346.514 150.686 345.833 151.797C345.646 152.162 345.362 152.469 345.011 152.682C344.66 152.895 344.257 153.006 343.847 153.003C343.499 152.941 343.182 152.764 342.947 152.5C342.711 152.237 342.57 151.903 342.546 151.55C342.488 151.135 342.527 150.712 342.66 150.315C342.755 150.049 342.831 149.906 342.869 149.916Z" fill="#D1734A"/>
<path d="M293.516 86.741L289.346 129.491C289.184 131.127 288.387 132.635 287.126 133.69C285.865 134.745 284.24 135.264 282.601 135.134L272.787 134.345C271.147 134.214 269.624 133.443 268.547 132.199C267.47 130.955 266.926 129.338 267.03 127.695C267.344 122.565 267.838 116.295 267.838 116.295C267.838 116.295 258.708 114.88 258.594 105.75C258.537 101.38 259.155 92.4505 259.81 84.29C260.159 79.9571 262.127 75.9145 265.323 72.9674C268.518 70.0203 272.706 68.3849 277.053 68.387H277.661C279.918 68.5194 282.127 69.1033 284.154 70.1041C286.182 71.1049 287.989 72.5022 289.467 74.2135C290.945 75.9248 292.066 77.9152 292.761 80.067C293.457 82.2187 293.713 84.4882 293.516 86.741Z" fill="#EB996E"/>
<path d="M267.818 116.191C272.044 116.279 276.199 115.101 279.75 112.809C279.75 112.809 276.9 119.383 267.828 118.557L267.818 116.191Z" fill="#D1734A"/>
<path d="M261.786 91.0635C261.948 91.2345 262.936 90.503 264.342 90.5125C265.748 90.522 266.774 91.2155 266.926 91.0445C267.078 90.8735 266.831 90.655 266.384 90.332C265.779 89.913 265.059 89.6907 264.323 89.6955C263.592 89.6879 262.879 89.918 262.29 90.351C261.853 90.6835 261.701 90.9875 261.786 91.0635Z" fill="#263238"/>
<path d="M275.532 91.0637C275.694 91.2347 276.682 90.5032 278.088 90.5127C279.494 90.5222 280.51 91.2157 280.672 91.0447C280.833 90.8737 280.577 90.6552 280.13 90.3322C279.52 89.9152 278.798 89.6932 278.059 89.6957C277.329 89.6901 276.616 89.92 276.026 90.3512C275.599 90.6837 275.456 90.9877 275.532 91.0637Z" fill="#263238"/>
<path d="M270.488 99.1955C269.748 98.9607 268.982 98.8202 268.208 98.7775C267.847 98.7775 267.514 98.673 267.448 98.426C267.416 98.0572 267.503 97.688 267.695 97.3715C268.027 96.4975 268.379 95.595 268.749 94.6355C270.222 90.7595 271.286 87.558 271.134 87.501C270.982 87.444 269.652 90.5505 268.179 94.436L267.163 97.172C266.942 97.6058 266.878 98.1026 266.982 98.578C267.036 98.7039 267.117 98.8166 267.218 98.9085C267.32 99.0003 267.44 99.0691 267.571 99.11C267.77 99.1605 267.974 99.186 268.179 99.186C268.946 99.2818 269.721 99.285 270.488 99.1955Z" fill="#263238"/>
<path d="M274.621 100.164C274.393 100.164 274.384 101.675 273.082 102.758C271.781 103.841 270.156 103.708 270.147 103.879C270.137 104.05 270.508 104.173 271.192 104.192C272.085 104.209 272.954 103.906 273.643 103.337C274.307 102.799 274.734 102.021 274.83 101.171C274.887 100.535 274.726 100.155 274.621 100.164Z" fill="#263238"/>
<path d="M275.219 83.2925C275.352 83.6725 276.758 83.492 278.401 83.6915C280.045 83.891 281.375 84.3375 281.593 83.9955C281.698 83.834 281.46 83.473 280.928 83.1025C280.211 82.6505 279.4 82.3677 278.558 82.2755C277.715 82.1834 276.862 82.2842 276.064 82.5705C275.466 82.808 275.162 83.15 275.219 83.2925Z" fill="#263238"/>
<path d="M262.308 84.4707C262.555 84.7842 263.515 84.4707 264.683 84.4707C265.852 84.4707 266.83 84.6797 267.049 84.3472C267.153 84.1857 267.049 83.8722 266.564 83.5682C265.99 83.2115 265.323 83.0321 264.647 83.0523C263.971 83.0726 263.316 83.2917 262.764 83.6822C262.327 83.9862 262.194 84.3092 262.308 84.4707Z" fill="#263238"/>
<path d="M283.598 76.7281H283.655C285.109 77.8756 286.065 79.5393 286.324 81.3736C286.319 81.4336 286.319 81.494 286.324 81.5541C286.685 84.1571 286.619 86.8076 286.999 89.4106C287.244 92.0503 288.372 94.5303 290.2 96.4501C290.989 97.1816 292.385 97.6946 293.05 96.8301C293.263 96.4671 293.374 96.0538 293.373 95.6331C293.858 89.3441 295.577 83.7676 295.568 77.1936C295.568 76.3133 295.36 75.4456 294.96 74.6613C294.56 73.877 293.981 73.1984 293.269 72.6811C291.891 71.7311 290.21 70.6766 288.68 71.3986C287.151 72.1206 285.165 74.9896 283.978 76.1486" fill="#263238"/>
<path d="M290.438 90.8642C290.59 90.7977 296.708 88.9642 296.509 95.2532C296.309 101.542 290.087 100.003 290.077 99.8322C290.068 99.6612 290.438 90.8642 290.438 90.8642Z" fill="#EB996E"/>
<path d="M292.101 97.5237C292.101 97.5237 292.205 97.5997 292.386 97.6947C292.648 97.7994 292.94 97.7994 293.203 97.6947C293.613 97.4533 293.952 97.1069 294.184 96.6911C294.416 96.2754 294.533 95.8053 294.523 95.3292C294.555 94.7941 294.468 94.2586 294.267 93.7617C294.214 93.565 294.115 93.3839 293.978 93.2335C293.84 93.083 293.669 92.9677 293.478 92.8972C293.354 92.8602 293.221 92.8674 293.101 92.9177C292.982 92.9679 292.883 93.058 292.823 93.1727C292.737 93.3437 292.766 93.4767 292.737 93.4862C292.709 93.4957 292.604 93.3722 292.661 93.1157C292.702 92.9642 292.793 92.8306 292.918 92.7357C293.096 92.6149 293.312 92.5642 293.526 92.5932C293.782 92.6514 294.019 92.7747 294.213 92.9511C294.408 93.1275 294.554 93.351 294.637 93.6002C294.881 94.1491 294.988 94.7488 294.951 95.3482C294.961 95.905 294.809 96.4528 294.512 96.9239C294.215 97.3949 293.786 97.7686 293.279 97.9987C293.115 98.0336 292.946 98.0339 292.783 97.9996C292.619 97.9652 292.464 97.8969 292.329 97.7992C292.101 97.6757 292.034 97.5332 292.101 97.5237Z" fill="#D1734A"/>
<path d="M288.908 72.396C290.447 69.907 286.229 66.316 283.151 65.347C280.073 64.378 276.017 65.879 272.948 66.8955C271.048 67.532 269.091 68.4345 267.049 68.349C265.689 68.2117 264.357 67.8723 263.097 67.342C261.831 66.8095 260.47 66.5412 259.097 66.5535C258.413 66.5675 257.746 66.7689 257.168 67.1357C256.59 67.5025 256.124 68.0207 255.82 68.634C255.689 68.9447 255.627 69.2798 255.637 69.6167C255.647 69.9535 255.73 70.2842 255.88 70.5862C256.03 70.8881 256.242 71.1543 256.504 71.3667C256.766 71.579 257.07 71.7324 257.397 71.8165C256.962 71.5815 256.477 71.455 255.982 71.4478C255.488 71.4406 254.999 71.553 254.558 71.7753C254.116 71.9976 253.735 72.3233 253.446 72.7247C253.158 73.1261 252.97 73.5912 252.9 74.0806C252.83 74.57 252.879 75.069 253.043 75.5353C253.208 76.0016 253.482 76.4213 253.843 76.7587C254.205 77.0961 254.642 77.3412 255.119 77.4731C255.595 77.6051 256.096 77.62 256.58 77.5165C255.687 76.842 254.328 77.9535 254.442 79.065C254.561 79.6102 254.819 80.1151 255.193 80.5299C255.566 80.9447 256.041 81.2551 256.57 81.4305C259.173 82.5705 262.213 82.2095 264.902 81.2975C267.59 80.3855 270.098 78.9795 272.768 78.0105C275.437 77.0415 279.912 75.284 282.591 76.234C284.567 76.9275 285.944 79.3025 287.056 78.78C287.582 78.5005 288.035 78.1012 288.378 77.6144C288.721 77.1275 288.945 76.5669 289.032 75.9775C289.18 74.791 289.139 73.5884 288.908 72.415" fill="#263238"/>
<path d="M256.637 71.6457C256.694 71.6457 256.96 72.1112 257.635 72.8332C258.591 73.8491 259.782 74.6156 261.102 75.0657C263.039 75.7705 265.175 75.6852 267.049 74.8282C269.177 73.8782 270.992 71.9782 273.082 70.1827C275.024 68.3692 277.473 67.1925 280.102 66.8102C281.189 66.6794 282.291 66.7979 283.324 67.1568C284.358 67.5156 285.297 68.1054 286.068 68.8812C286.563 69.4246 286.944 70.0621 287.187 70.7558C287.43 71.4495 287.531 72.1851 287.484 72.9187C287.444 73.3085 287.355 73.6916 287.218 74.0587C287.104 74.3057 287.028 74.4292 287.009 74.4197C287.129 73.9203 287.209 73.412 287.246 72.8997C287.249 71.5105 286.71 70.175 285.745 69.1757C285.006 68.4802 284.121 67.9581 283.155 67.6476C282.189 67.337 281.165 67.2456 280.159 67.3802C277.665 67.7831 275.348 68.9248 273.509 70.6577C271.457 72.4057 269.586 74.3627 267.315 75.3507C265.641 76.0682 263.78 76.2265 262.009 75.802C260.237 75.3776 258.65 74.393 257.483 72.9947C257.237 72.6976 257.018 72.3797 256.827 72.0447C256.675 71.7502 256.618 71.6552 256.637 71.6457Z" fill="#455A64"/>
<path d="M292.025 90.5981C292.025 90.5981 291.759 90.4271 291.521 89.9236C291.209 89.2138 291.1 88.4308 291.208 87.6626C291.35 85.6581 293.108 83.4921 293.355 80.7181C293.51 79.4351 293.268 78.1353 292.661 76.9941C292.129 76.0905 291.314 75.3864 290.343 74.9896C289.683 74.7146 288.963 74.6164 288.253 74.7046C287.759 74.7806 287.484 74.9041 287.465 74.8566C287.446 74.8091 287.683 74.6286 288.206 74.4671C288.964 74.2781 289.76 74.3178 290.495 74.5811C291.597 74.9594 292.534 75.7081 293.146 76.6996C293.851 77.9343 294.138 79.3641 293.963 80.7751C293.806 82.1479 293.4 83.4805 292.766 84.7081C292.249 85.6562 291.872 86.6736 291.645 87.7291C291.476 88.7019 291.609 89.7029 292.025 90.5981Z" fill="#455A64"/>
<path d="M238.236 45.872C237.904 45.5965 236.726 35.422 236.726 35.422L245.276 30.406L258.576 33.4745L255.906 40.9225L242.245 48.0855L238.236 45.872Z" fill="#EB996E"/>
<path d="M211.787 53.9186C211.787 53.9186 233.276 42.7466 247.061 41.2836C262.365 39.6496 277.793 48.7601 277.793 48.7601L274.744 8.39457C274.744 8.39457 260.351 -2.34993 242.045 2.21957C226.522 6.09557 210.989 13.6196 210.989 13.6196L211.787 53.9186Z" fill="#FAFAFA"/>
<path d="M211.788 53.9186V53.2251L211.731 51.1446C211.683 49.2446 211.617 46.5846 211.522 43.1171C211.36 36.0966 211.123 26.0171 210.828 13.6671V13.5436L210.942 13.4866C215.056 11.5866 219.54 9.61056 224.366 7.78656C229.433 5.78064 234.602 4.03979 239.851 2.57106L241.922 2.02006L244.059 1.58306C245.502 1.28963 246.961 1.08342 248.429 0.965561C251.445 0.75808 254.475 0.882323 257.464 1.33606C260.536 1.82894 263.549 2.6441 266.451 3.76806C269.442 4.90628 272.289 6.39214 274.934 8.19506L275.02 8.25206V8.37556C275.02 8.76506 275.086 9.19256 275.115 9.61056C276.15 23.4521 277.148 36.6856 278.05 48.7411V49.1686L277.67 48.9596C273.383 46.5989 268.85 44.7162 264.152 43.3451C259.884 42.0841 255.463 41.4129 251.013 41.3501C247.065 41.3747 243.14 41.9438 239.347 43.0411C235.794 43.9911 232.583 45.1121 229.695 46.1856C223.938 48.3611 219.483 50.3656 216.443 51.7716L212.985 53.4056L212.101 53.8331L211.788 53.9661L212.082 53.7951L212.947 53.3391C213.726 52.9401 214.847 52.3891 216.386 51.6291C219.397 50.1851 223.843 48.1331 229.6 45.9291C232.45 44.8366 235.699 43.7061 239.262 42.7276C243.081 41.5955 247.039 41.0039 251.023 40.9701C255.528 41.0265 260.004 41.7075 264.323 42.9936C269.063 44.3521 273.636 46.2385 277.955 48.6176L277.613 48.8361C276.663 36.7806 275.713 23.5471 274.64 9.70556L274.545 8.46106L274.649 8.64156C272.038 6.87039 269.229 5.41017 266.28 4.29056C263.408 3.17676 260.428 2.36797 257.388 1.87756C254.417 1.40567 251.403 1.26231 248.401 1.45006C246.953 1.56696 245.513 1.76679 244.088 2.04856L241.979 2.48556L239.917 3.02706C234.689 4.45556 229.536 6.14874 224.48 8.10006C219.663 9.94306 215.17 11.9001 211.075 13.8001L211.18 13.6291C211.379 25.9791 211.541 35.9921 211.655 42.9841C211.702 46.4706 211.74 49.1971 211.769 51.0686V53.1966C211.797 53.7001 211.788 53.9186 211.788 53.9186Z" fill="#263238"/>
<path d="M266.508 37.6356C266.365 37.6356 265.795 30.8241 265.235 22.4356C264.674 14.0471 264.323 7.15015 264.456 7.15015C264.589 7.15015 265.159 13.9521 265.729 22.3501C266.299 30.7481 266.641 37.6261 266.508 37.6356Z" fill="#E0E0E0"/>
<path d="M261.111 35.5172C260.978 35.5172 260.408 28.7057 259.848 20.3172C259.287 11.9287 258.898 5.11717 259.069 5.06017C259.24 5.00317 259.772 11.8622 260.332 20.2602C260.893 28.6582 261.254 35.5077 261.111 35.5172Z" fill="#E0E0E0"/>
<path d="M255.915 34.7761C255.782 34.7761 255.212 27.9646 254.642 19.5761C254.072 11.1876 253.692 4.31909 253.872 4.31909C254.053 4.31909 254.575 11.1211 255.136 19.5191C255.696 27.9171 256.048 34.7666 255.915 34.7761Z" fill="#E0E0E0"/>
<path d="M245.247 36.2677C245.114 36.2677 244.544 29.4562 243.974 21.0677C243.404 12.6792 243.024 5.86766 243.204 5.81066C243.385 5.75366 243.907 12.6127 244.468 21.0107C245.028 29.4087 245.38 36.2582 245.247 36.2677Z" fill="#E0E0E0"/>
<path d="M240.278 37.6356C240.145 37.6356 239.575 30.8336 239.014 22.4356C238.454 14.0376 238.102 7.15015 238.235 7.15015C238.368 7.15015 238.938 13.9616 239.508 22.3501C240.078 30.7386 240.42 37.6261 240.278 37.6356Z" fill="#E0E0E0"/>
<path d="M234.997 38.9846C234.854 38.9846 234.294 32.1731 233.724 23.7846C233.154 15.3961 232.774 8.52759 232.945 8.52759C233.116 8.52759 233.657 15.3296 234.218 23.7276C234.778 32.1256 235.101 38.9751 234.997 38.9846Z" fill="#E0E0E0"/>
<path d="M224.935 43.136C224.793 43.136 224.223 36.334 223.662 27.936C223.102 19.538 222.712 12.6885 222.883 12.679C223.054 12.6695 223.586 19.4905 224.156 27.879C224.726 36.2675 225.068 43.1265 224.935 43.136Z" fill="#E0E0E0"/>
<path d="M229.743 40.8845C229.6 40.8845 229.04 34.0825 228.47 25.6845C227.9 17.2865 227.52 10.4275 227.691 10.418C227.862 10.4085 228.403 17.2295 228.964 25.618C229.524 34.0065 229.876 40.8845 229.743 40.8845Z" fill="#E0E0E0"/>
<path d="M219.321 44.941C219.188 44.941 218.618 38.1295 218.058 29.741C217.497 21.3525 217.108 14.541 217.279 14.484C217.45 14.427 217.982 21.286 218.552 29.684C219.122 38.082 219.464 44.9315 219.321 44.941Z" fill="#E0E0E0"/>
<path d="M250.433 34.928C250.3 34.928 249.73 28.1165 249.16 19.728C248.59 11.3395 248.21 4.48046 248.391 4.47096C248.571 4.46146 249.094 11.273 249.654 19.671C250.215 28.069 250.566 34.9185 250.433 34.928Z" fill="#E0E0E0"/>
<path d="M257.588 35.2512C258.703 34.6808 259.883 34.247 261.103 33.9592C263.326 33.2657 266.432 32.3537 269.947 31.3847L269.805 32.2682L268.418 31.3942C261.597 27.1667 255.241 25.4377 255.336 25.1432C255.336 25.0197 256.989 25.3047 259.526 26.0932C262.818 27.2051 265.973 28.6871 268.931 30.5107C269.425 30.8052 269.881 31.1187 270.346 31.4132C270.424 31.466 270.485 31.5399 270.522 31.6262C270.559 31.7124 270.571 31.8075 270.556 31.9002C270.541 31.993 270.5 32.0795 270.437 32.1497C270.375 32.22 270.294 32.2709 270.204 32.2967C266.679 33.2467 263.554 34.0257 261.274 34.5577C260.079 34.9416 258.84 35.1746 257.588 35.2512Z" fill="#8547C6"/>
<path d="M262.831 34.168C262.565 34.168 262.118 31.945 261.881 29.152C261.643 26.359 261.596 24.06 261.881 24.0315C262.166 24.003 262.593 26.245 262.831 29.0475C263.068 31.85 263.106 34.1395 262.831 34.168Z" fill="#8547C6"/>
<path d="M270.346 32.3725C270.346 32.3725 270.46 32.5435 270.564 32.9235C270.694 33.4917 270.658 34.0853 270.46 34.6335C270.129 35.5 269.547 36.2478 268.788 36.7805C268.337 37.1247 267.85 37.4179 267.334 37.6545C266.751 37.9134 266.138 38.1016 265.51 38.215C264.072 38.4884 262.591 38.4495 261.169 38.101C260.378 37.916 259.602 37.6682 258.851 37.36C257.566 36.8924 256.386 36.176 255.379 35.2517C254.371 34.3274 253.556 33.2134 252.98 31.9735C251.977 30.1875 251.641 28.1038 252.03 26.093C252.276 25.0262 252.896 24.0827 253.778 23.433C254.627 22.8515 255.605 22.4862 256.628 22.369C259.095 22.0472 261.603 22.3768 263.903 23.3252C266.203 24.2735 268.215 25.8075 269.738 27.7745C271.003 29.4504 271.759 31.456 271.913 33.5505C272.023 34.3019 272.004 35.0666 271.856 35.8115C271.709 35.0799 271.601 34.341 271.533 33.598C271.246 31.6252 270.436 29.7652 269.187 28.2115C267.318 25.9262 264.757 24.3093 261.891 23.604C260.222 23.1789 258.486 23.0821 256.78 23.319C255.912 23.4423 255.086 23.7677 254.367 24.269C253.672 24.7807 253.186 25.5264 252.999 26.3685C252.67 28.1526 252.98 29.9954 253.873 31.5745C254.61 33.1202 255.716 34.461 257.093 35.479C259.518 37.139 262.455 37.88 265.377 37.569C266.483 37.4159 267.537 37.0059 268.455 36.372C269.161 35.9231 269.729 35.2888 270.099 34.5385C270.305 34.0496 270.396 33.5197 270.365 32.99C270.316 32.7876 270.31 32.5775 270.346 32.3725Z" fill="#8547C6"/>
<path d="M248.771 49.7196L253.056 46.2521C254.929 44.7397 256.144 42.5608 256.447 40.1721L256.685 38.3481L243.812 35.7451C243.812 35.7451 242.606 39.6401 247.451 40.6091C243.157 42.5091 241.551 46.3091 240.373 50.5746L248.771 49.7196Z" fill="#EB996E"/>
<path d="M243.461 43.8962C243.527 43.8962 243.803 43.3642 244.582 42.6517C245.651 41.6544 247.053 41.0891 248.515 41.0652H249.892L248.6 40.5807L245.598 39.4502H245.655C245.054 39.1328 244.556 38.6504 244.219 38.0598C243.883 37.4691 243.722 36.7947 243.755 36.1157C243.765 36.0129 243.784 35.9111 243.812 35.8117L243.451 36.0112C247.061 36.9042 250.329 37.6547 252.723 38.0632C253.92 38.2722 254.889 38.4147 255.573 38.4812C255.92 38.5503 256.275 38.5695 256.628 38.5382C255.379 38.1704 254.11 37.8722 252.828 37.6452C250.472 37.1322 247.223 36.3152 243.613 35.4127L243.337 35.3462L243.252 35.6122C243.21 35.7516 243.181 35.8948 243.166 36.0397C243.068 36.8623 243.264 37.6931 243.717 38.3862C244.128 39.0174 244.677 39.5469 245.323 39.9347L248.344 40.9797L248.429 40.4857C246.856 40.5515 245.371 41.2341 244.297 42.3857C243.888 42.8057 243.6 43.3272 243.461 43.8962Z" fill="#D1734A"/>
<path d="M273.842 393.619L292.32 247.319L288.776 225.146H251.66L247.233 390.95C247.214 391.585 247.422 392.206 247.818 392.701C248.215 393.197 248.775 393.536 249.399 393.658L269.691 396.783C270.172 396.856 270.663 396.832 271.135 396.712C271.607 396.591 272.05 396.377 272.437 396.082C272.825 395.787 273.149 395.417 273.39 394.994C273.631 394.571 273.785 394.103 273.842 393.619Z" fill="#263238"/>
<path d="M291.787 252.25L325.398 285.5L277.043 297.252L280.482 321.6L345.927 312.699C348.696 312.321 351.36 311.384 353.756 309.946C356.151 308.507 358.23 306.596 359.864 304.329C362.335 300.898 363.691 296.789 363.747 292.561C363.803 288.332 362.557 284.189 360.177 280.693L309.2 205.881L286.4 213.3L291.787 252.25Z" fill="#263238"/>
<path d="M289.935 243.757C290.48 245.102 290.872 246.504 291.103 247.937C291.493 249.335 291.723 250.772 291.787 252.222C291.242 250.877 290.85 249.474 290.619 248.042C290.229 246.644 289.999 245.207 289.935 243.757Z" fill="#455A64"/>
<path d="M285.042 300.311C285.042 300.311 285.308 300.206 285.84 300.045L288.186 299.313L297.211 296.568L330.024 286.697L329.939 287.011L289.592 244.061L290.02 243.919C289.212 250.673 288.386 257.713 287.531 264.904C283.37 299.75 279.465 331.281 276.435 354.081C274.934 365.481 273.585 374.686 272.635 381.042C272.093 384.215 271.742 386.685 271.371 388.338L270.972 390.238C270.877 390.656 270.82 390.874 270.82 390.874C270.844 390.654 270.879 390.435 270.925 390.219C271.001 389.782 271.124 389.155 271.276 388.319C271.609 386.666 271.932 384.186 272.445 381.013C273.395 374.648 274.62 365.433 276.083 354.033C279.019 331.233 282.866 299.693 287.027 264.847C287.882 257.656 288.718 250.597 289.526 243.862L289.583 243.339L289.944 243.719L330.205 286.754L330.414 286.982L330.119 287.068L297.259 296.777L288.215 299.418L285.84 300.102L285.042 300.311Z" fill="#455A64"/>
<path d="M274.165 390.865C274.022 390.865 277.86 359.79 282.715 321.515C287.569 283.239 291.635 252.165 291.768 252.222C291.901 252.279 288.073 283.277 283.218 321.572C278.364 359.866 274.298 390.874 274.165 390.865Z" fill="#455A64"/>
<path d="M286.334 228.272C286.68 228.996 286.941 229.758 287.113 230.542C287.521 231.958 288.063 233.943 288.519 236.147C288.975 238.351 289.355 240.365 289.573 241.847C289.741 242.631 289.82 243.431 289.811 244.232C289.538 243.482 289.343 242.705 289.231 241.914C288.889 240.289 288.481 238.38 288.034 236.271L286.771 230.647C286.548 229.872 286.401 229.076 286.334 228.272Z" fill="#455A64"/>
<path d="M288.491 225.403C288.491 225.403 288.966 224.947 289.859 225.26C290.12 225.354 290.351 225.515 290.53 225.726C290.708 225.938 290.827 226.194 290.875 226.467C290.94 226.805 290.902 227.155 290.766 227.471C290.631 227.788 290.404 228.057 290.115 228.243C289.816 228.407 289.475 228.476 289.136 228.442C288.797 228.408 288.476 228.273 288.215 228.053C288 227.872 287.844 227.63 287.766 227.36C287.689 227.089 287.693 226.802 287.778 226.533C287.869 226.183 288.094 225.883 288.405 225.697C288.624 225.574 288.766 225.574 288.776 225.602C288.785 225.631 288.263 225.868 288.111 226.619C288.068 226.818 288.082 227.025 288.151 227.216C288.22 227.407 288.341 227.576 288.5 227.702C288.694 227.856 288.929 227.95 289.175 227.972C289.422 227.994 289.669 227.943 289.887 227.825C290.093 227.685 290.256 227.489 290.356 227.261C290.457 227.032 290.492 226.78 290.457 226.533C290.426 226.329 290.345 226.135 290.22 225.969C290.096 225.803 289.933 225.671 289.745 225.583C289.347 225.426 288.917 225.364 288.491 225.403Z" fill="#455A64"/>
<path d="M335.288 291.2C335.193 291.314 333.293 289.575 330.538 288.008C327.783 286.44 325.379 285.633 325.417 285.49C329.212 286.31 332.653 288.305 335.25 291.19L335.288 291.2Z" fill="#455A64"/>
<path d="M251.127 224.7L247.859 166.551C247.859 166.551 242.986 145.603 238.777 137.186L260.998 120.903L266.755 123.668L278.155 134.032L289.688 127.297C289.688 127.297 303.501 133.111 307.139 135.296C310.778 137.481 311.5 143.295 311.5 143.295C311.5 143.295 299.52 164.404 299.15 172.688C298.779 180.972 311.129 202.138 311.129 202.138C311.129 202.138 317.884 204.142 318.264 209.576C318.596 214.279 316.411 215.96 316.411 215.96C316.411 215.96 315.461 210.849 308.593 213.034C301.724 215.219 287.351 227.94 277.043 228.301C266.736 228.662 251.127 224.7 251.127 224.7Z" fill="#8547C6"/>
<path d="M310.892 140.815L319.651 176.725L329.607 152.975L343.724 161.525C343.724 161.525 330.424 208.844 317.238 204.189C317.238 204.189 309.03 200.038 308.023 197.093C307.016 194.148 291.797 172.687 291.797 172.687L310.892 140.815Z" fill="#8547C6"/>
<path d="M311.1 202.137C311.1 202.137 310.977 202.004 310.796 201.738L309.998 200.57C309.656 200.057 309.229 199.43 308.801 198.67C308.374 197.91 307.851 197.064 307.348 196.067C306.844 195.069 306.274 194.015 305.771 192.818C305.267 191.621 304.726 190.338 304.213 188.97C303.156 185.978 302.34 182.906 301.771 179.784C301.247 176.644 300.965 173.468 300.926 170.284C300.926 168.821 300.926 167.434 301.03 166.132C301.135 164.831 301.23 163.634 301.334 162.532C301.591 160.337 301.866 158.57 302.132 157.364C302.246 156.813 302.341 156.347 302.427 155.977C302.447 155.813 302.492 155.653 302.56 155.502C302.581 155.666 302.581 155.832 302.56 155.996C302.503 156.376 302.436 156.841 302.36 157.402C302.161 158.618 301.933 160.385 301.724 162.57C301.638 163.662 301.505 164.859 301.486 166.151C301.467 167.443 301.41 168.821 301.42 170.274C301.487 173.423 301.783 176.564 302.303 179.67C302.86 182.767 303.657 185.816 304.688 188.79C305.182 190.148 305.638 191.45 306.189 192.59C306.74 193.73 307.215 194.851 307.69 195.848C308.165 196.846 308.64 197.691 309.077 198.461C309.514 199.23 309.884 199.876 310.198 200.408L310.91 201.634C310.992 201.794 311.056 201.963 311.1 202.137Z" fill="#263238"/>
<path d="M234.968 42.9746C234.968 42.9746 212.738 80.3286 211.218 85.8386C209.622 91.5386 240.488 140.359 240.488 140.359C240.488 140.359 241.086 141.927 241.096 141.917L263.155 124.295L237.153 87.5011L251.128 50.7551L234.968 42.9746Z" fill="#8547C6"/>
<path d="M238.055 88.9925C237.979 89.0495 237.513 88.3845 236.535 87.5485C235.254 86.4681 233.744 85.6949 232.119 85.2882C230.493 84.8815 228.797 84.852 227.158 85.202C225.904 85.4775 225.173 85.848 225.135 85.7625C225.692 85.3123 226.34 84.9882 227.035 84.8125C227.786 84.5945 228.562 84.4732 229.343 84.4515C230.303 84.431 231.261 84.5364 232.193 84.765C233.12 85.0085 234.014 85.3658 234.853 85.829C235.541 86.2191 236.179 86.6913 236.753 87.235C237.31 87.7186 237.755 88.3185 238.055 88.9925Z" fill="#263238"/>
<path d="M248.154 143.38C248.059 143.38 248.106 142.079 247.755 140.036C247.539 138.836 247.222 137.657 246.805 136.512C245.814 133.692 244.256 131.105 242.226 128.912C241.398 128.026 240.499 127.209 239.537 126.47C237.875 125.216 236.687 124.646 236.754 124.57C237.05 124.649 237.334 124.767 237.599 124.922C237.926 125.07 238.243 125.238 238.549 125.425C238.961 125.661 239.361 125.918 239.746 126.195C240.771 126.906 241.726 127.714 242.596 128.608C243.638 129.713 244.565 130.923 245.361 132.218C246.136 133.522 246.773 134.904 247.261 136.341C247.652 137.515 247.932 138.724 248.097 139.951C248.162 140.42 248.203 140.892 248.22 141.366C248.248 141.723 248.248 142.082 248.22 142.44C248.249 142.755 248.226 143.072 248.154 143.38Z" fill="#263238"/>
<path d="M308.516 203.221C308.516 203.278 307.823 203.221 306.616 203.297C304.893 203.469 303.207 203.908 301.619 204.598C299.27 205.639 297.059 206.966 295.036 208.55C292.718 210.298 290.286 212.426 287.521 214.345C284.931 216.241 281.963 217.556 278.819 218.202C276.248 218.656 273.62 218.685 271.039 218.288C269.306 218.034 267.598 217.627 265.937 217.072C265.348 216.872 264.902 216.701 264.598 216.578C264.442 216.524 264.293 216.453 264.151 216.369C264.774 216.506 265.39 216.678 265.994 216.882C267.659 217.365 269.358 217.72 271.077 217.946C273.605 218.281 276.17 218.213 278.677 217.746C281.765 217.103 284.68 215.808 287.227 213.946C289.982 212.046 292.395 209.928 294.751 208.189C296.814 206.599 299.075 205.284 301.477 204.275C303.105 203.598 304.837 203.203 306.597 203.107C307.072 203.078 307.548 203.078 308.022 203.107C308.191 203.125 308.357 203.163 308.516 203.221Z" fill="#263238"/>
<path d="M318.758 193.208C318.461 192.442 318.266 191.64 318.178 190.823C317.873 188.863 317.775 186.876 317.884 184.895C317.997 182.914 318.316 180.949 318.834 179.034C319.007 178.23 319.288 177.453 319.67 176.725C319.555 177.533 319.39 178.332 319.176 179.119C318.772 181.031 318.514 182.972 318.406 184.924C318.303 186.875 318.353 188.832 318.558 190.776C318.681 191.581 318.748 192.393 318.758 193.208Z" fill="#263238"/>
<g opacity="0.3">
<path opacity="0.3" d="M265.082 216.15C265.158 213.775 267.989 212.417 270.364 212.559C272.739 212.702 274.991 213.775 277.366 213.861C281.394 214.013 284.966 211.372 288.044 208.807C291.122 206.242 294.542 203.477 298.57 203.316C299.073 203.316 299.71 203.401 299.852 203.895C299.995 204.389 299.605 204.76 299.263 205.064C294.304 209.491 289.231 214.003 283.113 216.597C276.995 219.19 269.538 219.599 263.98 215.96" fill="black"/>
</g>
<g opacity="0.3">
<path opacity="0.3" d="M302.114 158.533C301.444 170.16 305.225 181.606 312.688 190.548C313.932 192.02 315.31 193.473 315.918 195.298C316.526 197.121 316.117 199.477 314.426 200.408C313.689 200.744 312.87 200.854 312.07 200.726C311.271 200.597 310.527 200.236 309.933 199.686C308.758 198.573 307.843 197.214 307.254 195.706C301.649 183.717 298.875 169.876 302.504 157.146" fill="black"/>
</g>
<path d="M192.541 350.499C193.491 347.307 195.438 344.229 198.488 342.899C201.537 341.569 205.328 342.31 208.577 343.488C211.826 344.666 215.008 346.252 218.457 346.461C221.905 346.67 225.791 345.036 226.826 341.711C227.776 338.605 225.924 335.308 223.587 333.057C221.117 330.678 218.088 328.96 214.779 328.06C211.471 327.16 207.989 327.107 204.655 327.907C201.32 328.707 198.241 330.333 195.701 332.636C193.16 334.939 191.24 337.844 190.118 341.084" fill="#8547C6"/>
<g opacity="0.5">
<path opacity="0.5" d="M192.541 350.499C193.491 347.307 195.438 344.229 198.488 342.899C201.537 341.569 205.328 342.31 208.577 343.488C211.826 344.666 215.008 346.252 218.457 346.461C221.905 346.67 225.791 345.036 226.826 341.711C227.776 338.605 225.924 335.308 223.587 333.057C221.117 330.678 218.088 328.96 214.779 328.06C211.471 327.16 207.989 327.107 204.655 327.907C201.32 328.707 198.241 330.333 195.701 332.636C193.16 334.939 191.24 337.844 190.118 341.084" fill="black"/>
</g>
<path d="M165.238 364.35C160.174 359.553 160.431 351.183 162.948 344.685C165.466 338.187 170.985 333.19 177.132 329.894C183.136 326.742 189.775 324.992 196.552 324.773C203.329 324.554 210.068 325.873 216.262 328.63C213.229 328.76 210.274 329.631 207.655 331.168C205.037 332.705 202.835 334.861 201.243 337.446C198.478 342.054 197.861 347.64 195.543 352.494C192.963 357.968 188.385 362.246 182.749 364.451C177.114 366.656 170.848 366.62 165.238 364.35Z" fill="#8547C6"/>
<path d="M162.805 335.479C157.21 328.877 156.459 318.265 157.286 309.639C158.112 301.013 160.136 292.34 158.749 283.79C157.941 278.717 155.975 273.881 155.31 268.789C154.645 263.697 155.585 257.95 159.528 254.663C164.059 250.863 171.194 251.813 175.915 255.328C180.637 258.843 183.354 264.438 185.349 269.986C189.738 282.184 191.353 295.703 187.743 308.148C184.133 320.593 175.687 331.727 163.29 335.479" fill="#8547C6"/>
<path d="M160.117 389.705C160.096 389.452 160.096 389.198 160.117 388.945C160.117 388.451 160.117 387.71 160.117 386.76C160.193 384.86 160.374 382.124 160.801 378.761C161.295 374.816 162.012 370.902 162.948 367.038C164.112 362.293 165.912 357.727 168.297 353.463C170.691 349.205 173.629 345.277 177.037 341.778C179.812 338.923 182.885 336.376 186.204 334.178C187.601 333.228 188.95 332.477 190.118 331.793C191.287 331.109 192.351 330.653 193.206 330.245L195.22 329.399C195.449 329.29 195.688 329.201 195.932 329.133C195.715 329.265 195.49 329.383 195.258 329.485L193.282 330.435C192.446 330.872 191.382 331.385 190.242 332.05C189.102 332.715 187.762 333.503 186.385 334.482C179.086 339.451 173.035 346.042 168.705 353.738C163.556 362.744 162.141 372.216 161.105 378.847C160.64 382.2 160.402 384.927 160.279 386.817C160.222 387.767 160.184 388.461 160.155 388.993C160.16 389.231 160.148 389.469 160.117 389.705Z" fill="#263238"/>
<path d="M111.829 309.411C101.464 315.662 101.502 321.353 103.279 326.72C105.055 332.088 111.363 335.821 116.636 333.807C119.609 332.667 121.775 330.083 123.618 327.48C125.461 324.877 127.19 322.094 129.774 320.222C132.358 318.351 136.101 317.638 138.695 319.491" fill="#8547C6"/>
<g opacity="0.5">
<path opacity="0.5" d="M111.829 309.411C101.464 315.662 101.502 321.353 103.279 326.72C105.055 332.088 111.363 335.821 116.636 333.807C119.609 332.667 121.775 330.083 123.618 327.48C125.461 324.877 127.19 322.094 129.774 320.222C132.358 318.351 136.101 317.638 138.695 319.491" fill="black"/>
</g>
<path d="M104.067 316.261C106.775 312.518 113.472 311.435 117.69 313.307C121.908 315.178 125.015 318.874 127.751 322.55C130.487 326.227 133.213 330.15 137.051 332.725C140.889 335.299 146.247 336.23 150.076 333.675C151.294 332.765 152.314 331.618 153.073 330.301C153.833 328.985 154.316 327.527 154.493 326.018C154.832 322.994 154.626 319.934 153.885 316.983C152.935 312.642 151.482 308.101 148.005 305.346C144.129 302.268 138.752 302.125 133.812 302.287C128.112 302.467 122.412 302.895 117.054 304.861C111.696 306.828 106.29 311.074 104.029 316.261" fill="#8547C6"/>
<path d="M151.501 381.45C151.489 381.374 151.489 381.297 151.501 381.222C151.501 381.041 151.501 380.823 151.501 380.557C151.501 379.93 151.501 379.065 151.416 377.982C151.349 375.712 151.254 372.491 151.14 368.53C151.026 364.568 150.855 359.78 150.561 354.517C150.266 349.254 149.877 343.45 149.079 337.417C148.739 334.485 148.164 331.584 147.359 328.744C145.757 323.719 143.302 319.008 140.101 314.817C138.767 313.107 137.303 311.504 135.722 310.019C133.414 307.884 130.801 306.104 127.97 304.737C127.466 304.5 127.02 304.272 126.63 304.11L125.614 303.721L124.996 303.474L124.787 303.369L125.015 303.426L125.652 303.635L126.678 303.987C127.086 304.129 127.533 304.348 128.046 304.566C130.931 305.888 133.596 307.644 135.95 309.772C137.561 311.256 139.051 312.867 140.405 314.589C141.942 316.574 143.306 318.688 144.481 320.906C145.79 323.354 146.871 325.917 147.711 328.563C148.528 331.431 149.11 334.36 149.449 337.322C150.257 343.374 150.637 349.178 150.903 354.422C151.169 359.666 151.302 364.454 151.387 368.454C151.473 372.453 151.492 375.683 151.511 377.954V380.5C151.511 380.775 151.511 380.994 151.511 381.174C151.52 381.266 151.516 381.359 151.501 381.45Z" fill="#263238"/>
<path d="M155.235 386.095C154.742 384.642 154.365 383.152 154.104 381.64C153.383 377.516 153.223 373.314 153.629 369.147C154.264 362.987 155.587 356.916 157.572 351.05C159.7 344.4 162.588 337.256 165.048 329.599C166.264 325.877 167.257 322.086 168.022 318.246C168.706 314.665 169.197 311.05 169.494 307.416C169.967 301.256 170.078 295.074 169.827 288.901C169.646 283.619 169.361 279.353 169.19 276.408L168.991 273.017C168.991 272.646 168.991 272.352 168.991 272.133C168.978 272.032 168.978 271.93 168.991 271.829C168.999 271.927 168.999 272.026 168.991 272.124C168.991 272.352 169.038 272.637 169.076 273.007C169.146 273.818 169.241 274.949 169.361 276.399C169.589 279.344 169.922 283.609 170.14 288.891C170.44 295.078 170.364 301.277 169.912 307.454C169.626 311.104 169.141 314.735 168.459 318.332C167.697 322.188 166.704 325.995 165.485 329.732C163.006 337.417 160.108 344.533 157.971 351.173C155.972 357.025 154.621 363.078 153.943 369.223C153.515 373.365 153.624 377.545 154.266 381.659C154.522 383.112 154.76 384.233 154.959 384.984C155.045 385.345 155.121 385.63 155.168 385.839C155.2 385.922 155.222 386.008 155.235 386.095Z" fill="#263238"/>
<path d="M180.913 390.769H132.273L131.161 381.412H180.913V390.769Z" fill="#455A64"/>
<path d="M137.498 389.705L143.578 417.797H170.007L175.698 389.705H137.498Z" fill="#455A64"/>
<path d="M180.951 390.769C180.951 390.902 170.263 390.978 157.068 390.94C143.872 390.902 133.185 390.769 133.185 390.636C133.185 390.503 143.882 390.437 157.077 390.475C170.273 390.513 180.951 390.646 180.951 390.769Z" fill="#455A64"/>
<path d="M172.571 404.639C171.248 403.649 169.809 402.823 168.287 402.179C166.623 401.527 164.858 401.173 163.071 401.134C160.884 401.142 158.715 401.541 156.668 402.312C154.455 403.062 152.384 403.936 150.37 404.411C148.578 404.801 146.729 404.856 144.917 404.573C143.698 404.401 142.517 404.029 141.421 403.471C141.124 403.315 140.841 403.134 140.575 402.929C140.395 402.796 140.3 402.72 140.309 402.701C140.319 402.682 140.727 402.948 141.497 403.309C142.599 403.795 143.768 404.115 144.964 404.259C146.736 404.486 148.533 404.4 150.275 404.003C152.222 403.518 154.293 402.635 156.526 401.884C158.624 401.096 160.849 400.7 163.09 400.716C164.919 400.782 166.722 401.178 168.41 401.884C169.543 402.357 170.607 402.98 171.574 403.737C171.839 403.937 172.093 404.153 172.334 404.383C172.495 404.535 172.581 404.62 172.571 404.639Z" fill="#263238"/>
<path d="M172.201 406.511C170.923 405.554 169.544 404.742 168.088 404.088C166.49 403.437 164.787 403.086 163.062 403.053C160.948 403.059 158.852 403.435 156.868 404.164C154.721 404.886 152.717 405.713 150.798 406.235C149.095 406.723 147.322 406.922 145.554 406.824C144.358 406.741 143.192 406.418 142.124 405.874C141.838 405.723 141.565 405.548 141.307 405.352C141.127 405.219 141.041 405.143 141.051 405.133C141.06 405.124 141.459 405.371 142.2 405.713C143.272 406.168 144.418 406.423 145.582 406.463C147.305 406.518 149.025 406.291 150.674 405.789C152.574 405.266 154.55 404.421 156.726 403.699C158.758 402.954 160.907 402.581 163.072 402.597C164.843 402.652 166.587 403.045 168.211 403.756C169.301 404.234 170.323 404.854 171.251 405.599C171.506 405.795 171.747 406.007 171.973 406.235C172.135 406.416 172.211 406.501 172.201 406.511Z" fill="white"/>
<path d="M173.047 402.777C171.684 401.748 170.209 400.878 168.648 400.184C166.955 399.453 165.149 399.02 163.309 398.901C161.038 398.842 158.777 399.236 156.659 400.06C154.526 400.894 152.347 401.608 150.133 402.198C148.268 402.512 146.364 402.512 144.499 402.198C143.245 401.998 142.028 401.61 140.889 401.048C140.584 400.891 140.292 400.71 140.015 400.507C139.825 400.364 139.73 400.288 139.74 400.269C139.749 400.25 140.167 400.526 140.965 400.887C142.116 401.358 143.323 401.677 144.556 401.837C146.38 402.098 148.235 402.063 150.047 401.732C152.236 401.125 154.393 400.405 156.507 399.576C158.667 398.737 160.975 398.346 163.29 398.426C165.174 398.566 167.018 399.043 168.734 399.832C169.894 400.348 170.985 401.005 171.983 401.789C172.255 401.999 172.516 402.224 172.762 402.464C172.98 402.673 173.056 402.758 173.047 402.777Z" fill="white"/>
<path d="M181.35 390.817C181.35 390.94 170.406 391.045 156.906 391.045C143.407 391.045 132.501 390.95 132.501 390.817C132.501 390.684 143.445 390.579 156.935 390.579C170.425 390.579 181.35 390.684 181.35 390.817Z" fill="#263238"/>
<path d="M435.398 162.713C434.947 162.164 434.579 161.553 434.305 160.898C433.659 159.673 432.738 157.849 431.569 155.483C429.232 150.733 425.869 143.865 421.822 135.267C413.652 118.072 402.414 94.0751 389.874 66.9621H392.116C390.406 70.9426 388.582 75.1321 386.872 79.4451C383.784 87.0451 380.963 94.6451 378.474 101.96C377.182 105.627 376.051 109.266 374.892 112.819C373.733 116.372 372.717 119.887 371.748 123.269C367.815 136.987 364.908 149.517 362.789 160.11C360.671 170.702 359.322 179.338 358.391 185.313C357.925 188.306 357.612 190.633 357.336 192.201C357.26 193.014 357.084 193.814 356.814 194.585C356.701 193.775 356.701 192.954 356.814 192.144C356.928 190.557 357.089 188.201 357.403 185.19C358.039 179.167 359.141 170.465 361.041 159.787C362.941 149.109 365.687 136.474 369.525 122.651C370.475 119.193 371.539 115.669 372.612 112.068C373.686 108.468 374.864 104.82 376.146 101.134C378.626 93.7331 381.447 86.1521 384.544 78.4666C386.273 74.1346 388.116 69.9166 389.836 65.9266C389.9 65.7786 389.992 65.6447 390.108 65.5325C390.224 65.4204 390.361 65.3322 390.511 65.2731C390.661 65.214 390.821 65.185 390.983 65.1879C391.144 65.1909 391.303 65.2256 391.451 65.2901C391.727 65.4061 391.948 65.6238 392.068 65.8981C404.551 93.0396 415.514 117.198 423.285 134.536C427.171 143.228 430.268 150.23 432.348 155.075C433.384 157.497 434.172 159.378 434.685 160.661C435.019 161.307 435.259 161.998 435.398 162.713Z" fill="#8547C6"/>
<path d="M419.495 121.787C419.675 122.452 401.796 127.886 379.595 133.928C357.393 139.97 339.182 144.378 339.001 143.675C338.821 142.972 356.7 137.576 378.949 131.534C401.198 125.492 419.314 121.15 419.495 121.787Z" fill="#8547C6"/>
<path d="M407.049 46.233C407.403 45.9655 407.789 45.7451 408.199 45.5775L409.652 44.8555C410.241 44.5895 410.954 44.333 411.752 44.0195C413.739 43.2881 415.791 42.7443 417.879 42.395C420.749 41.9633 423.665 41.9313 426.543 42.3C430.153 42.8092 433.657 43.9 436.917 45.53C440.767 47.5123 444.325 50.0153 447.491 52.9685C451.124 56.35 454.353 60.1403 457.114 64.264C457.874 65.3715 458.55 66.5337 459.138 67.741C459.746 68.9475 460.382 70.1635 460.99 71.408L462.624 75.303C463.194 76.614 463.574 78.001 464.068 79.3785C465.939 85.2035 467.106 91.2313 467.545 97.3335C467.992 103.936 467.757 110.568 466.842 117.122C465.858 124.12 464.356 131.036 462.349 137.813C461.874 139.57 461.275 141.299 460.743 143.066C460.211 144.833 459.489 146.581 458.843 148.358C458.074 150.077 457.361 151.835 456.516 153.554L455.195 156.11L454.54 157.392L453.799 158.637C449.801 165.472 445.019 171.817 439.549 177.542C433.864 183.502 427.58 188.86 420.796 193.53C413.825 198.456 406.296 202.541 398.366 205.7C390.108 208.993 381.272 210.592 372.384 210.402C367.867 210.262 363.404 209.386 359.169 207.809C354.958 206.228 351.111 203.808 347.864 200.693C346.262 199.175 344.802 197.511 343.504 195.725C342.213 193.969 341.057 192.117 340.046 190.186C338.054 186.401 336.462 182.418 335.296 178.302C331.028 162.675 330.172 146.313 332.788 130.327C333.972 122.916 335.806 115.623 338.269 108.534C338.583 107.679 338.887 106.824 339.219 105.969C339.552 105.114 339.827 104.268 340.169 103.442C340.86 101.789 341.544 100.145 342.221 98.5115L344.482 93.7615C345.204 92.175 346.097 90.693 346.886 89.173C350.034 83.3737 353.633 77.8308 357.649 72.5955L359.074 70.6955L360.566 68.8905C361.573 67.703 362.523 66.4965 363.539 65.366L366.589 62.041C367.539 60.92 368.679 59.9415 369.695 58.906C371.728 56.8255 373.932 55.0205 375.984 53.206L379.195 50.66L380.772 49.4155L382.387 48.2755L385.56 46.0525L388.743 44.0575L390.291 43.1075L391.868 42.224L394.946 40.5235C396.989 39.4595 399.012 38.5095 400.941 37.5785C402.869 36.6475 404.798 35.9065 406.641 35.175L411.951 33.2085L416.834 31.6505C423.047 29.817 427.949 28.7245 431.293 28.088C432.965 27.784 434.248 27.556 435.093 27.423C435.521 27.3121 435.963 27.2641 436.404 27.2805C436 27.46 435.576 27.5907 435.141 27.67C434.295 27.8885 433.032 28.1925 431.341 28.5725C428.044 29.3705 423.19 30.6055 417.091 32.572L412.284 34.225L407.049 36.2295C405.244 36.9895 403.401 37.8445 401.454 38.6995C399.506 39.5545 397.587 40.5995 395.583 41.7015L392.571 43.4305L391.023 44.314L389.503 45.264L386.387 47.2685L383.299 49.539L381.722 50.679L380.183 51.914L377.048 54.4505C375.044 56.2935 372.897 58.089 370.921 60.1505C369.923 61.1765 368.84 62.1455 367.881 63.257C366.921 64.3685 365.905 65.442 364.907 66.563C363.91 67.684 363.007 68.8905 362.01 70.059L360.547 71.8545L359.16 73.7545C355.237 78.9369 351.727 84.4194 348.662 90.1515C347.893 91.6525 347.028 93.1155 346.325 94.6735L344.131 99.3665L342.145 104.23C341.794 105.038 341.49 105.874 341.195 106.719L340.312 109.246C337.943 116.215 336.186 123.377 335.058 130.65C333.864 138.299 333.451 146.05 333.823 153.782C334.182 161.837 335.456 169.824 337.623 177.589C338.747 181.536 340.275 185.356 342.183 188.989C343.143 190.814 344.238 192.564 345.461 194.224C346.678 195.894 348.046 197.449 349.546 198.869C352.553 201.744 356.107 203.986 359.996 205.462C363.987 206.935 368.189 207.753 372.441 207.885C380.994 208.052 389.495 206.512 397.445 203.353C405.212 200.277 412.59 196.297 419.428 191.497C426.086 186.935 432.259 181.702 437.848 175.879C443.197 170.3 447.88 164.118 451.804 157.459L452.526 156.243L453.172 154.998L454.464 152.519C455.29 150.856 455.984 149.146 456.744 147.484C457.361 145.755 458.036 144.073 458.596 142.344C459.157 140.615 459.736 138.896 460.211 137.157C462.227 130.496 463.748 123.694 464.762 116.808C465.705 110.394 465.982 103.9 465.588 97.4285C465.214 91.4688 464.13 85.5751 462.358 79.8725C461.893 78.533 461.532 77.165 460.99 75.8825C460.449 74.6 459.945 73.3175 459.432 72.0825L457.665 68.4725C457.117 67.3057 456.482 66.1816 455.765 65.1095C453.125 61.0499 450.027 57.3076 446.531 53.9565C443.497 51.0433 440.081 48.5568 436.376 46.5655C433.258 44.9377 429.9 43.8184 426.429 43.25C423.637 42.8204 420.798 42.7757 417.993 43.117C415.937 43.396 413.909 43.8537 411.932 44.485C411.134 44.7605 410.422 44.9695 409.814 45.1975L408.322 45.8055C407.917 45.9998 407.49 46.1434 407.049 46.233Z" fill="#8547C6"/>
<path d="M428.358 108.895C427.674 108.895 426.525 97.495 425.803 83.245C425.081 68.995 425.033 57.5 425.717 57.5C426.401 57.5 427.541 68.9 428.273 83.15C429.004 97.4 429.033 108.857 428.358 108.895Z" fill="#8547C6"/>
<path d="M443.767 77.0131C444.024 77.6401 436.557 81.2881 426.914 84.6986C417.272 88.1091 409.178 90.0091 408.988 89.3631C408.798 88.7171 416.512 85.7816 426.088 82.3711C435.664 78.9606 443.511 76.3766 443.767 77.0131Z" fill="#8547C6"/>
<circle cx="521.5" cy="339.5" r="58.5" fill="#EBEBEB"/>
<circle cx="546.5" cy="81.5" r="38.5" fill="#EBEBEB"/>
<circle cx="46.5" cy="239.5" r="46.5" fill="#EBEBEB"/>
<circle cx="33.5" cy="69.5" r="33.5" fill="#EBEBEB"/>
</svg>
