<svg width="582" height="435" viewBox="0 0 582 435" fill="none" xmlns="http://www.w3.org/2000/svg">
<path d="M58.1461 78.9867L59.7469 74.4009C73.2128 35.7457 106.364 7.09509 146.491 1.14648C151.655 0.380186 156.868 -0.00301457 162.088 1.78565e-05C199.728 1.78565e-05 236.859 20.5498 257.269 52.6506C269.285 71.5239 276.456 94.6694 294.422 107.81C317.795 124.964 349.951 118.799 377.91 111.91C405.87 105.02 438.069 98.9308 461.378 116.236C475.968 127.051 483.745 145.189 486.601 163.219C494.172 210.97 470.279 260.214 432.921 290.13C395.562 320.046 346.695 332.441 298.932 332.982C232.024 333.739 163.429 311.253 115.06 264.226C66.6908 217.2 41.4462 144.454 58.1461 78.9867Z" fill="#EBEBEB"/>
<path d="M477.219 419.38C477.219 419.53 377.219 419.64 254.009 419.64C130.799 419.64 30.7793 419.53 30.7793 419.38C30.7793 419.23 130.699 419.12 254.009 419.12C377.319 419.12 477.219 419.24 477.219 419.38Z" fill="#263238"/>
<path d="M122.41 25.5701H406.64C409.492 25.5701 412.227 26.7023 414.245 28.7181C416.263 30.7338 417.397 33.4681 417.4 36.3201V407.92C417.4 410.774 416.267 413.511 414.249 415.529C412.231 417.546 409.494 418.68 406.64 418.68H122.41V25.5701Z" fill="#8547C6"/>
<g opacity="0.3">
<path opacity="0.3" d="M122.41 25.5701H406.64C409.492 25.5701 412.227 26.7023 414.245 28.7181C416.263 30.7338 417.397 33.4681 417.4 36.3201V407.92C417.4 410.774 416.267 413.511 414.249 415.529C412.231 417.546 409.494 418.68 406.64 418.68H122.41V25.5701Z" fill="black"/>
</g>
<path d="M409.229 37.74H251.529V418.67H409.229V37.74Z" fill="#E0E0E0"/>
<path d="M121.18 22.47H385.34C388.193 22.47 390.93 23.6036 392.948 25.6215C394.966 27.6394 396.1 30.3762 396.1 33.23V407.92C396.1 410.774 394.966 413.511 392.948 415.528C390.93 417.546 388.193 418.68 385.34 418.68H121.18V22.47Z" fill="#8547C6"/>
<path d="M149.44 419.39C149.29 419.39 149.18 330.53 149.18 220.94C149.18 111.35 149.29 22.47 149.44 22.47C149.59 22.47 149.7 111.31 149.7 220.94C149.7 330.57 149.58 419.39 149.44 419.39Z" fill="#263238"/>
<path d="M156.86 419.39C156.72 419.39 156.6 330.53 156.6 220.94C156.6 111.35 156.72 22.47 156.86 22.47C157 22.47 157.12 111.31 157.12 220.94C157.12 330.57 157 419.39 156.86 419.39Z" fill="#263238"/>
<g opacity="0.3">
<path opacity="0.3" d="M156.869 22.47H149.439V419.39H156.869V22.47Z" fill="black"/>
</g>
<path d="M313 67.82V22.47H356.68V68.66L335.26 90.08L313 67.82Z" fill="#455A64"/>
<path d="M400 37.74C400.14 37.74 400.26 122.1 400.26 226.14C400.26 330.18 400.14 414.56 400 414.56C399.86 414.56 399.74 330.22 399.74 226.14C399.74 122.06 399.88 37.74 400 37.74Z" fill="#263238"/>
<path d="M404.5 37.74C404.64 37.74 404.76 122.1 404.76 226.14C404.76 330.18 404.64 414.56 404.5 414.56C404.36 414.56 404.24 330.22 404.24 226.14C404.24 122.06 404.35 37.74 404.5 37.74Z" fill="#263238"/>
<path d="M400.029 92.55H410.969L420.969 100.13L411.999 109.09H400.029V92.55Z" fill="#455A64"/>
<path d="M425.16 125.03H404.5V138.79H425.16V125.03Z" fill="#8547C6"/>
<path d="M362.81 374.85C362.81 375 325.27 375.11 278.98 375.11C232.69 375.11 195.14 375 195.14 374.85C195.14 374.7 232.67 374.59 278.98 374.59C325.29 374.59 362.81 374.71 362.81 374.85Z" fill="white"/>
<path d="M334.839 382.84C334.839 382.98 310.149 383.1 279.709 383.1C249.269 383.1 224.569 382.98 224.569 382.84C224.569 382.7 249.259 382.58 279.709 382.58C310.159 382.58 334.839 382.69 334.839 382.84Z" fill="white"/>
<path d="M285.579 390.51H272.369V403.72H285.579V390.51Z" fill="#E0E0E0"/>
<path d="M133.889 401.12L131.109 421.34C131.109 421.34 150.719 430.95 150.569 434.73L111.189 430.73L114.189 399.06L133.889 401.12Z" fill="#455A64"/>
<path d="M119.1 418.4C118.711 418.477 118.364 418.696 118.126 419.013C117.888 419.331 117.775 419.725 117.81 420.12C117.872 420.512 118.081 420.865 118.396 421.107C118.71 421.349 119.105 421.461 119.5 421.42C119.914 421.338 120.283 421.106 120.536 420.768C120.789 420.43 120.908 420.01 120.87 419.59C120.761 419.186 120.501 418.84 120.143 418.624C119.785 418.408 119.358 418.338 118.95 418.43" fill="#E0E0E0"/>
<g opacity="0.6">
<path opacity="0.6" d="M111.189 430.76L111.619 427.58L149.219 432.58C149.219 432.58 150.899 433.52 150.569 434.73L111.189 430.76Z" fill="white"/>
</g>
<path d="M131.77 421.2C131.77 421.39 130.77 421.38 129.77 421.91C128.77 422.44 128.18 423.19 128.01 423.09C127.84 422.99 128.24 421.92 129.47 421.3C130.7 420.68 131.83 421 131.77 421.2Z" fill="#263238"/>
<path d="M135.729 423.33C135.729 423.52 134.889 423.76 134.149 424.51C133.409 425.26 133.149 426.1 132.949 426.07C132.749 426.04 132.749 424.94 133.679 424.07C134.609 423.2 135.739 423.14 135.729 423.33Z" fill="#263238"/>
<path d="M137.57 428.51C137.39 428.51 137.22 427.51 137.82 426.51C138.42 425.51 139.37 425.18 139.43 425.35C139.49 425.52 138.88 426.02 138.43 426.85C137.98 427.68 137.77 428.51 137.57 428.51Z" fill="#263238"/>
<path d="M131.889 416.52C131.789 416.69 130.889 416.34 129.889 416.3C128.889 416.26 127.889 416.52 127.829 416.35C127.769 416.18 128.629 415.57 129.919 415.63C131.209 415.69 131.999 416.38 131.889 416.52Z" fill="#263238"/>
<path d="M80.3595 264.45C80.3595 264.45 73.1295 315.77 76.7695 324.16C79.5795 330.65 84.5595 333.47 90.9295 335.11C100.12 337.47 114.86 339.16 114.86 339.16L119.86 309.59L108.63 307.14L118.97 270.35L100.64 257.82L80.3595 264.45Z" fill="#263238"/>
<path d="M118.929 270.35L109.869 412.12L134.869 413.39L145.999 343.06C145.999 343.06 157.879 285.06 158.689 277.97C159.499 270.88 158.689 255.82 158.689 255.82L118.929 270.35Z" fill="#263238"/>
<path d="M118.219 281.42C118.23 281.513 118.23 281.607 118.219 281.7C118.219 281.91 118.219 282.18 118.219 282.52C118.219 283.27 118.159 284.32 118.109 285.65C117.979 288.37 117.779 292.31 117.489 297.17C116.919 306.89 115.969 320.32 114.989 335.17C114.539 342.59 114.109 349.65 113.719 356.09C113.329 362.53 112.629 368.28 112.149 373.09C111.669 377.9 111.299 381.86 111.089 384.57C110.989 385.9 110.909 386.94 110.849 387.7C110.849 388.03 110.849 388.3 110.779 388.51C110.794 388.599 110.794 388.69 110.779 388.78C110.779 388.78 110.779 388.69 110.779 388.51C110.779 388.33 110.779 388.02 110.779 387.69C110.779 386.97 110.849 385.92 110.929 384.56C111.079 381.84 111.369 377.9 111.819 373.05C112.269 368.2 112.819 362.43 113.279 356.05C113.739 349.67 113.999 342.55 114.509 335.14C115.509 320.33 116.509 306.93 117.159 297.14C117.489 292.31 117.759 288.39 117.939 285.63C118.039 284.3 118.109 283.26 118.159 282.5C118.159 282.17 118.159 281.9 118.229 281.69C118.217 281.6 118.213 281.51 118.219 281.42Z" fill="#455A64"/>
<path d="M112.39 293.74C112.388 294.115 112.338 294.488 112.24 294.85C112.1 295.56 111.88 296.59 111.58 297.85C110.99 300.36 110.04 303.85 108.77 307.55C107.5 311.25 106.15 314.6 105.09 316.96C104.56 318.14 104.09 319.09 103.78 319.73C103.638 320.087 103.45 320.423 103.22 320.73C103.308 320.364 103.435 320.009 103.6 319.67C103.91 318.89 104.3 317.95 104.75 316.84C105.75 314.45 107.01 311.13 108.28 307.4C109.55 303.67 110.54 300.26 111.28 297.77L112.09 294.83C112.146 294.456 112.247 294.09 112.39 293.74Z" fill="#455A64"/>
<path d="M103.519 139.5L97.5191 144.29C97.5191 144.29 78.4191 147.7 76.7891 150.68L82.9991 189L87.8191 221.88C87.8191 221.88 80.5991 241.27 80.3991 249.45C80.1991 257.63 80.3991 264.45 80.3991 264.45H83.9791C92.3175 264.452 100.333 267.677 106.349 273.45L112.939 267.45L114.229 278.83C114.229 278.83 140.089 280.42 146.669 275.43C153.249 270.44 162.179 259.86 162.179 259.86C162.179 259.86 163.719 233.32 155.849 219.92C147.979 206.52 145.999 203.74 145.999 203.74C145.999 203.74 148.799 180.62 148.799 179.82C148.799 179.02 151.189 147.48 151.189 147.48L131.349 142.48L125.609 138.09L103.519 139.5Z" fill="#455A64"/>
<g opacity="0.3">
<path opacity="0.3" d="M87.1197 223.73C88.3426 224.858 89.8033 225.697 91.3939 226.185C92.9845 226.674 94.6645 226.798 96.3097 226.55C98.5197 226.25 100.65 225.3 102.89 225.33C106.15 225.38 108.96 227.46 111.8 229.05C117.981 232.48 125.105 233.82 132.11 232.87C140.11 231.76 147.44 227.71 154.24 223.32C154.754 223.028 155.212 222.645 155.59 222.19C155.936 221.649 156.104 221.013 156.072 220.371C156.04 219.73 155.808 219.114 155.41 218.61C154.588 217.61 153.421 216.953 152.14 216.77C149.86 216.34 147.53 216.9 145.25 217.27C140.379 218.072 135.406 218.028 130.55 217.14C124.39 216.02 118.55 213.56 112.31 212.73C105.325 211.798 98.2197 212.953 91.8897 216.05C90.5053 216.65 89.2569 217.524 88.2197 218.62C87.1991 220.114 86.8042 221.948 87.1197 223.73Z" fill="black"/>
</g>
<path d="M108.7 160.34C108.715 160.44 108.715 160.541 108.7 160.64C108.7 160.87 108.7 161.17 108.76 161.54L109 165C109.16 168 109.4 172.37 109.69 177.7C110.22 188.46 110.96 203.27 111.77 219.62C111.96 223.71 112.15 227.71 112.33 231.57C112.51 235.43 112.7 239.15 112.69 242.71C112.69 244.49 112.69 246.23 112.53 247.91C112.37 249.59 112.21 251.21 112.23 252.78C112.23 255.92 112.49 258.88 112.44 261.56C112.39 264.24 112.84 266.64 113.06 268.76C113.28 270.88 113.51 272.69 113.69 274.19C113.87 275.69 113.98 276.81 114.07 277.63C114.07 278 114.13 278.3 114.15 278.53C114.159 278.633 114.159 278.737 114.15 278.84C114.117 278.739 114.094 278.635 114.08 278.53C114.08 278.31 114.01 278.01 113.95 277.64L113.48 274.22L112.76 268.79C112.51 266.67 112.19 264.27 112.06 261.57C112.06 258.87 111.82 255.96 111.79 252.78C111.79 251.19 111.96 249.55 112.06 247.88C112.16 246.21 112.21 244.48 112.2 242.71C112.2 239.17 112 235.45 111.81 231.59C111.62 227.73 111.43 223.73 111.24 219.64C110.48 203.29 109.8 188.48 109.31 177.72C109.09 172.38 108.91 168.05 108.79 165.01C108.79 163.54 108.7 162.38 108.67 161.56C108.67 161.18 108.67 160.89 108.67 160.66C108.67 160.43 108.7 160.34 108.7 160.34Z" fill="#263238"/>
<path d="M84.1795 157.86L83.5995 198L86.5995 205L84.1095 224.12L73.9995 218.44C71.5379 217.083 69.5296 215.033 68.2245 212.544C66.9194 210.054 66.3751 207.236 66.6595 204.44V204.31C67.5895 196.53 69.1295 184.13 70.4195 176.26C72.4195 164.08 73.8195 154.5 76.8095 150.71L84.1795 157.86Z" fill="#455A64"/>
<path d="M151.22 147.48C151.22 147.48 157.01 146.29 160.01 160.26C163.01 174.23 165.4 198.58 165.4 198.58C165.704 198.659 165.985 198.809 166.221 199.017C166.456 199.225 166.639 199.486 166.755 199.778C166.871 200.07 166.917 200.386 166.888 200.699C166.859 201.012 166.757 201.314 166.59 201.58C166.59 201.58 166.19 214.73 164.59 216.32L147.92 206.48L146.02 203.71L151.22 147.48Z" fill="#455A64"/>
<path d="M84.1094 223.73L106.499 221.24L108.219 210.35L86.2594 208.59L84.1094 223.73Z" fill="#FFBE9D"/>
<path d="M112.549 155.47C112.333 155.874 112.082 156.259 111.799 156.62C111.219 157.41 110.479 158.41 109.609 159.62L106.309 164.05C106.253 164.131 106.181 164.199 106.096 164.249C106.011 164.299 105.917 164.33 105.819 164.34C105.632 164.344 105.448 164.284 105.299 164.17C105.074 164.001 104.863 163.814 104.669 163.61C104.251 163.235 103.857 162.834 103.489 162.41C102.704 161.529 101.992 160.586 101.359 159.59C99.1671 156.06 98.0355 151.975 98.0992 147.82C98.114 146.572 98.2581 145.329 98.5292 144.11C98.6174 143.662 98.748 143.223 98.9192 142.8C98.6459 144.453 98.4955 146.125 98.4692 147.8C98.4635 153.051 100.385 158.122 103.869 162.05C104.229 162.463 104.609 162.857 105.009 163.23C105.185 163.414 105.372 163.588 105.569 163.75C105.769 163.86 105.809 163.87 105.939 163.75C107.179 162.1 108.349 160.63 109.309 159.4L111.639 156.5C111.903 156.124 112.209 155.779 112.549 155.47Z" fill="#263238"/>
<path d="M131.38 142.49C131.425 142.622 131.445 142.761 131.44 142.9C131.459 143.286 131.459 143.674 131.44 144.06C131.417 145.499 131.201 146.928 130.8 148.31C130.171 150.337 129.395 152.315 128.48 154.23C127.4 156.593 126.164 158.882 124.78 161.08C124.05 162.26 123.32 163.39 122.61 164.48C122.43 164.75 122.26 165.02 122.08 165.28C121.909 165.574 121.708 165.848 121.48 166.1C121.394 166.174 121.293 166.229 121.185 166.262C121.076 166.295 120.962 166.304 120.85 166.29C120.65 166.256 120.465 166.162 120.32 166.02C120.098 165.795 119.897 165.551 119.72 165.29L116 160.22L113.47 156.78C113.14 156.371 112.849 155.932 112.6 155.47C112.961 155.839 113.295 156.233 113.6 156.65C114.28 157.52 115.18 158.65 116.26 160L120.16 165C120.51 165.47 120.93 166 121.16 165.72C121.349 165.498 121.52 165.26 121.67 165.01L122.19 164.2C122.9 163.11 123.62 161.98 124.34 160.81C125.714 158.632 126.953 156.371 128.05 154.04C128.972 152.148 129.777 150.201 130.46 148.21C131.002 146.349 131.311 144.427 131.38 142.49Z" fill="#263238"/>
<path d="M100.12 158.05C100.12 158.14 99.0597 158.32 97.4497 159.05C95.3188 160.044 93.4823 161.574 92.1197 163.49L91.9697 163.7L91.7497 163.54C91.1953 163.129 90.6103 162.761 89.9997 162.44C87.506 161.11 84.6692 160.563 81.8597 160.87C80.7035 161.057 79.5585 161.308 78.4297 161.62C78.6878 161.432 78.9749 161.286 79.2797 161.19C80.0963 160.874 80.9445 160.646 81.8097 160.51C84.7166 160.08 87.6845 160.603 90.2697 162C90.8982 162.344 91.4999 162.735 92.0697 163.17H91.6997C93.1213 161.192 95.068 159.65 97.3197 158.72C97.9663 158.453 98.6357 158.246 99.3197 158.1C99.5812 158.035 99.8522 158.019 100.12 158.05Z" fill="#263238"/>
<path d="M150.509 160.52C149.364 159.903 148.09 159.56 146.789 159.52C145.385 159.495 143.989 159.757 142.689 160.29C141.094 160.971 139.564 161.798 138.119 162.76L137.639 163.06L137.439 163.19L137.299 163C135.399 160.64 132.641 159.13 129.629 158.8C128.386 158.706 127.135 158.743 125.899 158.91C126.216 158.762 126.553 158.661 126.899 158.61C127.814 158.425 128.749 158.368 129.679 158.44C131.066 158.549 132.421 158.908 133.679 159.5C135.243 160.238 136.612 161.33 137.679 162.69L137.329 162.63L137.809 162.32C139.279 161.334 140.848 160.503 142.489 159.84C143.854 159.308 145.317 159.073 146.779 159.15C147.766 159.201 148.73 159.46 149.609 159.91C149.95 160.045 150.257 160.254 150.509 160.52Z" fill="#263238"/>
<path d="M145.109 247.62C145.109 247.62 144.979 247.75 144.719 247.95L143.549 248.8L142.689 249.4C142.369 249.61 141.999 249.81 141.619 250.04C140.757 250.579 139.865 251.07 138.949 251.51L137.359 252.28C136.799 252.54 136.199 252.75 135.579 253.01C134.27 253.534 132.935 253.991 131.579 254.38C125.325 256.155 118.759 256.544 112.339 255.52C110.869 255.24 109.469 255.01 108.189 254.63C107.549 254.46 106.929 254.32 106.339 254.12L104.669 253.54C103.708 253.214 102.767 252.834 101.849 252.4C101.439 252.22 101.059 252.06 100.709 251.89L99.7891 251.39L98.5191 250.69C98.2391 250.52 98.0891 250.43 98.0991 250.41C98.2626 250.455 98.4204 250.519 98.5691 250.6L99.8791 251.21L100.819 251.67C101.159 251.82 101.549 251.97 101.969 252.14C102.789 252.46 103.709 252.88 104.789 253.2L106.459 253.74C107.039 253.92 107.659 254.05 108.299 254.21C109.569 254.57 110.959 254.78 112.409 255.05C115.582 255.494 118.789 255.638 121.989 255.48C125.189 255.266 128.361 254.74 131.459 253.91C132.869 253.48 134.219 253.11 135.459 252.6C136.069 252.36 136.669 252.16 137.229 251.91L138.819 251.18C139.819 250.74 140.719 250.18 141.499 249.79C141.889 249.57 142.259 249.39 142.589 249.19L143.459 248.63L144.689 247.86C144.819 247.764 144.96 247.684 145.109 247.62Z" fill="#263238"/>
<path d="M138.999 233.52C138.644 233.934 138.256 234.318 137.839 234.67C137.459 235.03 136.979 235.47 136.389 235.93C135.799 236.39 135.159 236.93 134.389 237.48C133.619 238.03 132.779 238.63 131.819 239.2C130.859 239.77 129.819 240.36 128.749 240.95C123.928 243.449 118.705 245.084 113.319 245.78C112.079 245.91 110.899 246.06 109.789 246.09C108.679 246.12 107.649 246.16 106.709 246.14C105.769 246.12 104.909 246.06 104.169 246.01C103.529 245.978 102.891 245.907 102.259 245.8C101.717 245.746 101.178 245.653 100.649 245.52C101.194 245.495 101.74 245.522 102.279 245.6C102.799 245.6 103.439 245.71 104.179 245.72C104.919 245.73 105.769 245.81 106.709 245.72C107.649 245.63 108.709 245.72 109.769 245.61C110.829 245.5 112.029 245.4 113.259 245.25C118.578 244.516 123.739 242.905 128.529 240.48C129.619 239.9 130.669 239.37 131.599 238.78C132.529 238.19 133.399 237.66 134.179 237.13C134.959 236.6 135.619 236.13 136.179 235.65C136.739 235.17 137.279 234.81 137.679 234.47C138.092 234.117 138.534 233.8 138.999 233.52Z" fill="#263238"/>
<path d="M79.2194 161.38C79.3488 161.813 79.4326 162.259 79.4694 162.71C79.5994 163.71 79.7594 164.89 79.9594 166.36C80.3794 169.54 80.9594 173.74 81.5494 178.36C82.1394 182.98 82.8194 187.2 83.2794 190.36C83.4894 191.82 83.6594 193.04 83.7994 194.01C83.8793 194.452 83.9227 194.9 83.9294 195.35C83.7728 194.926 83.6622 194.487 83.5994 194.04C83.4194 193.19 83.1894 191.95 82.9094 190.42C82.3694 187.36 81.6794 183.12 81.0294 178.42C80.3794 173.72 79.8894 169.42 79.5894 166.36C79.4394 164.81 79.3294 163.56 79.2694 162.69C79.2173 162.255 79.2006 161.817 79.2194 161.38Z" fill="#263238"/>
<path d="M151.19 153.28C151.213 153.449 151.213 153.621 151.19 153.79C151.19 154.18 151.19 154.66 151.11 155.24C151.03 156.5 150.89 158.33 150.7 160.58C150.32 165.08 149.7 171.29 148.89 178.14C148.08 184.99 147.21 191.14 146.53 195.64C146.19 197.87 145.9 199.64 145.68 200.92C145.57 201.49 145.48 201.97 145.41 202.35C145.388 202.521 145.347 202.688 145.29 202.85C145.265 202.681 145.265 202.509 145.29 202.34C145.29 201.95 145.39 201.47 145.46 200.89C145.63 199.56 145.86 197.77 146.15 195.59C146.74 191.11 147.54 184.92 148.36 178.08C149.18 171.24 149.84 165.03 150.36 160.54C150.6 158.36 150.79 156.54 150.94 155.23C151.01 154.65 151.07 154.17 151.11 153.78C151.114 153.611 151.141 153.442 151.19 153.28Z" fill="#263238"/>
<path d="M154.749 185.48L126.139 202.72L118.749 200.64L84.8293 194.1L77.8193 216.35L104.509 218.87L116.279 224.51L121.969 222.05L146.789 205L154.749 185.48Z" fill="#8547C6"/>
<path d="M116.27 224.43C116.642 223.334 117.09 222.265 117.61 221.23C118.49 219.23 119.7 216.58 120.99 213.59C122.28 210.6 123.42 207.86 124.23 205.88C124.628 204.793 125.099 203.734 125.64 202.71C125.606 203.023 125.528 203.329 125.41 203.62C125.23 204.19 124.94 205.01 124.58 206.02C123.85 208.02 122.77 210.79 121.47 213.79C120.17 216.79 118.91 219.47 117.95 221.39C117.47 222.39 117.06 223.11 116.77 223.64C116.638 223.924 116.47 224.19 116.27 224.43Z" fill="#263238"/>
<path d="M115.47 208.14C115.689 206.852 116.082 205.601 116.64 204.42C117.037 203.179 117.595 201.996 118.3 200.9C118.078 202.184 117.685 203.432 117.13 204.61C116.728 205.852 116.17 207.038 115.47 208.14Z" fill="#263238"/>
<path d="M122.189 201.61C122.189 201.61 123.049 198.19 125.639 196.86C128.229 195.53 149.709 184.36 149.709 184.36L152.259 186.98L126.139 202.72L122.189 201.61Z" fill="#E0E0E0"/>
<path d="M87.7793 194.67L92.1293 192.49C92.1293 192.49 104.449 191.16 111.569 192.49C118.689 193.82 122.419 197.8 122.189 201.61L87.7793 194.67Z" fill="#E0E0E0"/>
<path d="M138.269 203.86C136.057 204.808 134.292 206.569 133.339 208.78C131.629 212.57 130.499 214.47 128.409 215.78C126.319 217.09 125.189 218.05 122.729 216.91C120.269 215.77 116.269 212.05 114.379 211.75C113.259 211.57 112.869 213.31 112.869 213.31C112.869 213.31 107.949 210.03 106.239 210.63C104.529 211.23 106.049 212.55 107.239 213.88C107.944 214.708 108.576 215.594 109.129 216.53C109.499 216.38 105.709 212.81 103.369 213.53C103.176 213.563 102.992 213.638 102.831 213.749C102.669 213.859 102.532 214.003 102.431 214.171C102.33 214.339 102.265 214.526 102.243 214.721C102.22 214.916 102.239 215.113 102.299 215.3L105.149 217.4C105.149 217.4 103.639 220.11 104.959 220.68C106.279 221.25 115.769 227.88 117.849 227.88C119.929 227.88 129.409 229.59 133.389 228.64C137.369 227.69 141.809 226.33 141.809 226.33C141.809 226.33 157.459 221.25 162.189 215.19L147.979 206.47C147.979 206.47 138.509 218.79 137.979 217.47C137.151 215.233 136.954 212.811 137.409 210.47C137.889 207.65 139.909 202.94 138.269 203.86Z" fill="#FFBE9D"/>
<path d="M125.139 222.37C124.37 222.307 123.622 222.089 122.939 221.73C121.307 220.89 119.74 219.931 118.249 218.86C116.671 217.889 115.234 216.704 113.979 215.34C113.422 214.796 113.037 214.101 112.869 213.34C113.295 213.956 113.755 214.547 114.249 215.11C115.555 216.364 116.99 217.477 118.529 218.43C120.349 219.6 121.859 220.79 123.099 221.43C124.339 222.07 125.169 222.29 125.139 222.37Z" fill="#724A44"/>
<path d="M121.91 226.37C121.196 226.063 120.524 225.666 119.91 225.19C118.71 224.4 117.09 223.25 115.35 221.91C113.61 220.57 112.1 219.28 111.03 218.32C110.42 217.832 109.87 217.275 109.39 216.66C110.061 217.052 110.691 217.511 111.27 218.03L115.67 221.5L120.13 224.89C120.771 225.323 121.367 225.818 121.91 226.37Z" fill="#724A44"/>
<path d="M113.999 225.11C113.879 225.21 112.179 223.11 109.679 221.01C107.179 218.91 104.879 217.5 104.959 217.37C106.829 218.138 108.543 219.239 110.019 220.62C111.601 221.869 112.949 223.389 113.999 225.11Z" fill="#724A44"/>
<path d="M116.88 169.4C116.808 169.18 116.748 168.956 116.7 168.73C116.525 168.157 116.175 167.653 115.7 167.29C115.308 167.007 114.847 166.838 114.366 166.8C113.885 166.762 113.403 166.857 112.972 167.075C112.541 167.293 112.179 167.625 111.925 168.035C111.67 168.445 111.534 168.917 111.53 169.4C111.535 169.928 111.699 170.442 112 170.875C112.302 171.309 112.726 171.641 113.22 171.83C113.63 171.982 114.071 172.031 114.505 171.973C114.939 171.916 115.353 171.753 115.71 171.5C116.185 171.136 116.535 170.633 116.71 170.06C116.755 169.836 116.815 169.616 116.89 169.4C116.89 169.4 116.98 169.65 116.89 170.11C116.771 170.773 116.416 171.37 115.89 171.79C115.492 172.108 115.02 172.321 114.518 172.406C114.016 172.492 113.5 172.449 113.02 172.28C112.423 172.069 111.906 171.678 111.541 171.162C111.176 170.645 110.979 170.028 110.979 169.395C110.979 168.762 111.176 168.145 111.541 167.628C111.906 167.111 112.423 166.721 113.02 166.51C113.5 166.341 114.016 166.298 114.518 166.383C115.02 166.469 115.492 166.681 115.89 167C116.414 167.422 116.769 168.018 116.89 168.68C117 169.14 116.91 169.4 116.88 169.4Z" fill="#263238"/>
<path d="M117.89 188.48C117.89 188.48 117.83 188.23 117.7 187.81C117.522 187.241 117.173 186.742 116.7 186.38C116.401 186.156 116.057 186 115.692 185.92C115.327 185.841 114.95 185.84 114.585 185.919C114.22 185.998 113.876 186.154 113.576 186.378C113.277 186.601 113.029 186.886 112.849 187.213C112.669 187.54 112.562 187.902 112.534 188.275C112.506 188.647 112.558 189.021 112.687 189.372C112.816 189.722 113.019 190.041 113.281 190.306C113.544 190.572 113.86 190.777 114.21 190.91C114.62 191.064 115.062 191.115 115.496 191.058C115.93 191 116.344 190.836 116.7 190.58C117.173 190.218 117.522 189.719 117.7 189.15C117.83 188.73 117.84 188.48 117.89 188.48C117.952 188.713 117.952 188.958 117.89 189.19C117.767 189.851 117.413 190.447 116.89 190.87C116.492 191.189 116.02 191.401 115.518 191.487C115.016 191.572 114.5 191.529 114.02 191.36C113.422 191.152 112.904 190.763 112.537 190.246C112.171 189.73 111.974 189.113 111.974 188.48C111.974 187.847 112.171 187.23 112.537 186.714C112.904 186.198 113.422 185.808 114.02 185.6C114.499 185.43 115.015 185.385 115.517 185.469C116.019 185.553 116.491 185.763 116.89 186.08C117.409 186.506 117.763 187.1 117.89 187.76C117.953 187.996 117.953 188.244 117.89 188.48Z" fill="#263238"/>
<path d="M119.76 233.69C119.684 233.474 119.621 233.253 119.57 233.03C119.399 232.455 119.049 231.95 118.57 231.59C118.215 231.337 117.803 231.174 117.371 231.116C116.938 231.059 116.499 231.108 116.09 231.26C115.594 231.446 115.166 231.778 114.865 232.213C114.563 232.648 114.401 233.165 114.401 233.695C114.401 234.224 114.563 234.741 114.865 235.176C115.166 235.612 115.594 235.944 116.09 236.13C116.499 236.282 116.938 236.331 117.371 236.273C117.803 236.216 118.215 236.053 118.57 235.8C119.046 235.437 119.396 234.933 119.57 234.36C119.71 233.95 119.72 233.69 119.76 233.69C119.8 233.69 119.85 233.95 119.76 234.41C119.637 235.071 119.283 235.667 118.76 236.09C118.362 236.409 117.89 236.621 117.388 236.706C116.886 236.792 116.37 236.749 115.89 236.58C115.293 236.369 114.776 235.978 114.411 235.462C114.046 234.945 113.85 234.328 113.85 233.695C113.85 233.062 114.046 232.445 114.411 231.928C114.776 231.412 115.293 231.021 115.89 230.81C116.37 230.641 116.886 230.598 117.388 230.683C117.89 230.769 118.362 230.981 118.76 231.3C119.285 231.721 119.64 232.318 119.76 232.98C119.85 233.44 119.79 233.7 119.76 233.69Z" fill="#263238"/>
<path d="M119.33 251.5C119.33 251.5 119.27 251.24 119.14 250.83C118.963 250.258 118.614 249.755 118.14 249.39C117.783 249.137 117.37 248.974 116.936 248.917C116.502 248.859 116.061 248.908 115.65 249.06C115.154 249.246 114.727 249.578 114.425 250.013C114.123 250.449 113.961 250.965 113.961 251.495C113.961 252.025 114.123 252.541 114.425 252.977C114.727 253.412 115.154 253.744 115.65 253.93C116.061 254.082 116.502 254.131 116.936 254.073C117.37 254.016 117.783 253.853 118.14 253.6C118.616 253.237 118.966 252.733 119.14 252.16C119.27 251.75 119.28 251.49 119.33 251.5C119.394 251.732 119.394 251.978 119.33 252.21C119.206 252.871 118.852 253.466 118.33 253.89C117.932 254.209 117.46 254.421 116.958 254.506C116.456 254.592 115.941 254.549 115.46 254.38C114.863 254.169 114.347 253.778 113.981 253.262C113.616 252.745 113.42 252.128 113.42 251.495C113.42 250.862 113.616 250.245 113.981 249.728C114.347 249.212 114.863 248.821 115.46 248.61C115.941 248.441 116.456 248.398 116.958 248.483C117.46 248.569 117.932 248.781 118.33 249.1C118.85 249.526 119.203 250.12 119.33 250.78C119.392 251.016 119.392 251.264 119.33 251.5Z" fill="#263238"/>
<path d="M94.0498 90.56C94.5576 88.7385 95.423 87.0364 96.5957 85.553C97.7684 84.0696 99.2247 82.8345 100.88 81.92C104.626 80.0364 108.913 79.52 113 80.46C117.045 81.4033 120.909 83.001 124.44 85.19C126.51 86.2567 128.362 87.7016 129.9 89.45C132.54 92.77 132.9 97.3 133.16 101.53C133.36 104.96 133.54 108.53 132.09 111.66C131.412 113.085 130.423 114.341 129.196 115.334C127.969 116.328 126.535 117.033 125 117.4" fill="#263238"/>
<path d="M131.239 107.73C133.227 105.432 134.734 102.758 135.67 99.8675C136.607 96.9766 136.953 93.9272 136.689 90.9C136.499 88.9 135.939 86.72 134.379 85.41C133.579 84.74 132.589 84.34 131.769 83.69C130.289 82.51 129.559 80.59 128.159 79.32C127.434 78.6664 126.555 78.2078 125.604 77.9874C124.652 77.7669 123.661 77.7919 122.722 78.0598C121.783 78.3277 120.928 78.8299 120.237 79.5191C119.545 80.2084 119.04 81.0621 118.769 82C118.029 84.57 119.139 87.27 120.219 89.72L125.219 101.06C125.777 102.505 126.556 103.855 127.529 105.06C128.02 105.665 128.643 106.148 129.351 106.472C130.058 106.796 130.831 106.953 131.609 106.93" fill="#263238"/>
<path d="M95.7696 88.0001C92.7677 91.252 90.9619 95.4288 90.6493 99.8434C90.3367 104.258 91.5359 108.648 94.0496 112.29C96.1603 102.994 99.078 93.8993 102.77 85.1101" fill="#263238"/>
<path d="M92.1596 100.66C92.5996 93.9199 97.0896 85.6599 103.81 86.3799L119.35 90.3799C121.736 90.9943 123.864 92.3568 125.421 94.2678C126.977 96.1789 127.881 98.5381 128 101C128 101.26 128 100.94 128 101.14L127 139.19L112.54 155.51L102.62 140.25C102.62 136.97 102.62 134.35 102.62 134.37C102.62 134.39 93.9996 132.88 92.2496 121.64C91.3796 116.05 91.6796 108.15 92.1596 100.66Z" fill="#FFBE9D"/>
<path d="M107.61 97.1401C106.561 97.5184 105.463 97.7441 104.35 97.8101C103.245 97.967 102.124 97.967 101.02 97.8101C101.02 97.7301 102.51 97.7301 104.32 97.5401C106.13 97.3501 107.59 97.0601 107.61 97.1401Z" fill="#724A44"/>
<path d="M105.099 96.7401C103.78 97.1887 102.365 97.2785 100.999 97.0001C101.662 96.9112 102.33 96.8711 102.999 96.8801C103.694 96.779 104.396 96.7322 105.099 96.7401Z" fill="#724A44"/>
<path d="M109.78 119C109.7 119 109.6 118.55 109.15 118.26C108.7 117.97 108.25 118.04 108.23 117.97C108.21 117.9 108.32 117.86 108.53 117.83C108.802 117.801 109.076 117.872 109.3 118.03C109.53 118.182 109.703 118.408 109.79 118.67C109.84 118.86 109.81 119 109.78 119Z" fill="#724A44"/>
<path d="M96.3195 109.39C96.314 109.765 96.4551 110.128 96.7128 110.4C96.9706 110.673 97.3246 110.834 97.6995 110.85C97.8832 110.865 98.068 110.843 98.2431 110.785C98.4182 110.728 98.5799 110.635 98.7188 110.514C98.8577 110.393 98.9709 110.245 99.0517 110.08C99.1326 109.914 99.1794 109.734 99.1895 109.55C99.195 109.176 99.0535 108.814 98.7955 108.543C98.5375 108.272 98.1835 108.113 97.8095 108.1C97.6263 108.084 97.4417 108.104 97.2667 108.161C97.0916 108.217 96.9298 108.308 96.7907 108.429C96.6517 108.549 96.5383 108.696 96.4573 108.861C96.3764 109.027 96.3295 109.206 96.3195 109.39Z" fill="#263238"/>
<path d="M94.1394 105.43C94.3194 105.62 95.4094 104.81 96.9594 104.82C98.5094 104.83 99.6494 105.6 99.8194 105.42C99.9894 105.24 99.7194 104.99 99.2294 104.63C98.5566 104.165 97.7573 103.917 96.9394 103.92C96.1322 103.917 95.3448 104.169 94.6894 104.64C94.2194 105 94.0494 105.34 94.1394 105.43Z" fill="#263238"/>
<path d="M110.779 109.39C110.774 109.765 110.915 110.128 111.173 110.4C111.431 110.673 111.785 110.834 112.159 110.85C112.343 110.863 112.527 110.841 112.702 110.782C112.876 110.724 113.037 110.632 113.176 110.511C113.315 110.39 113.428 110.243 113.509 110.078C113.59 109.913 113.638 109.733 113.649 109.55C113.655 109.176 113.513 108.814 113.255 108.543C112.997 108.272 112.643 108.113 112.269 108.1C112.086 108.082 111.901 108.102 111.725 108.158C111.55 108.214 111.387 108.305 111.248 108.425C111.108 108.546 110.995 108.694 110.915 108.859C110.834 109.025 110.788 109.206 110.779 109.39Z" fill="#263238"/>
<path d="M109.379 105.75C109.559 105.94 110.659 105.14 112.209 105.14C113.759 105.14 114.889 105.93 115.059 105.74C115.229 105.55 114.969 105.32 114.469 104.95C113.796 104.485 112.997 104.237 112.179 104.24C111.376 104.241 110.593 104.493 109.939 104.96C109.459 105.33 109.299 105.67 109.379 105.75Z" fill="#263238"/>
<path d="M103.729 117.24C102.913 116.978 102.066 116.823 101.209 116.78C100.819 116.78 100.439 116.66 100.379 116.39C100.344 115.983 100.435 115.574 100.639 115.22C101.019 114.22 101.409 113.22 101.819 112.22C103.459 107.93 104.639 104.41 104.469 104.34C104.299 104.27 102.829 107.7 101.189 111.99C100.799 113.05 100.419 114.06 100.069 114.99C99.8144 115.468 99.7399 116.022 99.8591 116.55C99.9167 116.689 100.005 116.814 100.118 116.914C100.23 117.015 100.364 117.089 100.509 117.13C100.728 117.186 100.953 117.216 101.179 117.22C102.025 117.337 102.882 117.344 103.729 117.24Z" fill="#263238"/>
<path d="M117.519 130.33C117.519 130.33 113.869 138.05 102.619 136.97V134.33C107.861 134.405 113.02 133.02 117.519 130.33Z" fill="#724A44"/>
<path d="M104.38 121C104.679 120.634 105.066 120.349 105.505 120.174C105.944 119.999 106.421 119.939 106.89 120C107.236 120.037 107.571 120.145 107.874 120.317C108.176 120.489 108.441 120.721 108.65 121C108.856 121.258 108.977 121.573 108.996 121.902C109.016 122.232 108.933 122.559 108.76 122.84C108.515 123.114 108.194 123.309 107.838 123.4C107.481 123.491 107.106 123.473 106.76 123.35C106.023 123.091 105.343 122.69 104.76 122.17C104.586 122.045 104.437 121.889 104.32 121.71C104.263 121.624 104.233 121.523 104.233 121.42C104.233 121.317 104.263 121.216 104.32 121.13" fill="#724A44"/>
<path d="M108.29 118.32C108.04 118.32 108.03 119.99 106.59 121.18C105.15 122.37 103.36 122.18 103.34 122.42C103.32 122.66 103.74 122.75 104.5 122.77C105.486 122.787 106.446 122.454 107.21 121.83C107.943 121.235 108.416 120.378 108.53 119.44C108.6 118.73 108.41 118.31 108.29 118.32Z" fill="#263238"/>
<path d="M108.999 101.21C109.149 101.63 110.699 101.44 112.519 101.66C114.339 101.88 115.809 102.38 116.049 102C116.159 101.82 115.909 101.43 115.309 101C114.52 100.494 113.626 100.176 112.695 100.07C111.764 99.9644 110.821 100.074 109.939 100.39C109.279 100.68 108.999 101 108.999 101.21Z" fill="#263238"/>
<path d="M94.7193 100.94C94.9893 101.29 96.0593 100.94 97.3493 100.94C98.6393 100.94 99.7193 101.18 99.9693 100.81C100.079 100.63 99.9093 100.28 99.4393 99.9501C98.8031 99.5446 98.0599 99.3393 97.3058 99.3606C96.5517 99.382 95.8214 99.6292 95.2093 100.07C94.7493 100.41 94.5993 100.77 94.7193 100.94Z" fill="#263238"/>
<path d="M95.2192 90.3899C95.6149 89.5656 96.2325 88.868 97.0026 88.3752C97.7728 87.8823 98.665 87.6139 99.5792 87.5999C101.419 87.5889 103.222 88.1136 104.769 89.1099C111.459 92.9799 115.219 100.66 121.829 104.66C123.536 105.503 125.149 106.525 126.639 107.71C128.019 109.01 128.919 111.1 128.149 112.84C129.096 111.662 129.871 110.356 130.449 108.96C130.732 108.259 130.861 107.505 130.828 106.749C130.796 105.994 130.601 105.254 130.259 104.58C129.689 103.58 128.679 102.83 128.399 101.72C128.119 100.61 128.539 99.7199 128.499 98.7199C128.398 97.7005 128.056 96.7199 127.499 95.8599C125.013 91.184 121.3 87.274 116.759 84.5499C113.763 82.8245 110.356 81.9433 106.899 81.9999C103.424 82.0825 100.094 83.4056 97.5092 85.7299C96.0392 87.1099 94.5092 88.5299 95.2492 90.3999" fill="#263238"/>
<path d="M128.069 112.87C128.069 112.87 128.199 112.72 128.419 112.41C128.739 111.967 128.982 111.473 129.139 110.95C129.659 108.977 129.439 106.882 128.519 105.06C128.019 103.89 127.299 102.68 126.519 101.35C125.75 99.9268 125.062 98.4611 124.459 96.96C123.808 95.3095 123.019 93.7171 122.099 92.2C121.086 90.5906 119.832 89.147 118.379 87.92C115.582 85.5132 112.166 83.9401 108.519 83.38C105.551 82.8569 102.493 83.2692 99.7691 84.56C97.9516 85.4722 96.4757 86.9447 95.5591 88.76C95.3233 89.2541 95.1358 89.7698 94.9991 90.3C94.969 90.4914 94.9187 90.6791 94.8491 90.86C94.8446 90.8134 94.8446 90.7666 94.8491 90.72C94.8648 90.5755 94.8881 90.432 94.9191 90.29C95.0388 89.7478 95.22 89.2211 95.4591 88.72C96.3579 86.8564 97.8393 85.3364 99.6791 84.39C102.433 83.0461 105.54 82.6051 108.559 83.13C112.257 83.6853 115.723 85.2728 118.559 87.71C120.034 88.9557 121.306 90.4232 122.329 92.06C123.255 93.591 124.045 95.2005 124.689 96.87C125.275 98.3624 125.942 99.8213 126.689 101.24C127.409 102.57 128.119 103.79 128.619 104.99C129.543 106.852 129.736 108.993 129.159 110.99C128.988 111.522 128.724 112.02 128.379 112.46C128.285 112.603 128.181 112.74 128.069 112.87Z" fill="#455A64"/>
<path d="M133.249 107C133.236 106.894 133.236 106.786 133.249 106.68C133.249 106.44 133.249 106.14 133.249 105.76C133.249 104.97 133.309 103.82 133.249 102.4C133.212 100.74 133.028 99.0872 132.699 97.4601C132.338 95.462 131.516 93.5756 130.299 91.9501C129.008 90.3804 127.565 88.9433 125.989 87.6601C124.559 86.4301 123.239 85.3801 122.089 84.5501C120.939 83.7201 119.959 83.1001 119.279 82.7001L118.479 82.2401C118.383 82.1944 118.292 82.1373 118.209 82.0701C118.315 82.0935 118.416 82.1341 118.509 82.1901C118.699 82.2801 118.979 82.4201 119.329 82.6101C120.321 83.1445 121.279 83.7389 122.199 84.3901C123.369 85.2001 124.719 86.2401 126.149 87.4601C127.749 88.7471 129.214 90.1947 130.519 91.7801C131.758 93.4372 132.59 95.3623 132.949 97.4001C133.27 99.0475 133.434 100.722 133.439 102.4C133.439 103.83 133.439 104.98 133.329 105.78C133.329 106.18 133.269 106.48 133.249 106.69C133.26 106.793 133.26 106.897 133.249 107Z" fill="#455A64"/>
<path d="M128.319 79.8301C128.481 80.237 128.585 80.6644 128.629 81.1001C128.79 82.1485 128.84 83.2111 128.779 84.2701C128.716 85.3262 128.538 86.3723 128.249 87.3901C128.155 87.8199 128 88.2341 127.789 88.6201C128.122 87.1807 128.359 85.7209 128.499 84.2501C128.541 82.7744 128.48 81.2975 128.319 79.8301Z" fill="#455A64"/>
<path d="M136.219 88.1499C136.166 88.4883 136.036 88.8099 135.839 89.0899C135.428 89.8002 134.873 90.4167 134.209 90.8999C133.545 91.3815 132.79 91.7218 131.989 91.8999C131.666 92.0007 131.325 92.0314 130.989 91.9899C131.315 91.8724 131.65 91.7788 131.989 91.7099C133.511 91.2479 134.83 90.2816 135.729 88.9699C135.878 88.6883 136.042 88.4146 136.219 88.1499Z" fill="#455A64"/>
<path d="M136.779 95.71C136.076 96.024 135.307 96.1613 134.539 96.11C133.77 96.1196 133.01 95.9375 132.329 95.58C132.329 95.49 133.329 95.79 134.549 95.84C135.769 95.89 136.759 95.62 136.779 95.71Z" fill="#455A64"/>
<path d="M131.89 115.35C131.63 115.21 131.76 114.47 131.79 113.26C131.832 112.585 131.754 111.908 131.56 111.26C131.502 111.105 131.432 110.954 131.35 110.81C131.312 110.74 131.269 110.673 131.22 110.61L131.04 110.35C130.757 109.967 130.446 109.606 130.11 109.27C129.831 108.972 129.489 108.739 129.11 108.59C128.99 108.59 128.96 108.59 129.01 108.59L128.62 108.67L128.2 108.77C127.645 108.907 127.108 109.109 126.6 109.37C126.33 109.51 126.07 109.66 125.79 109.83L125.59 109.97L125.24 110.17C125.01 110.297 124.773 110.411 124.53 110.51C123.529 110.92 122.449 111.101 121.37 111.04C120.713 111.003 120.068 110.844 119.47 110.57L119.23 110.44L119.04 110.33C118.908 110.258 118.781 110.178 118.66 110.09C118.414 109.919 118.18 109.732 117.96 109.53C117.163 108.777 116.509 107.886 116.03 106.9C115.58 106.01 115.24 105.14 114.91 104.35C113.726 101.47 112.096 98.7935 110.08 96.4201C108.416 94.4632 106.526 92.7109 104.45 91.2001C103.102 90.1453 101.61 89.2899 100.02 88.6601C98.8996 88.2401 98.1696 88.1301 98.1196 87.8301C98.0696 87.5301 98.7896 87.1001 100.26 87.0601C102.266 87.1365 104.225 87.6956 105.97 88.6901C108.55 90.018 110.895 91.7612 112.91 93.8501C115.404 96.4245 117.383 99.4522 118.74 102.77C119.09 103.62 119.39 104.39 119.74 105.04C119.992 105.596 120.329 106.108 120.74 106.56C120.825 106.646 120.915 106.726 121.01 106.8C121.052 106.836 121.099 106.866 121.15 106.89H121.22C121.362 106.966 121.519 107.014 121.68 107.03C122.179 107.079 122.682 107.024 123.16 106.87L123.49 106.74L123.64 106.67L123.92 106.52C124.302 106.315 124.696 106.131 125.1 105.97C125.884 105.657 126.703 105.439 127.54 105.32L128.12 105.25H128.4H128.72C129.342 105.22 129.96 105.37 130.5 105.68C131.214 106.095 131.828 106.662 132.3 107.34C132.684 107.857 133.019 108.41 133.3 108.99C133.36 109.13 133.42 109.24 133.48 109.41C133.551 109.568 133.608 109.732 133.65 109.9C133.742 110.199 133.799 110.508 133.82 110.82C133.88 111.758 133.719 112.696 133.35 113.56C132.78 115 132.13 115.47 131.89 115.35Z" fill="#263238"/>
<path d="M126.479 109.1C126.589 108.78 132.479 106.66 132.479 112.89C132.559 118.95 126.479 117.76 126.479 117.58C126.479 117.4 126.479 109.1 126.479 109.1Z" fill="#FFBE9D"/>
<path d="M128.34 115.27C128.34 115.27 128.44 115.34 128.62 115.42C128.873 115.522 129.156 115.522 129.41 115.42C129.799 115.17 130.115 114.82 130.324 114.407C130.533 113.994 130.628 113.532 130.6 113.07C130.604 112.55 130.499 112.036 130.29 111.56C130.229 111.373 130.125 111.203 129.986 111.063C129.847 110.924 129.677 110.82 129.49 110.76C129.367 110.728 129.238 110.741 129.124 110.796C129.01 110.851 128.92 110.944 128.87 111.06C128.79 111.23 128.87 111.35 128.79 111.36C128.71 111.37 128.66 111.26 128.71 111.01C128.738 110.86 128.819 110.725 128.94 110.63C129.022 110.565 129.117 110.517 129.218 110.49C129.32 110.462 129.425 110.456 129.53 110.47C129.778 110.516 130.01 110.625 130.204 110.786C130.398 110.947 130.548 111.155 130.64 111.39C130.898 111.915 131.029 112.495 131.02 113.08C131.054 113.619 130.928 114.157 130.657 114.625C130.387 115.093 129.984 115.47 129.5 115.71C129.333 115.764 129.155 115.778 128.982 115.752C128.809 115.726 128.643 115.66 128.5 115.56C128.35 115.42 128.32 115.28 128.34 115.27Z" fill="#724A44"/>
<path d="M131.14 109C131.067 108.857 130.983 108.72 130.89 108.59C130.612 108.223 130.233 107.945 129.8 107.79C129.113 107.55 128.378 107.484 127.66 107.6C126.709 107.798 125.792 108.135 124.94 108.6C123.884 109.173 122.701 109.472 121.5 109.47C120.108 109.309 118.829 108.627 117.92 107.56C116.943 106.386 116.215 105.025 115.78 103.56C115.27 102.08 114.78 100.56 114.21 99.01C113.157 96.0965 111.536 93.4213 109.44 91.14C107.706 89.3017 105.487 87.9913 103.04 87.36C102.103 87.116 101.138 86.9917 100.17 86.99C99.4393 87.0007 98.712 87.0879 97.9997 87.25C96.8297 87.54 96.2397 87.87 96.2197 87.83L96.3297 87.77L96.6597 87.62C97.0794 87.4195 97.5183 87.262 97.9697 87.15C98.6879 86.9584 99.4266 86.8543 100.17 86.84C101.15 86.8221 102.128 86.933 103.08 87.17C105.581 87.781 107.854 89.0963 109.63 90.96C111.765 93.2741 113.411 95.995 114.47 98.96C115.08 100.49 115.54 102.05 116.03 103.52C116.46 104.941 117.167 106.263 118.11 107.41C118.974 108.433 120.191 109.094 121.52 109.26C122.687 109.267 123.838 108.986 124.87 108.44C125.741 107.988 126.674 107.668 127.64 107.49C128.381 107.378 129.14 107.461 129.84 107.73C130.286 107.898 130.667 108.202 130.93 108.6C131.001 108.698 131.059 108.806 131.1 108.92C131.14 109 131.15 109 131.14 109Z" fill="#455A64"/>
<path d="M128.879 106C128.753 105.945 128.633 105.878 128.519 105.8C128.289 105.65 127.929 105.45 127.519 105.15C126.328 104.269 125.236 103.264 124.259 102.15C122.832 100.494 121.497 98.7617 120.259 96.9601C118.768 94.7512 117.096 92.6706 115.259 90.7401C114.279 89.7741 113.196 88.919 112.029 88.1901C110.938 87.5229 109.769 86.9922 108.549 86.6101C106.482 85.9436 104.307 85.6756 102.139 85.8201C100.675 85.9123 99.2299 86.1947 97.8391 86.6601C97.3491 86.8101 96.9791 86.9801 96.7191 87.0801C96.5936 87.1385 96.4631 87.1853 96.3291 87.2201C96.4427 87.1394 96.5673 87.0754 96.6991 87.0301C97.0584 86.8493 97.4292 86.6923 97.8091 86.5601C99.1937 86.0449 100.645 85.7317 102.119 85.6301C104.317 85.4523 106.528 85.7036 108.629 86.3701C109.872 86.7466 111.062 87.2809 112.169 87.9601C113.354 88.6962 114.454 89.5615 115.449 90.5401C117.293 92.482 118.966 94.5798 120.449 96.8101C121.669 98.6132 122.98 100.352 124.379 102.02C125.34 103.123 126.409 104.128 127.569 105.02C127.979 105.34 128.329 105.55 128.569 105.71C128.681 105.797 128.785 105.894 128.879 106Z" fill="#455A64"/>
<path d="M129 116.34C129.297 116.284 129.605 116.343 129.861 116.506C130.116 116.669 130.3 116.923 130.375 117.216C130.449 117.51 130.409 117.82 130.262 118.085C130.116 118.35 129.874 118.55 129.585 118.642C129.297 118.735 128.984 118.714 128.711 118.584C128.437 118.454 128.223 118.225 128.113 117.943C128.003 117.661 128.004 117.347 128.117 117.066C128.23 116.785 128.445 116.558 128.72 116.43" fill="white"/>
<path d="M128.74 116.43C128.485 116.642 128.298 116.923 128.2 117.24C128.154 117.405 128.151 117.579 128.191 117.745C128.231 117.911 128.313 118.064 128.43 118.19C128.57 118.343 128.75 118.454 128.949 118.512C129.148 118.57 129.359 118.573 129.56 118.52C129.754 118.447 129.925 118.323 130.056 118.161C130.186 117.999 130.27 117.805 130.3 117.6C130.318 117.43 130.295 117.259 130.232 117.1C130.17 116.942 130.069 116.801 129.94 116.69C129.678 116.479 129.356 116.357 129.02 116.34C129.108 116.289 129.208 116.265 129.31 116.27C129.582 116.277 129.845 116.372 130.06 116.54C130.228 116.664 130.362 116.83 130.447 117.021C130.533 117.212 130.568 117.421 130.55 117.63C130.533 117.891 130.437 118.141 130.276 118.347C130.114 118.553 129.894 118.706 129.644 118.784C129.395 118.863 129.127 118.865 128.876 118.789C128.626 118.714 128.404 118.564 128.24 118.36C128.105 118.201 128.012 118.01 127.972 117.805C127.932 117.6 127.945 117.388 128.01 117.19C128.089 116.93 128.251 116.702 128.47 116.54C128.63 116.43 128.74 116.42 128.74 116.43Z" fill="#263238"/>
<path d="M454.72 354.56C455.61 351.48 457.51 348.51 460.45 347.25C463.39 345.99 467.04 346.68 470.17 347.81C473.3 348.94 476.37 350.47 479.69 350.68C483.01 350.89 486.76 349.31 487.76 346.13C488.69 343.13 486.89 339.96 484.64 337.79C482.26 335.498 479.341 333.842 476.152 332.975C472.964 332.108 469.608 332.057 466.395 332.829C463.182 333.6 460.215 335.167 457.767 337.387C455.319 339.607 453.47 342.407 452.39 345.53" fill="#263238"/>
<path d="M428.399 367.9C423.529 363.27 423.769 355.21 426.199 348.95C428.629 342.69 433.939 337.86 439.869 334.69C445.655 331.652 452.053 329.964 458.584 329.752C465.116 329.541 471.61 330.812 477.579 333.47C474.656 333.595 471.808 334.435 469.285 335.917C466.762 337.399 464.642 339.477 463.109 341.97C460.439 346.41 459.839 351.79 457.639 356.47C455.152 361.753 450.735 365.883 445.296 368.009C439.857 370.135 433.81 370.096 428.399 367.9Z" fill="#455A64"/>
<path d="M426.059 340.09C420.659 333.72 419.939 323.49 420.739 315.18C421.539 306.87 423.459 298.51 422.149 290.26C421.369 285.38 419.479 280.71 418.839 275.81C418.199 270.91 419.099 265.36 422.899 262.19C427.269 258.55 434.149 259.41 438.689 262.83C443.229 266.25 445.869 271.61 447.789 276.96C452.019 288.71 453.569 301.75 450.099 313.74C446.629 325.73 438.479 336.46 426.529 340.09" fill="#455A64"/>
<path d="M423.469 392.35C423.443 392.104 423.443 391.856 423.469 391.61C423.469 391.13 423.469 390.42 423.469 389.51C423.539 387.68 423.709 385.04 424.109 381.79C424.588 377.988 425.279 374.215 426.179 370.49C427.292 365.911 429.029 361.507 431.339 357.4C433.649 353.294 436.483 349.506 439.769 346.13C442.443 343.373 445.407 340.912 448.609 338.79C449.959 337.86 451.269 337.15 452.389 336.5C453.509 335.85 454.549 335.4 455.389 335L457.339 334.19C457.551 334.1 457.772 334.037 457.999 334C457.789 334.126 457.572 334.24 457.349 334.34L455.449 335.24C454.639 335.66 453.649 336.18 452.519 336.8C451.389 337.42 450.129 338.2 448.809 339.14C441.794 343.941 435.977 350.292 431.809 357.7C426.809 366.38 425.489 375.49 424.499 381.89C424.049 385.12 423.819 387.75 423.689 389.57C423.639 390.44 423.599 391.14 423.559 391.67C423.544 391.898 423.514 392.126 423.469 392.35Z" fill="#263238"/>
<path d="M376.919 315C366.919 321 366.969 326.5 368.639 331.68C370.309 336.86 376.429 340.45 381.509 338.51C384.379 337.42 386.459 334.92 388.239 332.41C390.019 329.9 391.689 327.22 394.179 325.41C396.669 323.6 400.279 322.92 402.779 324.7" fill="#263238"/>
<path d="M369.449 321.56C372.059 317.95 378.509 316.91 382.579 318.71C386.649 320.51 389.629 324.08 392.299 327.64C394.969 331.2 397.569 334.97 401.299 337.45C405.029 339.93 410.169 340.82 413.849 338.33C415.026 337.453 416.012 336.346 416.746 335.075C417.48 333.805 417.947 332.397 418.119 330.94C418.443 328.028 418.243 325.082 417.529 322.24C416.649 318.05 415.209 313.68 411.859 311.02C408.129 308.02 402.939 307.91 398.179 308.07C392.709 308.25 387.179 308.66 382.029 310.55C376.879 312.44 371.659 316.55 369.479 321.55" fill="#455A64"/>
<path d="M415.17 384.35C415.123 384.066 415.099 383.778 415.1 383.49C415.1 382.88 415.05 382.05 415.01 381.01C414.94 378.81 414.85 375.71 414.73 371.9C414.61 368.09 414.45 363.47 414.17 358.39C413.89 353.31 413.51 347.73 412.74 341.92C412.411 339.093 411.856 336.298 411.08 333.56C410.292 331.034 409.271 328.587 408.03 326.25C405.978 322.258 403.262 318.643 400 315.56C397.773 313.508 395.26 311.79 392.54 310.46C391.802 310.086 391.044 309.752 390.27 309.46C389.994 309.367 389.726 309.249 389.47 309.11C389.752 309.175 390.029 309.259 390.3 309.36C391.093 309.605 391.869 309.906 392.62 310.26C395.403 311.524 397.973 313.21 400.24 315.26C403.576 318.339 406.354 321.973 408.45 326C409.718 328.361 410.763 330.835 411.57 333.39C412.362 336.152 412.924 338.975 413.25 341.83C414.03 347.67 414.39 353.26 414.65 358.35C414.91 363.44 415.02 368.02 415.1 371.87C415.18 375.72 415.2 378.87 415.21 380.99V383.47C415.221 383.764 415.208 384.058 415.17 384.35Z" fill="#263238"/>
<path d="M418.759 388.86C418.276 387.465 417.905 386.034 417.649 384.58C416.954 380.602 416.796 376.55 417.179 372.53C417.797 366.563 419.078 360.683 420.999 355C422.999 348.58 425.829 341.71 428.209 334.33C430.48 327.417 431.91 320.255 432.469 313C432.926 307.061 433.036 301.101 432.799 295.15C432.629 290.07 432.359 285.96 432.199 283.15C432.119 281.76 432.059 280.67 432.009 279.88C432.009 279.53 432.009 279.25 432.009 279.03C431.999 278.934 431.999 278.836 432.009 278.74C432.025 278.836 432.025 278.934 432.009 279.03L432.099 279.87C432.159 280.66 432.259 281.75 432.379 283.14C432.609 285.98 432.929 290.09 433.139 295.14C433.458 301.091 433.411 307.055 432.999 313C432.728 316.52 432.261 320.022 431.599 323.49C430.867 327.212 429.909 330.885 428.729 334.49C426.349 341.9 423.549 348.76 421.489 355.16C419.564 360.791 418.26 366.616 417.599 372.53C417.184 376.526 417.285 380.559 417.899 384.53C418.149 385.93 418.369 387.01 418.559 387.74L418.759 388.57C418.771 388.666 418.771 388.764 418.759 388.86Z" fill="#263238"/>
<path d="M443.51 393.38H396.63L395.56 384.35H443.51V393.38Z" fill="#263238"/>
<path d="M401.67 392.35L407.53 419.42H433L438.48 392.35H401.67Z" fill="#263238"/>
<path d="M443.51 393.38C443.51 393.52 433.21 393.61 420.51 393.57C407.81 393.53 397.51 393.39 397.51 393.25C397.51 393.11 407.81 393.02 420.51 393.05C433.21 393.08 443.51 393.23 443.51 393.38Z" fill="#455A64"/>
<path d="M435.469 406.74C434.185 405.799 432.796 405.011 431.329 404.39C429.733 403.769 428.042 403.431 426.329 403.39C424.225 403.397 422.139 403.78 420.17 404.52C418.03 405.24 416.039 406.08 414.089 406.52C412.36 406.892 410.578 406.946 408.829 406.68C407.651 406.505 406.509 406.137 405.45 405.59C405.166 405.438 404.895 405.264 404.64 405.07C404.46 404.94 404.38 404.86 404.39 404.84C405.776 405.619 407.301 406.118 408.879 406.31C410.581 406.523 412.307 406.438 413.979 406.06C415.849 405.59 417.849 404.74 419.979 404.06C422.006 403.3 424.155 402.92 426.319 402.94C428.088 402.999 429.83 403.382 431.459 404.07C432.535 404.535 433.543 405.14 434.459 405.87C434.714 406.066 434.958 406.277 435.189 406.5C435.399 406.64 435.479 406.72 435.469 406.74Z" fill="#455A64"/>
<path d="M435.109 408.54C433.858 407.636 432.518 406.862 431.109 406.23C429.571 405.603 427.93 405.264 426.269 405.23C424.239 405.237 422.225 405.599 420.319 406.3C418.249 406.99 416.319 407.79 414.459 408.3C412.816 408.771 411.106 408.961 409.399 408.86C408.246 408.787 407.12 408.481 406.089 407.96C405.813 407.81 405.549 407.64 405.299 407.45C405.139 407.32 405.049 407.25 405.059 407.23C405.069 407.21 405.459 407.45 406.179 407.78C407.211 408.211 408.312 408.451 409.429 408.49C411.087 408.536 412.741 408.316 414.329 407.84C416.139 407.32 418.059 406.52 420.149 405.84C422.115 405.117 424.195 404.758 426.289 404.78C428.013 404.825 429.711 405.206 431.289 405.9C432.339 406.362 433.321 406.964 434.209 407.69C434.458 407.879 434.692 408.086 434.909 408.31C435.056 408.457 435.123 408.533 435.109 408.54Z" fill="white"/>
<path d="M435.929 404.94C434.604 403.968 433.18 403.14 431.679 402.47C430.048 401.772 428.31 401.356 426.539 401.24C424.37 401.195 422.212 401.575 420.189 402.36C418.13 403.166 416.027 403.854 413.889 404.42C412.092 404.727 410.256 404.727 408.459 404.42C407.256 404.224 406.089 403.846 404.999 403.3C404.706 403.146 404.425 402.968 404.159 402.77C403.979 402.63 403.889 402.55 403.899 402.54C403.909 402.53 404.319 402.77 405.089 403.12C406.196 403.583 407.36 403.895 408.549 404.05C410.303 404.304 412.086 404.27 413.829 403.95C415.937 403.364 418.013 402.669 420.049 401.87C422.136 401.064 424.363 400.686 426.599 400.76C429.655 400.997 432.576 402.123 434.999 404C435.258 404.202 435.505 404.419 435.739 404.65C435.859 404.84 435.939 404.93 435.929 404.94Z" fill="white"/>
<path d="M193.625 118.234L199.188 111.484L201.812 112.953L197.406 118.422L201.812 123.859L199.188 125.375L193.625 118.641V118.234ZM200.656 118.234L206.234 111.484L208.859 112.953L204.438 118.422L208.859 123.859L206.234 125.375L200.656 118.641V118.234ZM230.312 127H226.578V107.359H220.078C219.255 114.026 218.594 118.562 218.094 120.969C217.604 123.375 216.911 125.052 216.016 126C215.12 126.938 213.932 127.391 212.453 127.359C211.693 127.359 210.969 127.229 210.281 126.969V123.859C210.875 124.12 211.453 124.25 212.016 124.25C212.766 124.25 213.349 123.802 213.766 122.906C214.193 122 214.656 120.005 215.156 116.922C215.667 113.839 216.271 109.583 216.969 104.156H230.312V127ZM251.297 118.328C251.297 121.151 250.573 123.354 249.125 124.938C247.677 126.521 245.661 127.312 243.078 127.312C241.464 127.312 240.036 126.948 238.797 126.219C237.557 125.49 236.604 124.443 235.938 123.078C235.271 121.714 234.938 120.13 234.938 118.328C234.938 115.526 235.656 113.339 237.094 111.766C238.531 110.193 240.557 109.406 243.172 109.406C245.672 109.406 247.651 110.214 249.109 111.828C250.568 113.432 251.297 115.599 251.297 118.328ZM238.719 118.328C238.719 122.318 240.193 124.312 243.141 124.312C246.057 124.312 247.516 122.318 247.516 118.328C247.516 114.38 246.047 112.406 243.109 112.406C241.568 112.406 240.448 112.917 239.75 113.938C239.062 114.958 238.719 116.422 238.719 118.328ZM266.703 109.719V112.594H259.203V127H255.531V109.719H266.703ZM273.547 109.719V118.578C273.547 119.609 273.464 121.125 273.297 123.125L281.969 109.719H286.453V127H282.922V118.297C282.922 117.818 282.948 117.042 283 115.969C283.062 114.896 283.115 114.115 283.156 113.625L274.516 127H270.031V109.719H273.547ZM302.406 109.719H306.438L299.297 118.047L307.047 127H302.828L295.359 118.234V127H291.688V109.719H295.359V118.109L302.406 109.719ZM320.719 127L319.984 124.594H319.859C319.026 125.646 318.188 126.365 317.344 126.75C316.5 127.125 315.417 127.312 314.094 127.312C312.396 127.312 311.068 126.854 310.109 125.938C309.161 125.021 308.688 123.724 308.688 122.047C308.688 120.266 309.349 118.922 310.672 118.016C311.995 117.109 314.01 116.615 316.719 116.531L319.703 116.438V115.516C319.703 114.411 319.443 113.589 318.922 113.047C318.411 112.495 317.615 112.219 316.531 112.219C315.646 112.219 314.797 112.349 313.984 112.609C313.172 112.87 312.391 113.177 311.641 113.531L310.453 110.906C311.391 110.417 312.417 110.047 313.531 109.797C314.646 109.536 315.698 109.406 316.688 109.406C318.885 109.406 320.542 109.885 321.656 110.844C322.781 111.802 323.344 113.307 323.344 115.359V127H320.719ZM315.25 124.5C316.583 124.5 317.651 124.13 318.453 123.391C319.266 122.641 319.672 121.594 319.672 120.25V118.75L317.453 118.844C315.724 118.906 314.464 119.198 313.672 119.719C312.891 120.229 312.5 121.016 312.5 122.078C312.5 122.849 312.729 123.448 313.188 123.875C313.646 124.292 314.333 124.5 315.25 124.5ZM327.922 125.047C327.922 124.286 328.12 123.703 328.516 123.297C328.911 122.891 329.484 122.688 330.234 122.688C330.995 122.688 331.573 122.901 331.969 123.328C332.365 123.745 332.562 124.318 332.562 125.047C332.562 125.786 332.359 126.375 331.953 126.812C331.557 127.24 330.984 127.453 330.234 127.453C329.484 127.453 328.911 127.24 328.516 126.812C328.12 126.385 327.922 125.797 327.922 125.047ZM207.688 170H203.953V150.359H197.453C196.63 157.026 195.969 161.562 195.469 163.969C194.979 166.375 194.286 168.052 193.391 169C192.495 169.938 191.307 170.391 189.828 170.359C189.068 170.359 188.344 170.229 187.656 169.969V166.859C188.25 167.12 188.828 167.25 189.391 167.25C190.141 167.25 190.724 166.802 191.141 165.906C191.568 165 192.031 163.005 192.531 159.922C193.042 156.839 193.646 152.583 194.344 147.156H207.688V170ZM220.891 170.312C218.203 170.312 216.099 169.531 214.578 167.969C213.068 166.396 212.312 164.234 212.312 161.484C212.312 158.661 213.016 156.443 214.422 154.828C215.828 153.214 217.76 152.406 220.219 152.406C222.5 152.406 224.302 153.099 225.625 154.484C226.948 155.87 227.609 157.776 227.609 160.203V162.188H216.094C216.146 163.865 216.599 165.156 217.453 166.062C218.307 166.958 219.51 167.406 221.062 167.406C222.083 167.406 223.031 167.312 223.906 167.125C224.792 166.927 225.74 166.604 226.75 166.156V169.141C225.854 169.568 224.948 169.87 224.031 170.047C223.115 170.224 222.068 170.312 220.891 170.312ZM220.219 155.188C219.052 155.188 218.115 155.557 217.406 156.297C216.708 157.036 216.292 158.115 216.156 159.531H224C223.979 158.104 223.635 157.026 222.969 156.297C222.302 155.557 221.385 155.188 220.219 155.188ZM242.5 152.719H246.531L239.391 161.047L247.141 170H242.922L235.453 161.234V170H231.781V152.719H235.453V161.109L242.5 152.719ZM256.969 170.312C254.354 170.312 252.365 169.552 251 168.031C249.646 166.5 248.969 164.307 248.969 161.453C248.969 158.547 249.677 156.312 251.094 154.75C252.521 153.188 254.578 152.406 257.266 152.406C259.089 152.406 260.729 152.745 262.188 153.422L261.078 156.375C259.526 155.771 258.245 155.469 257.234 155.469C254.245 155.469 252.75 157.453 252.75 161.422C252.75 163.359 253.12 164.818 253.859 165.797C254.609 166.766 255.703 167.25 257.141 167.25C258.776 167.25 260.323 166.844 261.781 166.031V169.234C261.125 169.62 260.422 169.896 259.672 170.062C258.932 170.229 258.031 170.312 256.969 170.312ZM269.359 152.719V161.578C269.359 162.609 269.276 164.125 269.109 166.125L277.781 152.719H282.266V170H278.734V161.297C278.734 160.818 278.76 160.042 278.812 158.969C278.875 157.896 278.927 157.115 278.969 156.625L270.328 170H265.844V152.719H269.359ZM298.219 152.719H302.25L295.109 161.047L302.859 170H298.641L291.172 161.234V170H287.5V152.719H291.172V161.109L298.219 152.719ZM316.531 170L315.797 167.594H315.672C314.839 168.646 314 169.365 313.156 169.75C312.312 170.125 311.229 170.312 309.906 170.312C308.208 170.312 306.88 169.854 305.922 168.938C304.974 168.021 304.5 166.724 304.5 165.047C304.5 163.266 305.161 161.922 306.484 161.016C307.807 160.109 309.823 159.615 312.531 159.531L315.516 159.438V158.516C315.516 157.411 315.255 156.589 314.734 156.047C314.224 155.495 313.427 155.219 312.344 155.219C311.458 155.219 310.609 155.349 309.797 155.609C308.984 155.87 308.203 156.177 307.453 156.531L306.266 153.906C307.203 153.417 308.229 153.047 309.344 152.797C310.458 152.536 311.51 152.406 312.5 152.406C314.698 152.406 316.354 152.885 317.469 153.844C318.594 154.802 319.156 156.307 319.156 158.359V170H316.531ZM311.062 167.5C312.396 167.5 313.464 167.13 314.266 166.391C315.078 165.641 315.484 164.594 315.484 163.25V161.75L313.266 161.844C311.536 161.906 310.276 162.198 309.484 162.719C308.703 163.229 308.312 164.016 308.312 165.078C308.312 165.849 308.542 166.448 309 166.875C309.458 167.292 310.146 167.5 311.062 167.5ZM338.172 161.641L332.562 168.375L329.938 166.859L334.359 161.422L329.938 155.953L332.562 154.484L338.172 161.234V161.641ZM331.125 161.641L325.531 168.375L322.906 166.859L327.312 161.422L322.906 155.953L325.531 154.484L331.125 161.234V161.641Z" fill="white"/>
<g clip-path="url(#clip0)">
<path d="M333.514 246.715C333.15 246.556 324.261 242.706 271.636 219.901C270.589 219.447 269.403 219.447 268.356 219.901L206.478 246.715C203.158 248.15 203.19 252.863 206.478 254.284C218.499 259.493 238.151 268.009 268.356 281.098C269.397 281.549 270.583 281.555 271.636 281.098C274.504 279.855 313.587 262.919 315.374 262.145V306.074C315.374 308.296 317.082 310.207 319.302 310.31C321.671 310.421 323.624 308.535 323.624 306.19V260.649C323.624 260.001 323.144 259.454 322.501 259.371C314.758 258.373 278.243 253.66 269.468 252.529C266.93 252.211 265.348 249.641 266.015 247.354C266.539 245.422 268.373 244.191 270.231 244.319C270.416 244.33 329.203 251.916 329.161 251.911C330.26 252.052 331.163 252.756 331.596 253.709C331.9 254.376 332.671 254.682 333.335 254.371C334.445 253.85 335.407 253.166 335.845 251.616C336.409 249.608 335.39 247.526 333.514 246.715Z" fill="#713AAB"/>
<path d="M265.074 288.668L230.546 273.706C229.694 273.337 228.744 273.961 228.744 274.889V289.689C228.744 303.568 246.864 314.44 269.996 314.44C293.128 314.44 311.248 303.568 311.248 289.689V274.889C311.248 273.961 310.298 273.337 309.447 273.706L274.916 288.668C271.78 290.031 268.213 290.03 265.074 288.668Z" fill="#713AAB"/>
</g>
<circle cx="41" cy="321" r="41" fill="#EBEBEB"/>
<circle cx="529.5" cy="336.5" r="52.5" fill="#EBEBEB"/>
<circle cx="539" cy="129" r="41" fill="#EBEBEB"/>
<defs>
<clipPath id="clip0">
<rect width="132" height="132" fill="white" transform="translate(204 201)"/>
</clipPath>
</defs>
</svg>
