<svg width="22" height="22" viewBox="0 0 22 22" fill="none" xmlns="http://www.w3.org/2000/svg">
<g clip-path="url(#clip0)">
<path d="M5.31006 10.3964L15.4857 0.248906C15.8191 -0.0833705 16.3589 -0.0828119 16.6917 0.250624C17.0243 0.584017 17.0234 1.12409 16.69 1.45662L7.12003 11.0002L16.6903 20.5437C17.0237 20.8762 17.0246 21.416 16.6921 21.7494C16.5252 21.9165 16.3066 22.0001 16.088 22.0001C15.87 22.0001 15.6523 21.9171 15.4858 21.7511L5.31006 11.6039C5.14949 11.4441 5.05938 11.2267 5.05938 11.0002C5.05938 10.7736 5.14974 10.5565 5.31006 10.3964Z" fill="black"/>
</g>
<defs>
<clipPath id="clip0">
<rect width="22" height="22" fill="white" transform="matrix(-1 0 0 1 22 0)"/>
</clipPath>
</defs>
</svg>
