<svg width="224" height="224" viewBox="0 0 224 224" fill="none" xmlns="http://www.w3.org/2000/svg">
<path d="M183.232 34.9441L182.282 33.3985C174.272 20.3617 159.82 12.5127 144.57 13.467C142.612 13.5888 140.665 13.8523 138.746 14.2554C124.858 17.1898 112.811 27.5431 107.811 40.8039C104.868 48.6036 104.048 57.586 98.4661 63.7774C91.1995 71.8414 78.8661 72.0833 68.0245 71.7518C57.1829 71.4202 44.8405 71.7025 37.6097 79.7889C33.0849 84.8558 31.6424 92.0596 32.0097 98.8468C32.9774 116.807 45.6513 132.868 61.7704 140.851C77.8894 148.835 96.8533 149.547 114.496 146.048C139.207 141.12 162.709 127.622 176.839 106.754C190.969 85.8862 194.54 57.4471 183.232 34.9441Z" fill="#F5F5F5"/>
<path d="M84.2566 39.7825C81.5686 36.7316 75.9506 35.0516 71.8738 35.5131C70.0104 35.4657 68.1618 35.8557 66.4763 36.6517C64.7908 37.4477 63.3152 38.6275 62.168 40.0967C61.0207 41.5658 60.2337 43.2833 59.87 45.1115C59.5062 46.9397 59.576 48.8277 60.0735 50.6241C61.5878 56.1166 66.9817 59.8843 72.5772 60.955C76.1612 61.6359 80.1036 61.3223 83.038 59.163C85.9724 57.0036 87.4239 53.4734 87.8137 49.9252C88.2572 45.8843 86.9401 42.8334 84.2566 39.7825Z" fill="#F5F5F5"/>
<path d="M215.107 199.279C215.107 199.342 168.963 199.396 112.004 199.396C55.0455 199.396 8.89258 199.36 8.89258 199.279C8.89258 199.199 55.0366 199.163 112.004 199.163C168.972 199.163 215.107 199.217 215.107 199.279Z" fill="#263238"/>
<path d="M203.923 65.0182H138.838V108.6H203.923V65.0182Z" fill="white"/>
<path d="M203.923 108.595C203.923 108.595 203.923 108.322 203.923 107.802V105.504C203.923 103.488 203.923 100.527 203.896 96.7411C203.896 89.1654 203.87 78.2835 203.847 65.0182L203.941 65.1078L138.86 65.1347L138.977 65.0182C138.977 80.5414 138.977 95.303 138.977 108.595L138.869 108.488L185.761 108.541L199.157 108.568H202.718H203.641H202.745H199.201L185.829 108.595L138.869 108.649H138.762V108.541C138.762 95.2493 138.762 80.4877 138.762 64.9645V64.8435H138.883L203.964 64.8704H204.058V64.9645C204.058 78.2566 204.022 89.1565 204.008 96.7411C204.008 100.522 204.008 103.461 203.986 105.486C203.986 106.485 203.986 107.251 203.986 107.771C203.986 108.291 203.923 108.595 203.923 108.595Z" fill="#8547C6"/>
<path d="M138.838 68.9068C138.838 68.8396 153.398 68.7903 171.354 68.7903C189.31 68.7903 203.87 68.8396 203.87 68.9068C203.87 68.974 189.314 69.0232 171.354 69.0232C153.393 69.0232 138.838 68.9919 138.838 68.9068Z" fill="#8547C6"/>
<g opacity="0.3">
<path opacity="0.3" d="M141.406 66.9446C141.406 67.0484 141.375 67.15 141.317 67.2363C141.259 67.3226 141.177 67.3897 141.081 67.4293C140.985 67.4688 140.879 67.4789 140.778 67.4583C140.676 67.4377 140.582 67.3874 140.509 67.3136C140.436 67.2399 140.387 67.1461 140.367 67.0441C140.347 66.9421 140.358 66.8366 140.399 66.7409C140.439 66.6452 140.507 66.5636 140.594 66.5066C140.68 66.4495 140.782 66.4195 140.886 66.4204C140.955 66.4204 141.023 66.434 141.086 66.4604C141.149 66.4868 141.207 66.5255 141.255 66.5742C141.303 66.623 141.342 66.6808 141.367 66.7443C141.393 66.8079 141.406 66.876 141.406 66.9446Z" fill="#8547C6"/>
</g>
<g opacity="0.3">
<path opacity="0.3" d="M143.193 66.9446C143.193 67.0484 143.162 67.15 143.104 67.2363C143.046 67.3226 142.964 67.3897 142.868 67.4293C142.772 67.4688 142.667 67.4789 142.565 67.4583C142.463 67.4377 142.37 67.3874 142.296 67.3136C142.223 67.2399 142.174 67.1461 142.154 67.0441C142.134 66.9421 142.145 66.8366 142.186 66.7409C142.226 66.6452 142.294 66.5636 142.381 66.5066C142.468 66.4495 142.569 66.4195 142.673 66.4204C142.742 66.4204 142.81 66.434 142.873 66.4604C142.936 66.4868 142.994 66.5255 143.042 66.5742C143.091 66.623 143.129 66.6808 143.155 66.7443C143.18 66.8079 143.193 66.876 143.193 66.9446Z" fill="#8547C6"/>
</g>
<g opacity="0.3">
<path opacity="0.3" d="M144.953 66.9446C144.953 67.0484 144.922 67.15 144.864 67.2363C144.806 67.3226 144.724 67.3897 144.628 67.4293C144.532 67.4688 144.426 67.4789 144.325 67.4583C144.223 67.4377 144.129 67.3874 144.056 67.3136C143.983 67.2399 143.934 67.1461 143.914 67.0441C143.894 66.9421 143.905 66.8366 143.945 66.7409C143.986 66.6452 144.054 66.5636 144.141 66.5066C144.227 66.4495 144.329 66.4195 144.433 66.4204C144.502 66.4204 144.57 66.434 144.633 66.4604C144.696 66.4868 144.754 66.5255 144.802 66.5742C144.85 66.623 144.889 66.6808 144.914 66.7443C144.94 66.8079 144.953 66.876 144.953 66.9446Z" fill="#8547C6"/>
</g>
<path d="M161.794 73.4496H144.434V90.8096H161.794V73.4496Z" fill="#8547C6"/>
<path d="M194.999 78.3551C194.999 78.4223 188.225 78.4716 179.874 78.4716C171.524 78.4716 164.75 78.4223 164.75 78.3551C164.75 78.2879 171.524 78.2386 179.874 78.2386C188.225 78.2386 194.999 78.2924 194.999 78.3551Z" fill="#8547C6"/>
<path d="M194.999 81.5852C194.999 81.6479 188.225 81.7017 179.874 81.7017C171.524 81.7017 164.75 81.6479 164.75 81.5852C164.75 81.5225 171.524 81.4688 179.874 81.4688C188.225 81.4688 194.999 81.5359 194.999 81.5852Z" fill="#8547C6"/>
<path d="M194.999 84.8108C194.999 84.8735 188.225 84.9273 179.874 84.9273C171.524 84.9273 164.75 84.8735 164.75 84.8108C164.75 84.7481 171.524 84.6943 179.874 84.6943C188.225 84.6943 194.999 84.7436 194.999 84.8108Z" fill="#8547C6"/>
<path d="M182.63 88.0364C182.397 88.0728 182.162 88.0878 181.926 88.0812L180.009 88.117C178.392 88.1394 176.156 88.1529 173.692 88.1529C171.228 88.1529 168.988 88.1529 167.371 88.117L165.453 88.0812C165.218 88.0878 164.983 88.0728 164.75 88.0364C164.983 88 165.218 87.985 165.453 87.9916L167.371 87.9558C168.988 87.9334 171.224 87.9199 173.692 87.9199C176.161 87.9199 178.392 87.9199 180.009 87.9558L181.926 87.9916C182.162 87.985 182.397 88 182.63 88.0364Z" fill="#8547C6"/>
<g opacity="0.3">
<path opacity="0.3" d="M153.676 96.6649H145.518V104.823H153.676V96.6649Z" fill="#8547C6"/>
</g>
<path d="M168.474 96.6649H160.316V104.823H168.474V96.6649Z" fill="#8547C6"/>
<path d="M183.271 96.6649H175.113V104.823H183.271V96.6649Z" fill="#8547C6"/>
<path d="M198.068 96.6649H189.91V104.823H198.068V96.6649Z" fill="#8547C6"/>
<g opacity="0.3">
<path opacity="0.3" d="M161.794 73.4496H144.434V90.8096H161.794V73.4496Z" fill="white"/>
</g>
<g opacity="0.3">
<path opacity="0.3" d="M168.474 96.6649H160.316V104.823H168.474V96.6649Z" fill="white"/>
</g>
<g opacity="0.3">
<path opacity="0.3" d="M183.271 96.6649H175.113V104.823H183.271V96.6649Z" fill="white"/>
</g>
<g opacity="0.3">
<path opacity="0.3" d="M198.068 96.6649H189.91V104.823H198.068V96.6649Z" fill="white"/>
</g>
<path d="M77.7849 80.7162H19.8047V104.268H77.7849V80.7162Z" fill="white"/>
<path d="M77.7852 104.268C77.7852 104.268 77.7852 104.124 77.7852 103.846C77.7852 103.569 77.7852 103.161 77.7852 102.623C77.7852 101.548 77.7852 99.9712 77.7852 97.9373C77.7852 93.8739 77.7852 87.9917 77.7493 80.7162L77.8121 80.7789L19.8364 80.8058L19.9305 80.7162C19.9305 88.9639 19.9305 96.9248 19.9305 104.268L19.8409 104.178L61.4108 104.218L73.4709 104.245H76.701H77.5343H76.7189H73.5113L61.4735 104.268L19.8409 104.308H19.7109V80.64H19.805L77.7807 80.6714H77.8479V80.7341C77.8479 88.0275 77.821 93.9187 77.8121 97.9955C77.8121 100.021 77.8121 101.58 77.8121 102.668C77.8121 103.197 77.8121 103.6 77.8121 103.878C77.8121 104.156 77.7852 104.268 77.7852 104.268Z" fill="#8547C6"/>
<path d="M19.8633 83.8924C19.8633 83.8431 32.8239 83.7983 48.8041 83.7983C64.7842 83.7983 77.7538 83.8431 77.7538 83.8924C77.7538 83.9417 64.7932 83.982 48.8041 83.982C32.815 83.982 19.8633 83.9417 19.8633 83.8924Z" fill="#8547C6"/>
<g opacity="0.3">
<path opacity="0.3" d="M22.2915 82.4723C22.2915 82.5556 22.2668 82.637 22.2205 82.7062C22.1742 82.7755 22.1084 82.8295 22.0315 82.8613C21.9545 82.8932 21.8699 82.9015 21.7882 82.8853C21.7065 82.869 21.6315 82.8289 21.5726 82.77C21.5137 82.7112 21.4736 82.6361 21.4573 82.5544C21.4411 82.4727 21.4494 82.3881 21.4813 82.3111C21.5131 82.2342 21.5671 82.1684 21.6364 82.1221C21.7056 82.0759 21.787 82.0511 21.8703 82.0511C21.982 82.0511 22.0891 82.0955 22.1681 82.1745C22.2471 82.2535 22.2915 82.3606 22.2915 82.4723Z" fill="#8547C6"/>
</g>
<g opacity="0.3">
<path opacity="0.3" d="M23.7446 82.4723C23.7446 82.5556 23.7199 82.637 23.6736 82.7062C23.6273 82.7755 23.5616 82.8295 23.4846 82.8613C23.4077 82.8932 23.323 82.9015 23.2413 82.8853C23.1596 82.869 23.0846 82.8289 23.0257 82.77C22.9668 82.7112 22.9267 82.6361 22.9104 82.5544C22.8942 82.4727 22.9025 82.3881 22.9344 82.3111C22.9663 82.2342 23.0202 82.1684 23.0895 82.1221C23.1588 82.0759 23.2402 82.0511 23.3235 82.0511C23.4352 82.0511 23.5423 82.0955 23.6212 82.1745C23.7002 82.2535 23.7446 82.3606 23.7446 82.4723Z" fill="#8547C6"/>
</g>
<g opacity="0.3">
<path opacity="0.3" d="M25.1547 82.4723C25.1547 82.5556 25.13 82.637 25.0838 82.7062C25.0375 82.7755 24.9717 82.8295 24.8948 82.8613C24.8178 82.8932 24.7332 82.9015 24.6515 82.8853C24.5698 82.869 24.4947 82.8289 24.4358 82.77C24.3769 82.7112 24.3368 82.6361 24.3206 82.5544C24.3043 82.4727 24.3127 82.3881 24.3446 82.3111C24.3764 82.2342 24.4304 82.1684 24.4997 82.1221C24.5689 82.0759 24.6503 82.0511 24.7336 82.0511C24.8453 82.0511 24.9524 82.0955 25.0314 82.1745C25.1104 82.2535 25.1547 82.3606 25.1547 82.4723Z" fill="#8547C6"/>
</g>
<path d="M38.7369 87.7184H24.7324V101.723H38.7369V87.7184Z" fill="#8547C6"/>
<path d="M73.7753 91.4727C73.7753 91.5219 66.567 91.5667 57.6787 91.5667C48.7904 91.5667 41.582 91.5219 41.582 91.4727C41.582 91.4234 48.7904 91.3831 57.6787 91.3831C66.567 91.3831 73.7753 91.4234 73.7753 91.4727Z" fill="#8547C6"/>
<path d="M73.7753 94.3264C73.7753 94.3757 66.567 94.416 57.6787 94.416C48.7904 94.416 41.582 94.3757 41.582 94.3264C41.582 94.2771 48.7904 94.2323 57.6787 94.2323C66.567 94.2323 73.7753 94.2771 73.7753 94.3264Z" fill="#8547C6"/>
<path d="M62.3069 97.1801C62.2368 97.1849 62.1664 97.1849 62.0963 97.1801H61.4915L59.2739 97.2069L51.9446 97.2338L44.6198 97.2069L42.3798 97.1801H41.775C41.7049 97.1845 41.6346 97.1845 41.5645 97.1801C41.6343 97.1699 41.7052 97.1699 41.775 97.1801H42.3798L44.6198 97.1487L51.9446 97.1218L59.2739 97.1487L61.4915 97.1801H62.0963C62.1661 97.1695 62.2371 97.1695 62.3069 97.1801Z" fill="#8547C6"/>
<g opacity="0.3">
<path opacity="0.3" d="M38.7369 87.7184H24.7324V101.723H38.7369V87.7184Z" fill="#F5F5F5"/>
</g>
<path d="M120.392 51.1212C119.42 50.4716 118.085 50.8658 117.112 51.5154C116.14 52.165 115.32 53.0521 114.223 53.4732C112.18 54.2662 109.496 53.3254 107.91 54.8172C106.902 55.7759 106.799 57.3529 106.029 58.5132C104.73 60.4665 101.612 61.2012 101.347 63.5308C101.19 64.8748 102.266 66.1919 103.587 66.5727C104.255 66.7294 104.948 66.7409 105.621 66.6064C106.293 66.4719 106.929 66.1946 107.485 65.7932C108.829 64.8972 109.864 63.5532 111.378 63.0425C112.892 62.5318 114.841 62.9574 116.064 61.8777C117.287 60.798 117.103 58.8044 117.982 57.4246C118.509 56.7311 119.136 56.1183 119.841 55.6057C120.499 55.0367 121.126 54.3334 121.238 53.4687C121.35 52.6041 120.997 51.1302 120.401 51.0988" fill="#F5F5F5"/>
<path d="M95.1464 146.299C95.2046 146.267 95.3838 146.447 95.5541 146.702C95.7243 146.957 95.8184 147.199 95.7646 147.235C95.7109 147.271 95.5317 147.092 95.3569 146.832C95.1822 146.572 95.0926 146.335 95.1464 146.299Z" fill="#263238"/>
<path d="M93.2305 142.258C93.4722 142.551 93.6534 142.889 93.7636 143.252C93.9406 143.587 94.0487 143.955 94.0817 144.332C93.6583 143.707 93.3686 143 93.2305 142.258Z" fill="#263238"/>
<path d="M92.1906 137.903C92.4777 138.602 92.6166 139.352 92.5983 140.107C92.4195 139.773 92.3112 139.406 92.2802 139.028C92.1752 138.663 92.1448 138.28 92.1906 137.903Z" fill="#263238"/>
<path d="M92.0348 133.428C92.1766 134.169 92.166 134.931 92.0034 135.668C91.8897 135.306 91.8545 134.924 91.9004 134.548C91.8655 134.169 91.9113 133.787 92.0348 133.428Z" fill="#263238"/>
<path d="M92.7369 129.024C92.773 129.402 92.7318 129.783 92.6159 130.144C92.5713 130.52 92.4525 130.884 92.2665 131.215C92.2305 130.837 92.2717 130.456 92.3875 130.095C92.4329 129.718 92.5517 129.355 92.7369 129.024Z" fill="#263238"/>
<path d="M94.3667 124.835C94.2172 125.572 93.9116 126.269 93.4707 126.878C93.5156 126.501 93.6359 126.137 93.8246 125.807C94.08 125.238 94.3085 124.804 94.3667 124.835Z" fill="#263238"/>
<path d="M96.836 121.099C96.7118 121.458 96.5168 121.789 96.2626 122.071C96.0609 122.391 95.8047 122.673 95.5054 122.904C95.4427 122.864 95.7026 122.429 96.0744 121.932C96.4463 121.435 96.7688 121.058 96.836 121.099Z" fill="#263238"/>
<path d="M99.8477 117.784C99.8969 117.828 99.5878 118.232 99.1622 118.68C98.7366 119.128 98.3513 119.45 98.302 119.41C98.2528 119.37 98.5619 118.962 98.992 118.514C99.4221 118.066 99.8028 117.734 99.8477 117.784Z" fill="#263238"/>
<path d="M103.001 114.594C103.05 114.639 102.732 115.042 102.297 115.49C101.863 115.938 101.473 116.251 101.428 116.207C101.383 116.162 101.697 115.759 102.131 115.311C102.566 114.863 102.956 114.549 103.001 114.594Z" fill="#263238"/>
<path d="M105.948 111.216C105.806 111.568 105.594 111.888 105.325 112.157C104.931 112.641 104.573 112.995 104.523 112.95C104.669 112.6 104.881 112.28 105.146 112.009C105.536 111.552 105.894 111.18 105.948 111.216Z" fill="#263238"/>
<path d="M108.233 107.372C108.193 107.752 108.064 108.117 107.857 108.438C107.714 108.793 107.492 109.111 107.207 109.366C107.294 108.997 107.446 108.647 107.655 108.331C107.792 107.981 107.987 107.657 108.233 107.372Z" fill="#263238"/>
<path d="M109.313 103.04C109.401 103.412 109.393 103.8 109.291 104.169C109.265 104.551 109.147 104.922 108.946 105.249C108.923 104.873 108.962 104.496 109.062 104.133C109.087 103.758 109.171 103.388 109.313 103.04Z" fill="#263238"/>
<path d="M108.99 98.5913C109.189 98.918 109.303 99.2891 109.322 99.671C109.414 100.043 109.414 100.432 109.322 100.804C109.181 100.455 109.099 100.084 109.08 99.7068C108.99 99.3423 108.959 98.9655 108.99 98.5913Z" fill="#263238"/>
<path d="M107.23 94.492C107.284 94.4562 107.611 94.846 107.907 95.388C108.12 95.7067 108.253 96.0728 108.292 96.4543C108.046 96.1697 107.846 95.8476 107.701 95.5C107.494 95.19 107.335 94.8501 107.23 94.492Z" fill="#263238"/>
<path d="M104.106 91.3114C104.471 91.426 104.803 91.6274 105.074 91.8983C105.553 92.3015 105.867 92.7047 105.822 92.7495C105.777 92.7943 105.374 92.4717 104.926 92.0775C104.478 91.6832 104.066 91.3652 104.106 91.3114Z" fill="#263238"/>
<path d="M100.035 89.4924C100.417 89.469 100.798 89.5398 101.146 89.6985C101.52 89.785 101.867 89.9636 102.154 90.2182C101.779 90.1758 101.413 90.0745 101.07 89.918C100.703 89.8359 100.353 89.6919 100.035 89.4924Z" fill="#263238"/>
<path d="M95.582 89.2909C95.9249 89.1198 96.3059 89.0396 96.6886 89.0579C97.0687 89.0017 97.4569 89.0418 97.8176 89.1744C97.4537 89.269 97.0776 89.3083 96.702 89.2909C96.331 89.3496 95.9531 89.3496 95.582 89.2909Z" fill="#263238"/>
<path d="M91.4521 90.9439C91.4118 90.8901 91.7971 90.5541 92.3481 90.2584C92.6653 90.041 93.0351 89.9126 93.4188 89.8866C93.1269 90.1228 92.8025 90.316 92.4556 90.46C92.1471 90.6705 91.8089 90.8336 91.4521 90.9439Z" fill="#263238"/>
<path d="M88.373 94.1607C88.4705 93.7895 88.66 93.449 88.9241 93.1706C89.3049 92.6733 89.6991 92.3463 89.7439 92.3911C89.7887 92.4359 89.4796 92.8391 89.1078 93.3139C88.7359 93.7888 88.4268 94.192 88.373 94.1607Z" fill="#263238"/>
<path d="M86.8636 98.3449C86.7932 97.9676 86.8225 97.5784 86.9487 97.2159C87.0051 96.8337 87.1595 96.4726 87.3967 96.1676C87.3827 96.5435 87.3117 96.9151 87.1861 97.2697C87.1345 97.6425 87.0257 98.0052 86.8636 98.3449Z" fill="#263238"/>
<path d="M87.3964 102.758C87.1592 102.453 87.0049 102.092 86.9484 101.709C86.8197 101.348 86.7888 100.958 86.8588 100.58C87.0141 100.922 87.1212 101.284 87.1769 101.656C87.303 102.01 87.3769 102.382 87.3964 102.758Z" fill="#263238"/>
<path d="M89.6675 106.593C89.6183 106.637 89.2464 106.288 88.8835 105.777C88.63 105.49 88.4501 105.146 88.3594 104.774C88.4176 104.742 88.7133 105.146 89.0717 105.643C89.3208 105.925 89.522 106.246 89.6675 106.593Z" fill="#263238"/>
<path d="M92.9655 109.617C92.6037 109.495 92.2743 109.293 92.0023 109.025C91.514 108.635 91.178 108.255 91.2228 108.205C91.5647 108.365 91.8769 108.581 92.1456 108.846C92.625 109.231 93.0058 109.563 92.9655 109.617Z" fill="#263238"/>
<path d="M96.8496 111.843C96.1195 111.648 95.4387 111.302 94.8516 110.826C95.2255 110.89 95.5831 111.027 95.9044 111.229C96.2577 111.368 96.5792 111.577 96.8496 111.843Z" fill="#263238"/>
<path d="M101.114 113.201C100.734 113.244 100.349 113.198 99.9897 113.066C99.6113 113.01 99.2519 112.864 98.9414 112.641C99.3189 112.646 99.6928 112.714 100.048 112.842C100.422 112.898 100.783 113.019 101.114 113.201Z" fill="#263238"/>
<path d="M105.576 113.429C104.848 113.653 104.072 113.668 103.336 113.474C103.699 113.378 104.077 113.344 104.451 113.375C104.827 113.331 105.207 113.349 105.576 113.429Z" fill="#263238"/>
<path d="M109.887 112.278C109.271 112.725 108.541 112.988 107.781 113.035C108.097 112.829 108.445 112.677 108.812 112.587C109.15 112.423 109.513 112.319 109.887 112.278Z" fill="#263238"/>
<path d="M113.622 109.827C113.667 109.876 113.326 110.275 112.829 110.634C112.551 110.895 112.215 111.087 111.848 111.194C111.812 111.135 112.202 110.826 112.69 110.45C112.966 110.194 113.28 109.984 113.622 109.827Z" fill="#263238"/>
<path d="M116.539 106.44C116.435 106.808 116.246 107.145 115.988 107.426C115.616 107.928 115.244 108.273 115.195 108.232C115.146 108.192 115.437 107.784 115.804 107.287C116.172 106.79 116.481 106.404 116.539 106.44Z" fill="#263238"/>
<path d="M118.478 102.408C118.477 102.791 118.383 103.167 118.205 103.506C117.972 104.088 117.699 104.518 117.641 104.487C117.695 104.115 117.811 103.754 117.986 103.421C118.093 103.059 118.26 102.717 118.478 102.408Z" fill="#263238"/>
<path d="M119.347 98.0223C119.444 98.7755 119.339 99.5409 119.042 100.24C119.03 99.4895 119.132 98.7416 119.347 98.0223Z" fill="#263238"/>
<path d="M119.231 93.5467C119.377 93.8969 119.448 94.274 119.438 94.6533C119.502 95.028 119.491 95.4117 119.406 95.7822C119.196 95.0553 119.136 94.293 119.231 93.5422V93.5467Z" fill="#263238"/>
<path d="M118.272 89.1743C118.48 89.4931 118.619 89.8517 118.68 90.2271C118.815 90.5814 118.876 90.9595 118.859 91.3382C118.654 91.0183 118.515 90.6602 118.452 90.2854C118.316 89.9312 118.255 89.553 118.272 89.1743Z" fill="#263238"/>
<path d="M116.543 85.0348C116.601 85.0035 116.87 85.4335 117.139 85.9935C117.328 86.3239 117.447 86.69 117.488 87.0687C117.059 86.4498 116.739 85.7618 116.543 85.0348Z" fill="#263238"/>
<path d="M114.34 81.1328C114.398 81.097 114.694 81.5046 115.007 82.0288C115.225 82.3366 115.378 82.6857 115.455 83.0547C115.177 82.8025 114.95 82.4981 114.788 82.1587C114.574 81.8489 114.421 81.5005 114.34 81.1328Z" fill="#263238"/>
<path d="M112.117 77.2397C112.175 77.2083 112.462 77.625 112.762 78.1626C112.979 78.4761 113.131 78.8293 113.21 79.2019C112.936 78.9386 112.717 78.6234 112.565 78.2746C112.346 77.9642 112.194 77.6119 112.117 77.2397Z" fill="#263238"/>
<path d="M110.365 73.118C110.771 73.7558 111.038 74.4716 111.149 75.2192C110.912 74.921 110.741 74.5759 110.647 74.2067C110.48 73.8668 110.384 73.4963 110.365 73.118Z" fill="#263238"/>
<path d="M109.604 68.7142C109.736 69.0682 109.803 69.4431 109.801 69.8208C109.879 70.189 109.893 70.5679 109.841 70.9408C109.665 70.6018 109.573 70.2253 109.573 69.8432C109.495 69.4696 109.506 69.083 109.604 68.7142Z" fill="#263238"/>
<path d="M109.976 64.2566C110.012 64.6318 109.984 65.0103 109.895 65.3766C109.879 65.7542 109.796 66.126 109.649 66.4742C109.562 66.1014 109.562 65.7136 109.649 65.3408C109.671 64.9586 109.783 64.5872 109.976 64.2566Z" fill="#263238"/>
<path d="M111.437 60.032C111.38 60.4054 111.259 60.7662 111.079 61.0982C110.967 61.4588 110.796 61.7981 110.572 62.1017C110.667 61.3462 110.966 60.6307 111.437 60.032Z" fill="#263238"/>
<path d="M113.931 56.3181C113.981 56.3629 113.685 56.7661 113.309 57.2544C112.932 57.7427 112.614 58.1504 112.561 58.0921C112.667 57.7244 112.861 57.3878 113.125 57.111C113.506 56.6182 113.887 56.2777 113.931 56.3181Z" fill="#263238"/>
<path d="M117.296 53.3701C117.331 53.4239 116.942 53.742 116.458 54.1183C116.183 54.3773 115.867 54.5879 115.521 54.741C115.477 54.6917 115.822 54.293 116.314 53.9346C116.593 53.672 116.929 53.4787 117.296 53.3701Z" fill="#263238"/>
<path d="M121.283 51.3452C120.981 51.5718 120.643 51.746 120.284 51.8604C119.955 52.0449 119.598 52.1708 119.226 52.2322C119.195 52.174 119.62 51.8963 120.194 51.6499C120.527 51.4613 120.9 51.3567 121.283 51.3452Z" fill="#263238"/>
<path d="M124.544 50.5209C124.544 50.5836 124.316 50.6822 124.015 50.7359C123.715 50.7897 123.455 50.7897 123.442 50.7359C123.429 50.6822 123.666 50.5746 123.971 50.5164C124.275 50.4582 124.544 50.4582 124.544 50.5209Z" fill="#263238"/>
<path d="M133.674 37.3318C133.674 37.3318 138.933 33.5775 146.218 35.9878C146.218 35.9878 146.814 42.0179 140.976 46.8115" fill="#8547C6"/>
<path d="M117.086 48.469C117.31 48.805 123.022 57.9846 123.022 57.9846L140.167 47.4207C140.875 46.9846 141.484 46.4063 141.956 45.7223C142.429 45.0384 142.754 44.2638 142.912 43.4476C143.069 42.6314 143.056 41.7914 142.871 40.9808C142.687 40.1702 142.337 39.4066 141.842 38.7385C140.924 37.4983 139.562 36.6601 138.041 36.3981C136.52 36.1361 134.956 36.4705 133.675 37.3318L117.086 48.469Z" fill="#8547C6"/>
<path d="M123.022 57.9846L122.637 64.4448C122.637 64.4448 133.747 59.0688 130.974 53.0835L123.022 57.9846Z" fill="#263238"/>
<path d="M125.029 43.1379C125.029 43.1379 117.493 39.8137 111.293 44.688L117.086 48.4691L125.029 43.1379Z" fill="#263238"/>
<path d="M124.992 48.4736L114.271 55.1936C114.271 55.1936 114.639 56.3494 114.926 56.2508C115.212 56.1523 123.227 51.4124 125.839 49.8668C125.939 49.8074 126.025 49.7271 126.09 49.6315C126.156 49.5358 126.201 49.4271 126.221 49.3126C126.241 49.1982 126.236 49.0808 126.206 48.9684C126.177 48.8561 126.123 48.7515 126.049 48.6617C125.926 48.5068 125.751 48.4022 125.556 48.3675C125.362 48.3329 125.161 48.3706 124.992 48.4736Z" fill="#263238"/>
<path d="M138.195 44.1759C138.629 42.331 137.486 40.4836 135.641 40.0495C133.796 39.6154 131.949 40.7591 131.514 42.604C131.08 44.4489 132.224 46.2963 134.069 46.7304C135.914 47.1645 137.761 46.0208 138.195 44.1759Z" fill="#FAFAFA"/>
<path d="M138.285 43.3888C138.258 43.3888 138.285 43.0841 138.133 42.5645C137.933 41.8287 137.491 41.1817 136.879 40.7277C136.463 40.4155 135.979 40.2053 135.467 40.1139C134.882 40.0095 134.279 40.0621 133.72 40.2662C133.096 40.4873 132.552 40.8917 132.161 41.4265C131.742 41.9949 131.516 42.6826 131.516 43.3888C131.516 44.095 131.742 44.7826 132.161 45.351C132.548 45.8831 133.085 46.2884 133.702 46.5158C134.261 46.7197 134.864 46.7723 135.449 46.6681C135.961 46.5767 136.445 46.3665 136.861 46.0544C137.472 45.5993 137.914 44.9527 138.115 44.2176C138.254 43.6979 138.24 43.3888 138.267 43.3888C138.279 43.463 138.279 43.5386 138.267 43.6128C138.266 43.8241 138.24 44.0345 138.191 44.24C138.039 44.8923 137.702 45.4867 137.219 45.9511C136.737 46.4154 136.13 46.7299 135.472 46.8563C134.817 46.9844 134.14 46.9235 133.519 46.6808C132.897 46.438 132.358 46.0234 131.964 45.4854C131.513 44.8794 131.27 44.1441 131.27 43.3888C131.27 42.6334 131.513 41.8982 131.964 41.2921C132.379 40.7256 132.955 40.2977 133.617 40.0646C134.172 39.8635 134.77 39.8069 135.353 39.9001C135.936 39.9934 136.485 40.2335 136.95 40.5977C137.592 41.0819 138.042 41.7766 138.223 42.56C138.272 42.7654 138.297 42.9759 138.299 43.1872C138.304 43.2547 138.3 43.3226 138.285 43.3888Z" fill="#263238"/>
<path d="M142.466 45.6959C142.421 45.6959 142.372 45.0284 142.107 43.9845C141.951 43.3739 141.752 42.7751 141.512 42.1925C140.915 40.7703 140.071 39.4645 139.021 38.3352C138.59 37.8758 138.128 37.4476 137.636 37.054C136.79 36.3864 136.203 36.0639 136.225 36.0236C136.375 36.0736 136.517 36.1413 136.651 36.2252C136.816 36.3106 136.976 36.4048 137.13 36.5074C137.309 36.6284 137.52 36.7538 137.735 36.924C138.25 37.303 138.731 37.7257 139.173 38.1874C140.268 39.3165 141.129 40.65 141.709 42.1119C141.946 42.7062 142.133 43.319 142.269 43.9442C142.336 44.2085 142.363 44.4549 142.399 44.67C142.428 44.8524 142.448 45.0364 142.457 45.221C142.483 45.378 142.486 45.538 142.466 45.6959Z" fill="#263238"/>
<path d="M141.542 46.1708C141.497 46.1708 141.443 45.4943 141.174 44.4325C141.015 43.813 140.813 43.2053 140.57 42.6137C140.264 41.8922 139.9 41.1969 139.481 40.5349C139.054 39.8791 138.574 39.2588 138.047 38.6802C137.611 38.2095 137.14 37.7709 136.641 37.3676C135.785 36.6821 135.189 36.3506 135.212 36.3103C135.369 36.3618 135.519 36.4325 135.66 36.5209C135.825 36.6081 135.985 36.7053 136.139 36.8121C136.323 36.933 136.538 37.0674 136.753 37.2601C137.269 37.6441 137.754 38.068 138.204 38.5279C138.751 39.1083 139.244 39.7366 139.678 40.405C140.102 41.0797 140.467 41.7903 140.767 42.5285C141.007 43.1333 141.197 43.7566 141.336 44.3922C141.403 44.661 141.43 44.9119 141.466 45.1269C141.499 45.3121 141.52 45.4991 141.528 45.6869C141.551 45.8472 141.555 46.0095 141.542 46.1708Z" fill="#263238"/>
<path d="M36.6639 188.608C36.2786 187.085 37.2866 185.562 38.4111 184.464C39.5356 183.366 40.8751 182.385 41.4665 180.929C42.4207 178.573 41.1708 175.504 42.8105 173.542C43.7602 172.386 45.4626 172.01 46.3049 170.773C46.6974 170.091 46.9587 169.342 47.0754 168.565C47.9909 164.641 49.9435 161.036 52.7292 158.126C52.9028 161.625 52.1289 165.106 50.4892 168.202C49.8306 169.438 49.0242 170.643 48.8047 172.028C48.4373 174.268 49.7007 176.593 49.1183 178.797C48.4687 181.315 45.6284 182.99 45.4761 185.584C45.3506 187.784 47.2681 189.719 47.0978 191.914C46.98 192.847 46.6405 193.738 46.1077 194.513C44.3516 197.313 41.8562 199.244 38.0796 199.158L33.4473 199.293L36.6639 188.608Z" fill="#8547C6"/>
<g opacity="0.3">
<path opacity="0.3" d="M36.6639 188.608C36.2786 187.085 37.2866 185.562 38.4111 184.464C39.5356 183.366 40.8751 182.385 41.4665 180.929C42.4207 178.573 41.1708 175.504 42.8105 173.542C43.7602 172.386 45.4626 172.01 46.3049 170.773C46.6974 170.091 46.9587 169.342 47.0754 168.565C47.9909 164.641 49.9435 161.036 52.7292 158.126C52.9028 161.625 52.1289 165.106 50.4892 168.202C49.8306 169.438 49.0242 170.643 48.8047 172.028C48.4373 174.268 49.7007 176.593 49.1183 178.797C48.4687 181.315 45.6284 182.99 45.4761 185.584C45.3506 187.784 47.2681 189.719 47.0978 191.914C46.98 192.847 46.6405 193.738 46.1077 194.513C44.3516 197.313 41.8562 199.244 38.0796 199.158L33.4473 199.293L36.6639 188.608Z" fill="black"/>
</g>
<path d="M32.5055 199.409C32.0812 199.473 31.6488 199.461 31.2287 199.373C30.7169 199.295 30.2142 199.166 29.7279 198.988C29.0572 198.749 28.4306 198.401 27.8732 197.958C27.5389 197.686 27.2785 197.335 27.1161 196.936C26.9788 196.488 26.9079 196.021 26.9055 195.552C26.8986 195.05 26.8657 194.549 26.807 194.051C26.7196 193.522 26.5293 193.015 26.247 192.559C25.7094 191.596 24.8044 190.687 24.5222 189.379C24.2399 188.07 24.446 186.691 24.67 185.324C24.894 183.958 25.118 182.421 24.5849 180.97C24.0518 179.518 23.0886 178.205 22.5913 176.57C22.094 174.935 22.3404 173.148 22.2419 171.396C22.2163 170.507 22.0169 169.632 21.655 168.82C21.2831 168 20.759 167.225 20.3692 166.36C19.5583 164.609 19.4239 162.633 19.2089 160.693C19.1059 159.717 18.9983 158.726 18.8953 157.732C18.8316 156.729 18.6635 155.735 18.3935 154.766C18.0881 153.788 17.7245 152.829 17.3049 151.894C17.0866 151.41 16.9098 150.908 16.7763 150.394C16.7 149.865 16.6522 149.333 16.6329 148.799C16.589 147.729 16.637 146.657 16.7763 145.596C16.9062 144.529 17.1078 143.468 17.2243 142.397C17.2243 142.334 17.2243 142.271 17.2243 142.213L17.2467 142.003L17.4348 142.097C18.4154 142.601 19.2652 143.326 19.9167 144.216C20.5544 145.083 21.0657 146.036 21.4355 147.047C22.1971 149.041 22.4614 151.128 22.8422 153.117C23.223 155.107 23.7023 157.073 24.7103 158.731C25.2166 159.56 25.8259 160.317 26.359 161.123C26.926 161.911 27.313 162.813 27.4924 163.766C27.7523 165.729 26.6636 167.445 26.8787 169.178C26.9907 170.032 27.2839 170.853 27.7388 171.584C28.1555 172.328 28.6348 173.013 29.1097 173.708C29.5859 174.382 29.9984 175.099 30.3417 175.849C30.6695 176.585 30.8622 177.374 30.9107 178.179C31.0137 179.742 30.7852 181.221 30.9107 182.623C31.03 183.955 31.4106 185.25 32.0307 186.435C32.5817 187.578 33.1999 188.613 33.7151 189.612C33.9723 190.093 34.2041 190.588 34.4095 191.094C34.5946 191.567 34.7283 192.058 34.8083 192.559C34.9356 193.436 34.9356 194.326 34.8083 195.203C34.6801 196.427 34.2149 197.592 33.4643 198.567C33.3513 198.713 33.2253 198.848 33.0879 198.97C32.9963 199.067 32.8941 199.152 32.7833 199.226L32.519 199.409C32.849 199.144 33.1494 198.843 33.415 198.513C34.134 197.536 34.5752 196.383 34.6918 195.176C34.8012 194.309 34.7861 193.431 34.647 192.568C34.5637 192.078 34.4285 191.597 34.2438 191.135C34.0511 190.655 33.7958 190.172 33.5494 189.674C33.0252 188.684 32.4025 187.654 31.838 186.502C31.2004 185.298 30.8061 183.98 30.6777 182.623C30.5612 181.194 30.7852 179.711 30.6777 178.183C30.6301 177.41 30.445 176.651 30.1311 175.943C29.7899 175.207 29.382 174.504 28.9126 173.842C28.4646 173.152 27.9539 172.462 27.5238 171.705C27.0604 170.939 26.7642 170.084 26.6547 169.196C26.4441 167.346 27.5238 165.612 27.255 163.798C27.0783 162.887 26.7019 162.027 26.1529 161.28C25.6287 160.487 25.015 159.73 24.4953 158.883C23.4559 157.176 22.9542 155.178 22.5823 153.176C22.2105 151.173 21.9327 149.108 21.1846 147.155C20.8249 146.171 20.3271 145.243 19.7062 144.399C19.0821 143.549 18.2693 142.854 17.3318 142.37L17.5468 142.249L17.5244 142.437C17.399 143.521 17.2019 144.583 17.0764 145.636C16.9373 146.683 16.8893 147.739 16.9331 148.794C16.9599 149.309 16.9913 149.852 17.0675 150.34C17.2002 150.835 17.3709 151.318 17.5782 151.787C18.0028 152.732 18.3708 153.701 18.6803 154.69C18.9496 155.672 19.1162 156.679 19.1775 157.696C19.2851 158.691 19.3881 159.681 19.4911 160.657C19.7017 162.606 19.8361 164.55 20.6156 166.239C21.0054 167.082 21.5116 167.857 21.8969 168.708C22.272 169.556 22.4789 170.469 22.5062 171.396C22.5958 173.188 22.3539 174.931 22.8287 176.517C23.3036 178.102 24.3027 179.411 24.8044 180.911C25.3062 182.412 25.1046 183.985 24.8761 185.369C24.6476 186.753 24.4281 188.12 24.7059 189.352C24.9836 190.584 25.8393 191.502 26.3903 192.488C26.6795 192.962 26.8728 193.489 26.9593 194.038C27.0169 194.542 27.0468 195.049 27.0489 195.557C27.0444 196.011 27.1079 196.464 27.2371 196.901C27.3897 197.281 27.6345 197.619 27.9494 197.882C28.4867 198.32 29.092 198.668 29.7414 198.912C30.2196 199.097 30.7147 199.235 31.2198 199.324C31.5305 199.38 31.845 199.413 32.1606 199.423C32.3935 199.405 32.5055 199.409 32.5055 199.409Z" fill="#263238"/>
<path d="M18.1836 144.771C18.2043 144.815 18.2193 144.862 18.2284 144.91C18.2508 145.022 18.2866 145.157 18.327 145.327C18.4166 145.694 18.5196 146.245 18.6898 146.935C18.8601 147.625 19.2857 148.4 19.6396 149.359C19.9935 150.317 20.3788 151.411 20.7193 152.647C21.0598 153.884 21.3734 155.259 21.6914 156.728C21.9621 158.306 22.4522 159.838 23.1474 161.28C23.5238 162.033 23.9449 162.799 24.2809 163.632C24.6088 164.488 24.8285 165.382 24.935 166.293C25.1573 168.178 25.4788 170.051 25.8982 171.902C26.7942 175.701 27.6902 179.321 28.4562 182.618C29.2223 185.916 29.9884 188.863 30.6022 191.359C31.2159 193.854 31.6818 195.839 32.0223 197.254L32.3942 198.863C32.43 199.033 32.4614 199.172 32.4838 199.284C32.4887 199.332 32.4887 199.38 32.4838 199.427C32.461 199.383 32.4444 199.337 32.4345 199.288L32.3135 198.876C32.2105 198.491 32.0671 197.958 31.8655 197.281L30.3513 191.408C29.7241 188.917 28.9759 185.96 28.1471 182.685C27.3183 179.411 26.4806 175.768 25.5622 171.965C25.1539 170.1 24.8458 168.214 24.6393 166.316C24.5418 165.426 24.331 164.553 24.0121 163.717C23.6895 162.906 23.2729 162.145 22.8966 161.383C22.2043 159.93 21.7173 158.387 21.4495 156.8C21.1404 155.326 20.8492 153.955 20.5177 152.723C20.1862 151.491 19.8367 150.385 19.4828 149.435C19.1289 148.485 18.7481 147.692 18.5868 146.98C18.4255 146.268 18.3449 145.73 18.2777 145.358C18.2463 145.188 18.2239 145.045 18.206 144.933C18.191 144.88 18.1834 144.826 18.1836 144.771Z" fill="#263238"/>
<path d="M31.6861 199.418C28.6711 197.604 27.8333 192.143 29.1146 188.863C30.3959 185.584 32.6224 182.591 32.9808 179.097C33.2586 176.409 32.394 173.64 33.0346 171.033C33.9037 167.485 37.3847 164.761 37.3668 161.105C37.3668 159.058 36.202 157.123 36.305 155.075C36.4349 152.566 38.3703 150.595 39.5754 148.382C41.4212 145.009 41.5645 141.008 42.2096 137.218C42.8548 133.428 44.3242 129.369 47.6976 127.523C48.177 130.749 49.0148 132.962 48.7236 137.325C48.616 138.889 46.7792 141.882 46.5104 145.313C46.3536 147.365 46.2372 149.421 46.1028 151.478C45.9684 153.534 45.825 155.51 45.0992 157.378C44.5437 158.807 43.6522 160.102 43.2356 161.58C42.4516 164.362 43.4461 167.382 42.7876 170.2C42.25 172.588 40.5834 174.635 40.2295 177.054C39.7367 180.459 41.9184 184.007 40.7716 187.251C40.2026 188.859 38.872 190.145 38.4868 191.807C38.1866 193.097 38.4868 194.463 38.2269 195.758C37.7789 197.846 33.7917 199.445 31.6637 199.306" fill="#8547C6"/>
<path d="M46.846 130.695C46.8519 130.756 46.8519 130.818 46.846 130.879C46.846 131.013 46.8057 131.188 46.7743 131.407C46.7026 131.855 46.622 132.554 46.4607 133.437C46.2994 134.319 45.8201 135.323 45.4482 136.524C45.0764 137.724 44.6642 139.109 44.3148 140.663C43.9653 142.218 43.6652 143.929 43.3516 145.775C43.038 147.621 42.693 149.632 41.7657 151.554C41.3177 152.517 40.8697 153.485 40.4933 154.511C40.1392 155.568 39.918 156.665 39.8348 157.777C39.6533 160.139 39.3437 162.49 38.9074 164.819C37.9532 169.586 37.0482 174.129 36.2194 178.259L33.9077 189.208C33.2402 192.309 32.6981 194.822 32.3218 196.582C32.1292 197.438 31.9813 198.11 31.8738 198.585L31.7529 199.105C31.7404 199.164 31.7224 199.223 31.6991 199.279C31.6941 199.22 31.6941 199.16 31.6991 199.1C31.726 198.966 31.7573 198.791 31.7932 198.572C31.8873 198.092 32.0172 197.42 32.1874 196.56C32.5413 194.795 33.0521 192.273 33.6793 189.164C34.3065 186.054 35.0815 182.323 35.9193 178.201L38.6073 164.761C39.0394 162.44 39.3489 160.099 39.5346 157.745C39.6207 156.61 39.8495 155.49 40.2156 154.412C40.5874 153.364 41.0757 152.392 41.5058 151.437C42.4287 149.547 42.7602 147.567 43.0962 145.725C43.4322 143.884 43.7324 142.141 44.1042 140.609C44.4761 139.077 44.8748 137.67 45.2825 136.47C45.6901 135.269 46.1516 134.27 46.3353 133.405C46.5189 132.541 46.6175 131.851 46.7071 131.394C46.7474 131.174 46.7833 131.004 46.8057 130.87C46.8144 130.811 46.8279 130.752 46.846 130.695Z" fill="#263238"/>
<path d="M161.068 119.199C162.008 118.929 162.83 118.352 163.404 117.561C163.978 116.769 164.27 115.808 164.235 114.831C164.182 113.935 163.854 113.102 163.89 112.224C163.949 110.88 164.854 109.711 165.534 108.528C166.215 107.345 166.668 105.791 165.875 104.68C165.364 103.958 164.455 103.636 163.832 103.009C163.209 102.381 162.936 101.544 162.605 100.742C162.273 99.9399 161.856 99.1111 161.104 98.6855C160.351 98.2599 159.2 98.4436 158.891 99.2544" fill="#263238"/>
<path d="M152.933 97.0995C154.277 96.2439 154.6 94.2682 153.869 92.857C153.139 91.4458 151.598 90.5856 150.03 90.3303C148.889 90.1568 147.723 90.2555 146.628 90.6183C145.533 90.9811 144.538 91.5978 143.727 92.4179C142.862 93.3139 142.159 94.4743 140.985 94.8819C139.955 95.2448 138.812 94.9178 137.728 95.0611C137.005 95.1919 136.32 95.4826 135.724 95.912C135.128 96.3415 134.636 96.8987 134.283 97.5431C133.589 98.8393 133.172 100.266 133.06 101.732C132.903 103.076 132.795 104.532 131.873 105.504C130.95 106.476 129.539 106.655 128.419 107.332C127.387 108.012 126.662 109.068 126.399 110.275C126.136 111.483 126.356 112.745 127.012 113.792C127.46 114.437 128.096 115.033 128.145 115.817C128.195 116.601 127.733 117.161 127.514 117.86C127.401 118.302 127.384 118.762 127.464 119.211C127.544 119.66 127.719 120.087 127.978 120.462C128.237 120.837 128.574 121.153 128.965 121.387C129.356 121.621 129.793 121.769 130.246 121.82C131.178 121.874 132.173 121.511 133.011 121.928C133.848 122.344 134.148 123.343 134.677 124.105C135.223 124.839 136.004 125.365 136.89 125.593C137.776 125.821 138.714 125.739 139.547 125.359C140.232 125.023 140.891 124.463 141.639 124.522C142.387 124.58 142.983 125.22 143.745 125.364C144.726 125.552 145.653 124.831 146.235 124.02C146.818 123.209 147.226 122.255 147.969 121.592C148.946 120.723 150.317 120.512 151.553 120.086C152.92 119.614 154.169 118.854 155.216 117.858C156.264 116.861 157.085 115.651 157.625 114.31C158.164 112.969 158.41 111.528 158.345 110.083C158.28 108.639 157.906 107.226 157.247 105.939" fill="#263238"/>
<path d="M155.904 98.8602C156.438 98.9184 156.931 99.1748 157.285 99.5787C157.639 99.9827 157.829 100.505 157.817 101.042L156.536 130.014C156.482 133.437 151.482 135.359 147.817 135.274C144.117 135.189 144 133.374 143.951 130.117C143.875 124.678 143.884 122.636 143.88 122.667C143.875 122.698 139.207 121.883 138.253 115.781C137.778 112.744 137.939 107.771 138.203 103.708C138.445 100.047 140.891 95.5629 144.525 95.9571L155.904 98.8602Z" fill="#FFBE9D"/>
<path d="M139.523 107.654C139.522 107.858 139.6 108.055 139.74 108.202C139.88 108.35 140.072 108.438 140.276 108.447C140.375 108.455 140.475 108.443 140.57 108.412C140.665 108.381 140.752 108.331 140.827 108.265C140.902 108.2 140.964 108.12 141.008 108.03C141.051 107.941 141.077 107.843 141.083 107.744C141.086 107.54 141.01 107.343 140.87 107.195C140.73 107.047 140.538 106.959 140.334 106.951C140.235 106.943 140.135 106.955 140.04 106.986C139.945 107.017 139.857 107.067 139.781 107.133C139.706 107.198 139.644 107.278 139.6 107.368C139.556 107.457 139.53 107.555 139.523 107.654Z" fill="#263238"/>
<path d="M139.255 106.297C139.354 106.4 139.945 105.961 140.787 105.965C141.63 105.97 142.243 106.391 142.337 106.288C142.431 106.185 142.284 106.06 142.015 105.862C141.651 105.609 141.217 105.474 140.774 105.477C140.336 105.474 139.909 105.61 139.555 105.867C139.295 106.064 139.206 106.252 139.255 106.297Z" fill="#263238"/>
<path d="M147.914 107.654C147.913 107.858 147.99 108.055 148.131 108.203C148.271 108.35 148.463 108.438 148.667 108.447C148.766 108.455 148.866 108.443 148.961 108.412C149.055 108.381 149.143 108.331 149.218 108.265C149.293 108.2 149.354 108.12 149.398 108.031C149.442 107.941 149.467 107.844 149.473 107.744C149.477 107.54 149.4 107.342 149.259 107.194C149.118 107.045 148.925 106.958 148.72 106.951C148.621 106.943 148.521 106.955 148.426 106.986C148.332 107.018 148.244 107.068 148.169 107.133C148.094 107.199 148.033 107.278 147.989 107.368C147.945 107.458 147.92 107.555 147.914 107.654Z" fill="#263238"/>
<path d="M147.531 106.472C147.629 106.575 148.22 106.136 149.063 106.14C149.905 106.145 150.519 106.588 150.613 106.463C150.707 106.337 150.559 106.234 150.29 106.037C149.926 105.783 149.493 105.649 149.049 105.652C148.612 105.65 148.186 105.787 147.831 106.042C147.571 106.243 147.481 106.427 147.531 106.472Z" fill="#263238"/>
<path d="M144.462 112.708C144.026 112.569 143.575 112.485 143.118 112.457C142.903 112.434 142.697 112.39 142.67 112.246C142.652 112.024 142.704 111.802 142.818 111.61C143.019 111.09 143.234 110.544 143.454 109.975C144.35 107.645 144.986 105.728 144.892 105.697C144.798 105.665 143.996 107.52 143.1 109.845C142.89 110.423 142.683 110.97 142.491 111.494C142.353 111.752 142.312 112.05 142.374 112.336C142.405 112.412 142.453 112.48 142.515 112.534C142.576 112.589 142.649 112.628 142.728 112.65C142.848 112.683 142.971 112.701 143.096 112.703C143.549 112.761 144.008 112.763 144.462 112.708Z" fill="#263238"/>
<path d="M143.855 122.667C146.728 122.718 149.558 121.972 152.031 120.512C152.031 120.512 149.962 124.813 143.855 124.226V122.667Z" fill="#EB996E"/>
<path d="M144.81 114.737C144.97 114.539 145.176 114.384 145.411 114.286C145.646 114.189 145.901 114.151 146.154 114.177C146.34 114.194 146.521 114.248 146.685 114.336C146.849 114.425 146.993 114.546 147.109 114.693C147.219 114.834 147.284 115.005 147.296 115.184C147.308 115.363 147.266 115.541 147.176 115.696C147.039 115.846 146.861 115.953 146.664 116.002C146.468 116.051 146.26 116.042 146.069 115.974C145.673 115.83 145.308 115.611 144.994 115.329C144.902 115.259 144.821 115.174 144.757 115.078C144.726 115.031 144.709 114.977 144.709 114.921C144.709 114.865 144.726 114.811 144.757 114.764" fill="#8547C6"/>
<path d="M146.944 113.295C146.805 113.295 146.801 114.191 146.017 114.849C145.233 115.508 144.26 115.391 144.256 115.521C144.256 115.575 144.471 115.696 144.883 115.709C145.418 115.72 145.939 115.539 146.353 115.199C146.752 114.876 147.009 114.409 147.069 113.9C147.101 113.519 146.998 113.29 146.944 113.295Z" fill="#263238"/>
<path d="M147.155 104.998C147.235 105.226 148.078 105.119 149.063 105.24C150.049 105.361 150.855 105.634 150.981 105.428C151.043 105.329 150.905 105.114 150.582 104.89C150.152 104.62 149.666 104.45 149.161 104.393C148.656 104.336 148.145 104.395 147.666 104.563C147.303 104.707 147.119 104.89 147.155 104.998Z" fill="#263238"/>
<path d="M139.569 103.86C139.717 104.052 140.299 103.86 140.994 103.86C141.688 103.86 142.284 103.99 142.418 103.793C142.481 103.694 142.387 103.501 142.127 103.322C141.782 103.103 141.379 102.992 140.97 103.004C140.561 103.016 140.165 103.15 139.833 103.389C139.587 103.569 139.506 103.766 139.569 103.86Z" fill="#263238"/>
<path d="M151.872 96.8756C152.567 96.3891 153.358 96.0573 154.192 95.9027C155.026 95.7482 155.883 95.7744 156.706 95.9796C158.333 96.4276 159.681 97.9149 159.739 99.5636C159.775 100.639 159.291 101.804 159.789 102.758C160.286 103.712 161.361 104.057 162.158 104.729C162.77 105.263 163.184 105.986 163.337 106.784C163.49 107.581 163.371 108.406 163.001 109.128C162.333 110.351 160.935 111.247 160.819 112.627C160.707 113.926 161.8 115.024 162.069 116.301C162.36 117.708 161.581 119.164 160.465 120.1C159.349 121.036 157.934 121.551 156.554 122.044C155.479 122.434 154.314 122.828 153.207 122.573C152.554 122.397 151.967 122.032 151.52 121.524C151.074 121.015 150.788 120.386 150.699 119.715C150.632 119.046 150.711 118.37 150.93 117.735C151.149 117.099 151.502 116.518 151.966 116.032C152.75 115.167 153.853 114.437 154.041 113.295C154.332 111.503 152.217 110.065 152.347 108.273C152.414 107.35 153.069 106.584 153.611 105.822C154.153 105.061 154.628 104.106 154.292 103.242C153.844 102.113 152.379 101.817 151.483 101.002C151.113 100.654 150.848 100.211 150.716 99.7211C150.583 99.2314 150.59 98.7147 150.734 98.2285C150.897 97.7429 151.19 97.3108 151.579 96.9785C151.969 96.6463 152.442 96.4264 152.948 96.3424" fill="#263238"/>
<path d="M152.53 95.5001C152.533 96.1137 152.401 96.7203 152.142 97.2768C151.884 97.8333 151.506 98.3259 151.035 98.7196C150.565 99.1132 150.013 99.3981 149.42 99.5541C148.826 99.71 148.206 99.7331 147.602 99.6217C146.671 99.4515 145.649 98.9811 144.843 99.4784C144.036 99.9757 143.947 101.27 143.208 101.929C142.132 102.865 140.425 101.987 139.059 102.377C138.006 102.691 137.348 103.694 136.644 104.545C135.941 105.396 134.897 106.198 133.84 105.889C133.872 104.938 134.013 103.994 134.261 103.076C134.513 102.152 135.077 101.343 135.856 100.787C136.317 100.547 136.765 100.283 137.2 99.9981C138.096 99.2947 138.28 98.0627 138.817 97.0771C139.173 96.4427 139.674 95.902 140.28 95.5C140.887 95.098 141.58 94.8462 142.303 94.7654C143.503 94.6445 144.74 95.0029 145.887 94.7072C146.751 94.4921 147.508 93.9321 148.382 93.7619C150.089 93.4393 151.675 94.6579 152.911 95.8809" fill="#263238"/>
<path d="M163.671 110.083C163.783 109.866 163.832 109.622 163.81 109.379C163.755 109.053 163.611 108.749 163.393 108.5C163.176 108.251 162.894 108.067 162.578 107.968C162.14 107.813 161.691 107.692 161.234 107.605C160.689 107.506 160.171 107.292 159.715 106.978C159.472 106.781 159.275 106.533 159.139 106.251C159.002 105.969 158.93 105.66 158.927 105.347C158.92 104.707 158.952 104.066 159.021 103.43C159.039 103.115 159.022 102.8 158.972 102.489C158.913 102.198 158.79 101.925 158.613 101.687C158.212 101.274 157.703 100.982 157.144 100.845C156.619 100.695 156.117 100.478 155.648 100.2C155.239 99.9551 154.868 99.6533 154.545 99.3037C154.074 98.8023 153.708 98.2111 153.47 97.5654C153.402 97.3927 153.35 97.2143 153.313 97.0323C153.287 96.9069 153.278 96.8441 153.287 96.8397C153.296 96.8352 153.367 97.095 153.551 97.5341C153.881 98.2993 154.383 98.9782 155.017 99.5182C155.652 100.058 156.403 100.445 157.211 100.648C157.811 100.79 158.359 101.101 158.788 101.544C158.99 101.808 159.131 102.114 159.2 102.44C159.254 102.768 159.272 103.102 159.254 103.434C159.187 104.064 159.154 104.696 159.155 105.329C159.155 105.612 159.217 105.891 159.337 106.146C159.457 106.402 159.632 106.628 159.85 106.808C160.279 107.106 160.766 107.312 161.279 107.412C161.737 107.51 162.186 107.643 162.623 107.811C162.999 107.955 163.328 108.2 163.573 108.519C163.751 108.765 163.858 109.054 163.882 109.357C163.894 109.549 163.855 109.74 163.77 109.912C163.729 110.038 163.676 110.087 163.671 110.083Z" fill="#455A64"/>
<path d="M127.746 113.891L127.643 113.841C127.551 113.783 127.473 113.705 127.415 113.613C127.33 113.418 127.297 113.205 127.319 112.994C127.341 112.783 127.417 112.581 127.54 112.408C127.692 112.139 127.92 111.921 128.194 111.781C128.512 111.623 128.84 111.485 129.175 111.368C129.552 111.243 129.9 111.045 130.201 110.786C130.507 110.467 130.711 110.065 130.788 109.63C130.887 109.182 130.918 108.671 131.003 108.152C131.067 107.594 131.276 107.063 131.608 106.611C132.316 105.679 133.481 105.181 134.35 104.303C134.784 103.842 135.11 103.289 135.304 102.686C135.511 102.05 135.661 101.396 135.752 100.733C135.94 99.3888 136.133 97.8925 137.033 96.665C137.472 96.0481 138.131 95.6231 138.875 95.4778C139.58 95.3771 140.298 95.3937 140.998 95.5271C141.652 95.6537 142.319 95.6929 142.983 95.6435C143.607 95.5712 144.184 95.2733 144.605 94.8058C145.438 93.9098 145.913 92.7002 146.939 92.0819C147.396 91.8031 147.905 91.6215 148.435 91.5482C148.966 91.475 149.505 91.5118 150.021 91.6563C150.875 91.8994 151.601 92.4649 152.046 93.2333C152.382 93.8042 152.564 94.4525 152.574 95.1149C152.587 95.5295 152.521 95.9428 152.382 96.3335C152.335 96.4712 152.274 96.6034 152.198 96.7277C152.198 96.7277 152.252 96.5888 152.337 96.32C152.454 95.9311 152.504 95.5251 152.485 95.1194C152.459 94.4767 152.271 93.8509 151.938 93.3005C151.5 92.5713 150.797 92.0399 149.976 91.8176C149.482 91.6873 148.967 91.6598 148.462 91.7369C147.958 91.814 147.474 91.9939 147.042 92.2656C146.572 92.5882 146.172 93.0009 145.863 93.4797C145.529 94.0008 145.161 94.4992 144.761 94.9715C144.536 95.2168 144.273 95.4241 143.982 95.5853C143.678 95.7408 143.349 95.8423 143.01 95.8855C142.327 95.9377 141.64 95.9001 140.967 95.7735C140.292 95.6435 139.6 95.6253 138.919 95.7197C138.234 95.8583 137.627 96.2523 137.221 96.8218C136.813 97.3992 136.517 98.0481 136.348 98.7347C136.186 99.4113 136.062 100.096 135.976 100.787C135.887 101.462 135.737 102.128 135.528 102.776C135.322 103.409 134.976 103.988 134.516 104.469C133.597 105.365 132.446 105.867 131.774 106.749C131.459 107.174 131.258 107.672 131.191 108.197C131.106 108.707 131.07 109.209 130.958 109.684C130.874 110.149 130.649 110.578 130.313 110.911C129.996 111.18 129.629 111.382 129.234 111.507C128.9 111.617 128.574 111.747 128.257 111.897C127.998 112.025 127.781 112.224 127.63 112.47C127.511 112.632 127.434 112.821 127.406 113.019C127.378 113.218 127.399 113.42 127.469 113.608C127.542 113.719 127.637 113.815 127.746 113.891Z" fill="#455A64"/>
<path d="M112.779 155.904L123.598 154.914C123.598 154.914 130.255 137.375 138.463 133.123L143.78 142.41L132.397 163.793H110.176L112.779 155.904Z" fill="#8547C6"/>
<path opacity="0.3" d="M112.779 155.904L123.598 154.914C123.598 154.914 130.255 137.375 138.463 133.123L143.78 142.41L132.397 163.793H110.176L112.779 155.904Z" fill="black"/>
<path d="M117.053 160.832C117.587 159.625 118.267 158.487 119.078 157.445C118.536 158.649 117.856 159.785 117.053 160.832Z" fill="#FAFAFA"/>
<path d="M124.718 160.621C123.779 159.702 122.952 158.675 122.254 157.562C122.754 157.989 123.198 158.478 123.575 159.018C124.017 159.506 124.4 160.044 124.718 160.621Z" fill="#FAFAFA"/>
<path d="M126.048 156.603C125.893 155.662 125.893 154.703 126.048 153.763C126.203 154.703 126.203 155.662 126.048 156.603Z" fill="#FAFAFA"/>
<path d="M122.241 162.87C121.863 162.765 121.511 162.584 121.206 162.337C120.668 161.983 120.265 161.656 120.31 161.603C120.687 161.713 121.038 161.896 121.345 162.14C121.856 162.49 122.277 162.817 122.241 162.87Z" fill="#FAFAFA"/>
<path d="M128.453 146.751C128.275 147.428 128.025 148.083 127.705 148.705C127.455 149.358 127.133 149.981 126.746 150.564C126.918 149.886 127.168 149.231 127.49 148.611C127.742 147.958 128.065 147.334 128.453 146.751Z" fill="#FAFAFA"/>
<path d="M132.84 139.646C132.876 139.695 132.49 140.054 131.975 140.448C131.682 140.716 131.34 140.924 130.967 141.062C130.931 141.008 131.317 140.65 131.832 140.26C132.124 139.99 132.466 139.781 132.84 139.646Z" fill="#FAFAFA"/>
<path d="M149.021 162.387L154.604 139.848C155.07 137.957 156.24 136.314 157.874 135.255C159.509 134.196 161.485 133.799 163.402 134.145C165.371 134.501 167.123 135.612 168.285 137.241C169.447 138.871 169.926 140.89 169.621 142.867L166.207 164.895C165.799 167.15 164.699 169.221 163.059 170.822C161.42 172.422 159.322 173.471 157.059 173.824L152.623 174.514L149.021 162.387Z" fill="#8547C6"/>
<path d="M166.61 132.689C166.028 132.212 165.347 131.871 164.616 131.69C163.826 131.506 163.005 131.506 162.215 131.69C161.253 131.932 160.36 132.392 159.603 133.034C157.968 134.404 157.081 136.17 156.467 137.433C156.167 138.065 155.938 138.584 155.777 138.943C155.703 139.134 155.611 139.319 155.504 139.494C155.548 139.294 155.611 139.099 155.692 138.911C155.831 138.54 156.033 138.015 156.315 137.361C156.646 136.602 157.029 135.867 157.462 135.162C157.999 134.294 158.669 133.516 159.446 132.854C160.227 132.183 161.156 131.706 162.157 131.461C162.978 131.274 163.832 131.285 164.648 131.493C165.196 131.633 165.71 131.882 166.162 132.223C166.282 132.316 166.395 132.42 166.498 132.532C166.578 132.644 166.614 132.684 166.61 132.689Z" fill="#263238"/>
<path d="M134.995 137.76C134.951 137.836 134.898 137.906 134.838 137.971L134.363 138.544C133.947 139.041 133.36 139.767 132.688 140.703C130.902 143.126 129.607 145.875 128.875 148.794C128.1 152.23 128.06 155.447 127.93 157.754C127.872 158.91 127.818 159.846 127.769 160.492C127.742 160.796 127.719 161.043 127.702 161.235C127.696 161.323 127.684 161.409 127.666 161.495C127.653 161.409 127.653 161.321 127.666 161.235C127.666 161.038 127.666 160.787 127.688 160.487C127.688 159.811 127.737 158.883 127.773 157.75C127.863 155.447 127.872 152.217 128.669 148.745C129.401 145.797 130.729 143.029 132.571 140.614C133.266 139.682 133.875 138.965 134.31 138.486C134.525 138.244 134.704 138.065 134.82 137.944C134.873 137.877 134.931 137.816 134.995 137.76Z" fill="#263238"/>
<path d="M170.755 137.711C170.141 133.679 167.919 132.716 165.612 131.461C164.859 131.049 161.226 130.117 158.345 129.414C158.067 127.671 157.574 124.544 157.449 123.886C157.297 122.958 142.773 125.274 142.589 125.624C142.468 125.852 142.141 129.472 141.921 131.896L138.445 133.11L133.925 138.88L131.564 142.231C130.172 144.164 129.178 146.354 128.638 148.673C128.131 151.242 127.913 153.86 127.989 156.477L127.285 171.261L157.695 179.854L160.025 164.864L167.865 154.193C168.533 149.878 171.507 142.666 170.755 137.711Z" fill="#8547C6"/>
<path d="M144.82 132.348C144.714 132.015 144.646 131.671 144.618 131.322C144.524 130.686 144.408 129.804 144.296 128.827C144.242 128.343 144.193 127.882 144.143 127.447C144.097 127.069 144.07 126.69 144.063 126.309C144.059 126.041 144.135 125.777 144.282 125.552C144.399 125.4 144.497 125.359 144.506 125.368C144.515 125.377 144.439 125.449 144.358 125.601C144.257 125.823 144.212 126.066 144.228 126.309C144.228 126.623 144.309 126.999 144.358 127.425C144.408 127.85 144.466 128.321 144.529 128.8C144.641 129.777 144.73 130.664 144.784 131.304C144.836 131.65 144.848 132 144.82 132.348Z" fill="#263238"/>
<path d="M148.695 131.434C148.544 131.137 148.436 130.821 148.373 130.494C147.967 128.942 147.816 127.335 147.925 125.736C147.928 125.404 147.976 125.074 148.068 124.755C148.14 124.755 148.01 126.264 148.185 128.11C148.359 129.956 148.767 131.416 148.695 131.434Z" fill="#263238"/>
<path d="M155.903 130.368C155.995 129.254 155.966 128.134 155.818 127.026C155.589 125.931 155.237 124.866 154.77 123.85C154.995 124.099 155.175 124.385 155.303 124.696C156.017 126.153 156.3 127.784 156.118 129.396C156.097 129.729 156.025 130.057 155.903 130.368Z" fill="#263238"/>
<path d="M135.295 143.566C135.987 142.247 136.887 141.047 137.961 140.013C137.13 141.24 136.241 142.426 135.295 143.566Z" fill="#FAFAFA"/>
<path d="M142.119 137.984C141.25 137.111 140.497 136.129 139.879 135.063C140.335 135.476 140.739 135.942 141.084 136.452C141.492 136.917 141.84 137.432 142.119 137.984Z" fill="#FAFAFA"/>
<path d="M149.267 134.499C148.83 135.018 148.352 135.502 147.838 135.946C147.38 136.447 146.884 136.912 146.355 137.339C146.716 136.756 147.161 136.231 147.677 135.78C148.139 135.274 148.675 134.842 149.267 134.499Z" fill="#FAFAFA"/>
<path d="M147.262 130.234C146.845 130.015 146.468 129.727 146.147 129.382C145.772 129.093 145.447 128.745 145.184 128.352C145.6 128.576 145.978 128.865 146.304 129.208C146.677 129.495 147.001 129.842 147.262 130.234Z" fill="#FAFAFA"/>
<path d="M153.529 126.891C153.051 127.115 152.542 127.266 152.019 127.339C151.514 127.485 150.991 127.558 150.465 127.555C150.942 127.333 151.449 127.182 151.97 127.107C152.477 126.96 153.002 126.888 153.529 126.891Z" fill="#FAFAFA"/>
<path d="M154.783 136.815C154.639 136.306 154.572 135.779 154.586 135.251C154.521 134.728 154.533 134.198 154.621 133.679C154.765 134.187 154.832 134.714 154.819 135.242C154.883 135.765 154.871 136.295 154.783 136.815Z" fill="#FAFAFA"/>
<path d="M152.497 141.568C152.166 141.004 151.901 140.402 151.709 139.776C151.449 139.168 151.26 138.532 151.145 137.881C151.734 139.06 152.185 140.303 152.489 141.586L152.497 141.568Z" fill="#FAFAFA"/>
<path d="M146.288 144.95C145.932 144.353 145.643 143.717 145.428 143.055C145.138 142.421 144.921 141.755 144.783 141.071C145.137 141.671 145.426 142.308 145.643 142.97C145.93 143.605 146.147 144.269 146.288 144.95Z" fill="#FAFAFA"/>
<path d="M140.447 148.763C140.034 147.533 139.772 146.257 139.668 144.964C139.909 145.567 140.078 146.198 140.17 146.841C140.338 147.468 140.431 148.114 140.447 148.763Z" fill="#FAFAFA"/>
<path d="M133.503 148.915C132.812 147.845 132.253 146.696 131.836 145.493C132.526 146.563 133.086 147.712 133.503 148.915Z" fill="#FAFAFA"/>
<path d="M133.355 153.368C132.786 153.773 132.176 154.117 131.536 154.394C130.926 154.739 130.28 155.014 129.609 155.214C130.177 154.805 130.789 154.459 131.433 154.184C132.041 153.841 132.686 153.568 133.355 153.368Z" fill="#FAFAFA"/>
<path d="M133.44 160.411C133.136 159.907 132.922 159.353 132.809 158.776C132.62 158.221 132.531 157.637 132.544 157.051C132.759 157.59 132.923 158.148 133.033 158.717C133.221 159.268 133.358 159.835 133.44 160.411Z" fill="#FAFAFA"/>
<path d="M132.002 165.357C131.471 165.021 130.981 164.624 130.542 164.174C130.052 163.783 129.614 163.332 129.238 162.83C129.769 163.166 130.259 163.563 130.699 164.013C131.189 164.404 131.627 164.855 132.002 165.357Z" fill="#FAFAFA"/>
<path d="M141.151 161.979C141.151 162.046 140.139 162.342 138.938 162.875C137.737 163.408 136.824 163.955 136.783 163.896C137.395 163.37 138.092 162.952 138.844 162.66C139.568 162.301 140.349 162.071 141.151 161.979Z" fill="#FAFAFA"/>
<path d="M138.476 159.528C138.187 159.048 137.966 158.531 137.817 157.992C137.593 157.479 137.442 156.938 137.369 156.383C137.657 156.861 137.877 157.377 138.023 157.915C138.25 158.429 138.402 158.972 138.476 159.528Z" fill="#FAFAFA"/>
<path d="M143.902 153.471C143.564 154.23 143.154 154.954 142.679 155.635C142.269 156.365 141.792 157.055 141.254 157.696C142.005 156.217 142.891 154.81 143.902 153.494V153.471Z" fill="#FAFAFA"/>
<path d="M149.733 154.049C149.143 153.445 148.641 152.76 148.242 152.015C147.775 151.312 147.407 150.548 147.148 149.744C147.211 149.717 147.731 150.712 148.443 151.899C149.155 153.086 149.787 154.013 149.733 154.049Z" fill="#FAFAFA"/>
<path d="M153.215 148.288C152.672 148.501 152.091 148.604 151.508 148.593C150.93 148.66 150.344 148.615 149.783 148.458C150.352 148.383 150.925 148.35 151.499 148.36C152.069 148.295 152.642 148.271 153.215 148.288Z" fill="#FAFAFA"/>
<path d="M161.517 141.743C160.095 142.598 158.595 143.315 157.037 143.884C158.461 143.034 159.961 142.317 161.517 141.743Z" fill="#FAFAFA"/>
<path d="M162.066 137.576C162.523 136.317 163.125 135.114 163.858 133.992C163.669 134.635 163.404 135.253 163.07 135.834C162.803 136.451 162.466 137.036 162.066 137.576Z" fill="#FAFAFA"/>
<path d="M167.336 140.847C167.06 140.184 166.833 139.503 166.655 138.808C166.405 138.137 166.205 137.448 166.055 136.748C166.724 138.026 167.158 139.415 167.336 140.847Z" fill="#FAFAFA"/>
<path d="M168.165 145.183C167.55 145.52 166.887 145.761 166.199 145.9C165.529 146.113 164.831 146.22 164.129 146.218C164.786 145.992 165.458 145.811 166.14 145.676C166.803 145.466 167.48 145.301 168.165 145.183Z" fill="#FAFAFA"/>
<path d="M159.133 150.479C159.066 150.479 159.259 149.377 159.312 148.019C159.366 146.662 159.277 145.56 159.344 145.551C159.551 146.359 159.619 147.197 159.545 148.028C159.55 148.863 159.41 149.692 159.133 150.479Z" fill="#FAFAFA"/>
<path d="M157.332 155.931C156.127 154.976 155.135 153.78 154.42 152.419C154.478 152.383 155.07 153.212 155.876 154.179C156.392 154.737 156.878 155.322 157.332 155.931Z" fill="#FAFAFA"/>
<path d="M166.386 154.78C165.8 155.149 165.173 155.449 164.518 155.676C163.893 155.977 163.236 156.208 162.561 156.365C163.773 155.693 165.056 155.157 166.386 154.766V154.78Z" fill="#FAFAFA"/>
<path d="M163.144 165.039C163.008 163.398 163.024 161.748 163.193 160.111C163.335 161.751 163.318 163.401 163.144 165.039Z" fill="#FAFAFA"/>
<path d="M156.195 164.447C156.308 162.733 156.729 161.053 157.436 159.488C157.499 159.51 157.159 160.599 156.818 161.965C156.478 163.332 156.263 164.461 156.195 164.447Z" fill="#FAFAFA"/>
<path d="M156.512 167.14C156.512 167.207 155.401 167.315 154.039 167.543C152.677 167.772 151.584 168.023 151.566 167.955C152.344 167.629 153.162 167.412 153.999 167.31C154.825 167.135 155.671 167.077 156.512 167.14Z" fill="#FAFAFA"/>
<path d="M148.824 165.415C149.214 164.852 149.664 164.333 150.168 163.869C150.612 163.353 151.114 162.89 151.665 162.49C151.275 163.053 150.824 163.571 150.321 164.035C149.875 164.55 149.373 165.013 148.824 165.415Z" fill="#FAFAFA"/>
<path d="M143.847 170.24C143.61 169.669 143.408 169.084 143.242 168.488C142.999 167.919 142.79 167.335 142.615 166.741C143.326 167.779 143.751 168.986 143.847 170.24Z" fill="#FAFAFA"/>
<path d="M151.871 173.027C150.343 172.52 148.868 171.866 147.467 171.073C148.239 171.291 148.989 171.582 149.707 171.942C150.46 172.236 151.184 172.599 151.871 173.027Z" fill="#FAFAFA"/>
<path d="M137.875 172.216C137.938 171.652 138.08 171.1 138.296 170.576C138.438 170.028 138.653 169.502 138.937 169.012C138.873 169.576 138.732 170.128 138.516 170.652C138.371 171.199 138.155 171.724 137.875 172.216Z" fill="#FAFAFA"/>
<path d="M147.103 173.779C147.103 173.846 145.818 173.64 144.232 173.56C142.646 173.479 141.36 173.56 141.355 173.47C142.307 173.285 143.28 173.237 144.245 173.327C145.215 173.339 146.177 173.492 147.103 173.779Z" fill="#FAFAFA"/>
<path d="M149.022 160.568C149.013 160.508 149.013 160.448 149.022 160.389C149.021 160.217 149.047 160.046 149.098 159.882C149.168 159.606 149.341 159.367 149.582 159.215C149.912 159.024 150.301 158.96 150.675 159.036L150.586 159.089C151.074 157.369 151.858 154.86 152.642 152.047C153.377 149.413 153.874 146.989 154.219 145.228C154.389 144.382 154.523 143.678 154.631 143.145C154.671 142.889 154.73 142.636 154.806 142.388C154.8 142.648 154.772 142.908 154.721 143.163C154.649 143.66 154.532 144.377 154.38 145.26C153.992 147.567 153.487 149.853 152.866 152.11C152.082 154.927 151.271 157.427 150.733 159.134L150.711 159.201H150.644C150.305 159.124 149.951 159.172 149.645 159.336C149.422 159.468 149.255 159.677 149.174 159.923C149.026 160.317 149.053 160.572 149.022 160.568Z" fill="#263238"/>
<path d="M159.065 166.799C159.03 166.799 158.752 166.208 158.169 165.303C156.676 162.941 154.571 161.027 152.077 159.766C151.122 159.286 150.491 159.067 150.504 159.027C150.657 159.051 150.807 159.091 150.952 159.148C151.357 159.279 151.754 159.436 152.139 159.618C154.715 160.815 156.865 162.769 158.304 165.218C158.52 165.585 158.713 165.965 158.882 166.356C158.966 166.493 159.028 166.643 159.065 166.799Z" fill="#263238"/>
<g opacity="0.2">
<path opacity="0.2" d="M150.774 158.7C152.383 158.74 153.975 159.028 155.496 159.555C157.104 160.156 158.591 161.311 159.183 162.924C159.279 163.106 159.322 163.311 159.307 163.517C159.292 163.722 159.219 163.919 159.098 164.085C158.983 164.183 158.843 164.248 158.694 164.273C158.545 164.297 158.391 164.28 158.251 164.223C157.971 164.106 157.717 163.932 157.507 163.713C156.522 162.817 155.496 161.992 154.479 161.114C153.462 160.236 151.975 159.322 150.648 159.112" fill="black"/>
</g>
<path d="M147.544 155.841C147.407 155.95 147.257 156.04 147.096 156.11C146.655 156.326 146.195 156.5 145.721 156.63C144.145 157.079 142.477 157.099 140.89 156.687C139.304 156.275 137.856 155.446 136.698 154.287C136.349 153.941 136.031 153.565 135.748 153.162C135.637 153.026 135.543 152.875 135.471 152.714C135.507 152.687 135.919 153.341 136.815 154.184C137.978 155.283 139.401 156.07 140.95 156.473C142.499 156.875 144.125 156.88 145.676 156.486C146.845 156.173 147.522 155.796 147.544 155.841Z" fill="#263238"/>
<g opacity="0.2">
<path opacity="0.2" d="M135.689 153.046C136.447 154.685 137.329 156.339 138.763 157.441C139.555 158.125 140.546 158.54 141.59 158.623C143.086 158.65 144.372 157.629 145.514 156.661C141.814 157.244 137.647 155.564 135.689 153.046Z" fill="black"/>
</g>
<path d="M152.258 131.094C152.186 131.094 152.258 129.553 152.087 127.675C151.917 125.798 151.536 124.306 151.604 124.289C151.751 124.594 151.855 124.918 151.913 125.252C152.106 126.041 152.241 126.844 152.316 127.653C152.396 128.463 152.417 129.277 152.379 130.09C152.382 130.429 152.342 130.766 152.258 131.094Z" fill="#263238"/>
<path d="M99.1146 191.045C99.1146 191.045 94.2449 192.098 89.8993 191.444C85.8225 190.835 76.6967 191.466 76.7012 196.82C76.7012 202.81 88.8733 201.331 93.6177 200.381C98.362 199.432 103.093 198.589 103.093 198.589L99.1146 191.045Z" fill="#8547C6"/>
<path d="M88.1835 198.719C87.9158 198.047 87.7191 197.349 87.5967 196.636C87.4018 195.939 87.2816 195.222 87.2383 194.499C87.4999 195.172 87.6906 195.87 87.8072 196.582C88.0082 197.279 88.1343 197.996 88.1835 198.719Z" fill="#263238"/>
<path d="M89.8453 198.8C89.4931 197.389 89.2948 195.944 89.2539 194.49C89.4675 195.186 89.6057 195.902 89.6661 196.627C89.8012 197.343 89.8613 198.071 89.8453 198.8Z" fill="#263238"/>
<path d="M91.4495 198.173C91.2617 197.566 91.1473 196.939 91.109 196.305C90.9928 195.68 90.9552 195.043 90.997 194.41C91.2979 195.641 91.4484 196.905 91.445 198.173H91.4495Z" fill="#263238"/>
<path d="M93.967 197.568C93.6553 197.08 93.4437 196.535 93.3442 195.964C93.1694 195.41 93.1084 194.827 93.165 194.248C93.3363 194.791 93.471 195.345 93.5682 195.906C93.7403 196.45 93.8736 197.005 93.967 197.568Z" fill="#263238"/>
<path d="M94.526 195.355C94.7344 195.307 94.9491 195.292 95.1622 195.31C95.7454 195.33 96.3217 195.444 96.869 195.646C97.0583 195.713 97.2365 195.808 97.3977 195.928C97.4925 195.998 97.571 196.087 97.6275 196.19C97.684 196.293 97.7172 196.407 97.7247 196.524C97.7147 196.653 97.6768 196.779 97.6136 196.892C97.5503 197.005 97.4634 197.103 97.3586 197.179C97.2538 197.255 97.1338 197.308 97.0067 197.333C96.8797 197.359 96.7486 197.356 96.6226 197.326C96.1081 197.185 95.6593 196.868 95.3548 196.43C94.8491 195.778 94.5595 194.984 94.5266 194.159C94.4937 193.334 94.719 192.52 95.1711 191.829C95.2627 191.718 95.3889 191.641 95.5295 191.61C95.6028 191.6 95.6773 191.607 95.7478 191.629C95.8182 191.652 95.8829 191.689 95.9372 191.74C96.1099 191.917 96.2173 192.147 96.2418 192.394C96.2971 192.799 96.2758 193.21 96.1791 193.608C96.0452 194.184 95.7607 194.714 95.3548 195.144C95.2477 195.262 95.1291 195.368 95.0009 195.462C94.9582 195.499 94.9097 195.527 94.8575 195.548C94.8575 195.548 95.0278 195.395 95.3055 195.1C95.6684 194.662 95.919 194.142 96.0358 193.585C96.1166 193.207 96.1272 192.816 96.0671 192.434C96.0443 192.236 95.9578 192.05 95.8207 191.905C95.7859 191.876 95.7451 191.855 95.7013 191.843C95.6575 191.832 95.6116 191.829 95.5669 191.837C95.5222 191.845 95.4797 191.862 95.4423 191.888C95.4049 191.913 95.3735 191.947 95.3503 191.986C94.9413 192.64 94.7414 193.404 94.7774 194.175C94.8135 194.945 95.0836 195.687 95.5519 196.3C95.8195 196.701 96.2188 196.996 96.6809 197.133C96.7766 197.158 96.8765 197.163 96.974 197.146C97.0715 197.13 97.1644 197.093 97.2465 197.038C97.3286 196.983 97.3982 196.911 97.4505 196.827C97.5028 196.743 97.5367 196.649 97.55 196.551C97.5427 196.463 97.5166 196.377 97.4733 196.3C97.43 196.222 97.3706 196.155 97.2991 196.103C97.1572 195.99 96.9985 195.899 96.8287 195.834C96.2994 195.624 95.7427 195.491 95.1756 195.44C94.7321 195.364 94.526 195.373 94.526 195.355Z" fill="#263238"/>
<path d="M102.614 197.797L102.493 197.837L102.125 197.926L100.714 198.249C99.4866 198.518 97.7035 198.899 95.4904 199.324C93.2773 199.75 90.6341 200.22 87.6683 200.637C86.1157 200.892 84.5393 200.972 82.9688 200.874C82.1329 200.818 81.307 200.66 80.5093 200.404C80.0995 200.265 79.7035 200.088 79.3266 199.875C78.9327 199.664 78.5817 199.382 78.2917 199.042C78.1295 198.893 77.9878 198.722 77.8706 198.536C77.642 198.143 77.5016 197.705 77.4591 197.252C77.4165 196.8 77.4729 196.344 77.6242 195.915C77.9173 195.088 78.4625 194.373 79.1832 193.872C79.8616 193.394 80.6096 193.024 81.4008 192.774C81.7906 192.662 82.1669 192.528 82.5522 192.443C82.9375 192.358 83.3183 192.264 83.6991 192.21C86.7499 191.731 89.5231 191.973 91.8347 191.973C92.9906 191.995 94.0344 191.973 94.9483 191.91C95.7297 191.854 96.5073 191.755 97.2779 191.614L98.1202 191.435L98.725 191.265L99.0968 191.162C99.1387 191.147 99.1824 191.138 99.2268 191.135C99.2268 191.135 99.1864 191.157 99.1058 191.184L98.7384 191.309L98.1381 191.502L97.3004 191.704C96.5263 191.86 95.744 191.972 94.9573 192.04C94.0389 192.107 92.9906 192.152 91.8213 192.138C89.5096 192.161 86.7365 191.932 83.7259 192.421C83.3496 192.474 82.9778 192.577 82.597 192.658C82.2162 192.739 81.8488 192.877 81.4635 192.985C80.6943 193.228 79.9674 193.59 79.3087 194.056C78.6279 194.53 78.1125 195.205 77.8347 195.987C77.6959 196.383 77.6441 196.805 77.6827 197.223C77.7214 197.641 77.8496 198.046 78.0587 198.41C78.1657 198.575 78.2937 198.726 78.4395 198.858C78.7133 199.168 79.0393 199.427 79.4027 199.624C79.7652 199.83 80.1462 200.001 80.5407 200.135C81.3212 200.382 82.1292 200.533 82.9464 200.583C84.5013 200.681 86.0623 200.607 87.6011 200.364C90.5579 199.974 93.2056 199.503 95.4188 199.1C97.6319 198.697 99.4194 198.339 100.656 198.097L102.076 197.819L102.443 197.752C102.503 197.754 102.561 197.77 102.614 197.797Z" fill="#263238"/>
<path d="M84.8106 200.704C84.7374 200.293 84.6969 199.876 84.6896 199.459C84.6359 198.692 84.5463 197.631 84.3895 196.47C84.2327 195.31 84.0445 194.262 83.8922 193.505C83.7877 193.101 83.7173 192.688 83.6816 192.273C83.8482 192.657 83.9729 193.058 84.0535 193.469C84.298 194.448 84.488 195.439 84.6224 196.439C84.7543 197.438 84.8321 198.443 84.8554 199.45C84.8837 199.868 84.8687 200.288 84.8106 200.704Z" fill="#263238"/>
<path opacity="0.4" d="M97.6133 191.305L100.7 199.033L103.092 198.589L98.5093 191.045L97.6133 191.305Z" fill="black"/>
<path d="M137.826 170.124C137.328 170.285 105.444 161.352 92.5506 157.727C90.8766 157.256 89.1212 157.147 87.4016 157.407C85.6819 157.667 84.0376 158.291 82.5781 159.237L82.4213 159.336C80.3046 160.705 78.6621 162.694 77.7184 165.031C76.7746 167.368 76.5755 169.94 77.1484 172.395C77.5162 173.976 78.1943 175.468 79.1433 176.784C80.0923 178.101 81.2933 179.216 82.6767 180.065C91.1887 185.275 109.176 196.233 109.727 196.018C110.448 195.74 132.92 195.158 132.92 195.158L105.883 175.71L118.745 184.025L137.826 170.137V170.124Z" fill="#263238"/>
<path d="M111.206 160.42L117.985 156.912L124.633 161.078L149.515 161.894L153.099 173.99L117.08 165.639C117.08 165.639 110.525 166.221 110.033 164.743C109.54 163.265 111.206 160.42 111.206 160.42Z" fill="#FFBE9D"/>
<path d="M131.593 179.836L128.242 190.848L128.659 194.204C131.61 197.177 135.543 198.972 139.723 199.253C143.902 199.534 148.041 198.282 151.363 195.731C153.423 194.15 155.09 192.114 156.234 189.783C157.377 187.452 157.968 184.888 157.958 182.291L157.909 170.796L131.593 179.836Z" fill="#263238"/>
<path d="M111.641 179.908C111.605 179.957 107.716 177.121 102.958 173.573C98.2006 170.025 94.3702 167.104 94.4105 167.055C94.4508 167.005 98.3349 169.837 103.097 173.385C107.859 176.933 111.681 179.854 111.641 179.908Z" fill="#455A64"/>
<path d="M117.528 159.107C116.45 159.575 115.343 159.972 114.213 160.294C113.106 160.687 111.974 161.008 110.826 161.258C111.904 160.789 113.011 160.392 114.141 160.07C115.249 159.677 116.38 159.356 117.528 159.107Z" fill="#EB996E"/>
<path d="M118.032 161.173C117.654 161.28 117.268 161.354 116.877 161.392C116.164 161.509 115.183 161.683 114.108 161.93C113.033 162.176 112.074 162.449 111.38 162.655C111.011 162.789 110.632 162.892 110.246 162.965C110.588 162.774 110.95 162.624 111.326 162.517C112.219 162.199 113.13 161.933 114.054 161.719C114.978 161.508 115.912 161.349 116.854 161.244C117.243 161.179 117.638 161.155 118.032 161.173Z" fill="#EB996E"/>
<path d="M117.464 163.072C116.239 163.436 114.993 163.724 113.732 163.932C112.486 164.219 111.223 164.43 109.951 164.564C111.178 164.202 112.426 163.914 113.687 163.704C114.933 163.417 116.194 163.206 117.464 163.072Z" fill="#EB996E"/>
<path d="M108.675 144.166L114.925 164.739C114.96 164.853 115.029 164.954 115.122 165.029C115.216 165.104 115.33 165.15 115.449 165.16L132.473 166.437C132.624 166.447 132.765 166.514 132.868 166.625C132.972 166.735 133.029 166.881 133.028 167.032V168.094C133.028 168.174 133.013 168.252 132.982 168.325C132.951 168.398 132.906 168.465 132.849 168.52C132.792 168.576 132.725 168.619 132.651 168.649C132.577 168.678 132.499 168.692 132.419 168.69L85.8272 167.794C85.708 167.792 85.5922 167.754 85.4947 167.685C85.3973 167.617 85.3227 167.52 85.2806 167.409L77.0912 145.954C77.0569 145.866 77.0442 145.771 77.054 145.677C77.0638 145.583 77.0958 145.492 77.1475 145.413C77.1991 145.334 77.2689 145.268 77.3511 145.221C77.4332 145.174 77.5253 145.147 77.6198 145.143L108.043 143.723C108.184 143.711 108.325 143.749 108.44 143.83C108.556 143.911 108.639 144.03 108.675 144.166Z" fill="#455A64"/>
<path d="M95.5469 153.028C95.3186 153.113 95.1149 153.253 94.9539 153.436C94.7929 153.619 94.6795 153.839 94.624 154.076C94.6034 154.324 94.6484 154.573 94.7546 154.798C94.8608 155.023 95.0243 155.216 95.2288 155.357C95.4745 155.535 95.7674 155.636 96.0705 155.647C96.3736 155.658 96.6731 155.579 96.9312 155.42C97.1902 155.228 97.3757 154.953 97.4572 154.641C97.5386 154.329 97.5111 153.999 97.3792 153.704C97.1731 153.135 96.1338 152.737 95.5335 153.028" fill="#E0E0E0"/>
<path d="M103.092 198.589L98.1641 190.49L134.362 162.118C136.614 160.271 139.369 159.142 142.27 158.879C144.383 158.687 146.513 158.959 148.509 159.677C150.506 160.395 152.322 161.542 153.828 163.036C155.335 164.53 156.497 166.335 157.232 168.326C157.967 170.317 158.258 172.444 158.084 174.559L157.506 181.48L133.502 189.217L103.092 198.589Z" fill="#263238"/>
<path d="M149.516 179.361C149.516 179.361 149.489 179.393 149.422 179.451L149.126 179.693L147.975 180.616L147.137 181.274C146.832 181.516 146.469 181.722 146.098 182.005L144.897 182.829C144.682 182.972 144.449 183.129 144.238 183.277L143.517 183.725C142.536 184.312 141.474 184.984 140.269 185.593C139.673 185.907 139.064 186.247 138.423 186.565L136.421 187.51C133.433 188.879 130.378 190.096 127.268 191.157C120.656 193.437 114.545 195.077 110.168 196.403C109.07 196.726 108.08 197.03 107.211 197.299C106.342 197.568 105.598 197.797 104.971 198.003L103.573 198.451L103.206 198.563C103.164 198.578 103.12 198.588 103.076 198.594L103.197 198.54L103.556 198.406L104.944 197.909C105.545 197.689 106.288 197.461 107.157 197.165C108.027 196.869 109.008 196.565 110.101 196.233C114.469 194.862 120.575 193.2 127.174 190.924C130.48 189.8 133.558 188.545 136.313 187.304L138.311 186.368C138.956 186.054 139.566 185.718 140.162 185.409C141.367 184.809 142.428 184.146 143.414 183.573L144.135 183.147C144.364 183.004 144.583 182.851 144.798 182.699L146.048 181.888C146.42 181.633 146.783 181.413 147.092 181.176L147.939 180.531L149.117 179.635L149.431 179.411L149.516 179.361Z" fill="#455A64"/>
<path d="M150.393 183.147C150.282 183.228 150.16 183.293 150.03 183.339C149.788 183.447 149.434 183.595 148.99 183.756C147.833 184.183 146.648 184.527 145.442 184.787C144.236 185.044 143.013 185.218 141.782 185.306C141.312 185.338 140.926 185.351 140.662 185.351C140.524 185.361 140.386 185.354 140.25 185.329C140.752 185.238 141.259 185.175 141.769 185.14C142.701 185.037 144.009 184.858 145.393 184.558C146.777 184.258 148.041 183.891 148.937 183.604C149.413 183.425 149.899 183.273 150.393 183.147Z" fill="#455A64"/>
<path d="M132.921 163.48C132.961 163.533 125.215 169.622 115.619 177.076C106.023 184.531 98.2098 190.543 98.174 190.49C98.1381 190.436 105.88 184.352 115.476 176.893C125.072 169.434 132.885 163.43 132.921 163.48Z" fill="#455A64"/>
<path d="M130.814 193.585C129.081 192.662 127.132 193.209 125.47 193.769C124.363 194.141 123.23 194.732 122.092 194.414C121.281 194.186 120.676 193.518 120.053 192.958C118.797 191.803 117.322 190.911 115.716 190.334C114.109 189.758 112.403 189.509 110.699 189.603C109.726 189.649 108.807 190.064 108.128 190.763C106.421 192.613 107.707 195.014 109.234 196.587C111.956 199.353 115.55 201.094 119.408 201.515C122.585 201.847 126.953 201.407 130.16 200.028C132.145 199.176 133.162 196.833 132.123 194.943C131.829 194.372 131.374 193.899 130.814 193.585Z" fill="#8547C6"/>
<g opacity="0.4">
<path opacity="0.4" d="M130.816 195.064C129.078 194.141 127.129 194.687 125.467 195.247C124.361 195.619 123.227 196.211 122.089 195.892C121.278 195.664 120.673 194.996 120.051 194.436C118.794 193.281 117.32 192.389 115.713 191.813C114.106 191.236 112.401 190.988 110.697 191.081C109.723 191.128 108.804 191.543 108.125 192.241C107.781 192.608 107.535 193.054 107.408 193.54C107.737 194.694 108.366 195.739 109.232 196.569C111.953 199.335 115.548 201.076 119.406 201.497C122.582 201.828 126.95 201.389 130.158 200.01C130.727 199.767 131.231 199.394 131.629 198.92C132.027 198.446 132.307 197.884 132.447 197.281C132.346 196.818 132.147 196.383 131.863 196.003C131.58 195.624 131.218 195.309 130.803 195.082L130.816 195.064Z" fill="black"/>
</g>
<path d="M132.472 197.263C132.397 196.896 132.253 196.546 132.047 196.233C131.798 195.878 131.483 195.574 131.119 195.337C130.64 195.013 130.093 194.805 129.52 194.728C128.234 194.575 126.738 195.118 125.08 195.566C124.261 195.785 123.365 196.117 122.392 196.014C121.901 195.95 121.428 195.785 121.004 195.53C120.581 195.266 120.182 194.967 119.812 194.634C118.46 193.349 116.837 192.385 115.063 191.811C114.296 191.551 113.505 191.368 112.702 191.265C112.004 191.164 111.295 191.164 110.597 191.265C110.026 191.351 109.476 191.542 108.975 191.829C108.6 192.047 108.26 192.32 107.967 192.64C107.519 193.2 107.353 193.581 107.326 193.563C107.465 193.208 107.659 192.877 107.9 192.582C108.179 192.23 108.515 191.927 108.894 191.686C109.406 191.373 109.973 191.163 110.565 191.068C111.278 190.962 112.003 190.962 112.716 191.068C113.533 191.166 114.339 191.344 115.121 191.601C115.985 191.888 116.819 192.257 117.612 192.703C118.035 192.937 118.441 193.2 118.826 193.491C119.216 193.796 119.579 194.127 119.955 194.45C120.316 194.781 120.704 195.081 121.116 195.346C121.512 195.582 121.953 195.734 122.41 195.794C123.306 195.915 124.202 195.601 125.022 195.386C126.675 194.938 128.194 194.414 129.542 194.589C130.064 194.664 130.563 194.849 131.008 195.13C131.452 195.412 131.833 195.785 132.123 196.224C132.276 196.464 132.385 196.73 132.446 197.008C132.463 197.092 132.472 197.178 132.472 197.263Z" fill="#263238"/>
<path d="M132.472 197.263C132.397 196.896 132.253 196.546 132.047 196.233C131.798 195.878 131.483 195.574 131.119 195.337C130.64 195.013 130.093 194.805 129.52 194.728C128.234 194.575 126.738 195.118 125.08 195.566C124.261 195.785 123.365 196.117 122.392 196.014C121.901 195.95 121.428 195.785 121.004 195.53C120.581 195.266 120.182 194.967 119.812 194.634C118.46 193.349 116.837 192.385 115.063 191.811C114.296 191.551 113.505 191.368 112.702 191.265C112.004 191.164 111.295 191.164 110.597 191.265C110.026 191.351 109.476 191.542 108.975 191.829C108.6 192.047 108.26 192.32 107.967 192.64C107.519 193.2 107.353 193.581 107.326 193.563C107.465 193.208 107.659 192.877 107.9 192.582C108.179 192.23 108.515 191.927 108.894 191.686C109.406 191.373 109.973 191.163 110.565 191.068C111.278 190.962 112.003 190.962 112.716 191.068C113.533 191.166 114.339 191.344 115.121 191.601C115.985 191.888 116.819 192.257 117.612 192.703C118.035 192.937 118.441 193.2 118.826 193.491C119.216 193.796 119.579 194.127 119.955 194.45C120.316 194.781 120.704 195.081 121.116 195.346C121.512 195.582 121.953 195.734 122.41 195.794C123.306 195.915 124.202 195.601 125.022 195.386C126.675 194.938 128.194 194.414 129.542 194.589C130.064 194.664 130.563 194.849 131.008 195.13C131.452 195.412 131.833 195.785 132.123 196.224C132.276 196.464 132.385 196.73 132.446 197.008C132.463 197.092 132.472 197.178 132.472 197.263Z" fill="#263238"/>
<path d="M110.938 196.842C111.211 196.603 111.512 196.397 111.833 196.229C112.577 195.779 113.344 195.369 114.132 195.001C114.919 194.63 115.725 194.299 116.546 194.011C116.881 193.874 117.229 193.777 117.586 193.72C117.273 193.899 116.945 194.049 116.605 194.168C115.991 194.423 115.149 194.781 114.23 195.212C113.312 195.642 112.501 196.063 111.914 196.372C111.605 196.561 111.278 196.719 110.938 196.842Z" fill="#263238"/>
<path d="M111.553 198.581C112.646 197.923 113.779 197.332 114.944 196.811C116.077 196.222 117.244 195.701 118.438 195.252C117.345 195.91 116.212 196.501 115.047 197.022C113.916 197.613 112.749 198.133 111.553 198.581Z" fill="#263238"/>
<path d="M118.719 199.333C118.683 199.387 116.833 198.285 114.589 196.869C112.344 195.453 110.557 194.257 110.557 194.204C110.557 194.15 112.438 195.252 114.687 196.672C116.936 198.092 118.764 199.279 118.719 199.333Z" fill="#263238"/>
<path d="M119.767 197.532C119.451 197.358 119.151 197.156 118.871 196.927C118.329 196.533 117.576 195.991 116.734 195.409C115.892 194.826 115.126 194.311 114.566 193.939C114.247 193.758 113.947 193.545 113.67 193.303C114.011 193.433 114.337 193.6 114.642 193.8C115.224 194.136 116.017 194.634 116.882 195.216C117.747 195.798 118.468 196.367 118.988 196.797C119.277 197.009 119.539 197.256 119.767 197.532Z" fill="#263238"/>
</svg>
