<svg width="339" height="227" fill="none" xmlns="http://www.w3.org/2000/svg"><path d="M288.326 92.08c-6.183-11.39-13.185-14.86-21.899-17.76-14.767-4.917-31.021-4.431-45.987-.154-13.379 3.818-27.142 10.641-40.517 6.81-8.136-2.334-14.708-8.368-20.046-14.983-5.338-6.614-9.745-13.92-15.422-20.22-12.331-13.689-31.188-21.884-49.386-19.15-18.198 2.733-36.01 17.088-41.697 35.198-9.338 27.617 5.04 57.027 23.395 79.623 18.356 22.595 46.218 36.274 74.929 40.61 28.711 4.336 61.133 5.221 88.768-3.727 14.012-4.54 33.85-12.78 42.705-24.566 7.381-9.829 11.151-19.409 12.168-31.676 1.021-12.335-4.475-25.324-7.011-30.005z" fill="#F5F5F5"/><path d="M328.406 209.825c0 .064-71.149.118-158.896.118-87.747 0-158.914-.054-158.914-.118 0-.063 71.135-.118 158.914-.118 87.778 0 158.896.041 158.896.118z" fill="#263238"/><path d="M294.135 198.539l-1.664-2.343 6.396-4.499 2.649 3.609-.366.318c-1.641 1.394-8.448 6.964-9.849 7.491-1.569.59 2.834-4.576 2.834-4.576z" fill="#8547C6"/><path opacity=".5" d="M299.223 196.968a2.686 2.686 0 01-.258-1.911 2.315 2.315 0 011.212-1.567l1.256 1.735-2.21 1.743z" fill="#fff"/><path opacity=".5" d="M292.054 201.154s-1.455 1.925-.999 2.047c.457.123 7.54-5.252 10.46-7.895l-.113-.127-8.209 6.356s-.75-.64-1.139-.381z" fill="#fff"/><path d="M301.483 195.102s-.032.036-.095.091l-.294.254-1.094.908c-.904.754-2.219 1.784-3.674 2.887a145.124 145.124 0 01-3.766 2.77c-.452.318-.845.59-1.161.812l-.321.214a.447.447 0 01-.113.068.515.515 0 01.104-.082l.307-.231c.312-.227.696-.504 1.144-.836.967-.703 2.3-1.684 3.751-2.787a219.204 219.204 0 003.689-2.87l1.112-.88.302-.236.109-.082z" fill="#263238"/><path d="M293.266 201.617a2.783 2.783 0 00-.61-.372 2.893 2.893 0 00-.701-.132c.243-.077.505-.061.737.045.242.075.447.239.574.459zM294.409 199.306c0 .027-.176 0-.37-.086-.195-.087-.348-.146-.339-.173a.82.82 0 01.37.086c.181.078.348.173.339.173zM294.703 198.67a.637.637 0 01-.33 0c-.176 0-.321-.045-.316-.072.004-.028.149-.037.325-.023.176.014.321.068.321.095zM294.601 197.853s-.118.145-.294.286c-.1.094-.219.167-.348.214 0 0 .113-.15.294-.287.181-.136.33-.236.348-.213zM294.401 197.363s-.082.204-.281.377a.81.81 0 01-.411.236c0-.028.163-.137.348-.304.106-.112.221-.215.344-.309z" fill="#263238"/><path d="M293.801 198.938a1.477 1.477 0 01-.402.3 2.516 2.516 0 01-.493.231c-.102.04-.208.069-.316.087a.267.267 0 01-.19-.046.19.19 0 01-.059-.204.905.905 0 011.062-.477c.119.03.231.086.326.164.068.054.095.095.09.1a1.217 1.217 0 00-.452-.2.924.924 0 00-.502.041.806.806 0 00-.452.395c-.027.09.05.145.154.136.1-.017.198-.043.294-.077.167-.057.33-.125.488-.205.289-.14.452-.258.452-.245z" fill="#263238"/><path d="M293.709 199.038s-.136-.05-.249-.241a.72.72 0 01-.108-.367.489.489 0 01.181-.454.191.191 0 01.212.026.19.19 0 01.045.06.55.55 0 01.068.227c.014.127.014.255 0 .381a.766.766 0 01-.108.332c.006-.114.02-.228.04-.341.014-.12.014-.242 0-.363 0-.123-.081-.3-.199-.241a.456.456 0 00-.135.364.773.773 0 00.081.34c.049.098.106.19.172.277zM300.129 193.526s-.19.119-.452.364c-.331.319-.57.722-.692 1.166-.119.448-.11.92.028 1.362.103.332.226.518.212.527a.593.593 0 01-.095-.127 2.011 2.011 0 01-.181-.377 2.375 2.375 0 01.687-2.579c.105-.098.222-.181.348-.249a.594.594 0 01.145-.087zM298.003 196.963c-.247.293-.53.554-.841.777a4.326 4.326 0 01-.963.617c0-.023.412-.304.904-.69.493-.386.882-.722.9-.704z" fill="#263238"/><path d="M299.224 196.042c.028 0 .032.109.059.231.027.123.068.218.045.236-.022.018-.104-.072-.135-.218-.032-.145 0-.254.031-.249zM299.251 195.129c.027 0 .036.1 0 .209-.036.109-.05.204-.072.2-.023-.005-.037-.096 0-.209.036-.114.045-.2.072-.2zM299.716 194.376c0 .022-.072.086-.14.186-.067.1-.099.199-.122.199-.022 0-.04-.127.045-.249.086-.123.208-.159.217-.136zM300.092 193.899c.022 0 0 .072-.027.131-.027.059-.086.095-.109.081-.022-.013 0-.072.028-.126.027-.055.085-.095.108-.086z" fill="#263238"/><path opacity=".3" d="M299.935 193.145l-6.468 4.481-.186-.254 6.283-4.744.371.517z" fill="#000"/><path d="M284.755 164.089l15.789 28.23-8.439 5.748-13.949-24.875 2.351-9.103h4.248z" fill="#263238"/><path d="M324.472 159.567l.086-21.833c0-1.816 0-3.713-.945-5.257-.945-1.543-2.635-2.461-4.384-2.819-1.75-.359-3.562-.227-5.343-.073l-9.239 29.315c-2.902.853-5.591 2.111-7.616 4.213a6.469 6.469 0 00-1.889 3.391 3.508 3.508 0 001.383 3.455c.16.107.329.198.506.273-.362 2.783-5.636 39.652-5.636 39.652h1.808l4.682-26.513 9.732-4.441 10.59 5.971 4.249 25.101h1.808s-5.257-39.044-5.325-39.856a9.59 9.59 0 001.849-.731c3.295-1.739 3.747-5.376 3.684-9.848zm-26.41 22.877l1.428-8.108 7.273 4.086-8.701 4.022zm1.572-8.921l.507-2.855 12.33.068c1.099 0 2.22 0 3.327-.068l.57 3.355-8.697 3.999-8.037-4.499zm8.905 4.994l7.973-3.632 1.514 8.953-9.487-5.321z" fill="#455A64"/><path d="M311.296 127.433c-2.26 0-4.095-1.466-4.127-8.294 0-1.362.041-2.561.041-2.561s-3.227-.295-3.467-3.441c-.239-3.146-.058-10.442-.058-10.442a11.139 11.139 0 0111.173.74l.497.331-.153 15.436c-.019 2.188-1.704 8.231-3.906 8.231z" fill="#B78876"/><path d="M307.201 116.533a7.516 7.516 0 004.095-1.421s-.845 2.324-4.068 2.238l-.027-.817z" fill="#AA6550"/><path d="M304.453 107.771a.456.456 0 00.43.454.437.437 0 00.308-.106.427.427 0 00.144-.294.455.455 0 00-.452-.454.425.425 0 00-.43.4zM304.355 107.276c.054.054.393-.191.877-.191.483 0 .836.241.904.182.067-.059-.032-.132-.186-.241a1.227 1.227 0 00-.714-.213 1.195 1.195 0 00-.696.217c-.163.114-.212.218-.185.246zM309.168 107.879c0 .121.048.236.132.321.085.086.2.133.32.133a.397.397 0 00.164-.02.405.405 0 00.245-.214.41.41 0 00.043-.161.453.453 0 00-.452-.454.412.412 0 00-.164.021.405.405 0 00-.245.214.406.406 0 00-.043.16zM309.097 107.362c.054.059.393-.191.877-.186.483.004.836.236.904.177.068-.059-.027-.127-.186-.236a1.2 1.2 0 00-.709-.218 1.16 1.16 0 00-.696.222c-.168.114-.217.218-.19.241zM307.36 110.88a3.27 3.27 0 00-.786-.136c-.122 0-.24-.036-.258-.122a.593.593 0 01.082-.359l.361-.908c.339-.781.613-1.589.818-2.415a15.925 15.925 0 00-1.012 2.347c-.122.322-.235.631-.348.908a.692.692 0 00-.063.477.3.3 0 00.203.177.912.912 0 00.208.027c.264.036.531.037.795.004zM308.765 111.23c-.081 0-.081.508-.529.876-.447.368-1.007.309-1.007.382 0 .072.122.099.357.104a1.3 1.3 0 00.845-.291c.225-.181.371-.443.407-.731.018-.236-.041-.34-.073-.34zM308.969 105.505c.05.127.529.064 1.094.132.565.068 1.026.218 1.098.104.072-.113-.045-.177-.231-.3a1.935 1.935 0 00-1.667-.181c-.208.068-.312.181-.294.245zM304.531 105.9c.086.109.421 0 .819 0 .397 0 .736.073.813-.041.077-.113 0-.163-.167-.263a1.14 1.14 0 00-.66-.177 1.11 1.11 0 00-.651.218c-.145.1-.19.213-.154.263z" fill="#263238"/><path d="M302.962 103.099c1.388 1.925 4.52 1.362 6.5.091a3.373 3.373 0 003.666 1.139c0 .795-.168 1.58-.199 2.37a3.059 3.059 0 00.642 2.225c.537.581 1.564.744 2.106.168a1.983 1.983 0 00.343-1.653 5.386 5.386 0 01-.14-1.73c.154-.844 1.076-.236 1.108-2.111.036-2.479-2.107-2.42-2.107-2.42a4.315 4.315 0 00-.827-1.502 2.592 2.592 0 00-.904-.763.9.9 0 00-1.075.195 5.93 5.93 0 00-2.712-1.335c-1.004-.14-2.152.3-2.536 1.24-.963-.363-2.509-.336-3.246.39-.736.727-1.582 2.724-.659 3.696" fill="#263238"/><path d="M314.533 107.248c.058 0 2.02-.277 1.835 2.007-.186 2.284-2.464 1.362-2.464 1.276 0-.086.629-3.283.629-3.283z" fill="#B78876"/><path d="M314.677 109.786s.041.032.104.068a.447.447 0 00.303.032.992.992 0 00.533-.849 1.267 1.267 0 00-.068-.576.452.452 0 00-.275-.327.21.21 0 00-.14-.002.21.21 0 00-.109.088.451.451 0 00-.036.113s-.05-.04 0-.136a.257.257 0 01.104-.136.314.314 0 01.226-.041.563.563 0 01.393.391 1.3 1.3 0 01.09.644 1.038 1.038 0 01-.669.94.445.445 0 01-.366-.091c-.09-.036-.095-.113-.09-.118z" fill="#AA6550"/><path d="M262.789 206.429l.8-2.61 7.232 1.58-.868 4.29-.452-.059c-2.079-.286-10.554-1.585-11.852-2.27-1.464-.74 5.14-.931 5.14-.931z" fill="#8547C6"/><path opacity=".5" d="M267.26 209.112a2.61 2.61 0 011.211-1.439 2.249 2.249 0 011.921-.145l-.425 2.052-2.707-.468z" fill="#fff"/><path opacity=".5" d="M259.543 206.629s-2.341.204-2.133.617c.207.413 8.723 2.048 12.543 2.443v-.168l-9.944-1.816s-.037-.972-.466-1.076z" fill="#fff"/><path d="M270.088 209.539h-.131l-.371-.05-1.356-.204a165.5 165.5 0 01-4.493-.776 108.78 108.78 0 01-4.461-.931l-1.356-.313-.366-.091-.122-.041h.126l.371.073 1.356.286a205.397 205.397 0 008.949 1.716l1.356.227.371.068a.472.472 0 01.127.036z" fill="#263238"/><path d="M260.003 207.818a3.273 3.273 0 00-.136-.685 3.2 3.2 0 00-.361-.599 1 1 0 01.452.567c.101.226.117.481.045.717zM262.413 207.142c-.027 0-.108-.141-.185-.327a.795.795 0 01-.095-.363s.104.141.181.327c.06.111.094.236.099.363zM263.064 206.942s-.122-.086-.226-.222c-.104-.136-.181-.264-.158-.282.022-.018.122.087.23.227.109.141.186.259.154.277zM263.589 206.32c0 .027-.181 0-.398-.022-.217-.023-.389-.091-.384-.119a.903.903 0 01.397.028c.135.011.266.05.385.113zM263.814 205.857a.784.784 0 01-.452.041.723.723 0 01-.452-.145c.301.038.602.073.904.104z" fill="#263238"/><path d="M262.282 206.452a1.511 1.511 0 01-.479-.095 3.051 3.051 0 01-.493-.209 1.661 1.661 0 01-.266-.173.268.268 0 01-.091-.172.178.178 0 01.109-.173.9.9 0 011.039.454.89.89 0 01.095.345v.132a1.362 1.362 0 00-.14-.454.911.911 0 00-.361-.341.78.78 0 00-.579-.072c-.086.041-.072.136 0 .204.076.062.158.117.244.163.146.084.297.158.452.223.289.118.47.154.47.168z" fill="#263238"/><path d="M262.16 206.452a.457.457 0 010-.341.755.755 0 01.194-.317.474.474 0 01.452-.164.19.19 0 01.109.245.507.507 0 01-.122.196 1.433 1.433 0 01-.281.24.69.69 0 01-.311.141s.113-.068.275-.191a2.02 2.02 0 00.253-.245c.086-.086.163-.259.046-.304a.449.449 0 00-.353.141.771.771 0 00-.194.281c-.031.104-.054.21-.068.318zM270.319 207.501s-.212-.059-.556-.087a2.45 2.45 0 00-1.292.259 2.391 2.391 0 00-.95.908c-.176.295-.226.504-.244.5a.63.63 0 01.027-.15 2.2 2.2 0 01.159-.382c.219-.405.554-.736.962-.948a2.352 2.352 0 011.356-.241c.14.017.278.047.412.091a.57.57 0 01.126.05zM266.455 208.213a4.253 4.253 0 01-1.108-.099 4.429 4.429 0 01-1.076-.296c0-.027.493.096 1.094.205.601.109 1.094.168 1.09.19z" fill="#263238"/><path d="M267.918 208.495s-.058.091-.131.191c-.072.099-.113.195-.14.186-.027-.009 0-.123.068-.236.068-.114.19-.164.203-.141zM268.597 207.932s-.049.091-.14.15c-.09.059-.176.095-.189.077-.014-.018.045-.086.14-.15.095-.063.176-.104.189-.077zM269.442 207.769c0 .022-.108 0-.221 0s-.208.059-.226.04c-.019-.018.067-.109.212-.131.145-.023.249.068.235.091zM270.034 207.727c0 .028-.045.055-.113.068-.067.014-.121 0-.126-.022-.004-.023.045-.055.108-.068.063-.014.127 0 .131.022z" fill="#263238"/><path d="M282.437 139.455a7.209 7.209 0 00-1.487-1.421c-.208-.073-3.937-1.634-4.009-1.462-.072.173-.515 1.031.244 1.435l.588.2-2.143.172s-2.386 1.771-2.35 2.152c.036.381.343.627.551.454.208-.172-.551 1.217-.551 1.217s0 .59.312.486c.3-.171.568-.394.791-.659 0 0-.452.727-.308.867.145.141.827.173.904 0 .077-.172.177-.485.177-.485l.411.036v.563l6.328.195.542-3.75z" fill="#AA6550"/><path d="M313.992 154.814s2.174 7.777-2.744 9.334c-4.917 1.557-30.5 2.375-30.5 2.375l-9.682 40.17-8.136-1.894 7.186-42.267a7.169 7.169 0 011.974-3.816 7.12 7.12 0 013.794-1.991c7.585-1.362 21.33-3.863 21.515-4.145.34-.777.629-1.576.864-2.392l15.729 4.626z" fill="#263238"/><path d="M296.513 165.796c-.098.021-.198.03-.298.027l-.868.046-3.268.136-11.454.4.104-.082c-.759 3.119-1.568 6.574-2.414 10.21-1.645 7.124-3.109 13.575-4.226 18.228a332.35 332.35 0 01-1.356 5.512c-.162.636-.294 1.135-.384 1.494l-.108.386c-.023.086-.041.131-.046.127-.004-.005 0-.046 0-.132 0-.086.05-.232.082-.395.086-.359.199-.863.343-1.503.303-1.321.737-3.205 1.275-5.525 1.067-4.681 2.536-11.127 4.163-18.242a680.589 680.589 0 012.432-10.21v-.082h.081l11.454-.313 3.272-.073h.868c.116-.012.232-.015.348-.009z" fill="#455A64"/><path d="M293.71 153.452a.35.35 0 01-.109.036l-.325.077c-.285.069-.705.164-1.252.277-1.089.227-2.671.532-4.629.886-1.957.354-4.294.758-6.875 1.257-1.288.25-2.639.554-4.068.808-1.428.255-2.865.641-4.022 1.603a4.896 4.896 0 00-1.311 1.748 11.292 11.292 0 00-.701 2.047 39.62 39.62 0 00-.795 4.055l-1.081 6.937c-.307 1.979-.546 3.55-.718 4.676l-.204 1.271c0 .132-.045.241-.058.327a.633.633 0 01-.028.114.363.363 0 010-.114l.032-.336c.041-.309.095-.735.163-1.276.153-1.126.375-2.724.646-4.689.271-1.966.619-4.332 1.026-6.942.192-1.375.455-2.739.787-4.086.172-.719.412-1.419.714-2.093a5.132 5.132 0 011.356-1.816c1.211-1.008 2.712-1.362 4.127-1.648 1.414-.286 2.752-.549 4.068-.795 2.585-.49 4.926-.871 6.888-1.207 1.962-.336 3.544-.613 4.638-.813l1.261-.231.33-.055a.368.368 0 01.14-.018z" fill="#455A64"/><path d="M306.948 121.926l-1.93 2.297-7.724 13.575-15.066 1.498-.33 4.377 17.353 1.648 9.686-17.606-1.989-5.789z" fill="#8547C6"/><path opacity=".2" d="M306.948 121.926l-1.93 2.297-7.724 13.575-15.066 1.498-.33 4.377 17.353 1.648 9.686-17.606-1.989-5.789z" fill="#000"/><path d="M305.421 128.55l1.487-5.666.031-1.848 8.385-3.822 1.609 2.011-.194.104c.659.695 5.541 5.993 5.252 9.902-.262 3.519-7.648 25.705-7.648 25.705l-16.823-4.939 7.901-21.447z" fill="#8547C6"/><path d="M306.949 121.036s.059.382.131 1.04c.073.658.127 1.607.362 2.724l.027.118.104-.063 2.997-1.735a342.266 342.266 0 004.411-2.606l1.329-.808c.159-.094.31-.2.452-.318a3.022 3.022 0 00-.511.25l-1.356.758a395.429 395.429 0 00-4.443 2.552l-2.988 1.757.132.054c-.249-1.094-.312-2.047-.43-2.701-.054-.331-.108-.59-.149-.763a1.01 1.01 0 00-.068-.259z" fill="#263238"/><path d="M320.468 133.381c0 .218-15.196 14.982-15.196 14.982l-20.512-4.05.66-4.399 14.012.381a4.12 4.12 0 003.683-1.675 8642.267 8642.267 0 009.696-12.653c.167-.227 7.657 7.414 7.657 7.414z" fill="#8547C6"/><path d="M285.415 139.914s0 .086-.049.277l-.136.835c-.117.749-.289 1.852-.515 3.282v.064h.045l16.385 3.178 1.356.259a5.71 5.71 0 004.208-.713 5.518 5.518 0 001.175-.963c.348-.376.669-.762 1.008-1.148l2.052-2.37 8.774-10.138c0-.05.04-.104.058-.159a6.717 6.717 0 00.498-2.374 4.433 4.433 0 00-.588-2.325 4.886 4.886 0 00-1.69-1.643 5.161 5.161 0 00-2.197-.731 4.167 4.167 0 00-2.238.399 5.833 5.833 0 00-1.744 1.394 17.438 17.438 0 00-1.32 1.73l-1.23 1.725a133.047 133.047 0 01-4.813 6.279l-1.162 1.371c-.36.46-.751.894-1.171 1.298-.424.354-.946.57-1.496.618-.533.05-1.069.063-1.604.041l-9.981-.155-2.712-.031h-.931.244l.71.022 2.712.068 9.944.227c.541.027 1.083.014 1.623-.036a2.862 2.862 0 001.577-.645c.429-.406.826-.845 1.189-1.312.384-.454.773-.93 1.166-1.412a135.638 135.638 0 006.066-7.999c.404-.595.842-1.166 1.311-1.712a5.755 5.755 0 011.69-1.362 3.949 3.949 0 012.134-.376 4.986 4.986 0 013.733 2.27c.387.672.581 1.439.561 2.215a6.604 6.604 0 01-.479 2.306c-.023.055-.046.105-.064.155v-.027l-8.769 10.142-2.047 2.374c-.335.386-.665.781-.999 1.149-.337.359-.72.672-1.139.931a5.522 5.522 0 01-2.712.821 5.857 5.857 0 01-1.379-.122l-1.356-.254-16.353-3.065.032.05c.203-1.426.361-2.52.452-3.269.049-.368.09-.649.117-.849.027-.2.054-.29.054-.29z" fill="#263238"/><path d="M314.995 137.912a7.11 7.11 0 01-1.03-.809 46.21 46.21 0 01-4.466-4.458 6.878 6.878 0 01-.813-1.026c.337.275.65.579.935.908.556.581 1.329 1.385 2.201 2.27.873.885 1.673 1.639 2.26 2.197.33.28.635.587.913.918zM316.076 136.3a6.499 6.499 0 01-1.031-.808 43.381 43.381 0 01-2.31-2.152 44.935 44.935 0 01-2.16-2.307 6.57 6.57 0 01-.809-1.026c.335.276.646.58.931.908.56.581 1.356 1.385 2.201 2.27.845.886 1.677 1.639 2.26 2.198.33.28.636.587.918.917zM304.278 131.456a4.977 4.977 0 01-1.293-.736 4.829 4.829 0 01-1.157-.935c.465.179.901.427 1.293.735.431.25.822.566 1.157.936zM304.811 129.844a3.16 3.16 0 01-1.057-.599 3.303 3.303 0 01-.904-.79c.389.128.75.332 1.062.599.524.4.935.754.899.79z" fill="#E0E0E0"/><path d="M299.983 169.188c-2.969-.2-1.573-4.481-1.5-9.253.045-2.987 2.025-5.902 4.181-7.986a10.183 10.183 0 013.792-2.129 23.46 23.46 0 0111.49-.74s5.618 21.669-17.963 20.108z" fill="#455A64"/><path d="M276.625 139.918l3.661-1.008 3.042 1.53h1.727l.28.114-.493 3.296-.452.059c-.446.275-.94.465-1.455.558-.967.209-2.387-.417-2.387-.417l-1.934-1.076-1.383-.395-1.035.604a4.02 4.02 0 00-.104.553c0 .141-.38.314-.588.314-.208 0-.276-.486-.276-.486l.24-1.04-.484.454h-1.207v-.762l2.848-2.298z" fill="#B78876"/><path d="M270.161 144.799c-.326-.477-4.809-19.618-4.809-19.618h1.631l4.737 18.337h17.628v1.362l-19.187-.081z" fill="#E0E0E0"/><path d="M180.455 127.969a26.662 26.662 0 012.92-5.566 3.517 3.517 0 011.51-1.426c1.098-.422 2.287.259 3.268.908l2.26 1.503a.619.619 0 01.187.146.618.618 0 01.116.208c.04.282-.312.454-.592.477a4.08 4.08 0 01-2.762-.686c-.61-.422-1.207-1.048-1.944-.971-.904.095-1.329 1.167-1.686 2.025a9.06 9.06 0 01-3.869 4.376" fill="#8547C6"/><path d="M180.452 128.346c.172-4.572.353-9.18 1.446-13.62 1.094-4.44 3.164-8.762 6.591-11.777-.452 3.85-1.845 7.523-3.223 11.141l-5.582 14.637M179.657 130.007a50.793 50.793 0 00-3.458-12.103 2.966 2.966 0 00-1.049-1.485c-.777-.454-1.776-.163-2.608.209a21.355 21.355 0 00-5.424 3.519.793.793 0 00-.289.413.54.54 0 00.425.554c.251.046.51.03.754-.046l4.548-1.058a2.334 2.334 0 011.396-.036c.507.28.895.737 1.09 1.285 1.488 3.026 2.978 6.043 4.47 9.048" fill="#8547C6"/><path opacity=".4" d="M180.455 127.969a26.662 26.662 0 012.92-5.566 3.517 3.517 0 011.51-1.426c1.098-.422 2.287.259 3.268.908l2.26 1.503a.619.619 0 01.187.146.618.618 0 01.116.208c.04.282-.312.454-.592.477a4.08 4.08 0 01-2.762-.686c-.61-.422-1.207-1.048-1.944-.971-.904.095-1.329 1.167-1.686 2.025a9.06 9.06 0 01-3.869 4.376" fill="#000"/><path opacity=".4" d="M180.452 128.346c.172-4.572.353-9.18 1.446-13.62 1.094-4.44 3.164-8.762 6.591-11.777-.452 3.85-1.845 7.523-3.223 11.141l-5.582 14.637" fill="#000"/><path opacity=".3" d="M179.657 130.007a50.793 50.793 0 00-3.458-12.103 2.966 2.966 0 00-1.049-1.485c-.777-.454-1.776-.163-2.608.209a21.355 21.355 0 00-5.424 3.519.793.793 0 00-.289.413.54.54 0 00.425.554c.251.046.51.03.754-.046l4.548-1.058a2.334 2.334 0 011.396-.036c.507.28.895.737 1.09 1.285 1.488 3.026 2.978 6.043 4.47 9.048" fill="#000"/><path d="M186.572 95.54a27.312 27.312 0 00-6.328 16.099c-.424 9.733-.994 16.748-.994 16.748h1.067s2.138-19.609 3.561-23.045c1.424-3.437 3.621-8.3 2.694-9.802z" fill="#8547C6"/><path d="M186.572 95.54a2.073 2.073 0 01-.131.313 55.632 55.632 0 00-1.799 4.154 67.983 67.983 0 00-1.709 4.994 51.525 51.525 0 00-1.491 6.288c-.19 1.131-.276 2.243-.362 3.323-.086 1.081-.14 2.125-.199 3.119-.117 1.989-.239 3.778-.402 5.276-.163 1.498-.357 2.724-.524 3.532-.077.413-.159.731-.208.949-.019.112-.05.221-.091.327 0 0 0-.118.05-.336.05-.218.108-.536.172-.954.144-.826.321-2.034.452-3.532.131-1.498.253-3.287.357-5.275.054-.995.113-2.039.19-3.119.077-1.081.167-2.207.361-3.342a48.753 48.753 0 011.51-6.31 59.866 59.866 0 011.754-4.994 47.378 47.378 0 011.446-3.26c.185-.377.344-.663.452-.863.049-.101.107-.198.172-.29z" fill="#263238"/><path d="M190.545 104.652s-7.232 6.919-8.028 13.447c-.795 6.529-1.234 10.024-1.234 10.024h.714s1.709-9.302 3.919-12.235 5.126-10.451 4.629-11.236z" fill="#8547C6"/><path d="M190.459 105.101a1.213 1.213 0 01-.104.222l-.339.609c-.307.554-.736 1.307-1.261 2.233-1.053 1.889-2.517 4.504-3.842 7.528a38.458 38.458 0 00-2.581 8.026 29.33 29.33 0 00-.388 2.529c-.041.304-.055.536-.073.695a.857.857 0 01-.04.241 1.616 1.616 0 010-.241c0-.164 0-.4.036-.699.063-.856.172-1.708.325-2.552a36.196 36.196 0 012.536-8.081 75.114 75.114 0 013.905-7.514c.547-.935.999-1.684 1.316-2.202l.37-.594c.042-.07.089-.137.14-.2z" fill="#263238"/><path d="M176.6 105.868s-1.072 13.67 1.424 21.824h.854s.565-17.674-2.278-21.824z" fill="#8547C6"/><path d="M177.185 108.452a.715.715 0 01.036.195c0 .145.032.331.059.554.041.508.104 1.198.176 2.038.14 1.721.321 4.086.507 6.733.185 2.647.348 4.994.452 6.742.049.84.085 1.53.113 2.043v.558a.908.908 0 010 .195.716.716 0 01-.037-.195c0-.15-.036-.331-.058-.554-.046-.508-.104-1.198-.177-2.038-.14-1.721-.321-4.086-.51-6.737-.19-2.652-.344-4.994-.452-6.738-.05-.84-.086-1.53-.118-2.043v-.558a.795.795 0 01.009-.195z" fill="#263238"/><path d="M174.923 126.902s2.617 1.889 2.482 2.765c-.136.876-6.441 5.593-6.039 9.302.402 3.71 3.422 6.27 8.588 6.066 5.166-.204 8.656-3.437 8.186-6.742-.47-3.305-5.596-8.549-5.655-8.803-.171-.726 2.301-2.588 2.301-2.588h-9.863z" fill="#455A64"/><path d="M184.313 131.692c0 .054-1.908.1-4.258.1-2.351 0-4.258-.046-4.258-.1 0-.055 1.907-.1 4.258-.1 2.35 0 4.258.068 4.258.1zM184.909 132.591c0 .054-2.26.1-5.013.1s-5.017-.046-5.017-.1c0-.055 2.26-.1 5.017-.1 2.757 0 5.013.045 5.013.1zM185.812 133.585c0 .054-2.653.1-5.925.1-3.273 0-5.926-.046-5.926-.1 0-.055 2.653-.109 5.935-.109 3.281 0 5.916.05 5.916.109zM186.613 134.906c0 .055-3.056.1-6.83.1s-6.83-.045-6.83-.1c0-.054 3.056-.1 6.83-.1s6.83.032 6.83.1z" fill="#FAFAFA"/><path d="M306.486 144.862H169.105v3.047h9.416v61.83h3.317v-61.83h92.172v61.83h3.322v-61.83h29.154v-3.047zM213.869 110.776a2.808 2.808 0 01-.082-.454 2.72 2.72 0 00-.452-1.121 1.375 1.375 0 00-.633-.491.942.942 0 00-.849.137 2.675 2.675 0 00-.606 2.978c.141.331.347.631.606.881a.94.94 0 00.849.131c.255-.094.475-.264.633-.486a2.72 2.72 0 00.452-1.121c.015-.153.042-.305.082-.454.025.15.025.304 0 .454a2.66 2.66 0 01-.421 1.203 1.477 1.477 0 01-.705.577 1.141 1.141 0 01-1.035-.136 2.87 2.87 0 01-.688-3.266c.161-.364.395-.689.688-.957a1.129 1.129 0 011.035-.136c.288.114.534.313.705.572.235.363.379.777.421 1.208.027.159.027.322 0 .481z" fill="#263238"/><path d="M214.523 207.909l-.416-20.734 7.273.559-1.134 20.094-5.723.081z" fill="#EB996E"/><path d="M220.576 207.996l-.023-.668-6.305.15.041 2.211h.388c1.727.059 8.787.168 9.944-.209 1.271-.404-4.045-1.484-4.045-1.484z" fill="#8547C6"/><path opacity=".4" d="M216.558 209.589a2.184 2.184 0 00-.827-1.321 2.118 2.118 0 00-1.469-.422l.036 1.757 2.26-.014z" fill="#fff"/><path opacity=".4" d="M223.161 208.618s1.876.499 1.65.812c-.226.314-7.363.454-10.518.264v-.141l8.326-.114s.181-.799.542-.821z" fill="#fff"/><path d="M214.203 209.548a.286.286 0 00.109 0h.307l1.139.023h3.752c1.464 0 2.793-.091 3.751-.145l1.135-.073h.416-.416l-1.139.046c-.959.04-2.283.09-3.747.122a171.18 171.18 0 01-3.752.036h-1.555v-.009z" fill="#263238"/><path d="M222.627 209.535c.047-.19.114-.374.199-.55.109-.165.237-.317.38-.454a1.03 1.03 0 00-.579.995v.009zM220.761 208.636s.104-.096.195-.245c.09-.15.144-.273.126-.282-.018-.009-.104.096-.194.245-.091.15-.145.273-.127.282zM220.25 208.386s.113-.054.217-.154.18-.191.167-.209c-.014-.018-.113.054-.217.154s-.181.209-.167.209zM219.916 207.796a.784.784 0 00.33.032.68.68 0 00.325-.041.717.717 0 00-.325-.036.742.742 0 00-.33.045zM219.799 207.378c.11.068.237.103.366.1a.673.673 0 00.375-.059 1.644 1.644 0 00-.371 0 2.006 2.006 0 00-.37-.041z" fill="#263238"/><path d="M220.965 208.086c.132.021.266.021.398 0 .146-.021.289-.056.429-.104.084-.024.165-.059.24-.104a.22.22 0 00.099-.127.158.158 0 00-.068-.164.735.735 0 00-.904.236.782.782 0 00-.126.273v.108c.043-.122.102-.238.176-.345a.694.694 0 01.339-.231.603.603 0 01.479.023c.068.045.041.118-.027.163a1.102 1.102 0 01-.226.104c-.134.05-.271.088-.411.114-.249.036-.398.041-.398.054z" fill="#263238"/><path d="M221.07 208.105a.425.425 0 00.041-.282.717.717 0 00-.118-.295.392.392 0 00-.339-.195.16.16 0 00-.099.068.163.163 0 00-.023.118.505.505 0 00.073.182c.055.087.122.166.198.236.127.122.227.168.231.159.005-.01-.081-.069-.194-.196a1.468 1.468 0 01-.172-.236c-.059-.086-.1-.236 0-.259.099-.022.208.087.271.164a.71.71 0 01.118.263c.013.09.018.182.013.273zM214.293 207.828h.452c.369.034.721.171 1.017.395.292.227.517.53.651.876.099.268.113.454.126.454a.387.387 0 000-.127 1.42 1.42 0 00-.072-.341 1.985 1.985 0 00-.655-.908 1.917 1.917 0 00-1.058-.386 1.648 1.648 0 00-.344 0 .348.348 0 00-.117.037zM217.33 208.963c.297.06.601.083.904.068.304.007.608-.023.904-.091 0-.023-.411 0-.904 0-.493 0-.899 0-.904.023z" fill="#263238"/><path d="M216.105 208.985s.037.087.082.182c.045.095.068.177.09.173.023-.005.027-.1-.022-.205-.05-.104-.136-.163-.15-.15zM215.631 208.418s.027.082.095.145c.068.064.131.105.144.091.014-.014-.027-.082-.09-.145-.063-.064-.131-.123-.149-.091zM214.967 208.168c0 .023.086.023.181.05.095.027.158.082.176.064.019-.019-.04-.1-.153-.137-.113-.036-.213.005-.204.023zM214.492 208.055c0 .022.032.054.081.072.05.018.104 0 .108 0 .005 0-.027-.054-.081-.072-.054-.019-.099-.019-.108 0z" fill="#263238"/><path d="M222.483 207.787l-.493-19.232 7.268-.821-.944 20.007-5.831.046z" fill="#FFBE9D"/><path d="M203.092 153.852c7.088.05 14.189.095 21.244.74 2.816.258 5.876.726 7.82 2.778 1.835 1.916 2.26 4.749 2.599 7.387l3.096 24.107a110.26 110.26 0 01-29.416-.908l.208-17.933.154-2.81-10.916-.713 5.211-12.648z" fill="#8547C6"/><path d="M218.073 145.076h28.847v-1.408h-28.847v1.408z" fill="#263238"/><path d="M251.389 145.076l5.411-20.367h-22.523l-4.9 20.367h22.012z" fill="#263238"/><path d="M230.725 143.532h20.123l4.682-17.883h-20.222l-4.583 17.883z" fill="#F5F5F5"/><path d="M235.804 129.113l-1.247 5.067H247.9l1.424-5.067h-13.52z" fill="#E0E0E0"/><path d="M246.507 128.446c0 .054-2.342.1-5.225.1-2.884 0-5.225-.046-5.225-.1 0-.055 2.336-.096 5.225-.096 2.888 0 5.225.041 5.225.096z" fill="#455A64"/><path d="M240.427 130.085a23.33 23.33 0 01-4.212 0 22.282 22.282 0 014.212 0zM243.804 130.003a9.458 9.458 0 01-2.74 0 9.9 9.9 0 012.74 0z" fill="#263238"/><path d="M247.619 131.002c0 .054-2.576.1-5.758.1s-5.763-.046-5.763-.1c0-.055 2.576-.1 5.763-.1 3.186 0 5.758.045 5.758.1z" fill="#455A64"/><path d="M239.591 131.842a18.345 18.345 0 01-3.734 0 17.522 17.522 0 013.734 0z" fill="#8547C6"/><path d="M246.588 133.022c0 .055-2.395.1-5.347.1-2.951 0-5.343-.045-5.343-.1 0-.054 2.392-.095 5.343-.095 2.952 0 5.347.059 5.347.095zM238.72 135.633a21.487 21.487 0 01-4.136 0 21.327 21.327 0 014.136 0z" fill="#455A64"/><path d="M242.272 135.646a5.062 5.062 0 01-1.411.087 5.14 5.14 0 01-1.41-.109 5.213 5.213 0 011.41-.087c.473-.024.947.012 1.411.109zM244.242 135.551c0 .054-.267.1-.597.1-.329 0-.596-.046-.596-.1 0-.055.267-.095.596-.095.33 0 .597.04.597.095z" fill="#263238"/><path d="M235.975 136.654c0 .05-.294.095-.656.095-.361 0-.655-.045-.655-.095s.294-.1.655-.1c.362 0 .656.064.656.1z" fill="#8547C6"/><path d="M239.913 136.654a13.003 13.003 0 01-3.142 0 12.421 12.421 0 013.142 0z" fill="#263238"/><path d="M249.291 136.55c0 .054-1.88.1-4.194.1s-4.195-.046-4.195-.1c0-.055 1.881-.096 4.195-.096s4.194.041 4.194.096z" fill="#455A64"/><path d="M235.777 137.748c0 .055-.303.1-.673.1-.371 0-.678-.045-.678-.1 0-.054.303-.1.678-.1.375 0 .673.046.673.1zM237.842 137.707a3.343 3.343 0 01-1.627 0 3.522 3.522 0 011.627 0z" fill="#263238"/><path d="M244.003 137.63a36.689 36.689 0 01-5.284 0 35.038 35.038 0 015.284 0zM240.743 139.505c-2.13.127-4.265.127-6.395 0a51.298 51.298 0 016.395 0z" fill="#455A64"/><path d="M244.482 139.423c-.963.134-1.939.134-2.902 0a11.1 11.1 0 012.902 0z" fill="#8547C6"/><path d="M250.024 139.423c-1.6.134-3.209.134-4.809 0 1.6-.127 3.209-.127 4.809 0zM248.737 128.369c0 .054-.226.095-.498.095-.271 0-.497-.041-.497-.095 0-.055.222-.1.497-.1.276 0 .498.045.498.1z" fill="#263238"/><path d="M238.597 127.688a6.022 6.022 0 01-2.183 0 6.302 6.302 0 012.183 0z" fill="#8547C6"/><path d="M255.194 126.939h-20.231l.343-1.29h20.223l-.335 1.29z" fill="#F5F5F5"/><path d="M236.397 126.303c0 .06-.023.118-.066.16a.224.224 0 01-.319 0 .224.224 0 010-.321.225.225 0 01.319 0 .227.227 0 01.066.161zM237.138 126.303a.217.217 0 01-.065.156.242.242 0 01-.072.047.245.245 0 01-.169-.001.205.205 0 01-.117-.118.245.245 0 01-.001-.169.23.23 0 01.118-.121.222.222 0 01.306.206zM237.901 126.303a.227.227 0 01-.226.227.226.226 0 01-.226-.227c0-.06.024-.118.066-.161a.229.229 0 01.32 0 .231.231 0 01.066.161z" fill="#FAFAFA"/><path d="M213.209 135.496l2.888 8.735c.782 2.361 2.834 2.765 5.307 2.765h16.068v-3.632l-14.681-2.102-3.494-8.975-6.088 3.209zM239.235 142.624l1.275-.608s1.356-2.665 1.691-2.561c.334.105.406.908-.145 2.116l1.695-.486s3.67 1.707 3.507 1.934a.837.837 0 01-1.261.363c-.8-.408-1.848-.908-1.848-.908l-1.976.568 2.55.327 2.4 2.193a1.178 1.178 0 01-1.469-.037l-6.233 1.362-1.948.114v-3.632l1.762-.745z" fill="#FFBE9D"/><path d="M245.653 145.539c-.027 0-.144-.168-.366-.413a1.892 1.892 0 00-.452-.354 1.79 1.79 0 00-.669-.173 9.417 9.417 0 01-1.871-.322 8.903 8.903 0 011.894.127 1.588 1.588 0 011.207.631c.127.143.216.316.257.504zM244.678 145.789c-.023 0-.041-.127-.217-.164a9.29 9.29 0 00-.755-.1 6.24 6.24 0 01-1.099-.109 2.144 2.144 0 011.117-.086c.266.024.528.079.782.164a.312.312 0 01.19.195c.018.068-.005.104-.018.1z" fill="#EB996E"/><path d="M201.591 105.174l-.903 17.747 7.561.712.421-4.303s2.667.662 3.476-1.816c.519-1.58.981-13.988.981-13.988l-11.536 1.648z" fill="#FFBE9D"/><path d="M213.674 139.183l1.13 4.594 9.158-2.315c-.28-.881-2.712-6.442-5.18-12.662a10.685 10.685 0 00-3.209-4.362 10.615 10.615 0 00-4.927-2.217 45.682 45.682 0 00-7.508-.74c-4.398.046-10.093 1.903-10.961 6.234-.664 3.305.814 8.703.814 15.79l-1.04 14.887 21.845.744-2.21-13.066 2.088-6.887z" fill="#8547C6"/><path opacity=".2" d="M192.186 142.506c2.739.563 4.777-.799 7.571-.967 1.695-.1 3.575-.281 4.913.763 1.062.831 1.491 2.224 1.808 3.541.664 2.851 1.121 8.749 1.437 14.256a10.372 10.372 0 001.69 5.106 10.326 10.326 0 004.014 3.565c.873.454 3.164.454 3.192.749l-22.397.908-2.228-27.921z" fill="#000"/><path d="M213.019 102.382c-1.275-.704-2.767-.872-4.227-.908a9.829 9.829 0 00-1.934-.232s-5.876-.649-7.684 4.831a10.346 10.346 0 00-.416 1.816c0 .077 0 .149-.023.227a.14.14 0 010 .041h-.031v.122a8.148 8.148 0 01-.326 1.022c-.217.28-.459.54-.723.776-1.008.908-2.26 1.707-2.748 2.969-.371.908-.298 1.957-.312 2.956-.014.998-.145 2.074-.823 2.801-.492.526-1.193.794-1.771 1.226-1.591 1.198-1.944 3.545-1.356 5.448.189.631.452 1.28.33 1.92-.177.804-.963 1.389-1.04 2.206a1.705 1.705 0 00.881 1.562 3.267 3.267 0 001.808.373c.177-.007.354-.022.529-.046a2.94 2.94 0 01-.935 1.394 38.29 38.29 0 006.029.495l1.18-3.178 1.596 3.128c2.296-.086 4.601-.286 6.888-.486a6.972 6.972 0 01.176-5.943c.565-1.094 1.46-2.161 1.311-3.387-.199-1.684-2.323-2.923-1.903-4.567a1.89 1.89 0 01.411-.763 8.93 8.93 0 002.297-1.416c.754-.695.944-1.062.99-2.524a12.82 12.82 0 00.546-5.902l-.022-.15s1.654.277 1.754-.981c.184.043.376.043.56 0 0-.313.1-1.026.095-1.362.108.2.244.935.357 1.135.267-.05.556-.159.823-.204.257-1.557-.877-3.628-2.287-4.399z" fill="#263238"/><path d="M199.73 111.384s-.036.073-.126.209l-.398.572a9.227 9.227 0 00-1.184 2.27 4.84 4.84 0 00-.254 1.721c.042.668.249 1.316.602 1.884.433.639.714 1.369.822 2.134a3.138 3.138 0 01-1.057 2.211 19.654 19.654 0 00-1.714 1.689 3.561 3.561 0 00-.709 2.034c-.023.674.023 1.35.135 2.015.096.591.158 1.187.186 1.785a4.125 4.125 0 01-.629 2.497c-.134.195-.297.37-.483.517a.756.756 0 01-.208.132c.234-.205.441-.44.615-.699a4.098 4.098 0 00.537-2.443 15.954 15.954 0 00-.212-1.757 9.91 9.91 0 01-.158-2.056 3.758 3.758 0 01.741-2.171 20.81 20.81 0 011.731-1.707 2.911 2.911 0 00.995-2.038c-.027-.754-.452-1.407-.782-2.038a5.548 5.548 0 01-.452-.981 3.731 3.731 0 01-.172-.999 5.039 5.039 0 01.289-1.784 8.617 8.617 0 011.266-2.27c.185-.245.334-.431.452-.554.117-.123.163-.182.167-.173z" fill="#263238"/><path d="M228.622 207.986v-.667l-6.278.154.04 2.211h.385c1.731.059 8.786.168 9.944-.208 1.247-.404-4.091-1.49-4.091-1.49z" fill="#8547C6"/><path opacity=".4" d="M224.644 209.585a2.177 2.177 0 00-.827-1.322 2.102 2.102 0 00-1.473-.426l.04 1.757 2.26-.009z" fill="#fff"/><path opacity=".4" d="M231.233 208.609s1.872.499 1.646.812c-.226.313-7.363.454-10.514.263v-.14l8.326-.114s.176-.799.542-.821z" fill="#fff"/><path d="M222.271 209.539a.286.286 0 00.109 0h.312l1.134.023h3.752c1.464 0 2.793-.091 3.752-.145l1.134-.073.312-.023h.104H232.473l-1.134.046c-.959.041-2.287.09-3.752.122-1.464.032-2.789.037-3.752.037h-1.554l-.01.013z" fill="#263238"/><path d="M230.696 209.53c.048-.191.116-.377.203-.554.108-.164.234-.317.375-.454a.884.884 0 00-.452.409.86.86 0 00-.126.599zM228.833 208.627s.104-.096.19-.245c.086-.15.145-.273.127-.282-.018-.009-.104.095-.19.245-.086.15-.145.273-.127.282zM228.323 208.386s.108-.054.217-.154c.108-.1.176-.191.163-.209-.014-.018-.113.054-.217.154s-.181.177-.163.209zM227.988 207.787a.766.766 0 00.326.032c.181 0 .33 0 .325-.041-.004-.041-.144-.037-.325-.032a.685.685 0 00-.326.041zM227.871 207.369a.65.65 0 00.366.1.672.672 0 00.375-.059 2.078 2.078 0 00-.37 0 2.583 2.583 0 00-.371-.041z" fill="#263238"/><path d="M229.033 208.077c.133.024.269.024.402 0 .145-.021.287-.056.425-.104a1.1 1.1 0 00.244-.104.227.227 0 00.095-.128.157.157 0 00-.063-.163.738.738 0 00-1.026.513.25.25 0 000 .109 1.05 1.05 0 01.176-.35.681.681 0 01.339-.231.608.608 0 01.479.023c.064.045.041.122-.031.163-.07.042-.145.077-.222.104a3.266 3.266 0 01-.411.118c-.253.032-.407.037-.407.05z" fill="#263238"/><path d="M229.137 208.096s.063-.1.041-.282a.62.62 0 00-.118-.295.395.395 0 00-.339-.195.147.147 0 00-.097.068.147.147 0 00-.022.057.14.14 0 00.002.061.44.44 0 00.072.181c.054.087.12.167.194.237.131.122.231.168.235.158.005-.009-.081-.068-.194-.195a1.229 1.229 0 01-.176-.236c-.055-.086-.1-.236 0-.259.099-.022.203.087.266.168a.6.6 0 01.118.259c.015.09.021.181.018.273zM222.385 207.819h.452c.369.032.721.169 1.016.394.295.225.521.529.652.877.099.268.113.454.131.454a.387.387 0 000-.127 1.889 1.889 0 00-1.79-1.648 1.522 1.522 0 00-.344 0 .39.39 0 00-.117.05zM225.404 208.954c.298.061.601.084.904.068.304.008.608-.023.904-.091 0-.023-.411 0-.904 0-.492 0-.904 0-.904.023z" fill="#263238"/><path d="M224.191 208.976l.077.182c.041.095.068.177.091.172.022-.004.031-.099 0-.204-.032-.104-.168-.163-.168-.15zM223.703 208.413s.027.078.091.141c.063.064.135.105.149.091.013-.014-.027-.082-.095-.145-.068-.064-.109-.114-.145-.087zM223.035 208.164s.091 0 .181.045c.091.045.163.082.176.064.014-.019-.036-.1-.153-.137-.118-.036-.208.005-.204.028zM222.564 208.046c0 .022.027.054.082.072.054.018.099 0 .108 0 .009 0-.032-.054-.081-.072-.05-.019-.104-.019-.109 0zM219.808 186.553c-.064 0 .113-3.368.398-7.518.284-4.15.569-7.505.632-7.5.064.004-.113 3.369-.397 7.518-.285 4.15-.565 7.505-.633 7.5zM223.419 187.407a3.204 3.204 0 01-.068-.618c-.031-.454-.072-1.012-.122-1.693-.095-1.43-.235-3.405-.429-5.58a266.736 266.736 0 00-.565-5.57c-.077-.677-.136-1.24-.186-1.685a3.592 3.592 0 01-.04-.622c.066.198.11.402.131.609a99.41 99.41 0 01.895 7.245c.185 2.18.307 4.159.361 5.594.027.717.041 1.298.046 1.698.013.207.006.416-.023.622z" fill="#263238"/><path opacity=".2" d="M224.935 171.199a17.34 17.34 0 01-4.886 5.639 17.263 17.263 0 01-6.794 3.051c-1.017.199-2.134.295-3.033-.227-1.225-.718-1.605-2.32-1.587-3.746.018-1.426 0-3.36 0-4.717h16.3z" fill="#000"/><path d="M196.702 171.748c-.082.772-5.054 37.927-5.054 37.927l1.732.059 6.368-37.609-3.046-.377zM217.657 171.662c.073.763 5.424 38.136 5.424 38.136h-1.735l-6.645-37.555 2.956-.581zM210.762 138.547a5.817 5.817 0 00-1.683-4.073 5.772 5.772 0 00-4.048-1.711c-3.58-.027-7.63 0-8.588.214-1.672.345-3.313 1.23-4.199 2.697-.886 1.466-.904 3.309-.904 5.034l.09 21.86 19.436-.081-.104-23.94z" fill="#455A64"/><path d="M191.413 161.561c-.068 4.308.343 7.808 3.521 9.488 2.373 1.258 5.239 1.276 7.969 1.258l11.806-.064c1.193 0 2.477-.036 3.453-.69a3.37 3.37 0 001.325-3.314 6.25 6.25 0 00-1.808-3.242c-3.427-3.55-8.824-4.59-13.841-5.448" fill="#455A64"/><path d="M217.865 169.683c2.843-.191 1.505-4.291 1.433-8.858-.041-2.865-1.935-5.67-4.001-7.645a9.691 9.691 0 00-3.616-2.034 22.41 22.41 0 00-11.001-.708s-5.415 20.72 17.185 19.245zM198.261 175.035l20.064 9.23-.267.686-20.177-9.207.38-.709z" fill="#455A64"/><path d="M197.055 185.137l19.061-10.678.361.644-19.11 10.787-.312-.753z" fill="#455A64"/><path d="M231.113 188.696a1.915 1.915 0 01-.059-.345c-.031-.25-.072-.581-.126-.999-.1-.908-.244-2.138-.416-3.668-.33-3.124-.782-7.396-1.284-12.117l-.353-3.455a12.016 12.016 0 00-.641-3.133 4.91 4.91 0 00-1.704-2.27 6.822 6.822 0 00-2.26-1.067 13.76 13.76 0 00-3.616-.377h-.999a2.886 2.886 0 01-.348 0c.114-.025.231-.039.348-.04.226 0 .565-.037.999-.05a13.016 13.016 0 013.67.308 6.901 6.901 0 012.328 1.067 5.09 5.09 0 011.808 2.334 12.24 12.24 0 01.664 3.178c.118 1.117.24 2.27.362 3.459.452 4.722.904 8.999 1.216 12.122.14 1.535.257 2.788.339 3.677.036.418.063.754.081 1.004.011.124.008.249-.009.372zM213.277 123.488c0 .027-.248.082-.66.291a4.11 4.11 0 00-1.432 1.289 5.242 5.242 0 00-.931 2.688 9.927 9.927 0 00.574 3.491c.732 2.442 1.595 4.585 2.16 6.161l.687 1.857c.095.222.17.453.222.69a4.34 4.34 0 01-.308-.659 61.996 61.996 0 01-.755-1.816c-.605-1.557-1.496-3.695-2.232-6.151a9.92 9.92 0 01-.565-3.573 5.368 5.368 0 011.012-2.774c.395-.547.92-.984 1.528-1.272.163-.077.335-.136.511-.177a.826.826 0 01.189-.045zM213.868 110.776a7.452 7.452 0 01-2.639 0 7.452 7.452 0 012.639 0zM156.212 97.71c.144-1.653 1.215-3.35.519-4.858-.497-1.071-1.731-1.598-2.386-2.583-.958-1.435-.452-3.437-1.171-4.994a3.728 3.728 0 00-.75-1.063c.256.06.519.087.782.078a2.454 2.454 0 002.26-1.571 2.275 2.275 0 00-1.171-2.633 2.619 2.619 0 00-2.902.526 3.145 3.145 0 00-.904 2.397 15.745 15.745 0 00-2.572-.73l-10.057 1.743c.592 1.52-.23 3.178-1.035 4.608-.804 1.43-1.645 3.074-1.085 4.608.299.817.986 1.63.674 2.438-.158.418-1.076 1.916-1.243 2.334-1.293 3.25-.375 5.448.185 7.264 8.041 1.33 13.967 5.602 21.719 3.069 5.22-3.088-1.004-9.008-.863-10.633z" fill="#263238"/><path d="M110.176 115.548a10.052 10.052 0 01-1.532-.954 2.623 2.623 0 01-.637-.667 4.06 4.06 0 01-.547-1.017.357.357 0 00-.516-.251.35.35 0 00-.153.156c-.118.299.104 1.253.831 2.138.728.885-1.035.526-1.681.408-.646-.118-2.649-.395-2.843-.222-.285.25-.068.599.574.704.642.104 2.563.549 2.481.908-.081.358-3.344-.318-3.344-.318s-.678-.254-.782.136c-.186.699 3.34 1.135 3.674 1.167.235 0 .163.39-.09.354-.253-.036-3.241-.722-3.44 0-.153.545 2.893.386 3.435.872.543.485-2.323-.114-2.445.413-.05.195-.054.349 1.641.454.574.032 1.478 0 2.427-.046l4.8.159 1.506-4.39-3.359-.004z" fill="#FFBE9D"/><path d="M101.737 107.498c.072.382 9.04 12.939 9.04 12.939l-9.076 6.461-9.46-13.203 9.496-6.197z" fill="#8547C6"/><path opacity=".4" d="M101.737 107.498c.072.382 9.04 12.939 9.04 12.939l-9.076 6.461-9.46-13.203 9.496-6.197z" fill="#000"/><path d="M101.844 106.663c.077.386 9.04 12.939 9.04 12.939l-9.085 6.465-9.451-13.203 9.496-6.201z" fill="#8547C6"/><path d="M108.214 115.838l-.153 1.112 2.097 3.178.737-.526-2.681-3.764z" fill="#FAFAFA"/><path d="M102.347 113.296a22.195 22.195 0 01-3.865 2.488 11.196 11.196 0 011.872-1.362 11.505 11.505 0 011.993-1.126zM101.416 113.182c-.36.341-.77.622-1.216.836a4.604 4.604 0 01-1.356.631 4.67 4.67 0 011.22-.836c.415-.28.871-.493 1.352-.631z" fill="#263238"/><path d="M151.223 185.418l14.672 18.051 3.715-4.562-11.097-16.145-7.29 2.656z" fill="#FFBE9D"/><path d="M165.582 203.91l-.452-.414 4.276-5.048 1.835 1.689-.253.322c-1.153 1.403-5.967 7.055-7.056 7.718-1.212.699 1.65-4.267 1.65-4.267z" fill="#8547C6"/><path opacity=".5" d="M169.599 201.858a2.28 2.28 0 01-.452-1.571 2.22 2.22 0 01.687-1.453l1.356 1.248-1.591 1.776z" fill="#fff"/><path opacity=".5" d="M164.258 206.402s-.904 1.816-.506 1.866c.397.05 5.473-5.493 7.498-8.131l-.113-.091-5.876 6.501s-.732-.431-1.003-.145z" fill="#fff"/><path d="M171.205 199.969l-.068.091c-.063.077-.131.159-.203.254-.213.245-.452.554-.773.908a118.863 118.863 0 01-5.329 5.82l-.846.845-.235.227-.081.077s0-.032.072-.091l.222-.236.827-.863c.696-.731 1.654-1.743 2.712-2.878 1.058-1.135 1.966-2.179 2.635-2.937l.787-.908.216-.241c.032-.041.059-.073.064-.068z" fill="#263238"/><path d="M165.346 206.616a2.87 2.87 0 00-.57-.223 2.593 2.593 0 00-.61 0 1.059 1.059 0 011.18.232v-.009zM165.938 204.518h-.325a.761.761 0 01-.312-.095c0-.023.149 0 .325 0 .177 0 .317.072.312.095zM166.092 203.937c0 .023-.122.05-.271.063-.15.014-.276 0-.276 0s.117-.049.267-.063c.149-.014.275-.023.28 0zM165.885 203.265s-.073.141-.199.281c-.127.141-.24.246-.258.232-.018-.014.072-.141.199-.281.127-.141.221-.246.258-.232zM165.623 202.884a.704.704 0 01-.176.358c-.14.177-.294.273-.307.255-.014-.019.113-.137.244-.305.131-.168.217-.318.239-.308z" fill="#263238"/><path d="M165.366 204.3a1.182 1.182 0 01-.285.309c-.117.1-.244.188-.379.263a1.158 1.158 0 01-.249.118.24.24 0 01-.167 0 .15.15 0 01-.065-.067.154.154 0 01-.017-.092.777.777 0 011.112-.463.26.26 0 01.095.068 1.272 1.272 0 00-.398-.104.75.75 0 00-.415.109.658.658 0 00-.317.395c0 .082.068.118.154.091.081-.028.16-.063.235-.105.13-.074.255-.156.375-.245.203-.172.312-.277.321-.277z" fill="#263238"/><path d="M165.306 204.386s-.122 0-.244-.159a.677.677 0 01-.149-.295.465.465 0 01-.011-.213.467.467 0 01.088-.195.173.173 0 01.125-.03.174.174 0 01.11.066c.041.054.07.116.086.182.031.104.049.213.054.322a.643.643 0 01-.036.295v-.29a1.769 1.769 0 00-.068-.305c-.027-.104-.117-.24-.203-.177a.377.377 0 00-.054.327c.017.1.058.195.117.277.055.072.117.137.185.195zM169.794 198.852c-.112.117-.218.24-.317.368a2.063 2.063 0 00-.158 2.202c.14.263.271.399.262.408-.009.009-.04-.027-.099-.09a1.739 1.739 0 01-.213-.291 2.046 2.046 0 01-.266-1.158 2.03 2.03 0 01.705-1.366c.041-.073.081-.073.086-.073zM168.596 202.03c-.163.28-.36.537-.588.767a3.503 3.503 0 01-.709.65s.298-.314.651-.704c.352-.391.61-.713.646-.713z" fill="#263238"/><path d="M169.443 201.081c.022 0 .04.091.085.191.046.1.091.172.073.191-.018.018-.1-.046-.145-.164-.045-.118-.036-.218-.013-.218zM169.329 200.314s.041.077.046.172c.004.096 0 .178-.032.178s-.041-.073-.045-.173c-.005-.1.009-.177.031-.177zM169.595 199.615s-.05.082-.09.177c-.041.095-.05.181-.073.181-.022 0-.049-.099 0-.213.05-.113.149-.163.163-.145zM169.835 199.161v.113c0 .054-.054.095-.077.086-.022-.009 0-.059 0-.113 0-.055.054-.091.077-.086z" fill="#263238"/><path d="M126.365 200.073l-1.293 7.977h6.794l1.564-6.501-7.065-1.476z" fill="#FFBE9D"/><path d="M125.291 208.223l.022-.609 6.595-.027-.077 2.502h-.407c-1.808.036-9.216.054-10.396-.359-1.351-.436 4.263-1.507 4.263-1.507z" fill="#8547C6"/><path opacity=".5" d="M129.457 209.952a2.274 2.274 0 01.904-1.362c.444-.33.996-.481 1.546-.422l-.063 1.839-2.387-.055z" fill="#fff"/><path opacity=".5" d="M122.542 208.84s-1.971.495-1.74.831c.23.336 7.716.595 11.029.422v-.15l-8.733-.231s-.154-.845-.556-.872z" fill="#fff"/><path d="M131.926 209.939a.307.307 0 01-.113 0h-1.514c-1.008 0-2.4 0-3.937-.068a179.363 179.363 0 01-3.933-.205l-1.188-.09-.321-.032h-.113.438l1.189.063a178.182 178.182 0 007.865.277h1.514l.113.055z" fill="#263238"/><path d="M123.093 209.807a3.259 3.259 0 00-.204-.576 2.544 2.544 0 00-.393-.454.85.85 0 01.452.431.913.913 0 01.145.599zM125.06 208.89s-.109-.104-.199-.259a.698.698 0 01-.127-.299s.104.104.195.258c.065.089.11.192.131.3zM125.602 208.627s-.117-.055-.226-.164c-.108-.109-.185-.204-.171-.218.013-.013.117.055.226.164.108.109.185.204.171.218zM125.959 208.018a1.455 1.455 0 01-.688 0c.226-.054.462-.054.688 0zM126.108 207.583a.65.65 0 01-.389.099.612.612 0 01-.389-.068c.129-.009.259-.009.389 0 .129-.018.258-.029.389-.031z" fill="#263238"/><path d="M124.858 208.309a1.191 1.191 0 01-.421 0 2.218 2.218 0 01-.452-.114 1.08 1.08 0 01-.253-.118.214.214 0 01-.099-.131.155.155 0 01.008-.095.154.154 0 01.06-.073.77.77 0 01.949.259.746.746 0 01.126.29v.114a1.168 1.168 0 00-.176-.368.777.777 0 00-.353-.25.65.65 0 00-.501 0c-.068.046-.045.127.027.173.072.047.149.085.23.113.141.052.284.095.43.127.266.055.425.059.425.073z" fill="#263238"/><path d="M124.753 208.327a.425.425 0 01-.036-.295.674.674 0 01.122-.304.426.426 0 01.361-.204c.042.01.079.037.102.075.022.037.03.082.02.124a.436.436 0 01-.077.186 1.311 1.311 0 01-.207.25.765.765 0 01-.249.164s.086-.073.208-.205c.07-.076.132-.16.185-.249.059-.087.104-.246 0-.268-.104-.023-.217.086-.285.168a.699.699 0 00-.126.272c-.016.094-.022.19-.018.286zM131.859 208.136a4.863 4.863 0 00-.483 0 2.057 2.057 0 00-1.072.4 2.101 2.101 0 00-.696.908c-.108.277-.126.454-.14.454a.417.417 0 010-.132 1.81 1.81 0 01.086-.354 1.978 1.978 0 011.808-1.362 1.91 1.91 0 01.362.023c.09.041.135.054.135.063zM128.653 209.294a3.623 3.623 0 01-.958.055 3.526 3.526 0 01-.959-.118s.43.022.959.04c.528.019.958-.009.958.023z" fill="#263238"/><path d="M129.936 209.321s-.036.091-.085.191c-.05.1-.073.182-.095.182-.023 0-.032-.109.027-.218s.14-.182.153-.155zM130.443 208.736s-.031.081-.099.149c-.068.069-.14.109-.154.091-.013-.018.027-.081.1-.15.072-.068.14-.109.153-.09zM131.144 208.481c0 .023-.091 0-.19.05s-.167.082-.185.064c-.018-.018.045-.105.162-.141.118-.036.222.009.213.027zM131.645 208.386s-.031.05-.09.072c-.058.023-.103 0-.112 0-.009 0 .031-.054.09-.072.058-.018.103-.036.112 0zM137.747 136.059s-5.663 17.18-7.571 32.03c-1.907 14.85-4.651 35.258-4.651 35.258l7.906.499 12.068-40.183 7.779-11.06a23.449 23.449 0 004.113-16.162l-.266-2.32-19.378 1.938z" fill="#263238"/><path d="M137.666 139.755l4.14 34.268a16.104 16.104 0 004.068 8.88l14.916 16.458 5.239-6.411-13.705-21.869 3.074-34.427-18.492 3.528" fill="#263238"/><path d="M152.479 170.808a16.4 16.4 0 00-1.419 1.185 16.91 16.91 0 00-1.103 1.49 4 4 0 012.522-2.675z" fill="#455A64"/><path d="M152.225 171.063a10.83 10.83 0 01-1.46.127c-.483.083-.971.136-1.46.159a3.19 3.19 0 011.437-.391 3.12 3.12 0 011.483.105zM156.895 144.19a3.218 3.218 0 01-.064.391l-.094.454c-.041.186-.109.395-.177.631a15.09 15.09 0 01-1.839 3.745c-.968 1.499-2.319 3.133-3.752 4.949a29.532 29.532 0 00-2.084 2.978 35.661 35.661 0 00-1.808 3.455c-1.116 2.438-2.016 4.835-2.784 7.033-.768 2.197-1.401 4.195-1.935 5.87l-1.274 3.972c-.149.454-.271.809-.362 1.076-.036.127-.083.25-.14.368.02-.13.051-.257.095-.381.081-.268.185-.631.321-1.09l1.198-3.995a204.051 204.051 0 011.894-5.902 75.28 75.28 0 012.775-7.06 36.949 36.949 0 011.808-3.477 28.843 28.843 0 012.111-2.988c1.446-1.816 2.802-3.423 3.778-4.88a15.406 15.406 0 001.89-3.678c.077-.236.153-.454.199-.622.045-.168.085-.331.117-.454.029-.135.072-.267.127-.395z" fill="#455A64"/><path d="M136.908 104.679a27.078 27.078 0 00-.38 8.358c.52 4.994 2.26 10.746 2.26 10.746l-1.243 12.844 20.385-.264-3.882-15.077.904-3.468 2.382-13.62a9.4 9.4 0 00-6.017-2.216c-3.616.032-8.859 0-8.859 0s-4.004-.572-5.55 2.697z" fill="#8547C6"/><path d="M137.408 103.834l-7.557 11.35-18.378.259-.705 4.758s20.249 3.441 21.601 2.992c2.129-.695 5.943-5.834 5.943-5.834l-.904-13.525z" fill="#8547C6"/><path d="M147.203 118.562c.208.418 14.586 11.891 14.586 11.891l-8.334 10.396-15.143-12.058 8.891-10.229z" fill="#263238"/><path d="M147.041 117.059c.208.418 14.586 11.895 14.586 11.895l-8.335 10.392-15.142-12.058 8.891-10.229z" fill="#8547C6"/><path opacity=".4" d="M147.041 117.059c.208.418 14.586 11.895 14.586 11.895l-8.335 10.392-15.142-12.058 8.891-10.229z" fill="#000"/><path d="M146.901 116.07c.208.417 14.582 11.89 14.582 11.89l-8.331 10.397-15.146-12.063 8.895-10.224z" fill="#455A64"/><path d="M157.184 124.514l.189 1.33 3.436 2.96.673-.844-4.298-3.446z" fill="#FAFAFA"/><path d="M149.613 123.515a16.246 16.246 0 01-1.732 2.139 15.577 15.577 0 01-1.902 1.984 17.217 17.217 0 011.726-2.139 16.187 16.187 0 011.908-1.984zM148.523 123.692c-.32.503-.704.961-1.143 1.362a6.63 6.63 0 01-1.316 1.176 6.91 6.91 0 011.144-1.362c.384-.45.826-.845 1.315-1.176z" fill="#263238"/><path d="M148.939 136.99l3.933-3.296-1.903-4.567-2.649 2.415c-.62.167-1.254.278-1.894.332-.329.03-.66.005-.981-.073a4.644 4.644 0 01-1.157-.418.38.38 0 00-.601.4c.122.322.976.908 2.174 1.107 1.08.168-.14.967-.832 1.394a.287.287 0 00-.125.163.29.29 0 00.012.205c.367.831 1.781 3.518 4.023 2.338z" fill="#FFBE9D"/><path d="M138.479 122.126a2.44 2.44 0 01-.199-.499 19.838 19.838 0 01-.43-1.403 26.804 26.804 0 01-.836-4.772 21.581 21.581 0 01.158-4.839c.069-.485.166-.966.29-1.44a2.06 2.06 0 01.158-.513c.041 0-.136.754-.285 1.975a24.986 24.986 0 00-.086 4.799c.134 1.6.39 3.188.764 4.749.14.599.262 1.08.353 1.416.058.171.096.348.113.527z" fill="#263238"/><path d="M157.459 104.216s6.681 9.007 8.435 17.057c.551 2.537-14.613 14.582-14.613 14.582l-3.476-4.699 10.396-10.21s-4.914-8.912-5.167-11.709c-.303-3.142 2.346-5.634 4.425-5.021z" fill="#8547C6"/><path d="M153.97 104.42a3.787 3.787 0 00-1.094 1.335 4.48 4.48 0 00-.407 1.816 7.37 7.37 0 00.398 2.27 34.227 34.227 0 001.654 3.927c.479.981.805 1.575.773 1.593a1.979 1.979 0 01-.276-.39 26.3 26.3 0 01-2.373-5.058 7.125 7.125 0 01-.393-2.347 4.36 4.36 0 01.475-1.893c.202-.394.484-.742.827-1.021.12-.106.262-.185.416-.232zM161.152 121.005c-.027.068-.71-.15-1.578-.173-.868-.022-1.564.146-1.582.077a3.647 3.647 0 013.164.096h-.004z" fill="#263238"/><path d="M160.51 122.149c-.054.05-.452-.418-1.143-.758-.692-.341-1.284-.427-1.275-.5.481-.071.971.032 1.383.291.45.186.818.53 1.035.967z" fill="#263238"/><path d="M142.488 99.562s-2.888-.481-3.489-4.267c-.298-1.884-.203-4.994-.045-7.496a3.993 3.993 0 011.405-2.805 3.968 3.968 0 012.988-.922l6.541.694c.682.073.669.581.655 1.272l.411 17.07a4.24 4.24 0 01-1.243 2.974 4.202 4.202 0 01-2.969 1.23 4.203 4.203 0 01-2.96-1.223 4.24 4.24 0 01-1.253-2.958l-.041-3.569z" fill="#FFBE9D"/><path d="M139.936 90.25a.481.481 0 00.452.491.45.45 0 00.497-.454.482.482 0 00-.452-.49.45.45 0 00-.497.454zM139.624 89.406c.059.064.425-.209.945-.209s.904.264.958.2c.054-.063-.031-.14-.199-.263a1.285 1.285 0 00-.768-.236 1.247 1.247 0 00-.75.24c-.141.123-.217.241-.186.268zM145.02 90.25a.481.481 0 00.452.491.45.45 0 00.497-.454.482.482 0 00-.452-.49.45.45 0 00-.497.454zM144.735 89.502c.059.063.452-.21.949-.205.498.005.904.264.954.196.05-.069-.032-.141-.199-.264a1.35 1.35 0 00-.764-.236 1.258 1.258 0 00-.754.245c-.159.123-.213.236-.186.264zM142.833 93.379a3.292 3.292 0 00-.845-.155c-.131 0-.258-.04-.28-.131a.69.69 0 01.09-.395c.127-.323.253-.658.393-1.017.366-.86.661-1.748.882-2.656a17.59 17.59 0 00-1.094 2.579c-.131.358-.258.699-.375 1.026a.774.774 0 00-.068.522.329.329 0 00.217.195.86.86 0 00.226.032c.283.037.571.037.854 0z" fill="#263238"/><path d="M142.488 99.562a9.567 9.567 0 005.049-1.362s-1.225 2.602-4.999 2.27l-.05-.908zM143.067 94.636a.954.954 0 01.841-.35.865.865 0 01.592.323.547.547 0 01.041.622.635.635 0 01-.683.173 1.997 1.997 0 01-.664-.4.533.533 0 01-.149-.154.178.178 0 010-.195" fill="#EB996E"/><path d="M144.378 93.742c-.086 0-.086.563-.57.962-.483.4-1.085.341-1.089.423-.005.082.135.109.389.113.329.006.65-.106.904-.318.251-.198.413-.489.452-.808.018-.236-.046-.377-.086-.372zM144.501 88.59c.054.14.574.072 1.184.149s1.103.24 1.184.113c.082-.127-.049-.195-.248-.336a1.993 1.993 0 00-.882-.308 2.014 2.014 0 00-.904.109c-.244.09-.357.213-.334.272zM139.812 88.34c.091.117.452 0 .882 0 .429 0 .795.077.904-.046.108-.123-.023-.182-.181-.29a1.275 1.275 0 00-1.42.04c-.176.114-.226.236-.185.295z" fill="#263238"/><path d="M137.554 84.444a2.817 2.817 0 012.038-2.134c.665-.122 1.356.073 2.021.032.556-.036.759-.481 1.288-.658.904-.29 1.564-1.276 3.471-1.072.507.055 1.162.65 1.628 1.322.732-.314 1.695.027 2.219.258 1.094.454 1.776 1.712 1.989 2.965a12.36 12.36 0 01-.136 3.8c-.081.577-.163 1.153-.239 1.73a2.99 2.99 0 01-.308 1.098l.782 10.306c-3.164-.082-3.797-2.724-4.181-4.54-.334-1.593.547-3.219.407-4.84-.081-.966-.624-1.865-.624-2.837.007-.318.052-.633.136-.94-1.533-1.248-1.926-2.27-1.858-3.423a2.945 2.945 0 01-1.6.531c-.805 0-1.645-.304-2.4 0a4.147 4.147 0 00-1.356 1.094 1.955 1.955 0 01-1.528.709 3.948 3.948 0 01-.795-.282.969.969 0 00-.814 0 6.387 6.387 0 01-.14-3.119z" fill="#263238"/><path d="M95.872 120.31a4.208 4.208 0 00-1.442-.041c.986-.19 1.388-.454 1.356-.726-.036-.454-2.332-.227-3.403-.1.99-.1 1.972-.27 2.938-.509.506-.227-.09-.522-.656-.626-.565-.105-4.389-.277-5.473-.381a.635.635 0 01-.625-.453.645.645 0 01-.022-.274c.452-1.525-.036-2.946-.343-3.273-.308-.327-.855 0-.787.481a5.879 5.879 0 01-.144 1.603 3.804 3.804 0 01-.452 1.198c-.249.427-.48.781-.683 1.081l-14.97 12.076-2.147-1.884-4.728 5.616 3.684 3.532a4.086 4.086 0 005.596.059l14.68-13.543 5.551-1.938c1.433-.4 1.998-.668 1.907-.931-.126-.354-.063-.222-2.77.132 0 0 3.86-.541 2.933-1.099z" fill="#FFBE9D"/><path d="M91.725 121.536a7.016 7.016 0 001.867-.168 7.018 7.018 0 001.808-.413 14.096 14.096 0 00-3.693.581h.018zM91.447 120.483c.666.061 1.337.04 1.998-.064a8.073 8.073 0 001.97-.313 7.816 7.816 0 00-1.997.063 8.074 8.074 0 00-1.97.314zM91.371 119.488c.63.078 1.267.069 1.894-.027a7.273 7.273 0 001.871-.281 7.322 7.322 0 00-1.894.031 7.497 7.497 0 00-1.87.277z" fill="#EB996E"/><path d="M58.56 169.873c.077.799 5.659 39.812 5.659 39.812h-1.808l-6.925-39.212 3.074-.6zM70.454 167.744c2.974-.095 1.572-4.481 1.5-9.253-.045-2.991-2.025-5.924-4.185-7.985a10.111 10.111 0 00-3.788-2.125 23.447 23.447 0 00-11.49-.74s-.89 20.698 17.963 20.103zM89.83 184.229l-1.619-3.364-6.287 3.005 2.314 4.94.402-.159c1.781-.736 9.009-3.85 9.999-4.758 1.107-1.008-4.81.336-4.81.336z" fill="#455A64"/><path d="M84.072 188.714l.113-.041.317-.131 1.17-.495c.981-.427 2.328-1.031 3.806-1.734a114.22 114.22 0 003.747-1.862l1.121-.595.298-.168a.355.355 0 00.105-.063l-.109.05-.312.154-1.13.568c-.958.481-2.282 1.135-3.756 1.816-1.473.681-2.82 1.316-3.797 1.757l-1.12.544-.317.146c-.086.032-.136.05-.136.054z" fill="#263238"/><path d="M92.66 184.842a2.55 2.55 0 01-.046-.65 2.73 2.73 0 01.181-.626.95.95 0 00-.267.617.913.913 0 00.132.659zM90.337 184.778s.058-.15.085-.336a.768.768 0 000-.349c-.027 0-.063.149-.085.335a.772.772 0 000 .35zM89.699 184.778c.022 0 .09-.104.153-.254.064-.15.095-.277.073-.286-.023-.009-.09.104-.154.254-.063.15-.095.254-.072.286zM89.094 184.324s.167-.027.348-.113c.18-.087.325-.168.316-.191-.009-.023-.167.032-.348.113a.9.9 0 00-.316.191zM88.785 183.943a.703.703 0 00.416-.068.736.736 0 00.357-.227c0-.023-.176.068-.389.149-.132.038-.26.086-.384.146z" fill="#263238"/><path d="M90.291 184.129c.145-.042.28-.108.403-.195.137-.087.266-.188.384-.3a1.54 1.54 0 00.199-.218.26.26 0 00.04-.177.173.173 0 00-.14-.132.822.822 0 00-.813.99c.005.041.02.08.045.113a1.172 1.172 0 010-.454.827.827 0 01.469-.537.683.683 0 01.268-.048c.086 0 .095.104.045.181a1.106 1.106 0 01-.18.205 2.569 2.569 0 01-.367.308c-.208.177-.362.25-.353.264z" fill="#263238"/><path d="M90.4 184.102a.458.458 0 00-.086-.305.736.736 0 00-.253-.245.451.451 0 00-.452-.045.183.183 0 00-.036.245.53.53 0 00.154.15c.095.064.199.116.307.154a.669.669 0 00.312.055s-.118-.037-.29-.114a1.414 1.414 0 01-.284-.159c-.095-.059-.208-.195-.113-.263a.39.39 0 01.348.045.797.797 0 01.24.209c.061.085.112.176.153.273zM83.393 186.921s.171-.1.474-.204c.39-.132.81-.154 1.212-.064a2.21 2.21 0 011.057.599c.226.223.321.4.335.391a.453.453 0 00-.06-.127 2.032 2.032 0 00-.23-.309 2.12 2.12 0 00-2.337-.545 1.736 1.736 0 00-.338.173.501.501 0 00-.113.086zM82.8 183.984c.163.45.35.891.561 1.321.186.442.4.873.638 1.289-.163-.45-.35-.891-.56-1.321a11.74 11.74 0 00-.638-1.289zM86.996 186.68c.335-.07.66-.186.963-.345a3.9 3.9 0 00.904-.513c0-.022-.411.2-.904.454-.493.255-.967.382-.963.404z" fill="#263238"/><path d="M85.762 187.271c0 .022.077.068.162.145.086.077.15.145.172.136.023-.009 0-.118-.117-.2-.118-.081-.208-.104-.217-.081zM85.025 186.912s.064.068.159.1c.094.031.18.05.19.027.008-.023-.064-.068-.159-.105-.095-.036-.18-.045-.19-.022zM84.234 186.962s.1-.023.203-.032c.104-.009.2 0 .208 0 .01 0-.081-.082-.217-.068-.135.014-.207.082-.194.1zM83.701 187.048c0 .022.054.04.117.036.063-.005.109-.027.109-.05 0-.022-.055-.041-.118-.036-.063.005-.108.05-.108.05z" fill="#263238"/><path d="M71.76 207.805l-.068-3.732-6.965.082.04 5.448.452.022c1.921.087 9.782.296 11.06-.109 1.41-.44-4.52-1.711-4.52-1.711z" fill="#455A64"/><path d="M64.666 209.457h.461l1.27.041a124.787 124.787 0 008.358-.086l1.265-.063.344-.028a.386.386 0 00.117 0H76.038l-1.265.041c-1.067.032-2.545.073-4.177.091-1.632.018-3.11 0-4.176 0h-1.718l-.036.004z" fill="#263238"/><path d="M74.05 209.544c.055-.211.132-.415.231-.609a2.96 2.96 0 01.425-.49.907.907 0 00-.497.454.91.91 0 00-.158.645zM71.985 208.522s.117-.109.217-.272a.768.768 0 00.144-.313c-.022 0-.117.109-.217.268-.099.158-.167.304-.144.317zM71.416 208.227s.127-.054.244-.168c.118-.113.204-.209.185-.227-.018-.018-.122.059-.24.168a.865.865 0 00-.189.227zM71.055 207.573c.116.04.24.054.361.041.124.014.249 0 .366-.041a.814.814 0 00-.366-.045.809.809 0 00-.361.045zM70.928 207.11a.75.75 0 00.407.114c.141.022.287 0 .415-.064a2.264 2.264 0 00-.41-.022 1.83 1.83 0 00-.412-.028z" fill="#263238"/><path d="M72.215 207.932c.15.026.302.026.452 0 .161-.021.32-.058.474-.109.095-.029.186-.069.272-.118a.252.252 0 00.108-.141.17.17 0 00-.072-.177.81.81 0 00-1.008.25.783.783 0 00-.145.304.238.238 0 000 .123c.042-.14.11-.271.2-.386a.78.78 0 01.379-.254.7.7 0 01.533.027c.073.054.045.141-.036.186-.08.045-.162.083-.249.113a2.727 2.727 0 01-.452.123c-.289.018-.46.023-.456.059z" fill="#263238"/><path d="M72.32 207.932a.455.455 0 00.05-.313.739.739 0 00-.127-.327.445.445 0 00-.375-.227.177.177 0 00-.136.209.534.534 0 00.077.2c.06.1.133.192.217.272a.599.599 0 00.258.177s-.09-.082-.217-.222a1.848 1.848 0 01-.19-.268c-.063-.091-.104-.264 0-.286.104-.023.23.1.298.19.065.086.11.185.131.291.015.101.02.203.014.304zM64.79 207.542h.51a2.201 2.201 0 011.844 1.439c.109.299.122.499.136.499a.38.38 0 000-.141 1.834 1.834 0 00-.082-.376 2.156 2.156 0 00-1.89-1.49 2.055 2.055 0 00-.383 0 .385.385 0 00-.136.069z" fill="#263238"/><path d="M65.476 204.622c-.04.479-.056.959-.045 1.44-.014.48 0 .96.04 1.439.044-.479.06-.959.046-1.439.013-.481 0-.961-.04-1.44zM68.162 208.84a3.95 3.95 0 001.017.091c.341.011.683-.019 1.017-.091 0-.027-.452 0-1.017 0h-1.017zM66.795 208.84s.036.095.086.2c.05.104.072.2.095.195.022-.004.036-.109 0-.231-.036-.123-.168-.164-.181-.164zM66.272 208.218s.031.086.103.159c.073.073.145.118.163.104.018-.013-.031-.09-.104-.163-.072-.073-.144-.118-.162-.1zM65.54 207.932c0 .023.094.023.198.054.104.032.176.091.194.073.018-.018-.04-.109-.167-.15-.127-.041-.226.023-.226.023zM65.01 207.8c0 .023.031.055.085.077.055.023.113.023.122 0 .01-.022-.031-.059-.09-.077-.059-.018-.113-.022-.117 0z" fill="#263238"/><path d="M43.152 170.55l12.33-.068c1.248 0 2.59-.037 3.617-.722a3.526 3.526 0 001.383-3.46 6.484 6.484 0 00-1.894-3.387c-2.025-2.102-4.715-3.359-7.617-4.213l-9.238-29.31c-1.781-.154-3.59-.286-5.338.073-1.75.358-3.463 1.285-4.39 2.819-.926 1.535-.949 3.464-.944 5.28.033 7.264.063 14.542.09 21.833-.067 4.472.371 8.104 3.675 9.852.59.307 1.21.553 1.849.735-.068.795-5.325 39.857-5.325 39.857h1.808l4.249-25.102 10.581-5.974 10.988 4.994.28-.713-10.395-4.785 8.47-4.781-.38-.676-8.994 5.039-8.706-4.004.57-3.355c1.107.077 2.215.077 3.33.068zm3.928 7.772l-9.492 5.317 1.518-8.953 7.974 3.636z" fill="#455A64"/><path d="M37.605 126.375l3.137 15.727-.56 11.804 22.37-.726-2.116-13.121v-8.544l2.888 3.673 6.093-7.16-7.173-7.673a12.398 12.398 0 00-4.84-3.132 9.765 9.765 0 00-3.02-.581 12.107 12.107 0 01-7.3 0l-1.225.136h-.095a9.298 9.298 0 00-5.66 2.916 9.376 9.376 0 00-2.476 5.887l-.023.794z" fill="#E0E0E0"/><path d="M60.37 131.615a25.001 25.001 0 01-.118-3.401 25.076 25.076 0 01.118-3.405c.116 1.131.156 2.269.117 3.405a25.017 25.017 0 01-.117 3.401z" fill="#263238"/><path d="M45.879 116.782s-8.66.069-9.732 9.258l-.538 6.81 7.852-.155 2.418-15.913z" fill="#E0E0E0"/><path d="M35.61 132.863c.194-.031.39-.047.587-.045l1.64-.064 5.714-.159-.108.105c.085-1.312.176-2.747.27-4.245.105-1.685.231-3.296.313-4.749a8.065 8.065 0 00-.14-2.043 4.166 4.166 0 00-.715-1.603 2.58 2.58 0 00-2.197-1.076c-.313.026-.618.108-.903.241a.731.731 0 01.208-.136c.215-.111.45-.178.691-.195.384-.039.77.014 1.13.154.477.188.894.501 1.207.908.374.491.638 1.058.773 1.662a8.07 8.07 0 01.167 2.092c-.072 1.471-.19 3.074-.294 4.758-.1 1.499-.199 2.933-.285 4.245v.105h-.099l-5.718.072h-1.654c-.196.009-.393 0-.588-.027z" fill="#263238"/><path d="M49.023 122.462a12.142 12.142 0 01-1.772-1.221c-.6-.395-1.166-.84-1.69-1.33.648.3 1.256.683 1.807 1.139.61.397 1.166.872 1.655 1.412zM48.947 125.449a4.946 4.946 0 01-1.017 1.14c-.342.38-.74.707-1.18.967.28-.43.623-.814 1.017-1.14.342-.38.74-.706 1.18-.967zM53.743 128.028a3.799 3.799 0 01-.688-1.126 3.742 3.742 0 01-.452-1.226 7.283 7.283 0 011.14 2.352zM58.83 122.303a3.78 3.78 0 01-1.089.763 3.675 3.675 0 01-1.202.558c.313-.317.68-.575 1.085-.762a3.913 3.913 0 011.207-.559zM57.76 120.029a4.727 4.727 0 01-1.464-.223 4.743 4.743 0 01-1.405-.454 4.64 4.64 0 011.46.227c.49.074.966.226 1.41.45zM63.591 126.185a2.836 2.836 0 01.131-1.362c.086-.461.282-.894.57-1.262-.071.45-.186.893-.343 1.321a8.325 8.325 0 01-.358 1.303zM47.206 135.342a4.267 4.267 0 01-.976-1.017 4.325 4.325 0 01-.8-1.167 8.367 8.367 0 011.776 2.184zM51.446 132.2c-.06.032-.33-.349-.606-.853a2.432 2.432 0 01-.403-.967c.06-.032.33.349.606.853.276.504.484.936.403.967zM58.905 139.015a9.56 9.56 0 01-.85.994c-.248.358-.518.699-.809 1.022.092-.445.31-.854.628-1.176a2.364 2.364 0 011.03-.84zM65.387 128.16c.027.059-.294.259-.741.349-.448.091-.814.037-.814-.027 0-.063.348-.118.768-.204.42-.087.76-.177.787-.118zM40.807 123.143c.119-.372.307-.717.556-1.017.361-.527.696-.908.75-.908a2.915 2.915 0 01-.556 1.022c-.357.54-.696.939-.75.903zM38.873 124.469c-.06.027-.299-.377-.534-.908a2.419 2.419 0 01-.325-.999c.058-.027.302.377.538.908.18.304.29.646.32.999zM40.006 127.574a2.127 2.127 0 01-.954-.177c-.506-.154-.904-.336-.904-.4.326-.014.651.046.95.177.529.141.926.318.908.4zM42.393 126.816a2.893 2.893 0 01.027-1.135c.012-.383.101-.76.262-1.108.071.378.062.766-.027 1.14a2.85 2.85 0 01-.262 1.103zM40.132 130.929a2.98 2.98 0 01-1.071-.454c-.556-.304-.986-.599-.954-.658a2.84 2.84 0 011.067.454c.56.304.99.599.958.658zM52.26 121.409c-.068 0-.1-.373-.149-.827-.05-.454-.086-.821-.022-.84.063-.018.212.341.257.818.045.476-.022.853-.086.849zM58.153 128.605c-.054.036-.357-.364-.674-.886a2.766 2.766 0 01-.452-1.012c.06-.032.362.363.678.908.217.295.37.632.448.99zM49.656 151.037a3.313 3.313 0 01-.994-.745c-.506-.454-.904-.876-.84-.908.375.185.714.439.998.749.506.445.9.858.836.904zM53.855 148.594a5.809 5.809 0 01-2.08 1.094c.284-.278.618-.499.986-.649a2.98 2.98 0 011.094-.445zM58.34 149.657c-.046.05-.417-.218-.833-.6-.415-.381-.714-.731-.668-.776.045-.045.415.222.827.599.411.377.718.731.673.777zM54.14 142.102c.05.045-.135.318-.41.613-.277.295-.543.499-.588.454-.046-.045.14-.318.415-.613.276-.295.538-.522.584-.454zM43.736 137.753c-.068 0-.108-.4-.095-.886.014-.485.077-.876.14-.876.064 0 .109.4.095.885-.013.486-.076.877-.14.877z" fill="#8547C6"/><path d="M45.584 104.42c.045-.599-.488-1.426-.98-1.902a1.958 1.958 0 01-.543-2.084c.199-.74.664-.686.85-1.121.093-.339.13-.69.108-1.04a2.175 2.175 0 01.889-1.485 2.155 2.155 0 011.688-.358 3.007 3.007 0 01.954-1.473 2.985 2.985 0 014.565.896 2.292 2.292 0 012.997.805c.205.322.328.69.356 1.07a1.67 1.67 0 012.18.332 2.076 2.076 0 01.153 2.27 2.722 2.722 0 01-.83.869 2.694 2.694 0 01-1.123.424 3.946 3.946 0 01-2.346-.454 7.428 7.428 0 01-1.925-1.457" fill="#263238"/><path d="M51.938 97.383c1.482 0 2.905.584 3.962 1.627a5.69 5.69 0 011.693 3.948c.054 2.82.072 5.825-.068 6.697-.56 3.545-3.264 3.995-3.264 3.995s-.045 2.22-.054 4.331c0 2.011-1.745 3.677-3.887 3.723a3.65 3.65 0 01-2.668-.94 3.684 3.684 0 01-1.206-2.57l-.162-15.068a5.704 5.704 0 011.633-4.057 5.653 5.653 0 014.021-1.686z" fill="#FFBE9D"/><path d="M56.847 104.647a.456.456 0 01-.452.454.451.451 0 01-.452-.409.452.452 0 01.904-.045zM56.95 104.138c-.058.059-.401-.195-.903-.195s-.84.245-.904.186c-.063-.059.032-.136.185-.249.212-.146.462-.224.719-.223.254 0 .5.081.705.232.172.113.221.222.199.249zM51.98 104.647a.455.455 0 01-.452.454.452.452 0 01-.452-.409.451.451 0 01.904-.045z" fill="#263238"/><path d="M52.156 104.229c-.059.059-.402-.195-.904-.195s-.845.245-.904.186c-.059-.059.032-.131.19-.245.21-.149.462-.227.719-.222.253-.001.5.078.705.227.171.113.221.222.194.249zM53.923 107.857a3.43 3.43 0 01.79-.141c.127 0 .245-.041.267-.122a.686.686 0 00-.086-.373c-.117-.304-.24-.617-.366-.953a16.394 16.394 0 01-.827-2.488c.403.777.745 1.584 1.022 2.415.126.336.244.654.352.958.08.15.104.324.068.49a.318.318 0 01-.208.187.971.971 0 01-.208.027 3.185 3.185 0 01-.804 0z" fill="#263238"/><path d="M54.262 113.65a8.958 8.958 0 01-4.733-1.267s1.148 2.438 4.683 2.107l.05-.84z" fill="#EB996E"/><path d="M52.49 108.197c.077 0 .082.527.534.908.452.382 1.017.318 1.017.395 0 .078-.122.1-.362.109-.31.003-.61-.103-.85-.299-.23-.19-.38-.461-.416-.759-.017-.227.041-.358.077-.354zM52.283 102.309c-.05.136-.538.073-1.108.141-.57.068-1.035.227-1.112.104-.031-.054.05-.182.235-.309.248-.159.53-.259.823-.29.293-.035.59.001.868.104.208.091.312.186.294.25zM56.766 102.722c-.086.109-.42 0-.828 0-.406 0-.74.073-.822-.045-.081-.118 0-.168.167-.273a1.194 1.194 0 011.329.041c.145.109.19.223.154.277z" fill="#263238"/><path d="M46.731 104.37c-.05 0-2.038-.699-2.06 1.362-.023 2.061 2.051 1.666 2.056 1.607.004-.059.004-2.969.004-2.969z" fill="#FFBE9D"/><path d="M46.104 106.554s-.037.023-.095.05a.363.363 0 01-.272 0 .913.913 0 01-.402-.808c0-.177.037-.352.109-.513a.412.412 0 01.27-.273.18.18 0 01.212.1c.028.059.001.1.001.105 0 .004.045-.037.032-.123a.213.213 0 00-.081-.127.285.285 0 00-.2-.059.533.533 0 00-.379.318 1.243 1.243 0 00-.127.576.945.945 0 00.511.908.4.4 0 00.33-.05c.09-.054.09-.104.09-.104z" fill="#EB996E"/><path d="M58.023 100.892s-1.808.908-4.2-.304c-1.554-.78-3.367-1.162-3.77-.844-.401.318-.483 1.925-2.024 2.392 0 0 .104 3.079-1.117 2.965-1.22-.113-1.21-5.498-1.21-5.498l3.615-2.674 3.919-.313L56.4 97.91l1.75 1.325-.127 1.657z" fill="#263238"/><path d="M63.84 131.46c-.534-.39-2.64 2.506-2.54 1.612.099-.894 2.983-3.228 2.413-3.632-.741-.499-2.897 2.574-3.1 2.819-.204.245-.552-.045-.362-.258.28-.305 3.119-3.583 2.395-4.086-.402-.273-.813.513-.813.513s-2.436 3.268-2.77 3.023c-.335-.245 1.03-2.22 1.536-2.851.506-.631.416-1.126-.04-1.126-.308 0-1.904 1.893-2.392 2.529-.488.636-1.808 2.406-1.84.99v-.064c0-1.394-.451-2.465-.818-2.683a.487.487 0 00-.507.042.488.488 0 00-.189.475c.004.068.02.135.05.196 0 .027 0 .068.036.1.104.469.16.949.167 1.43.014.427-.044.854-.171 1.262-.15.454-.294.867-.42 1.198l-.213.255-11.797 6.701.32-6.856v-.272l-6.947.068-.13 9.144c-.018.906.071 1.811.266 2.696.298 1.362.782 2.593 1.939 3.369 2.64 1.766 6.898 1.23 9.248-.908l9.79-8.944 2.03-1.857a44.603 44.603 0 003.729-3.119c1.473-1.484 1.324-1.62 1.13-1.766z" fill="#FFBE9D"/><path d="M41.517 155.377s31.91-9.348 34.804-7.981c2.892 1.366 14.82 34.899 14.82 34.899l-9.157 4.472-11.648-28.602s-22.672 8.862-26.306 8.113c-3.634-.75-2.513-10.901-2.513-10.901z" fill="#263238"/><path d="M54.986 154.428c.452.15 17.949 5.902 19.164 8.172 1.216 2.27-.592 43.848-.592 43.848l-11.078.454.51-40.116-19.146-.468 11.142-11.89z" fill="#263238"/><path d="M43.734 166.314c.096 0 .192-.011.285-.032l.8-.145a96.668 96.668 0 002.93-.595 138.67 138.67 0 009.563-2.393 106.16 106.16 0 005.176-1.648 64.381 64.381 0 004.14-1.589c.588-.24 1.108-.476 1.564-.685.457-.209.845-.391 1.162-.549l.723-.368a1.49 1.49 0 00.249-.141 1.155 1.155 0 00-.267.1l-.741.327c-.32.151-.713.324-1.18.517-.452.196-.981.423-1.569.65-1.166.481-2.576.989-4.149 1.543-1.573.554-3.322 1.09-5.17 1.63a176.949 176.949 0 01-9.538 2.452l-2.91.663-.792.186c-.093.02-.185.045-.276.077zM74.412 171.612a2.32 2.32 0 00.09-.563c.04-.412.094-.929.163-1.553.059-.672.131-1.448.208-2.306.129-.946.129-1.905 0-2.851a4.443 4.443 0 00-1.433-2.465 7.47 7.47 0 00-1.957-1.258 14.434 14.434 0 00-1.451-.572 2.713 2.713 0 00-.551-.159c0 .041.759.309 1.934.876a7.563 7.563 0 011.885 1.267 4.272 4.272 0 011.356 2.352c.122.928.122 1.868 0 2.796-.063.854-.118 1.635-.163 2.307-.045.672-.068 1.144-.09 1.557-.016.191-.013.382.009.572z" fill="#455A64"/><path d="M50 169.015c2.974-.195 1.577-4.476 1.5-9.248-.045-2.992-2.02-5.925-4.181-7.986a10.181 10.181 0 00-3.788-2.124 23.4 23.4 0 00-11.49-.745S26.42 170.577 50 169.015zM53.14 144.15H86.26l4.895-16.653-23.3.159-5.411 15.254-9.302.141v1.099z" fill="#455A64"/><path d="M77.612 137.453a1.3 1.3 0 001.297-1.303 1.3 1.3 0 00-1.297-1.303 1.3 1.3 0 00-1.297 1.303 1.3 1.3 0 001.297 1.303z" fill="#fff"/><path d="M11.965 144.168v3.046h8.059v62.611h3.318v-58.371h98.106v58.339h3.304v-62.579h6.527v-3.046H11.965zm11.377 6.451v-3.405h98.106v3.405H23.342z" fill="#263238"/><path d="M102.311 128.282v2.452h18.283v-2.452h-18.283z" fill="#455A64"/><path d="M104.8 128.382a5.88 5.88 0 010 2.297 5.919 5.919 0 010-2.297zM104.412 128.332a5.88 5.88 0 010 2.297 5.695 5.695 0 010-2.297zM119.179 128.382a5.88 5.88 0 010 2.297 5.919 5.919 0 010-2.297zM118.781 128.332a5.88 5.88 0 010 2.297 5.88 5.88 0 010-2.297zM116.395 129.581c0 .063-2.097.113-4.678.113s-4.678-.05-4.678-.113c0-.064 2.093-.118 4.678-.118 2.586 0 4.678.054 4.678.118z" fill="#FAFAFA"/><path d="M102.166 139.246v4.908h18.283v-4.908h-18.283z" fill="#8547C6"/><path d="M120.684 142.778a.444.444 0 01-.1.055 5.172 5.172 0 01-1.541.495 3.154 3.154 0 01-2.012-.286 2.73 2.73 0 01-.958-.867 2.04 2.04 0 01-.33-1.417c.041-.27.157-.524.335-.731a.97.97 0 01.773-.349 1.101 1.101 0 01.773.417c.2.237.323.531.352.84a2.233 2.233 0 01-.628 1.739 2.795 2.795 0 01-1.758.863 4.637 4.637 0 01-2.039-.255 3.753 3.753 0 01-1.781-1.203 1.981 1.981 0 01-.416-1.062 1.373 1.373 0 01.389-1.099.901.901 0 01.574-.254c.211-.005.419.054.597.168.343.231.584.585.673.99a2.321 2.321 0 01-.723 2.165c-.58.491-1.3.786-2.057.84a5.04 5.04 0 01-2.133-.213 2.922 2.922 0 01-1.623-1.267 2.163 2.163 0 01-.203-1.948 1.014 1.014 0 01.746-.635 1.183 1.183 0 01.904.222 1.555 1.555 0 01.452 1.657c-.176.51-.489.961-.904 1.303a4.125 4.125 0 01-2.509.976 3.939 3.939 0 01-1.984-.454 4.053 4.053 0 01-1.04-.767 3.004 3.004 0 01-.217-.259c-.045-.059-.068-.09-.063-.095.384.429.844.783 1.356 1.044a3.975 3.975 0 001.944.404 4.015 4.015 0 002.404-.976c.397-.32.695-.746.859-1.23a1.358 1.358 0 00-.38-1.448.977.977 0 00-.768-.182.818.818 0 00-.597.522 1.977 1.977 0 00.199 1.757c.346.56.883.974 1.51 1.167a4.788 4.788 0 002.038.195 3.33 3.33 0 001.93-.785 2.08 2.08 0 00.651-1.939 1.357 1.357 0 00-.569-.844.693.693 0 00-.904.054 1.134 1.134 0 00-.321.908c.029.343.158.67.371.94.437.53 1.018.923 1.672 1.13a4.494 4.494 0 001.944.25 2.546 2.546 0 001.631-.79 2.047 2.047 0 00.592-1.58 1.176 1.176 0 00-.949-1.098.797.797 0 00-.637.286 1.362 1.362 0 00-.303.644 1.91 1.91 0 00.294 1.308c.229.348.539.635.904.835a3.146 3.146 0 001.939.313 5.715 5.715 0 001.234-.313c.133-.053.269-.1.407-.141z" fill="#FAFAFA"/><path d="M103.797 130.729v8.513h16.652v-8.513h-16.652z" fill="#263238"/><path d="M106.563 131.02c.114 1.371.151 2.747.113 4.122a37.232 37.232 0 01-.113 4.118 36.745 36.745 0 01-.117-4.118 36.823 36.823 0 01.117-4.122zM107.825 130.915c.117 1.359.156 2.723.118 4.086a35.938 35.938 0 01-.118 4.086 36.411 36.411 0 01-.113-4.086 36.418 36.418 0 01.113-4.086zM118.565 130.643a40.5 40.5 0 01.113 4.281c.038 1.43 0 2.86-.113 4.286a40.594 40.594 0 01-.113-4.286 40.233 40.233 0 01.113-4.281zM117.069 130.752c.113 1.388.151 2.78.113 4.172a38.207 38.207 0 01-.113 4.172 37.47 37.47 0 01-.117-4.172 37.713 37.713 0 01.117-4.172z" fill="#E0E0E0"/><path d="M187.633 35.725h-24.457v55.72h24.457v-55.72z" fill="#263238"/><path d="M186.499 36.978h-22.185v53.218h22.185V36.978z" fill="#FAFAFA"/><path d="M183.497 40.615h-16.321v46.122h16.321V40.615z" fill="#455A64"/><path d="M217.841 35.725h-24.458v55.72h24.458v-55.72z" fill="#263238"/><path d="M216.706 36.978h-22.185v53.218h22.185V36.978z" fill="#FAFAFA"/><path d="M213.704 40.615h-16.321v46.122h16.321V40.615zM43.436 39.126H18.98v55.719h24.457v-55.72z" fill="#263238"/><path d="M42.301 40.374H20.117v53.218h22.184V40.374z" fill="#FAFAFA"/><path d="M39.3 44.015H22.98v46.122H39.3V44.015z" fill="#8547C6"/></svg>