<svg width="367" height="245" fill="none" xmlns="http://www.w3.org/2000/svg"><path d="M59.297 101.812c-.802-44.943 15.938-64.4 37.19-71.339 21.251-6.938 44.088-3.748 57.457 14.166 7.976 10.687 11.607 20.041 16.021 32.63 4.414 12.587 10.765 25.479 22.269 32.202 15.067 8.786 34.097 4.444 50.72-.828 16.622-5.273 34.698-11.24 51.013-5.077 19.054 7.198 29.1 30.336 25.059 50.323-4.042 19.987-19.701 36.231-37.997 45.183-18.296 8.953-39.044 11.54-59.395 12.196-34.684 1.118-70.601-3.351-100.622-20.781-30.02-17.429-58.72-52.43-61.715-88.69" fill="#F5F5F5"/><path d="M347.167 215.781c0 .069-73.082.128-163.208.128-90.125 0-163.227-.059-163.227-.128 0-.068 73.068-.132 163.227-.132 90.16 0 163.208.059 163.208.132z" fill="#263238"/><path d="M90.243 166.747h-3.577v42.939h3.577v-42.939zM113.441 166.747H62.252a5.57 5.57 0 011.626-3.934 5.552 5.552 0 013.928-1.632h40.081a5.554 5.554 0 013.928 1.632 5.572 5.572 0 011.626 3.934z" fill="#455A64"/><path d="M91.597 166.855a18.74 18.74 0 01-3.141.132c-1.05.044-2.1 0-3.142-.132a18.635 18.635 0 013.142-.132c1.049-.044 2.1 0 3.141.132z" fill="#263238"/><path d="M104.11 213.576h-.489a15.268 15.268 0 00-4.556-10.609 15.225 15.225 0 00-10.675-4.371c-3.993 0-7.826 1.57-10.674 4.371a15.266 15.266 0 00-4.556 10.609h-.49a15.779 15.779 0 014.51-11.322 15.726 15.726 0 0125.843 5.207 15.76 15.76 0 011.116 6.115h-.029z" fill="#455A64"/><path d="M75.254 213.292a2.37 2.37 0 01-1.459 2.187 2.359 2.359 0 01-3.222-1.725 2.372 2.372 0 011.005-2.43 2.362 2.362 0 013.676 1.968z" fill="#263238"/><path d="M106.317 213.4a2.365 2.365 0 01-1.456 2.182 2.355 2.355 0 01-2.571-.512 2.367 2.367 0 01.358-3.634 2.356 2.356 0 012.978.294c.442.443.691 1.044.691 1.67zM103.958 209.686c0 .073-6.85.132-15.291.132s-15.292-.059-15.292-.132c0-.074 6.85-.133 15.292-.133 8.44 0 15.291.059 15.291.133zM61.088 124.235v31.61a7.513 7.513 0 002.192 5.307 7.491 7.491 0 005.3 2.199h24.324l-3.303-39.116a3.351 3.351 0 00-2.063-3.092 3.342 3.342 0 00-1.279-.255H64.425a3.338 3.338 0 00-3.337 3.347z" fill="#455A64"/><path d="M69.686 161.181a1.818 1.818 0 01-.274-.299 9.87 9.87 0 01-.7-.917 14.712 14.712 0 01-1.898-3.802 15.124 15.124 0 01-.65-2.871 26.888 26.888 0 01-.104-3.352v-7.708c0-5.458.03-10.397.04-14.004 0-1.774.029-3.219.039-4.243v-1.157a1.957 1.957 0 01.024-.401c.022.132.03.267.025.401v1.157c0 1.024.024 2.45.039 4.243 0 3.607 0 8.546.039 14.004v7.708c-.034 1.117 0 2.234.103 3.347a15.353 15.353 0 002.446 6.644c.274.417.49.735.661.946.171.211.215.299.21.304z" fill="#263238"/><path d="M82.926 161.087a5.001 5.001 0 01-.773.054l-2.104.054a501.33 501.33 0 01-6.954.088l-3.826.025a13.083 13.083 0 00-3.083.279 5.087 5.087 0 00-1.86.892c-.396.294-.572.515-.591.49-.02-.024.034-.059.122-.162a3.11 3.11 0 01.406-.406 4.789 4.789 0 011.879-.98 12.478 12.478 0 013.122-.343c1.174-.03 2.447-.03 3.827-.044h6.958l2.109.024c.256-.015.514-.005.768.029z" fill="#263238"/><path d="M137.14 107.677l-2.373 2.45-4.751-5.066 1.58-2.71c.083-.348.171-.735.255-1.171a4.766 4.766 0 00.029-1.558 7.337 7.337 0 00-.489-1.877c-.274-.524.215-1.117.69-.877.474.24 1.267 1.666 1.375 3.582.107 1.916 1.83-.524 2.446-1.401.617-.878 2.745-3.494 3.166-3.504.617 0 .749.657.088 1.519-.66.862-2.446 3.587-1.986 3.92a2.318 2.318 0 012.348 1.323c.407.862.852 2.083.431 2.612a30.219 30.219 0 01-2.809 2.758z" fill="#B78876"/><path d="M130.016 105.046l-17.063 14.068 6.851 9.584 14.964-18.58-4.752-5.072z" fill="#B78876"/><path d="M138.819 101.381a6.17 6.17 0 01-.847.951l-.978.98-.578.568a1.192 1.192 0 01-.851.426.59.59 0 01-.489-.269.814.814 0 01-.123-.49c.043-.3.184-.578.401-.789.308-.345.634-.672.979-.98.308-.3.655-.555 1.033-.76-.286.316-.59.613-.911.892-.278.275-.601.613-.939.98-.175.176-.29.402-.328.647a.433.433 0 00.357.49c.259-.029.496-.155.666-.353l.587-.563 1.013-.946a6.028 6.028 0 011.008-.784z" fill="#AA6550"/><path d="M139.46 102.616a5.588 5.588 0 01-.817.921l-.935.951c-.181.176-.352.362-.572.553a1.49 1.49 0 01-.387.235.649.649 0 01-.514 0 .74.74 0 01-.362-.867 1.65 1.65 0 01.445-.71c.309-.329.635-.64.979-.931.29-.289.62-.534.979-.73a9.842 9.842 0 01-.871.862c-.269.265-.587.583-.915.98a1.55 1.55 0 00-.377.612.49.49 0 00.225.574c.196.093.445-.039.641-.201s.382-.358.563-.529l.978-.907a5.82 5.82 0 01.94-.813z" fill="#AA6550"/><path d="M140.115 103.787c-.226.323-.487.62-.778.887l-.895.911c-.178.19-.373.362-.583.515a.91.91 0 01-.425.161.604.604 0 01-.49-.171.822.822 0 01-.137-.892 2.18 2.18 0 01.49-.642c.293-.313.603-.609.929-.887.29-.279.62-.513.979-.695a8.388 8.388 0 01-.837.828c-.259.25-.563.558-.881.916a2.155 2.155 0 00-.411.573.583.583 0 00.088.618.465.465 0 00.588 0c.199-.144.382-.309.548-.49l.934-.868c.266-.285.561-.542.881-.764zM134.699 106.742c.021-.241.061-.481.117-.716a3.815 3.815 0 00-.171-1.69 3.765 3.765 0 00-.92-1.431c-.318-.309-.558-.456-.538-.49a1.4 1.4 0 01.655.358c.479.382.84.891 1.043 1.47.203.581.24 1.207.107 1.808-.107.46-.264.705-.293.691z" fill="#AA6550"/><path d="M100.958 120.966l2.545 25.598-31.396.681.171-20.605-2.27-17.767c1.468-8.33 13.124-8.884 13.124-8.884l9.136-.147a16.068 16.068 0 018.984 1.995s9.297 5.056 9.185 17.894" fill="#8547C6"/><path d="M72.42 104.546c-2.74 2.622-5.382 7.884-4.403 18.429l14.601-.602-.41-14.426a4.907 4.907 0 00-1.885-3.724 6.096 6.096 0 00-7.902.323z" fill="#8547C6"/><path d="M102.955 142.899a1.411 1.411 0 01-.259.196 4.315 4.315 0 01-.852.397 6.656 6.656 0 01-3.425.132c-1.439-.26-3.034-.98-4.864-1.47a16.29 16.29 0 00-6.117-.382c-2.187.254-4.135 1.063-5.916 1.754a18.47 18.47 0 01-4.893 1.372 8.08 8.08 0 01-3.425-.333 5.77 5.77 0 01-.852-.387 1.3 1.3 0 01-.274-.177s.392.221 1.16.49a8.223 8.223 0 003.357.25 18.743 18.743 0 004.834-1.406c1.767-.706 3.744-1.534 5.965-1.794a16.352 16.352 0 016.21.407c.934.245 1.786.568 2.588.848.736.269 1.488.492 2.251.666a6.792 6.792 0 003.352-.049 6.638 6.638 0 001.16-.514z" fill="#FAFAFA"/><path opacity=".2" d="M72.143 142.717l.127.098a11.566 11.566 0 0012.14 1.171c1.468-.759 2.784-1.847 4.355-2.386 2.227-.759 4.664-.318 6.988.054 2.324.372 5.099.622 7.203-.436l-.274-3.229-30.461.794" fill="#000"/><path d="M103.01 213.973l-.073-3.057-8.168.279.05 4.777.489.035c2.24.127 11.421.49 12.923.044 1.693-.505-5.221-2.078-5.221-2.078z" fill="#8547C6"/><path opacity=".5" d="M97.767 215.914a2.909 2.909 0 00-.978-1.794 2.37 2.37 0 00-1.992-.549l.03 2.284 2.94.059z" fill="#fff"/><path opacity=".5" d="M106.385 214.86s2.447.706 2.119 1.103c-.328.396-9.59.377-13.701 0v-.182l10.838.118s.274-1.019.744-1.039z" fill="#fff"/><path d="M94.701 215.781h.543l1.468.069c1.248.044 2.975.088 4.894.098 1.918.01 3.635-.03 4.893-.069l1.468-.059h.543a.674.674 0 00-.142 0h-1.869c-1.253 0-2.975.045-4.893.035-1.918-.01-3.631-.039-4.894-.069l-1.468-.034h-.543v.029z" fill="#263238"/><path d="M105.661 216.036c.065-.245.159-.482.279-.706.142-.206.306-.396.489-.568a1.332 1.332 0 00-.783 1.274h.015zM103.248 214.811c.025 0 .142-.127.259-.314.118-.186.196-.347.172-.362-.025-.015-.137.122-.255.309a.968.968 0 00-.176.367zM102.608 214.458s.147-.063.289-.191c.142-.127.239-.245.22-.264-.02-.02-.147.068-.289.191-.142.122-.24.245-.22.264zM102.191 213.689c.28.065.572.065.852 0a1.063 1.063 0 00-.426-.054.898.898 0 00-.426.054zM102.051 213.15a.85.85 0 00.489.142.855.855 0 00.489-.064 2.424 2.424 0 00-.489-.034 3.209 3.209 0 00-.489-.044z" fill="#263238"/><path d="M103.543 214.101c.173.029.35.029.524 0 .189-.02.376-.06.557-.118a1.64 1.64 0 00.318-.132.27.27 0 00.128-.162.212.212 0 00-.008-.117.213.213 0 00-.071-.094.98.98 0 00-1.184.28.907.907 0 00-.171.348.34.34 0 000 .142c.053-.162.134-.313.24-.446a.897.897 0 01.445-.289.82.82 0 01.626.044c.084.059.049.157-.044.21a1.271 1.271 0 01-.293.128 3.226 3.226 0 01-.539.137c-.332.054-.528.049-.528.069z" fill="#263238"/><path d="M103.68 214.13a.534.534 0 00.059-.363.791.791 0 00-.142-.382.52.52 0 00-.435-.269.217.217 0 00-.162.24.663.663 0 00.088.235c.068.117.152.224.25.319a.715.715 0 00.298.21s-.102-.093-.249-.259a1.961 1.961 0 01-.215-.314c-.074-.113-.123-.309 0-.333.122-.025.264.117.342.225a.845.845 0 01.147.338c.015.117.022.235.019.353zM94.871 213.557c.2-.011.401-.011.602 0a2.55 2.55 0 012.129 1.705c.122.353.132.588.151.583a.46.46 0 000-.162 1.96 1.96 0 00-.088-.441 2.48 2.48 0 00-2.182-1.754c-.15-.016-.3-.016-.45 0-.103.044-.162.059-.162.069zM98.791 215.11c.39.09.79.131 1.19.122.398.021.798-.01 1.188-.093 0-.029-.533 0-1.189 0s-1.184-.029-1.189-.029z" fill="#263238"/><path d="M97.195 215.11s.044.113.098.235c.054.123.083.23.113.23s.044-.132 0-.269a.32.32 0 00-.21-.196zM96.6 214.365s.034.103.117.186c.083.084.166.142.186.123.02-.02-.034-.103-.118-.191-.083-.088-.166-.137-.185-.118zM95.737 214.017c0 .03.117.03.234.074.118.044.206.103.225.088.02-.015-.044-.132-.195-.181-.152-.049-.27-.005-.264.019zM95.125 213.856c0 .024.04.068.108.093.068.024.127.029.137 0 .01-.03-.035-.069-.103-.093-.069-.025-.132-.025-.142 0z" fill="#263238"/><path opacity=".3" d="M94.79 213.111l8.21-.343v-.333h-8.23l.02.676z" fill="#000"/><path d="M129.785 213.537l-.079-3.131-8.352.294.048 4.9.49.034c2.3.133 11.695.49 13.212.049 1.752-.539-5.319-2.146-5.319-2.146z" fill="#8547C6"/><path opacity=".5" d="M124.417 215.522a2.94 2.94 0 00-1.008-1.833 2.408 2.408 0 00-2.055-.539l.029 2.337 3.034.035z" fill="#fff"/><path opacity=".5" d="M133.24 214.448s2.476.721 2.168 1.127c-.308.407-9.816.388-14.01 0v-.186l11.094.123s.264-1.044.748-1.064z" fill="#fff"/><path d="M121.281 215.389h.142l.411.03 1.512.068a156.822 156.822 0 009.997.035l1.512-.059.411-.025h.147-.558l-1.512.03c-1.282 0-3.048.044-4.996.039a206.367 206.367 0 01-4.996-.074l-1.517-.034h-.411l-.142-.01z" fill="#263238"/><path d="M132.495 215.649c.072-.251.169-.494.289-.725.149-.212.321-.406.514-.578a1.35 1.35 0 00-.601.528 1.356 1.356 0 00-.202.775zM130.045 214.395c.025 0 .142-.128.265-.319.122-.191.2-.363.176-.377-.025-.015-.142.132-.264.323-.123.191-.201.358-.177.373zM129.369 214.037s.152-.069.294-.196.245-.25.23-.274c-.015-.025-.152.068-.294.196-.141.127-.249.249-.23.274zM128.949 213.248c.138.05.285.068.431.054.146.02.296.005.435-.044a.968.968 0 00-.43-.054.936.936 0 00-.436.044zM128.803 212.689a.819.819 0 00.489.142.838.838 0 00.489-.063 2.424 2.424 0 00-.489-.035 3.485 3.485 0 00-.489-.044z" fill="#263238"/><path d="M130.328 213.664c.176.035.357.035.534 0 .194-.024.385-.065.572-.122a1.57 1.57 0 00.328-.137.324.324 0 00.132-.162.213.213 0 00-.083-.216.979.979 0 00-1.214.285.994.994 0 00-.176.357.34.34 0 000 .142c.057-.163.14-.317.245-.455a.948.948 0 01.46-.294.802.802 0 01.636.044c.088.064.054.162-.044.22a2.022 2.022 0 01-.299.128c-.18.06-.365.108-.553.142-.332.044-.538.044-.538.068z" fill="#263238"/><path d="M130.466 213.694a.518.518 0 00.063-.373.809.809 0 00-.146-.392.538.538 0 00-.441-.274.21.21 0 00-.166.25.556.556 0 00.088.235c.07.12.155.231.254.328a.8.8 0 00.304.216s-.108-.093-.255-.265a1.978 1.978 0 01-.22-.323c-.073-.113-.122-.318 0-.343.123-.024.269.123.352.23a.882.882 0 01.152.348c.019.12.023.242.015.363zM121.457 213.111c.204-.011.408-.011.612 0 .489.061.953.254 1.341.558.383.313.672.725.836 1.191.128.358.138.598.157.593a.469.469 0 000-.167 2.084 2.084 0 00-.088-.45 2.543 2.543 0 00-2.236-1.794 2.21 2.21 0 00-.46 0c-.108.044-.167.059-.162.069zM125.465 214.713c.399.093.809.134 1.218.123.409.02.818-.011 1.219-.094 0-.029-.548 0-1.219 0-.67 0-1.213-.058-1.218-.029z" fill="#263238"/><path d="M123.836 214.703c0 .025.044.118.098.245.054.128.088.235.112.231.025-.005.044-.133 0-.275-.044-.142-.195-.22-.21-.201zM123.219 213.939s.034.103.122.191c.088.088.171.142.191.127.02-.014-.034-.107-.118-.196-.083-.088-.171-.142-.195-.122zM122.332 213.586c0 .029.117.025.24.069.122.044.21.107.23.093.019-.015-.049-.137-.201-.186-.152-.049-.269-.005-.269.024zM121.717 213.419c0 .025.039.069.107.094.069.024.133.029.142 0 .01-.03-.039-.069-.107-.098-.069-.03-.132-.025-.142.004z" fill="#263238"/><path opacity=".3" d="M121.369 212.655l8.402-.353v-.343h-8.421l.019.696z" fill="#000"/><path d="M122.788 146.863l-33.358-.422 6.968 15.705 19.133.147a2.416 2.416 0 012.397 2.318l2.056 48.02 12.903-.98-1.306-54.988a10.146 10.146 0 00-2.596-6.53 10.116 10.116 0 00-6.212-3.27h.015z" fill="#263238"/><path d="M91.088 163.43l1.419 49.612 16.001-1.141s-.885-46.795-2.079-59.643c-.823-8.791-34.322-5.013-34.322-5.013-.49 17.508 18.981 16.17 18.981 16.17" fill="#263238"/><path d="M90.898 159.549c.26 1.476.346 2.977.254 4.474a9.47 9.47 0 01-.26-2.23 9.696 9.696 0 01.006-2.244zM90.316 146.534c.095-.012.19-.012.284 0h.817c.71 0 1.733.054 3 .128 1.267.073 2.775.181 4.438.431 1.828.248 3.581.885 5.143 1.867.408.278.778.607 1.101.98.317.362.561.781.719 1.235.27.846.449 1.718.534 2.602a42.9 42.9 0 01.181 4.464v3.822c.011.094.011.189 0 .284a1.099 1.099 0 01-.044-.284c0-.187-.039-.461-.054-.814a94.458 94.458 0 01-.088-3.008c-.024-1.27-.049-2.779-.24-4.435a12.605 12.605 0 00-.528-2.543 4.284 4.284 0 00-1.733-2.068 12.99 12.99 0 00-5.03-1.823c-1.649-.259-3.151-.392-4.404-.49l-2.99-.21-.817-.069a1.794 1.794 0 01-.289-.069z" fill="#455A64"/><path d="M67.988 122.99c.085.011.17.011.255 0h.729l2.681-.098c2.266-.098 5.383-.245 8.843-.421l1.771-.093h.118v-.118c0-3.028-.035-5.704-.045-7.669 0-.935-.024-1.7-.034-2.268v-.613a.931.931 0 000-.215.573.573 0 00-.024.215v.613c0 .568-.025 1.333-.04 2.268 0 1.96-.024 4.641-.039 7.669l.113-.123-1.767.089c-3.454.181-6.576.357-8.842.49l-2.676.181-.725.059a.835.835 0 00-.318.034zM74.766 102.234a8.813 8.813 0 011.703-.054 6.04 6.04 0 013.61 1.734 7.155 7.155 0 011.855 3.592c.21 1.039.167 1.705.216 1.705.04-.152.056-.309.049-.465.01-.425-.021-.85-.093-1.269a6.936 6.936 0 00-1.85-3.739 5.935 5.935 0 00-3.773-1.735 4.645 4.645 0 00-1.272.089 1.254 1.254 0 00-.445.142zM100.975 109.608a7.264 7.264 0 00-.089 1.382v3.376c0 1.318.054 2.376.074 3.303V117.477c0-.926.044-2.058.073-3.307.03-1.25 0-2.396 0-3.229a7.428 7.428 0 00-.058-1.333z" fill="#263238"/><path d="M69.686 122.99l.347 14.416a5.489 5.489 0 002.15 4.066 5.467 5.467 0 004.485.996l21.761-6.027 1.634-8.061-20.351 3.92-.26-9.8-9.766.49z" fill="#B78876"/><path d="M77.412 135.813a1.284 1.284 0 01-.068-.691c.04-.566.226-1.113.538-1.587.313-.474.74-.862 1.243-1.127.386-.196.65-.235.66-.206a4.17 4.17 0 00-2.373 3.611z" fill="#AA6550"/><path d="M82.012 113.312v.172c-.03.166-.073.33-.127.49a4.191 4.191 0 01-.98 1.563 4.3 4.3 0 01-2.446 1.254 7.224 7.224 0 01-3.313-.49c-1.02-.41-2.089-.683-3.18-.813a4.4 4.4 0 00-2.54.627c-.52.307-.975.711-1.34 1.191-.26.343-.368.559-.387.544-.02-.015 0-.059.058-.162.07-.154.154-.302.25-.441a4.385 4.385 0 011.326-1.284 4.481 4.481 0 012.642-.71c1.115.116 2.209.387 3.25.803a7.228 7.228 0 003.2.49 4.236 4.236 0 002.339-1.151 4.48 4.48 0 001.023-1.47c.151-.382.2-.617.225-.613zM80.647 104.37c-.066.121-.152.23-.254.323a5.746 5.746 0 01-.837.745 7.184 7.184 0 01-7.051.892 5.935 5.935 0 01-.979-.519 1.141 1.141 0 01-.323-.255c.025-.039.49.289 1.38.607a7.559 7.559 0 006.885-.847c.754-.53 1.145-.946 1.18-.946zM107.849 109.76a4.2 4.2 0 00-.769-.75 4.262 4.262 0 00-2.769-.7c-1.238.068-2.603.725-3.983 1.617-.695.436-1.415.931-2.207 1.372a8.472 8.472 0 01-2.633 1.004 5.37 5.37 0 01-2.804-.265 13.092 13.092 0 01-2.334-1.176c-1.404-.867-2.706-1.621-3.914-1.813a4.053 4.053 0 00-2.804.49c-.3.199-.568.44-.798.716 0 0 .04-.088.147-.24.17-.216.37-.404.597-.559a4.026 4.026 0 012.887-.578c1.277.171 2.618.936 4.022 1.788.73.451 1.5.833 2.3 1.142.856.32 1.781.406 2.682.25a8.38 8.38 0 002.549-.98c.783-.431 1.497-.921 2.207-1.357 1.395-.887 2.804-1.549 4.096-1.598a4.294 4.294 0 012.838.799c.217.167.408.365.567.588a.97.97 0 01.123.25zM100.973 102.018a3.708 3.708 0 01-1.028.603 9.294 9.294 0 01-5.661.617 3.755 3.755 0 01-1.136-.367c1.312.264 2.654.349 3.989.249a14.784 14.784 0 003.836-1.102zM96.941 123.823s-.196-.171-.587-.407a4.046 4.046 0 00-1.84-.519 6.523 6.523 0 00-2.79.544c-1.012.392-2.06.98-3.244 1.47a11.553 11.553 0 01-6.395.818 7.19 7.19 0 01-1.88-.612 4.296 4.296 0 01-.489-.26c-.102-.064-.156-.098-.151-.108.806.371 1.656.639 2.53.799 2.131.283 4.299-.019 6.273-.872 1.16-.49 2.217-1.073 3.254-1.47a6.46 6.46 0 012.887-.49c.673.037 1.324.25 1.889.617.15.099.29.214.416.343.073.088.132.142.127.147z" fill="#FAFAFA"/><path d="M89.058 106.207a5.196 5.196 0 003.703-1.544 5.215 5.215 0 001.508-3.723c0-1.813-.049-3.381-.049-3.381s4.184-.387 4.492-4.532c.308-4.146.176-13.72.176-13.72a14.424 14.424 0 00-14.587.93l-.64.437.195 20.384a5.223 5.223 0 001.547 3.642 5.208 5.208 0 003.654 1.507z" fill="#B78876"/><path d="M94.23 97.51a9.607 9.607 0 01-5.304-1.872s1.091 3.068 5.25 2.94l.054-1.068z" fill="#AA6550"/><path d="M84.728 85.26c-.073-.025-2.618-.358-2.378 2.65.24 3.01 3.195 1.775 3.195 1.687 0-.089-.817-4.337-.817-4.337z" fill="#B78876"/><path d="M84.537 88.592s-.049.044-.132.093a.547.547 0 01-.391.04 1.306 1.306 0 01-.695-1.118 1.77 1.77 0 01.088-.764.603.603 0 01.362-.431.259.259 0 01.318.117c.05.079.034.142.05.147.014.005.063-.059.028-.181a.357.357 0 00-.132-.177.406.406 0 00-.298-.053.738.738 0 00-.49.49c-.107.27-.146.563-.112.852a1.354 1.354 0 00.866 1.24.55.55 0 00.49-.118c.048-.039.058-.132.048-.137z" fill="#AA6550"/><path d="M98.919 80.007c1.023-.25 1.39-1.783 1.355-2.837a2.944 2.944 0 00-1.727-2.45 3.763 3.763 0 00-3.068.05 3.319 3.319 0 00-3.349-2.71 3.31 3.31 0 00-3.194 2.89c-.097-.798-1.003-1.25-1.81-1.298a2.639 2.639 0 00-2.183.803 1.628 1.628 0 000 2.186 3.69 3.69 0 00-2.573.617 2.728 2.728 0 00-1.145 2.328 2.172 2.172 0 001.62 1.96c.303.063.381-.142.542.122.089.28.129.574.118.868-.058.95 0 1.905.171 2.842a1.148 1.148 0 011.468.646c.208.554.265 1.152.166 1.735.255.387.896.27 1.175-.098.239-.398.345-.861.303-1.323l.059-4.802a1.633 1.633 0 001.546 0 1.61 1.61 0 00.813-1.313 3.165 3.165 0 004.893-.593 7.458 7.458 0 001.576 1.044 2.532 2.532 0 001.84.161c.597-.206 1.438-.156 1.428-.793M97.798 85.931a.584.584 0 01-.562.588.552.552 0 01-.597-.524.584.584 0 01.558-.588.561.561 0 01.601.524zM97.924 85.26c-.073.073-.514-.25-1.14-.25-.627 0-1.082.314-1.15.24-.069-.073.04-.171.24-.318.27-.188.591-.287.92-.285.325-.002.643.101.905.294.196.167.26.319.225.319zM91.675 86.078a.583.583 0 01-.562.588.552.552 0 01-.588-.524.578.578 0 01.96-.446c.111.098.18.235.19.382z" fill="#263238"/><path d="M91.78 85.397c-.074.074-.514-.25-1.14-.25-.627 0-1.082.314-1.15.235-.07-.078.038-.166.24-.313.27-.188.59-.287.92-.284.325-.003.642.1.904.294.196.147.26.284.225.318zM94.044 90.037c.33-.102.672-.162 1.017-.18.162 0 .309-.05.338-.158a.8.8 0 00-.108-.49 33.56 33.56 0 00-.489-1.22 21.207 21.207 0 01-1.062-3.18c.521.992.962 2.024 1.317 3.087.156.431.308.838.45 1.225a.981.981 0 01.083.627.407.407 0 01-.264.236 1.19 1.19 0 01-.27.039 4.112 4.112 0 01-1.012.014zM92.205 90.469c.102 0 .107.676.685 1.156.577.48 1.306.412 1.311.49.005.079-.161.132-.49.142a1.701 1.701 0 01-1.09-.382 1.47 1.47 0 01-.529-.98c-.005-.245.069-.426.113-.426zM91.94 82.942c-.063.172-.684.088-1.418.177-.734.088-1.326.289-1.424.137-.044-.074.059-.23.298-.397.317-.208.68-.335 1.057-.372.374-.043.753.002 1.106.132.274.108.406.24.382.323zM97.694 83.467c-.112.142-.543 0-1.061 0-.52 0-.955.093-1.057-.054-.103-.147.024-.216.215-.353a1.5 1.5 0 01.861-.23c.305.004.6.103.847.284.18.137.244.284.195.353z" fill="#263238"/><path d="M80.975 79.135c.031.161.098.313.195.446.32.348.748.578 1.214.652.72.198 1.477.228 2.212.088.448-.107.86-.33 1.194-.647a1.386 1.386 0 00.45-1.343.657.657 0 00-.563-.43.445.445 0 00-.49.42 1.52 1.52 0 00.98 1.348 2.342 2.342 0 001.879 0 3.872 3.872 0 001.595-1.293 1.85 1.85 0 00.376-.98.736.736 0 00-.528-.745.939.939 0 00-.944.25 1.212 1.212 0 00-.265 1.004 2.049 2.049 0 001.586 1.47c.79.2 1.627.106 2.353-.264a3.144 3.144 0 001.586-1.735 1.196 1.196 0 00-.083-1.068.67.67 0 00-.89-.26.937.937 0 00-.446.887c.044.365.2.707.445.98a3.096 3.096 0 001.845 1.053c1.39.236 2.863-.612 3.215-1.813a1.157 1.157 0 00-.675-1.42.976.976 0 00-1.175.793 1.752 1.752 0 00.353 1.421c.278.364.663.633 1.1.77a1.984 1.984 0 002.036-.49c.345-.323.58-.747.671-1.21.027-.163.044-.327.053-.49a1.44 1.44 0 010 .49 2.278 2.278 0 01-.655 1.273c-.249.254-.557.44-.896.544a2.082 2.082 0 01-1.248 0 2.407 2.407 0 01-1.194-.808 1.926 1.926 0 01-.396-1.559c.067-.303.24-.573.49-.76a1.041 1.041 0 01.93-.18 1.356 1.356 0 01.821 1.66 2.724 2.724 0 01-1.311 1.588 3.27 3.27 0 01-2.148.402 3.321 3.321 0 01-1.992-1.127 2.024 2.024 0 01-.49-1.117 1.177 1.177 0 01.568-1.122.846.846 0 01.68-.079c.221.073.41.218.539.412a1.433 1.433 0 01.117 1.289 3.39 3.39 0 01-1.713 1.886 3.577 3.577 0 01-2.53.275 2.802 2.802 0 01-1.13-.584 1.862 1.862 0 01-.64-1.102 1.473 1.473 0 01.332-1.21 1.164 1.164 0 011.16-.26c.213.058.398.19.523.372.12.18.182.392.177.608a2.07 2.07 0 01-.426 1.093 4.14 4.14 0 01-1.703 1.367 2.56 2.56 0 01-2.055-.034 2.14 2.14 0 01-.783-.628 1.363 1.363 0 01-.299-.936.691.691 0 01.235-.45.636.636 0 01.49-.133.827.827 0 01.709.559 1.545 1.545 0 01-.49 1.519c-.357.33-.796.56-1.272.666a4.887 4.887 0 01-2.27-.127 2.123 2.123 0 01-1.233-.72.915.915 0 01-.147-.348.364.364 0 01-.03-.113z" fill="#455A64"/><path d="M87.262 136.436h37.957l6.259-24.275h-31.67l-5.01 22.692-7.536.176v1.407z" fill="#E0E0E0"/><path d="M277.134 208.627h3.577v-42.938h-3.577v42.938z" fill="#455A64"/><path d="M253.596 167.629h51.189a5.567 5.567 0 00-3.429-5.138 5.535 5.535 0 00-2.125-.424H259.15a5.553 5.553 0 00-5.554 5.562z" fill="#263238"/><path d="M275.445 167.742c2.09.17 4.189.17 6.278 0a37.179 37.179 0 00-6.278 0z" fill="#263238"/><path d="M263.26 212.518h.49a15.259 15.259 0 014.556-10.609 15.218 15.218 0 0121.349 0 15.268 15.268 0 014.556 10.609h.489a15.772 15.772 0 00-4.509-11.322 15.733 15.733 0 00-11.226-4.714 15.712 15.712 0 00-11.225 4.714 15.755 15.755 0 00-4.509 11.322h.029z" fill="#455A64"/><path d="M292.131 213.302a2.369 2.369 0 001.459 2.186 2.363 2.363 0 003.088-3.092 2.367 2.367 0 00-3.089-1.282 2.354 2.354 0 00-1.28 1.281 2.372 2.372 0 00-.178.907z" fill="#263238"/><path d="M261.039 212.974a2.37 2.37 0 001.457 2.19 2.358 2.358 0 002.578-.512 2.367 2.367 0 00-3.344-3.349 2.366 2.366 0 00-.691 1.671zM263.418 208.627c0 .074 6.851.132 15.292.132 8.441 0 15.291-.058 15.291-.132 0-.073-6.85-.132-15.291-.132s-15.292.059-15.292.132z" fill="#455A64"/><path d="M306.292 123.176v31.61c0 1.991-.79 3.9-2.196 5.308a7.49 7.49 0 01-5.301 2.199h-24.324l3.303-39.117a3.353 3.353 0 01.979-2.366 3.326 3.326 0 012.363-.981h21.834a3.347 3.347 0 013.342 3.347z" fill="#263238"/><path d="M297.689 162.067l.059-.093.176-.259a33.8 33.8 0 00.671-.98 16.633 16.633 0 001.81-4.028 16.03 16.03 0 00.602-2.989c.101-1.167.134-2.338.098-3.509v-8.08c0-5.723.029-10.902.039-14.7 0-1.862.03-3.376.039-4.449v-1.21a2.838 2.838 0 01.025-.422c.014.141.014.282 0 .422v1.21c0 1.073.024 2.587.044 4.449 0 3.778 0 8.957.034 14.7v8.08a29.552 29.552 0 01-.122 3.533 16.296 16.296 0 01-.636 3.019 15.88 15.88 0 01-1.904 4.028c-.293.436-.533.764-.709.98a2.246 2.246 0 01-.226.298z" fill="#455A64"/><path d="M284.449 162.082c.256-.039.515-.054.773-.044l2.105-.024h6.958c1.355 0 2.652 0 3.826.044 1.051-.018 2.1.098 3.122.343a4.867 4.867 0 011.879.98c.148.124.284.262.407.411.088.098.132.152.122.157-.01.005-.196-.191-.592-.49a5.021 5.021 0 00-1.86-.887 12.816 12.816 0 00-3.082-.284l-3.827-.025c-2.716 0-5.172-.049-6.953-.083l-2.105-.059a4.346 4.346 0 01-.773-.039z" fill="#455A64"/><path d="M296.368 130.506c-.572-4.738-1.331-8.775-1.331-8.775h-10.246s1.272 6.007.978 7.403c-.244 1.211-20.116 2.019-25.293 2.098-.309-.231-.759.156-1.155-.191a4.041 4.041 0 01-.881-1.088 6.306 6.306 0 01-.709-1.607.537.537 0 00-.411-.458.538.538 0 00-.568.232c-.206.446.029 1.926 1.013 3.352.983 1.426-1.595.686-2.54.436-.944-.25-3.914-.897-4.208-.662-.45.348-.166.907.783 1.137.949.23 3.743 1.127 3.592 1.632-.152.505-4.943-.858-4.943-.858s-.978-.46-1.174.118c-.352 1.044 4.844 2.097 5.339 2.185.347.064.2.618-.167.534-.367-.083-4.751-1.47-5.118-.406-.284.808 4.267.906 5.02 1.71.754.803-3.425-.431-3.684.353-.093.294 1.654.431 4.164.784 2.577.247 5.167.338 7.756.274 5.823.323 26.394.745 30.789.436 5.118-.362 3.19-7.012 2.994-8.639z" fill="#FFBE9D"/><path d="M235.222 105.933s-2.824-2.886-3.372-2.999c-.548-.112-5.838-2.773-5.838-2.773a.906.906 0 00.157 1.352c.783.623 2.633 1.745 2.633 1.745l-1.307 2.582s1.253 4.19 1.468 4.106c.215-.083.441-.823.441-.823l-.397-1.323 2.559 2.141 1.111-.127 2.545-3.881z" fill="#FFB29D"/><path d="M233.044 104.546c-.616-.24-1.212-.53-1.781-.867l-1.395-.372.157-.108c-.022.424.11.842.372 1.176.387.49.872.894 1.424 1.186l.093.049-.034.093a3.129 3.129 0 00-.059 1.96c.137.49.289.73.264.745a1.592 1.592 0 01-.396-.701 3.077 3.077 0 01-.03-2.078l.059.142a4.355 4.355 0 01-1.527-1.244 1.966 1.966 0 01-.411-1.348v-.147l.142.039 1.385.417c.605.308 1.186.661 1.737 1.058z" fill="#EB9078"/><path d="M228.316 105.884a15.206 15.206 0 001.097 3.214 2.45 2.45 0 00.489-1.024" fill="#FFB29D"/><path d="M229.912 108.074c.007.404-.14.795-.411 1.093l-.103.137-.083-.161a10.043 10.043 0 01-.46-1.034 6.163 6.163 0 01-.539-2.225c.074 0 .323.98.774 2.132.146.382.293.735.425 1.033l-.186-.024c.22-.3.415-.618.583-.951z" fill="#EB9078"/><path d="M229.986 103.958c.215.337.38.704.489 1.088.155.412.257.842.303 1.279a3.254 3.254 0 01-.225 1.612c-.094.217-.217.42-.367.603l-.127.147-.083-.177a12.735 12.735 0 01-.822-2.298 3.261 3.261 0 01-.162-.98c.069 0 .377 1.426 1.209 3.156h-.211c.134-.164.244-.345.328-.539a4.063 4.063 0 000-2.739 9.023 9.023 0 01-.332-1.152z" fill="#EB9078"/><path d="M235.222 105.933l20.053 13.593-5.852 7.325-16.726-17.062 2.525-3.856z" fill="#FFB29D"/><path d="M256.523 213.15l-.098-4.939 9.234-.25.225 7.222-.573.054c-2.544.211-12.952.887-14.68.417-1.903-.544 5.892-2.504 5.892-2.504z" fill="#8547C6"/><path opacity=".5" d="M262.531 215.179a3.204 3.204 0 011.126-2.004 3.085 3.085 0 012.138-.731l.073 2.583-3.337.152z" fill="#fff"/><path opacity=".4" d="M252.715 214.228s-2.725.867-2.373 1.313c.352.446 10.897.152 15.541-.382l-.024-.206-12.292.446s-.313-1.161-.852-1.171z" fill="#fff"/><path d="M266.006 214.943h-.156l-.455.04-1.679.117c-1.414.088-3.376.186-5.539.25s-4.125.074-5.544.064l-1.679-.025h-.616a.582.582 0 01.156 0H252.633c1.419 0 3.376-.034 5.544-.098 2.168-.063 4.12-.147 5.534-.215l1.679-.084h.455a.697.697 0 01.161-.049z" fill="#263238"/><path d="M253.571 215.541a3.685 3.685 0 00-.332-.794 3.954 3.954 0 00-.593-.627c.291.099.534.301.686.569.182.244.267.548.239.852zM256.259 214.081c-.025 0-.162-.137-.299-.348-.137-.211-.235-.392-.21-.407.024-.014.161.138.303.348.142.211.23.392.206.407zM256.997 213.664c0 .025-.172-.068-.333-.205-.162-.138-.279-.275-.26-.294.02-.02.172.068.333.205.162.138.279.27.26.294zM257.442 212.778c0 .034-.211.068-.49.078-.164.023-.331.01-.489-.039a1.12 1.12 0 01.489-.074c.164-.024.331-.012.49.035zM257.589 212.17a.967.967 0 01-.533.171.92.92 0 01-.558-.058c.181-.035.364-.053.548-.054.179-.036.361-.056.543-.059z" fill="#263238"/><path d="M255.921 213.282a1.62 1.62 0 01-.597 0 3.72 3.72 0 01-.636-.122 1.86 1.86 0 01-.362-.137.337.337 0 01-.152-.182.232.232 0 01.004-.133.228.228 0 01.079-.107 1.088 1.088 0 011.556.671c.03.103.03.157 0 .162a1.505 1.505 0 00-.284-.49 1.096 1.096 0 00-.489-.318.93.93 0 00-.705.068c-.093.074-.053.182.054.245.108.055.221.1.338.133.2.06.405.108.611.142.358.058.583.054.583.068z" fill="#263238"/><path d="M255.77 213.317a.613.613 0 01-.079-.412.943.943 0 01.152-.436.591.591 0 01.49-.319.24.24 0 01.19.27.696.696 0 01-.093.269 1.765 1.765 0 01-.269.368.901.901 0 01-.333.25s.113-.113.27-.304c.095-.11.176-.232.239-.363.079-.127.128-.352 0-.377-.127-.024-.298.142-.386.265a.972.972 0 00-.157.387 2.25 2.25 0 00-.024.402zM265.747 212.42s-.265 0-.681.044a2.872 2.872 0 00-2.363 1.994c-.132.402-.137.667-.162.667a.732.732 0 010-.187c.016-.165.046-.329.088-.49a2.86 2.86 0 01.901-1.401 2.8 2.8 0 011.531-.647 2.23 2.23 0 01.49 0c.156-.005.196.01.196.02zM264.684 208.598c.079.629.123 1.262.132 1.896.041.633.041 1.268 0 1.901a32.084 32.084 0 01-.152-3.797h.02zM261.343 214.306a5.06 5.06 0 01-1.341.172 5.312 5.312 0 01-1.356-.069c0-.034.607 0 1.351-.044s1.341-.088 1.346-.059z" fill="#263238"/><path d="M263.152 214.257c.025 0-.044.128-.102.27-.059.142-.088.26-.118.26-.029 0-.054-.143 0-.304.054-.162.201-.25.22-.226zM263.814 213.385s-.034.123-.127.221-.186.161-.211.142c-.024-.02.035-.118.127-.221.093-.103.186-.162.211-.142zM264.777 212.973c0 .03-.127.03-.264.084-.137.054-.23.127-.254.108-.025-.02.048-.152.215-.211.166-.059.313-.01.303.019zM265.467 212.768c0 .029-.039.078-.118.112-.078.035-.147.035-.156 0-.01-.034.039-.078.117-.112.078-.035.147-.03.157 0z" fill="#263238"/><path d="M234.224 186.69l2.123-4.41 8.348 3.964-3.063 6.542-.533-.216c-2.364-.98-11.95-5.072-13.271-6.272-1.453-1.357 6.396.392 6.396.392z" fill="#8547C6"/><path opacity=".5" d="M238.652 191.262a3.192 3.192 0 011.909-1.274c.76-.18 1.56-.066 2.241.318l-1.106 2.337-3.044-1.381z" fill="#fff"/><path opacity=".4" d="M230.329 185.97s-2.823-.461-2.71.098c.112.558 9.649 5.071 14.029 6.698l.078-.196-11.167-5.174s.245-1.196-.23-1.426z" fill="#fff"/><path d="M241.857 192.629l-.128-.059-.425-.167-1.547-.656a173.238 173.238 0 01-5.054-2.284 170.11 170.11 0 01-4.972-2.45l-1.468-.779-.401-.22-.137-.084c.051.016.1.037.146.064l.411.201 1.503.75c1.272.632 3.029 1.499 4.986 2.425 1.957.926 3.743 1.735 5.035 2.313l1.537.686.416.191.098.069z" fill="#263238"/><path d="M230.5 187.528c.05-.283.07-.571.059-.858a3.698 3.698 0 00-.245-.828c.217.217.344.507.358.814.051.302-.01.612-.172.872zM233.553 187.445a1.052 1.052 0 01-.113-.446 1.025 1.025 0 010-.461c.035 0 .083.196.113.446.029.25.034.456 0 .461zM234.39 187.405c-.03 0-.118-.137-.201-.333-.083-.196-.127-.367-.098-.382.029-.015.118.137.201.338.083.201.137.368.098.377zM235.203 186.817a1.1 1.1 0 01-.49-.147c-.24-.112-.426-.225-.416-.254.01-.03.22.039.465.151.162.053.312.138.441.25zM235.609 186.332a.943.943 0 01-.553-.088c-.294-.113-.49-.279-.49-.304.17.05.334.118.49.201.189.047.374.111.553.191z" fill="#263238"/><path d="M233.617 186.582a1.835 1.835 0 01-.538-.26 3.458 3.458 0 01-.49-.397 1.908 1.908 0 01-.264-.289.318.318 0 01-.054-.23.227.227 0 01.054-.116.228.228 0 01.108-.07 1.084 1.084 0 011.081.867.966.966 0 010 .441c0 .098-.044.152-.054.152a1.652 1.652 0 00-.024-.578 1.149 1.149 0 00-.318-.515.925.925 0 00-.661-.259c-.117.024-.132.142-.063.24.072.099.154.191.244.274.152.148.316.284.49.407.283.215.494.313.489.333z" fill="#263238"/><path d="M233.465 186.543a.586.586 0 01.113-.402.962.962 0 01.333-.323.581.581 0 01.577-.064.236.236 0 01.049.323.648.648 0 01-.206.201 1.891 1.891 0 01-.406.206.828.828 0 01-.411.069s.152-.044.382-.147c.133-.058.26-.13.377-.216.127-.078.274-.255.151-.343a.523.523 0 00-.465.059.985.985 0 00-.313.279 1.94 1.94 0 00-.181.358zM242.767 190.262s-.23-.137-.627-.274a2.923 2.923 0 00-1.608-.075 2.925 2.925 0 00-1.406.785c-.294.299-.421.534-.44.524a.477.477 0 01.083-.171c.086-.146.188-.282.303-.407a2.804 2.804 0 013.093-.73c.16.06.312.137.455.23.088.069.151.113.147.118zM243.545 186.371c-.21.598-.457 1.182-.739 1.75a15.409 15.409 0 01-.841 1.705 16.27 16.27 0 01.739-1.749c.245-.586.526-1.155.841-1.706zM237.987 189.948a4.989 4.989 0 01-1.277-.455 5.324 5.324 0 01-1.175-.677c0-.029.548.265 1.223.574.676.308 1.238.529 1.229.558z" fill="#263238"/><path d="M239.626 190.723c0 .029-.102.093-.215.196-.112.102-.196.191-.225.176-.029-.015 0-.152.152-.265.151-.112.279-.137.288-.107zM240.605 190.247c0 .03-.083.089-.21.138-.128.049-.24.058-.255.029-.015-.029.088-.088.215-.137.128-.049.24-.059.25-.03zM241.651 190.316c0 .024-.127-.03-.269-.044-.142-.015-.265 0-.279 0-.015 0 .112-.113.288-.093.177.019.284.112.26.137zM242.361 190.443c0 .035-.073.054-.157.049-.083-.005-.142-.039-.142-.068 0-.03.069-.049.152-.044.083.005.147.034.147.063zM295.262 121.569a50.234 50.234 0 01-5.348.162 50.85 50.85 0 01-5.353-.123c3.564-.202 7.136-.215 10.701-.039z" fill="#263238"/><path d="M295.121 122.088l-1.957-9.863c-1.468-8.071-12.747-8.629-12.747-8.629l-8.867-.142s-6.577-.887-10.633 3.694c-4.199 4.743-9.356 10.344-9.356 10.344l3.914 9.923 9.332-7.708a9.532 9.532 0 00-1.253 4.483c0 2.632 2.74 3.842 2.74 3.842l.837 8.002-2.769 12.926 28.963-1.161a28.881 28.881 0 00-4.272-12.187l.539-13.519 5.529-.005z" fill="#8547C6"/><path d="M263.783 122.368c.077-.454.193-.9.348-1.333.122-.407.274-.892.46-1.426.093-.265.195-.544.313-.828.063-.157.147-.289.186-.417.043-.137.061-.282.054-.426a6.582 6.582 0 00-.137-.906c-.059-.301-.113-.59-.162-.868-.093-.529-.176-1.019-.254-1.47a6.28 6.28 0 01-.167-1.372c.167.431.289.877.362 1.333.098.446.201.936.318 1.47.053.278.111.567.177.867.075.323.124.65.146.98.009.176-.014.352-.068.52-.059.176-.142.308-.196.436-.122.279-.225.549-.328.813l-.489 1.397c-.141.43-.329.842-.563 1.23z" fill="#263238"/><path opacity=".2" d="M283.025 113.704c.362 5.503.573 10.57.681 16.077a4.09 4.09 0 002.065-.646c.283-2.352-1.468-9.502-2.746-15.431z" fill="#000"/><path d="M293.409 146.51s-37.865-7.943-41.535-6.203c-3.67 1.739-20.552 43.61-20.552 43.61l13.614 5.88 14.65-35.56s26.512 9.697 31.141 8.732c4.629-.965 2.682-16.459 2.682-16.459z" fill="#455A64"/><path d="M276.472 148.73c-.583.191-22.485 9.207-24.031 12.108-1.547 2.9 2.25 51.028 2.25 51.028h12.483l-.773-42.777 24.315-6.169-14.244-14.19z" fill="#455A64"/><path d="M290.835 163.018a1.594 1.594 0 01-.358-.044l-1.017-.181c-.886-.162-2.163-.417-3.734-.75a180.944 180.944 0 01-12.189-3.023 145.621 145.621 0 01-6.597-2.088 75.825 75.825 0 01-5.28-2.018 47.663 47.663 0 01-1.991-.863c-.582-.264-1.082-.49-1.468-.701l-.925-.465a1.457 1.457 0 01-.313-.181c.117.028.23.071.338.127l.949.421c.406.187.91.407 1.497.652.587.245 1.253.534 2.002.823 1.468.608 3.288 1.255 5.289 1.96 2.002.706 4.238 1.382 6.592 2.063 4.707 1.353 9.023 2.386 12.155 3.102l3.709.838 1.008.23c.114.021.225.054.333.098zM252.461 171.892a3.515 3.515 0 01-.112-.72c-.059-.52-.127-1.181-.211-1.96-.083-.779-.171-1.843-.269-2.94a13.184 13.184 0 010-3.626 5.669 5.669 0 011.821-3.136 9.603 9.603 0 012.49-1.608c.769-.352 1.41-.573 1.85-.73.226-.091.46-.158.7-.201 0 .049-.979.392-2.447 1.113a9.871 9.871 0 00-2.398 1.617 5.49 5.49 0 00-1.717 2.999 13.891 13.891 0 000 3.552c.078 1.088.151 2.083.21 2.94.059.858.088 1.47.118 1.96.016.247.004.495-.035.74zM263.393 167.761a8.883 8.883 0 012.936 1.299 4.866 4.866 0 01-1.532-.52 4.684 4.684 0 01-1.404-.779z" fill="#263238"/><path d="M264.489 166.443c.35.452.677.921.979 1.406.563.755 1.135 1.279 1.081 1.343a4.48 4.48 0 01-2.074-2.749h.014z" fill="#263238"/><path d="M269.274 168.418s-.039.103-.196.196a1.432 1.432 0 01-.719.171 8.363 8.363 0 00-1.038.025.722.722 0 00-.616.794c0 1.832-.073 3.337-.157 3.332a18.726 18.726 0 01-.132-3.347c.001-.257.085-.506.24-.711a.982.982 0 01.621-.328 6.21 6.21 0 011.082.034c.314.027.63-.031.915-.166z" fill="#263238"/><path opacity=".2" d="M266.285 140.042l25.812 2.078-1.101-2.891-24.456-.353-.255 1.166z" fill="#000"/><path d="M266.951 80.36c-1.894.612-4.091 1.872-3 7.806.489 2.611 1.086 5.272 2.833 7.266a1.245 1.245 0 001.013.559c.282-.079.529-.251.7-.49 1.987-2.166 3.68-4.729 4.218-7.62.538-2.89-.269-6.154-2.545-8.016" fill="#263238"/><path d="M270.6 106.105c-.064-2.73-.176-5.655-.176-5.655s-4.15-.524-4.331-4.763c-.181-4.238-.22-11.667-.22-11.667l8.098-6.002 5.687 7.84.141 20.09a4.607 4.607 0 01-2.831 4.286 4.6 4.6 0 01-6.368-4.129z" fill="#FFB29D"/><path d="M270.404 100.45a10.095 10.095 0 005.491-1.803s-1.292 3.087-5.422 2.842l-.069-1.039zM270.776 95.51a.495.495 0 01.036-.497.487.487 0 01.453-.208.782.782 0 01.793-.69.885.885 0 01.802.72 1.025 1.025 0 01-.45 1.004 1.216 1.216 0 01-1.115.083.882.882 0 01-.563-.666" fill="#EB9078"/><path d="M266.861 89.342a.577.577 0 00.563.583.55.55 0 00.409-.136.563.563 0 00.188-.389.588.588 0 00-.558-.588.556.556 0 00-.602.53zM266.735 88.69c.073.078.489-.25 1.14-.25.651 0 1.081.319 1.15.24.068-.078-.039-.171-.24-.318a1.628 1.628 0 00-.92-.285c-.325 0-.642.103-.905.294-.196.142-.274.28-.225.319zM272.984 89.489a.578.578 0 00.563.583.556.556 0 00.543-.311.564.564 0 00.054-.214.588.588 0 00-.777-.56.559.559 0 00-.383.502zM272.88 88.803c.073.073.514-.25 1.135-.25.622 0 1.086.313 1.155.24.068-.074-.039-.172-.24-.319a1.632 1.632 0 00-.905-.274 1.557 1.557 0 00-.905.294c-.211.137-.274.274-.24.309zM270.6 93.443a4.06 4.06 0 00-1.013-.181c-.161 0-.313-.05-.337-.157a.8.8 0 01.107-.49c.147-.387.304-.794.49-1.215a21.25 21.25 0 001.061-3.185c-.52.993-.96 2.027-1.316 3.091-.156.427-.308.834-.45 1.225a.927.927 0 00-.083.628.39.39 0 00.264.23.978.978 0 00.269.04c.334.05.673.054 1.008.014zM272.451 93.879c-.098 0-.103.671-.68 1.156-.578.486-1.307.407-1.312.49-.005.084.162.133.489.142.398.004.784-.13 1.092-.382.297-.244.487-.596.528-.98-.01-.264-.068-.43-.117-.426zM272.601 87.406c.059.167.685.088 1.419.176.734.089 1.326.29 1.424.138.039-.074-.063-.236-.298-.397a2.369 2.369 0 00-1.057-.373 2.307 2.307 0 00-1.111.133c-.269.108-.421.24-.377.323zM266.965 86.872c.113.142.543 0 1.062 0s.979.093 1.057-.054c.044-.073 0-.215-.22-.348a1.441 1.441 0 00-.857-.235c-.304.005-.6.104-.846.284-.181.137-.245.284-.196.353z" fill="#263238"/><path d="M275.881 87.063a3.26 3.26 0 002.06-.735c.377.98.367 2.107.709 3.117.343 1.009 1.15 5.184 2.207 5.027.979-.147 1.654-4.356 1.904-5.302.68-2.626-.176-5.512-1.913-7.59-2.07-2.45-5.515-4.562-8.715-4.332a7.193 7.193 0 00-3.979 1.397s-1.727 1.338-1.585 3.038c.2 2.376 3.66 3.92 6.033 3.832l.343.328a4.096 4.096 0 002.936 1.22z" fill="#263238"/><path d="M265.83 86.284a3.504 3.504 0 001.184-1.896c.17-.742.262-1.499.274-2.26 0-.22-.024-.49-.234-.558-.211-.068-.377.157-.49.343a7.316 7.316 0 00-.748 4.591c.044-.044-.142.118-.098.074M281.155 103.88a5.01 5.01 0 001.654-4.327c-.152-1.22-.754-2.381-.695-3.606.044-.98.489-1.857.812-2.778a9.646 9.646 0 00.367-4.675c-.21-1.235-.709-2.494-1.727-3.224-1.018-.73-2.618-.71-3.367.289l-.362.113a10.186 10.186 0 001.292 10.834 5.555 5.555 0 00.093 7.452 6.091 6.091 0 00-.763 6.091l.034.074a5.365 5.365 0 00-.181 7.154 5.302 5.302 0 00-1.801 3.101 2.894 2.894 0 001.497 2.999 3.43 3.43 0 00-.463 4.738c.364.461.841.821 1.383 1.044a10.671 10.671 0 011.747-1.426 1.772 1.772 0 01-.802-.774c.393.286.869.436 1.355.426l-.587-2.665a3.468 3.468 0 00-.489-1.372.471.471 0 00-.069-.079 3.19 3.19 0 001.522-1.651c.529-1.367.162-2.94-.543-4.229.744-1.533 1.468-3.146 1.468-4.851a5.185 5.185 0 00-.489-2.249 6.388 6.388 0 001.052-3.43 3.275 3.275 0 00-1.938-2.979z" fill="#263238"/><path d="M280.617 117.247a1.416 1.416 0 01-1.135.422 1.44 1.44 0 01-1.15-.388c.034-.068.519.147 1.145.133.626-.015 1.106-.236 1.14-.167zM281.717 111.176a9.79 9.79 0 00-2.447 2.102 10.153 10.153 0 00-1.409 2.886 2.564 2.564 0 01.147-.955 6.366 6.366 0 012.804-3.646 2.33 2.33 0 01.905-.387zM281.228 110.343a1.783 1.783 0 01-2.236 0c.034-.069.489.142 1.121.137.631-.005 1.081-.201 1.115-.137zM281.992 109.515a6.526 6.526 0 00-2.353-4.743c.261.09.499.239.695.436a5.049 5.049 0 011.727 3.489 1.76 1.76 0 01-.069.818zM281.366 103.189c.059.034-.201.441-.729.647-.529.206-.979.088-.979 0s.426-.074.886-.255.758-.441.822-.392zM279.845 103.473a1.727 1.727 0 01-.539-.901 3.924 3.924 0 01.113-2.534 6.693 6.693 0 011.38-2.121c.22-.274.478-.513.768-.71a5.031 5.031 0 01-.631.827 7.849 7.849 0 00-1.277 2.097 4.091 4.091 0 00-.181 2.387c.103.325.225.644.367.955zM281.601 96.613a2.05 2.05 0 01-2.281-.465c.044-.059.49.215 1.121.338.631.122 1.145.044 1.16.127zM283.558 89.876c-.366.104-.749.13-1.126.078a5.43 5.43 0 01-4.404-2.91 2.66 2.66 0 01-.372-1.069c.039 0 .176.397.529.98a5.851 5.851 0 004.281 2.823c.661.093 1.092.054 1.092.098z" fill="#455A64"/><path d="M283.182 92.394s-.093.113-.323.211c-.337.13-.702.163-1.057.098a5.073 5.073 0 01-2.877-1.872 6.416 6.416 0 01-1.39-3.15 5.255 5.255 0 01-.049-1.049 1.21 1.21 0 01.059-.382c.049 0 0 .549.166 1.401a6.832 6.832 0 001.414 3.019 5.244 5.244 0 002.706 1.857c.454.093.925.047 1.351-.133zM282.276 84.638a2.014 2.014 0 01-.489.23 5.27 5.27 0 01-1.434.328 5.926 5.926 0 01-2.212-.215 5.743 5.743 0 01-2.446-1.377l.127.03a6.391 6.391 0 01-1.727.337 6.533 6.533 0 01-3.328-.686 6.361 6.361 0 01-2.138-1.783 6.017 6.017 0 01-.915-1.637 4.42 4.42 0 01-.152-.49c0-.113-.034-.171 0-.176a8.407 8.407 0 001.228 2.185 6.3 6.3 0 005.314 2.328 6.303 6.303 0 001.659-.319h.074l.054.049a5.706 5.706 0 002.309 1.348 6.09 6.09 0 002.139.264 8.66 8.66 0 001.937-.416z" fill="#455A64"/><path d="M280.386 81.222c-.158.05-.323.079-.489.084-.328.039-.802.083-1.39.137l-2.06.166c-.849.082-1.705.082-2.554 0a8.654 8.654 0 01-4.277-1.73 7.821 7.821 0 01-1.032-.95 1.822 1.822 0 01-.309-.411c.035-.035.49.539 1.468 1.22a9.055 9.055 0 004.199 1.617c.833.07 1.672.07 2.505 0l2.07-.113c.587-.03 1.067-.049 1.395-.054.159-.007.318.004.474.034zM280.608 122.779a1.583 1.583 0 01-1.238.534 1.549 1.549 0 01-1.292-.382c.422.073.849.116 1.277.128a9.41 9.41 0 001.253-.28z" fill="#455A64"/><path d="M279.623 123.529a4.95 4.95 0 01.069-.769 5.26 5.26 0 00-.201-1.804 5.291 5.291 0 00-.832-1.612c-.288-.372-.489-.568-.489-.602.244.109.457.278.621.49a4.353 4.353 0 011.072 3.557 1.607 1.607 0 01-.24.74z" fill="#455A64"/><path d="M296.368 130.506c-.572-4.738-1.331-8.775-1.331-8.775h-10.246s1.272 6.007.978 7.403c-.244 1.211-20.116 2.019-25.293 2.098-.309-.231-.759.156-1.155-.191a4.041 4.041 0 01-.881-1.088 6.306 6.306 0 01-.709-1.607.537.537 0 00-.411-.458.538.538 0 00-.568.232c-.206.446.029 1.926 1.013 3.352.983 1.426-1.595.686-2.54.436-.944-.25-3.914-.897-4.208-.662-.45.348-.166.907.783 1.137.949.23 3.743 1.127 3.592 1.632-.152.505-4.943-.858-4.943-.858s-.978-.46-1.174.118c-.352 1.044 4.844 2.097 5.339 2.185.347.064.2.618-.167.534-.367-.083-4.751-1.47-5.118-.406-.284.808 4.267.906 5.02 1.71.754.803-3.425-.431-3.684.353-.093.294 1.654.431 4.164.784 2.577.247 5.167.338 7.756.274 5.823.323 26.394.745 30.789.436 5.118-.362 3.19-7.012 2.994-8.639z" fill="#FFB29D"/><path d="M228.361 111.7l8.441 24.691h38.207l-.283-1.274-15.449-.475-7.119-22.956-23.797.014z" fill="#E0E0E0"/><path d="M245.292 123.299c.255 1.009-.181 1.999-.979 2.209-.797.211-1.629-.436-1.879-1.47-.249-1.033.177-1.999.979-2.209.803-.211 1.63.455 1.879 1.47z" fill="#fff"/><path d="M78.143 136.387v3.199h98.502v72.148h22.265v-72.148h98.273v-3.199H78.143z" fill="#263238"/><path d="M172.961 213.478l-.494-24.71 9.454-1.568-1.488 26.171-7.472.107z" fill="#EB996E"/><path d="M180.833 213.591l-.024-.872-8.202.206.049 2.876h.49c2.256.073 11.479.22 12.977-.275 1.688-.524-5.29-1.935-5.29-1.935z" fill="#8547C6"/><path opacity=".4" d="M175.618 215.669a2.822 2.822 0 00-1.082-1.72 2.765 2.765 0 00-1.923-.554l.054 2.288 2.951-.014z" fill="#fff"/><path opacity=".4" d="M184.246 214.399s2.446.647 2.158 1.059c-.289.411-9.621.612-13.746.343v-.186l10.883-.143s.23-1.038.705-1.073z" fill="#fff"/><path d="M172.539 215.6a.842.842 0 00.142 0h.401l1.468.029h4.894c1.903 0 3.645-.117 4.893-.191l1.468-.093.401-.029h.137-.543l-1.468.064c-1.253.053-2.985.117-4.893.156-1.909.04-3.651.054-4.894.054h-1.889l-.117.01z" fill="#263238"/><path d="M183.55 215.6c.087-.508.354-.968.754-1.294a1.326 1.326 0 00-.754 1.294zM181.112 214.424s.132-.127.249-.318c.118-.192.191-.358.167-.368-.025-.01-.137.127-.25.319-.112.191-.191.352-.166.367zM180.442 214.091s.147-.069.284-.201c.137-.132.235-.25.215-.27-.02-.019-.147.069-.284.201-.137.133-.235.25-.215.27zM180.008 213.326a.881.881 0 00.426.044.901.901 0 00.43-.053 1.117 1.117 0 00-.43-.045 1.079 1.079 0 00-.426.054zM179.85 212.787a.844.844 0 00.489.128.789.789 0 00.489-.079 3.326 3.326 0 00-.489 0 2.365 2.365 0 00-.489-.049z" fill="#263238"/><path d="M181.373 213.709c.173.029.35.029.524 0 .189-.026.376-.071.557-.133.112-.034.219-.082.319-.142a.29.29 0 00.127-.162.216.216 0 00-.012-.118.208.208 0 00-.076-.092.98.98 0 00-1.184.308.954.954 0 00-.162.353.285.285 0 000 .142c.051-.162.128-.314.23-.45a.934.934 0 01.44-.304.813.813 0 01.627.029c.083.059.054.157-.039.216a1.568 1.568 0 01-.289.132 3.469 3.469 0 01-.538.152c-.323.044-.524.049-.524.069z" fill="#263238"/><path d="M181.508 213.728a.487.487 0 00.054-.367.886.886 0 00-.152-.378.528.528 0 00-.445-.259.206.206 0 00-.127.091c-.029.045-.04.1-.029.154a.565.565 0 00.097.235c.071.115.157.22.255.313a.748.748 0 00.303.206s-.107-.093-.254-.255a1.614 1.614 0 01-.225-.313c-.079-.108-.132-.309 0-.333.132-.025.269.112.352.215a.959.959 0 01.157.338c.014.117.019.235.014.353zM172.658 213.371s.235-.025.602 0c.48.039.94.208 1.331.49.383.295.677.692.847 1.146.132.348.151.583.171.578a.62.62 0 000-.161 2.147 2.147 0 00-.098-.441 2.552 2.552 0 00-.856-1.201 2.514 2.514 0 00-1.385-.49 2.363 2.363 0 00-.445 0 .623.623 0 00-.167.079zM176.65 214.85c.792.128 1.6.118 2.388-.029 0-.029-.538 0-1.194 0-.655 0-1.194 0-1.194.029z" fill="#263238"/><path d="M175.031 214.88s.044.112.103.235c.059.122.088.23.117.225.03-.005.04-.127-.029-.269-.068-.142-.176-.211-.191-.191zM174.408 214.13s.034.103.123.186c.088.084.171.137.19.118.02-.02-.034-.108-.122-.191a.394.394 0 00-.191-.113zM173.538 213.816c0 .03.112.025.235.064.122.039.21.103.23.083.019-.019-.049-.127-.201-.176-.152-.049-.274.005-.264.029zM172.922 213.669c0 .025.039.069.108.094.068.024.127.024.137 0 .009-.025-.04-.064-.108-.089-.069-.024-.127-.034-.137-.005z" fill="#263238"/><path d="M183.359 213.321l-.646-25.053 9.503-1.068-1.238 26.063-7.619.058z" fill="#FFBE9D"/><path d="M158.026 143.08c9.263.059 18.536.122 27.76.98 3.68.333 7.658.946 10.218 3.611 2.397 2.499 2.936 6.189 3.395 9.624l4.042 31.424a144.502 144.502 0 01-38.437-1.221c.095-7.787.185-15.573.269-23.358l.206-3.655-14.274-.956 6.821-16.449z" fill="#8547C6"/><path d="M189.516 155.237a23.303 23.303 0 012.074-4.44 24.115 24.115 0 01-2.074 4.44zM194.12 165.747a8.745 8.745 0 01-1.39-1.597 9.307 9.307 0 01-1.189-1.759 8.705 8.705 0 011.39 1.602 9.025 9.025 0 011.189 1.754zM192.47 171.941a15.133 15.133 0 01-2.814 2.661 7.512 7.512 0 011.321-1.426 7.342 7.342 0 011.493-1.235zM199.336 178.169a17.614 17.614 0 01-1.018-4.082 17.513 17.513 0 011.018 4.082zM193.576 184.769a6.825 6.825 0 01-.729-1.676 6.811 6.811 0 01-.49-1.754 12.83 12.83 0 011.224 3.43h-.005zM186.285 167.751a9.087 9.087 0 01-.372 2.127 9.01 9.01 0 01-.616 2.063c.163-1.43.491-2.836.979-4.19h.009z" fill="#FAFAFA"/><path d="M176.959 135.382h37.684v-1.837h-37.684v1.837z" fill="#263238"/><path d="M220.485 135.382l7.066-26.524h-29.424l-6.4 26.524h28.758z" fill="#263238"/><path d="M193.488 133.373h26.287l6.122-23.29h-26.424l-5.985 23.29z" fill="#F5F5F5"/><path d="M200.128 114.596l-1.63 6.596h17.425l1.86-6.596h-17.655z" fill="#E0E0E0"/><path d="M214.108 113.724c0 .074-3.058.127-6.826.127s-6.85-.053-6.85-.127c0-.073 3.058-.127 6.85-.127 3.793 0 6.826.083 6.826.127z" fill="#455A64"/><path d="M206.167 115.856a29.95 29.95 0 01-5.505 0c1.831-.17 3.674-.17 5.505 0zM210.581 115.753c-1.19.169-2.397.169-3.587 0 1.19-.17 2.397-.17 3.587 0z" fill="#263238"/><path d="M215.563 117.051c0 .074-3.372.128-7.526.128-4.155 0-7.531-.054-7.531-.128 0-.073 3.371-.127 7.531-.127 4.159 0 7.526.059 7.526.127z" fill="#455A64"/><path d="M205.075 118.144a23.399 23.399 0 01-4.893 0 23.399 23.399 0 014.893 0z" fill="#8547C6"/><path d="M214.212 119.702c0 .074-3.127.128-6.983.128s-6.983-.054-6.983-.128c0-.073 3.127-.127 6.983-.127s6.983.059 6.983.127zM203.931 123.083a28.63 28.63 0 01-5.382 0 28.63 28.63 0 015.382 0z" fill="#455A64"/><path d="M208.555 123.103c-1.226.16-2.467.15-3.69-.03 1.226-.16 2.467-.15 3.69.03zM211.148 122.99c0 .069-.348.127-.778.127-.431 0-.778-.058-.778-.127s.347-.127.778-.127c.43 0 .778.049.778.127z" fill="#263238"/><path d="M200.349 124.46c0 .069-.381.127-.856.127s-.856-.058-.856-.127.381-.127.856-.127.856.034.856.127z" fill="#8547C6"/><path d="M205.492 124.46c-1.363.17-2.742.17-4.105 0 1.363-.17 2.742-.17 4.105 0z" fill="#263238"/><path d="M217.753 124.279c0 .073-2.447.127-5.48.127-3.034 0-5.476-.054-5.476-.127 0-.074 2.447-.128 5.476-.128 3.028 0 5.48.059 5.48.128z" fill="#455A64"/><path d="M200.089 125.842c0 .068-.397.127-.881.127s-.886-.059-.886-.127c0-.069.397-.133.886-.133s.881.059.881.133zM202.791 125.788a2.376 2.376 0 01-1.067.127 2.354 2.354 0 01-1.062-.127c.34-.124.703-.167 1.062-.128a2.39 2.39 0 011.067.128z" fill="#263238"/><path d="M210.839 125.685c-2.3.17-4.609.17-6.909 0 2.3-.17 4.609-.17 6.909 0zM206.579 128.125a33.7 33.7 0 01-4.179.128c-1.395.044-2.79.001-4.179-.128a34.693 34.693 0 014.179-.127 34.705 34.705 0 014.179.127z" fill="#455A64"/><path d="M211.462 128.022c-1.258.17-2.534.17-3.792 0 1.258-.17 2.534-.17 3.792 0z" fill="#8547C6"/><path d="M218.703 128.022c-2.091.17-4.192.17-6.283 0 2.091-.17 4.192-.17 6.283 0zM217.015 113.621c0 .069-.288.128-.645.128-.358 0-.651-.059-.651-.128 0-.068.288-.127.651-.127.362 0 .645.059.645.127z" fill="#263238"/><path d="M203.775 112.739c-.944.17-1.91.17-2.853 0a8.044 8.044 0 012.853 0z" fill="#8547C6"/><path d="M225.455 111.759h-26.424l.446-1.676h26.424l-.446 1.676z" fill="#F5F5F5"/><path d="M200.584 111.22a.288.288 0 00.288-.289.288.288 0 10-.577 0c0 .16.129.289.289.289zM201.582 111.22a.288.288 0 00.288-.289.288.288 0 10-.577 0c0 .16.129.289.289.289zM202.574 111.22a.29.29 0 100-.578.29.29 0 000 .578z" fill="#FAFAFA"/><path d="M171.268 121.52l3.772 11.378c1.018 3.072 3.7 3.601 6.934 3.601h20.988v-4.689l-19.172-2.739-4.595-11.716-7.927 4.165z" fill="#FFBE9D"/><path d="M205.247 130.83l1.664-.789s1.796-3.474 2.207-3.332c.411.142.533 1.161-.186 2.754l2.212-.632s4.795 2.219 4.585 2.518a1.099 1.099 0 01-1.649.49c-1.048-.534-2.413-1.161-2.413-1.161l-2.588.74 3.332.421 3.137 2.857a1.528 1.528 0 01-1.919-.044l-8.142 1.749-2.549.147v-4.738l2.309-.98z" fill="#FFBE9D"/><path d="M213.63 134.608c-.035 0-.186-.221-.49-.539a2.477 2.477 0 00-.592-.461 2.405 2.405 0 00-.881-.23 12.294 12.294 0 01-2.446-.417c.828-.028 1.658.026 2.476.162.342.025.676.122.978.284.236.143.443.327.612.544.17.185.289.411.343.657zM212.372 134.931c-.029 0-.059-.166-.284-.215-.225-.049-.607-.089-.978-.128a7.838 7.838 0 01-1.434-.147 2.973 2.973 0 011.468-.108c.348.031.691.101 1.022.211a.413.413 0 01.25.26c-.015.088-.044.132-.044.127z" fill="#EB996E"/><path d="M156.035 79.664l-1.14 23.113 9.884.936.543-5.61s3.489.862 4.546-2.367c.675-2.068 1.277-18.223 1.277-18.223l-15.11 2.151z" fill="#FFBE9D"/><path d="M172.002 80.213c.269 2.16-2.75 3.43-2.75 3.43l-.529 5.115a9.97 9.97 0 00-1.419 0c.255-2.4-2.833-1.93-3.146-.293-.313 1.636 1.468 2.626 1.468 2.626-1.238 1.901-1.737 2.9-3.489 4.68-1.899 1.925-2.936 2.082-4.893 2.023l-2.158-.098s-.769-1.847-1.331-6.208c-.274-2.102-1.909-4.851-1.444-8.266 1.341-9.722 10.638-8.703 10.638-8.703 4.81.137 8.417.671 9.053 5.694z" fill="#263238"/><path d="M164.906 74.803c2.099.054 4.267.216 6.112 1.225 1.845 1.01 3.318 3.7 2.936 5.763-.347.063-.729.206-1.076.27-.142-.26-.319-1.22-.465-1.47 0 .416-.128 1.342-.123 1.753-.611.172-1.091-.171-1.707 0a13.469 13.469 0 00-1.63-4.463" fill="#263238"/><path d="M172.016 123.402l1.904 6.193 11.372-2.685c-.372-1.147-3.523-8.389-6.767-16.493a13.944 13.944 0 00-4.189-5.677 13.91 13.91 0 00-6.43-2.894 60.254 60.254 0 00-9.811-.98c-5.74.064-13.183 2.48-14.318 8.12-.871 4.302 1.062 11.333 1.062 20.58l-1.36 19.394 28.537.98-2.892-17.013 2.892-9.525z" fill="#8547C6"/><path opacity=".2" d="M142.76 127.258c3.582.73 7.261 0 10.912-.225 2.212-.133 4.668-.373 6.415.98 1.39 1.082 1.957 2.895 2.349 4.61.871 3.715 1.468 11.398 1.879 18.567a13.506 13.506 0 007.443 11.314c1.14.568 4.149.588 4.169.98l-29.262 1.2-3.905-37.426z" fill="#000"/><path d="M163.614 165.934h-3.577v42.938h3.577v-42.938zM130.002 124.254v31.61a7.518 7.518 0 002.197 5.31 7.505 7.505 0 005.304 2.197h21.042v-39.117a3.347 3.347 0 00-3.342-3.347h-21.859a3.347 3.347 0 00-3.342 3.347z" fill="#455A64"/><path d="M186.813 165.934h-51.194a5.57 5.57 0 011.63-3.933 5.555 5.555 0 013.929-1.629h40.076a5.566 5.566 0 015.559 5.562z" fill="#455A64"/><path d="M158.544 159.632a.774.774 0 010 .245c.001.233-.027.465-.083.691a3.776 3.776 0 01-2.995 2.852c-.672.071-1.349.097-2.025.078h-4.6c-3.264 0-6.22 0-8.358-.029l-2.53-.039-.69-.025a.778.778 0 01-.24-.029.929.929 0 01.24-.025h.69l2.53-.044c2.138-.029 5.094-.044 8.358-.049h4.6c.662.027 1.326.011 1.986-.049a3.614 3.614 0 001.551-.656 3.735 3.735 0 001.385-2.009c.142-.574.127-.912.181-.912zM164.966 166.046a37.179 37.179 0 01-6.278 0 37.39 37.39 0 016.278 0z" fill="#263238"/><path d="M180.565 163.66a8.94 8.94 0 01-.318-1.509c-.171-.98-.401-2.386-.671-4.131-.269-1.744-.479-3.866-1.458-5.963a14.477 14.477 0 00-1.898-3.038 13.742 13.742 0 00-2.853-2.578 12.881 12.881 0 00-3.46-1.666 13.018 13.018 0 00-3.533-.612c-2.314-.054-4.404-.044-6.19-.074a249.245 249.245 0 01-4.179-.088 7.978 7.978 0 01-1.536-.103 9.287 9.287 0 011.536-.103c.979-.029 2.413-.058 4.179-.083 1.767-.024 3.861-.064 6.21-.034a13.18 13.18 0 013.665.603c1.281.387 2.496.968 3.601 1.724a13.73 13.73 0 012.936 2.686 14.612 14.612 0 011.958 3.17c.117.274.215.549.318.818.054.137.103.27.151.407l.118.407c.073.274.147.539.22.803.074.265.098.529.142.789.181 1.039.274 1.994.396 2.871.226 1.755.402 3.176.49 4.156.104.509.163 1.028.176 1.548zM177.482 212.768h-.49a15.26 15.26 0 00-4.46-10.783 15.22 15.22 0 00-10.768-4.466 15.222 15.222 0 00-10.768 4.466 15.265 15.265 0 00-4.46 10.783h-.489c0-4.18 1.658-8.188 4.609-11.143a15.727 15.727 0 0111.128-4.616 15.73 15.73 0 0111.128 4.616 15.769 15.769 0 014.609 11.143h-.039z" fill="#455A64"/><path d="M148.622 213.552a2.365 2.365 0 01-1.456 2.182 2.356 2.356 0 01-3.216-1.721 2.361 2.361 0 013.216-2.643 2.36 2.36 0 011.456 2.182zM179.704 213.223a2.368 2.368 0 01-1.456 2.182 2.356 2.356 0 01-3.216-1.721 2.358 2.358 0 114.672-.461z" fill="#263238"/><path d="M177.33 208.877c0 .074-6.85.133-15.291.133s-15.297-.059-15.297-.133c0-.073 6.851-.132 15.297-.132 8.446 0 15.291.059 15.291.132z" fill="#455A64"/><path d="M155.461 97.716c1.948.108 3.901.046 5.838-.186a12.68 12.68 0 005.97-2.735c.978-.906 1.238-1.381 1.297-3.283l.156-2.768-2.779-7.605-7.105-.588-6.582 3.014-.597 9.971a3.925 3.925 0 002.277 3.825c.479.22.998.34 1.525.355z" fill="#263238"/><path d="M168.014 92.659c0 1.132-1.023 1.96-1.957 2.592-.935.632-2.021 1.284-2.3 2.386-.548 2.137 2.226 3.754 2.486 5.944.195 1.597-.979 2.989-1.718 4.41a9.05 9.05 0 00-.225 7.742c-2.99.26-5.999.519-9.004.632l-2.079-4.077-1.547 4.136a49.796 49.796 0 01-7.873-.647c1.546-1.225 1.664-3.503 1.566-5.473-.098-1.97-.49-5.469.832-6.948.905-1.02 2.319-1.47 3.249-2.45 1.345-1.44.704-2.01.044-3.577a10.79 10.79 0 01-.675-5.85c.308-1.96 1.526-3.622 2.51-5.342.983-1.72 1.037-2.94 1.58-5.321" fill="#263238"/><path d="M152.335 80.551a6.861 6.861 0 01-5.261 3.538 4.194 4.194 0 003.484.49 8.313 8.313 0 01-3.381 1.96c.426 1.097 1.727 1.568 2.897 1.651a8.118 8.118 0 005.779-1.916 7.422 7.422 0 001.761-8.04" fill="#263238"/><path d="M154.453 80.07a2.68 2.68 0 002.447-1.67c.384-.993.404-2.09.059-3.097a3.438 3.438 0 00-1.64-2.23c-1.032-.49-2.295-.102-3.21.584a4.852 4.852 0 00-1.957 3.371 3.882 3.882 0 001.556 3.508 3.231 3.231 0 003.748-.068" fill="#263238"/><path d="M148.406 87.71c.785.21 1.591.323 2.403.338a7.404 7.404 0 002.569-.49 6.787 6.787 0 004.228-4.503c.255-.84.363-1.72.318-2.597a9.785 9.785 0 00-.49-2.381s.04.049.089.152c.073.146.139.296.195.45a6.54 6.54 0 01.387 1.77 7.351 7.351 0 01-.274 2.675 7.233 7.233 0 01-1.615 2.866 7.112 7.112 0 01-2.76 1.789 7.396 7.396 0 01-2.647.44 6.627 6.627 0 01-1.786-.274c-.167-.045-.33-.1-.49-.166a.498.498 0 01-.127-.069z" fill="#455A64"/><path d="M152.326 85.534a6.969 6.969 0 003.347-4.375 1.94 1.94 0 01-.107.847 5.332 5.332 0 01-2.447 3.205 1.996 1.996 0 01-.793.323zM150.662 75.975c.038-.14.103-.27.191-.383a2.82 2.82 0 01.861-.798 3.233 3.233 0 011.683-.461c.73.02 1.435.268 2.017.71a4.01 4.01 0 011.311 1.686c.218.544.33 1.124.328 1.71.001.39-.046.779-.142 1.157a1.204 1.204 0 01-.147.401 11.53 11.53 0 00.108-1.553 4.647 4.647 0 00-.367-1.622 3.791 3.791 0 00-1.243-1.573 3.316 3.316 0 00-1.865-.68 3.19 3.19 0 00-1.59.381c-.447.26-.837.609-1.145 1.025zM157.986 79.576c.039 0 .377.671 1.028 1.715.376.61.83 1.169 1.35 1.661.642.59 1.432.993 2.286 1.166.862.169 1.739.257 2.618.265.716.049 1.435.03 2.148-.054a4.805 4.805 0 001.84-.676 1.509 1.509 0 01-.416.343 4.04 4.04 0 01-1.395.49c-.721.114-1.453.151-2.182.112-.897.004-1.792-.08-2.672-.25a4.888 4.888 0 01-2.388-1.244 7.848 7.848 0 01-1.341-1.735c-.313-.539-.533-.98-.68-1.308a2.12 2.12 0 01-.196-.485z" fill="#455A64"/><path d="M157.986 79.576c.103.18.193.366.269.559.162.357.407.877.73 1.504s.719 1.377 1.174 2.19a15.614 15.614 0 001.649 2.529 8.28 8.28 0 002.275 1.96 6.052 6.052 0 004.556.617s-.049.034-.147.073a3.213 3.213 0 01-.435.142 5.004 5.004 0 01-1.688.113 6.28 6.28 0 01-2.403-.74 8.261 8.261 0 01-2.354-1.96 14.75 14.75 0 01-1.659-2.582 43.015 43.015 0 01-1.13-2.22 21.384 21.384 0 01-.661-1.553 2.391 2.391 0 01-.176-.632zM156.998 78.89c.152-.184.326-.349.519-.49a12.402 12.402 0 011.58-1.059 10.8 10.8 0 012.633-1.053 8.473 8.473 0 013.464-.137 6.87 6.87 0 013.176 1.396 6.157 6.157 0 011.728 2.254 5.228 5.228 0 01.44 2.387c0 .117-.025.176-.034.176a6.265 6.265 0 00-.558-2.484 6.092 6.092 0 00-1.708-2.146 6.766 6.766 0 00-3.068-1.333 8.476 8.476 0 00-3.372.117c-.902.22-1.775.549-2.598.98-.556.294-1.094.621-1.61.98a4.949 4.949 0 01-.592.412zM163.213 74.573a8.864 8.864 0 00-5.481 3.063c.124-.297.306-.567.534-.794a6.77 6.77 0 011.801-1.47 6.674 6.674 0 012.187-.77c.315-.072.64-.082.959-.029z" fill="#455A64"/><path d="M152.854 81.12c.423.077.852.116 1.282.117a3.465 3.465 0 003.298-2.704c.114-.5.115-1.019.005-1.52a7.103 7.103 0 00-.421-1.22c.09.08.166.174.225.28a3.2 3.2 0 01.372.901 3.533 3.533 0 01-1.897 4.101 3.518 3.518 0 01-1.582.338 3.05 3.05 0 01-.979-.142.97.97 0 01-.303-.151z" fill="#8547C6"/><path d="M157.439 115.944a1.961 1.961 0 01-.166-.338 84.07 84.07 0 01-.416-.98 19.537 19.537 0 01-1.155-3.783 9.942 9.942 0 01-.122-2.739 7.088 7.088 0 01.954-3.004c.567-.95 1.424-1.803 1.654-2.94.23-1.137-.245-2.352-.857-3.43-.303-.554-.641-1.078-.954-1.622a13.573 13.573 0 01-.807-1.656 6.722 6.722 0 01-.548-3.43 6.372 6.372 0 011.336-2.852 10.2 10.2 0 001.389-2.308 8.71 8.71 0 00.49-2.16c.063-.56.097-1.123.102-1.686v-1.073a1.93 1.93 0 010-.373c.023.123.035.248.035.373 0 .245.034.607.039 1.073.011.567-.008 1.135-.059 1.7a8.536 8.536 0 01-.489 2.215c-.353.846-.819 1.64-1.385 2.362a6.178 6.178 0 00-1.272 2.758 6.521 6.521 0 00.543 3.313c.229.558.496 1.1.798 1.622.303.534.645 1.063.978 1.622.319.552.575 1.139.764 1.749.19.602.229 1.241.112 1.862a4.5 4.5 0 01-.744 1.641c-.323.49-.67.927-.954 1.387a6.96 6.96 0 00-.944 2.901 10.1 10.1 0 00.088 2.69 21.465 21.465 0 001.071 3.778c.157.416.279.755.372.98.057.112.106.229.147.348z" fill="#455A64"/><path d="M153.652 87.75a1.294 1.294 0 01-.171.269l-.524.75a11.993 11.993 0 00-1.556 2.94 6.319 6.319 0 00-.333 2.248c.021.422.096.839.225 1.24.149.424.336.834.558 1.225.431.814 1.023 1.686 1.072 2.773a3.056 3.056 0 01-.387 1.554 5.764 5.764 0 01-.979 1.303 26.052 26.052 0 00-2.246 2.2 4.653 4.653 0 00-.929 2.666c-.029.881.032 1.763.181 2.631.126.767.208 1.541.244 2.318a5.339 5.339 0 01-.812 3.249 3.117 3.117 0 01-.626.676 1.466 1.466 0 01-.196.137c-.044.029-.068.044-.073.039.312-.262.586-.567.812-.906a5.346 5.346 0 00.714-3.185 20.061 20.061 0 00-.274-2.293 13.333 13.333 0 01-.205-2.676 4.85 4.85 0 01.978-2.808 25.734 25.734 0 012.256-2.224c.739-.75 1.346-1.681 1.307-2.676-.039-.994-.592-1.842-1.028-2.665a7.649 7.649 0 01-.567-1.27 4.895 4.895 0 01-.221-1.298 6.397 6.397 0 01.333-2.337 11.246 11.246 0 011.649-2.94c.235-.319.426-.559.563-.72.072-.08.15-.154.235-.22z" fill="#263238"/><path d="M162.825 115.64s-.029 0-.083-.039a2.717 2.717 0 01-.235-.147 3.057 3.057 0 01-.729-.784 5.179 5.179 0 01-.553-3.817c.197-.881.459-1.746.783-2.588.372-.947.636-1.933.788-2.94a9.49 9.49 0 00-.186-3.346 10.331 10.331 0 00-1.468-3.298 11.569 11.569 0 01-1.62-3.312 10.722 10.722 0 01-.235-3.43c.167-2.186.588-4.106.539-5.748a8.352 8.352 0 00-.798-3.749 9.436 9.436 0 00-.788-1.175c.355.323.652.706.876 1.131a8.135 8.135 0 01.886 3.793c.073 1.661-.328 3.606-.489 5.762a10.582 10.582 0 00.239 3.352c.358 1.16.898 2.254 1.6 3.244a10.59 10.59 0 011.468 3.371 9.772 9.772 0 01.177 3.43 13.872 13.872 0 01-.823 2.999 19.04 19.04 0 00-.807 2.548 5.167 5.167 0 00.46 3.729c.264.4.603.744.998 1.014z" fill="#455A64"/><path d="M191.379 213.581l-.024-.872-8.207.201.054 2.876.49.025c2.255.073 11.479.215 12.972-.275 1.693-.549-5.285-1.955-5.285-1.955z" fill="#8547C6"/><path opacity=".4" d="M186.163 215.659a2.822 2.822 0 00-1.082-1.72 2.745 2.745 0 00-1.923-.554l.049 2.288 2.956-.014z" fill="#fff"/><path opacity=".4" d="M194.791 214.39s2.446.646 2.153 1.053c-.294.407-9.621.618-13.741.343v-.181l10.878-.147s.235-1.039.71-1.068z" fill="#fff"/><path d="M183.084 215.6h.543l1.468.034c1.253 0 2.985 0 4.893-.024 1.909-.025 3.646-.113 4.894-.186l1.468-.093.406-.035h.137a.674.674 0 00-.142 0h-.401l-1.468.064a219.611 219.611 0 01-9.787.206h-1.889a.435.435 0 00-.122.034z" fill="#263238"/><path d="M194.091 215.6c.064-.247.152-.486.264-.715.139-.212.304-.406.489-.579a1.314 1.314 0 00-.758 1.294h.005zM191.652 214.414s.137-.127.255-.318a.981.981 0 00.166-.373s-.137.133-.254.319a.985.985 0 00-.167.372zM190.987 214.081s.147-.069.284-.201c.137-.132.235-.25.215-.269-.02-.02-.147.068-.284.196-.137.127-.235.254-.215.274z" fill="#263238"/><path d="M190.551 213.317a1.877 1.877 0 00-1.4 2.17 1.876 1.876 0 002.083 1.524 1.88 1.88 0 00-.257-3.748.886.886 0 00-.426.054zM190.395 212.773a.778.778 0 00.489.132.834.834 0 00.489-.078 2.852 2.852 0 00-.489 0 3.356 3.356 0 00-.489-.054z" fill="#263238"/><path d="M191.918 213.694c.173.035.351.035.524 0 .189-.026.376-.07.557-.132.112-.035.218-.083.318-.143a.262.262 0 00.123-.166.205.205 0 00-.012-.115.206.206 0 00-.071-.091.98.98 0 00-1.185.309.953.953 0 00-.161.353v.142c.046-.165.123-.319.225-.456a.98.98 0 01.445-.299.821.821 0 01.627.03c.083.058.053.156-.04.215a1.53 1.53 0 01-.288.132 3.362 3.362 0 01-.538.152c-.323.049-.524.054-.524.069z" fill="#263238"/><path d="M192.055 213.718a.538.538 0 00.054-.367.97.97 0 00-.152-.377.524.524 0 00-.445-.26.207.207 0 00-.127.091.215.215 0 00-.03.154.572.572 0 00.093.235c.073.113.158.216.255.309a.804.804 0 00.308.206s-.107-.089-.254-.255a1.879 1.879 0 01-.23-.309c-.074-.108-.128-.309 0-.333.127-.025.269.113.352.215a.82.82 0 01.152.339c.019.116.027.234.024.352zM183.203 213.361s.235-.025.602 0a2.55 2.55 0 012.178 1.661c.132.348.151.583.166.578.015-.005 0-.059 0-.167a2.194 2.194 0 00-.103-.436 2.485 2.485 0 00-.851-1.2 2.522 2.522 0 00-1.385-.49 1.992 1.992 0 00-.45 0 .438.438 0 00-.157.054zM187.176 214.836c.392.085.793.117 1.194.093.4.012.8-.03 1.189-.123 0-.029-.534 0-1.194.025-.661.024-1.189-.025-1.189.005z" fill="#263238"/><path d="M185.57 214.87l.103.235c.054.123.093.225.118.225.024 0 .044-.132-.025-.269-.068-.137-.176-.211-.196-.191zM184.969 214.13s.034.103.122.191c.088.088.171.132.191.113.019-.02-.039-.103-.122-.186-.084-.084-.191-.118-.191-.118zM184.083 213.807c0 .029.112.024.234.063.123.039.211.103.23.083.02-.019-.048-.132-.2-.176-.152-.044-.274.005-.264.03zM183.461 213.64s.039.064.108.088c.068.025.132 0 .141 0 .01 0-.039-.068-.107-.093-.069-.024-.132.005-.142.005zM179.865 185.661c-.068 0 .176-4.41.548-9.8.372-5.39.729-9.751.798-9.751.068 0-.172 4.385-.544 9.8-.371 5.415-.733 9.756-.802 9.751zM184.583 186.778a5.764 5.764 0 01-.084-.808 219.25 219.25 0 00-.146-2.205c-.118-1.867-.299-4.41-.553-7.272-.255-2.862-.534-5.39-.749-7.252-.098-.897-.186-1.637-.25-2.195a4.817 4.817 0 01-.058-.814c.072.262.124.529.156.799.088.515.201 1.259.333 2.186a159.503 159.503 0 011.311 14.538c.04.931.059 1.685.069 2.21.014.271.004.543-.029.813z" fill="#263238"/><path opacity=".2" d="M186.56 165.659a22.573 22.573 0 01-6.381 7.346 22.529 22.529 0 01-8.876 3.973c-1.331.265-2.79.387-3.964-.294-1.6-.931-2.094-3.023-2.075-4.875.02-1.853 0-4.381 0-6.15h21.296z" fill="#000"/><path d="M158.113 134.329c0-.069 2.447-.451 5.471-.848 3.024-.397 5.495-.662 5.5-.593.005.069-2.447.451-5.466.848-3.019.397-5.495.661-5.505.593z" fill="#263238"/><path d="M165.586 133.422a4.241 4.241 0 01-.827-.558l-.832-.662a1.088 1.088 0 01-.416-.568.765.765 0 01.269-.735.899.899 0 01.734-.226c.236.042.452.159.617.333.264.285.419.655.435 1.044.042.339.004.683-.112 1.005-.044 0 0-.392-.064-.98a1.513 1.513 0 00-.425-.897.726.726 0 00-1.018-.083.53.53 0 00-.191.49.86.86 0 00.323.441l.817.7c.259.201.491.435.69.696z" fill="#263238"/><path d="M165.258 133.447a1.72 1.72 0 01.23-.819c.13-.28.294-.544.489-.784a3.34 3.34 0 01.387-.402.913.913 0 01.626-.21.379.379 0 01.323.245.466.466 0 01-.029.372 2.206 2.206 0 01-.343.456c-.21.23-.449.432-.709.603-.226.179-.491.3-.774.352 0-.039.27-.181.666-.49.233-.182.448-.388.641-.612.114-.122.212-.257.294-.402.063-.137 0-.25-.098-.265-.313-.024-.587.28-.808.515-.2.219-.375.458-.523.715-.235.427-.333.735-.372.726z" fill="#263238"/><path d="M180.691 187.547a26.426 26.426 0 011.879-4.821 12.515 12.515 0 01-.822 2.45 13.415 13.415 0 01-1.057 2.371zM172.055 184.98a7.273 7.273 0 01-2.026-1.382 7.343 7.343 0 01-1.654-1.813c.054-.049.807.745 1.82 1.622 1.013.877 1.904 1.509 1.86 1.573zM174.756 173.72a6.836 6.836 0 01-1.199-1.47 7.11 7.11 0 01-.979-1.617c.463.435.866.929 1.199 1.47.395.494.724 1.038.979 1.617zM170.41 158.113a10.434 10.434 0 01-1.521-1.71 10.229 10.229 0 01-1.317-1.867 10.318 10.318 0 011.517 1.71c.508.572.951 1.198 1.321 1.867zM180.975 156.134c-.745.155-1.505.227-2.266.215-.757.071-1.52.059-2.275-.034a9.852 9.852 0 012.265-.221c.758-.073 1.521-.06 2.276.04zM183.422 149.793a6.089 6.089 0 01-.979-1.47 6.276 6.276 0 01-.754-1.607c.396.439.726.935.979 1.47.324.498.577 1.039.754 1.607zM172.432 148.426a6.77 6.77 0 01-1.615.901c-.543.3-1.124.526-1.727.672a13.6 13.6 0 013.342-1.573zM166.241 148.916a67.294 67.294 0 01-4.188-3.141 10.57 10.57 0 012.216 1.406 10.413 10.413 0 011.972 1.735zM165.679 137.038c.025.074-1.096.49-2.398 1.137-1.301.647-2.29 1.338-2.334 1.274a10.868 10.868 0 014.732-2.411zM163.57 128.292a9.241 9.241 0 01-1.625-1.441 9.514 9.514 0 01-1.443-1.622 9.318 9.318 0 011.625 1.441 9.088 9.088 0 011.443 1.622zM169.77 121.824a5.593 5.593 0 01-1.322 1.039 5.481 5.481 0 01-1.468.823 11.003 11.003 0 012.78-1.862h.01zM164.763 120.682a7.837 7.837 0 01-1.365-1.436 7.601 7.601 0 01-1.169-1.602 7.8 7.8 0 011.365 1.441 7.64 7.64 0 011.169 1.597zM172.54 111.313c-.617.411-1.261.778-1.928 1.098-.629.395-1.283.749-1.958 1.058a6.769 6.769 0 011.83-1.259 7.033 7.033 0 012.056-.897zM176.65 117.169c.062-.633.21-1.255.441-1.847a7.047 7.047 0 01.68-1.769 14.232 14.232 0 01-1.121 3.616zM178.485 123.838a5.216 5.216 0 01-1.879-.868 5.124 5.124 0 01-1.561-1.347c.049-.054.754.529 1.703 1.137.949.607 1.761 1.009 1.737 1.078zM167.299 107.908c.285-.713.648-1.391 1.081-2.024a10.67 10.67 0 011.297-1.896 9.97 9.97 0 01-1.081 2.028c-.364.676-.799 1.31-1.297 1.892zM156.128 118.673a14.19 14.19 0 01-2.667-.387 13.675 13.675 0 01-2.623-.637c.899.044 1.792.174 2.667.387.893.126 1.771.339 2.623.637z" fill="#FAFAFA"/></svg>