<svg width="289" height="256" viewBox="0 0 289 256" fill="none" xmlns="http://www.w3.org/2000/svg">
<path d="M154.235 110.403C143.727 111.812 137.723 101.158 137.824 93.5288C137.926 85.8997 141.959 78.9638 145.86 72.4197C154.739 57.4578 164.222 41.933 179.179 33.0348C183.548 30.1593 188.635 28.5527 193.882 28.392C196.496 28.3343 199.085 28.969 201.387 30.232C203.688 31.495 205.62 33.3413 206.987 35.5838C209.942 41.0386 208.333 47.7265 205.994 53.487C199.451 70.4464 189.205 85.7034 175.997 98.1515C169.807 103.913 162.665 109.222 154.268 110.474" fill="#8547C6"/>
<g opacity="0.2">
<path opacity="0.2" d="M154.235 110.403C143.727 111.812 137.723 101.158 137.824 93.5286C137.925 85.8995 141.959 78.9635 145.86 72.4194C154.738 57.4576 164.222 41.9328 179.179 33.0347C183.547 30.1592 188.635 28.5527 193.881 28.3921C196.496 28.3344 199.085 28.9691 201.386 30.2321C203.688 31.4951 205.62 33.3415 206.987 35.584C209.941 41.0389 208.333 47.7267 205.994 53.4873C199.451 70.4466 189.205 85.7036 175.998 98.1516C169.808 103.913 162.665 109.222 154.268 110.474" fill="black"/>
</g>
<path d="M106.351 123.8C102.864 113.028 96.0189 103.633 86.8251 96.998C82.047 93.3257 76.4674 89.9313 70.4492 90.0862C64.4311 90.2411 58.1526 94.8483 58.5832 100.896C59.1512 104.465 60.9511 107.733 63.6694 110.129C69.5868 116.484 77.3257 122.446 78.2626 131.03C78.7976 135.945 76.995 141.232 79.1471 145.677C80.3737 147.755 82.2336 149.388 84.4511 150.333C86.6685 151.279 89.1253 151.487 91.4571 150.927C96.1513 149.637 100.156 146.59 102.648 142.416C104.659 139.82 106.04 136.79 106.682 133.561C107.325 130.332 107.211 126.991 106.351 123.8Z" fill="#8547C6"/>
<path d="M156.391 130.958C157.556 120.777 165.037 112.109 174.248 107.649C183.646 103.477 194.035 101.99 204.272 103.352C216.279 104.529 227.962 108.038 238.665 113.683C243.002 115.679 246.855 118.601 249.952 122.242C251.464 124.077 252.511 126.249 253.003 128.57C253.495 130.891 253.417 133.292 252.776 135.566C250.499 142.167 242.892 144.966 236.113 146.661C224.124 149.655 211.909 151.697 199.583 152.767C189.708 153.63 179.305 153.747 170.388 149.336C161.472 144.925 155.201 137.585 156.502 129.617" fill="#8547C6"/>
<path d="M58.6776 200.03C59.3961 198.912 60.2332 197.874 61.1743 196.936C63.0712 194.803 65.4703 192.067 68.3161 188.85C71.814 184.85 75.1027 180.672 78.1692 176.331C81.8431 170.965 85.0799 165.31 87.8491 159.42C90.6446 153.578 92.5894 147.361 93.6246 140.954C94.4777 135.738 94.156 130.388 92.683 125.292C91.6528 121.867 90.088 118.623 88.0471 115.679C87.1758 114.672 86.4117 113.576 85.7673 112.411C86.7939 113.279 87.7135 114.267 88.5062 115.353C90.8076 118.24 92.5814 121.509 93.7451 125.006C95.4215 130.249 95.8736 135.796 95.0664 141.219C94.0819 147.794 92.1306 154.179 89.2757 160.168C86.4668 166.139 83.1456 171.851 79.349 177.241C76.1942 181.59 72.7721 185.736 69.1021 189.658C65.9928 193.021 63.3901 195.644 61.5563 197.418C60.6917 198.388 59.7268 199.263 58.6776 200.03Z" fill="#263238"/>
<path d="M64.1322 193.794C64.5373 193.338 64.9847 192.921 65.4685 192.55C66.4662 191.621 67.749 190.427 69.2991 188.984C72.613 185.899 77.4235 181.421 83.207 175.701C94.823 164.351 110.244 148.049 126.435 129.253C142.626 110.457 156.328 92.7025 165.72 79.4637C168.106 76.1685 170.19 73.1553 171.886 70.3688C173.582 67.5822 175.293 65.419 176.495 63.495C177.697 61.5709 178.619 60.2758 179.382 59.1299C179.679 58.5843 180.056 58.0864 180.5 57.6523C180.281 58.228 180.003 58.7791 179.671 59.2972L177.038 63.8282C175.921 65.8075 174.412 68.1518 172.665 70.8845C170.919 73.6171 168.92 76.6856 166.517 79.9628C154.431 97.3925 141.417 114.155 127.53 130.179C111.321 148.992 95.713 165.2 83.8784 176.351C77.9277 181.891 73.0994 186.385 69.5836 189.289C67.9332 190.624 66.6012 191.73 65.5187 192.604C65.1224 193.071 64.6545 193.473 64.1322 193.794Z" fill="#263238"/>
<path d="M95.708 163.959C96.938 162.61 98.2765 161.364 99.7103 160.234C102.422 158.011 106.474 154.91 111.678 151.406C117.836 147.351 124.219 143.647 130.797 140.308C138.798 136.14 147.088 132.542 155.604 129.542C171.039 123.791 187.412 120.896 203.931 120.998C206.782 121.044 209.63 121.268 212.457 121.668C213.696 121.822 214.868 121.903 215.915 122.101L218.813 122.752C220.615 123.078 222.39 123.542 224.123 124.14C217.438 123.091 210.7 122.441 203.945 122.19C187.571 122.431 171.384 125.48 156.087 131.202C147.623 134.156 139.368 137.668 131.375 141.713C123.905 145.316 117.55 149.189 112.249 152.482C106.947 155.775 102.865 158.772 100.072 160.801C98.7054 161.97 97.2459 163.026 95.708 163.959Z" fill="#263238"/>
</svg>
