<svg width="216" height="310" viewBox="0 0 216 310" fill="none" xmlns="http://www.w3.org/2000/svg">
<path d="M166.802 213.855H52.7002V229.524H166.802V213.855Z" fill="#263238"/>
<path d="M166.986 229.723H52.4551V213.672H166.94L166.986 229.723ZM52.8833 229.341H166.588V214.054H52.8833V229.341Z" fill="#263238"/>
<path d="M63.269 224.311L79.6961 305.286H140.464L156.34 229.524L63.269 224.311Z" fill="#263238"/>
<path d="M63.269 297.627L72.0332 309.673H145.894L156.34 297.627H63.269Z" fill="#455A64"/>
<path d="M105.453 226.681C105.239 226.681 104.948 189.167 104.811 142.893C104.673 96.6197 104.811 59.1057 104.979 59.1057C105.147 59.1057 105.499 96.6197 105.621 142.893C105.744 189.167 105.682 226.681 105.453 226.681Z" fill="#263238"/>
<path d="M130.874 132.804C130.802 133.104 130.7 133.396 130.568 133.675L129.543 136.106L128.809 137.849C128.564 138.506 128.32 139.224 128.044 139.973C127.769 140.723 127.478 141.502 127.157 142.419C126.836 143.337 126.622 144.239 126.316 145.202C124.965 149.788 123.902 154.455 123.134 159.174C122.24 164.958 121.648 170.785 121.36 176.631C120.943 187.269 121.244 197.923 122.263 208.52C122.63 212.586 122.997 215.888 123.272 218.151C123.395 219.221 123.486 220.092 123.563 220.78C123.593 221.085 123.593 221.392 123.563 221.697C123.452 221.407 123.38 221.104 123.349 220.795C123.242 220.123 123.089 219.267 122.905 218.196C122.538 215.934 122.079 212.647 121.651 208.581C120.457 197.96 120.073 187.264 120.504 176.586C120.796 170.712 121.408 164.858 122.339 159.051C123.155 154.309 124.284 149.626 125.719 145.033C126.041 144.07 126.301 143.123 126.622 142.251C126.943 141.38 127.279 140.585 127.57 139.821L128.396 137.696L129.207 135.968L130.369 133.599C130.5 133.312 130.669 133.044 130.874 132.804Z" fill="#263238"/>
<path d="M127.952 102.459C127.875 102.884 127.752 103.299 127.585 103.697L126.408 107.183C126.132 107.947 125.842 108.788 125.536 109.705C125.23 110.622 124.924 111.642 124.618 112.763C123.945 114.933 123.089 117.349 122.492 120.177L121.345 124.503C120.993 126.032 120.641 127.56 120.274 129.257C119.479 132.513 118.898 136.06 118.163 139.775C116.909 147.219 115.793 155.459 115.104 164.142C114.416 172.825 114.08 181.156 113.973 188.708C113.866 196.26 113.973 203.078 114.355 208.795C114.447 211.653 114.63 214.222 114.783 216.438C114.936 218.655 115.059 220.657 115.196 222.247C115.334 223.837 115.41 224.999 115.471 225.916C115.512 226.348 115.512 226.783 115.471 227.215C115.371 226.793 115.305 226.364 115.273 225.931C115.166 225.029 115.013 223.807 114.844 222.278C114.676 220.749 114.462 218.731 114.278 216.469C114.095 214.206 113.866 211.623 113.728 208.825C113.345 203.108 113.193 196.275 113.177 188.708C113.162 181.141 113.529 172.794 114.248 164.081C114.967 155.367 116.16 147.097 117.46 139.622C118.209 135.907 118.821 132.36 119.647 129.089C120.029 127.453 120.397 125.863 120.764 124.335L121.957 120.009C122.691 117.226 123.486 114.765 124.205 112.61L125.199 109.552C125.536 108.65 125.857 107.825 126.132 107.061C126.693 105.624 127.137 104.477 127.463 103.621C127.594 103.221 127.758 102.832 127.952 102.459Z" fill="#263238"/>
<path d="M98.2339 233.315C98.2181 233.168 98.2181 233.019 98.2339 232.872C98.2339 232.536 98.2339 232.123 98.1269 231.588C98.1269 230.396 97.928 228.729 97.7904 226.62C97.5151 222.248 97.1327 216.011 96.6432 208.352C95.6643 192.927 94.2266 171.663 91.6264 148.167C90.2957 136.458 88.7662 125.329 87.1602 115.239C86.319 110.195 85.5389 105.41 84.6671 100.946C83.7953 96.4824 82.9999 92.3397 82.2046 88.5485C81.4092 84.7574 80.6751 81.3637 79.9409 78.3828C79.2067 75.4018 78.6408 72.8183 78.1055 70.7393C77.5701 68.6603 77.203 67.0704 76.9277 65.8934C76.8054 65.3889 76.7136 64.9608 76.6371 64.6398C76.6203 64.4925 76.6203 64.3438 76.6371 64.1965C76.7109 64.3245 76.7627 64.4641 76.7901 64.6093C76.8818 64.9456 77.0042 65.343 77.1572 65.8628L78.4878 70.6629C79.069 72.7419 79.7573 75.2489 80.4609 78.3063C81.1645 81.3637 81.9904 84.681 82.847 88.4568C83.7035 92.2327 84.5753 96.3754 85.4013 100.854C86.2272 105.334 87.1143 110.027 87.9862 115.148C89.6227 125.237 91.1829 136.381 92.5747 148.106C95.1749 171.572 96.5209 192.912 97.3621 208.337C97.7751 216.056 98.0657 222.309 98.2492 226.681C98.2492 228.79 98.3869 230.457 98.4328 231.649C98.4328 232.184 98.4328 232.612 98.4328 232.948C98.3847 233.08 98.3177 233.203 98.2339 233.315Z" fill="#263238"/>
<path d="M104.459 77.1751C103.97 71.8552 98.6011 67.8501 93.2478 67.8042C87.8944 67.7584 82.9388 70.8616 79.6656 75.1725C76.5921 79.553 74.3761 84.4754 73.1346 89.6797C69.5402 102.2 67.5671 115.346 69.1119 128.279C70.6568 141.212 75.8877 153.961 85.1872 163.103C86.7167 164.631 88.6439 166.068 90.724 165.625C91.8805 165.297 92.9269 164.664 93.7525 163.791C102.85 155.469 110.061 145.297 114.899 133.959C119.738 122.621 122.092 110.38 121.804 98.057C121.666 93.1346 121.009 88.0135 118.286 83.9166C115.563 79.8197 109.216 75.4629 104.52 77.1139" fill="#8547C6"/>
<path d="M64.6914 34.5705L57.1203 48.13C56.952 48.451 56.7226 48.8026 56.3555 48.8331C55.9884 48.8637 55.6672 48.4968 55.4531 48.1605C48.815 37.9693 42.1871 27.8035 35.5693 17.6632L40.1579 15.0645L64.6914 34.5705Z" fill="#8547C6"/>
<g opacity="0.2">
<path opacity="0.2" d="M64.6914 34.5705L57.1203 48.13C56.952 48.451 56.7226 48.8026 56.3555 48.8331C55.9884 48.8637 55.6672 48.4968 55.4531 48.1605C48.815 37.9693 42.1871 27.8035 35.5693 17.6632L40.1579 15.0645L64.6914 34.5705Z" fill="black"/>
</g>
<path d="M104.979 59.1059L37.1602 19.0849C36.7009 18.9597 36.2903 18.6984 35.9826 18.3353C35.6748 17.9722 35.4844 17.5245 35.4363 17.0511C35.3883 16.5777 35.4849 16.1008 35.7135 15.6834C35.9421 15.266 36.2918 14.9276 36.7167 14.7128C41.3797 9.87418 47.0315 6.09686 53.287 3.63824C59.5424 1.17963 66.2546 0.0974607 72.9663 0.46545C79.6749 0.945803 86.1654 3.05233 91.8765 6.60283C97.5876 10.1533 102.347 15.0409 105.744 20.8428C112.29 32.5373 112.504 47.9924 104.994 59.0601" fill="#8547C6"/>
<path d="M46.9336 6.33553C47.2233 6.26096 47.5216 6.22497 47.8207 6.22852C48.4019 6.22852 49.2585 6.09095 50.375 6.10624C53.5315 6.06153 56.6854 6.30712 59.7969 6.83998C70.1462 8.58677 79.7792 13.2576 87.5578 20.3005C95.3364 27.3435 100.936 36.4645 103.694 46.5859C104.54 49.5894 105.103 52.6652 105.377 55.7733C105.499 56.8893 105.453 57.1644 105.484 57.7606C105.435 58.3043 105.256 58.8285 104.964 59.2893C105.164 58.159 105.2 57.0057 105.071 55.8651C104.667 52.7624 104.023 49.6958 103.143 46.6929C100.3 36.7373 94.7212 27.7776 87.0404 20.8306C79.3597 13.8835 69.8844 9.22733 59.6898 7.39033C56.6165 6.81028 53.5016 6.47801 50.375 6.3967C48.1572 6.36612 46.9336 6.41197 46.9336 6.33553Z" fill="#263238"/>
<path d="M95.8018 31.4978C94.7229 32.1384 93.5731 32.6514 92.3756 33.0265C90.219 33.8826 87.1906 34.9679 83.8103 36.0839C80.4301 37.1998 77.3405 38.01 75.0768 38.5604C73.8793 38.9359 72.6423 39.1719 71.3906 39.2636C72.5231 38.7279 73.7069 38.3079 74.9238 38.01L83.5656 35.3042L92.2227 32.5067C93.3788 32.0512 94.5779 31.7132 95.8018 31.4978Z" fill="#263238"/>
<path d="M85.1257 2.81934C86.0578 7.82186 86.1869 12.9409 85.5081 17.984C85.1685 15.4511 85.0355 12.8949 85.1104 10.3405C84.9113 7.8372 84.9165 5.32182 85.1257 2.81934Z" fill="#263238"/>
<path d="M36.5635 18.3509C38.1491 17.6224 39.7975 17.0392 41.4885 16.6082C44.5476 15.6604 48.8608 14.468 53.7247 13.3062C58.5886 12.1444 62.9018 11.273 66.0526 10.7227C67.7519 10.3374 69.4818 10.1022 71.2224 10.0195C69.5679 10.5609 67.8757 10.9799 66.1597 11.2731C63.1006 11.9763 58.6803 12.9546 53.9235 14.1011C49.1667 15.2476 44.8535 16.3636 41.6874 17.1585C40.0088 17.6731 38.2968 18.0715 36.5635 18.3509Z" fill="#263238"/>
<path d="M76.3769 65.6181C70.5341 61.1849 64.3702 60.3135 57.0591 60.604C49.7299 61.0935 42.5563 62.9442 35.9058 66.0614C24.465 71.0755 13.7125 78.4438 6.84495 88.9C-0.0225947 99.3562 -2.33217 113.176 2.74583 124.549C3.13631 125.738 3.95368 126.74 5.04011 127.362C6.31379 127.723 7.67445 127.62 8.87921 127.071C21.8801 122.822 34.9881 118.541 46.949 111.907C58.9098 105.272 69.8 96.0237 76.2087 83.947C77.8525 81.0956 78.8936 77.9375 79.2677 74.6679C79.4327 73.0286 79.2451 71.3731 78.7175 69.8123C78.1899 68.2515 77.3345 66.8214 76.2087 65.6181" fill="#8547C6"/>
<path d="M76.4839 64.2424C76.189 64.406 75.8758 64.5342 75.5509 64.6246L72.8284 65.5571L70.8553 66.2144C70.1364 66.4743 69.3258 66.7953 68.5457 67.1164C66.8938 67.7737 64.9819 68.4463 62.9782 69.4247L59.7816 70.8769C58.6803 71.3814 57.579 72.0082 56.4013 72.6044C54.0459 73.7662 51.6598 75.249 49.1208 76.7471C43.7026 80.1551 38.5535 83.9727 33.7185 88.1664C28.9464 92.4101 24.5032 97.0093 20.427 101.925C18.6069 104.263 16.8326 106.434 15.3949 108.62C14.6454 109.706 13.8654 110.73 13.2383 111.678L11.3876 114.735C10.1639 116.6 9.26152 118.419 8.32851 119.963C7.91554 120.743 7.48727 121.492 7.15078 122.134C6.81429 122.776 6.52368 123.433 6.24837 123.999C5.71303 125.069 5.30006 125.925 4.96357 126.582C4.83247 126.894 4.66839 127.192 4.47412 127.469C4.5489 127.141 4.66184 126.823 4.81062 126.521C5.11652 125.833 5.48361 124.992 5.95776 123.877L6.79899 121.966C7.12019 121.278 7.51787 120.544 7.93084 119.749C8.77207 118.22 9.6439 116.34 10.8369 114.445L12.6571 111.387C13.2842 110.348 14.0489 109.308 14.7678 108.207C16.2055 105.991 17.9645 103.79 19.7846 101.435C23.8473 96.4319 28.3076 91.7644 33.122 87.4785C37.9888 83.2546 43.1853 79.4258 48.6619 76.0286C51.2315 74.4999 53.6482 73.0782 56.0342 71.9317C57.212 71.3508 58.3285 70.724 59.4604 70.2349L62.6876 68.8132C64.7219 67.8654 66.6644 67.2845 68.3316 66.6119C69.1575 66.3061 69.8611 66.0157 70.6564 65.7711L72.6601 65.1749L75.4438 64.3953C75.7825 64.2998 76.1321 64.2484 76.4839 64.2424Z" fill="#263238"/>
<path d="M30.9043 88.9001C26.2628 90.6938 21.524 92.225 16.7103 93.4862C11.9798 95.0094 7.17 96.275 2.30225 97.2774C6.94662 95.4919 11.685 93.9609 16.4962 92.6913C21.2268 91.1681 26.0365 89.9025 30.9043 88.9001Z" fill="#263238"/>
<path d="M30.3233 120.208C30.0823 118.748 29.9799 117.269 30.0173 115.79C30.0173 113.053 29.9256 109.277 30.0173 105.089C30.1091 100.9 30.3538 97.1549 30.5833 94.388C30.6289 92.9065 30.8133 91.4325 31.1339 89.9854C31.2756 91.4597 31.2756 92.9442 31.1339 94.4185C31.0421 97.4759 30.9351 101.053 30.8127 105.119C30.6903 109.186 30.6139 112.763 30.5374 115.82C30.604 117.286 30.5323 118.755 30.3233 120.208Z" fill="#263238"/>
<path d="M57.1508 106.541C56.9214 106.541 56.2178 98.8975 55.6213 89.4043C55.0247 79.9112 54.6118 72.2219 54.8412 72.2066C55.0706 72.1913 55.7742 79.85 56.3707 89.3585C56.9672 98.8669 57.3802 106.526 57.1508 106.541Z" fill="#263238"/>
<path d="M23.7612 71.4731C25.2823 71.2741 26.8195 71.228 28.3498 71.3356C31.1641 71.3356 35.0338 71.4273 39.3011 71.5649C43.5685 71.7024 47.4535 71.8859 50.2525 72.0541C51.7915 72.0651 53.3266 72.2083 54.8411 72.4821C53.32 72.6812 51.7828 72.7272 50.2525 72.6197C47.4535 72.6197 43.5685 72.5279 39.2859 72.3904C35.0032 72.2528 31.1488 72.0693 28.3498 71.9012C26.8107 71.8928 25.2753 71.7496 23.7612 71.4731Z" fill="#263238"/>
<path d="M88.1544 164.845C88.0828 164.55 88.0469 164.247 88.0473 163.943C88.0473 163.255 88.0473 162.414 87.9403 161.329C87.8332 159.067 87.8026 155.78 87.9403 151.729C88.0779 147.678 88.2921 142.847 88.7815 137.512C89.271 132.177 90.0663 126.322 91.1676 120.223C92.2688 114.123 93.5995 108.375 94.9761 103.163C96.3526 97.9497 97.8516 93.3636 99.2128 89.5266C100.574 85.6896 101.737 82.617 102.639 80.5227C103.052 79.5443 103.404 78.7494 103.664 78.1226C103.777 77.836 103.915 77.5598 104.077 77.2971C104.031 77.6032 103.944 77.9015 103.817 78.1838L102.93 80.6756C102.134 82.7851 101.033 85.8884 99.7635 89.7407C98.494 93.593 97.0868 98.1943 95.7102 103.377C94.3337 108.559 93.0489 114.291 91.917 120.36C90.7852 126.429 90.051 132.269 89.4851 137.589C88.9192 142.908 88.6133 147.709 88.4756 151.744C88.338 155.78 88.2462 159.067 88.2462 161.329C88.2462 162.399 88.2462 163.255 88.2462 163.943C88.2524 164.246 88.2216 164.549 88.1544 164.845Z" fill="#263238"/>
<path d="M91.7335 120.467C90.9379 121.548 90.0304 122.542 89.0263 123.433C87.2673 125.176 84.7742 127.53 81.9293 130.022C79.0844 132.513 76.4383 134.608 74.4652 136.136C73.4568 137.019 72.3539 137.788 71.1768 138.429C72.056 137.421 73.0347 136.505 74.0981 135.693L81.394 129.364L88.6286 123.035C89.5731 122.076 90.6135 121.215 91.7335 120.467Z" fill="#263238"/>
<path d="M113.208 137.742C112.139 136.486 111.172 135.146 110.317 133.737L103.617 123.968L96.8111 114.292C95.7904 113.007 94.8748 111.642 94.0732 110.21C95.2539 111.36 96.3289 112.613 97.2852 113.955C99.1665 116.34 101.675 119.703 104.336 123.51C106.998 127.316 109.261 130.847 110.852 133.446C111.752 134.812 112.54 136.249 113.208 137.742Z" fill="#263238"/>
<path d="M101.95 83.3814C102.073 83.5648 94.9453 88.3649 86.0282 94.0822C77.1111 99.7994 69.7694 104.309 69.6623 104.126C69.5553 103.942 76.6675 99.1268 85.5846 93.4248C94.5017 87.7228 101.828 83.1979 101.95 83.3814Z" fill="#263238"/>
<path d="M122.063 105.074C118.287 101.959 114.687 98.637 111.28 95.1219C107.682 91.7928 104.266 88.2717 101.048 84.574C104.832 87.6856 108.437 91.0081 111.846 94.5258C115.438 97.8571 118.848 101.378 122.063 105.074Z" fill="#263238"/>
<path d="M127.126 104.691L133.245 104.187C137.589 103.825 141.804 102.532 145.603 100.396C147.46 99.3084 149.386 98.3432 151.369 97.5064C159.017 94.4491 167.383 95.0147 175.536 94.6019C188.876 93.9249 201.946 90.5826 213.973 84.7725C214.677 84.4529 215.261 83.9174 215.64 83.2438C216.909 80.9508 214.569 78.9176 212.581 77.6794C202.272 71.32 191.779 64.8995 180.078 61.7352C168.378 58.5708 155.101 59.1211 145.114 65.9849C133.397 74.0411 129.13 90.5968 127.157 104.676" fill="#8547C6"/>
<path d="M215.777 82.4644C215.418 82.3424 215.074 82.1782 214.753 81.9752L211.846 80.4465C209.323 79.1166 205.728 77.1751 201.14 74.9738C195.808 72.3573 190.255 70.219 184.545 68.5839C177.563 66.5829 170.253 65.9904 163.039 66.8412C155.818 67.6488 148.999 70.5803 143.446 75.2643C139.103 79.2963 135.627 84.1699 133.229 89.5881C131.088 94.1741 129.757 98.0723 128.794 100.748C128.335 102.032 127.983 103.056 127.708 103.805C127.592 104.167 127.449 104.519 127.279 104.86C127.329 104.48 127.416 104.106 127.539 103.744C127.784 102.964 128.105 101.909 128.488 100.61C129.673 96.7652 131.083 92.9931 132.709 89.3129C135.065 83.7737 138.55 78.786 142.942 74.668C148.591 69.8507 155.553 66.8322 162.932 66.0004C170.252 65.1377 177.671 65.7617 184.743 67.8349C190.481 69.5171 196.051 71.7226 201.385 74.4235C205.973 76.7012 209.537 78.7344 212.015 80.1408L214.844 81.7917C215.181 81.9773 215.495 82.2031 215.777 82.4644Z" fill="#263238"/>
<path d="M201.079 90.3521C200.956 90.5509 192.942 85.3686 183.199 78.7953C173.456 72.2219 165.64 66.7492 165.762 66.5658C165.885 66.3823 173.899 71.5493 183.658 78.1226C193.416 84.696 201.201 90.1687 201.079 90.3521Z" fill="#263238"/>
<path d="M192.544 66.1377C190.661 66.7837 188.691 67.1394 186.701 67.1925C184.73 67.4589 182.729 67.428 180.767 67.1008C182.707 66.761 184.67 66.5617 186.64 66.5046C188.596 66.2363 190.57 66.1137 192.544 66.1377Z" fill="#263238"/>
<path d="M157.488 61.5671C156.823 63.0624 155.936 64.4488 154.857 65.6793C153.938 67.0953 152.814 68.3677 151.522 69.4552C152.186 67.9637 153.073 66.5821 154.153 65.3583C155.08 63.9434 156.202 62.667 157.488 61.5671Z" fill="#263238"/>
<path d="M164.661 95.0761C163.306 94.5152 162.014 93.8132 160.806 92.9818C158.497 91.5754 155.361 89.5269 152.027 87.0963C148.692 84.6657 145.74 82.3879 143.63 80.7064C142.434 79.8617 141.318 78.91 140.295 77.863C141.594 78.5359 142.824 79.3346 143.966 80.2478L152.501 86.439C155.835 88.8543 158.894 91.0251 161.112 92.5538C162.367 93.288 163.555 94.132 164.661 95.0761Z" fill="#263238"/>
<path d="M136.135 130.679C130.292 129.15 123.333 134.822 122.125 140.738C120.916 146.654 123.15 152.707 125.75 158.15C131.309 170.366 139.566 181.164 149.901 189.732C160.347 198.064 173.455 203.383 186.823 203.322C184.361 191.857 187.481 179.887 186.105 168.239C184.887 157.981 180.225 148.439 172.879 141.173C165.534 133.906 155.939 129.344 145.664 128.233C141.932 127.836 137.619 127.239 136.135 130.679Z" fill="#8547C6"/>
<path d="M186.824 203.276C186.532 203.188 186.254 203.06 185.998 202.894C185.226 202.449 184.494 201.937 183.81 201.365C181.372 199.251 179.407 196.647 178.044 193.722C177.111 191.903 176.071 189.946 174.985 187.775C173.899 185.605 172.951 183.189 171.85 180.835C170.713 178.285 169.426 175.804 167.995 173.406C166.411 170.866 164.632 168.453 162.672 166.19C158.68 161.497 154.382 157.431 150.666 153.563C147.293 150.173 144.222 146.495 141.489 142.572C139.664 139.915 138.16 137.052 137.007 134.042C136.64 132.957 136.365 132.116 136.227 131.535C136.123 131.245 136.062 130.941 136.043 130.633C136.12 130.633 136.456 131.825 137.298 133.92C138.52 136.855 140.058 139.649 141.886 142.251C144.648 146.091 147.717 149.701 151.063 153.044C154.795 156.881 159.124 160.916 163.162 165.671C165.141 167.967 166.936 170.415 168.53 172.993C169.982 175.419 171.275 177.936 172.4 180.529L175.459 187.485C176.438 189.656 177.463 191.643 178.35 193.447C179.632 196.365 181.489 198.996 183.81 201.182C185.722 202.65 186.869 203.2 186.824 203.276Z" fill="#263238"/>
<path d="M156.631 193.753C156.659 192.427 156.838 191.109 157.166 189.824C157.61 187.424 158.359 184.122 159.384 180.53C160.409 176.937 161.479 173.727 162.336 171.434C162.707 170.167 163.22 168.947 163.865 167.796C163.63 169.099 163.277 170.378 162.81 171.617C162.091 173.941 161.097 177.167 160.088 180.79C159.078 184.413 158.237 187.623 157.64 189.962C157.415 191.252 157.077 192.521 156.631 193.753Z" fill="#263238"/>
<path d="M185.722 165.625C184.326 165.428 182.949 165.111 181.608 164.677C179.084 164.02 175.612 163.149 171.742 162.247C167.873 161.345 164.355 160.718 161.801 160.214C160.401 160.031 159.019 159.729 157.671 159.312C159.086 159.273 160.501 159.386 161.892 159.648C164.477 159.984 168.01 160.581 171.926 161.452C175.842 162.323 179.283 163.317 181.761 164.127C183.132 164.481 184.46 164.983 185.722 165.625Z" fill="#263238"/>
<path d="M134.958 173.788C135.01 172.242 135.22 170.705 135.585 169.202C136.105 166.42 136.915 162.583 138.001 158.394C139.087 154.205 140.265 150.475 141.183 147.785C141.589 146.309 142.148 144.88 142.85 143.52C142.593 145.026 142.214 146.508 141.718 147.953C140.953 150.674 139.883 154.435 138.797 158.654C137.711 162.873 136.808 166.618 136.151 169.355C135.871 170.861 135.472 172.344 134.958 173.788Z" fill="#263238"/>
<path d="M172.324 141.104C172.324 141.318 164.998 140.737 156.035 139.79C147.072 138.842 139.822 137.879 139.837 137.665C145.285 137.83 150.722 138.269 156.126 138.979C161.558 139.415 166.964 140.124 172.324 141.104Z" fill="#263238"/>
<path d="M166.97 229.463C166.97 229.692 141.351 229.875 109.736 229.875C78.1204 229.875 52.4551 229.692 52.4551 229.463C52.4551 229.233 78.0745 229.065 109.69 229.065C141.305 229.065 166.97 229.233 166.97 229.463Z" fill="#455A64"/>
<path d="M149.151 262.422C149.151 262.651 131.883 262.834 110.592 262.834C89.3012 262.834 72.0176 262.651 72.0176 262.422C72.0176 262.192 89.2859 262.024 110.592 262.024C131.898 262.024 149.151 262.146 149.151 262.422Z" fill="#455A64"/>
<path d="M148.479 267.145C148.479 267.359 131.516 267.542 110.592 267.542C89.6686 267.542 72.6909 267.359 72.6909 267.145C72.6909 266.931 89.6533 266.732 110.577 266.732C131.501 266.732 148.479 266.916 148.479 267.145Z" fill="#455A64"/>
<path d="M149.825 258.539C149.825 258.768 131.96 258.952 109.935 258.952C87.9097 258.952 70.0449 258.768 70.0449 258.539C70.0449 258.31 87.8944 258.141 109.935 258.141C131.975 258.141 149.825 258.31 149.825 258.539Z" fill="#455A64"/>
</svg>
