<svg width="667" height="538" viewBox="0 0 667 538" fill="none" xmlns="http://www.w3.org/2000/svg">
<path d="M338.374 425.44C346.236 436.635 333.938 448.907 322.718 441.062C322.341 440.804 322.012 440.48 321.748 440.107C313.913 428.898 326.197 416.654 337.417 424.471C337.791 424.735 338.115 425.063 338.374 425.44Z" fill="#263238"/>
<path d="M647.408 0H19.5918C14.3944 0.00377173 9.41115 2.00965 5.7374 5.57679C2.06366 9.14393 -1.45376e-06 13.9804 0 19.0232V449.272C0 454.314 2.06412 459.149 5.73829 462.714C9.41246 466.279 14.3957 468.281 19.5918 468.281H260.544C260.544 468.281 275.868 514.267 228.282 538H453.661C453.661 538 400.018 520.158 413.817 468.281H647.408C652.604 468.281 657.587 466.279 661.262 462.714C664.936 459.149 667 454.314 667 449.272V19.0232C667 13.9804 664.936 9.14393 661.263 5.57679C657.589 2.00965 652.606 0.00377173 647.408 0Z" fill="#455A64"/>
<path d="M27.1279 7H639.872C641.727 7 643.565 7.37874 645.279 8.11458C646.993 8.85042 648.55 9.92895 649.862 11.2886C651.174 12.6483 652.215 14.2624 652.925 16.0389C653.635 17.8153 654 19.7194 654 21.6422V412H13V21.6422C13 17.7588 14.4885 14.0345 17.138 11.2886C19.7875 8.54266 23.381 7 27.1279 7Z" fill="#E0E0E0"/>
<path d="M519.014 451.702C519.014 451.891 436.865 452.052 335.542 452.052C234.219 452.052 152.071 451.891 152.071 451.702C152.071 451.514 234.192 451.366 335.542 451.366C436.892 451.366 519.014 451.514 519.014 451.702Z" fill="#263238"/>
<path d="M589 40H79V412H589V40Z" fill="white"/>
<path d="M589 412H79V18H589V412ZM80.5089 410.436H587.506V19.5639H80.4939L80.5089 410.436Z" fill="#263238"/>
<path d="M508.064 142.429C508.064 142.617 428.775 142.778 330.984 142.778C233.194 142.778 153.932 142.617 153.932 142.429C153.932 142.24 233.167 142.119 330.984 142.119C428.802 142.119 508.064 142.227 508.064 142.429Z" fill="#263238"/>
<path d="M431.081 183.914C430.911 183.934 430.739 183.934 430.568 183.914H429.058L423.219 183.981L401.765 184.089L330.985 184.264L260.191 184.156L238.737 184.048L232.898 183.981H231.387C231.217 184.002 231.045 184.002 230.875 183.981C231.045 183.964 231.217 183.964 231.387 183.981H232.898L238.737 183.914L260.191 183.793L330.985 183.699L401.765 183.793L423.219 183.914L429.058 183.981H430.568C430.736 183.941 430.908 183.919 431.081 183.914Z" fill="#263238"/>
<path d="M238.598 123H236.264V110.725H232.201C231.687 114.891 231.273 117.727 230.961 119.23C230.655 120.734 230.222 121.783 229.662 122.375C229.102 122.961 228.36 123.244 227.436 123.225C226.96 123.225 226.508 123.143 226.078 122.98V121.037C226.449 121.2 226.811 121.281 227.162 121.281C227.631 121.281 227.995 121.001 228.256 120.441C228.523 119.875 228.812 118.628 229.125 116.701C229.444 114.774 229.822 112.115 230.258 108.723H238.598V123ZM246.85 123.195C245.17 123.195 243.855 122.707 242.904 121.73C241.96 120.747 241.488 119.396 241.488 117.678C241.488 115.913 241.928 114.527 242.807 113.518C243.686 112.508 244.893 112.004 246.43 112.004C247.855 112.004 248.982 112.437 249.809 113.303C250.635 114.169 251.049 115.36 251.049 116.877V118.117H243.852C243.884 119.165 244.167 119.973 244.701 120.539C245.235 121.099 245.987 121.379 246.957 121.379C247.595 121.379 248.188 121.32 248.734 121.203C249.288 121.079 249.88 120.878 250.512 120.598V122.463C249.952 122.73 249.385 122.919 248.812 123.029C248.24 123.14 247.585 123.195 246.85 123.195ZM246.43 113.742C245.701 113.742 245.115 113.973 244.672 114.436C244.236 114.898 243.975 115.572 243.891 116.457H248.793C248.78 115.565 248.565 114.891 248.148 114.436C247.732 113.973 247.159 113.742 246.43 113.742ZM260.355 112.199H262.875L258.412 117.404L263.256 123H260.619L255.951 117.521V123H253.656V112.199H255.951V117.443L260.355 112.199ZM269.398 123.195C267.764 123.195 266.521 122.72 265.668 121.77C264.822 120.812 264.398 119.442 264.398 117.658C264.398 115.842 264.841 114.445 265.727 113.469C266.618 112.492 267.904 112.004 269.584 112.004C270.723 112.004 271.749 112.215 272.66 112.639L271.967 114.484C270.997 114.107 270.196 113.918 269.564 113.918C267.696 113.918 266.762 115.158 266.762 117.639C266.762 118.85 266.993 119.761 267.455 120.373C267.924 120.979 268.607 121.281 269.506 121.281C270.528 121.281 271.495 121.027 272.406 120.52V122.521C271.996 122.762 271.557 122.935 271.088 123.039C270.626 123.143 270.062 123.195 269.398 123.195ZM277.143 112.199V117.736C277.143 118.381 277.09 119.328 276.986 120.578L282.406 112.199H285.209V123H283.002V117.561C283.002 117.261 283.018 116.776 283.051 116.105C283.09 115.435 283.122 114.947 283.148 114.641L277.748 123H274.945V112.199H277.143ZM290.502 112.199V116.145C290.502 117.251 291.075 117.805 292.221 117.805C292.774 117.805 293.314 117.73 293.842 117.58C294.369 117.424 294.936 117.176 295.541 116.838V112.199H297.836V123H295.541V118.42C294.91 118.811 294.298 119.1 293.705 119.289C293.119 119.471 292.478 119.562 291.781 119.562C290.655 119.562 289.776 119.273 289.145 118.693C288.513 118.107 288.197 117.29 288.197 116.242V112.199H290.502ZM305.834 123.195C304.154 123.195 302.839 122.707 301.889 121.73C300.945 120.747 300.473 119.396 300.473 117.678C300.473 115.913 300.912 114.527 301.791 113.518C302.67 112.508 303.878 112.004 305.414 112.004C306.84 112.004 307.966 112.437 308.793 113.303C309.62 114.169 310.033 115.36 310.033 116.877V118.117H302.836C302.868 119.165 303.152 119.973 303.686 120.539C304.219 121.099 304.971 121.379 305.941 121.379C306.579 121.379 307.172 121.32 307.719 121.203C308.272 121.079 308.865 120.878 309.496 120.598V122.463C308.936 122.73 308.37 122.919 307.797 123.029C307.224 123.14 306.57 123.195 305.834 123.195ZM305.414 113.742C304.685 113.742 304.099 113.973 303.656 114.436C303.22 114.898 302.96 115.572 302.875 116.457H307.777C307.764 115.565 307.549 114.891 307.133 114.436C306.716 113.973 306.143 113.742 305.414 113.742ZM316.996 123.195C315.362 123.195 314.118 122.72 313.266 121.77C312.419 120.812 311.996 119.442 311.996 117.658C311.996 115.842 312.439 114.445 313.324 113.469C314.216 112.492 315.502 112.004 317.182 112.004C318.321 112.004 319.346 112.215 320.258 112.639L319.564 114.484C318.594 114.107 317.794 113.918 317.162 113.918C315.294 113.918 314.359 115.158 314.359 117.639C314.359 118.85 314.59 119.761 315.053 120.373C315.521 120.979 316.205 121.281 317.104 121.281C318.126 121.281 319.092 121.027 320.004 120.52V122.521C319.594 122.762 319.154 122.935 318.686 123.039C318.223 123.143 317.66 123.195 316.996 123.195ZM329.242 112.199H331.762L327.299 117.404L332.143 123H329.506L324.838 117.521V123H322.543V112.199H324.838V117.443L329.242 112.199ZM336.127 112.199V117.736C336.127 118.381 336.075 119.328 335.971 120.578L341.391 112.199H344.193V123H341.986V117.561C341.986 117.261 342.003 116.776 342.035 116.105C342.074 115.435 342.107 114.947 342.133 114.641L336.732 123H333.93V112.199H336.127ZM349.662 112.199V117.736C349.662 118.381 349.61 119.328 349.506 120.578L354.926 112.199H357.729V123H355.521V117.561C355.521 117.261 355.538 116.776 355.57 116.105C355.609 115.435 355.642 114.947 355.668 114.641L350.268 123H347.465V112.199H349.662ZM352.523 110.881C351.143 110.881 350.131 110.633 349.486 110.139C348.848 109.637 348.493 108.804 348.422 107.639H350.502C350.541 108.107 350.629 108.472 350.766 108.732C350.909 108.993 351.111 109.182 351.371 109.299C351.638 109.41 352.042 109.465 352.582 109.465C353.22 109.465 353.705 109.325 354.037 109.045C354.369 108.758 354.571 108.29 354.643 107.639H356.762C356.664 108.758 356.27 109.579 355.58 110.1C354.89 110.62 353.871 110.881 352.523 110.881ZM375.639 112.199V123H373.334V114.016H368.49V123H366.195V112.199H375.639ZM388.51 117.58C388.51 119.344 388.057 120.721 387.152 121.711C386.247 122.701 384.988 123.195 383.373 123.195C382.364 123.195 381.472 122.967 380.697 122.512C379.923 122.056 379.327 121.402 378.91 120.549C378.493 119.696 378.285 118.706 378.285 117.58C378.285 115.829 378.734 114.462 379.633 113.479C380.531 112.495 381.798 112.004 383.432 112.004C384.994 112.004 386.231 112.508 387.143 113.518C388.054 114.52 388.51 115.874 388.51 117.58ZM380.648 117.58C380.648 120.074 381.57 121.32 383.412 121.32C385.235 121.32 386.146 120.074 386.146 117.58C386.146 115.113 385.229 113.879 383.393 113.879C382.429 113.879 381.729 114.198 381.293 114.836C380.863 115.474 380.648 116.389 380.648 117.58ZM401.518 126.818H399.379V123H391.977V126.818H389.857V121.223H390.736C391.505 120.122 392.113 118.794 392.562 117.238C393.018 115.676 393.288 113.996 393.373 112.199H399.936V121.223H401.518V126.818ZM397.68 121.223V113.957H395.355C395.232 115.298 394.971 116.62 394.574 117.922C394.184 119.224 393.705 120.324 393.139 121.223H397.68ZM405.922 117.482L402.299 112.199H404.916L407.377 115.979L409.857 112.199H412.455L408.822 117.482L412.641 123H410.043L407.377 118.957L404.721 123H402.123L405.922 117.482ZM424.115 117.58C424.115 119.344 423.663 120.721 422.758 121.711C421.853 122.701 420.593 123.195 418.979 123.195C417.969 123.195 417.077 122.967 416.303 122.512C415.528 122.056 414.932 121.402 414.516 120.549C414.099 119.696 413.891 118.706 413.891 117.58C413.891 115.829 414.34 114.462 415.238 113.479C416.137 112.495 417.403 112.004 419.037 112.004C420.6 112.004 421.837 112.508 422.748 113.518C423.66 114.52 424.115 115.874 424.115 117.58ZM416.254 117.58C416.254 120.074 417.175 121.32 419.018 121.32C420.84 121.32 421.752 120.074 421.752 117.58C421.752 115.113 420.834 113.879 418.998 113.879C418.035 113.879 417.335 114.198 416.898 114.836C416.469 115.474 416.254 116.389 416.254 117.58ZM437.123 126.818H434.984V123H427.582V126.818H425.463V121.223H426.342C427.11 120.122 427.719 118.794 428.168 117.238C428.624 115.676 428.894 113.996 428.979 112.199H435.541V121.223H437.123V126.818ZM433.285 121.223V113.957H430.961C430.837 115.298 430.577 116.62 430.18 117.922C429.789 119.224 429.311 120.324 428.744 121.223H433.285Z" fill="black"/>
<path d="M201.429 75.6289C201.429 79.2096 199.134 81 194.544 81H189.356V63.1533H200.245V65.6558H192.273V70.4043H194.397C199.085 70.4043 201.429 72.1458 201.429 75.6289ZM192.273 78.5464H194.373C195.773 78.5464 196.798 78.3185 197.449 77.8628C198.1 77.3989 198.426 76.6543 198.426 75.6289C198.426 74.6442 198.096 73.9362 197.437 73.5049C196.786 73.0654 195.647 72.8457 194.019 72.8457H192.273V78.5464ZM215.772 81H212.879V69.7451H209.156C208.928 72.6423 208.619 74.9046 208.228 76.5322C207.846 78.1598 207.341 79.348 206.714 80.0967C206.096 80.8454 205.29 81.2197 204.297 81.2197C203.671 81.2197 203.146 81.1302 202.723 80.9512V78.7051C203.024 78.819 203.325 78.876 203.626 78.876C204.456 78.876 205.107 77.9442 205.579 76.0806C206.059 74.2088 206.434 71.3483 206.702 67.499H215.772V81ZM222.632 67.499V74.4204C222.632 75.2261 222.567 76.4102 222.437 77.9727L229.212 67.499H232.715V81H229.957V74.2007C229.957 73.8263 229.977 73.2201 230.018 72.3818C230.066 71.5436 230.107 70.9333 230.14 70.5508L223.389 81H219.886V67.499H222.632ZM243.458 74.0542V67.499H246.131V74.0542L251.331 67.499H254.358L249.048 74.0298L254.834 81H251.673L246.131 74.1519V81H243.458V74.1519L237.928 81H234.778L240.552 74.0298L235.254 67.499H238.282L243.458 74.0542ZM265.369 81L264.795 79.1201H264.698C264.047 79.9421 263.392 80.5036 262.732 80.8047C262.073 81.0977 261.227 81.2441 260.193 81.2441C258.867 81.2441 257.829 80.8861 257.081 80.1699C256.34 79.4538 255.97 78.4406 255.97 77.1304C255.97 75.7388 256.486 74.689 257.52 73.981C258.554 73.2729 260.128 72.8864 262.244 72.8213L264.576 72.748V72.0278C264.576 71.1652 264.372 70.5223 263.965 70.0991C263.567 69.6678 262.944 69.4521 262.098 69.4521C261.406 69.4521 260.743 69.5539 260.108 69.7573C259.473 69.9608 258.863 70.2008 258.277 70.4775L257.349 68.4268C258.082 68.0443 258.883 67.7554 259.754 67.5601C260.625 67.3566 261.447 67.2549 262.22 67.2549C263.937 67.2549 265.231 67.6292 266.102 68.3779C266.98 69.1266 267.42 70.3026 267.42 71.9058V81H265.369ZM261.097 79.0469C262.138 79.0469 262.972 78.758 263.599 78.1802C264.234 77.5942 264.551 76.7764 264.551 75.7266V74.5547L262.818 74.6279C261.467 74.6768 260.482 74.9046 259.864 75.3115C259.253 75.7103 258.948 76.3247 258.948 77.1548C258.948 77.757 259.127 78.2249 259.485 78.5586C259.843 78.8841 260.381 79.0469 261.097 79.0469ZM274.17 67.499V74.4204C274.17 75.2261 274.105 76.4102 273.975 77.9727L280.75 67.499H284.253V81H281.495V74.2007C281.495 73.8263 281.515 73.2201 281.556 72.3818C281.604 71.5436 281.645 70.9333 281.678 70.5508L274.927 81H271.424V67.499H274.17ZM277.747 65.8511C276.022 65.8511 274.756 65.5418 273.951 64.9233C273.153 64.2967 272.71 63.255 272.62 61.7983H275.22C275.269 62.3843 275.379 62.84 275.55 63.1655C275.729 63.491 275.981 63.7271 276.307 63.8735C276.64 64.0119 277.145 64.0811 277.82 64.0811C278.618 64.0811 279.224 63.9061 279.639 63.5562C280.054 63.1981 280.306 62.6121 280.396 61.7983H283.045C282.923 63.1981 282.431 64.2235 281.568 64.8745C280.705 65.5256 279.432 65.8511 277.747 65.8511ZM307.471 81H288.343V67.499H291.211V78.7295H296.473V67.499H299.341V78.7295H304.59V67.499H307.471V81ZM314.332 67.499V74.4204C314.332 75.2261 314.266 76.4102 314.136 77.9727L320.911 67.499H324.415V81H321.656V74.2007C321.656 73.8263 321.676 73.2201 321.717 72.3818C321.766 71.5436 321.806 70.9333 321.839 70.5508L315.088 81H311.585V67.499H314.332ZM334.4 81.2441C332.3 81.2441 330.656 80.6338 329.468 79.4131C328.288 78.1842 327.698 76.4956 327.698 74.3472C327.698 72.1418 328.248 70.4084 329.346 69.147C330.445 67.8856 331.954 67.2549 333.875 67.2549C335.657 67.2549 337.065 67.7961 338.099 68.8784C339.132 69.9608 339.649 71.45 339.649 73.3462V74.8965H330.652C330.693 76.2067 331.047 77.2158 331.714 77.9238C332.382 78.6237 333.322 78.9736 334.534 78.9736C335.332 78.9736 336.072 78.9004 336.756 78.7539C337.448 78.5993 338.188 78.347 338.978 77.9971V80.3286C338.278 80.6623 337.57 80.8983 336.854 81.0366C336.137 81.175 335.319 81.2441 334.4 81.2441ZM333.875 69.4277C332.964 69.4277 332.231 69.7166 331.678 70.2944C331.132 70.8722 330.807 71.7145 330.701 72.8213H336.829C336.813 71.7064 336.544 70.8641 336.023 70.2944C335.503 69.7166 334.786 69.4277 333.875 69.4277ZM361.121 70.9536C361.121 72.5487 360.189 73.513 358.326 73.8467V73.9443C359.367 74.0664 360.165 74.396 360.718 74.9331C361.272 75.4702 361.548 76.166 361.548 77.0205C361.548 78.2982 361.06 79.2829 360.083 79.9746C359.115 80.6582 357.703 81 355.848 81H349.402V67.499H355.823C359.355 67.499 361.121 68.6506 361.121 70.9536ZM358.606 76.8496C358.606 76.1986 358.354 75.7388 357.85 75.4702C357.345 75.1935 356.588 75.0552 355.579 75.0552H352.271V78.876H355.652C357.622 78.876 358.606 78.2005 358.606 76.8496ZM358.252 71.1978C358.252 70.6606 358.041 70.2741 357.618 70.0381C357.203 69.7939 356.58 69.6719 355.75 69.6719H352.271V72.9189H355.323C356.283 72.9189 357.011 72.7969 357.508 72.5527C358.004 72.3005 358.252 71.8488 358.252 71.1978ZM370.411 81.2441C368.311 81.2441 366.667 80.6338 365.479 79.4131C364.299 78.1842 363.709 76.4956 363.709 74.3472C363.709 72.1418 364.258 70.4084 365.357 69.147C366.456 67.8856 367.965 67.2549 369.886 67.2549C371.668 67.2549 373.076 67.7961 374.109 68.8784C375.143 69.9608 375.66 71.45 375.66 73.3462V74.8965H366.663C366.704 76.2067 367.058 77.2158 367.725 77.9238C368.392 78.6237 369.332 78.9736 370.545 78.9736C371.342 78.9736 372.083 78.9004 372.767 78.7539C373.458 78.5993 374.199 78.347 374.988 77.9971V80.3286C374.288 80.6623 373.58 80.8983 372.864 81.0366C372.148 81.175 371.33 81.2441 370.411 81.2441ZM369.886 69.4277C368.974 69.4277 368.242 69.7166 367.688 70.2944C367.143 70.8722 366.818 71.7145 366.712 72.8213H372.84C372.824 71.7064 372.555 70.8641 372.034 70.2944C371.513 69.7166 370.797 69.4277 369.886 69.4277ZM378.138 72.8945C378.138 69.8835 378.646 67.5682 379.664 65.9487C380.689 64.3293 382.317 63.2876 384.546 62.8237C386.231 62.4819 388.172 62.1483 390.369 61.8228L390.772 64.3496C388.103 64.7565 386.15 65.0739 384.913 65.3018C383.635 65.5378 382.711 66.0627 382.142 66.8765C381.58 67.6903 381.255 68.915 381.165 70.5508H381.348C381.812 69.8753 382.418 69.3545 383.167 68.9883C383.916 68.6139 384.717 68.4268 385.572 68.4268C387.232 68.4268 388.526 68.9517 389.454 70.0015C390.381 71.0513 390.845 72.5243 390.845 74.4204C390.845 76.5933 390.28 78.2738 389.148 79.4619C388.025 80.6501 386.467 81.2441 384.473 81.2441C382.496 81.2441 380.945 80.5117 379.822 79.0469C378.699 77.582 378.138 75.5312 378.138 72.8945ZM384.668 78.9004C386.801 78.9004 387.867 77.5007 387.867 74.7012C387.867 71.9993 386.902 70.6484 384.974 70.6484C384.445 70.6484 383.932 70.7624 383.436 70.9902C382.939 71.2181 382.479 71.5192 382.056 71.8936C381.641 72.2679 381.32 72.6545 381.092 73.0532C381.092 74.9738 381.397 76.4305 382.007 77.4233C382.618 78.408 383.505 78.9004 384.668 78.9004ZM396.9 67.499V74.4204C396.9 75.2261 396.835 76.4102 396.705 77.9727L403.479 67.499H406.983V81H404.224V74.2007C404.224 73.8263 404.244 73.2201 404.285 72.3818C404.334 71.5436 404.375 70.9333 404.407 70.5508L397.657 81H394.153V67.499H396.9ZM413.941 67.499V72.9189H420.301V67.499H423.169V81H420.301V75.1772H413.941V81H411.072V67.499H413.941ZM435.73 81L435.157 79.1201H435.059C434.408 79.9421 433.753 80.5036 433.094 80.8047C432.435 81.0977 431.588 81.2441 430.555 81.2441C429.228 81.2441 428.191 80.8861 427.442 80.1699C426.701 79.4538 426.331 78.4406 426.331 77.1304C426.331 75.7388 426.848 74.689 427.881 73.981C428.915 73.2729 430.49 72.8864 432.605 72.8213L434.937 72.748V72.0278C434.937 71.1652 434.734 70.5223 434.327 70.0991C433.928 69.6678 433.305 69.4521 432.459 69.4521C431.767 69.4521 431.104 69.5539 430.469 69.7573C429.834 69.9608 429.224 70.2008 428.638 70.4775L427.71 68.4268C428.443 68.0443 429.244 67.7554 430.115 67.5601C430.986 67.3566 431.808 67.2549 432.581 67.2549C434.298 67.2549 435.592 67.6292 436.463 68.3779C437.342 69.1266 437.781 70.3026 437.781 71.9058V81H435.73ZM431.458 79.0469C432.5 79.0469 433.334 78.758 433.96 78.1802C434.595 77.5942 434.913 76.7764 434.913 75.7266V74.5547L433.179 74.6279C431.828 74.6768 430.844 74.9046 430.225 75.3115C429.615 75.7103 429.31 76.3247 429.31 77.1548C429.31 77.757 429.489 78.2249 429.847 78.5586C430.205 78.8841 430.742 79.0469 431.458 79.0469ZM448.633 81.2441C446.924 81.2441 445.598 80.6297 444.654 79.4009H444.483C444.597 80.5402 444.654 81.2319 444.654 81.4761V87.0059H441.785V67.499H444.104C444.17 67.7513 444.304 68.3535 444.507 69.3057H444.654C445.549 67.9385 446.892 67.2549 448.682 67.2549C450.367 67.2549 451.677 67.8652 452.613 69.0859C453.557 70.3066 454.029 72.0197 454.029 74.2251C454.029 76.4305 453.549 78.1517 452.588 79.3887C451.636 80.6257 450.318 81.2441 448.633 81.2441ZM447.938 69.5986C446.798 69.5986 445.964 69.9323 445.435 70.5996C444.914 71.2669 444.654 72.333 444.654 73.7979V74.2251C444.654 75.869 444.914 77.0612 445.435 77.8018C445.956 78.5342 446.806 78.9004 447.986 78.9004C448.979 78.9004 449.744 78.4935 450.281 77.6797C450.818 76.8659 451.087 75.7062 451.087 74.2007C451.087 72.687 450.818 71.5436 450.281 70.7705C449.752 69.9893 448.971 69.5986 447.938 69.5986ZM460.23 72.8945H462.964C464.852 72.8945 466.248 73.2201 467.151 73.8711C468.055 74.5221 468.506 75.4987 468.506 76.8008C468.506 78.1924 468.034 79.2422 467.09 79.9502C466.154 80.6501 464.779 81 462.964 81H457.361V67.499H460.23V72.8945ZM465.662 76.874C465.662 76.1986 465.41 75.7266 464.905 75.458C464.409 75.1895 463.693 75.0552 462.757 75.0552H460.23V78.876H462.391C463.546 78.876 464.38 78.7132 464.893 78.3877C465.406 78.0622 465.662 77.5576 465.662 76.874ZM473.511 81H470.63V67.499H473.511V81Z" fill="#8547C6"/>
<path d="M291.917 170.791H290.73V168H283.289V170.791H282.103V166.872H282.93C283.682 165.607 284.324 164.069 284.856 162.258C285.394 160.446 285.691 158.791 285.75 157.292H290.562V166.872H291.917V170.791ZM289.317 166.872V158.413H286.878C286.79 159.594 286.495 161.015 285.992 162.675C285.489 164.331 284.903 165.729 284.234 166.872H289.317ZM299.527 168H298.296V161.013H295.887C295.755 162.751 295.572 164.13 295.337 165.151C295.103 166.171 294.798 166.918 294.422 167.392C294.051 167.866 293.577 168.103 293.001 168.103C292.737 168.103 292.527 168.073 292.371 168.015V167.114C292.479 167.143 292.601 167.158 292.737 167.158C293.299 167.158 293.746 166.564 294.078 165.378C294.41 164.191 294.661 162.39 294.832 159.973H299.527V168ZM302.515 168H301.094L303.401 164.609C302.781 164.472 302.305 164.208 301.973 163.818C301.646 163.422 301.482 162.927 301.482 162.331C301.482 161.599 301.729 161.022 302.222 160.603C302.715 160.183 303.404 159.973 304.288 159.973H307.862V168H306.646V164.792H304.617L302.515 168ZM302.669 162.346C302.669 163.273 303.343 163.737 304.69 163.737H306.646V161.027H304.441C303.26 161.027 302.669 161.467 302.669 162.346ZM313.069 159.973H314.373L316.131 164.55C316.517 165.595 316.756 166.35 316.849 166.813H316.907C316.971 166.564 317.103 166.14 317.303 165.539C317.508 164.934 318.172 163.078 319.295 159.973H320.599L317.149 169.113C316.807 170.017 316.407 170.656 315.948 171.032C315.494 171.413 314.935 171.604 314.271 171.604C313.899 171.604 313.533 171.562 313.172 171.479V170.505C313.44 170.563 313.741 170.593 314.073 170.593C314.908 170.593 315.503 170.124 315.86 169.187L316.307 168.044L313.069 159.973ZM322.972 159.973V162.902C322.972 163.84 323.506 164.309 324.576 164.309C325.02 164.309 325.445 164.24 325.85 164.104C326.255 163.967 326.714 163.735 327.227 163.408V159.973H328.443V168H327.227V164.367C326.714 164.719 326.238 164.968 325.799 165.114C325.364 165.256 324.871 165.327 324.319 165.327C323.519 165.327 322.891 165.117 322.437 164.697C321.983 164.277 321.756 163.708 321.756 162.99V159.973H322.972ZM332.171 159.973V165.063L332.12 166.396L332.098 166.813L336.441 159.973H337.957V168H336.822V163.093L336.844 162.126L336.88 161.174L332.544 168H331.028V159.973H332.171ZM345.948 161.013H343.34V168H342.125V161.013H339.546V159.973H345.948V161.013ZM350.928 168.146C349.742 168.146 348.804 167.785 348.116 167.062C347.432 166.34 347.09 165.336 347.09 164.052C347.09 162.758 347.408 161.73 348.042 160.969C348.682 160.207 349.539 159.826 350.613 159.826C351.619 159.826 352.415 160.158 353.001 160.822C353.587 161.481 353.88 162.353 353.88 163.437V164.206H348.35C348.375 165.148 348.611 165.864 349.061 166.352C349.515 166.84 350.152 167.084 350.972 167.084C351.836 167.084 352.691 166.904 353.536 166.542V167.626C353.106 167.812 352.698 167.944 352.312 168.022C351.932 168.105 351.47 168.146 350.928 168.146ZM350.599 160.844C349.954 160.844 349.439 161.054 349.053 161.474C348.672 161.894 348.448 162.475 348.379 163.217H352.576C352.576 162.451 352.405 161.865 352.063 161.459C351.722 161.049 351.233 160.844 350.599 160.844ZM361.944 168H360.713V161.013H358.304C358.172 162.751 357.989 164.13 357.754 165.151C357.52 166.171 357.215 166.918 356.839 167.392C356.468 167.866 355.994 168.103 355.418 168.103C355.154 168.103 354.944 168.073 354.788 168.015V167.114C354.896 167.143 355.018 167.158 355.154 167.158C355.716 167.158 356.163 166.564 356.495 165.378C356.827 164.191 357.078 162.39 357.249 159.973H361.944V168ZM367.92 168.146C366.734 168.146 365.796 167.785 365.108 167.062C364.424 166.34 364.083 165.336 364.083 164.052C364.083 162.758 364.4 161.73 365.035 160.969C365.674 160.207 366.531 159.826 367.605 159.826C368.611 159.826 369.407 160.158 369.993 160.822C370.579 161.481 370.872 162.353 370.872 163.437V164.206H365.342C365.367 165.148 365.604 165.864 366.053 166.352C366.507 166.84 367.144 167.084 367.964 167.084C368.829 167.084 369.683 166.904 370.528 166.542V167.626C370.098 167.812 369.69 167.944 369.305 168.022C368.924 168.105 368.462 168.146 367.92 168.146ZM367.591 160.844C366.946 160.844 366.431 161.054 366.045 161.474C365.665 161.894 365.44 162.475 365.372 163.217H369.568C369.568 162.451 369.397 161.865 369.056 161.459C368.714 161.049 368.226 160.844 367.591 160.844ZM374.095 159.973V165.063L374.043 166.396L374.021 166.813L378.365 159.973H379.881V168H378.746V163.093L378.768 162.126L378.804 161.174L374.468 168H372.952V159.973H374.095ZM376.387 158.911C375.484 158.911 374.825 158.737 374.41 158.391C373.995 158.039 373.763 157.463 373.714 156.662H374.856C374.9 157.17 375.032 157.524 375.252 157.724C375.477 157.924 375.865 158.024 376.417 158.024C376.919 158.024 377.291 157.917 377.53 157.702C377.774 157.487 377.923 157.141 377.977 156.662H379.126C379.068 157.434 378.821 158.002 378.387 158.369C377.952 158.73 377.286 158.911 376.387 158.911Z" fill="black" fill-opacity="0.37"/>
<rect x="212" y="204" width="33.12" height="29.424" rx="5" fill="#E0E0E0"/>
<path d="M225.353 224.494H223.632V217.58C223.632 216.755 223.651 216.101 223.69 215.617C223.578 215.734 223.439 215.864 223.273 216.005C223.112 216.147 222.565 216.596 221.632 217.353L220.768 216.262L223.917 213.786H225.353V224.494ZM232.501 217.807C233.581 217.807 234.435 218.093 235.065 218.664C235.695 219.235 236.01 220.014 236.01 221C236.01 222.143 235.651 223.037 234.933 223.681C234.22 224.321 233.205 224.641 231.886 224.641C230.69 224.641 229.75 224.448 229.066 224.062V222.502C229.462 222.727 229.916 222.9 230.429 223.022C230.941 223.144 231.417 223.205 231.857 223.205C232.633 223.205 233.224 223.032 233.629 222.685C234.035 222.338 234.237 221.831 234.237 221.162C234.237 219.882 233.422 219.243 231.791 219.243C231.562 219.243 231.278 219.267 230.941 219.316C230.604 219.36 230.309 219.411 230.055 219.47L229.286 219.016L229.696 213.786H235.263V215.317H231.212L230.971 217.968C231.142 217.939 231.349 217.905 231.593 217.866C231.842 217.827 232.145 217.807 232.501 217.807Z" fill="#8547C6"/>
<rect x="257.387" y="204" width="33.12" height="29.424" rx="5" fill="#E0E0E0"/>
<path d="M273.558 219.14C273.558 221 273.257 222.382 272.657 223.286C272.061 224.189 271.148 224.641 269.917 224.641C268.726 224.641 267.823 224.174 267.208 223.242C266.592 222.309 266.285 220.942 266.285 219.14C266.285 217.25 266.583 215.859 267.178 214.965C267.779 214.067 268.692 213.618 269.917 213.618C271.114 213.618 272.02 214.086 272.635 215.024C273.25 215.961 273.558 217.333 273.558 219.14ZM268.028 219.14C268.028 220.6 268.177 221.643 268.475 222.268C268.777 222.893 269.258 223.205 269.917 223.205C270.577 223.205 271.058 222.888 271.36 222.253C271.668 221.618 271.822 220.581 271.822 219.14C271.822 217.705 271.668 216.667 271.36 216.027C271.058 215.383 270.577 215.061 269.917 215.061C269.258 215.061 268.777 215.375 268.475 216.005C268.177 216.635 268.028 217.68 268.028 219.14ZM279.922 224.494H278.201V217.58C278.201 216.755 278.221 216.101 278.26 215.617C278.147 215.734 278.008 215.864 277.842 216.005C277.681 216.147 277.134 216.596 276.202 217.353L275.337 216.262L278.487 213.786H279.922V224.494Z" fill="#8547C6"/>
<rect x="302.773" y="204" width="55.2" height="29.424" rx="5" fill="#E0E0E0"/>
<path d="M321.558 224.494H314.299V223.19L317.061 220.415C317.876 219.58 318.416 218.989 318.679 218.642C318.948 218.291 319.143 217.961 319.265 217.653C319.387 217.346 319.448 217.016 319.448 216.665C319.448 216.181 319.302 215.8 319.009 215.522C318.721 215.244 318.32 215.104 317.808 215.104C317.397 215.104 317 215.18 316.614 215.332C316.233 215.483 315.791 215.756 315.288 216.152L314.358 215.017C314.954 214.514 315.532 214.157 316.094 213.947C316.655 213.737 317.253 213.632 317.888 213.632C318.884 213.632 319.683 213.894 320.283 214.416C320.884 214.934 321.184 215.632 321.184 216.511C321.184 216.994 321.096 217.453 320.92 217.888C320.75 218.322 320.483 218.771 320.122 219.235C319.766 219.694 319.17 220.317 318.335 221.103L316.475 222.905V222.978H321.558V224.494ZM330.127 219.14C330.127 221 329.827 222.382 329.226 223.286C328.63 224.189 327.717 224.641 326.487 224.641C325.295 224.641 324.392 224.174 323.777 223.242C323.162 222.309 322.854 220.942 322.854 219.14C322.854 217.25 323.152 215.859 323.748 214.965C324.348 214.067 325.261 213.618 326.487 213.618C327.683 213.618 328.589 214.086 329.204 215.024C329.819 215.961 330.127 217.333 330.127 219.14ZM324.597 219.14C324.597 220.6 324.746 221.643 325.044 222.268C325.347 222.893 325.828 223.205 326.487 223.205C327.146 223.205 327.627 222.888 327.93 222.253C328.237 221.618 328.391 220.581 328.391 219.14C328.391 217.705 328.237 216.667 327.93 216.027C327.627 215.383 327.146 215.061 326.487 215.061C325.828 215.061 325.347 215.375 325.044 216.005C324.746 216.635 324.597 217.68 324.597 219.14ZM338.696 224.494H331.438V223.19L334.199 220.415C335.015 219.58 335.554 218.989 335.818 218.642C336.086 218.291 336.282 217.961 336.404 217.653C336.526 217.346 336.587 217.016 336.587 216.665C336.587 216.181 336.44 215.8 336.147 215.522C335.859 215.244 335.459 215.104 334.946 215.104C334.536 215.104 334.138 215.18 333.752 215.332C333.372 215.483 332.93 215.756 332.427 216.152L331.497 215.017C332.092 214.514 332.671 214.157 333.232 213.947C333.794 213.737 334.392 213.632 335.027 213.632C336.023 213.632 336.821 213.894 337.422 214.416C338.022 214.934 338.323 215.632 338.323 216.511C338.323 216.994 338.235 217.453 338.059 217.888C337.888 218.322 337.622 218.771 337.261 219.235C336.904 219.694 336.309 220.317 335.474 221.103L333.613 222.905V222.978H338.696V224.494ZM345.061 224.494H343.34V217.58C343.34 216.755 343.359 216.101 343.398 215.617C343.286 215.734 343.147 215.864 342.981 216.005C342.82 216.147 342.273 216.596 341.34 217.353L340.476 216.262L343.625 213.786H345.061V224.494Z" fill="#8547C6"/>
<rect x="382.507" y="204" width="69.92" height="29.424" rx="5" fill="#E0E0E0"/>
<path d="M404.353 224.494H402.632V217.58C402.632 216.755 402.651 216.101 402.69 215.617C402.578 215.734 402.439 215.864 402.273 216.005C402.112 216.147 401.565 216.596 400.632 217.353L399.768 216.262L402.917 213.786H404.353V224.494ZM411.501 217.807C412.581 217.807 413.435 218.093 414.065 218.664C414.695 219.235 415.01 220.014 415.01 221C415.01 222.143 414.651 223.037 413.933 223.681C413.22 224.321 412.205 224.641 410.886 224.641C409.69 224.641 408.75 224.448 408.066 224.062V222.502C408.462 222.727 408.916 222.9 409.429 223.022C409.941 223.144 410.417 223.205 410.857 223.205C411.633 223.205 412.224 223.032 412.629 222.685C413.035 222.338 413.237 221.831 413.237 221.162C413.237 219.882 412.422 219.243 410.791 219.243C410.562 219.243 410.278 219.267 409.941 219.316C409.604 219.36 409.309 219.411 409.055 219.47L408.286 219.016L408.696 213.786H414.263V215.317H410.212L409.971 217.968C410.142 217.939 410.349 217.905 410.593 217.866C410.842 217.827 411.145 217.807 411.501 217.807ZM416.753 223.579C416.753 223.222 416.846 222.949 417.031 222.758C417.217 222.568 417.485 222.473 417.837 222.473C418.193 222.473 418.464 222.573 418.65 222.773C418.835 222.968 418.928 223.237 418.928 223.579C418.928 223.925 418.833 224.201 418.643 224.406C418.457 224.606 418.188 224.707 417.837 224.707C417.485 224.707 417.217 224.606 417.031 224.406C416.846 224.206 416.753 223.93 416.753 223.579ZM416.753 217.324C416.753 216.586 417.114 216.218 417.837 216.218C418.203 216.218 418.477 216.315 418.657 216.511C418.838 216.706 418.928 216.977 418.928 217.324C418.928 217.67 418.833 217.946 418.643 218.151C418.457 218.352 418.188 218.452 417.837 218.452C417.485 218.452 417.217 218.352 417.031 218.151C416.846 217.951 416.753 217.675 416.753 217.324ZM427.827 219.14C427.827 221 427.527 222.382 426.926 223.286C426.331 224.189 425.417 224.641 424.187 224.641C422.996 224.641 422.092 224.174 421.477 223.242C420.862 222.309 420.554 220.942 420.554 219.14C420.554 217.25 420.852 215.859 421.448 214.965C422.048 214.067 422.961 213.618 424.187 213.618C425.383 213.618 426.289 214.086 426.904 215.024C427.52 215.961 427.827 217.333 427.827 219.14ZM422.297 219.14C422.297 220.6 422.446 221.643 422.744 222.268C423.047 222.893 423.528 223.205 424.187 223.205C424.846 223.205 425.327 222.888 425.63 222.253C425.938 221.618 426.091 220.581 426.091 219.14C426.091 217.705 425.938 216.667 425.63 216.027C425.327 215.383 424.846 215.061 424.187 215.061C423.528 215.061 423.047 215.375 422.744 216.005C422.446 216.635 422.297 217.68 422.297 219.14ZM436.396 219.14C436.396 221 436.096 222.382 435.496 223.286C434.9 224.189 433.987 224.641 432.756 224.641C431.565 224.641 430.662 224.174 430.046 223.242C429.431 222.309 429.124 220.942 429.124 219.14C429.124 217.25 429.421 215.859 430.017 214.965C430.618 214.067 431.531 213.618 432.756 213.618C433.953 213.618 434.858 214.086 435.474 215.024C436.089 215.961 436.396 217.333 436.396 219.14ZM430.867 219.14C430.867 220.6 431.016 221.643 431.313 222.268C431.616 222.893 432.097 223.205 432.756 223.205C433.416 223.205 433.896 222.888 434.199 222.253C434.507 221.618 434.661 220.581 434.661 219.14C434.661 217.705 434.507 216.667 434.199 216.027C433.896 215.383 433.416 215.061 432.756 215.061C432.097 215.061 431.616 215.375 431.313 216.005C431.016 216.635 430.867 217.68 430.867 219.14Z" fill="#8547C6"/>
<g filter="url(#filter0_d)">
<rect x="214" y="336" width="237" height="52" rx="26" fill="#FCB697"/>
</g>
<path d="M295.646 367H293.888V357.793H289.164V367H287.414V356.292H295.646V367ZM306 362.935C306 364.258 305.661 365.291 304.982 366.033C304.303 366.775 303.358 367.146 302.148 367.146C301.391 367.146 300.722 366.976 300.141 366.634C299.56 366.292 299.113 365.801 298.8 365.162C298.488 364.522 298.332 363.78 298.332 362.935C298.332 361.622 298.669 360.596 299.342 359.859C300.016 359.122 300.966 358.753 302.192 358.753C303.363 358.753 304.291 359.131 304.975 359.888C305.658 360.64 306 361.656 306 362.935ZM300.104 362.935C300.104 364.805 300.795 365.74 302.177 365.74C303.544 365.74 304.228 364.805 304.228 362.935C304.228 361.084 303.539 360.159 302.162 360.159C301.44 360.159 300.915 360.398 300.587 360.877C300.265 361.355 300.104 362.042 300.104 362.935ZM316.281 369.864H314.677V367H309.125V369.864H307.536V365.667H308.195C308.771 364.842 309.228 363.846 309.565 362.679C309.906 361.507 310.109 360.247 310.173 358.899H315.094V365.667H316.281V369.864ZM313.403 365.667V360.218H311.659C311.567 361.224 311.371 362.215 311.073 363.191C310.78 364.168 310.422 364.993 309.997 365.667H313.403ZM322.416 367.146C321.391 367.146 320.595 366.778 320.029 366.041H319.926C319.994 366.724 320.029 367.139 320.029 367.286V370.604H318.307V358.899H319.699C319.738 359.051 319.819 359.412 319.941 359.983H320.029C320.566 359.163 321.371 358.753 322.446 358.753C323.456 358.753 324.242 359.119 324.804 359.852C325.37 360.584 325.654 361.612 325.654 362.935C325.654 364.258 325.366 365.291 324.789 366.033C324.218 366.775 323.427 367.146 322.416 367.146ZM321.999 360.159C321.315 360.159 320.815 360.359 320.497 360.76C320.185 361.16 320.029 361.8 320.029 362.679V362.935C320.029 363.921 320.185 364.637 320.497 365.081C320.81 365.521 321.32 365.74 322.028 365.74C322.624 365.74 323.083 365.496 323.405 365.008C323.727 364.52 323.888 363.824 323.888 362.92C323.888 362.012 323.727 361.326 323.405 360.862C323.088 360.394 322.619 360.159 321.999 360.159ZM335.363 362.935C335.363 364.258 335.024 365.291 334.345 366.033C333.666 366.775 332.722 367.146 331.511 367.146C330.754 367.146 330.085 366.976 329.504 366.634C328.923 366.292 328.476 365.801 328.163 365.162C327.851 364.522 327.695 363.78 327.695 362.935C327.695 361.622 328.032 360.596 328.705 359.859C329.379 359.122 330.329 358.753 331.555 358.753C332.726 358.753 333.654 359.131 334.338 359.888C335.021 360.64 335.363 361.656 335.363 362.935ZM329.467 362.935C329.467 364.805 330.158 365.74 331.54 365.74C332.907 365.74 333.591 364.805 333.591 362.935C333.591 361.084 332.902 360.159 331.525 360.159C330.803 360.159 330.278 360.398 329.951 360.877C329.628 361.355 329.467 362.042 329.467 362.935ZM337.404 362.137C337.404 360.33 337.709 358.941 338.32 357.969C338.935 356.998 339.912 356.373 341.25 356.094C342.26 355.889 343.425 355.689 344.743 355.494L344.985 357.01C343.383 357.254 342.211 357.444 341.469 357.581C340.703 357.723 340.148 358.038 339.807 358.526C339.47 359.014 339.274 359.749 339.221 360.73H339.331C339.609 360.325 339.973 360.013 340.422 359.793C340.871 359.568 341.352 359.456 341.865 359.456C342.861 359.456 343.637 359.771 344.194 360.401C344.75 361.031 345.029 361.915 345.029 363.052C345.029 364.356 344.689 365.364 344.011 366.077C343.337 366.79 342.402 367.146 341.206 367.146C340.019 367.146 339.089 366.707 338.415 365.828C337.741 364.949 337.404 363.719 337.404 362.137ZM341.323 365.74C342.602 365.74 343.242 364.9 343.242 363.221C343.242 361.6 342.663 360.789 341.506 360.789C341.188 360.789 340.881 360.857 340.583 360.994C340.285 361.131 340.009 361.312 339.755 361.536C339.506 361.761 339.313 361.993 339.177 362.232C339.177 363.384 339.36 364.258 339.726 364.854C340.092 365.445 340.625 365.74 341.323 365.74ZM349.26 358.899V362.151H353.076V358.899H354.797V367H353.076V363.506H349.26V367H347.539V358.899H349.26ZM361.328 367.146C360.068 367.146 359.082 366.78 358.369 366.048C357.661 365.311 357.307 364.297 357.307 363.008C357.307 361.685 357.636 360.645 358.296 359.888C358.955 359.131 359.861 358.753 361.013 358.753C362.082 358.753 362.927 359.078 363.547 359.727C364.167 360.376 364.477 361.27 364.477 362.408V363.338H359.079C359.104 364.124 359.316 364.729 359.717 365.154C360.117 365.574 360.681 365.784 361.408 365.784C361.887 365.784 362.331 365.74 362.741 365.652C363.156 365.56 363.601 365.408 364.074 365.198V366.597C363.654 366.797 363.23 366.939 362.8 367.022C362.37 367.105 361.88 367.146 361.328 367.146ZM361.013 360.057C360.466 360.057 360.027 360.23 359.695 360.577C359.367 360.923 359.172 361.429 359.109 362.093H362.785C362.776 361.424 362.614 360.918 362.302 360.577C361.989 360.23 361.56 360.057 361.013 360.057ZM370.495 367.146C369.236 367.146 368.249 366.78 367.536 366.048C366.828 365.311 366.474 364.297 366.474 363.008C366.474 361.685 366.804 360.645 367.463 359.888C368.122 359.131 369.028 358.753 370.18 358.753C371.25 358.753 372.095 359.078 372.715 359.727C373.335 360.376 373.645 361.27 373.645 362.408V363.338H368.247C368.271 364.124 368.484 364.729 368.884 365.154C369.284 365.574 369.848 365.784 370.576 365.784C371.054 365.784 371.499 365.74 371.909 365.652C372.324 365.56 372.768 365.408 373.242 365.198V366.597C372.822 366.797 372.397 366.939 371.968 367.022C371.538 367.105 371.047 367.146 370.495 367.146ZM370.18 360.057C369.634 360.057 369.194 360.23 368.862 360.577C368.535 360.923 368.34 361.429 368.276 362.093H371.953C371.943 361.424 371.782 360.918 371.47 360.577C371.157 360.23 370.727 360.057 370.18 360.057Z" fill="black"/>
<path d="M158.839 274.979C158.839 276.288 158.509 277.311 157.85 278.048C157.191 278.78 156.28 279.146 155.118 279.146C154.4 279.146 153.763 278.978 153.207 278.641C152.65 278.304 152.22 277.821 151.917 277.191C151.615 276.561 151.463 275.824 151.463 274.979C151.463 273.67 151.791 272.652 152.445 271.925C153.099 271.192 154.007 270.826 155.169 270.826C156.292 270.826 157.184 271.2 157.843 271.947C158.507 272.694 158.839 273.705 158.839 274.979ZM152.723 274.979C152.723 276.004 152.928 276.786 153.338 277.323C153.749 277.86 154.352 278.128 155.147 278.128C155.943 278.128 156.546 277.862 156.957 277.33C157.372 276.793 157.579 276.009 157.579 274.979C157.579 273.958 157.372 273.185 156.957 272.657C156.546 272.125 155.938 271.859 155.133 271.859C154.337 271.859 153.736 272.12 153.331 272.643C152.926 273.165 152.723 273.944 152.723 274.979ZM166.09 279H164.874V270.973H171.612V279H170.382V272.027H166.09V279ZM177.926 279.146C177.403 279.146 176.925 279.051 176.49 278.861C176.061 278.666 175.699 278.368 175.406 277.967H175.318C175.377 278.436 175.406 278.88 175.406 279.3V282.604H174.19V270.973H175.179L175.348 272.071H175.406C175.719 271.632 176.083 271.314 176.498 271.119C176.913 270.924 177.389 270.826 177.926 270.826C178.99 270.826 179.811 271.19 180.387 271.917C180.968 272.645 181.258 273.666 181.258 274.979C181.258 276.297 180.963 277.323 180.372 278.055C179.786 278.783 178.971 279.146 177.926 279.146ZM177.75 271.859C176.93 271.859 176.336 272.086 175.97 272.54C175.604 272.994 175.416 273.717 175.406 274.708V274.979C175.406 276.107 175.594 276.915 175.97 277.403C176.346 277.887 176.949 278.128 177.779 278.128C178.473 278.128 179.015 277.848 179.405 277.286C179.801 276.725 179.999 275.951 179.999 274.964C179.999 273.963 179.801 273.197 179.405 272.665C179.015 272.127 178.463 271.859 177.75 271.859ZM184.532 270.973V276.063L184.481 277.396L184.459 277.813L188.802 270.973H190.318V279H189.183V274.093L189.205 273.126L189.242 272.174L184.906 279H183.39V270.973H184.532ZM199.408 272.987C199.408 273.509 199.256 273.907 198.954 274.181C198.656 274.449 198.236 274.63 197.694 274.723V274.789C198.377 274.881 198.875 275.082 199.188 275.389C199.505 275.697 199.664 276.122 199.664 276.664C199.664 277.411 199.388 277.987 198.836 278.392C198.29 278.797 197.489 279 196.434 279H192.896V270.973H196.419C198.412 270.973 199.408 271.644 199.408 272.987ZM198.448 276.583C198.448 276.148 198.282 275.833 197.95 275.638C197.623 275.438 197.079 275.338 196.317 275.338H194.112V277.982H196.346C197.748 277.982 198.448 277.516 198.448 276.583ZM198.221 273.104C198.221 272.713 198.07 272.438 197.767 272.276C197.469 272.11 197.015 272.027 196.405 272.027H194.112V274.291H196.17C196.922 274.291 197.452 274.198 197.76 274.012C198.067 273.827 198.221 273.524 198.221 273.104ZM202.652 274.291H204.842C205.863 274.291 206.617 274.481 207.105 274.862C207.599 275.238 207.845 275.802 207.845 276.554C207.845 277.359 207.584 277.97 207.062 278.385C206.544 278.795 205.78 279 204.769 279H201.437V270.973H202.652V274.291ZM210.409 279H209.193V270.973H210.409V279ZM202.652 275.338V277.982H204.71C206 277.982 206.644 277.53 206.644 276.627C206.644 276.178 206.495 275.851 206.197 275.646C205.899 275.44 205.392 275.338 204.674 275.338H202.652ZM214.063 270.973V273.902C214.063 274.84 214.598 275.309 215.667 275.309C216.112 275.309 216.537 275.24 216.942 275.104C217.347 274.967 217.806 274.735 218.319 274.408V270.973H219.535V279H218.319V275.367C217.806 275.719 217.33 275.968 216.891 276.114C216.456 276.256 215.963 276.327 215.411 276.327C214.61 276.327 213.983 276.117 213.529 275.697C213.075 275.277 212.848 274.708 212.848 273.99V270.973H214.063ZM223.336 270.973V274.334H227.833V270.973H229.049V279H227.833V275.382H223.336V279H222.12V270.973H223.336ZM238.556 274.979C238.556 276.288 238.226 277.311 237.567 278.048C236.908 278.78 235.997 279.146 234.835 279.146C234.117 279.146 233.48 278.978 232.923 278.641C232.367 278.304 231.937 277.821 231.634 277.191C231.332 276.561 231.18 275.824 231.18 274.979C231.18 273.67 231.507 272.652 232.162 271.925C232.816 271.192 233.724 270.826 234.886 270.826C236.009 270.826 236.9 271.2 237.56 271.947C238.224 272.694 238.556 273.705 238.556 274.979ZM232.44 274.979C232.44 276.004 232.645 276.786 233.055 277.323C233.465 277.86 234.068 278.128 234.864 278.128C235.66 278.128 236.263 277.862 236.673 277.33C237.088 276.793 237.296 276.009 237.296 274.979C237.296 273.958 237.088 273.185 236.673 272.657C236.263 272.125 235.655 271.859 234.85 271.859C234.054 271.859 233.453 272.12 233.048 272.643C232.643 273.165 232.44 273.944 232.44 274.979ZM244.862 277.828L245.089 277.147L245.404 276.283L247.579 270.987H249.125V279H248.048V272.372L247.901 272.796L247.477 273.917L245.404 279H244.386L242.313 273.902C242.054 273.248 241.876 272.738 241.778 272.372V279H240.694V270.987H242.181L244.283 276.078C244.493 276.615 244.686 277.198 244.862 277.828ZM256.764 270.973V276.063L256.712 277.396L256.69 277.813L261.034 270.973H262.55V279H261.415V274.093L261.437 273.126L261.473 272.174L257.137 279H255.621V270.973H256.764ZM275.008 279H273.778V272.013H271.368C271.236 273.751 271.053 275.13 270.819 276.151C270.584 277.171 270.279 277.918 269.903 278.392C269.532 278.866 269.059 279.103 268.482 279.103C268.219 279.103 268.009 279.073 267.853 279.015V278.114C267.96 278.143 268.082 278.158 268.219 278.158C268.78 278.158 269.227 277.564 269.559 276.378C269.891 275.191 270.143 273.39 270.313 270.973H275.008V279ZM280.985 279.146C279.798 279.146 278.861 278.785 278.172 278.062C277.489 277.34 277.147 276.336 277.147 275.052C277.147 273.758 277.464 272.73 278.099 271.969C278.739 271.207 279.596 270.826 280.67 270.826C281.676 270.826 282.472 271.158 283.058 271.822C283.644 272.481 283.937 273.353 283.937 274.437V275.206H278.407C278.431 276.148 278.668 276.864 279.117 277.352C279.571 277.84 280.208 278.084 281.029 278.084C281.893 278.084 282.748 277.904 283.592 277.542V278.626C283.163 278.812 282.755 278.944 282.369 279.022C281.988 279.105 281.527 279.146 280.985 279.146ZM280.655 271.844C280.011 271.844 279.496 272.054 279.11 272.474C278.729 272.894 278.504 273.475 278.436 274.217H282.633C282.633 273.451 282.462 272.865 282.12 272.459C281.778 272.049 281.29 271.844 280.655 271.844ZM290.697 270.973H292.03L288.565 274.847L292.315 279H290.895L287.232 274.935V279H286.017V270.973H287.232V274.876L290.697 270.973ZM297.018 279.146C295.855 279.146 294.955 278.79 294.315 278.077C293.68 277.359 293.363 276.346 293.363 275.038C293.363 273.695 293.685 272.657 294.33 271.925C294.979 271.192 295.902 270.826 297.098 270.826C297.484 270.826 297.87 270.868 298.255 270.951C298.641 271.034 298.944 271.131 299.164 271.244L298.79 272.276C298.521 272.169 298.229 272.081 297.911 272.013C297.594 271.939 297.313 271.903 297.069 271.903C295.438 271.903 294.623 272.943 294.623 275.023C294.623 276.009 294.82 276.766 295.216 277.293C295.616 277.821 296.207 278.084 296.988 278.084C297.657 278.084 298.343 277.94 299.046 277.652V278.729C298.509 279.007 297.833 279.146 297.018 279.146ZM302.101 270.973V276.063L302.049 277.396L302.027 277.813L306.371 270.973H307.887V279H306.751V274.093L306.773 273.126L306.81 272.174L302.474 279H300.958V270.973H302.101ZM311.534 270.973V273.902C311.534 274.84 312.069 275.309 313.138 275.309C313.583 275.309 314.007 275.24 314.413 275.104C314.818 274.967 315.277 274.735 315.79 274.408V270.973H317.005V279H315.79V275.367C315.277 275.719 314.801 275.968 314.361 276.114C313.927 276.256 313.434 276.327 312.882 276.327C312.081 276.327 311.454 276.117 311 275.697C310.545 275.277 310.318 274.708 310.318 273.99V270.973H311.534ZM322.982 279.146C321.795 279.146 320.858 278.785 320.169 278.062C319.486 277.34 319.144 276.336 319.144 275.052C319.144 273.758 319.461 272.73 320.096 271.969C320.736 271.207 321.593 270.826 322.667 270.826C323.673 270.826 324.469 271.158 325.055 271.822C325.641 272.481 325.934 273.353 325.934 274.437V275.206H320.404C320.428 276.148 320.665 276.864 321.114 277.352C321.568 277.84 322.206 278.084 323.026 278.084C323.89 278.084 324.745 277.904 325.589 277.542V278.626C325.16 278.812 324.752 278.944 324.366 279.022C323.985 279.105 323.524 279.146 322.982 279.146ZM322.652 271.844C322.008 271.844 321.493 272.054 321.107 272.474C320.726 272.894 320.501 273.475 320.433 274.217H324.63C324.63 273.451 324.459 272.865 324.117 272.459C323.775 272.049 323.287 271.844 322.652 271.844ZM331.222 279.146C330.06 279.146 329.159 278.79 328.519 278.077C327.884 277.359 327.567 276.346 327.567 275.038C327.567 273.695 327.889 272.657 328.534 271.925C329.183 271.192 330.106 270.826 331.302 270.826C331.688 270.826 332.074 270.868 332.459 270.951C332.845 271.034 333.148 271.131 333.368 271.244L332.994 272.276C332.726 272.169 332.433 272.081 332.115 272.013C331.798 271.939 331.517 271.903 331.273 271.903C329.642 271.903 328.827 272.943 328.827 275.023C328.827 276.009 329.024 276.766 329.42 277.293C329.82 277.821 330.411 278.084 331.192 278.084C331.861 278.084 332.547 277.94 333.25 277.652V278.729C332.713 279.007 332.037 279.146 331.222 279.146ZM339.842 270.973H341.175L337.711 274.847L341.461 279H340.04L336.378 274.935V279H335.162V270.973H336.378V274.876L339.842 270.973ZM349.884 274.979C349.884 276.288 349.554 277.311 348.895 278.048C348.236 278.78 347.325 279.146 346.163 279.146C345.445 279.146 344.808 278.978 344.251 278.641C343.695 278.304 343.265 277.821 342.962 277.191C342.66 276.561 342.508 275.824 342.508 274.979C342.508 273.67 342.835 272.652 343.49 271.925C344.144 271.192 345.052 270.826 346.214 270.826C347.337 270.826 348.229 271.2 348.888 271.947C349.552 272.694 349.884 273.705 349.884 274.979ZM343.768 274.979C343.768 276.004 343.973 276.786 344.383 277.323C344.793 277.86 345.396 278.128 346.192 278.128C346.988 278.128 347.591 277.862 348.001 277.33C348.417 276.793 348.624 276.009 348.624 274.979C348.624 273.958 348.417 273.185 348.001 272.657C347.591 272.125 346.983 271.859 346.178 271.859C345.382 271.859 344.781 272.12 344.376 272.643C343.971 273.165 343.768 273.944 343.768 274.979ZM356.19 277.828L356.417 277.147L356.732 276.283L358.907 270.987H360.453V279H359.376V272.372L359.229 272.796L358.805 273.917L356.732 279H355.714L353.641 273.902C353.382 273.248 353.204 272.738 353.106 272.372V279H352.022V270.987H353.509L355.611 276.078C355.821 276.615 356.014 277.198 356.19 277.828ZM373.46 272.987C373.46 273.509 373.309 273.907 373.006 274.181C372.708 274.449 372.289 274.63 371.747 274.723V274.789C372.43 274.881 372.928 275.082 373.241 275.389C373.558 275.697 373.717 276.122 373.717 276.664C373.717 277.411 373.441 277.987 372.889 278.392C372.342 278.797 371.542 279 370.487 279H366.949V270.973H370.472C372.464 270.973 373.46 271.644 373.46 272.987ZM372.501 276.583C372.501 276.148 372.335 275.833 372.003 275.638C371.676 275.438 371.131 275.338 370.37 275.338H368.165V277.982H370.399C371.8 277.982 372.501 277.516 372.501 276.583ZM372.274 273.104C372.274 272.713 372.123 272.438 371.82 272.276C371.522 272.11 371.068 272.027 370.458 272.027H368.165V274.291H370.223C370.975 274.291 371.505 274.198 371.812 274.012C372.12 273.827 372.274 273.524 372.274 273.104ZM377.02 274.305C378.539 274.305 379.298 273.885 379.298 273.045C379.298 272.254 378.683 271.859 377.452 271.859C377.076 271.859 376.734 271.893 376.427 271.961C376.119 272.03 375.716 272.167 375.218 272.372L374.786 271.383C375.616 271.012 376.522 270.826 377.503 270.826C378.426 270.826 379.154 271.017 379.686 271.397C380.218 271.773 380.484 272.289 380.484 272.943C380.484 273.841 379.984 274.43 378.983 274.708V274.767C379.598 274.947 380.047 275.206 380.331 275.543C380.614 275.875 380.755 276.292 380.755 276.795C380.755 277.538 380.455 278.116 379.854 278.531C379.259 278.941 378.434 279.146 377.379 279.146C376.222 279.146 375.328 278.973 374.698 278.626V277.513C375.592 277.933 376.495 278.143 377.408 278.143C378.111 278.143 378.641 278.023 378.998 277.784C379.359 277.54 379.54 277.191 379.54 276.737C379.54 275.804 378.78 275.338 377.262 275.338H376.148V274.305H377.02ZM387.574 272.013H383.956V279H382.74V270.973H387.574V272.013ZM395.155 279H393.924V272.013H391.515C391.383 273.751 391.2 275.13 390.965 276.151C390.731 277.171 390.426 277.918 390.05 278.392C389.679 278.866 389.205 279.103 388.629 279.103C388.365 279.103 388.155 279.073 387.999 279.015V278.114C388.106 278.143 388.229 278.158 388.365 278.158C388.927 278.158 389.374 277.564 389.706 276.378C390.038 275.191 390.289 273.39 390.46 270.973H395.155V279ZM398.143 279H396.722L399.029 275.609C398.409 275.472 397.933 275.208 397.601 274.818C397.274 274.422 397.11 273.927 397.11 273.331C397.11 272.599 397.357 272.022 397.85 271.603C398.343 271.183 399.032 270.973 399.916 270.973H403.49V279H402.274V275.792H400.245L398.143 279ZM398.297 273.346C398.297 274.273 398.971 274.737 400.318 274.737H402.274V272.027H400.069C398.888 272.027 398.297 272.467 398.297 273.346ZM413.048 281.776H411.869V279H406.258V281.776H405.086V277.953H405.716C406.371 277.064 406.883 276.021 407.254 274.825C407.625 273.629 407.818 272.345 407.833 270.973H411.898V277.953H413.048V281.776ZM410.726 277.953V271.932H408.924C408.861 273.016 408.651 274.115 408.294 275.228C407.943 276.336 407.503 277.245 406.976 277.953H410.726ZM418.05 279.146C416.864 279.146 415.926 278.785 415.238 278.062C414.554 277.34 414.212 276.336 414.212 275.052C414.212 273.758 414.53 272.73 415.165 271.969C415.804 271.207 416.661 270.826 417.735 270.826C418.741 270.826 419.537 271.158 420.123 271.822C420.709 272.481 421.002 273.353 421.002 274.437V275.206H415.472C415.497 276.148 415.733 276.864 416.183 277.352C416.637 277.84 417.274 278.084 418.094 278.084C418.958 278.084 419.813 277.904 420.658 277.542V278.626C420.228 278.812 419.82 278.944 419.435 279.022C419.054 279.105 418.592 279.146 418.05 279.146ZM417.721 271.844C417.076 271.844 416.561 272.054 416.175 272.474C415.794 272.894 415.57 273.475 415.501 274.217H419.698C419.698 273.451 419.527 272.865 419.186 272.459C418.844 272.049 418.355 271.844 417.721 271.844ZM428.194 270.973V274.334H432.691V270.973H433.907V279H432.691V275.382H428.194V279H426.979V270.973H428.194ZM441.422 279L441.18 277.857H441.122C440.721 278.36 440.321 278.702 439.92 278.883C439.525 279.059 439.029 279.146 438.434 279.146C437.638 279.146 437.013 278.941 436.559 278.531C436.109 278.121 435.885 277.538 435.885 276.781C435.885 275.16 437.181 274.31 439.774 274.232L441.136 274.188V273.69C441.136 273.06 441 272.596 440.726 272.298C440.458 271.996 440.025 271.844 439.43 271.844C438.761 271.844 438.004 272.049 437.159 272.459L436.786 271.529C437.181 271.314 437.613 271.146 438.082 271.024C438.556 270.902 439.029 270.841 439.503 270.841C440.46 270.841 441.168 271.053 441.627 271.478C442.091 271.903 442.323 272.584 442.323 273.521V279H441.422ZM438.675 278.143C439.432 278.143 440.025 277.936 440.455 277.521C440.89 277.105 441.107 276.524 441.107 275.777V275.052L439.891 275.104C438.924 275.138 438.226 275.289 437.796 275.558C437.372 275.821 437.159 276.234 437.159 276.795C437.159 277.235 437.291 277.569 437.555 277.799C437.823 278.028 438.197 278.143 438.675 278.143ZM449.134 279H447.713L450.021 275.609C449.4 275.472 448.924 275.208 448.592 274.818C448.265 274.422 448.102 273.927 448.102 273.331C448.102 272.599 448.348 272.022 448.841 271.603C449.334 271.183 450.023 270.973 450.907 270.973H454.481V279H453.265V275.792H451.236L449.134 279ZM449.288 273.346C449.288 274.273 449.962 274.737 451.31 274.737H453.265V272.027H451.061C449.879 272.027 449.288 272.467 449.288 273.346ZM458.597 274.305C460.116 274.305 460.875 273.885 460.875 273.045C460.875 272.254 460.26 271.859 459.029 271.859C458.653 271.859 458.312 271.893 458.004 271.961C457.696 272.03 457.293 272.167 456.795 272.372L456.363 271.383C457.193 271.012 458.099 270.826 459.081 270.826C460.003 270.826 460.731 271.017 461.263 271.397C461.795 271.773 462.062 272.289 462.062 272.943C462.062 273.841 461.561 274.43 460.56 274.708V274.767C461.175 274.947 461.625 275.206 461.908 275.543C462.191 275.875 462.333 276.292 462.333 276.795C462.333 277.538 462.032 278.116 461.432 278.531C460.836 278.941 460.011 279.146 458.956 279.146C457.799 279.146 456.905 278.973 456.275 278.626V277.513C457.169 277.933 458.072 278.143 458.985 278.143C459.688 278.143 460.218 278.023 460.575 277.784C460.936 277.54 461.117 277.191 461.117 276.737C461.117 275.804 460.357 275.338 458.839 275.338H457.726V274.305H458.597ZM465.533 274.291H467.723C468.744 274.291 469.498 274.481 469.986 274.862C470.479 275.238 470.726 275.802 470.726 276.554C470.726 277.359 470.465 277.97 469.942 278.385C469.425 278.795 468.661 279 467.65 279H464.317V270.973H465.533V274.291ZM473.29 279H472.074V270.973H473.29V279ZM465.533 275.338V277.982H467.591C468.88 277.982 469.525 277.53 469.525 276.627C469.525 276.178 469.376 275.851 469.078 275.646C468.78 275.44 468.272 275.338 467.555 275.338H465.533ZM480.555 270.973H481.888L478.424 274.847L482.174 279H480.753L477.091 274.935V279H475.875V270.973H477.091V274.876L480.555 270.973Z" fill="black"/>
<circle cx="136" cy="275" r="4" fill="#8547C6"/>
<path d="M221.307 312.979C221.307 314.288 220.978 315.311 220.318 316.048C219.659 316.78 218.749 317.146 217.586 317.146C216.869 317.146 216.231 316.978 215.675 316.641C215.118 316.304 214.688 315.821 214.386 315.191C214.083 314.561 213.932 313.824 213.932 312.979C213.932 311.67 214.259 310.652 214.913 309.925C215.567 309.192 216.476 308.826 217.638 308.826C218.761 308.826 219.652 309.2 220.311 309.947C220.975 310.694 221.307 311.705 221.307 312.979ZM215.191 312.979C215.191 314.004 215.396 314.786 215.807 315.323C216.217 315.86 216.82 316.128 217.616 316.128C218.412 316.128 219.015 315.862 219.425 315.33C219.84 314.793 220.047 314.009 220.047 312.979C220.047 311.958 219.84 311.185 219.425 310.657C219.015 310.125 218.407 309.859 217.601 309.859C216.805 309.859 216.205 310.12 215.799 310.643C215.394 311.165 215.191 311.944 215.191 312.979ZM230.55 317.146C229.388 317.146 228.487 316.79 227.848 316.077C227.213 315.359 226.896 314.346 226.896 313.038C226.896 311.695 227.218 310.657 227.862 309.925C228.512 309.192 229.435 308.826 230.631 308.826C231.017 308.826 231.402 308.868 231.788 308.951C232.174 309.034 232.477 309.131 232.696 309.244L232.323 310.276C232.054 310.169 231.761 310.081 231.444 310.013C231.126 309.939 230.846 309.903 230.602 309.903C228.971 309.903 228.155 310.943 228.155 313.023C228.155 314.009 228.353 314.766 228.749 315.293C229.149 315.821 229.74 316.084 230.521 316.084C231.19 316.084 231.876 315.94 232.579 315.652V316.729C232.042 317.007 231.366 317.146 230.55 317.146ZM240.475 317H239.244V310.013H236.834C236.703 311.751 236.52 313.13 236.285 314.151C236.051 315.171 235.746 315.918 235.37 316.392C234.999 316.866 234.525 317.103 233.949 317.103C233.685 317.103 233.475 317.073 233.319 317.015V316.114C233.426 316.143 233.548 316.158 233.685 316.158C234.247 316.158 234.693 315.564 235.025 314.378C235.357 313.191 235.609 311.39 235.78 308.973H240.475V317ZM249.989 312.979C249.989 314.288 249.659 315.311 249 316.048C248.341 316.78 247.43 317.146 246.268 317.146C245.55 317.146 244.913 316.978 244.356 316.641C243.8 316.304 243.37 315.821 243.067 315.191C242.765 314.561 242.613 313.824 242.613 312.979C242.613 311.67 242.94 310.652 243.595 309.925C244.249 309.192 245.157 308.826 246.319 308.826C247.442 308.826 248.333 309.2 248.993 309.947C249.657 310.694 249.989 311.705 249.989 312.979ZM243.873 312.979C243.873 314.004 244.078 314.786 244.488 315.323C244.898 315.86 245.501 316.128 246.297 316.128C247.093 316.128 247.696 315.862 248.106 315.33C248.521 314.793 248.729 314.009 248.729 312.979C248.729 311.958 248.521 311.185 248.106 310.657C247.696 310.125 247.088 309.859 246.283 309.859C245.487 309.859 244.886 310.12 244.481 310.643C244.076 311.165 243.873 311.944 243.873 312.979ZM258.639 310.987C258.639 311.509 258.487 311.907 258.185 312.181C257.887 312.449 257.467 312.63 256.925 312.723V312.789C257.608 312.881 258.106 313.082 258.419 313.389C258.736 313.697 258.895 314.122 258.895 314.664C258.895 315.411 258.619 315.987 258.067 316.392C257.521 316.797 256.72 317 255.665 317H252.127V308.973H255.65C257.643 308.973 258.639 309.644 258.639 310.987ZM257.679 314.583C257.679 314.148 257.513 313.833 257.181 313.638C256.854 313.438 256.31 313.338 255.548 313.338H253.343V315.982H255.577C256.979 315.982 257.679 315.516 257.679 314.583ZM257.452 311.104C257.452 310.713 257.301 310.438 256.998 310.276C256.7 310.11 256.246 310.027 255.636 310.027H253.343V312.291H255.401C256.153 312.291 256.683 312.198 256.991 312.012C257.298 311.827 257.452 311.524 257.452 311.104ZM267.596 312.979C267.596 314.288 267.267 315.311 266.607 316.048C265.948 316.78 265.038 317.146 263.875 317.146C263.158 317.146 262.521 316.978 261.964 316.641C261.407 316.304 260.978 315.821 260.675 315.191C260.372 314.561 260.221 313.824 260.221 312.979C260.221 311.67 260.548 310.652 261.202 309.925C261.856 309.192 262.765 308.826 263.927 308.826C265.05 308.826 265.941 309.2 266.6 309.947C267.264 310.694 267.596 311.705 267.596 312.979ZM261.48 312.979C261.48 314.004 261.686 314.786 262.096 315.323C262.506 315.86 263.109 316.128 263.905 316.128C264.701 316.128 265.304 315.862 265.714 315.33C266.129 314.793 266.336 314.009 266.336 312.979C266.336 311.958 266.129 311.185 265.714 310.657C265.304 310.125 264.696 309.859 263.89 309.859C263.094 309.859 262.494 310.12 262.088 310.643C261.683 311.165 261.48 311.944 261.48 312.979ZM272.943 317.146C271.781 317.146 270.88 316.79 270.24 316.077C269.605 315.359 269.288 314.346 269.288 313.038C269.288 311.695 269.61 310.657 270.255 309.925C270.904 309.192 271.827 308.826 273.023 308.826C273.409 308.826 273.795 308.868 274.181 308.951C274.566 309.034 274.869 309.131 275.089 309.244L274.715 310.276C274.447 310.169 274.154 310.081 273.836 310.013C273.519 309.939 273.238 309.903 272.994 309.903C271.363 309.903 270.548 310.943 270.548 313.023C270.548 314.009 270.746 314.766 271.141 315.293C271.542 315.821 272.132 316.084 272.914 316.084C273.583 316.084 274.269 315.94 274.972 315.652V316.729C274.435 317.007 273.758 317.146 272.943 317.146ZM283.812 312.979C283.812 314.288 283.482 315.311 282.823 316.048C282.164 316.78 281.253 317.146 280.091 317.146C279.374 317.146 278.736 316.978 278.18 316.641C277.623 316.304 277.193 315.821 276.891 315.191C276.588 314.561 276.437 313.824 276.437 312.979C276.437 311.67 276.764 310.652 277.418 309.925C278.072 309.192 278.98 308.826 280.143 308.826C281.266 308.826 282.157 309.2 282.816 309.947C283.48 310.694 283.812 311.705 283.812 312.979ZM277.696 312.979C277.696 314.004 277.901 314.786 278.312 315.323C278.722 315.86 279.325 316.128 280.121 316.128C280.917 316.128 281.52 315.862 281.93 315.33C282.345 314.793 282.552 314.009 282.552 312.979C282.552 311.958 282.345 311.185 281.93 310.657C281.52 310.125 280.912 309.859 280.106 309.859C279.31 309.859 278.709 310.12 278.304 310.643C277.899 311.165 277.696 311.944 277.696 312.979ZM287.02 308.973V311.902C287.02 312.84 287.555 313.309 288.624 313.309C289.068 313.309 289.493 313.24 289.898 313.104C290.304 312.967 290.763 312.735 291.275 312.408V308.973H292.491V317H291.275V313.367C290.763 313.719 290.287 313.968 289.847 314.114C289.413 314.256 288.919 314.327 288.368 314.327C287.567 314.327 286.939 314.117 286.485 313.697C286.031 313.277 285.804 312.708 285.804 311.99V308.973H287.02ZM298.468 317.146C297.281 317.146 296.344 316.785 295.655 316.062C294.972 315.34 294.63 314.336 294.63 313.052C294.63 311.758 294.947 310.73 295.582 309.969C296.222 309.207 297.079 308.826 298.153 308.826C299.159 308.826 299.955 309.158 300.541 309.822C301.126 310.481 301.419 311.353 301.419 312.437V313.206H295.89C295.914 314.148 296.151 314.864 296.6 315.352C297.054 315.84 297.691 316.084 298.512 316.084C299.376 316.084 300.23 315.904 301.075 315.542V316.626C300.646 316.812 300.238 316.944 299.852 317.022C299.471 317.105 299.01 317.146 298.468 317.146ZM298.138 309.844C297.494 309.844 296.979 310.054 296.593 310.474C296.212 310.894 295.987 311.475 295.919 312.217H300.116C300.116 311.451 299.945 310.865 299.603 310.459C299.261 310.049 298.773 309.844 298.138 309.844ZM308.912 310.013H306.305V317H305.089V310.013H302.511V308.973H308.912V310.013ZM315.438 317L315.196 315.857H315.138C314.737 316.36 314.337 316.702 313.937 316.883C313.541 317.059 313.045 317.146 312.45 317.146C311.654 317.146 311.029 316.941 310.575 316.531C310.125 316.121 309.901 315.538 309.901 314.781C309.901 313.16 311.197 312.31 313.79 312.232L315.152 312.188V311.69C315.152 311.06 315.016 310.596 314.742 310.298C314.474 309.996 314.042 309.844 313.446 309.844C312.777 309.844 312.02 310.049 311.175 310.459L310.802 309.529C311.197 309.314 311.629 309.146 312.098 309.024C312.572 308.902 313.045 308.841 313.519 308.841C314.476 308.841 315.184 309.053 315.643 309.478C316.107 309.903 316.339 310.584 316.339 311.521V317H315.438ZM312.691 316.143C313.448 316.143 314.042 315.936 314.471 315.521C314.906 315.105 315.123 314.524 315.123 313.777V313.052L313.907 313.104C312.94 313.138 312.242 313.289 311.812 313.558C311.388 313.821 311.175 314.234 311.175 314.795C311.175 315.235 311.307 315.569 311.571 315.799C311.839 316.028 312.213 316.143 312.691 316.143ZM320.067 308.973V312.334H324.564V308.973H325.78V317H324.564V313.382H320.067V317H318.851V308.973H320.067ZM329.5 308.973V314.063L329.449 315.396L329.427 315.813L333.771 308.973H335.287V317H334.151V312.093L334.173 311.126L334.21 310.174L329.874 317H328.358V308.973H329.5ZM338.268 317H336.847L339.154 313.609C338.534 313.472 338.058 313.208 337.726 312.818C337.398 312.422 337.235 311.927 337.235 311.331C337.235 310.599 337.481 310.022 337.975 309.603C338.468 309.183 339.156 308.973 340.04 308.973H343.614V317H342.398V313.792H340.37L338.268 317ZM338.421 311.346C338.421 312.273 339.095 312.737 340.443 312.737H342.398V310.027H340.194C339.012 310.027 338.421 310.467 338.421 311.346ZM348.133 312.891L345.343 308.973H346.727L348.844 312.049L350.953 308.973H352.323L349.532 312.891L352.469 317H351.092L348.844 313.748L346.573 317H345.196L348.133 312.891ZM359.105 308.973V314.063L359.054 315.396L359.032 315.813L363.375 308.973H364.891V317H363.756V312.093L363.778 311.126L363.814 310.174L359.479 317H357.962V308.973H359.105ZM374.574 317.146C373.412 317.146 372.511 316.79 371.871 316.077C371.236 315.359 370.919 314.346 370.919 313.038C370.919 311.695 371.241 310.657 371.886 309.925C372.535 309.192 373.458 308.826 374.654 308.826C375.04 308.826 375.426 308.868 375.812 308.951C376.197 309.034 376.5 309.131 376.72 309.244L376.346 310.276C376.078 310.169 375.785 310.081 375.467 310.013C375.15 309.939 374.869 309.903 374.625 309.903C372.994 309.903 372.179 310.943 372.179 313.023C372.179 314.009 372.376 314.766 372.772 315.293C373.172 315.821 373.763 316.084 374.544 316.084C375.213 316.084 375.899 315.94 376.603 315.652V316.729C376.065 317.007 375.389 317.146 374.574 317.146ZM384.007 317V311.807C384.007 311.153 383.858 310.665 383.561 310.342C383.263 310.02 382.796 309.859 382.162 309.859C381.317 309.859 380.699 310.088 380.309 310.547C379.923 311.006 379.73 311.758 379.73 312.803V317H378.514V305.604H379.73V309.053C379.73 309.468 379.71 309.812 379.671 310.086H379.745C379.984 309.7 380.323 309.397 380.763 309.178C381.207 308.953 381.712 308.841 382.279 308.841C383.26 308.841 383.995 309.075 384.483 309.544C384.977 310.008 385.223 310.748 385.223 311.763V317H384.007ZM388.871 308.973V314.18C388.871 314.834 389.02 315.323 389.317 315.645C389.615 315.967 390.082 316.128 390.716 316.128C391.556 316.128 392.169 315.899 392.555 315.44C392.945 314.981 393.141 314.231 393.141 313.191V308.973H394.356V317H393.353L393.177 315.923H393.111C392.862 316.319 392.516 316.622 392.071 316.832C391.632 317.042 391.129 317.146 390.562 317.146C389.586 317.146 388.854 316.915 388.365 316.451C387.882 315.987 387.64 315.245 387.64 314.224V308.973H388.871ZM402.435 317V311.807C402.435 311.153 402.286 310.665 401.988 310.342C401.69 310.02 401.224 309.859 400.589 309.859C399.75 309.859 399.134 310.086 398.744 310.54C398.353 310.994 398.158 311.744 398.158 312.789V317H396.942V308.973H397.931L398.128 310.071H398.187C398.436 309.676 398.785 309.371 399.234 309.156C399.684 308.936 400.184 308.826 400.736 308.826C401.703 308.826 402.43 309.061 402.918 309.529C403.407 309.993 403.651 310.738 403.651 311.763V317H402.435ZM407.357 312.891C407.567 312.593 407.887 312.203 408.316 311.719L410.909 308.973H412.352L409.1 312.393L412.579 317H411.107L408.272 313.206L407.357 313.997V317H406.156V305.604H407.357V311.646C407.357 311.915 407.337 312.33 407.298 312.891H407.357ZM419.215 314.81C419.215 315.557 418.937 316.133 418.38 316.539C417.823 316.944 417.042 317.146 416.036 317.146C414.972 317.146 414.142 316.978 413.546 316.641V315.513C413.932 315.708 414.344 315.862 414.784 315.975C415.228 316.087 415.655 316.143 416.065 316.143C416.7 316.143 417.188 316.043 417.53 315.843C417.872 315.638 418.043 315.328 418.043 314.913C418.043 314.6 417.906 314.334 417.633 314.114C417.364 313.89 416.837 313.626 416.051 313.323C415.304 313.045 414.771 312.803 414.454 312.598C414.142 312.388 413.907 312.151 413.751 311.888C413.6 311.624 413.524 311.309 413.524 310.943C413.524 310.289 413.79 309.773 414.322 309.397C414.854 309.017 415.584 308.826 416.512 308.826C417.376 308.826 418.221 309.002 419.046 309.354L418.614 310.342C417.809 310.01 417.079 309.844 416.424 309.844C415.848 309.844 415.414 309.935 415.121 310.115C414.828 310.296 414.681 310.545 414.681 310.862C414.681 311.077 414.735 311.26 414.842 311.412C414.955 311.563 415.133 311.707 415.377 311.844C415.621 311.98 416.09 312.178 416.783 312.437C417.735 312.784 418.377 313.133 418.709 313.484C419.046 313.836 419.215 314.278 419.215 314.81Z" fill="black"/>
<circle cx="197" cy="313" r="4" fill="#8547C6"/>
<defs>
<filter id="filter0_d" x="208" y="336" width="249" height="66" filterUnits="userSpaceOnUse" color-interpolation-filters="sRGB">
<feFlood flood-opacity="0" result="BackgroundImageFix"/>
<feColorMatrix in="SourceAlpha" type="matrix" values="0 0 0 0 0 0 0 0 0 0 0 0 0 0 0 0 0 0 127 0"/>
<feOffset dy="8"/>
<feGaussianBlur stdDeviation="3"/>
<feColorMatrix type="matrix" values="0 0 0 0 0.988235 0 0 0 0 0.713725 0 0 0 0 0.592157 0 0 0 0.25 0"/>
<feBlend mode="normal" in2="BackgroundImageFix" result="effect1_dropShadow"/>
<feBlend mode="normal" in="SourceGraphic" in2="effect1_dropShadow" result="shape"/>
</filter>
</defs>
</svg>
