<svg width="379" height="257" viewBox="0 0 379 257" fill="none" xmlns="http://www.w3.org/2000/svg">
<path d="M30.1196 -116.763L26.7525 -112.242C-1.5937 -74.1697 -7.64209 -23.4565 12.617 19.5319C15.195 25.0573 18.1758 30.3856 21.5353 35.4733C45.9019 72.1694 89.5966 95.1614 133.579 94.4131C159.441 93.9733 186.278 86.0521 210.536 95.0778C242.122 106.901 257.03 142.172 268.459 173.868C279.889 205.564 294.918 240.884 326.541 252.494C346.338 259.767 368.755 255.675 387.903 246.828C438.576 223.462 470.343 168.46 474.873 112.764C479.404 57.0685 459.685 1.41954 429.319 -45.5014C386.826 -111.239 320.911 -163.608 244.535 -180.547C168.159 -197.487 82.0779 -175.231 30.1196 -116.763Z" fill="#ECDDF6" fill-opacity="0.3"/>
</svg>
