<svg width="290" height="426" viewBox="0 0 290 426" fill="none" xmlns="http://www.w3.org/2000/svg">
<path d="M236.021 403.156L240.088 400.346C274.323 376.691 293.592 336.273 288.842 294.881C288.254 289.568 287.275 284.306 285.914 279.137C275.986 241.817 246.157 210.449 209.419 198.715C187.818 191.816 163.306 190.856 145.695 176.546C122.785 157.855 120.312 124.375 119.723 94.8415C119.134 65.308 116.574 31.7539 93.5735 13.2291C79.1752 1.62811 59.4088 -1.27089 41.0213 0.69777C-7.62489 5.86872 -49.4564 42.6234 -68.8642 87.6052C-88.2719 132.587 -87.5272 184.342 -75.489 231.838C-58.6651 298.369 -18.6347 360.376 40.0362 395.898C98.707 431.419 176.447 437.117 236.021 403.156Z" fill="#ECDDF6" fill-opacity="0.3"/>
</svg>
