<svg width="25" height="25" viewBox="0 0 25 25" fill="none" xmlns="http://www.w3.org/2000/svg">
<g clip-path="url(#clip0)">
<path d="M23.407 0H1.59657C0.714487 0 0 0.714487 0 1.59481V23.4052C0 24.2855 0.714487 25 1.59657 25H23.4052C24.2855 25 25 24.2855 25 23.4052V1.59481C25.0018 0.712723 24.2873 0 23.407 0ZM20.7378 15.2336C21.1947 15.6993 22.1862 16.4808 22.0062 17.2765C21.8404 18.0068 20.7501 17.7405 19.6916 17.7828C18.4832 17.834 17.7669 17.8604 17.0401 17.2765C16.6978 16.9995 16.4967 16.6714 16.1686 16.3044C15.8704 15.9728 15.4947 15.3782 14.9831 15.4012C14.0639 15.447 14.3515 16.7278 14.0251 17.6011C8.9161 18.4055 6.86437 15.2495 5.05434 12.1869C4.17755 10.7032 2.91087 7.51711 2.91087 7.51711L6.52389 7.50476C6.52389 7.50476 7.68294 9.61294 7.98991 10.1563C8.25101 10.6185 8.53856 10.9855 8.83494 11.3983C9.08369 11.7405 9.4771 12.4109 9.90756 12.3562C10.6079 12.2662 10.735 9.54943 10.301 8.63912C10.1281 8.27041 9.7135 8.14163 9.28481 8.01637C9.42947 7.10253 13.3371 6.912 13.9687 7.6212C14.886 8.65147 13.3336 11.52 14.5897 12.3562C16.3538 11.4318 17.8604 7.56122 17.8604 7.56122L22.0909 7.58768C22.0909 7.58768 21.4293 9.67998 20.736 10.6079C20.332 11.1513 18.9913 12.3615 19.0442 13.2595C19.0865 13.9704 20.1768 14.662 20.7378 15.2336Z" fill="white"/>
</g>
<defs>
<clipPath id="clip0">
<rect width="25" height="25" fill="white"/>
</clipPath>
</defs>
</svg>
