<svg width="35" height="35" viewBox="0 0 35 35" fill="none" xmlns="http://www.w3.org/2000/svg">
<path d="M17.5 0C7.835 0 0 7.835 0 17.5C0 27.1649 7.835 34.9999 17.5 34.9999C27.1649 34.9999 34.9999 27.1649 34.9999 17.5C34.9897 7.83933 27.1607 0.0103271 17.5 0ZM18.75 17.5C18.75 18.1903 18.1903 18.75 17.5 18.75H7.49999C6.80961 18.75 6.24997 18.1903 6.24997 17.5C6.24997 16.8096 6.80961 16.2499 7.49999 16.2499H16.25V7.49999C16.25 6.80961 16.8097 6.24997 17.5 6.24997C18.1904 6.24997 18.75 6.80961 18.75 7.49999V17.5Z" fill="black"/>
</svg>
