<svg width="31" height="44" viewBox="0 0 31 44" fill="none" xmlns="http://www.w3.org/2000/svg">
<path d="M30.4474 28.4999C29.9179 27.7047 29.0782 27.1437 28.0827 26.9205C27.0877 26.6973 26.0555 26.8382 25.1772 27.3173C25.1624 27.3257 25.1472 27.3344 25.1324 27.3431L25.0842 27.3717C23.9956 31.1012 20.2378 33.859 15.7814 33.859C11.3247 33.859 7.56678 31.1012 6.47827 27.3713L6.43045 27.3431C6.41562 27.3344 6.40042 27.3257 6.38522 27.3173C5.50692 26.8379 4.47476 26.6969 3.47968 26.9205C2.48423 27.1437 1.64449 27.7047 1.11506 28.4999C0.586009 29.2952 0.429925 30.2298 0.676842 31.1308C0.920793 32.0221 1.52919 32.7754 2.39191 33.2554L9.05496 37.2559V42.6895C9.05496 43.4136 9.70302 44 10.5023 44H21.0604C21.8598 44 22.5078 43.4136 22.5078 42.6895V37.2559L29.1709 33.2554C30.0336 32.7754 30.642 32.0221 30.8856 31.1311C31.1325 30.2294 30.9768 29.2952 30.4474 28.4999Z" fill="black"/>
<path d="M15.7811 31.2379C19.4901 31.2379 22.5076 28.5057 22.5076 25.1474C22.5076 21.7891 19.4901 19.0569 15.7811 19.0569C12.0722 19.0569 9.05469 21.7891 9.05469 25.1474C9.05469 28.5057 12.0722 31.2379 15.7811 31.2379Z" fill="black"/>
<path d="M15.7811 18.2568C16.2331 18.2568 16.659 18.0658 16.9327 17.7402L17.8577 16.6404L18.984 15.301H25.0409C26.4501 15.301 27.596 14.263 27.596 12.9874V2.31361C27.5964 1.03797 26.4501 0 25.0409 0H6.52137C5.11217 0 3.96582 1.03797 3.96582 2.31361V12.9874C3.96582 14.263 5.11217 15.301 6.52137 15.301H12.5786L13.7049 16.6404L14.63 17.7402C14.9036 18.0658 15.3295 18.2568 15.7811 18.2568ZM13.8644 10.3931L11.5557 8.30276C10.9903 7.79082 10.9903 6.96098 11.5557 6.44938C12.1207 5.93745 13.0372 5.93745 13.6026 6.44938L14.8876 7.61291L17.9596 4.83133C18.525 4.31973 19.4415 4.31973 20.0065 4.83133C20.5719 5.34327 20.5719 6.17311 20.0065 6.68471L15.9113 10.3931C15.6287 10.6489 15.2584 10.7768 14.8876 10.7768C14.5172 10.7768 14.1469 10.6489 13.8644 10.3931Z" fill="black"/>
</svg>
