<svg width="36" height="35" viewBox="0 0 36 35" fill="none" xmlns="http://www.w3.org/2000/svg">
<g clip-path="url(#clip0)">
<path d="M31.1661 8.78975H30.4653V4.85608H6.89664V8.78975H5.80938C3.16231 8.78975 1.00879 10.9433 1.00879 13.5903V15.1866C1.00879 20.0584 4.97233 24.022 9.84415 24.022H15.4029V26.978H11.8917V35H25.0699V26.978H21.3535V24.0219H27.1313C32.0031 24.0219 35.9667 20.0584 35.9667 15.1865V13.5903C35.9667 10.9433 33.8132 8.78975 31.1661 8.78975ZM15.4029 21.97H9.84415V21.97C6.10374 21.97 3.06066 18.927 3.06066 15.1865V13.5903C3.06066 12.0747 4.29372 10.8416 5.80938 10.8416H6.91886C7.07219 13.1623 8.03475 15.3345 9.66908 17.0166C11.2193 18.612 13.2269 19.617 15.403 19.9045V21.97H15.4029ZM21.2699 12.963L21.2936 15.9425L18.4671 14.9994L15.6406 15.9425L15.6643 12.963L13.8938 10.5663L16.7348 9.66803L18.4671 7.2436L20.1993 9.66803L23.0404 10.5663L21.2699 12.963ZM33.9148 15.1865C33.9148 18.9269 30.8717 21.97 27.1313 21.97H21.3535V19.9658C26.2207 19.6238 30.1187 15.7137 30.4428 10.8416H31.1661C32.6818 10.8416 33.9149 12.0746 33.9149 13.5903V15.1865H33.9148Z" fill="black"/>
<path d="M19.6842 11.6571L18.9284 11.4181L18.4676 10.7732L18.0068 11.4181L17.251 11.6571L17.722 12.2947L17.7157 13.0873L18.4676 12.8363L19.2194 13.0873L19.2132 12.2947L19.6842 11.6571Z" fill="black"/>
<path d="M30.466 0H6.89746V2.80423H30.466V0Z" fill="black"/>
</g>
<defs>
<clipPath id="clip0">
<rect width="35" height="35" fill="white" transform="translate(0.988281)"/>
</clipPath>
</defs>
</svg>
