<svg width="36" height="44" viewBox="0 0 36 44" fill="none" xmlns="http://www.w3.org/2000/svg">
<path d="M22.0411 11.8782C22.0411 10.839 20.5151 9.67725 18.3301 9.67725C16.1433 9.67725 14.6191 10.8372 14.6191 11.8782C14.6191 12.9201 16.1433 14.0819 18.3301 14.0819C20.5161 14.081 22.0411 12.9211 22.0411 11.8782Z" fill="black"/>
<path d="M11.2348 44H35.832C35.832 44 28.695 38.2697 28.844 31.9899C28.9331 28.4877 35.832 24.0362 35.7964 14.3075C35.7758 9.41787 31.0262 1.28724 22.9621 0.275237C14.8961 -0.740507 8.85859 1.03354 6.2218 5.99898C3.58126 10.9635 3.3816 15.3204 3.58407 16.1312C3.78841 16.9428 4.64985 18.4603 4.64985 18.4603C4.64985 18.4603 0.59202 24.6906 0.843232 25.7044C1.10007 26.7183 3.88402 27.2641 3.88402 27.2641C3.88402 27.2641 4.13617 27.969 3.62625 29.3368C3.1182 30.7064 4.57017 32.2951 5.00698 32.8502C5.43629 33.4054 4.3977 35.1298 4.75108 36.094C5.1054 37.0555 6.78234 38.2201 8.70674 37.9664C10.6368 37.7127 13.1114 37.2577 13.9709 37.1051C15.9103 41.6643 11.2348 44 11.2348 44ZM12.2134 11.8781C12.2134 9.29617 14.8999 7.27311 18.3325 7.27217C21.7632 7.27217 24.4497 9.29617 24.4497 11.8772C24.4497 14.1549 22.3612 15.9926 19.5182 16.398C19.5192 16.4279 19.537 16.4541 19.537 16.4841V21.2595H21.4398C22.1063 21.2604 22.6434 21.795 22.6434 22.4587C22.6434 23.1253 22.1072 23.6617 21.4398 23.6617H19.537V24.3648H22.7428C23.4083 24.3648 23.9482 24.9021 23.9482 25.5677C23.9482 26.2306 23.4092 26.767 22.7437 26.766L19.537 26.767V28.0683C19.537 28.732 18.9971 29.2722 18.3315 29.2722C17.6679 29.2722 17.128 28.732 17.1289 28.0683V16.4832C17.1289 16.4532 17.1439 16.427 17.1467 16.3961C14.3009 15.9935 12.2134 14.154 12.2134 11.8781Z" fill="black"/>
</svg>
