<svg width="35" height="35" viewBox="0 0 35 35" fill="none" xmlns="http://www.w3.org/2000/svg">
<path d="M17.5 0C7.83501 0 0 7.83501 0 17.5C0 27.165 7.83501 35 17.5 35C27.165 35 35 27.165 35 17.5C35 7.83501 27.165 0 17.5 0ZM18.0469 22.4219H12.0312C11.4272 22.4219 10.9375 21.9321 10.9375 21.3281V16.3124L10.6171 16.6328C10.19 17.06 9.49744 17.06 9.07033 16.6328C8.64315 16.2057 8.64315 15.5131 9.07033 15.086C11.4639 12.6925 11.3494 12.771 11.6126 12.6615C11.7929 12.5868 11.9852 12.5617 12.1855 12.5903C12.6696 12.6587 12.6375 12.7315 14.992 15.086C15.4192 15.5131 15.4192 16.2057 14.992 16.6328C14.565 17.0599 13.8724 17.06 13.4453 16.6328L13.125 16.3124V20.2344H18.0469C18.651 20.2344 19.1406 20.7241 19.1406 21.3281C19.1406 21.9321 18.651 22.4219 18.0469 22.4219ZM25.9296 19.914C23.5463 22.2973 23.6519 22.229 23.3872 22.3385C23.223 22.4067 23.0418 22.4342 22.8609 22.4164C22.3424 22.3658 22.3462 22.2523 20.0079 19.914C19.5807 19.4869 19.5807 18.7943 20.0079 18.3672C20.435 17.94 21.1276 17.94 21.5547 18.3672L21.8751 18.6876V14.7656H16.9532C16.3491 14.7656 15.8594 14.2759 15.8594 13.6719C15.8594 13.0679 16.3491 12.5781 16.9532 12.5781H22.9688C23.5729 12.5781 24.0626 13.0679 24.0626 13.6719V18.6876L24.383 18.3672C24.8101 17.94 25.5026 17.94 25.9297 18.3672C26.3568 18.7944 26.3568 19.4869 25.9296 19.914Z" fill="black"/>
</svg>
