<svg width="36" height="35" viewBox="0 0 36 35" fill="none" xmlns="http://www.w3.org/2000/svg">
<g clip-path="url(#clip0)">
<path d="M17.4629 20.5647C16.9206 20.8576 16.3018 21.0245 15.6452 21.0245C13.5119 21.0245 11.7765 19.2704 11.7765 17.1147H13.8273C13.8273 18.1398 14.6428 18.9737 15.6452 18.9737C16.6474 18.9737 17.4629 18.1398 17.4629 17.1147V1.18801C16.5395 0.445137 15.3723 0 14.1037 0C11.1204 0 8.69366 2.4556 8.69366 5.47382V5.51922C6.2872 5.98812 4.44337 8.07629 4.31653 10.6147H4.33789C4.33789 13.6334 6.75183 16.089 9.71906 16.089V18.1398C6.62606 18.1398 3.96886 16.2167 2.85134 13.4895C2.69246 13.6292 2.54079 13.7784 2.39766 13.9376C1.48869 14.9469 0.988281 16.2551 0.988281 17.6215C0.988281 19.931 2.4241 21.9479 4.48182 22.7375C4.36753 23.1837 4.30905 23.6443 4.30905 24.1055C4.30905 26.0153 5.28104 27.7 6.7505 28.6794C7.41647 25.278 10.3861 22.7057 13.9381 22.7057V24.7565C11.2246 24.7565 8.98392 26.8511 8.69393 29.5342C8.6982 32.5487 11.1234 35 14.1037 35C15.3726 35 16.5398 34.5549 17.4632 33.812V20.5647H17.4629Z" fill="black"/>
<path d="M35.9883 17.6215C35.9883 16.2551 35.4879 14.9469 34.5789 13.9376C34.4489 13.7931 34.3119 13.6569 34.1687 13.5285C32.9393 16.4623 30.0658 18.5254 26.7256 18.5254V16.4746C29.5975 16.4746 32.0066 14.4222 32.6101 11.6838C32.648 11.423 32.6675 11.1591 32.6675 10.8942C32.6675 8.23063 30.7772 6.00521 28.2826 5.51922C28.2829 5.504 28.2829 5.48904 28.2829 5.47382C28.2829 2.4556 25.8561 0 22.8729 0C21.6042 0 20.4371 0.445137 19.5137 1.18801V10.2865C20.056 9.99355 20.6747 9.82666 21.3313 9.82666C23.4646 9.82666 25.2001 11.5808 25.2001 13.7365H23.1493C23.1493 12.7114 22.3338 11.8774 21.3313 11.8774C20.3292 11.8774 19.5137 12.7114 19.5137 13.7365V33.812C20.4371 34.5549 21.6042 35 22.8729 35C25.6828 35 27.9985 32.821 28.2581 30.0455C28.2372 27.0548 25.8404 24.6281 22.8959 24.6281V22.5773C26.5192 22.5773 29.5433 25.2233 30.1841 28.7067C31.6771 27.7312 32.6678 26.0334 32.6678 24.1055C32.6678 23.6443 32.609 23.1837 32.495 22.7375C34.5525 21.9479 35.9883 19.931 35.9883 17.6215Z" fill="black"/>
</g>
<defs>
<clipPath id="clip0">
<rect width="35" height="35" fill="white" transform="translate(0.988281)"/>
</clipPath>
</defs>
</svg>
