<svg width="38" height="38" viewBox="0 0 38 38" fill="none" xmlns="http://www.w3.org/2000/svg">
<path d="M36.0599 10.0959C35.6493 8.56968 34.446 7.3666 32.9201 6.95564C30.1323 6.19287 18.981 6.19287 18.981 6.19287C18.981 6.19287 7.83015 6.19287 5.04238 6.92672C3.54576 7.33725 2.3131 8.5699 1.90258 10.0959C1.16895 12.8834 1.16895 18.6644 1.16895 18.6644C1.16895 18.6644 1.16895 24.4746 1.90258 27.233C2.31354 28.759 3.5164 29.9621 5.0426 30.373C7.8595 31.136 18.9814 31.136 18.9814 31.136C18.9814 31.136 30.1323 31.136 32.9201 30.4022C34.4463 29.9914 35.6493 28.7884 36.0603 27.2624C36.7937 24.4746 36.7937 18.6938 36.7937 18.6938C36.7937 18.6938 36.8231 12.8834 36.0599 10.0959ZM15.4307 24.0052V13.3237L24.7035 18.6644L15.4307 24.0052Z" fill="white"/>
</svg>
